# https://github.com/mikedh/trimesh

o geometry_0
v 0.16617463 -0.14129728 0.18755501
v 0.16328983 -0.13444150 0.17990788
v 0.16328983 -0.13443808 0.18755501
v 0.16328983 -0.13443808 0.19524794
v 0.16328983 -0.13444491 0.20294088
v 0.16614840 -0.14129728 0.20294088
v 0.16533541 -0.14893530 0.18755501
v 0.16585992 -0.14129728 -0.07345509
v 0.16305379 -0.13443808 -0.18862008
v 0.16315870 -0.13443808 -0.07345509
v 0.15660232 -0.13114853 -0.13486116
v 0.15660232 -0.13115536 -0.10418102
v 0.15660232 -0.13116219 -0.08114803
v 0.15660232 -0.13126468 0.18755501
v 0.15660232 -0.13127151 0.20294088
v 0.15660232 -0.13129200 0.21058802
v 0.16323736 -0.13445516 0.21058802
v 0.16528296 -0.14893530 0.20294088
v 0.16604350 -0.14129728 0.21058802
v 0.16245061 -0.15518646 0.20294088
v 0.16245061 -0.15519671 0.19524794
v 0.16245061 -0.15519671 0.18755501
v 0.16245061 -0.15518987 0.17990788
v 0.16221458 -0.15493368 -0.18092716
v 0.16486336 -0.14893530 -0.18862008
v 0.16570256 -0.14129728 -0.18862008
v 0.16302757 -0.13443808 -0.19631301
v 0.15660232 -0.13118270 -0.20396015
v 0.15660232 -0.13117244 -0.19631301
v 0.16308002 -0.13442784 -0.14255410
v 0.16308002 -0.13442442 -0.13486116
v 0.14899692 -0.13090600 -0.21934602
v 0.14899692 -0.13090600 -0.10418102
v 0.14899692 -0.13091283 -0.08879517
v 0.14899692 -0.13091625 -0.08114803
v 0.14899692 -0.13110754 0.20294088
v 0.14899692 -0.13111779 0.21058802
v 0.14899692 -0.13114170 0.21828095
v 0.15660232 -0.13150379 0.21828095
v 0.16289644 -0.13464646 0.21828095
v 0.16509938 -0.14893530 0.21058802
v 0.16523051 -0.14129728 0.21828095
v 0.15809717 -0.15900548 0.20294088
v 0.16231948 -0.15502932 0.21058802
v 0.15809717 -0.15901572 0.19524794
v 0.15746776 -0.15875270 -0.18092716
v 0.15744153 -0.15871170 -0.19631301
v 0.16218835 -0.15491660 -0.18862008
v 0.16216212 -0.15488928 -0.19631301
v 0.16213590 -0.15486195 -0.20396015
v 0.16481089 -0.14893530 -0.19631301
v 0.16567635 -0.14129728 -0.19631301
v 0.16297512 -0.13444491 -0.20396015
v 0.15660232 -0.13119978 -0.21165308
v 0.15660232 -0.13141497 -0.21934602
v 0.14899692 -0.13185904 -0.22699316
v 0.14139153 -0.13151062 -0.22699316
v -0.08312503 -0.12923903 -0.23216756
v -0.08123680 -0.12923903 -0.23152648
v -0.07496890 -0.12923903 -0.22644366
v 0.04241647 -0.13000419 -0.19631301
v 0.04241647 -0.12998711 -0.18862008
v 0.04241647 -0.12999053 -0.18092716
v -0.07399855 -0.12923903 0.21828095
v -0.07457551 -0.12923903 0.22331798
v -0.07722429 -0.12923903 0.22739341
v -0.08068605 -0.12923903 0.23064459
v 0.14139153 -0.13168484 0.22597388
v 0.14899692 -0.13197177 0.22597388
v 0.15702193 -0.13432193 0.22647759
v 0.16184741 -0.13570880 0.22427959
v 0.16399791 -0.14893530 0.21828095
v 0.16163762 -0.15422658 0.21828095
v 0.16247682 -0.14129728 0.22524122
v 0.16174252 -0.14893530 0.22409644
v 0.15426825 -0.16107212 0.20294088
v 0.15429447 -0.16108236 0.19524794
v 0.15783492 -0.15884834 0.21058802
v 0.15403221 -0.16095938 0.21058802
v 0.15807094 -0.15901914 0.18755501
v 0.15363884 -0.16074760 -0.19631301
v 0.15361261 -0.16074418 -0.20396015
v 0.15741531 -0.15868096 -0.20396015
v 0.15728418 -0.15853408 -0.21165308
v 0.16200477 -0.15471164 -0.21165308
v 0.16473223 -0.14893530 -0.20396015
v 0.16559767 -0.14129728 -0.20396015
v 0.16292266 -0.13446199 -0.21165308
v 0.16252929 -0.13468403 -0.21934602
v 0.16158517 -0.13575662 -0.22493255
v 0.15670722 -0.13433218 -0.22731370
v 0.15424202 -0.13613580 -0.23157228
v 0.14899692 -0.13515201 -0.23212178
v 0.14139153 -0.13482407 -0.23239652
v -0.08669169 -0.12923903 -0.23253390
v -0.07232012 -0.12923903 -0.18051504
v -0.07182184 -0.12923903 0.08832538
v -0.08711131 -0.12923903 0.23073617
v 0.14139153 -0.13488215 0.23151463
v 0.14899692 -0.13513152 0.23128567
v 0.15474031 -0.13607431 0.23064459
v 0.15932977 -0.14129728 0.22904189
v 0.16087708 -0.15330087 0.22276848
v 0.15626139 -0.15830180 0.21828095
v 0.15791360 -0.14893530 0.22794289
v 0.14899692 -0.16226086 0.20294088
v 0.14899692 -0.16230185 0.19524794
v 0.14899692 -0.16184411 -0.19631301
v 0.15348148 -0.16070661 0.21571663
v 0.14899692 -0.16203199 0.21058802
v 0.14899692 -0.16183045 -0.20396015
v 0.15348148 -0.16069294 -0.21165308
v 0.15316678 -0.16056313 -0.21632380
v 0.15607781 -0.15802168 -0.21907127
v 0.16134913 -0.15389865 -0.21934602
v 0.16452242 -0.14893530 -0.21165308
v 0.16544032 -0.14129728 -0.21165308
v 0.16452242 -0.14129728 -0.21934602
v 0.16208345 -0.14129728 -0.22561941
v 0.15862169 -0.14129728 -0.22946589
v 0.15479275 -0.14129728 -0.23184702
v 0.14899692 -0.14129728 -0.23344971
v 0.14139153 -0.14129728 -0.23404501
v 0.13375991 -0.14129728 -0.23413659
v -0.08698018 -0.13365924 -0.23308340
v -0.09162209 -0.12923903 -0.23244232
v 0.02723190 -0.14129728 -0.23431975
v -0.07934856 -0.14129728 0.23178937
v -0.07174316 -0.14129728 0.23229306
v -0.06413777 -0.14129728 0.23243044
v 0.01960028 -0.14129728 0.23348363
v 0.13375991 -0.14129728 0.23320890
v 0.13375991 -0.13487532 0.23156041
v -0.09120249 -0.12923903 0.23009510
v -0.08732111 -0.13363192 0.23064459
v 0.14139153 -0.14129728 0.23316310
v 0.14899692 -0.14129728 0.23265940
v 0.15552708 -0.14129728 0.23101091
v 0.15408466 -0.14893530 0.23036983
v 0.15285207 -0.15278165 0.22982033
v 0.15586800 -0.15441105 0.22556176
v 0.15059668 -0.16003708 0.22084525
v 0.14139153 -0.16279716 0.20294088
v 0.14139153 -0.16286207 0.19524794
v 0.14139153 -0.16259220 0.21058802
v 0.14139153 -0.16287915 0.18755501
v 0.14139153 -0.16294063 0.08008296
v 0.14139153 -0.16294063 0.07239003
v 0.14139153 -0.16293721 0.05704996
v 0.14139153 -0.16293380 0.04935703
v 0.14139153 -0.16273567 -0.18092716
v 0.14139153 -0.16272201 -0.19631301
v 0.14139153 -0.16271176 -0.20396015
v 0.14844619 -0.16100720 0.21828095
v 0.14139153 -0.16263660 -0.21165308
v 0.14899692 -0.16173821 -0.21165308
v 0.14883957 -0.16103454 -0.21907127
v 0.15127854 -0.16000634 -0.22145241
v 0.16066727 -0.15306517 -0.22351302
v 0.16334228 -0.14893530 -0.21934602
v 0.16137536 -0.14893530 -0.22456622
v 0.15657609 -0.14968339 -0.22891639
v 0.15403221 -0.14763724 -0.23152648
v 0.14139153 -0.14893530 -0.23344971
v 0.14973123 -0.14968339 -0.23225914
v 0.12615450 -0.14893530 -0.23354129
v 0.02723190 -0.14893530 -0.23390763
v -0.08698018 -0.14129728 -0.23312917
v -0.04890074 -0.14129728 -0.23399921
v -0.06413777 -0.14129728 -0.23390763
v -0.07934856 -0.14129728 -0.23377025
v -0.09434955 -0.12923903 -0.23198440
v 0.01960028 -0.14893530 -0.23390763
v -0.08527552 -0.14129728 0.23059879
v -0.08412160 -0.14646900 0.23023245
v -0.07861424 -0.14897971 0.23055299
v -0.07174316 -0.14893530 0.23105671
v 0.01960028 -0.14893530 0.23288836
v -0.09107136 -0.13106997 0.23000352
v -0.09448068 -0.12923903 0.22588230
v 0.14139153 -0.14893530 0.23215571
v 0.14899692 -0.14893530 0.23156041
v 0.14899692 -0.15325305 0.23018668
v 0.14844619 -0.15752295 0.22524122
v 0.14553515 -0.16044700 0.22221900
v 0.13375991 -0.16282790 0.20294088
v 0.13375991 -0.16264002 0.21058802
v 0.13375991 -0.16288598 0.19524794
v -0.07174316 -0.16407814 0.07239003
v 0.14139153 -0.16151277 0.21828095
v 0.13375991 -0.16157426 0.21828095
v 0.12615450 -0.16307726 0.07239003
v 0.13375991 -0.16302602 0.08008296
v 0.13375991 -0.16303286 0.07239003
v 0.13375991 -0.16303286 0.05704996
v 0.13375991 -0.16302944 0.04935703
v 0.13375991 -0.16288598 -0.20396015
v 0.13375991 -0.16285181 -0.21165308
v 0.14139153 -0.16186802 -0.21934602
v 0.14621701 -0.16062463 -0.22365040
v 0.14949520 -0.15682610 -0.22722210
v 0.15277339 -0.15273040 -0.23083963
v 0.15660232 -0.15460576 -0.22534467
v 0.14771186 -0.15364587 -0.23143490
v 0.14139153 -0.15415144 -0.23175544
v 0.13375991 -0.15423000 -0.23180124
v 0.11854911 -0.15427782 -0.23184702
v 0.02723190 -0.15444520 -0.23198440
v -0.07934856 -0.14893530 -0.23312917
v -0.08690150 -0.14885331 -0.23193860
v -0.09133362 -0.14625379 -0.23125175
v -0.09219905 -0.14129728 -0.23170964
v -0.09335298 -0.13365924 -0.23207598
v -0.07174316 -0.14893530 -0.23331236
v -0.09726058 -0.12923903 -0.23070225
v 0.01960028 -0.15444179 -0.23198440
v -0.06413777 -0.15416510 -0.23170964
v -0.09007479 -0.13616312 0.22940822
v -0.08907823 -0.14129728 0.22862977
v -0.08737357 -0.14946135 0.22643178
v -0.08065983 -0.15155873 0.22936243
v -0.07559831 -0.15276797 0.22982033
v -0.07174316 -0.15284996 0.22986614
v 0.01960028 -0.15395673 0.23082775
v 0.03481107 -0.15397381 0.23082775
v 0.14139153 -0.15372786 0.23050721
v -0.09309072 -0.13363192 0.22652337
v -0.09253999 -0.14129728 0.22478330
v -0.09608044 -0.12923903 0.22221900
v 0.14139153 -0.15755028 0.22615705
v 0.14139153 -0.16049482 0.22231058
v 0.01199488 -0.16316267 0.20294088
v 0.01199488 -0.16301236 0.21058802
v -0.01845293 -0.16324464 0.20294088
v -0.01845293 -0.16329246 0.19524794
v -0.07934856 -0.16408155 0.07239003
v -0.07934856 -0.16413620 0.01863110
v -0.07174316 -0.16408838 0.05704996
v -0.02605833 -0.16330954 0.19524794
v -0.03368995 -0.16332664 0.19524794
v -0.04129535 -0.16338129 0.18755501
v -0.04890074 -0.16339153 0.18755501
v -0.07934856 -0.16373312 0.13384189
v 0.01960028 -0.16188510 0.21828095
v 0.13375991 -0.16052556 0.22235637
v 0.12615450 -0.16053581 0.22240216
v 0.12615450 -0.16308409 0.05704996
v 0.12615450 -0.16293038 -0.21165308
v 0.12615450 -0.16215496 -0.21934602
v 0.13375991 -0.16206273 -0.21934602
v 0.14139153 -0.16078175 -0.22397093
v 0.14139153 -0.15797044 -0.22777160
v 0.13375991 -0.15804900 -0.22790898
v 0.12615450 -0.15808318 -0.22800056
v 0.05765349 -0.15818223 -0.22841268
v 0.11854911 -0.15810025 -0.22804635
v 0.02723190 -0.15826762 -0.22845847
v -0.07174316 -0.15409336 -0.23166386
v -0.07934856 -0.15385083 -0.23152648
v -0.08430518 -0.15335552 -0.23125175
v -0.08936670 -0.15134353 -0.23010696
v -0.09330053 -0.14885331 -0.22735949
v -0.09634268 -0.14158763 -0.22685578
v -0.09718190 -0.13365924 -0.22942008
v -0.09783754 -0.12923903 -0.23033591
v 0.01960028 -0.15826079 -0.22845847
v 0.01199488 -0.15823347 -0.22845847
v 0.00438949 -0.15819248 -0.22845847
v -0.06413777 -0.15798752 -0.22813793
v -0.09162209 -0.14736397 0.22350115
v -0.09062552 -0.15245713 0.22171529
v -0.08556400 -0.15492002 0.22423381
v -0.07861424 -0.15555880 0.22647759
v -0.07174316 -0.16034110 0.22194425
v -0.07174316 -0.15661432 0.22597388
v -0.06413777 -0.16037868 0.22208162
v 0.01960028 -0.15777573 0.22647759
v 0.11854911 -0.15761519 0.22624863
v 0.13375991 -0.15757761 0.22620284
v -0.09770641 -0.12923903 0.21828095
v 0.00438949 -0.16302944 0.21058802
v -0.02605833 -0.16325148 0.20294088
v -0.04129535 -0.16333688 0.19524794
v -0.00321591 -0.16303969 0.21058802
v -0.08666548 -0.16222670 0.07239003
v -0.08698018 -0.16241458 -0.10418102
v -0.08637699 -0.16205249 0.13384189
v -0.08648190 -0.16206615 0.12614896
v -0.07934856 -0.16413279 0.00329104
v -0.07174316 -0.16409863 0.00329104
v -0.07174316 -0.16409180 0.04935703
v -0.08698018 -0.16244191 -0.15789416
v -0.08698018 -0.16244532 -0.16558709
v -0.04890074 -0.16334371 0.19524794
v -0.05650614 -0.16334371 0.19524794
v -0.06413777 -0.16334030 0.19524794
v -0.07174316 -0.16333005 0.19524794
v -0.07934856 -0.16337104 0.17221495
v -0.08600983 -0.16187827 0.16452202
v -0.08629832 -0.16200808 0.14148903
v 0.01199488 -0.16190218 0.21828095
v 0.02723190 -0.16066903 0.22263112
v 0.01960028 -0.16068953 0.22263112
v -0.07174316 -0.16409522 -0.00435610
v 0.01199488 -0.16346668 -0.21165308
v 0.05765349 -0.16257170 -0.21934602
v 0.12615450 -0.16089107 -0.22415409
v 0.13375991 -0.16085008 -0.22410830
v 0.11854911 -0.16092181 -0.22419988
v 0.06525888 -0.16112335 -0.22452042
v 0.05765349 -0.16115068 -0.22456622
v 0.03481107 -0.16115751 -0.22461201
v 0.02723190 -0.16116776 -0.22461201
v 0.00438949 -0.16118825 -0.22461201
v -0.00321591 -0.16118825 -0.22461201
v -0.07174316 -0.15791579 -0.22804635
v -0.07934856 -0.15766984 -0.22777160
v -0.08370199 -0.16058706 -0.22351302
v -0.08653435 -0.15638886 -0.22680999
v -0.09212037 -0.15432906 -0.22497834
v -0.09886034 -0.13923063 -0.22419988
v -0.09988312 -0.12923903 -0.22671841
v -0.09951597 -0.13365924 -0.22561941
v -0.01845293 -0.16115751 -0.22456622
v -0.06413777 -0.16101062 -0.22429147
v -0.07174316 -0.16095938 -0.22419988
v -0.09240886 -0.14951942 0.21883045
v -0.09487406 -0.14129728 0.21828095
v -0.09138607 -0.15388157 0.21663246
v -0.08734734 -0.15694908 0.21878464
v -0.08404292 -0.16080225 0.21585401
v -0.07934856 -0.16007124 0.22116579
v -0.07934856 -0.16120875 0.21731934
v -0.07174316 -0.16142737 0.21809778
v -0.05508996 -0.16042309 0.22217320
v -0.06017770 -0.16039576 0.22212741
v -0.06413777 -0.16145128 0.21823516
v -0.03368995 -0.16052556 0.22235637
v -0.09783754 -0.12923903 0.21672405
v -0.09555592 -0.14129728 0.21058802
v -0.05650614 -0.16324464 0.20294088
v -0.01084753 -0.16304652 0.21058802
v -0.09046818 -0.16005416 0.09542302
v -0.09101891 -0.16065537 -0.09648809
v -0.09104513 -0.16066903 -0.10418102
v -0.09115004 -0.16075443 -0.16558709
v -0.09033705 -0.15992095 0.11845603
v -0.09038950 -0.15996535 0.11076310
v -0.07934856 -0.16412937 -0.00435610
v -0.09115004 -0.16075784 -0.17328002
v -0.08698018 -0.16243849 -0.17328002
v -0.06413777 -0.16324123 0.20294088
v -0.07174316 -0.16323098 0.20294088
v -0.07934856 -0.16311825 0.19524794
v -0.07934856 -0.16321390 0.18755501
v -0.08587870 -0.16183045 0.17221495
v -0.08614096 -0.16191243 0.15687488
v -0.08566891 -0.16172113 0.18755501
v -0.09028460 -0.15984579 0.12614896
v -0.03368995 -0.16165623 0.21828095
v -0.07174316 -0.16280740 0.21058802
v -0.01845293 -0.16303286 0.21058802
v 0.00438949 -0.16348376 -0.21165308
v 0.01199488 -0.16272201 -0.21934602
v 0.02723190 -0.16267419 -0.21934602
v 0.05002186 -0.16260245 -0.21934602
v -0.07934856 -0.16411913 -0.01200324
v 0.00438949 -0.16273909 -0.21934602
v 0.05002186 -0.16116093 -0.22456622
v -0.00321591 -0.16274250 -0.21934602
v -0.01084753 -0.16272884 -0.21934602
v -0.02605833 -0.16268785 -0.21934602
v -0.07934856 -0.16080225 -0.22392513
v -0.07934856 -0.16220621 -0.21934602
v -0.08538042 -0.16120875 -0.21934602
v -0.08918312 -0.15961009 -0.21934602
v -0.09065176 -0.16032060 -0.21485847
v -0.09306449 -0.15579108 -0.21934602
v -0.09663117 -0.14893530 -0.21934602
v -0.09812602 -0.14417690 -0.21934602
v -0.09909637 -0.14035447 -0.21934602
v -0.10069611 -0.13365924 -0.21934602
v -0.10174514 -0.12923903 -0.21934602
v -0.10124686 -0.12923903 -0.22195611
v -0.03368995 -0.16266394 -0.21934602
v -0.04129535 -0.16263319 -0.21934602
v -0.04890074 -0.16259903 -0.21934602
v -0.06413777 -0.16252388 -0.21934602
v -0.07174316 -0.16245215 -0.21934602
v -0.09372014 -0.14893530 0.21058802
v -0.09177945 -0.15467066 0.21058802
v -0.08865861 -0.15848966 0.21058802
v -0.08485592 -0.16120191 0.21058802
v -0.07934856 -0.16239749 0.21058802
v -0.09825715 -0.12923903 0.21095435
v -0.09728681 -0.13365924 0.21058802
v -0.09568705 -0.14129728 0.20294088
v -0.09390371 -0.14893530 0.20294088
v -0.09230395 -0.15610193 0.11845603
v -0.09356279 -0.15657674 -0.10418102
v -0.09374637 -0.15657674 -0.15789416
v -0.09377258 -0.15657674 -0.16558709
v -0.09209416 -0.15563395 0.15687488
v -0.09377258 -0.15657674 -0.19631301
v -0.09115004 -0.16074418 -0.18862008
v -0.08698018 -0.16242483 -0.18092716
v -0.07934856 -0.16291672 0.20294088
v -0.08556400 -0.16165282 0.19524794
v -0.08535420 -0.16150253 0.20294088
v -0.08994366 -0.15945297 0.15687488
v -0.09188435 -0.15497125 0.20294088
v -0.07934856 -0.16384244 -0.13486116
v -0.07934856 -0.16372629 -0.18092716
v -0.07934856 -0.16370238 -0.18862008
v -0.04890074 -0.16359649 -0.20396015
v -0.03368995 -0.16354183 -0.21165308
v -0.04129535 -0.16354866 -0.21165308
v -0.04890074 -0.16353841 -0.21165308
v -0.06413777 -0.16350425 -0.21165308
v -0.07934856 -0.16336421 -0.21165308
v -0.08766204 -0.16164599 -0.21206521
v -0.09096646 -0.16056996 -0.20977564
v -0.09298583 -0.15729750 -0.21206521
v -0.09705077 -0.14893530 -0.21165308
v -0.09823093 -0.14445018 -0.21165308
v -0.10140421 -0.12923903 -0.10418102
v -0.09912258 -0.14063117 -0.21165308
v -0.10072234 -0.13365924 -0.21165308
v -0.09817847 -0.14412225 -0.15024702
v -0.07174316 -0.16348034 -0.21165308
v -0.08915689 -0.15879027 0.20294088
v -0.09828338 -0.12923903 0.21058802
v -0.09398239 -0.14893530 0.19524794
v -0.09838827 -0.12923903 0.20294088
v -0.09846695 -0.12923903 0.19524794
v -0.10135176 -0.12923903 -0.09648809
v -0.10035519 -0.13365924 -0.09648809
v -0.09893901 -0.13986258 -0.09648809
v -0.09673607 -0.14893530 -0.09648809
v -0.09678851 -0.14893530 -0.10418102
v -0.09699832 -0.14893530 -0.15789416
v -0.09702455 -0.14893530 -0.16558709
v -0.09710322 -0.14893530 -0.20396015
v -0.09374637 -0.15657674 -0.20396015
v -0.09112381 -0.16073735 -0.19631301
v -0.08698018 -0.16240433 -0.18862008
v -0.08936670 -0.15889958 0.19524794
v -0.08698018 -0.16236675 -0.19631301
v -0.07934856 -0.16365798 -0.19631301
v -0.07174316 -0.16360674 -0.20396015
v -0.07934856 -0.16357257 -0.20396015
v -0.08698018 -0.16226086 -0.20396015
v -0.09109759 -0.16069294 -0.20396015
v -0.09823093 -0.14445701 -0.20396015
v -0.09896524 -0.13997873 -0.10418102
v -0.10137799 -0.12923903 -0.09973927
v -0.09823093 -0.14438186 -0.19631301
v -0.09809980 -0.14383532 -0.11182816
v -0.09804734 -0.14368160 -0.09648809
v -0.09807357 -0.14380115 -0.10418102
f 1 2 3
f 1 3 4
f 1 4 5
f 1 5 6
f 1 6 7
f 1 7 8
f 1 8 9
f 1 9 10
f 1 10 2
f 2 10 3
f 3 10 11
f 3 11 4
f 4 11 12
f 4 12 13
f 4 13 14
f 4 14 15
f 4 15 5
f 5 15 16
f 5 16 17
f 5 17 6
f 6 18 7
f 6 17 19
f 6 19 18
f 7 18 20
f 7 20 21
f 7 21 22
f 7 22 23
f 7 23 24
f 7 24 25
f 7 25 8
f 8 25 26
f 8 26 9
f 9 26 52
f 9 52 27
f 9 27 28
f 9 28 29
f 9 29 30
f 9 30 10
f 10 30 31
f 10 31 29
f 10 29 11
f 11 29 32
f 11 32 33
f 11 33 12
f 12 33 13
f 13 33 14
f 14 33 34
f 14 34 15
f 15 34 35
f 15 35 36
f 15 36 37
f 15 37 16
f 16 37 38
f 16 38 39
f 16 39 17
f 17 39 40
f 17 40 19
f 18 19 41
f 18 41 20
f 19 40 42
f 19 42 41
f 20 43 45
f 20 45 21
f 20 41 44
f 20 44 43
f 21 45 22
f 22 45 23
f 23 45 24
f 24 46 47
f 24 47 48
f 24 48 25
f 24 45 46
f 25 48 49
f 25 49 50
f 25 50 51
f 25 51 52
f 25 52 26
f 27 52 53
f 27 53 54
f 27 54 28
f 28 54 32
f 28 32 29
f 29 31 30
f 32 54 55
f 32 55 56
f 32 56 57
f 32 57 58
f 32 58 59
f 32 59 60
f 32 60 61
f 32 61 62
f 32 62 33
f 33 62 63
f 33 63 34
f 34 63 35
f 35 63 64
f 35 64 36
f 36 64 65
f 36 65 37
f 37 65 38
f 38 65 66
f 38 66 67
f 38 67 68
f 38 68 69
f 38 69 39
f 39 69 70
f 39 70 71
f 39 71 40
f 40 71 42
f 41 42 72
f 41 72 73
f 41 73 44
f 42 71 74
f 42 74 75
f 42 75 72
f 43 76 77
f 43 77 45
f 43 44 78
f 43 78 79
f 43 79 76
f 44 73 78
f 45 77 80
f 45 80 46
f 46 81 82
f 46 82 47
f 46 80 77
f 46 77 81
f 47 82 83
f 47 83 50
f 47 50 49
f 47 49 48
f 50 83 84
f 50 84 85
f 50 85 86
f 50 86 51
f 51 86 87
f 51 87 52
f 52 87 88
f 52 88 53
f 53 88 54
f 54 88 55
f 55 89 90
f 55 90 91
f 55 91 56
f 55 88 89
f 56 91 92
f 56 92 93
f 56 93 94
f 56 94 57
f 57 94 95
f 57 95 58
f 58 95 126
f 58 126 172
f 58 172 215
f 58 215 265
f 58 265 322
f 58 322 384
f 58 384 383
f 58 383 426
f 58 426 456
f 58 456 436
f 58 436 435
f 58 435 434
f 58 434 432
f 58 432 395
f 58 395 339
f 58 339 280
f 58 280 229
f 58 229 180
f 58 180 134
f 58 134 98
f 58 98 67
f 58 67 66
f 58 66 65
f 58 65 64
f 58 64 97
f 58 97 96
f 58 96 60
f 58 60 59
f 60 62 61
f 60 96 62
f 62 96 97
f 62 97 64
f 62 64 63
f 67 98 99
f 67 99 68
f 68 99 69
f 69 99 100
f 69 100 101
f 69 101 70
f 70 101 71
f 71 101 102
f 71 102 74
f 72 75 103
f 72 103 73
f 73 104 78
f 73 103 104
f 74 102 75
f 75 102 105
f 75 105 103
f 76 106 107
f 76 107 77
f 76 79 106
f 77 107 108
f 77 108 81
f 78 104 109
f 78 109 79
f 79 109 110
f 79 110 106
f 81 108 82
f 82 111 112
f 82 112 83
f 82 108 111
f 83 112 84
f 84 112 113
f 84 113 114
f 84 114 115
f 84 115 85
f 85 115 116
f 85 116 86
f 86 116 117
f 86 117 87
f 87 117 88
f 88 117 89
f 89 118 90
f 89 117 118
f 90 119 120
f 90 120 92
f 90 92 91
f 90 118 119
f 92 120 121
f 92 121 122
f 92 122 93
f 93 122 123
f 93 123 94
f 94 123 124
f 94 124 95
f 95 125 126
f 95 124 127
f 95 127 125
f 98 128 129
f 98 129 130
f 98 130 131
f 98 131 132
f 98 132 133
f 98 133 99
f 98 134 135
f 98 135 128
f 99 133 136
f 99 136 100
f 100 136 137
f 100 137 101
f 101 138 102
f 101 137 138
f 102 138 139
f 102 139 105
f 103 105 140
f 103 140 141
f 103 141 142
f 103 142 104
f 104 142 109
f 105 139 140
f 106 143 144
f 106 144 107
f 106 110 145
f 106 145 143
f 107 144 146
f 107 146 147
f 107 147 148
f 107 148 149
f 107 149 150
f 107 150 151
f 107 151 152
f 107 152 108
f 108 152 153
f 108 153 111
f 109 142 154
f 109 154 110
f 110 154 145
f 111 153 155
f 111 155 156
f 111 156 112
f 112 156 113
f 113 157 158
f 113 158 114
f 113 156 157
f 114 158 159
f 114 159 115
f 115 160 116
f 115 159 160
f 116 160 118
f 116 118 117
f 118 160 161
f 118 161 119
f 119 161 120
f 120 162 163
f 120 163 121
f 120 161 162
f 121 163 122
f 122 164 123
f 122 163 165
f 122 165 164
f 123 164 124
f 124 164 166
f 124 166 167
f 124 167 127
f 125 168 126
f 125 127 169
f 125 169 170
f 125 170 171
f 125 171 168
f 126 168 172
f 127 167 173
f 127 173 169
f 128 135 174
f 128 174 175
f 128 175 176
f 128 176 177
f 128 177 129
f 129 178 130
f 129 177 178
f 130 178 131
f 131 178 132
f 132 178 136
f 132 136 133
f 134 179 174
f 134 174 135
f 134 180 179
f 136 178 181
f 136 181 137
f 137 181 182
f 137 182 139
f 137 139 138
f 139 182 140
f 140 182 183
f 140 183 184
f 140 184 142
f 140 142 141
f 142 185 154
f 142 184 185
f 143 186 144
f 143 145 187
f 143 187 186
f 144 186 188
f 144 188 189
f 144 189 146
f 145 154 190
f 145 190 191
f 145 191 187
f 146 189 192
f 146 192 193
f 146 193 194
f 146 194 147
f 147 194 195
f 147 195 148
f 148 195 149
f 149 195 196
f 149 196 150
f 150 196 197
f 150 197 151
f 151 197 152
f 152 197 153
f 153 197 198
f 153 198 155
f 154 185 190
f 155 198 199
f 155 199 157
f 155 157 156
f 157 199 200
f 157 200 158
f 158 200 201
f 158 201 202
f 158 202 203
f 158 203 159
f 159 203 202
f 159 202 162
f 159 162 161
f 159 161 160
f 162 202 163
f 163 202 165
f 164 165 204
f 164 204 205
f 164 205 206
f 164 206 166
f 165 202 204
f 166 206 207
f 166 207 167
f 167 207 208
f 167 208 173
f 168 209 210
f 168 210 211
f 168 211 212
f 168 212 213
f 168 213 172
f 168 171 209
f 169 173 170
f 170 173 214
f 170 214 171
f 171 214 209
f 172 213 215
f 173 208 216
f 173 216 217
f 173 217 214
f 174 179 175
f 175 179 218
f 175 218 219
f 175 219 220
f 175 220 221
f 175 221 176
f 176 221 222
f 176 222 177
f 177 222 178
f 178 222 223
f 178 223 224
f 178 224 225
f 178 225 226
f 178 226 181
f 179 227 228
f 179 228 218
f 179 180 227
f 180 229 228
f 180 228 227
f 181 226 183
f 181 183 182
f 183 226 230
f 183 230 185
f 183 185 184
f 185 230 231
f 185 231 190
f 186 232 188
f 186 187 233
f 186 233 232
f 187 191 233
f 188 232 234
f 188 234 235
f 188 235 189
f 189 236 237
f 189 237 238
f 189 238 192
f 189 235 239
f 189 239 240
f 189 240 241
f 189 241 242
f 189 242 243
f 189 243 236
f 190 231 191
f 191 244 233
f 191 231 245
f 191 245 246
f 191 246 244
f 192 194 193
f 192 238 247
f 192 247 194
f 194 247 195
f 195 247 196
f 196 247 197
f 197 248 198
f 197 247 248
f 198 248 249
f 198 249 250
f 198 250 199
f 199 250 251
f 199 251 200
f 200 251 252
f 200 252 204
f 200 204 201
f 201 204 202
f 204 252 205
f 205 252 253
f 205 253 254
f 205 254 206
f 206 255 207
f 206 254 256
f 206 256 255
f 207 255 257
f 207 257 208
f 208 257 216
f 209 214 258
f 209 258 259
f 209 259 260
f 209 260 210
f 210 260 211
f 211 260 261
f 211 261 262
f 211 262 263
f 211 263 264
f 211 264 265
f 211 265 212
f 212 265 215
f 212 215 213
f 214 217 258
f 216 257 266
f 216 266 267
f 216 267 268
f 216 268 217
f 217 268 269
f 217 269 258
f 218 228 219
f 219 228 270
f 219 270 220
f 220 270 271
f 220 271 272
f 220 272 221
f 221 272 273
f 221 273 222
f 222 273 274
f 222 274 275
f 222 275 223
f 223 275 224
f 224 275 276
f 224 276 277
f 224 277 225
f 225 277 278
f 225 278 226
f 226 278 279
f 226 279 230
f 228 229 280
f 228 280 270
f 230 245 231
f 230 279 245
f 232 233 234
f 233 281 234
f 233 244 301
f 233 301 281
f 234 282 294
f 234 294 283
f 234 283 240
f 234 240 239
f 234 239 235
f 234 281 284
f 234 284 282
f 236 285 286
f 236 286 237
f 236 243 287
f 236 287 288
f 236 288 285
f 237 289 290
f 237 290 247
f 237 247 291
f 237 291 238
f 237 286 292
f 237 292 293
f 237 293 289
f 238 291 247
f 240 283 242
f 240 242 241
f 242 283 294
f 242 294 243
f 243 294 295
f 243 295 296
f 243 296 297
f 243 297 298
f 243 298 299
f 243 299 300
f 243 300 287
f 244 246 301
f 245 279 246
f 246 302 303
f 246 303 301
f 246 279 278
f 246 278 277
f 246 277 302
f 247 290 304
f 247 304 248
f 248 305 306
f 248 306 249
f 248 304 305
f 249 306 307
f 249 307 308
f 249 308 250
f 250 308 251
f 251 308 253
f 251 253 252
f 253 308 254
f 254 308 307
f 254 307 309
f 254 309 310
f 254 310 311
f 254 311 256
f 255 256 311
f 255 311 257
f 257 311 312
f 257 312 313
f 257 313 314
f 257 314 315
f 257 315 266
f 258 269 316
f 258 316 259
f 259 316 317
f 259 317 260
f 260 317 318
f 260 318 319
f 260 319 261
f 261 319 320
f 261 320 262
f 262 320 321
f 262 321 263
f 263 321 264
f 264 321 265
f 265 321 323
f 265 323 322
f 266 315 267
f 267 315 324
f 267 324 268
f 268 324 269
f 269 324 325
f 269 325 326
f 269 326 316
f 270 327 271
f 270 280 328
f 270 328 327
f 271 327 329
f 271 329 330
f 271 330 272
f 272 330 331
f 272 331 332
f 272 332 273
f 273 332 274
f 274 276 275
f 274 332 333
f 274 333 334
f 274 334 276
f 276 335 336
f 276 336 277
f 276 334 337
f 276 337 335
f 277 336 335
f 277 335 338
f 277 338 303
f 277 303 302
f 280 339 340
f 280 340 328
f 281 301 284
f 282 341 295
f 282 295 294
f 282 284 342
f 282 342 341
f 284 301 342
f 285 288 343
f 285 343 344
f 285 344 345
f 285 345 346
f 285 346 286
f 286 346 292
f 287 300 347
f 287 347 348
f 287 348 288
f 288 348 343
f 289 293 349
f 289 349 304
f 289 304 290
f 292 346 350
f 292 350 293
f 293 350 351
f 293 351 349
f 295 341 352
f 295 352 296
f 296 352 353
f 296 353 297
f 297 353 354
f 297 354 355
f 297 355 298
f 298 356 299
f 298 355 356
f 299 357 300
f 299 356 358
f 299 358 359
f 299 359 357
f 300 357 347
f 301 360 361
f 301 361 362
f 301 362 342
f 301 303 338
f 301 338 360
f 304 349 305
f 305 363 368
f 305 368 364
f 305 364 365
f 305 365 366
f 305 366 306
f 305 349 367
f 305 367 363
f 306 309 307
f 306 366 311
f 306 311 310
f 306 310 309
f 311 366 365
f 311 365 364
f 311 364 368
f 311 368 369
f 311 369 313
f 311 313 312
f 313 369 314
f 314 369 368
f 314 368 370
f 314 370 315
f 315 370 371
f 315 371 372
f 315 372 324
f 316 326 373
f 316 373 317
f 317 373 318
f 318 373 374
f 318 374 375
f 318 375 376
f 318 376 320
f 318 320 319
f 320 376 377
f 320 377 378
f 320 378 379
f 320 379 321
f 321 379 380
f 321 380 381
f 321 381 382
f 321 382 383
f 321 383 384
f 321 384 323
f 322 323 384
f 324 372 385
f 324 385 386
f 324 386 387
f 324 387 388
f 324 388 325
f 325 388 389
f 325 389 326
f 326 389 373
f 327 328 390
f 327 390 329
f 328 340 390
f 329 390 391
f 329 391 392
f 329 392 330
f 330 392 331
f 331 392 393
f 331 393 394
f 331 394 333
f 331 333 332
f 333 394 361
f 333 361 334
f 334 361 360
f 334 360 337
f 335 337 338
f 337 360 338
f 339 395 396
f 339 396 340
f 340 396 397
f 340 397 398
f 340 398 390
f 341 342 352
f 342 362 353
f 342 353 352
f 343 348 399
f 343 399 400
f 343 400 344
f 344 400 345
f 345 400 401
f 345 401 402
f 345 402 346
f 346 402 350
f 347 399 348
f 347 357 359
f 347 359 403
f 347 403 399
f 349 351 367
f 350 402 404
f 350 404 405
f 350 405 351
f 351 405 406
f 351 406 367
f 353 407 354
f 353 362 361
f 353 361 407
f 354 408 355
f 354 407 409
f 354 409 408
f 355 408 358
f 355 358 356
f 358 408 359
f 359 408 410
f 359 410 411
f 359 411 403
f 361 394 407
f 363 367 412
f 363 412 413
f 363 413 414
f 363 414 415
f 363 415 416
f 363 416 368
f 367 406 412
f 368 416 417
f 368 417 370
f 370 417 418
f 370 418 371
f 371 418 419
f 371 419 372
f 372 419 385
f 373 389 374
f 374 389 420
f 374 420 375
f 375 420 421
f 375 421 377
f 375 377 376
f 377 421 422
f 377 422 423
f 377 423 378
f 378 423 379
f 379 423 424
f 379 424 380
f 380 424 425
f 380 425 381
f 381 425 382
f 382 425 383
f 383 425 427
f 383 427 428
f 383 428 429
f 383 429 426
f 385 419 430
f 385 430 386
f 386 430 387
f 387 430 388
f 388 430 389
f 389 430 420
f 390 398 411
f 390 411 391
f 391 411 431
f 391 431 392
f 392 431 409
f 392 409 393
f 393 409 407
f 393 407 394
f 395 432 396
f 396 432 397
f 397 433 398
f 397 432 434
f 397 434 435
f 397 435 436
f 397 436 437
f 397 437 438
f 397 438 433
f 398 433 411
f 399 403 411
f 399 411 433
f 399 433 439
f 399 439 440
f 399 440 400
f 400 440 441
f 400 441 401
f 401 441 442
f 401 442 402
f 402 442 443
f 402 443 404
f 404 443 444
f 404 444 405
f 405 444 445
f 405 445 406
f 406 413 412
f 406 445 446
f 406 446 413
f 408 447 410
f 408 409 431
f 408 431 447
f 410 447 411
f 411 447 431
f 413 446 414
f 414 446 448
f 414 448 449
f 414 449 417
f 414 417 415
f 415 417 416
f 417 449 450
f 417 450 418
f 418 450 419
f 419 450 430
f 420 430 451
f 420 451 452
f 420 452 421
f 421 452 422
f 422 452 453
f 422 453 444
f 422 444 423
f 423 444 424
f 424 444 443
f 424 443 425
f 425 443 454
f 425 454 427
f 426 455 437
f 426 437 456
f 426 429 455
f 427 454 428
f 428 454 457
f 428 457 429
f 429 457 442
f 429 442 441
f 429 441 440
f 429 440 458
f 429 458 455
f 430 450 451
f 433 438 459
f 433 459 439
f 436 456 437
f 437 455 438
f 438 455 460
f 438 460 459
f 439 459 460
f 439 460 440
f 440 460 458
f 442 457 454
f 442 454 443
f 444 453 445
f 445 448 446
f 445 453 448
f 448 453 452
f 448 452 451
f 448 451 449
f 449 451 450
f 455 458 460

o geometry_1
v -0.08669812 -0.12923903 -0.23253148
v -0.09162651 -0.12923903 -0.23244070
v -0.09459277 -0.11073037 -0.23284919
v -0.09459277 -0.10309467 -0.23266763
v -0.08315092 -0.12923903 -0.23216835
v -0.09459277 -0.11837016 -0.23253148
v -0.09435809 -0.12923903 -0.23198679
v -0.10071382 -0.10309467 -0.23203215
v -0.10281829 -0.08732271 -0.23212294
v -0.09598550 -0.08732271 -0.23216835
v -0.09560846 -0.08732271 -0.23212294
v -0.08125035 -0.12923903 -0.23153288
v -0.09990588 -0.11073037 -0.23180523
v -0.09726280 -0.12923903 -0.23071584
v -0.09860166 -0.12335532 -0.23103358
v -0.09909795 -0.11837016 -0.23135132
v -0.10625777 -0.08732271 -0.23107897
v -0.10464960 -0.08732271 -0.23157824
v -0.10343001 -0.08732271 -0.23194137
v -0.09174962 -0.08732271 -0.22749311
v -0.09115714 -0.09262380 -0.23017115
v -0.09050309 -0.09771973 -0.23112436
v -0.07497926 -0.12923903 -0.22640372
v -0.10592306 -0.09135597 -0.23080662
v -0.09783989 -0.12923903 -0.23030732
v -0.09795531 -0.12845125 -0.23048889
v -0.10839302 -0.08732271 -0.22767466
v -0.09168422 -0.08732271 -0.22735693
v -0.09078395 -0.08732271 -0.22186465
v -0.07232848 -0.12923903 -0.18051367
v -0.10539982 -0.09545487 -0.23026193
v -0.10687334 -0.10309467 -0.22513279
v -0.10765819 -0.09545487 -0.22644911
v -0.09989050 -0.12923903 -0.22672146
v -0.10452264 -0.10309467 -0.22894560
v -0.10872388 -0.08732271 -0.22663068
v -0.09066084 -0.08732271 -0.21932276
v -0.08853328 -0.08732271 0.21828954
v -0.07184371 -0.12923903 0.08833580
v -0.10631933 -0.10825625 -0.22390723
v -0.11103611 -0.08732271 -0.21932276
v -0.10124475 -0.12923903 -0.22200082
v -0.08913730 -0.08732271 0.22400877
v -0.07402513 -0.12923903 0.21828954
v -0.07185141 -0.12923903 0.08915283
v -0.10174490 -0.12923903 -0.21932276
v -0.10426487 -0.11837016 -0.21932276
v -0.10646553 -0.10887170 -0.21932276
v -0.10773898 -0.10309467 -0.21932276
v -0.10934715 -0.09545487 -0.21932276
v -0.11093608 -0.08781097 -0.21932276
v -0.11104766 -0.08732271 -0.21886885
v -0.08942585 -0.08732271 0.22668683
v -0.07458299 -0.12923903 0.22332791
v -0.10173720 -0.12923903 -0.21165172
v -0.10141018 -0.12923903 -0.10416641
v -0.11108613 -0.08732271 -0.10366711
v -0.11114384 -0.08732271 -0.12668023
v -0.11112460 -0.08732271 -0.21165172
v -0.11114384 -0.08732271 -0.12717953
v -0.08957590 -0.08732271 0.22709535
v -0.09044539 -0.08916907 0.23004575
v -0.07722608 -0.12923903 0.22741309
v -0.10139095 -0.12923903 -0.09971811
v -0.11074756 -0.08732271 -0.01969421
v -0.09348475 -0.08732271 0.23036346
v -0.09005681 -0.09545487 0.23031810
v -0.08069634 -0.12923903 0.23063581
v -0.10137171 -0.12923903 -0.09649537
v -0.11068216 -0.08732271 -0.01197778
v -0.09388102 -0.08732271 0.23040888
v -0.09459277 -0.09545487 0.23068123
v -0.08698282 -0.12601407 0.23086279
v -0.08712902 -0.12923903 0.23072659
v -0.09840929 -0.12923903 0.20226661
v -0.10887778 -0.08732271 0.18038826
v -0.09561230 -0.08732271 0.23040888
v -0.09941343 -0.08732271 0.23036346
v -0.09937496 -0.08781097 0.23036346
v -0.09892867 -0.09545487 0.23018190
v -0.09146492 -0.12601407 0.23022732
v -0.09121869 -0.12923903 0.23009112
v -0.09840159 -0.12923903 0.20294746
v -0.10878929 -0.08732271 0.18756000
v -0.10371086 -0.08732271 0.22591518
v -0.09857857 -0.10012409 0.22995497
v -0.09448890 -0.12923903 0.22586979
v -0.09828617 -0.12923903 0.21048233
v -0.10858923 -0.08732271 0.19523104
v -0.10496508 -0.08732271 0.22432651
v -0.10047913 -0.10284028 0.22645987
v -0.09999822 -0.11073037 0.22464425
v -0.09909795 -0.11837016 0.22328252
v -0.09856318 -0.12289167 0.22242010
v -0.09608937 -0.12923903 0.22219315
v -0.09828233 -0.12923903 0.21061850
v -0.09915566 -0.12546836 0.21061850
v -0.10079846 -0.11837016 0.21061850
v -0.10256437 -0.11073037 0.21061850
v -0.10431488 -0.10309467 0.21061850
v -0.10814295 -0.08781097 0.20294746
v -0.10825451 -0.08732271 0.20294746
v -0.10667713 -0.08732271 0.22064986
v -0.10593460 -0.09124519 0.22160306
v -0.10206037 -0.11073037 0.21828954
v -0.10027908 -0.11837016 0.21828954
v -0.09889020 -0.12428670 0.21828954
v -0.09771293 -0.12923903 0.21828954
v -0.09825924 -0.12923903 0.21093624
v -0.10647322 -0.09364545 0.21061850
v -0.10779284 -0.08781097 0.21061850
v -0.10789672 -0.08732271 0.21061850
v -0.10712342 -0.08732271 0.21865266
v -0.10690412 -0.08834436 0.21874344
v -0.10627316 -0.09280843 0.21647390
v -0.10541137 -0.09539333 0.21874344
v -0.10378781 -0.10309467 0.21828954
v -0.09783605 -0.12923903 0.21670086
f 461 462 463
f 461 463 464
f 461 464 465
f 461 465 472
f 461 472 483
f 461 483 490
f 461 490 499
f 461 499 505
f 461 505 504
f 461 504 514
f 461 514 523
f 461 523 528
f 461 528 534
f 461 534 542
f 461 542 547
f 461 547 555
f 461 555 568
f 461 568 578
f 461 578 569
f 461 569 556
f 461 556 548
f 461 548 543
f 461 543 535
f 461 535 529
f 461 529 524
f 461 524 516
f 461 516 515
f 461 515 506
f 461 506 502
f 461 502 494
f 461 494 485
f 461 485 474
f 461 474 467
f 461 467 462
f 462 466 463
f 462 467 466
f 463 466 468
f 463 468 469
f 463 469 464
f 464 469 470
f 464 470 471
f 464 471 465
f 465 471 472
f 466 467 473
f 466 473 468
f 467 474 475
f 467 475 476
f 467 476 473
f 468 473 477
f 468 477 478
f 468 478 479
f 468 479 469
f 469 479 478
f 469 478 477
f 469 477 487
f 469 487 496
f 469 496 501
f 469 501 512
f 469 512 519
f 469 519 520
f 469 520 518
f 469 518 517
f 469 517 525
f 469 525 530
f 469 530 536
f 469 536 544
f 469 544 549
f 469 549 562
f 469 562 572
f 469 572 573
f 469 573 563
f 469 563 550
f 469 550 545
f 469 545 538
f 469 538 537
f 469 537 531
f 469 531 526
f 469 526 521
f 469 521 513
f 469 513 503
f 469 503 498
f 469 498 497
f 469 497 489
f 469 489 488
f 469 488 480
f 469 480 471
f 469 471 470
f 471 480 481
f 471 481 482
f 471 482 472
f 472 482 483
f 473 476 484
f 473 484 477
f 474 485 486
f 474 486 475
f 475 486 484
f 475 484 476
f 477 484 487
f 480 488 483
f 480 483 481
f 481 483 482
f 483 488 489
f 483 489 490
f 484 486 491
f 484 491 492
f 484 492 493
f 484 493 487
f 485 494 486
f 486 495 491
f 486 494 492
f 486 492 495
f 487 493 496
f 489 497 490
f 490 497 498
f 490 498 499
f 491 495 492
f 492 494 500
f 492 500 501
f 492 501 493
f 493 501 496
f 494 502 500
f 498 503 504
f 498 504 505
f 498 505 499
f 500 502 506
f 500 506 507
f 500 507 508
f 500 508 509
f 500 509 510
f 500 510 511
f 500 511 501
f 501 511 512
f 503 513 504
f 504 513 514
f 506 515 507
f 507 515 508
f 508 515 516
f 508 516 517
f 508 517 518
f 508 518 509
f 509 519 510
f 509 518 520
f 509 520 519
f 510 519 512
f 510 512 511
f 513 521 514
f 514 521 522
f 514 522 523
f 516 524 525
f 516 525 517
f 521 526 522
f 522 526 527
f 522 527 528
f 522 528 523
f 524 529 525
f 525 529 530
f 526 531 527
f 527 531 528
f 528 531 532
f 528 532 533
f 528 533 534
f 529 535 536
f 529 536 530
f 531 537 532
f 532 537 538
f 532 538 539
f 532 539 533
f 533 539 540
f 533 540 541
f 533 541 534
f 534 541 542
f 535 543 536
f 536 543 544
f 538 545 539
f 539 545 540
f 540 545 546
f 540 546 542
f 540 542 541
f 542 546 547
f 543 548 544
f 544 548 549
f 545 550 546
f 546 551 552
f 546 552 547
f 546 550 551
f 547 552 553
f 547 553 554
f 547 554 555
f 548 556 549
f 549 556 557
f 549 557 558
f 549 558 559
f 549 559 560
f 549 560 561
f 549 561 562
f 550 563 564
f 550 564 551
f 551 564 552
f 552 564 553
f 553 564 554
f 554 564 565
f 554 565 566
f 554 566 567
f 554 567 568
f 554 568 555
f 556 569 567
f 556 567 566
f 556 566 565
f 556 565 557
f 557 565 558
f 558 565 559
f 559 565 560
f 560 562 561
f 560 565 570
f 560 570 562
f 562 570 571
f 562 571 572
f 563 573 564
f 564 573 574
f 564 574 575
f 564 575 576
f 564 576 577
f 564 577 565
f 565 577 575
f 565 575 570
f 567 569 578
f 567 578 568
f 570 575 571
f 571 575 572
f 572 575 573
f 573 575 574
f 575 577 576

o geometry_2
v -0.14787758 0.13375270 0.23167826
v -0.14230801 0.12612689 0.23093874
v -0.14301727 0.13375270 0.23065248
v -0.14723551 0.14196511 0.23098644
v -0.14961714 0.14905322 0.23050933
v -0.15314852 0.14905322 0.23050933
v -0.15389511 0.14140296 0.23096261
v -0.14787758 0.12612689 0.23158284
v -0.10127536 -0.07251102 0.23058089
v -0.10220860 -0.05723495 0.23072404
v -0.09666143 -0.07251102 0.23058089
v -0.09730350 -0.06488521 0.23048547
v -0.09788584 -0.05723495 0.23017533
v -0.14358468 0.13978981 0.23024692
v -0.09825167 -0.05266434 0.22993679
v -0.15126710 0.15315942 0.23000835
v -0.14426408 0.14487367 0.22924497
v -0.15694866 0.14905322 0.22788519
v -0.15208835 0.15315942 0.23000835
v -0.15769526 0.14140296 0.22817146
v -0.15340236 0.13375270 0.23081946
v -0.09941635 -0.08732271 0.23039004
v -0.09997629 -0.08016129 0.23050933
v -0.09548928 -0.08016129 0.23050933
v -0.09388411 -0.08732271 0.23043777
v -0.09386918 -0.08707829 0.23043777
v -0.09348841 -0.08732271 0.23039004
v -0.09083801 -0.08404751 0.22976981
v -0.12116455 0.04632465 0.22988907
v -0.14997550 0.15609244 0.22538031
v -0.15140150 0.16068747 0.22242217
v -0.14310687 0.14196511 0.22640612
v -0.14384598 0.14614465 0.22411595
v -0.14754908 0.15667904 0.21829509
v -0.13678324 0.11378381 0.22895870
v -0.12108242 0.05424377 0.22299471
v -0.12863793 0.08499145 0.22332869
v -0.13621583 0.11569026 0.22382967
v -0.16047258 0.14905322 0.22406822
v -0.15989770 0.15401488 0.22304242
v -0.15470142 0.15614132 0.22528488
v -0.15223021 0.16068747 0.22242217
v -0.16050245 0.14140296 0.22433064
v -0.15720998 0.13375270 0.22705022
v -0.15206596 0.12043197 0.23010377
v -0.15264083 0.12612689 0.23046163
v -0.10644177 -0.06356535 0.23012764
v -0.10599381 -0.06864923 0.22979364
v -0.10371671 -0.08732271 0.22590515
v -0.08957628 -0.08732271 0.22709794
v -0.08942696 -0.08732271 0.22669239
v -0.08947176 -0.08707829 0.22671623
v -0.09020342 -0.08016129 0.22442607
v -0.09807248 -0.04442748 0.22349569
v -0.09756480 -0.04990243 0.22602440
v -0.12062701 0.04920877 0.22571430
v -0.15067730 0.16132296 0.21829509
v -0.14053112 0.13375270 0.21829509
v -0.14474936 0.15017754 0.21829509
v -0.14703393 0.15667904 0.21061348
v -0.15005762 0.16193402 0.21061348
v -0.14397291 0.15301279 -0.00022534
v -0.13863478 0.12612689 0.21829509
v -0.09068123 -0.07585954 0.22266072
v -0.16261529 0.14905322 0.21829509
v -0.15730704 0.15909877 0.21984573
v -0.15939001 0.16061415 0.21474055
v -0.16056964 0.15660572 0.21769869
v -0.15549281 0.16217842 0.21061348
v -0.15505979 0.16120076 0.21769869
v -0.16236891 0.14140296 0.21829509
v -0.15984544 0.13375270 0.22320942
v -0.15141642 0.11532365 0.22962666
v -0.10642684 -0.08612507 0.22285158
v -0.10497099 -0.08732271 0.22435449
v -0.08913579 -0.08732271 0.22404437
v -0.08853105 -0.08732271 0.21829509
v -0.15003523 0.16198290 0.20293186
v -0.15549281 0.16237396 0.20293186
v -0.14397291 0.15301279 -0.00079789
v -0.09068123 -0.07585954 0.22115780
v -0.16370532 0.14905322 0.21061348
v -0.16177164 0.15667904 0.21061348
v -0.15954680 0.16076081 0.21061348
v -0.16307818 0.14140296 0.21061348
v -0.16095039 0.13375270 0.21829509
v -0.15938255 0.12959760 0.22230289
v -0.15326051 0.11085080 0.22497475
v -0.10668068 -0.08732271 0.22065683
v -0.09284635 -0.08732271 -0.01203403
v -0.15003523 0.16193402 -0.00435242
v -0.15549281 0.16232508 -0.00435242
v -0.15977824 0.16093190 0.02635018
v -0.15977824 0.16093190 0.03403179
v -0.15973345 0.16093190 0.11848183
v -0.15972598 0.16093190 0.12616344
v -0.15965879 0.16088301 0.20293186
v -0.14533171 0.14902877 -0.01203403
v -0.14719072 0.15667904 -0.01203403
v -0.15005016 0.16188513 -0.01203403
v -0.16389943 0.14905322 0.20293186
v -0.16201055 0.15667904 0.20293186
v -0.16318271 0.14140296 0.20293186
v -0.16155514 0.13375270 0.21061348
v -0.15968118 0.12835108 0.21829509
v -0.15875541 0.12453817 0.21829509
v -0.10712864 -0.08732271 0.21867678
v -0.11068987 -0.08732271 -0.01203403
v -0.15550028 0.16230062 -0.01203403
v -0.15974091 0.16090747 -0.01203403
v -0.16241371 0.15667904 -0.01203403
v -0.16244358 0.15667904 0.01866856
v -0.16245104 0.15667904 0.02635018
v -0.16234652 0.15667904 0.08009761
v -0.16225693 0.15667904 0.12616344
v -0.16206281 0.15667904 0.19525025
v -0.16400395 0.14905322 0.19525025
v -0.16327229 0.14140296 0.19525025
v -0.15904658 0.12334053 0.21061348
v -0.16162979 0.13375270 0.20293186
v -0.15423107 0.09555028 0.04171341
v -0.12869766 -0.01458413 0.00332919
v -0.12369549 -0.02668279 0.17991088
v -0.10790509 -0.08732271 0.21061348
v -0.11068987 -0.08732271 -0.01201018
v -0.11269074 -0.08001463 -0.01203403
v -0.16477294 0.14905322 -0.01203403
v -0.16480280 0.14905322 0.01866856
v -0.16466842 0.14905322 0.06475824
v -0.16463856 0.14905322 0.07243986
v -0.16434739 0.14905322 0.13382120
v -0.16430259 0.14140296 0.06475824
v -0.16425033 0.14140296 0.07243986
v -0.16381731 0.14140296 0.13382120
v -0.16289154 0.13375270 0.06475824
v -0.16227186 0.13375270 0.13382120
v -0.12349391 -0.02668279 0.18756863
v -0.11611759 -0.05723495 0.18756863
v -0.11442283 -0.06424972 0.18756863
v -0.10859195 -0.08732271 0.19525025
v -0.10826346 -0.08732271 0.20293186
v -0.15438039 0.09555028 0.02635018
v -0.12870512 -0.01460857 -0.00435242
v -0.12764497 -0.01903253 -0.00435242
v -0.11445269 -0.07321983 -0.01203403
v -0.11443776 -0.07326872 -0.01146150
v -0.12760763 -0.01903253 0.00332919
v -0.11450495 -0.06451858 0.17991088
v -0.15444012 0.09555028 0.01866856
v -0.15446999 0.09555028 0.01101080
v -0.10889059 -0.08732271 0.17991088
v -0.11281766 -0.07955024 -0.01203403
v -0.16428020 0.14140296 -0.01203403
v -0.16431752 0.14140296 0.02635018
v -0.16432498 0.14140296 0.03403179
v -0.16432498 0.14140296 0.04171341
v -0.16431752 0.14140296 0.05707663
v -0.16296619 0.13375270 0.04171341
v -0.16292886 0.13375270 0.05707663
v -0.15614981 0.10320054 0.02635018
v -0.11055549 -0.08016129 0.18756863
v -0.10879353 -0.08732271 0.18756863
v -0.12869018 -0.01453525 -0.01203403
v -0.12762256 -0.01903253 -0.01203403
v -0.12579342 -0.02668279 -0.01203403
v -0.15449238 0.09555028 -0.01203403
v -0.11424365 -0.07407530 -0.01203403
v -0.15618714 0.10320054 0.01866856
v -0.15620207 0.10320054 0.01101080
v -0.15621701 0.10320054 0.00332919
v -0.11365385 -0.07644614 -0.01203403
v -0.11304164 -0.07871922 -0.01203403
v -0.16284674 0.13375270 -0.01203403
v -0.16295873 0.13375270 0.03403179
v -0.15902419 0.11591024 -0.01203403
v -0.15791924 0.11085080 -0.01203403
v -0.15623194 0.10320054 -0.01203403
v -0.16121917 0.12612689 -0.01203403
f 579 580 581
f 579 581 582
f 579 582 583
f 579 583 584
f 579 584 585
f 579 585 586
f 579 586 587
f 579 587 588
f 579 588 589
f 579 589 590
f 579 590 580
f 580 590 591
f 580 591 581
f 581 592 582
f 581 591 593
f 581 593 592
f 582 592 583
f 583 594 597
f 583 597 584
f 583 592 595
f 583 595 594
f 584 596 585
f 584 597 596
f 585 598 599
f 585 599 586
f 585 596 598
f 586 599 600
f 586 600 601
f 586 601 587
f 587 601 588
f 588 601 602
f 588 602 589
f 589 602 603
f 589 603 604
f 589 604 605
f 589 605 590
f 590 605 606
f 590 606 591
f 591 606 593
f 592 593 607
f 592 607 595
f 593 606 607
f 594 595 608
f 594 608 609
f 594 609 620
f 594 620 597
f 595 610 611
f 595 611 612
f 595 612 609
f 595 609 608
f 595 607 613
f 595 613 614
f 595 614 615
f 595 615 616
f 595 616 610
f 596 617 598
f 596 597 618
f 596 618 617
f 597 619 618
f 597 620 619
f 598 621 622
f 598 622 623
f 598 623 624
f 598 624 599
f 598 617 621
f 599 624 625
f 599 625 600
f 600 625 626
f 600 626 627
f 600 627 653
f 600 653 667
f 600 667 685
f 600 685 702
f 600 702 719
f 600 719 718
f 600 718 740
f 600 740 729
f 600 729 703
f 600 703 686
f 600 686 668
f 600 668 655
f 600 655 654
f 600 654 629
f 600 629 628
f 600 628 605
f 600 605 603
f 600 603 601
f 601 603 602
f 603 605 604
f 605 628 606
f 606 628 629
f 606 629 630
f 606 630 631
f 606 631 632
f 606 632 633
f 606 633 607
f 607 634 613
f 607 633 632
f 607 632 634
f 609 612 635
f 609 635 620
f 610 616 611
f 611 636 637
f 611 637 612
f 611 616 636
f 612 637 638
f 612 638 639
f 612 639 635
f 613 634 614
f 614 640 641
f 614 641 615
f 614 634 632
f 614 632 642
f 614 642 640
f 615 641 616
f 616 641 636
f 617 618 643
f 617 643 621
f 618 619 644
f 618 644 645
f 618 645 646
f 618 646 643
f 619 620 644
f 620 645 644
f 620 635 647
f 620 647 648
f 620 648 645
f 621 649 650
f 621 650 622
f 621 643 649
f 622 650 651
f 622 651 623
f 623 651 626
f 623 626 624
f 624 626 625
f 626 652 653
f 626 653 627
f 626 651 652
f 629 654 631
f 629 631 630
f 631 642 632
f 631 654 655
f 631 655 642
f 635 639 647
f 636 640 637
f 636 641 640
f 637 640 638
f 638 640 656
f 638 656 639
f 639 656 657
f 639 657 647
f 640 658 656
f 640 642 659
f 640 659 658
f 642 655 659
f 643 660 649
f 643 646 661
f 643 661 660
f 645 648 647
f 645 647 662
f 645 662 661
f 645 661 646
f 647 657 662
f 649 663 664
f 649 664 665
f 649 665 650
f 649 660 663
f 650 665 666
f 650 666 651
f 651 666 652
f 652 667 653
f 652 666 665
f 652 665 667
f 655 668 659
f 656 669 670
f 656 670 657
f 656 658 669
f 657 670 671
f 657 671 672
f 657 672 673
f 657 673 674
f 657 674 675
f 657 675 662
f 658 676 677
f 658 677 678
f 658 678 669
f 658 659 668
f 658 668 676
f 660 679 663
f 660 661 680
f 660 680 679
f 661 662 680
f 662 675 680
f 663 681 682
f 663 682 664
f 663 679 695
f 663 695 681
f 664 682 683
f 664 683 665
f 665 683 684
f 665 684 685
f 665 685 667
f 668 686 704
f 668 704 730
f 668 730 750
f 668 750 749
f 668 749 745
f 668 745 723
f 668 723 743
f 668 743 742
f 668 742 741
f 668 741 744
f 668 744 755
f 668 755 754
f 668 754 753
f 668 753 756
f 668 756 751
f 668 751 731
f 668 731 705
f 668 705 689
f 668 689 688
f 668 688 687
f 668 687 678
f 668 678 677
f 668 677 676
f 669 687 670
f 669 678 687
f 670 687 688
f 670 688 671
f 671 688 689
f 671 689 690
f 671 690 691
f 671 691 672
f 672 691 673
f 673 691 674
f 674 691 675
f 675 691 692
f 675 692 693
f 675 693 694
f 675 694 680
f 679 680 695
f 680 694 695
f 681 696 682
f 681 695 696
f 682 697 683
f 682 696 698
f 682 698 720
f 682 720 699
f 682 699 700
f 682 700 701
f 682 701 697
f 683 697 702
f 683 702 684
f 684 702 685
f 686 703 704
f 689 705 706
f 689 706 690
f 690 706 691
f 691 706 692
f 692 706 693
f 693 706 694
f 694 706 707
f 694 707 708
f 694 708 709
f 694 709 695
f 695 709 710
f 695 710 711
f 695 711 712
f 695 712 696
f 696 712 713
f 696 713 714
f 696 714 698
f 697 701 715
f 697 715 716
f 697 716 717
f 697 717 718
f 697 718 719
f 697 719 702
f 698 714 720
f 699 720 700
f 700 721 722
f 700 722 723
f 700 723 724
f 700 724 725
f 700 725 726
f 700 726 701
f 700 720 727
f 700 727 728
f 700 728 721
f 701 726 717
f 701 717 716
f 701 716 715
f 703 729 704
f 704 729 730
f 705 731 706
f 706 731 732
f 706 732 733
f 706 733 734
f 706 734 735
f 706 735 710
f 706 710 707
f 707 710 708
f 708 710 709
f 710 735 736
f 710 736 737
f 710 737 713
f 710 713 711
f 711 713 712
f 713 737 746
f 713 746 738
f 713 738 720
f 713 720 714
f 717 726 739
f 717 739 718
f 718 739 740
f 720 738 727
f 721 741 742
f 721 742 743
f 721 743 722
f 721 728 744
f 721 744 741
f 722 743 723
f 723 745 724
f 724 745 729
f 724 729 726
f 724 726 725
f 726 729 740
f 726 740 739
f 727 738 746
f 727 746 728
f 728 746 747
f 728 747 748
f 728 748 755
f 728 755 744
f 729 745 749
f 729 749 750
f 729 750 730
f 731 751 752
f 731 752 732
f 732 752 736
f 732 736 733
f 733 736 734
f 734 736 735
f 736 752 753
f 736 753 754
f 736 754 755
f 736 755 748
f 736 748 747
f 736 747 746
f 736 746 737
f 751 756 752
f 752 756 753

o geometry_3
v -0.15549466 0.16229323 -0.01203403
v -0.15548741 0.16229323 -0.01205574
v -0.15548741 0.16248886 -0.09651576
v -0.15975458 0.16092386 -0.01973984
v -0.15974731 0.16089942 -0.01203403
v -0.15004460 0.16187754 -0.01203403
v -0.15548741 0.16246440 -0.20398469
v -0.15974731 0.16094832 -0.10419987
v -0.15974731 0.16094832 -0.09651576
v -0.15976183 0.16092386 -0.02740224
v -0.15002282 0.16202425 -0.08883166
v -0.14998654 0.16212206 -0.20398469
v -0.14995750 0.16212206 -0.21166879
v -0.16241792 0.15669351 -0.01203403
v -0.15003734 0.16190199 -0.02740224
v -0.14719256 0.15666905 -0.01203403
v -0.14719982 0.15669351 -0.01205574
v -0.15971829 0.16092386 -0.13489287
v -0.15973280 0.16094832 -0.11188397
v -0.15548741 0.16239104 -0.21166879
v -0.15963846 0.16085051 -0.20398469
v -0.16233810 0.15669351 -0.13489287
v -0.16236713 0.15669351 -0.09651576
v -0.16241792 0.15669351 -0.02740224
v -0.14698935 0.15669351 -0.21166879
v -0.15010991 0.16185308 -0.21935290
v -0.14698210 0.15669351 -0.21935290
v -0.16477648 0.14903972 -0.01203403
v -0.16479099 0.14903972 -0.05045455
v -0.14533473 0.14903972 -0.01203403
v -0.14358578 0.14688786 -0.22703700
v -0.14474692 0.15028681 -0.21935290
v -0.15574140 0.16168191 -0.21894047
v -0.15942075 0.16063044 -0.21609691
v -0.15955863 0.16077715 -0.21166879
v -0.16207683 0.15669351 -0.20398469
v -0.16215667 0.15669351 -0.19632229
v -0.16220747 0.15669351 -0.18863818
v -0.16232359 0.15669351 -0.14255526
v -0.16472568 0.14903972 -0.15023936
v -0.16474019 0.14903972 -0.13489287
v -0.16478373 0.14903972 -0.07348516
v -0.15074127 0.16124176 -0.22443222
v -0.15337560 0.16124176 -0.22443222
v -0.14515331 0.15070252 -0.22703700
v -0.16443539 0.14141040 -0.09651576
v -0.16438459 0.14141040 -0.04277044
v -0.16427573 0.14141040 -0.01203403
v -0.16443539 0.14141040 -0.10419987
v -0.13170594 0.09556107 -0.21935290
v -0.13712698 0.11935381 -0.21935290
v -0.13867274 0.12612729 -0.21935290
v -0.14225774 0.14141040 -0.22703700
v -0.09284424 -0.08732271 -0.01203403
v -0.09817819 -0.05240387 -0.21935290
v -0.09903453 -0.04856476 -0.21935290
v -0.10052949 -0.04196245 -0.21935290
v -0.14372368 0.14630099 -0.23129148
v -0.15844830 0.15967677 -0.22121964
v -0.16079959 0.15696249 -0.21894047
v -0.16189541 0.15669351 -0.21166879
v -0.16418140 0.14903972 -0.21166879
v -0.16434831 0.14903972 -0.20398469
v -0.16450070 0.14903972 -0.19632229
v -0.16459505 0.14903972 -0.18863818
v -0.16463134 0.14903972 -0.18095408
v -0.16468213 0.14903972 -0.16560758
v -0.16437733 0.14141040 -0.15023936
v -0.16439185 0.14141040 -0.14255526
v -0.16442088 0.14141040 -0.11954637
v -0.16442814 0.14141040 -0.11188397
v -0.15021150 0.15402813 -0.23153024
v -0.15289663 0.15402813 -0.23153024
v -0.15566883 0.15686468 -0.22703700
v -0.16308557 0.13375662 -0.10419987
v -0.16307833 0.13375662 -0.09651576
v -0.16291867 0.13375662 -0.03508634
v -0.16284610 0.13375662 -0.01203403
v -0.13627064 0.11549025 -0.22703700
v -0.09817094 -0.05237942 -0.22447563
v -0.11357773 0.01557540 -0.22356395
v -0.13640127 0.11492783 -0.23094417
v -0.11068941 -0.08732271 -0.01203403
v -0.09065986 -0.08732271 -0.21935290
v -0.09713317 -0.05724556 -0.21935290
v -0.14775861 0.14891746 -0.23218142
v -0.14319391 0.14141040 -0.23181242
v -0.14787472 0.14141040 -0.23344040
v -0.16015371 0.15459055 -0.22451905
v -0.16339038 0.14903972 -0.21935290
v -0.16341940 0.14141040 -0.21935290
v -0.16381854 0.14141040 -0.21166879
v -0.16410883 0.14141040 -0.19632229
v -0.16421769 0.14141040 -0.18863818
v -0.16426849 0.14141040 -0.18095408
v -0.16432653 0.14141040 -0.16560758
v -0.16435557 0.14141040 -0.15792348
v -0.16302753 0.13375662 -0.14255526
v -0.16306380 0.13375662 -0.11954637
v -0.15420290 0.14903972 -0.23218142
v -0.15800561 0.14903972 -0.22968519
v -0.15994326 0.11932937 -0.13489287
v -0.15911595 0.11551469 -0.11954637
v -0.15911595 0.11551469 -0.10419987
v -0.15808545 0.11084418 -0.08883166
v -0.15807092 0.11084418 -0.08116926
v -0.15903611 0.11588149 -0.01973984
v -0.15902887 0.11593039 -0.01203403
v -0.15984891 0.11974506 -0.01203403
v -0.16122050 0.12612729 -0.01203403
v -0.09078322 -0.08732271 -0.22187085
v -0.09169036 -0.08732271 -0.22738431
v -0.09769923 -0.05734337 -0.22703700
v -0.09819996 -0.05995984 -0.23105272
v -0.11288831 -0.07930214 -0.01203403
v -0.11266334 -0.08040253 -0.01973984
v -0.11075472 -0.08732271 -0.01973984
v -0.14249722 0.13375662 -0.23226825
v -0.09772825 -0.06487489 -0.23144342
v -0.14787472 0.13375662 -0.23376602
v -0.15489958 0.14141040 -0.23250704
v -0.09703883 -0.07252867 -0.23189925
v -0.09634940 -0.08015800 -0.23209460
v -0.16098827 0.14903972 -0.22586485
v -0.16118421 0.14141040 -0.22649434
v -0.16058189 0.13375662 -0.22582144
v -0.15976183 0.12612729 -0.22425856
v -0.15932641 0.12216590 -0.22326007
v -0.16212763 0.13375662 -0.21935290
v -0.16241792 0.13375662 -0.21166879
v -0.16281706 0.13375662 -0.18863818
v -0.16288238 0.13375662 -0.18095408
v -0.16293318 0.13375662 -0.17326997
v -0.16296221 0.13375662 -0.16560758
v -0.15993601 0.11935381 -0.14255526
v -0.15910870 0.11556359 -0.15023936
v -0.15870230 0.14141040 -0.23031468
v -0.15910870 0.11551469 -0.13489287
v -0.15808545 0.11084418 -0.10419987
v -0.15635101 0.10319040 -0.08883166
v -0.15634374 0.10319040 -0.08116926
v -0.15632197 0.10319040 -0.06580106
v -0.15628569 0.10319040 -0.04277044
v -0.15623489 0.10319040 -0.01203403
v -0.15795482 0.11084418 -0.02740224
v -0.15791853 0.11084418 -0.01203403
v -0.09175567 -0.08732271 -0.22749283
v -0.11304071 -0.07873972 -0.01203403
v -0.11367207 -0.07649005 -0.01368373
v -0.11109581 -0.08732271 -0.10419987
v -0.11369384 -0.07658786 -0.01973984
v -0.14787472 0.12612729 -0.23374430
v -0.10221313 -0.06487489 -0.23263728
v -0.10221313 -0.07252867 -0.23287605
v -0.15450044 0.13375662 -0.23237680
v -0.09561644 -0.08732271 -0.23211632
v -0.15830315 0.13375662 -0.22966349
v -0.10839617 -0.08732271 -0.22766649
v -0.15945704 0.12160348 -0.21935290
v -0.16046577 0.12612729 -0.21935290
v -0.11402042 -0.07054798 -0.22404149
v -0.11104501 -0.08732271 -0.21935290
v -0.16071977 0.12612729 -0.21166879
v -0.15872406 0.11722640 -0.21166879
v -0.15897080 0.11612601 -0.18095408
v -0.15902160 0.11590595 -0.17326997
v -0.15906515 0.11573478 -0.16560758
v -0.15909418 0.11561251 -0.15792348
v -0.15803465 0.11084418 -0.15023936
v -0.15805641 0.11084418 -0.14255526
v -0.15807092 0.11084418 -0.13489287
v -0.15365862 0.12612729 -0.23209460
v -0.15449318 0.09556107 -0.01203403
v -0.15634374 0.10319040 -0.09651576
v -0.12579140 -0.02667935 -0.10419987
v -0.12763470 -0.01902556 -0.01205574
v -0.12763470 -0.01902556 -0.01203403
v -0.11365756 -0.07644115 -0.01203403
v -0.11423813 -0.07409366 -0.01203403
v -0.12579140 -0.02667935 -0.01203403
v -0.11470258 -0.07252867 -0.01973984
v -0.11115387 -0.08732271 -0.12720876
v -0.11486949 -0.07252867 -0.12720876
v -0.11377368 -0.07693020 -0.12720876
v -0.14787472 0.11847351 -0.23335360
v -0.10221313 -0.08015800 -0.23270239
v -0.09598655 -0.08732271 -0.23215973
v -0.15276599 0.11847351 -0.23166048
v -0.15211286 0.11260479 -0.23122635
v -0.15150326 0.10751857 -0.23072710
v -0.10626259 -0.08732271 -0.23107441
v -0.10873000 -0.08732271 -0.22664627
v -0.15727265 0.11084418 -0.21166879
v -0.11105226 -0.08732271 -0.21885365
v -0.15777338 0.11084418 -0.18095408
v -0.15786773 0.11084418 -0.17326997
v -0.15793304 0.11084418 -0.16560758
v -0.15799110 0.11084418 -0.15792348
v -0.15629294 0.10319040 -0.13489287
v -0.12557370 -0.02667935 -0.18095408
v -0.10751081 -0.07252867 -0.23185583
v -0.10683589 -0.08015800 -0.23148683
v -0.10634967 -0.08624679 -0.23113952
v -0.12576964 -0.02667935 -0.11188397
v -0.11485498 -0.07252867 -0.13489287
v -0.11113209 -0.08732271 -0.21166879
v -0.10282273 -0.08732271 -0.23213804
v -0.10465878 -0.08732271 -0.23159538
v -0.10343232 -0.08732271 -0.23196438
f 757 758 759
f 757 759 760
f 757 760 761
f 757 761 770
f 757 770 784
f 757 784 804
f 757 804 834
f 757 834 866
f 757 866 865
f 757 865 864
f 757 864 902
f 757 902 900
f 757 900 929
f 757 929 933
f 757 933 936
f 757 936 935
f 757 935 934
f 757 934 904
f 757 904 871
f 757 871 839
f 757 839 810
f 757 810 786
f 757 786 772
f 757 772 762
f 757 762 758
f 758 762 759
f 759 763 764
f 759 764 765
f 759 765 766
f 759 766 760
f 759 762 767
f 759 767 768
f 759 768 769
f 759 769 763
f 760 766 770
f 760 770 761
f 762 771 767
f 762 772 773
f 762 773 771
f 763 774 775
f 763 775 764
f 763 769 776
f 763 776 777
f 763 777 774
f 764 775 774
f 764 774 778
f 764 778 779
f 764 779 780
f 764 780 770
f 764 770 765
f 765 770 766
f 767 769 768
f 767 771 773
f 767 773 781
f 767 781 769
f 769 782 776
f 769 781 783
f 769 783 782
f 770 780 785
f 770 785 784
f 772 786 787
f 772 787 773
f 773 787 788
f 773 788 781
f 774 777 778
f 776 782 789
f 776 789 790
f 776 790 791
f 776 791 777
f 777 791 792
f 777 792 793
f 777 793 794
f 777 794 795
f 777 795 778
f 778 795 796
f 778 796 797
f 778 797 779
f 779 797 780
f 780 797 798
f 780 798 785
f 781 788 783
f 782 799 800
f 782 800 789
f 782 783 799
f 783 788 787
f 783 787 801
f 783 801 799
f 784 785 802
f 784 802 803
f 784 803 804
f 785 798 805
f 785 805 802
f 786 806 807
f 786 807 808
f 786 808 809
f 786 809 787
f 786 810 811
f 786 811 812
f 786 812 813
f 786 813 806
f 787 809 814
f 787 814 801
f 789 800 815
f 789 815 790
f 790 815 816
f 790 816 817
f 790 817 791
f 791 817 792
f 792 817 818
f 792 818 819
f 792 819 820
f 792 820 821
f 792 821 793
f 793 821 794
f 794 821 822
f 794 822 823
f 794 823 796
f 794 796 795
f 796 823 853
f 796 853 824
f 796 824 825
f 796 825 826
f 796 826 827
f 796 827 797
f 797 827 805
f 797 805 798
f 799 828 829
f 799 829 800
f 799 801 814
f 799 814 828
f 800 829 830
f 800 830 815
f 802 805 831
f 802 831 832
f 802 832 803
f 803 832 833
f 803 833 834
f 803 834 804
f 805 827 831
f 806 835 807
f 806 813 836
f 806 836 837
f 806 837 835
f 807 835 808
f 808 835 809
f 809 835 838
f 809 838 814
f 810 839 873
f 810 873 906
f 810 906 938
f 810 938 962
f 810 962 950
f 810 950 918
f 810 918 948
f 810 948 914
f 810 914 947
f 810 947 964
f 810 964 965
f 810 965 963
f 810 963 943
f 810 943 912
f 810 912 903
f 810 903 868
f 810 868 867
f 810 867 840
f 810 840 841
f 810 841 811
f 811 841 836
f 811 836 812
f 812 836 813
f 814 842 828
f 814 838 843
f 814 843 844
f 814 844 842
f 815 830 845
f 815 845 816
f 816 845 846
f 816 846 817
f 817 846 818
f 818 846 847
f 818 847 848
f 818 848 819
f 819 848 820
f 820 848 849
f 820 849 850
f 820 850 821
f 821 850 851
f 821 851 822
f 822 851 852
f 822 852 853
f 822 853 823
f 824 853 890
f 824 890 854
f 824 854 825
f 825 854 855
f 825 855 831
f 825 831 826
f 826 831 827
f 828 842 844
f 828 844 829
f 829 845 830
f 829 844 856
f 829 856 857
f 829 857 845
f 831 855 858
f 831 858 859
f 831 859 860
f 831 860 861
f 831 861 832
f 832 861 862
f 832 862 863
f 832 863 864
f 832 864 865
f 832 865 866
f 832 866 833
f 833 866 834
f 835 837 836
f 835 836 838
f 836 841 840
f 836 840 867
f 836 867 868
f 836 868 869
f 836 869 838
f 838 869 870
f 838 870 843
f 839 871 872
f 839 872 873
f 843 874 844
f 843 870 875
f 843 875 874
f 844 876 877
f 844 877 856
f 844 874 878
f 844 878 879
f 844 879 876
f 845 857 880
f 845 880 846
f 846 880 881
f 846 881 847
f 847 881 882
f 847 882 883
f 847 883 884
f 847 884 885
f 847 885 848
f 848 885 886
f 848 886 849
f 849 886 887
f 849 887 850
f 850 887 888
f 850 888 889
f 850 889 851
f 851 889 890
f 851 890 852
f 852 890 853
f 854 891 858
f 854 858 855
f 854 890 892
f 854 892 891
f 856 877 893
f 856 893 857
f 857 893 880
f 858 891 892
f 858 892 894
f 858 894 859
f 859 894 927
f 859 927 895
f 859 895 861
f 859 861 860
f 861 895 896
f 861 896 897
f 861 897 898
f 861 898 899
f 861 899 900
f 861 900 862
f 862 900 901
f 862 901 863
f 863 901 864
f 864 901 902
f 868 903 870
f 868 870 869
f 870 903 875
f 871 904 905
f 871 905 872
f 872 906 873
f 872 905 907
f 872 907 906
f 874 875 878
f 875 903 878
f 876 908 877
f 876 879 909
f 876 909 910
f 876 910 908
f 877 908 911
f 877 911 893
f 878 903 879
f 879 903 912
f 879 912 910
f 879 910 909
f 880 893 881
f 881 893 913
f 881 913 882
f 882 913 883
f 883 913 914
f 883 914 884
f 884 915 916
f 884 916 885
f 884 914 917
f 884 917 918
f 884 918 915
f 885 916 886
f 886 916 919
f 886 919 887
f 887 919 920
f 887 920 921
f 887 921 922
f 887 922 923
f 887 923 888
f 888 923 924
f 888 924 889
f 889 924 890
f 890 924 892
f 892 924 925
f 892 925 926
f 892 926 927
f 892 927 894
f 893 911 928
f 893 928 913
f 895 927 896
f 896 929 897
f 896 927 930
f 896 930 931
f 896 931 932
f 896 932 933
f 896 933 929
f 897 929 898
f 898 929 899
f 899 929 900
f 900 902 901
f 904 934 905
f 905 934 935
f 905 935 936
f 905 936 937
f 905 937 907
f 906 907 938
f 907 937 939
f 907 939 940
f 907 940 938
f 908 941 911
f 908 910 942
f 908 942 941
f 910 912 943
f 910 943 942
f 911 941 928
f 913 928 944
f 913 944 945
f 913 945 946
f 913 946 947
f 913 947 914
f 914 948 917
f 915 949 920
f 915 920 919
f 915 919 916
f 915 918 949
f 917 948 918
f 918 950 951
f 918 951 949
f 920 949 951
f 920 951 921
f 921 951 922
f 922 951 952
f 922 952 923
f 923 952 953
f 923 953 954
f 923 954 924
f 924 954 925
f 925 955 926
f 925 954 956
f 925 956 955
f 926 955 927
f 927 955 930
f 928 941 957
f 928 957 958
f 928 958 959
f 928 959 947
f 928 947 944
f 930 955 931
f 931 960 961
f 931 961 939
f 931 939 932
f 931 955 960
f 932 939 933
f 933 939 936
f 936 939 937
f 938 940 962
f 939 961 962
f 939 962 940
f 941 942 963
f 941 963 957
f 942 943 963
f 944 947 945
f 945 947 946
f 947 959 964
f 950 962 952
f 950 952 951
f 952 962 953
f 953 962 954
f 954 962 956
f 955 956 960
f 956 962 961
f 956 961 960
f 957 963 965
f 957 965 958
f 958 965 964
f 958 964 959

