# https://github.com/mikedh/trimesh

o geometry_0
v -0.06846365 -0.02264287 -0.19026106
v -0.07186304 -0.02095612 -0.19026106
v -0.06832236 -0.02259326 -0.19423933
v -0.06399209 -0.02261581 -0.19073013
v -0.06620294 -0.02256620 -0.18654405
v -0.06793172 -0.02256620 -0.18654405
v -0.07485932 -0.01787126 -0.19026106
v -0.07482192 -0.01771341 -0.19474997
v -0.07524165 -0.01085815 -0.15031212
v -0.06406274 -0.02257071 -0.19413839
v -0.07044179 -0.01937310 -0.19679848
v -0.06803146 -0.01691964 -0.20092519
v -0.06646891 -0.01691964 -0.20092519
v -0.06063427 -0.02247149 -0.19376431
v -0.06063427 -0.02247149 -0.19334868
v -0.06167735 -0.02225050 -0.18873507
v -0.04308462 -0.01236450 -0.15031212
v -0.04366642 -0.01235999 -0.15031212
v -0.05046520 -0.01230136 -0.15031212
v -0.05200697 -0.01228783 -0.15031212
v -0.05726397 -0.01223822 -0.15031212
v -0.06406274 -0.01212998 -0.15031212
v -0.06560036 -0.01206233 -0.15031212
v -0.07085320 -0.01182781 -0.15031212
v -0.08281338 -0.00087293 -0.18334363
v -0.08280508 -0.00087293 -0.19026106
v -0.08276352 -0.00087293 -0.19718443
v -0.07785145 -0.00790859 -0.15031212
v -0.07862026 -0.00703815 -0.15031212
v -0.08049033 -0.00462528 -0.15031212
v -0.08103058 -0.00392172 -0.15031212
v -0.08278014 -0.00083685 -0.15031212
v -0.08278014 -0.00085489 -0.15566794
v -0.08105551 -0.00396231 -0.20065800
v -0.08206951 -0.00084587 -0.20341903
v -0.08162069 0.00122423 -0.20809796
v -0.07525412 -0.01128210 -0.20207117
v -0.07532061 -0.00485981 -0.20802671
v -0.07085320 -0.00854450 -0.20651258
v -0.06406274 -0.00869784 -0.20673227
v -0.04308462 -0.00881962 -0.20669665
v -0.04308462 -0.01318082 -0.19718443
v -0.04308462 -0.01170153 -0.20323496
v -0.04308462 -0.01183232 -0.20271244
v -0.04308462 0.01377115 -0.15031212
v -0.08553539 0.00528777 -0.18334363
v -0.08489956 0.00389417 -0.15031212
v -0.08552292 0.00528777 -0.15031212
v -0.08552292 0.00528777 -0.19026106
v -0.08548967 0.00528777 -0.19718443
v -0.08465022 0.00528777 -0.20410780
v -0.08243937 0.00528777 -0.20875110
v -0.07765197 0.00528777 -0.21044336
v -0.07761457 -0.00084587 -0.20880454
v -0.07085320 -0.00087293 -0.20992083
v -0.07085320 -0.00545964 -0.20829983
v -0.06406274 -0.00561749 -0.20834141
v -0.04308462 -0.00573475 -0.20841858
v -0.04308462 -0.00600084 -0.20827015
v -0.05094726 0.01684248 -0.15031212
v -0.04308462 0.02097819 -0.17681808
v -0.08457126 0.01145750 -0.18334363
v -0.08418893 0.00956780 -0.15031212
v -0.08442166 0.01145750 -0.19026106
v -0.08338272 0.01050137 -0.20410780
v -0.08233132 0.00956780 -0.20860859
v -0.07085320 0.00528777 -0.21095992
v -0.07765197 0.01020822 -0.20924393
v -0.06406274 -0.00087293 -0.20998614
v -0.05046520 -0.00087293 -0.21006334
v -0.04308462 -0.00087293 -0.21010490
v -0.05605050 0.01795195 -0.15031212
v -0.05726397 0.02332340 -0.17642618
v -0.05726397 0.01817294 -0.15031212
v -0.04308462 0.02141115 -0.18334363
v -0.08379414 0.01081708 -0.15031212
v -0.08028670 0.01975146 -0.18334363
v -0.07996671 0.01932300 -0.19026106
v -0.07425259 0.02070758 -0.20064612
v -0.07085320 0.01023077 -0.20933892
v -0.06406274 0.00528777 -0.21097180
v -0.06972284 0.02112702 -0.20139427
v -0.06406274 0.02142919 -0.20191085
v -0.05726397 0.00528777 -0.21096586
v -0.05046520 0.00528777 -0.21092431
v -0.04308462 0.00476010 -0.21080556
v -0.05046520 0.02257474 -0.18334363
v -0.05726397 0.02343164 -0.18334363
v -0.06406274 0.02322418 -0.17642618
v -0.06406274 0.01835335 -0.15031212
v -0.04308462 0.02138860 -0.18376520
v -0.07618916 0.01611637 -0.15031212
v -0.07656732 0.02136605 -0.19026106
v -0.07586085 0.02140664 -0.17642618
v -0.07688732 0.02149684 -0.18334363
v -0.07539126 0.02109996 -0.19602658
v -0.07153474 0.02155096 -0.19787321
v -0.06406274 0.01019920 -0.20932113
v -0.06406274 0.02241689 -0.19718443
v -0.05726397 0.02122624 -0.20151302
v -0.04308462 0.00995115 -0.20917861
v -0.05726397 0.01014057 -0.20930331
v -0.05726397 0.02237179 -0.19718443
v -0.04366642 0.00528777 -0.21087087
v -0.04308462 0.00528777 -0.21086493
v -0.04308462 0.02109996 -0.18857475
v -0.05726397 0.02317457 -0.19026106
v -0.06406274 0.02308888 -0.18334363
v -0.07085320 0.02258827 -0.18334363
v -0.07085320 0.02257474 -0.17642618
v -0.07085320 0.02157351 -0.17080910
v -0.06447415 0.02180352 -0.16886153
v -0.06917013 0.01783469 -0.15031212
v -0.07085320 0.01765429 -0.15031212
v -0.07483023 0.02106839 -0.17231729
v -0.07085320 0.02232218 -0.19026106
v -0.06406274 0.02283181 -0.19026106
v -0.05363186 0.02086093 -0.20086581
v -0.04308462 0.00954976 -0.20932707
v -0.04308462 0.02014834 -0.19203643
v -0.05233527 0.02142017 -0.19718443
v -0.04308462 0.02103231 -0.18887164
f 1 2 3
f 1 3 4
f 1 4 5
f 1 5 6
f 1 6 2
f 2 7 8
f 2 8 3
f 2 6 9
f 2 9 7
f 3 10 4
f 3 8 11
f 3 11 12
f 3 12 13
f 3 13 10
f 4 10 14
f 4 14 15
f 4 15 5
f 5 15 16
f 5 16 17
f 5 17 6
f 6 17 18
f 6 18 19
f 6 19 20
f 6 20 21
f 6 21 22
f 6 22 23
f 6 23 24
f 6 24 9
f 7 25 26
f 7 26 27
f 7 27 8
f 7 9 28
f 7 28 29
f 7 29 30
f 7 30 31
f 7 31 32
f 7 32 33
f 7 33 25
f 8 27 34
f 8 34 35
f 8 35 36
f 8 36 37
f 8 37 11
f 9 24 23
f 9 23 22
f 9 22 21
f 9 21 20
f 9 20 19
f 9 19 18
f 9 18 17
f 9 17 45
f 9 45 60
f 9 60 72
f 9 72 74
f 9 74 90
f 9 90 113
f 9 113 114
f 9 114 92
f 9 92 76
f 9 76 63
f 9 63 48
f 9 48 47
f 9 47 32
f 9 32 31
f 9 31 30
f 9 30 29
f 9 29 28
f 10 13 14
f 11 37 12
f 12 37 38
f 12 38 39
f 12 39 40
f 12 40 41
f 12 41 13
f 13 41 14
f 14 42 15
f 14 41 43
f 14 43 44
f 14 44 42
f 15 42 17
f 15 17 16
f 17 42 44
f 17 44 43
f 17 43 41
f 17 41 59
f 17 59 58
f 17 58 71
f 17 71 86
f 17 86 105
f 17 105 119
f 17 119 101
f 17 101 120
f 17 120 122
f 17 122 106
f 17 106 91
f 17 91 75
f 17 75 61
f 17 61 45
f 25 46 26
f 25 33 47
f 25 47 48
f 25 48 46
f 26 46 49
f 26 49 50
f 26 50 27
f 27 50 34
f 32 47 33
f 34 51 35
f 34 50 51
f 35 51 36
f 36 51 52
f 36 52 53
f 36 53 54
f 36 54 38
f 36 38 37
f 38 54 55
f 38 55 56
f 38 56 39
f 39 56 40
f 40 56 57
f 40 57 58
f 40 58 59
f 40 59 41
f 45 61 60
f 46 48 62
f 46 62 49
f 48 63 62
f 49 62 50
f 50 62 64
f 50 64 65
f 50 65 51
f 51 65 66
f 51 66 52
f 52 66 53
f 53 67 55
f 53 55 54
f 53 66 68
f 53 68 67
f 55 67 69
f 55 69 57
f 55 57 56
f 57 69 70
f 57 70 71
f 57 71 58
f 60 61 72
f 61 73 74
f 61 74 72
f 61 75 73
f 62 63 76
f 62 76 77
f 62 77 64
f 64 77 78
f 64 78 65
f 65 79 66
f 65 78 79
f 66 79 68
f 67 68 80
f 67 80 81
f 67 81 71
f 67 71 70
f 67 70 69
f 68 79 82
f 68 82 83
f 68 83 80
f 71 81 84
f 71 84 85
f 71 85 86
f 73 75 87
f 73 87 88
f 73 88 89
f 73 89 90
f 73 90 74
f 75 91 87
f 76 92 77
f 77 93 78
f 77 92 94
f 77 94 95
f 77 95 93
f 78 93 96
f 78 96 79
f 79 96 97
f 79 97 82
f 80 98 84
f 80 84 81
f 80 83 98
f 82 97 99
f 82 99 83
f 83 100 101
f 83 101 102
f 83 102 98
f 83 99 103
f 83 103 100
f 84 98 102
f 84 102 85
f 85 104 86
f 85 102 104
f 86 104 105
f 87 91 106
f 87 106 107
f 87 107 88
f 88 107 117
f 88 117 108
f 88 108 89
f 89 108 109
f 89 109 110
f 89 110 111
f 89 111 112
f 89 112 90
f 90 112 111
f 90 111 113
f 92 114 115
f 92 115 94
f 93 116 96
f 93 95 109
f 93 109 116
f 94 115 110
f 94 110 95
f 95 110 109
f 96 116 97
f 97 116 99
f 99 116 117
f 99 117 107
f 99 107 103
f 100 118 101
f 100 103 118
f 101 119 102
f 101 118 120
f 102 119 105
f 102 105 104
f 103 107 106
f 103 106 121
f 103 121 118
f 106 122 121
f 108 117 109
f 109 117 116
f 110 115 111
f 111 115 114
f 111 114 113
f 118 121 122
f 118 122 120

o geometry_1
v -0.06406137 -0.02138031 0.19036240
v -0.04308463 -0.01312409 0.19726295
v -0.06406137 -0.02012081 0.19726295
v -0.07085666 -0.02018786 0.19036240
v -0.07085666 -0.01182627 -0.15031212
v -0.06560103 -0.01206093 -0.15031212
v -0.06406137 -0.01212798 -0.15031212
v -0.05726193 -0.01223812 -0.15031212
v -0.05046665 -0.01230038 -0.15031212
v -0.04521101 -0.01234827 -0.15031212
v -0.04352155 -0.01236264 -0.15031212
v -0.04308463 -0.01236264 -0.15031212
v -0.04308463 -0.01299479 0.19782915
v -0.04308463 -0.01165866 0.20363268
v -0.06406137 -0.01740066 0.20143866
v -0.06897163 -0.01739108 0.20143866
v -0.07108553 -0.01872721 0.19743989
v -0.07480151 -0.01733361 0.19524586
v -0.07484312 -0.01741982 0.19036240
v -0.07524260 -0.01085889 -0.15031212
v -0.04308463 0.01377090 -0.15031212
v -0.04308463 -0.00937431 0.20706525
v -0.06406137 -0.01320550 0.20441120
v -0.07350321 -0.01567662 0.19988161
v -0.06406137 -0.00922106 0.20713602
v -0.07085666 -0.00901992 0.20678215
v -0.07576275 -0.00514084 0.20830382
v -0.08029433 -0.00328271 0.20582669
v -0.08222514 -0.00108456 0.20377423
v -0.08113490 -0.00408726 0.20119094
v -0.08288677 -0.00087384 0.19726295
v -0.08290758 -0.00087384 0.19036240
v -0.08291590 -0.00087384 0.18342647
v -0.08281603 -0.00083553 -0.12104675
v -0.08277858 -0.00083553 -0.15031212
v -0.08103086 -0.00391964 -0.15031212
v -0.08048991 -0.00462362 -0.15031212
v -0.07862151 -0.00703728 -0.15031212
v -0.07785168 -0.00790887 -0.15031212
v -0.05094935 0.01684064 -0.15031212
v -0.05030852 0.01770266 -0.14875508
v -0.05299667 0.02088256 -0.14567637
v -0.04896860 0.02006843 -0.14181915
v -0.04473663 0.01698432 -0.14181915
v -0.04308463 0.01547578 -0.14181915
v -0.04308463 -0.00629019 0.20876383
v -0.04366720 -0.00628541 0.20876383
v -0.06406137 -0.00613695 0.20872846
v -0.07085666 -0.00594060 0.20865770
v -0.07085666 -0.00087384 0.21042706
v -0.07787665 -0.00108456 0.20915311
v -0.08179237 0.00082625 0.20837461
v -0.08484255 0.00528959 0.20419887
v -0.08549587 0.00528959 0.19726295
v -0.08557493 0.00528959 0.17652592
v -0.08559157 0.00528959 0.16959000
v -0.08558325 0.00528959 -0.12104675
v -0.08557493 0.00528959 -0.12794729
v -0.08490081 0.00389600 -0.15031212
v -0.05605101 0.01795169 -0.15031212
v -0.05726193 0.01817199 -0.15031212
v -0.05726193 0.01879934 -0.14939205
v -0.05726193 0.02099270 -0.14592409
v -0.05356676 0.02696458 -0.11103211
v -0.04994233 0.02492447 -0.10721027
v -0.04648851 0.02184036 -0.10721027
v -0.04603078 0.02270716 -0.07950194
v -0.04308463 0.01692685 -0.10721027
v -0.04308463 -0.00581608 0.20894080
v -0.06406137 -0.00087384 0.21046245
v -0.07085666 0.00528959 0.21120558
v -0.07765195 0.00528959 0.21078094
v -0.08262461 0.00528959 0.20901156
v -0.08343606 0.01052875 0.20419887
v -0.08241240 0.00959969 0.20876383
v -0.08378976 0.01088314 0.19726295
v -0.08379809 0.01093103 0.19036240
v -0.08380224 0.01095497 0.18342647
v -0.08381473 0.01101723 0.16268945
v -0.08382305 0.01109385 -0.08643786
v -0.08381057 0.01108906 -0.11411081
v -0.08381889 0.01101723 -0.12104675
v -0.08382305 0.01095497 -0.12794729
v -0.08552083 0.00528959 -0.15031212
v -0.06406137 0.01835397 -0.15031212
v -0.06406137 0.01893344 -0.14942743
v -0.06406137 0.02100228 -0.14599486
v -0.05726193 0.02701726 -0.11131520
v -0.05726193 0.02717530 -0.10721027
v -0.05334206 0.02701726 -0.10721027
v -0.04973427 0.02579128 -0.07950194
v -0.04308463 0.01762125 -0.07950194
v -0.04308463 0.01747279 -0.08643786
v -0.04950956 0.02586311 -0.05876491
v -0.04791581 0.02665808 0.15575352
v -0.04565627 0.02323395 0.05192688
v -0.04308463 0.01918725 0.05192688
v -0.04308463 -0.00087384 0.21053324
v -0.04366720 -0.00087384 0.21053324
v -0.07085666 0.01032283 0.20943620
v -0.07765195 0.01027494 0.20936544
v -0.05726193 0.00528959 0.21117019
v -0.06406137 0.01030846 0.20943620
v -0.07316199 0.02671555 0.19266258
v -0.07438122 0.02696458 0.18802683
v -0.06863041 0.02697416 0.19397191
v -0.07438122 0.02696458 0.18530200
v -0.07582517 0.02332973 -0.10721027
v -0.08381889 0.01091187 -0.13488321
v -0.07427303 0.02688795 0.09014528
v -0.07426887 0.02688317 0.08653576
v -0.08418508 0.00957095 -0.15031212
v -0.06917137 0.01783676 -0.15031212
v -0.07085666 0.02085382 -0.14560560
v -0.06834744 0.02697895 -0.11113826
v -0.06406137 0.02702684 -0.11135060
v -0.06406137 0.02719445 -0.10721027
v -0.05726193 0.02730939 -0.03105658
v -0.05272203 0.02708430 -0.03105658
v -0.05131553 0.02718966 0.15575352
v -0.04808642 0.02665329 0.18342647
v -0.04532337 0.02356439 0.19036240
v -0.04533169 0.02356918 0.18342647
v -0.04545653 0.02357397 0.15575352
v -0.04308463 0.01985771 0.18342647
v -0.04308463 0.00528959 0.21106403
v -0.05726193 0.02037013 0.20051859
v -0.06406137 0.02378948 0.19722755
v -0.04308463 0.00571102 0.21092249
v -0.05726193 0.01029409 0.20940081
v -0.07088163 0.02711783 0.19036240
v -0.07126446 0.02715135 0.18317876
v -0.07085666 0.02727108 0.15575352
v -0.06406137 0.02703641 0.19407808
v -0.06406137 0.02736685 0.19036240
v -0.07382778 0.02680654 -0.00338363
v -0.07343247 0.02668682 -0.03105658
v -0.07223403 0.02641384 -0.10721027
v -0.07426471 0.02071494 -0.14528711
v -0.08379392 0.01081609 -0.15031212
v -0.08379809 0.01082567 -0.14871969
v -0.08380641 0.01087356 -0.14181915
v -0.07085666 0.01765477 -0.15031212
v -0.06883847 0.02704120 -0.10721027
v -0.06406137 0.02727586 -0.05876491
v -0.06406137 0.02731418 -0.03105658
v -0.06406137 0.02753447 0.15575352
v -0.05726193 0.02752489 0.15575352
v -0.05148614 0.02713219 0.18342647
v -0.04816965 0.02664851 0.19036240
v -0.04591426 0.02249166 0.19574128
v -0.04308463 0.01665387 0.19758143
v -0.04308463 0.01955122 0.19025624
v -0.05046665 0.02021689 0.20037704
v -0.05726193 0.02378948 0.19733372
v -0.04308463 0.01019352 0.20933005
v -0.06406137 0.02744827 0.18342647
v -0.07003274 0.02709388 -0.03105658
v -0.05726193 0.02704599 0.19411346
v -0.05726193 0.02737643 0.19036240
v -0.07618719 0.01611272 -0.15031212
v -0.05726193 0.02742432 0.18342647
v -0.05156521 0.02711783 0.19036240
v -0.05290929 0.02698852 0.19400730
v -0.05057068 0.02424443 0.19641365
v -0.04308463 0.01331116 0.20419887
f 123 124 125
f 123 125 126
f 123 126 127
f 123 127 128
f 123 128 129
f 123 129 130
f 123 130 131
f 123 131 132
f 123 132 133
f 123 133 134
f 123 134 124
f 124 135 125
f 124 134 143
f 124 143 167
f 124 167 190
f 124 190 215
f 124 215 214
f 124 214 219
f 124 219 247
f 124 247 275
f 124 275 274
f 124 274 288
f 124 288 278
f 124 278 251
f 124 251 248
f 124 248 220
f 124 220 191
f 124 191 168
f 124 168 144
f 124 144 136
f 124 136 135
f 125 135 136
f 125 136 137
f 125 137 138
f 125 138 139
f 125 139 126
f 126 139 140
f 126 140 141
f 126 141 142
f 126 142 127
f 127 142 161
f 127 161 160
f 127 160 159
f 127 159 158
f 127 158 157
f 127 157 181
f 127 181 206
f 127 206 234
f 127 234 262
f 127 262 283
f 127 283 265
f 127 265 235
f 127 235 207
f 127 207 183
f 127 183 182
f 127 182 162
f 127 162 143
f 127 143 134
f 127 134 133
f 127 133 132
f 127 132 131
f 127 131 130
f 127 130 129
f 127 129 128
f 136 144 137
f 137 144 145
f 137 145 138
f 138 146 139
f 138 145 147
f 138 147 148
f 138 148 149
f 138 149 146
f 139 146 140
f 140 146 150
f 140 150 151
f 140 151 152
f 140 152 153
f 140 153 141
f 141 153 154
f 141 154 155
f 141 155 156
f 141 156 157
f 141 157 158
f 141 158 159
f 141 159 160
f 141 160 161
f 141 161 142
f 143 162 163
f 143 163 164
f 143 164 165
f 143 165 166
f 143 166 167
f 144 168 147
f 144 147 145
f 146 149 150
f 147 168 169
f 147 169 170
f 147 170 171
f 147 171 148
f 148 171 149
f 149 171 172
f 149 172 173
f 149 173 174
f 149 174 150
f 150 174 151
f 151 175 176
f 151 176 153
f 151 153 152
f 151 174 175
f 153 176 177
f 153 177 154
f 154 177 178
f 154 178 155
f 155 178 179
f 155 179 156
f 156 179 180
f 156 180 157
f 157 180 181
f 162 182 164
f 162 164 163
f 164 182 183
f 164 183 184
f 164 184 185
f 164 185 186
f 164 186 165
f 165 186 187
f 165 187 166
f 166 187 188
f 166 188 167
f 167 188 189
f 167 189 190
f 168 191 169
f 169 191 170
f 170 191 192
f 170 192 172
f 170 172 171
f 172 192 193
f 172 193 194
f 172 194 173
f 173 194 174
f 174 194 195
f 174 195 175
f 175 196 176
f 175 195 197
f 175 197 196
f 176 198 177
f 176 196 198
f 177 198 199
f 177 199 178
f 178 199 200
f 178 200 201
f 178 201 202
f 178 202 179
f 179 202 203
f 179 203 180
f 180 203 204
f 180 204 205
f 180 205 206
f 180 206 181
f 183 207 184
f 184 207 208
f 184 208 185
f 185 208 209
f 185 209 210
f 185 210 186
f 186 210 211
f 186 211 212
f 186 212 187
f 187 212 213
f 187 213 189
f 187 189 188
f 189 214 215
f 189 215 190
f 189 213 216
f 189 216 217
f 189 217 218
f 189 218 219
f 189 219 214
f 191 220 221
f 191 221 192
f 192 221 193
f 193 222 223
f 193 223 194
f 193 221 220
f 193 220 224
f 193 224 225
f 193 225 222
f 194 223 197
f 194 197 195
f 196 197 226
f 196 226 227
f 196 227 198
f 197 223 228
f 197 228 226
f 198 227 199
f 199 227 200
f 200 227 201
f 201 227 202
f 202 227 229
f 202 229 203
f 203 230 231
f 203 231 204
f 203 229 232
f 203 232 233
f 203 233 230
f 204 231 205
f 205 231 206
f 206 231 234
f 207 235 236
f 207 236 208
f 208 236 209
f 209 236 237
f 209 237 238
f 209 238 210
f 210 238 239
f 210 239 211
f 211 239 240
f 211 240 212
f 212 216 213
f 212 240 241
f 212 241 217
f 212 217 216
f 217 242 243
f 217 243 244
f 217 244 245
f 217 245 246
f 217 246 218
f 217 241 242
f 218 246 245
f 218 245 219
f 219 245 247
f 220 248 224
f 222 249 223
f 222 225 249
f 223 249 250
f 223 250 228
f 224 248 251
f 224 251 252
f 224 252 225
f 225 252 249
f 226 228 253
f 226 253 227
f 227 253 254
f 227 254 255
f 227 255 229
f 228 250 256
f 228 256 257
f 228 257 253
f 229 255 232
f 230 258 259
f 230 259 260
f 230 260 261
f 230 261 262
f 230 262 263
f 230 263 264
f 230 264 231
f 230 233 258
f 231 264 263
f 231 263 234
f 232 255 258
f 232 258 233
f 234 263 262
f 235 265 261
f 235 261 236
f 236 261 237
f 237 260 266
f 237 266 239
f 237 239 238
f 237 261 260
f 239 266 267
f 239 267 240
f 240 267 268
f 240 268 269
f 240 269 270
f 240 270 241
f 241 270 242
f 242 270 271
f 242 271 272
f 242 272 243
f 243 272 244
f 244 272 273
f 244 273 274
f 244 274 275
f 244 275 247
f 244 247 245
f 249 276 277
f 249 277 250
f 249 252 278
f 249 278 276
f 250 277 256
f 251 278 252
f 253 257 279
f 253 279 254
f 254 279 255
f 255 279 269
f 255 269 280
f 255 280 258
f 256 277 281
f 256 281 257
f 257 282 279
f 257 281 282
f 258 280 266
f 258 266 260
f 258 260 259
f 261 265 283
f 261 283 262
f 266 280 268
f 266 268 267
f 268 280 269
f 269 279 270
f 270 279 284
f 270 284 285
f 270 285 271
f 271 285 272
f 272 285 286
f 272 286 273
f 273 286 287
f 273 287 278
f 273 278 288
f 273 288 274
f 276 278 286
f 276 286 277
f 277 286 281
f 278 287 286
f 279 282 284
f 281 286 282
f 282 285 284
f 282 286 285

o geometry_2
v 0.05013402 -0.00087196 0.21084843
v 0.05013402 0.00529128 0.21072451
v 0.04470502 0.00529128 0.21084843
v 0.03790737 0.00529128 0.21097236
v 0.03110972 0.00529128 0.21105497
v 0.02431207 0.00529128 0.21109628
v 0.01071677 0.00529128 0.21113759
v 0.03790737 -0.00087196 0.21084843
v 0.05013402 -0.00703870 0.20903086
v 0.05013402 0.00846074 0.20923741
v 0.04470502 0.00941298 0.20894825
v 0.03790737 0.00956759 0.20907217
v 0.03110972 0.00970814 0.20915479
v 0.02431207 0.00979599 0.20923741
v 0.01751442 0.00985572 0.20927871
v 0.00391912 0.00996465 0.20932002
v -0.03006913 0.00529128 0.21109628
v -0.00286940 0.01000682 0.20932002
v -0.03006913 0.01016142 0.20932002
v -0.03686678 0.01018953 0.20932002
v -0.04308047 0.01019656 0.20932002
v -0.04308047 0.00529128 0.21105497
v -0.03686678 -0.00087196 0.21055927
v 0.04470502 -0.00703870 0.20903086
v 0.05013402 -0.01021167 0.20770899
v 0.05013402 0.00929351 0.20882432
v -0.00286940 0.02112452 0.19465557
v -0.00966705 0.02117020 0.19469688
v -0.04308047 0.00571293 0.21093105
v -0.01647383 0.02117723 0.19469688
v -0.02327148 0.02117020 0.19469688
v -0.02850886 0.02101560 0.19436641
v -0.04308047 0.01330980 0.20419779
v -0.04308047 -0.00087196 0.21051797
v -0.04308047 -0.00629026 0.20878301
v 0.03790737 -0.00703870 0.20898956
v 0.03109147 -0.00763956 0.20870040
v 0.04470502 -0.01019762 0.20770899
v 0.05013402 -0.01217941 0.20419779
v 0.05013402 0.01533727 0.19527519
v 0.02549824 0.02066070 0.19300323
v 0.02097256 0.02070638 0.19382940
v -0.00286940 0.02162349 0.19035951
v -0.00966705 0.02175350 0.19035951
v -0.01647383 0.02178161 0.19035951
v -0.02327148 0.02176404 0.19035951
v -0.04308047 0.01665495 0.19758846
v -0.02962203 0.02122994 0.19035951
v -0.04308047 0.01955385 0.19027689
v -0.04308047 -0.00937187 0.20708937
v 0.03335431 -0.01013788 0.20766769
v 0.04470502 -0.01213724 0.20419779
v -0.04308047 -0.01165937 0.20361948
v 0.05013402 -0.01398551 0.19725800
v 0.05013402 0.01602246 0.19176399
v 0.02787057 0.02077666 0.18841801
v 0.02431207 0.02094532 0.18341971
v -0.00966705 0.02187297 0.18341971
v -0.01647383 0.02191162 0.18341971
v -0.02327148 0.02188351 0.18341971
v -0.04308047 0.01985955 0.18341971
v -0.04308047 0.02141266 -0.18331552
v -0.04308047 -0.01299813 0.19783631
v 0.03790737 -0.01387658 0.19725800
v -0.04308047 -0.01318085 -0.19715381
v 0.03110972 -0.01376414 -0.19715381
v 0.04470502 -0.01384847 -0.19715381
v 0.05013402 -0.01386253 -0.19715381
v 0.05013402 0.01616302 0.19035951
v 0.05013402 0.01625086 0.18531989
v 0.02798919 0.02082585 0.18341971
v 0.02431207 0.02096289 0.17652122
v -0.00966705 0.02187648 0.16958142
v 0.04470502 0.02110696 -0.17641704
v 0.04470502 0.02095235 -0.18265459
v -0.04308047 0.02110344 -0.18856168
v -0.04308047 -0.01312463 0.19725800
v -0.04308047 -0.01170153 -0.20322613
v 0.03110972 -0.01195804 -0.20372183
v 0.03790737 -0.01197912 -0.20376314
v 0.05013402 -0.01202129 -0.20380445
v 0.05013402 -0.01349006 -0.19851698
v 0.05013402 0.02075909 -0.17641704
v 0.04932195 0.02091370 -0.17641704
v 0.04923071 0.02087504 -0.18174581
v 0.04470502 0.02064664 -0.18612448
v -0.04308047 0.02102965 -0.18885084
v -0.04308047 -0.00881669 -0.20669603
v 0.03110972 -0.00957216 -0.20719173
v 0.03790737 -0.00964244 -0.20723304
v 0.05013402 -0.00969163 -0.20727434
v 0.05013402 -0.01155044 -0.20450669
v 0.05013402 0.02072044 -0.18038263
v 0.05013402 0.02069232 -0.18253067
v 0.05013402 0.02046041 -0.18422431
v 0.05013402 0.01956439 -0.18942915
v 0.04470502 0.01955033 -0.19025532
v -0.04308047 0.02015120 -0.19203157
v -0.04308047 -0.00599861 -0.20826575
v 0.03110972 -0.00649054 -0.20876145
v 0.05013402 -0.00660650 -0.20880275
v 0.05013402 0.01934302 -0.19025532
v 0.05013402 0.01706255 -0.19459269
v 0.05013402 0.00955353 -0.20880275
v 0.02431207 0.00968706 -0.20892668
v 0.01751442 0.00971517 -0.20896799
v -0.04308047 0.00995059 -0.20917453
v -0.04308047 -0.00573507 -0.20838967
v -0.03686678 -0.00578075 -0.20843098
v -0.04308047 -0.00129713 -0.20995939
v 0.02431207 -0.00087196 -0.21053771
v 0.03790737 -0.00087196 -0.21062032
v 0.05013402 -0.00545397 -0.20917453
v 0.05013402 0.00615216 -0.21028986
v 0.05013402 0.00529128 -0.21066163
v 0.03110972 0.00529128 -0.21074425
v -0.01647383 0.00529128 -0.21082687
v -0.04308047 0.00529128 -0.21086817
v -0.04308047 -0.00087196 -0.21008331
v 0.05013402 -0.00087196 -0.21062032
v 0.05013402 0.00037194 -0.21066163
f 289 290 291
f 289 291 292
f 289 292 293
f 289 293 294
f 289 294 295
f 289 295 296
f 289 296 312
f 289 312 297
f 289 297 313
f 289 313 327
f 289 327 342
f 289 342 356
f 289 356 370
f 289 370 369
f 289 369 380
f 289 380 379
f 289 379 389
f 289 389 401
f 289 401 408
f 289 408 409
f 289 409 403
f 289 403 402
f 289 402 392
f 289 392 391
f 289 391 390
f 289 390 384
f 289 384 383
f 289 383 382
f 289 382 381
f 289 381 371
f 289 371 358
f 289 358 357
f 289 357 343
f 289 343 328
f 289 328 314
f 289 314 298
f 289 298 290
f 290 298 299
f 290 299 300
f 290 300 291
f 291 300 301
f 291 301 292
f 292 301 302
f 292 302 293
f 293 302 303
f 293 303 304
f 293 304 294
f 294 304 295
f 295 305 296
f 295 304 306
f 295 306 307
f 295 307 308
f 295 308 309
f 295 309 305
f 296 305 310
f 296 310 311
f 296 311 312
f 297 312 313
f 298 314 299
f 299 314 315
f 299 315 300
f 300 315 301
f 301 315 302
f 302 315 303
f 303 315 316
f 303 316 304
f 304 316 306
f 305 309 317
f 305 317 310
f 306 316 307
f 307 316 308
f 308 316 309
f 309 316 318
f 309 318 319
f 309 319 320
f 309 320 321
f 309 321 335
f 309 335 337
f 309 337 349
f 309 349 350
f 309 350 364
f 309 364 375
f 309 375 386
f 309 386 395
f 309 395 406
f 309 406 407
f 309 407 398
f 309 398 396
f 309 396 387
f 309 387 376
f 309 376 366
f 309 366 353
f 309 353 365
f 309 365 351
f 309 351 341
f 309 341 338
f 309 338 323
f 309 323 322
f 309 322 310
f 309 310 317
f 310 322 311
f 311 322 323
f 311 323 312
f 312 323 324
f 312 324 325
f 312 325 326
f 312 326 313
f 313 326 327
f 314 328 329
f 314 329 330
f 314 330 315
f 315 330 331
f 315 331 332
f 315 332 316
f 316 332 333
f 316 333 318
f 318 333 319
f 319 333 334
f 319 334 320
f 320 335 321
f 320 334 336
f 320 336 337
f 320 337 335
f 323 338 339
f 323 339 325
f 323 325 324
f 325 339 326
f 326 339 327
f 327 340 341
f 327 341 342
f 327 339 340
f 328 343 329
f 329 343 344
f 329 344 331
f 329 331 330
f 331 344 345
f 331 345 346
f 331 346 332
f 332 346 347
f 332 347 333
f 333 347 334
f 334 347 348
f 334 348 336
f 336 349 337
f 336 348 350
f 336 350 349
f 338 341 339
f 339 341 340
f 341 351 352
f 341 352 342
f 342 352 353
f 342 353 354
f 342 354 355
f 342 355 356
f 343 357 344
f 344 357 358
f 344 358 359
f 344 359 345
f 345 359 360
f 345 360 346
f 346 361 347
f 346 360 362
f 346 362 361
f 347 361 350
f 347 350 348
f 350 361 362
f 350 362 363
f 350 363 364
f 351 365 352
f 352 365 353
f 353 366 354
f 354 366 355
f 355 366 367
f 355 367 368
f 355 368 369
f 355 369 370
f 355 370 356
f 358 371 359
f 359 371 372
f 359 372 362
f 359 362 360
f 362 372 373
f 362 373 363
f 363 373 374
f 363 374 364
f 364 374 375
f 366 376 377
f 366 377 378
f 366 378 367
f 367 378 368
f 368 378 379
f 368 379 380
f 368 380 369
f 371 381 372
f 372 381 373
f 373 381 382
f 373 382 383
f 373 383 374
f 374 383 384
f 374 384 385
f 374 385 375
f 375 385 386
f 376 387 377
f 377 387 378
f 378 387 388
f 378 388 379
f 379 388 389
f 384 390 385
f 385 390 391
f 385 391 392
f 385 392 386
f 386 392 393
f 386 393 394
f 386 394 395
f 387 396 397
f 387 397 388
f 388 397 398
f 388 398 399
f 388 399 400
f 388 400 389
f 389 400 401
f 392 402 394
f 392 394 393
f 394 402 403
f 394 403 395
f 395 403 404
f 395 404 405
f 395 405 406
f 396 398 397
f 398 407 399
f 399 407 406
f 399 406 400
f 400 408 401
f 400 406 408
f 403 409 404
f 404 409 405
f 405 409 406
f 406 409 408

o geometry_3
v 0.07200941 -0.02271559 -0.19012582
v 0.07189672 -0.02270272 -0.18571743
v 0.06834897 -0.02254823 -0.18639791
v 0.06834897 -0.02254823 -0.18771945
v 0.07434670 -0.02255252 -0.19386358
v 0.07603698 -0.02271130 -0.19026389
v 0.07601881 -0.02269414 -0.18575688
v 0.07189672 -0.01438609 -0.10999570
v 0.05013765 -0.01306865 -0.10999570
v 0.05013765 -0.01386255 -0.19718713
v 0.05013765 -0.01313302 -0.11553824
v 0.05013765 -0.01319309 -0.12106105
v 0.05013765 -0.01320597 -0.12246148
v 0.06981751 -0.02213197 -0.19233495
v 0.07556079 -0.02255252 -0.19386358
v 0.05013765 -0.01202156 -0.20381451
v 0.05013765 -0.00969136 -0.20727613
v 0.06510292 -0.00975144 -0.20731558
v 0.07189672 -0.00976860 -0.20733530
v 0.07889045 -0.01937263 -0.19026389
v 0.08312158 -0.01170829 -0.10999570
v 0.07869416 -0.01414148 -0.10999570
v 0.07596792 -0.01424877 -0.10999570
v 0.05013765 0.01494097 -0.10999570
v 0.08271810 -0.01088006 -0.20195056
v 0.07869416 -0.00915923 -0.20670412
v 0.05013765 -0.00660588 -0.20880476
v 0.06510292 -0.00666596 -0.20884421
v 0.07189672 -0.00668312 -0.20886394
v 0.07869416 -0.00607375 -0.20858780
v 0.08307433 -0.01166538 -0.19718713
v 0.08154763 -0.01542030 -0.19026389
v 0.08407031 -0.00983726 -0.10999570
v 0.05147169 0.01514266 -0.10999570
v 0.05451055 0.02076862 -0.13824095
v 0.05023216 0.02025365 -0.14183078
v 0.05013765 0.02019357 -0.14183078
v 0.08533166 -0.00703931 -0.19718713
v 0.08264540 -0.00495800 -0.20805524
v 0.08368864 -0.00702643 -0.20419913
v 0.05013765 -0.00545580 -0.20917953
v 0.07189672 -0.00087264 -0.21074762
v 0.07869416 -0.00087264 -0.21030382
v 0.08311068 -0.01233483 -0.19026389
v 0.08548796 -0.00703931 -0.10999570
v 0.05830548 0.01581211 -0.10999570
v 0.05830548 0.02080724 -0.13816206
v 0.05830548 0.02104326 -0.14183078
v 0.05363088 0.02088019 -0.14183078
v 0.05013765 0.02076003 -0.17641741
v 0.08585873 -0.00087264 -0.20410052
v 0.08711644 -0.00087264 -0.19718713
v 0.08542253 -0.00703931 -0.19026389
v 0.08337240 -0.00087264 -0.20870615
v 0.05013765 -0.00087264 -0.21065886
v 0.05013765 0.00528973 -0.21065886
v 0.07189672 0.00528973 -0.21068844
v 0.07869416 0.00528973 -0.21036299
v 0.08349599 0.00528973 -0.20878503
v 0.08724366 -0.00087264 -0.15566740
v 0.08615317 -0.00456320 -0.10999570
v 0.08726911 -0.00087264 -0.16950403
v 0.06510292 0.01579924 -0.10999570
v 0.06365982 0.02078149 -0.13822122
v 0.06510292 0.02112480 -0.17641741
v 0.06559728 0.02091023 -0.14124891
v 0.05013765 0.02071712 -0.18038200
v 0.08592053 0.00528973 -0.20410052
v 0.08693833 0.00528973 -0.19718713
v 0.08719641 -0.00087264 -0.19026389
v 0.08724003 -0.00087264 -0.18334065
v 0.08726184 -0.00087264 -0.17641741
v 0.05013765 0.00955533 -0.20881463
v 0.07189672 0.00953387 -0.20880476
v 0.07869416 0.00936651 -0.20863710
v 0.08280898 0.00892879 -0.20816372
v 0.08714188 -0.00087264 -0.11414767
v 0.08692378 0.00528973 -0.19026389
v 0.08712735 -0.00087264 -0.10999570
v 0.07118062 0.01512979 -0.10999570
v 0.06819266 0.02069137 -0.13856641
v 0.07009376 0.02094885 -0.17641741
v 0.06986476 0.02087161 -0.18156546
v 0.06510292 0.02093598 -0.18221636
v 0.05013765 0.02069137 -0.18255168
v 0.06928316 0.02082869 -0.14318189
v 0.08368137 0.00955104 -0.20410052
v 0.08417573 0.00993726 -0.19718713
v 0.08413211 0.01013895 -0.19026389
v 0.08393582 0.01041360 -0.14874416
v 0.05013765 0.01706518 -0.19460325
v 0.06510292 0.01936105 -0.19026389
v 0.07189672 0.01896196 -0.19026389
v 0.07731650 0.01653306 -0.19026389
v 0.08670569 0.00528973 -0.14874416
v 0.08657482 0.00528973 -0.14183078
v 0.08636036 0.00528973 -0.13490753
v 0.08607683 0.00528973 -0.12798429
v 0.08630947 0.00159917 -0.10999570
v 0.07457934 0.01431443 -0.10999570
v 0.07168953 0.02001334 -0.14124891
v 0.07349248 0.02025794 -0.17641741
v 0.07203849 0.02037381 -0.18365624
v 0.06510292 0.02059267 -0.18567799
v 0.05013765 0.02045964 -0.18424797
v 0.07770180 0.01725400 -0.18334065
v 0.08123502 0.01349478 -0.14874416
v 0.08381950 0.01011320 -0.14183078
v 0.05013765 0.01934389 -0.19026389
v 0.08561155 0.00528973 -0.12106105
v 0.08510265 0.00528973 -0.11414767
v 0.08459739 0.00564591 -0.10999570
v 0.07616784 0.01315577 -0.10999570
v 0.07753096 0.01676479 -0.14183078
v 0.07783630 0.01697077 -0.14874416
v 0.05013765 0.01956275 -0.18943547
v 0.08092968 0.01319439 -0.14183078
v 0.08337240 0.00915623 -0.12798429
v 0.08353597 0.00693761 -0.10999570
v 0.07907947 0.01098435 -0.10999570
v 0.08055164 0.00982997 -0.10999570
v 0.08218739 0.00843100 -0.10999570
f 410 411 412
f 410 412 413
f 410 413 414
f 410 414 415
f 410 415 411
f 411 415 416
f 411 416 417
f 411 417 418
f 411 418 412
f 412 419 413
f 412 418 420
f 412 420 421
f 412 421 422
f 412 422 419
f 413 419 423
f 413 423 414
f 414 424 415
f 414 423 425
f 414 425 426
f 414 426 427
f 414 427 428
f 414 428 424
f 415 424 429
f 415 429 416
f 416 429 430
f 416 430 431
f 416 431 432
f 416 432 417
f 417 432 431
f 417 431 430
f 417 430 442
f 417 442 454
f 417 454 470
f 417 470 488
f 417 488 508
f 417 508 521
f 417 521 528
f 417 528 531
f 417 531 530
f 417 530 529
f 417 529 522
f 417 522 509
f 417 509 489
f 417 489 472
f 417 472 455
f 417 455 443
f 417 443 433
f 417 433 418
f 418 433 446
f 418 446 459
f 418 459 476
f 418 476 494
f 418 494 514
f 418 514 525
f 418 525 518
f 418 518 500
f 418 500 482
f 418 482 465
f 418 465 464
f 418 464 450
f 418 450 436
f 418 436 426
f 418 426 425
f 418 425 419
f 418 419 422
f 418 422 421
f 418 421 420
f 419 425 423
f 424 434 429
f 424 428 435
f 424 435 434
f 426 436 437
f 426 437 427
f 427 437 438
f 427 438 428
f 428 438 439
f 428 439 435
f 429 434 440
f 429 440 441
f 429 441 430
f 430 441 442
f 433 443 444
f 433 444 445
f 433 445 446
f 434 447 440
f 434 435 448
f 434 448 449
f 434 449 447
f 435 439 448
f 436 450 437
f 437 450 451
f 437 451 438
f 438 451 452
f 438 452 439
f 439 452 448
f 440 447 453
f 440 453 441
f 441 453 454
f 441 454 442
f 443 455 444
f 444 456 457
f 444 457 458
f 444 458 445
f 444 455 456
f 445 458 459
f 445 459 446
f 447 449 460
f 447 460 461
f 447 461 462
f 447 462 453
f 448 452 463
f 448 463 460
f 448 460 449
f 450 464 451
f 451 464 465
f 451 465 466
f 451 466 467
f 451 467 452
f 452 467 468
f 452 468 463
f 453 462 454
f 454 469 470
f 454 462 471
f 454 471 469
f 455 472 456
f 456 473 457
f 456 472 473
f 457 474 459
f 457 459 458
f 457 473 475
f 457 475 474
f 459 474 476
f 460 463 468
f 460 468 477
f 460 477 461
f 461 478 479
f 461 479 462
f 461 477 478
f 462 479 480
f 462 480 481
f 462 481 471
f 465 482 466
f 466 482 483
f 466 483 484
f 466 484 467
f 467 484 485
f 467 485 468
f 468 485 477
f 469 486 470
f 469 471 478
f 469 478 487
f 469 487 486
f 470 486 488
f 471 481 478
f 472 489 490
f 472 490 473
f 473 490 475
f 474 491 492
f 474 492 493
f 474 493 494
f 474 494 476
f 474 475 495
f 474 495 491
f 475 490 495
f 477 485 496
f 477 496 478
f 478 497 498
f 478 498 499
f 478 499 487
f 478 481 480
f 478 480 479
f 478 496 497
f 482 500 501
f 482 501 483
f 483 501 484
f 484 501 502
f 484 502 485
f 485 503 496
f 485 502 503
f 486 487 488
f 487 499 504
f 487 504 488
f 488 504 505
f 488 505 506
f 488 506 507
f 488 507 508
f 489 509 490
f 490 510 495
f 490 509 510
f 491 511 492
f 491 495 511
f 492 512 513
f 492 513 493
f 492 511 512
f 493 513 494
f 494 513 514
f 495 510 511
f 496 503 515
f 496 515 497
f 497 515 498
f 498 515 516
f 498 516 499
f 499 516 517
f 499 517 507
f 499 507 506
f 499 506 505
f 499 505 504
f 500 518 501
f 501 518 513
f 501 513 502
f 502 513 512
f 502 512 503
f 503 512 515
f 507 519 508
f 507 517 519
f 508 520 521
f 508 519 520
f 509 522 523
f 509 523 510
f 510 523 524
f 510 524 511
f 511 515 512
f 511 524 515
f 513 518 525
f 513 525 514
f 515 524 516
f 516 524 523
f 516 523 526
f 516 526 517
f 517 526 527
f 517 527 521
f 517 521 519
f 519 521 520
f 521 527 528
f 522 529 523
f 523 529 530
f 523 530 531
f 523 531 527
f 523 527 526
f 527 531 528

o geometry_4
v 0.06848881 -0.02246354 0.19377408
v 0.06873967 -0.02246354 0.19377408
v 0.06848881 -0.02246354 0.19384903
v 0.05013755 -0.01398249 0.19728078
v 0.05013755 -0.01355710 0.14192310
v 0.05013755 -0.01349194 0.13499964
v 0.05013755 -0.01339997 0.12809117
v 0.05013755 -0.01338081 0.12669749
v 0.05013755 -0.01330416 0.12116771
v 0.05013755 -0.01320068 0.11425925
v 0.05013755 -0.01308954 0.10733578
v 0.05013755 -0.01306655 0.10594210
v 0.05013755 -0.01296691 0.10041233
v 0.05013755 -0.01294008 0.09901865
v 0.05013755 -0.01282894 0.09348887
v 0.05013755 -0.01279062 0.09209519
v 0.05013755 -0.01045670 0.05786754
v 0.07869613 -0.01471447 0.05786754
v 0.07136128 -0.02178138 0.19103169
v 0.06873967 -0.02246354 0.19384903
v 0.07136128 -0.02155144 0.19660642
v 0.07189832 -0.01829775 0.20275060
v 0.05013755 -0.01021143 0.20774090
v 0.05013755 -0.01217744 0.20420424
v 0.05013755 -0.01254151 0.20281055
v 0.05013755 0.01544252 0.05786754
v 0.08228583 -0.01228474 0.05786754
v 0.07776338 -0.01902590 0.19037230
v 0.07792590 -0.01877679 0.19728078
v 0.07707794 -0.01762325 0.20239095
v 0.07624058 -0.01069814 0.20787576
v 0.07189832 -0.01377554 0.20621234
v 0.07189832 -0.01069048 0.20790574
v 0.05013755 -0.00767822 0.20877492
v 0.05150842 0.01583343 0.05786754
v 0.05013755 0.01609019 0.10041233
v 0.08290767 -0.01186318 0.05786754
v 0.08132481 -0.01437339 0.19728078
v 0.08291120 -0.01186318 0.05888658
v 0.08233176 -0.01096641 0.20180650
v 0.08285467 -0.00542095 0.20840027
v 0.07858307 -0.00730265 0.20880489
v 0.07189832 -0.00703822 0.20929943
v 0.05013755 -0.00703822 0.20902968
v 0.05830623 0.01667272 0.05786754
v 0.05150842 0.01650792 0.10733578
v 0.05013755 0.01618217 0.10733578
v 0.08465659 -0.00703822 0.05786754
v 0.08401355 -0.00703822 0.19728078
v 0.08292180 -0.01182869 0.06581004
v 0.08467778 -0.00703822 0.06581004
v 0.08466012 -0.00703822 0.05888658
v 0.08557874 -0.00087575 0.20420424
v 0.08331752 -0.00730265 0.20414430
v 0.08362843 -0.00087575 0.20910459
v 0.07869613 -0.00087575 0.21075304
v 0.07189832 -0.00087575 0.21093288
v 0.05013755 -0.00087575 0.21085794
v 0.06510404 0.01592540 0.05786754
v 0.05150842 0.01655008 0.12116771
v 0.05150842 0.01660757 0.15575503
v 0.05830623 0.01668805 0.11425925
v 0.06510404 0.01610936 0.10733578
v 0.05013755 0.01622433 0.12116771
v 0.08488624 -0.00612611 0.05786754
v 0.08599919 -0.00087575 0.19728078
v 0.08622885 -0.00087575 0.06581004
v 0.08621118 -0.00087575 0.05888658
v 0.08422907 0.00493797 0.20420424
v 0.08337758 0.00387257 0.20884984
v 0.05150842 0.00529055 0.21070807
v 0.07836402 0.00567379 0.20920949
v 0.07189832 0.00529055 0.20991383
v 0.05830623 0.00529055 0.21046832
v 0.05013755 0.00529055 0.21073807
v 0.06923431 0.01487533 0.05786754
v 0.06937564 0.01510144 0.10041233
v 0.05013755 0.01632780 0.15575503
v 0.05830623 0.01668038 0.12116771
v 0.05013755 0.01625882 0.18344885
v 0.05150842 0.01651559 0.18344885
v 0.06510404 0.01610936 0.12116771
v 0.06938624 0.01510527 0.12809117
v 0.08620765 -0.00087575 0.05786754
v 0.08444106 0.00514492 0.19728078
v 0.08594972 -0.00002496 0.05786754
v 0.08446226 0.00486899 0.05888658
v 0.08446933 0.00487282 0.06581004
v 0.08447640 0.00486132 0.07273349
v 0.08139900 0.00822615 0.19728078
v 0.08045565 0.00802304 0.20420424
v 0.07588020 0.00845609 0.20780084
v 0.05150842 0.00926089 0.20881987
v 0.05013755 0.00929155 0.20884984
v 0.07189832 0.00861322 0.20802563
v 0.06510404 0.00882400 0.20831036
v 0.05830623 0.00905395 0.20858008
v 0.07213151 0.01327340 0.05786754
v 0.08131421 0.00795022 0.05786754
v 0.07263322 0.01299363 0.05786754
v 0.06510404 0.01608253 0.12809117
v 0.05830623 0.01647343 0.15575503
v 0.06510404 0.01576061 0.18344885
v 0.05013755 0.01625115 0.18532207
v 0.05150842 0.01640062 0.19037230
v 0.05830623 0.01630481 0.18344885
v 0.06918838 0.01496731 0.18344885
v 0.08445873 0.00486515 0.05786754
v 0.08178059 0.00749417 0.05786754
v 0.06905765 0.01488683 0.19037230
v 0.06879974 0.01472970 0.19425365
v 0.06510404 0.01499413 0.19479313
v 0.05830623 0.01524324 0.19521272
v 0.05150842 0.01540803 0.19542253
v 0.05013755 0.01533521 0.19527267
v 0.06510404 0.01558432 0.19037230
v 0.05013755 0.01616301 0.19037230
v 0.05013755 0.01602121 0.19178098
v 0.05830623 0.01610552 0.19037230
f 532 533 551
f 532 551 534
f 532 534 535
f 532 535 536
f 532 536 537
f 532 537 538
f 532 538 539
f 532 539 540
f 532 540 541
f 532 541 542
f 532 542 543
f 532 543 544
f 532 544 545
f 532 545 546
f 532 546 547
f 532 547 548
f 532 548 549
f 532 549 533
f 533 550 551
f 533 549 550
f 534 551 552
f 534 552 553
f 534 553 554
f 534 554 555
f 534 555 556
f 534 556 535
f 535 556 555
f 535 555 554
f 535 554 565
f 535 565 575
f 535 575 589
f 535 589 606
f 535 606 625
f 535 625 646
f 535 646 649
f 535 649 648
f 535 648 635
f 535 635 611
f 535 611 609
f 535 609 595
f 535 595 578
f 535 578 567
f 535 567 557
f 535 557 548
f 535 548 547
f 535 547 546
f 535 546 545
f 535 545 544
f 535 544 543
f 535 543 542
f 535 542 541
f 535 541 540
f 535 540 539
f 535 539 538
f 535 538 537
f 535 537 536
f 548 557 566
f 548 566 576
f 548 576 590
f 548 590 607
f 548 607 629
f 548 629 631
f 548 631 630
f 548 630 640
f 548 640 639
f 548 639 617
f 548 617 615
f 548 615 596
f 548 596 579
f 548 579 568
f 548 568 558
f 548 558 549
f 549 558 559
f 549 559 550
f 550 559 560
f 550 560 552
f 550 552 551
f 552 560 561
f 552 561 553
f 553 561 562
f 553 562 563
f 553 563 554
f 554 564 565
f 554 563 564
f 557 567 566
f 558 568 559
f 559 569 560
f 559 568 570
f 559 570 569
f 560 569 561
f 561 571 572
f 561 572 562
f 561 569 571
f 562 572 573
f 562 573 574
f 562 574 564
f 562 564 563
f 564 575 565
f 564 574 575
f 566 567 577
f 566 577 576
f 567 578 577
f 568 579 583
f 568 583 570
f 569 580 571
f 569 570 581
f 569 581 582
f 569 582 580
f 570 583 582
f 570 582 581
f 571 580 584
f 571 584 585
f 571 585 572
f 572 586 587
f 572 587 573
f 572 585 584
f 572 584 586
f 573 587 574
f 574 587 588
f 574 588 589
f 574 589 575
f 576 577 591
f 576 591 592
f 576 592 593
f 576 593 594
f 576 594 590
f 577 578 595
f 577 595 591
f 579 596 583
f 580 597 584
f 580 582 597
f 582 583 599
f 582 599 598
f 582 598 597
f 583 596 599
f 584 597 600
f 584 600 601
f 584 601 586
f 586 601 587
f 587 602 588
f 587 601 603
f 587 603 604
f 587 604 605
f 587 605 602
f 588 606 589
f 588 602 606
f 590 594 608
f 590 608 607
f 591 595 609
f 591 609 592
f 592 610 593
f 592 609 611
f 592 611 612
f 592 612 610
f 593 610 613
f 593 613 594
f 594 613 614
f 594 614 608
f 596 615 599
f 597 616 600
f 597 598 616
f 598 599 617
f 598 617 618
f 598 618 619
f 598 619 620
f 598 620 616
f 599 615 617
f 600 616 621
f 600 621 622
f 600 622 601
f 601 623 603
f 601 622 623
f 602 605 624
f 602 624 625
f 602 625 606
f 603 623 626
f 603 626 604
f 604 626 627
f 604 627 628
f 604 628 624
f 604 624 605
f 607 608 629
f 608 630 631
f 608 631 629
f 608 614 621
f 608 621 630
f 610 632 613
f 610 612 633
f 610 633 634
f 610 634 632
f 611 635 612
f 612 635 636
f 612 636 637
f 612 637 633
f 613 632 638
f 613 638 614
f 614 638 621
f 616 620 619
f 616 619 618
f 616 618 621
f 617 639 618
f 618 639 640
f 618 640 621
f 621 638 641
f 621 641 642
f 621 642 622
f 621 640 630
f 622 642 623
f 623 642 643
f 623 643 626
f 624 628 644
f 624 644 645
f 624 645 625
f 625 645 646
f 626 628 627
f 626 643 644
f 626 644 628
f 632 634 638
f 633 637 634
f 634 637 647
f 634 647 641
f 634 641 638
f 635 648 636
f 636 648 649
f 636 649 646
f 636 646 645
f 636 645 644
f 636 644 650
f 636 650 637
f 637 650 647
f 641 647 642
f 642 647 643
f 643 647 650
f 643 650 644

o geometry_5
v 0.08713090 -0.00087255 -0.10999570
v 0.08615310 -0.00456435 -0.10999570
v 0.08630883 0.00159889 -0.10999570
v 0.08709106 -0.00087255 -0.09336860
v 0.08549762 -0.00703888 -0.07260116
v 0.08549400 -0.00703888 -0.10720260
v 0.08548675 -0.00703888 -0.10999570
v 0.08706571 -0.00087255 -0.08645160
v 0.08459587 0.00564420 -0.10999570
v 0.08445826 0.00486649 0.05785256
v 0.08547589 -0.00703888 -0.06568415
v 0.08312556 -0.01212932 -0.01033169
v 0.08314367 -0.01212932 -0.01724869
v 0.08316177 -0.01210473 -0.03108270
v 0.08323058 -0.01196025 -0.06568415
v 0.08407076 -0.00983923 -0.10999570
v 0.08322334 -0.01192951 -0.07260116
v 0.08544330 -0.00703888 -0.05876715
v 0.08595030 -0.00002107 0.05785256
v 0.08620743 -0.00087255 0.05785256
v 0.08353841 0.00694140 -0.10999570
v 0.08131483 0.00794965 0.05785256
v 0.08218760 0.00842919 -0.10999570
v 0.08290827 -0.01186189 0.05785256
v 0.08228538 -0.01228609 0.05785256
v 0.07869651 -0.01471758 0.05785256
v 0.07869651 -0.01469606 0.02426976
v 0.07869651 -0.01459769 -0.05185014
v 0.07869651 -0.01452699 -0.07260116
v 0.08312194 -0.01170819 -0.10999570
v 0.08488921 -0.00612592 0.05785256
v 0.08465744 -0.00703888 0.05785256
v 0.07263417 0.01299399 0.05785256
v 0.08055069 0.00983398 -0.10999570
v 0.07908038 0.01098363 -0.10999570
v 0.07616873 0.01315691 -0.10999570
v 0.07457890 0.01431578 -0.10999570
v 0.05013764 -0.01045710 0.05785256
v 0.05013764 -0.01251971 -0.06708069
v 0.05013764 -0.01260886 -0.07260116
v 0.05013764 -0.01295621 -0.10028560
v 0.05013764 -0.01303613 -0.10720260
v 0.05013764 -0.01306687 -0.10999570
v 0.07189540 -0.01440404 -0.09336860
v 0.07189540 -0.01438867 -0.10999570
v 0.07596592 -0.01425034 -0.10999570
v 0.07869651 -0.01414275 -0.10999570
v 0.07213079 0.01327372 0.05785256
v 0.07117835 0.01513038 -0.10999570
v 0.06510153 0.01592653 0.05785256
v 0.06923724 0.01487832 0.05785256
v 0.05013764 0.01544085 0.05785256
v 0.05013764 0.01494287 -0.10999570
v 0.06510153 0.01580050 -0.10999570
v 0.05830404 0.01668579 0.04503721
v 0.06510153 0.01593575 0.04503721
v 0.06510153 0.01593268 0.05195421
v 0.05931443 0.01656283 0.05785256
v 0.05150655 0.01583431 0.05785256
v 0.05013764 0.01545314 0.05195421
v 0.05013764 0.01536400 -0.09336860
v 0.05150655 0.01560684 -0.09336860
v 0.05147033 0.01514267 -0.10999570
v 0.05830404 0.01581279 -0.10999570
v 0.05830404 0.01608945 -0.08645160
v 0.05830404 0.01648906 -0.01724869
v 0.05830404 0.01651672 -0.01033169
v 0.05830404 0.01667350 0.03810377
v 0.05150655 0.01564373 -0.08645160
v 0.05150655 0.01584661 0.04503721
v 0.05150655 0.01584353 0.05195421
v 0.05830404 0.01667964 0.05195421
v 0.05830404 0.01667350 0.05785256
v 0.05013764 0.01545314 0.04503721
v 0.05013764 0.01537937 -0.08645160
f 651 652 657
f 651 657 666
f 651 666 680
f 651 680 697
f 651 697 696
f 651 696 695
f 651 695 693
f 651 693 703
f 651 703 713
f 651 713 714
f 651 714 704
f 651 704 699
f 651 699 687
f 651 687 686
f 651 686 685
f 651 685 684
f 651 684 673
f 651 673 671
f 651 671 659
f 651 659 653
f 651 653 654
f 651 654 655
f 651 655 652
f 652 656 657
f 652 655 656
f 653 658 654
f 653 659 660
f 653 660 658
f 654 658 661
f 654 661 655
f 655 661 662
f 655 662 663
f 655 663 664
f 655 664 665
f 655 665 656
f 656 665 657
f 657 665 667
f 657 667 666
f 658 668 661
f 658 660 669
f 658 669 670
f 658 670 668
f 659 671 660
f 660 672 683
f 660 683 698
f 660 698 701
f 660 701 700
f 660 700 708
f 660 708 723
f 660 723 709
f 660 709 702
f 660 702 688
f 660 688 676
f 660 676 675
f 660 675 674
f 660 674 682
f 660 682 681
f 660 681 670
f 660 670 669
f 660 671 673
f 660 673 672
f 661 668 662
f 662 674 675
f 662 675 676
f 662 676 663
f 662 668 674
f 663 676 677
f 663 677 664
f 664 678 665
f 664 677 678
f 665 678 679
f 665 679 667
f 666 667 680
f 667 679 680
f 668 670 681
f 668 681 682
f 668 682 674
f 672 673 684
f 672 684 685
f 672 685 686
f 672 686 687
f 672 687 683
f 676 688 689
f 676 689 690
f 676 690 691
f 676 691 692
f 676 692 693
f 676 693 694
f 676 694 677
f 677 694 695
f 677 695 678
f 678 695 679
f 679 695 696
f 679 696 697
f 679 697 680
f 683 687 698
f 687 699 700
f 687 700 701
f 687 701 698
f 688 702 710
f 688 710 724
f 688 724 725
f 688 725 711
f 688 711 703
f 688 703 693
f 688 693 692
f 688 692 691
f 688 691 690
f 688 690 689
f 693 695 694
f 699 704 705
f 699 705 706
f 699 706 707
f 699 707 700
f 700 707 708
f 702 709 710
f 703 711 712
f 703 712 713
f 704 714 715
f 704 715 716
f 704 716 717
f 704 717 718
f 704 718 705
f 705 718 719
f 705 719 720
f 705 720 721
f 705 721 722
f 705 722 707
f 705 707 706
f 707 722 708
f 708 722 723
f 709 723 721
f 709 721 710
f 710 721 720
f 710 720 724
f 711 725 719
f 711 719 712
f 712 719 716
f 712 716 715
f 712 715 714
f 712 714 713
f 716 719 717
f 717 719 718
f 719 725 720
f 720 725 724
f 721 723 722

