# https://github.com/mikedh/trimesh

o geometry_0
v -0.11342645 -0.16130645 0.01133252
v -0.11342645 -0.16130340 0.01888436
v -0.11470330 -0.16108679 0.01888436
v -0.11470330 -0.16108374 0.01133252
v -0.11470330 -0.16106848 0.00382564
v -0.11470330 -0.16103187 -0.01123308
v -0.11342645 -0.16128815 0.00382564
v -0.11342645 -0.16120272 0.05794712
v -0.11784783 -0.15967729 0.04909169
v -0.11784783 -0.15968339 0.04491121
v -0.11784783 -0.15971999 0.01888436
v -0.11470330 -0.16098306 0.05664353
v -0.11784783 -0.15967118 0.05246305
v -0.11784783 -0.15970780 -0.00786172
v -0.11784783 -0.15969254 -0.01541355
v -0.11784783 -0.15921966 -0.17404702
v -0.11784783 -0.15920746 -0.17732846
v -0.11470330 -0.16023560 -0.17732846
v -0.11342645 -0.16124849 -0.00997444
v -0.11342645 -0.16127290 -0.00242260
v -0.11342645 -0.16118137 0.06545400
v -0.11470330 -0.16096171 0.06419536
v -0.11784783 -0.15960102 0.07174719
v -0.11784783 -0.15918610 -0.18159885
v -0.11784783 -0.15916169 -0.18488030
v -0.11470330 -0.16017763 -0.18488030
v -0.11342645 -0.16030271 -0.18488030
v -0.11342645 -0.16035763 -0.17732846
v -0.11342645 -0.16036679 -0.17602488
v -0.11342645 -0.16115391 0.07174719
v -0.11470330 -0.16093119 0.07174719
v -0.11784783 -0.15913423 0.16232424
v -0.11784783 -0.15906711 -0.18924058
v -0.11784783 -0.15899084 -0.19243213
v -0.11470330 -0.15999458 -0.19243213
v -0.11342645 -0.16013186 -0.19243213
v -0.11342645 -0.16054374 0.16362783
v -0.11470330 -0.16033323 0.16232424
v -0.11784783 -0.15894203 0.19253158
v -0.11784783 -0.15883220 -0.19697222
v -0.11784783 -0.15853627 -0.20470387
v -0.11470330 -0.15967424 -0.19998397
v -0.11342645 -0.15982984 -0.19998397
v -0.11342645 -0.16033323 0.19379022
v -0.11470330 -0.16011661 0.19253158
v -0.11784783 -0.15888406 0.20008342
v -0.11784783 -0.15796575 -0.21297493
v -0.11470330 -0.15912813 -0.20753580
v -0.11342645 -0.15937526 -0.20623222
v -0.11342645 -0.16027525 0.20008342
v -0.11470330 -0.16004645 0.20008342
v -0.11784783 -0.15871626 0.20763525
v -0.11784783 -0.15742270 -0.21823424
v -0.11342645 -0.15925933 -0.20753580
v -0.11342645 -0.16007391 0.20763525
v -0.11470330 -0.15984509 0.20763525
v -0.11784783 -0.15815185 0.21518708
v -0.11784783 -0.15730067 -0.21890850
v -0.11342645 -0.15820982 -0.21508764
v -0.11342645 -0.15843558 -0.21378405
v -0.11342645 -0.15917085 0.21518708
v -0.11470330 -0.15900915 0.21518708
v -0.11784783 -0.15753863 0.21950242
v -0.11470330 -0.15739219 -0.21917821
v -0.11342645 -0.15759355 -0.21845898
v -0.11784783 -0.15546709 -0.22245966
v -0.11470330 -0.15578134 -0.22295413
v -0.11342645 -0.15785593 0.22013173
v -0.11470330 -0.15780406 0.22004183
v -0.11784783 -0.15704133 0.22044639
v -0.11342645 -0.15741660 -0.21926811
v -0.11784783 -0.15396911 -0.22497695
v -0.11470330 -0.15201351 -0.22812352
v -0.11342645 -0.15267555 -0.22731442
v -0.11342645 -0.15580573 -0.22299908
v -0.11342645 -0.15573557 0.22390766
v -0.11470330 -0.15572032 0.22381774
v -0.11784783 -0.15526878 0.22309853
v -0.11784783 -0.15177248 -0.22798869
v -0.11784783 -0.14949655 -0.22875287
v -0.11342645 -0.15203791 -0.22812352
v -0.11342645 -0.15197080 0.22817801
v -0.11470330 -0.15195249 0.22817801
v -0.11784783 -0.15165045 0.22799822
v -0.11784783 -0.14597889 -0.22956197
v -0.11342645 -0.14702229 -0.22929227
v -0.11342645 -0.14597889 0.22961646
v -0.11470330 -0.14597889 0.22966144
v -0.11784783 -0.14597889 0.22957154
v -0.11470330 -0.14597889 -0.22951704
v -0.11784783 -0.14283649 -0.22947207
v -0.11342645 -0.14597889 -0.22947207
v -0.11784783 -0.13859273 0.22849269
v -0.11342645 -0.13918765 0.22786339
v -0.11784783 -0.13589882 -0.22785382
v -0.11342645 -0.14044156 -0.22803362
v -0.11784783 -0.13417508 0.22691942
v -0.11342645 -0.13703374 0.22273892
v -0.11784783 -0.13206387 0.22273892
v -0.11784783 -0.13465406 -0.22677502
v -0.11342645 -0.13933715 -0.22762910
v -0.11342645 -0.13700019 0.22233436
v -0.11784783 -0.13072455 0.21518708
v -0.11784783 -0.13103574 0.21788417
v -0.11784783 -0.13432762 -0.22628053
v -0.11342645 -0.13750662 -0.22299908
v -0.11342645 -0.13646018 0.21518708
v -0.11784783 -0.13054760 0.21082680
v -0.11784783 -0.13294253 -0.22259452
v -0.11342645 -0.13738765 -0.22259452
v -0.11342645 -0.13619170 0.20763525
v -0.11342645 -0.13604527 0.20008342
v -0.11784783 -0.13045302 0.20340981
v -0.11784783 -0.13149946 -0.21508764
v -0.11342645 -0.13696357 -0.21508764
v -0.11342645 -0.13598119 0.19253158
v -0.11784783 -0.13014488 0.13211691
v -0.11784783 -0.13127675 -0.20753580
v -0.11784783 -0.13123710 -0.20515338
v -0.11784783 -0.13115167 -0.19998397
v -0.11784783 -0.13112421 -0.19751164
v -0.11784783 -0.13106930 -0.19243213
v -0.11342645 -0.13688424 -0.20753580
v -0.11784783 -0.13015404 0.09440270
v -0.11784783 -0.13014793 0.10195452
v -0.11784783 -0.13014183 0.12456507
v -0.11784783 -0.13106014 -0.18991486
f 1 2 3
f 1 3 4
f 1 4 5
f 1 5 6
f 1 6 7
f 1 7 20
f 1 20 19
f 1 19 29
f 1 29 28
f 1 28 27
f 1 27 36
f 1 36 43
f 1 43 49
f 1 49 54
f 1 54 60
f 1 60 59
f 1 59 65
f 1 65 71
f 1 71 75
f 1 75 74
f 1 74 81
f 1 81 86
f 1 86 92
f 1 92 96
f 1 96 101
f 1 101 106
f 1 106 110
f 1 110 115
f 1 115 123
f 1 123 116
f 1 116 112
f 1 112 111
f 1 111 107
f 1 107 102
f 1 102 98
f 1 98 94
f 1 94 87
f 1 87 82
f 1 82 76
f 1 76 68
f 1 68 61
f 1 61 55
f 1 55 50
f 1 50 44
f 1 44 37
f 1 37 30
f 1 30 21
f 1 21 8
f 1 8 2
f 2 8 3
f 3 9 10
f 3 10 11
f 3 11 4
f 3 8 12
f 3 12 13
f 3 13 9
f 4 11 14
f 4 14 15
f 4 15 5
f 5 15 6
f 6 15 16
f 6 16 17
f 6 17 18
f 6 18 19
f 6 19 20
f 6 20 7
f 8 21 22
f 8 22 12
f 9 13 23
f 9 23 32
f 9 32 39
f 9 39 46
f 9 46 52
f 9 52 57
f 9 57 63
f 9 63 70
f 9 70 78
f 9 78 84
f 9 84 89
f 9 89 93
f 9 93 97
f 9 97 99
f 9 99 104
f 9 104 103
f 9 103 108
f 9 108 113
f 9 113 117
f 9 117 126
f 9 126 125
f 9 125 124
f 9 124 127
f 9 127 122
f 9 122 121
f 9 121 120
f 9 120 119
f 9 119 118
f 9 118 114
f 9 114 109
f 9 109 105
f 9 105 100
f 9 100 95
f 9 95 91
f 9 91 85
f 9 85 80
f 9 80 79
f 9 79 72
f 9 72 66
f 9 66 58
f 9 58 53
f 9 53 47
f 9 47 41
f 9 41 40
f 9 40 34
f 9 34 33
f 9 33 25
f 9 25 24
f 9 24 17
f 9 17 16
f 9 16 15
f 9 15 14
f 9 14 11
f 9 11 10
f 12 22 13
f 13 22 23
f 17 24 18
f 18 24 25
f 18 25 26
f 18 26 27
f 18 27 28
f 18 28 29
f 18 29 19
f 21 30 31
f 21 31 22
f 22 31 23
f 23 31 32
f 25 33 26
f 26 33 34
f 26 34 35
f 26 35 36
f 26 36 27
f 30 37 38
f 30 38 31
f 31 38 39
f 31 39 32
f 34 40 35
f 35 40 41
f 35 41 42
f 35 42 43
f 35 43 36
f 37 44 38
f 38 44 45
f 38 45 39
f 39 45 46
f 41 47 42
f 42 47 48
f 42 48 43
f 43 48 49
f 44 50 45
f 45 50 51
f 45 51 46
f 46 51 52
f 47 53 48
f 48 54 49
f 48 53 54
f 50 55 56
f 50 56 51
f 51 56 52
f 52 56 57
f 53 58 59
f 53 59 60
f 53 60 54
f 55 61 62
f 55 62 56
f 56 62 57
f 57 62 63
f 58 64 65
f 58 65 59
f 58 66 67
f 58 67 64
f 61 68 69
f 61 69 62
f 62 69 63
f 63 69 70
f 64 67 71
f 64 71 65
f 66 72 67
f 67 72 73
f 67 73 74
f 67 74 75
f 67 75 71
f 68 76 77
f 68 77 69
f 69 77 70
f 70 77 78
f 72 79 73
f 73 79 80
f 73 80 81
f 73 81 74
f 76 82 83
f 76 83 77
f 77 83 84
f 77 84 78
f 80 85 86
f 80 86 81
f 82 87 88
f 82 88 83
f 83 88 89
f 83 89 84
f 85 90 86
f 85 91 90
f 86 90 92
f 87 93 88
f 87 94 93
f 88 93 89
f 90 91 92
f 91 95 92
f 92 95 96
f 93 94 97
f 94 98 99
f 94 99 97
f 95 100 101
f 95 101 96
f 98 102 103
f 98 103 104
f 98 104 99
f 100 105 101
f 101 105 106
f 102 107 103
f 103 107 108
f 105 109 106
f 106 109 110
f 107 111 108
f 108 111 112
f 108 112 113
f 109 114 110
f 110 114 115
f 112 116 113
f 113 116 117
f 114 118 115
f 115 118 119
f 115 119 120
f 115 120 121
f 115 121 122
f 115 122 123
f 116 124 125
f 116 125 126
f 116 126 117
f 116 123 124
f 122 127 123
f 123 127 124

o geometry_1
v -0.11784828 -0.15972177 0.01888361
v -0.11784828 -0.15966753 0.05245150
v -0.12035757 -0.15861869 0.04911724
v -0.12036644 -0.15861869 0.04154757
v -0.12038417 -0.15861869 -0.01125990
v -0.11784828 -0.15970369 -0.00788058
v -0.11784828 -0.15961326 0.06750073
v -0.12413481 -0.15590617 0.01888361
v -0.12415699 -0.15592425 -0.01125990
v -0.12029993 -0.15852826 0.07930580
v -0.12371808 -0.15574342 0.19253547
v -0.12387768 -0.15577958 0.15477723
v -0.12400182 -0.15583382 0.10949438
v -0.12406832 -0.15587000 0.07930580
v -0.12411709 -0.15597849 -0.04144847
v -0.12412152 -0.15597849 -0.04897309
v -0.12412152 -0.15597849 -0.06406737
v -0.12400182 -0.15603275 -0.18486671
v -0.12024674 -0.15841977 -0.17734208
v -0.11784828 -0.15968561 -0.01545025
v -0.11784828 -0.15959518 0.07173614
v -0.12009157 -0.15827510 0.16234691
v -0.12025117 -0.15845594 0.10192471
v -0.12875885 -0.15228948 -0.20753066
v -0.11994970 -0.15814851 0.19253547
v -0.12368705 -0.15570725 0.20006009
v -0.12815590 -0.15198206 0.19253547
v -0.12385995 -0.15576150 0.16234691
v -0.12818250 -0.15198206 0.18496580
v -0.12872780 -0.15227140 -0.21505527
v -0.12388211 -0.15601467 -0.19243637
v -0.12023343 -0.15838359 -0.18486671
v -0.11784828 -0.15917927 -0.18162255
v -0.11784828 -0.15921545 -0.17405289
v -0.11784828 -0.15912502 0.16234691
v -0.11784828 -0.15910694 0.16545587
v -0.13253165 -0.14662936 -0.20753066
v -0.13249619 -0.14664744 -0.21505527
v -0.11991423 -0.15811234 0.20006009
v -0.12357622 -0.15568916 0.20762976
v -0.12806281 -0.15192781 0.20762976
v -0.13176024 -0.14597835 0.19253547
v -0.13180014 -0.14597835 0.18496580
v -0.12808053 -0.15158422 -0.22262495
v -0.12280924 -0.15603275 -0.21505527
v -0.12346980 -0.15605084 -0.20753066
v -0.11784828 -0.15916118 -0.18486671
v -0.12011374 -0.15825701 -0.19243637
v -0.11784828 -0.15890801 0.19555433
v -0.13375084 -0.14283183 -0.19243637
v -0.13375971 -0.14288610 -0.21505527
v -0.13345380 -0.14185534 0.13968294
v -0.13346267 -0.14187342 0.13215833
v -0.13369764 -0.14266908 -0.22055230
v -0.13211935 -0.14549011 -0.22289529
v -0.11784828 -0.15887185 0.20006009
v -0.11980783 -0.15800386 0.20762976
v -0.12314175 -0.15556258 0.21515436
v -0.12796970 -0.15180123 0.21515436
v -0.13143661 -0.14597835 0.21515436
v -0.13159178 -0.14597835 0.20762976
v -0.13168931 -0.14597835 0.20006009
v -0.13336069 -0.14147557 0.20006009
v -0.13338731 -0.14158408 0.19253547
v -0.13340060 -0.14163833 0.18496580
v -0.13340947 -0.14167451 0.17744118
v -0.13342721 -0.14174683 0.16234691
v -0.13343164 -0.14196383 -0.22559874
v -0.12698105 -0.15053538 -0.22708565
v -0.12149252 -0.15509241 -0.22185896
v -0.11848224 -0.15728051 -0.21884011
v -0.11904085 -0.15751559 -0.21505527
v -0.11969700 -0.15785919 -0.20753066
v -0.11990980 -0.15805810 -0.19996099
v -0.11784828 -0.15898035 -0.19243637
v -0.13505426 -0.13843755 -0.21505527
v -0.14338460 -0.10829246 0.03402295
v -0.14331366 -0.10829246 0.07173614
v -0.14337129 -0.10829246 0.04154757
v -0.15691086 -0.06192652 -0.21505527
v -0.14342893 -0.10829246 -0.22262495
v -0.14172207 -0.11427808 -0.22262495
v -0.13455772 -0.13903431 -0.22289529
v -0.11784828 -0.15870909 0.20762976
v -0.11937336 -0.15773260 0.21515436
v -0.11883691 -0.15744326 0.21934472
v -0.12741552 -0.15113213 0.22272404
v -0.13062087 -0.14597835 0.22272404
v -0.13298830 -0.14062566 0.22272404
v -0.13324986 -0.14109583 0.21515436
v -0.13331194 -0.14129474 0.20762976
v -0.16125115 -0.04051572 0.20006009
v -0.16133096 -0.04051572 0.19253547
v -0.15619266 -0.05944909 0.18370418
v -0.14953814 -0.08516374 0.13215833
v -0.14956031 -0.08525415 0.12458867
v -0.14850073 -0.08903359 0.12458867
v -0.14520228 -0.10076975 0.12458867
v -0.14329149 -0.10829246 0.07930580
v -0.14852733 -0.08926868 -0.22532840
v -0.14140730 -0.11324733 -0.22681530
v -0.13419862 -0.13693663 -0.22713071
v -0.12853274 -0.14597835 -0.22789669
v -0.12224619 -0.14597835 -0.22956380
v -0.12224619 -0.15142147 -0.22776152
v -0.11784828 -0.15545409 -0.22244472
v -0.11784828 -0.15395316 -0.22496794
v -0.11784828 -0.15729859 -0.21888517
v -0.11784828 -0.15742518 -0.21820930
v -0.11784828 -0.15794959 -0.21298262
v -0.11784828 -0.15852826 -0.20473709
v -0.11784828 -0.15881760 -0.19698719
v -0.15585128 -0.06577829 -0.19996099
v -0.15584685 -0.06576021 -0.20753066
v -0.14540178 -0.10076975 0.07930580
v -0.15691086 -0.06199885 -0.19996099
v -0.16313534 -0.03972005 -0.21505527
v -0.16313534 -0.03962963 -0.21694770
v -0.15676456 -0.06149251 -0.22262495
v -0.15691530 -0.06199885 -0.20753066
v -0.11784828 -0.15814851 0.21515436
v -0.11784828 -0.15753368 0.21952495
v -0.11784828 -0.15702733 0.22042611
v -0.12224619 -0.15122256 0.22772544
v -0.12663082 -0.15030031 0.22704957
v -0.13387940 -0.13586970 0.22691440
v -0.13414541 -0.13684622 0.22272404
v -0.16289594 -0.03382485 0.21515436
v -0.16300234 -0.03409610 0.20006009
v -0.16313534 -0.03295684 0.21515436
v -0.16304224 -0.03422268 0.19253547
v -0.14537075 -0.10076975 0.08683042
v -0.15147553 -0.07816545 0.12458867
v -0.16313534 -0.03897863 -0.15044272
v -0.16313534 -0.03903288 -0.15467813
v -0.16313534 -0.03968388 -0.21009894
v -0.15647196 -0.06049793 -0.22677024
v -0.15718131 -0.05557923 -0.22749117
v -0.14212107 -0.10829246 -0.22749117
v -0.13506313 -0.13089677 -0.22785163
v -0.13046570 -0.13903431 -0.22843738
v -0.12978296 -0.13089677 -0.22987921
v -0.12978296 -0.12337405 -0.23019461
v -0.11784828 -0.14597835 -0.22951874
v -0.11784828 -0.14948654 -0.22875276
v -0.11784828 -0.15176506 -0.22798680
v -0.16313534 -0.03887013 -0.22185896
v -0.15842709 -0.05557923 -0.22262495
v -0.16313534 -0.03825529 -0.22411184
v -0.11784828 -0.15525516 0.22308451
v -0.11784828 -0.15163847 0.22799579
v -0.12224619 -0.14597835 0.22948267
v -0.12796526 -0.14597835 0.22786061
v -0.13021743 -0.13840139 0.22831119
v -0.13443358 -0.13089677 0.22754521
v -0.15724337 -0.04803843 0.22763532
v -0.15651630 -0.05301138 0.22691440
v -0.16313534 -0.03149208 0.22434611
v -0.16313534 -0.03179950 0.22290427
v -0.16313534 -0.03326426 0.20762976
v -0.16313534 -0.03357168 0.20006009
v -0.16313534 -0.03386101 0.19253547
v -0.16305998 -0.03427693 0.18496580
v -0.16313534 -0.03688095 -0.22568885
v -0.16313534 -0.03214309 -0.22753623
v -0.15017212 -0.07816545 -0.22789669
v -0.15815221 -0.04803843 -0.22821209
v -0.14312303 -0.10076975 -0.22816704
v -0.13608724 -0.12337405 -0.22834727
v -0.14485647 -0.07816545 -0.22987921
v -0.13731972 -0.10076975 -0.23010450
v -0.15993443 -0.01791142 -0.23010450
v -0.11784828 -0.14283183 -0.22947369
v -0.11784828 -0.14597835 0.22957278
v -0.12978296 -0.12337405 0.23002336
v -0.12978296 -0.13089677 0.22948267
v -0.13527149 -0.12337405 0.22817602
v -0.15826305 -0.04051572 0.22826613
v -0.16313534 -0.02481929 0.22763532
v -0.16313534 -0.02863490 0.22682428
v -0.16313534 -0.02906890 -0.22812198
v -0.16313534 -0.02543413 -0.22866265
v -0.16313534 -0.02156427 -0.22906817
v -0.15993443 -0.02543413 -0.22983415
v -0.15239324 -0.04803843 -0.23005944
v -0.15993443 -0.01037062 -0.22956380
v -0.16313534 -0.01485532 -0.22938357
v -0.16313534 -0.00716985 -0.22956380
v -0.16313534 0.00709798 -0.22879782
v -0.16313534 0.01371652 -0.22821209
v -0.16207134 0.01223368 -0.22798680
v -0.16313534 0.01977447 -0.22726588
v -0.16300234 0.01977447 -0.22717576
v -0.11784828 -0.13588780 -0.22785163
v -0.15993443 -0.01037062 0.22984313
v -0.13731972 -0.09322896 0.23011348
v -0.11784828 -0.13858222 0.22849142
v -0.16165459 0.01223368 0.22826613
v -0.15993443 -0.01791142 0.22979807
v -0.16313534 -0.01791142 0.22867163
v -0.16313534 0.01223368 -0.22834727
v -0.16313534 0.01999148 -0.22722082
v -0.16313534 0.02076907 -0.22704059
v -0.11784828 -0.13464003 -0.22677024
v -0.16313534 0.01223368 0.22871668
v -0.16313534 0.00469288 0.22885186
v -0.16313534 -0.01037062 0.22907715
v -0.11784828 -0.13416987 0.22691440
v -0.16313534 0.02337308 0.22713969
v -0.16263880 0.01977447 0.22763532
v -0.16313534 0.01977447 0.22786061
v -0.16313534 0.02266783 -0.22532840
v -0.11784828 -0.13431454 -0.22627461
v -0.13319223 -0.08071521 0.22695945
v -0.11784828 -0.13205410 0.22272404
v -0.16313534 0.02501867 0.22272404
v -0.11784828 -0.13294020 -0.22262495
v -0.16313534 0.02326458 -0.22262495
v -0.11784828 -0.13102334 0.21790288
v -0.11784828 -0.13071593 0.21515436
v -0.11784828 -0.13053510 0.21082884
v -0.11784828 -0.13044468 0.20343940
v -0.11784828 -0.13013726 0.13215833
v -0.11784828 -0.13013726 0.09440009
v -0.11784828 -0.13104142 -0.18991315
v -0.11784828 -0.13149351 -0.21505527
v -0.11784828 -0.13105952 -0.19243637
v -0.11784828 -0.13113185 -0.19996099
v -0.11784828 -0.13125844 -0.20753066
f 128 129 130
f 128 130 131
f 128 131 132
f 128 132 133
f 128 133 147
f 128 147 161
f 128 161 160
f 128 160 174
f 128 174 202
f 128 202 239
f 128 239 238
f 128 238 237
f 128 237 236
f 128 236 235
f 128 235 233
f 128 233 234
f 128 234 273
f 128 273 272
f 128 272 271
f 128 271 300
f 128 300 321
f 128 321 331
f 128 331 340
f 128 340 344
f 128 344 353
f 128 353 356
f 128 356 355
f 128 355 354
f 128 354 352
f 128 352 351
f 128 351 350
f 128 350 349
f 128 349 348
f 128 348 347
f 128 347 346
f 128 346 342
f 128 342 335
f 128 335 324
f 128 324 301
f 128 301 278
f 128 278 277
f 128 277 250
f 128 250 249
f 128 249 248
f 128 248 211
f 128 211 183
f 128 183 176
f 128 176 163
f 128 163 162
f 128 162 148
f 128 148 134
f 128 134 129
f 129 134 130
f 130 135 136
f 130 136 131
f 130 134 137
f 130 137 138
f 130 138 139
f 130 139 140
f 130 140 141
f 130 141 135
f 131 136 142
f 131 142 143
f 131 143 132
f 132 143 144
f 132 144 145
f 132 145 146
f 132 146 133
f 133 146 147
f 134 148 149
f 134 149 150
f 134 150 137
f 135 141 151
f 135 151 136
f 136 151 142
f 137 150 138
f 138 149 152
f 138 152 153
f 138 153 154
f 138 154 155
f 138 155 139
f 138 150 149
f 139 155 154
f 139 154 140
f 140 154 141
f 141 154 156
f 141 156 151
f 142 151 143
f 143 151 144
f 144 151 145
f 145 151 157
f 145 157 158
f 145 158 159
f 145 159 146
f 146 159 160
f 146 160 161
f 146 161 147
f 148 162 149
f 149 162 163
f 149 163 152
f 151 164 165
f 151 165 157
f 151 156 164
f 152 166 153
f 152 163 166
f 153 166 167
f 153 167 168
f 153 168 154
f 154 168 169
f 154 169 170
f 154 170 156
f 156 170 164
f 157 165 171
f 157 171 172
f 157 172 173
f 157 173 158
f 158 173 159
f 159 174 160
f 159 173 175
f 159 175 174
f 163 176 166
f 164 177 178
f 164 178 165
f 164 170 179
f 164 179 180
f 164 180 177
f 165 178 181
f 165 181 182
f 165 182 171
f 166 176 183
f 166 183 184
f 166 184 167
f 167 184 185
f 167 185 186
f 167 186 168
f 168 186 187
f 168 187 188
f 168 188 189
f 168 189 169
f 169 189 190
f 169 190 191
f 169 191 170
f 170 191 192
f 170 192 193
f 170 193 194
f 170 194 179
f 171 182 195
f 171 195 196
f 171 196 197
f 171 197 172
f 172 197 198
f 172 198 199
f 172 199 200
f 172 200 173
f 173 200 201
f 173 201 175
f 174 175 202
f 175 201 202
f 177 203 178
f 177 180 204
f 177 204 203
f 178 203 181
f 179 194 205
f 179 205 206
f 179 206 180
f 180 206 204
f 181 203 207
f 181 207 208
f 181 208 209
f 181 209 210
f 181 210 195
f 181 195 182
f 183 211 184
f 184 211 212
f 184 212 185
f 185 212 213
f 185 213 214
f 185 214 186
f 186 214 215
f 186 215 187
f 187 215 216
f 187 216 217
f 187 217 188
f 188 217 218
f 188 218 190
f 188 190 189
f 190 218 219
f 190 219 220
f 190 220 221
f 190 221 222
f 190 222 191
f 191 222 223
f 191 223 224
f 191 224 225
f 191 225 226
f 191 226 192
f 192 226 205
f 192 205 193
f 193 205 194
f 195 210 209
f 195 209 227
f 195 227 228
f 195 228 229
f 195 229 230
f 195 230 196
f 196 230 231
f 196 231 232
f 196 232 197
f 197 233 198
f 197 232 234
f 197 234 233
f 198 235 236
f 198 236 237
f 198 237 199
f 198 233 235
f 199 237 238
f 199 238 200
f 200 238 239
f 200 239 202
f 200 202 201
f 203 240 241
f 203 241 207
f 203 204 240
f 204 206 240
f 205 226 242
f 205 242 243
f 205 243 240
f 205 240 206
f 207 244 245
f 207 245 246
f 207 246 208
f 207 241 247
f 207 247 244
f 208 246 227
f 208 227 209
f 211 248 212
f 212 248 213
f 213 248 249
f 213 249 250
f 213 250 251
f 213 251 252
f 213 252 214
f 214 252 215
f 215 252 253
f 215 253 216
f 216 253 254
f 216 254 217
f 217 254 255
f 217 255 218
f 218 255 219
f 219 256 220
f 219 255 257
f 219 257 256
f 220 256 258
f 220 258 223
f 220 223 222
f 220 222 221
f 223 242 259
f 223 259 224
f 223 258 260
f 223 260 261
f 223 261 262
f 223 262 263
f 223 263 242
f 224 259 226
f 224 226 225
f 226 259 242
f 227 264 228
f 227 246 264
f 228 264 265
f 228 265 266
f 228 266 229
f 229 266 267
f 229 267 268
f 229 268 230
f 230 268 269
f 230 269 231
f 231 269 270
f 231 270 271
f 231 271 272
f 231 272 232
f 232 273 234
f 232 272 273
f 240 243 247
f 240 247 241
f 242 263 243
f 243 263 244
f 243 244 247
f 244 263 262
f 244 262 261
f 244 261 289
f 244 289 288
f 244 288 287
f 244 287 257
f 244 257 286
f 244 286 285
f 244 285 307
f 244 307 306
f 244 306 327
f 244 327 334
f 244 334 333
f 244 333 332
f 244 332 338
f 244 338 336
f 244 336 343
f 244 343 345
f 244 345 339
f 244 339 330
f 244 330 329
f 244 329 319
f 244 319 317
f 244 317 328
f 244 328 316
f 244 316 315
f 244 315 314
f 244 314 310
f 244 310 309
f 244 309 308
f 244 308 292
f 244 292 291
f 244 291 276
f 244 276 274
f 244 274 245
f 245 274 275
f 245 275 246
f 246 275 276
f 246 276 264
f 250 277 251
f 251 277 278
f 251 278 279
f 251 279 252
f 252 279 280
f 252 280 253
f 253 280 281
f 253 281 282
f 253 282 283
f 253 283 284
f 253 284 285
f 253 285 254
f 254 285 286
f 254 286 255
f 255 286 257
f 256 287 288
f 256 288 289
f 256 289 258
f 256 257 287
f 258 289 290
f 258 290 260
f 260 290 261
f 261 290 289
f 264 276 291
f 264 291 292
f 264 292 265
f 265 293 266
f 265 292 294
f 265 294 293
f 266 293 267
f 267 293 295
f 267 295 296
f 267 296 269
f 267 269 268
f 269 297 298
f 269 298 270
f 269 296 295
f 269 295 294
f 269 294 297
f 270 298 299
f 270 299 300
f 270 300 271
f 274 276 275
f 278 301 279
f 279 301 302
f 279 302 303
f 279 303 281
f 279 281 280
f 281 303 282
f 282 303 304
f 282 304 305
f 282 305 283
f 283 306 307
f 283 307 284
f 283 305 306
f 284 307 285
f 292 308 294
f 293 294 295
f 294 309 310
f 294 310 311
f 294 311 297
f 294 308 309
f 297 311 298
f 298 311 312
f 298 312 299
f 299 313 300
f 299 312 311
f 299 311 314
f 299 314 315
f 299 315 316
f 299 316 313
f 300 313 317
f 300 317 318
f 300 318 319
f 300 319 320
f 300 320 321
f 301 322 323
f 301 323 302
f 301 324 325
f 301 325 322
f 302 323 326
f 302 326 303
f 303 326 305
f 303 305 304
f 305 326 327
f 305 327 306
f 310 314 311
f 313 316 328
f 313 328 317
f 317 319 318
f 319 329 320
f 320 329 330
f 320 330 321
f 321 330 331
f 322 332 333
f 322 333 334
f 322 334 326
f 322 326 323
f 322 325 332
f 324 335 336
f 324 336 337
f 324 337 325
f 325 337 338
f 325 338 332
f 326 334 327
f 330 339 331
f 331 339 340
f 335 341 336
f 335 342 341
f 336 338 337
f 336 341 342
f 336 342 343
f 339 344 340
f 339 345 344
f 342 346 343
f 343 346 347
f 343 347 348
f 343 348 349
f 343 349 350
f 343 350 351
f 343 351 352
f 343 352 345
f 344 345 353
f 345 352 354
f 345 354 355
f 345 355 356
f 345 356 353

o geometry_2
v -0.16313977 -0.03971927 -0.21504879
v -0.16385718 -0.03723826 -0.21504879
v -0.16382053 -0.03709933 -0.22036327
v -0.16313977 -0.03962003 -0.21698543
v -0.16313977 -0.03904444 -0.15789558
v -0.17083236 -0.01260678 -0.19243972
v -0.17194252 -0.00895473 -0.21504879
v -0.16375245 -0.03688100 -0.15469789
v -0.16924566 -0.01788637 -0.16978561
v -0.16313977 -0.03884595 -0.22184953
v -0.17187444 -0.00867686 -0.22261517
v -0.16358488 -0.03646418 -0.22540752
v -0.16313977 -0.03823067 -0.22410142
v -0.16313977 -0.03900474 -0.15469789
v -0.17081664 -0.01254723 -0.18487333
v -0.17781800 0.01198500 -0.21504879
v -0.17886008 0.01575614 -0.22036327
v -0.16313977 -0.03890550 -0.14713151
v -0.16313977 -0.03884595 -0.14303305
v -0.16313977 -0.03396332 0.18497859
v -0.16313977 -0.03384423 0.19254497
v -0.17869775 0.01623249 -0.22540752
v -0.17160737 -0.00776384 -0.22684872
v -0.16435990 -0.03144261 -0.22711896
v -0.16313977 -0.03686114 -0.22572279
v -0.17886008 0.01573629 -0.21504879
v -0.17892293 0.02306023 0.20763270
v -0.21372545 0.14784517 0.18497859
v -0.21468375 0.14784517 -0.21504879
v -0.16313977 -0.03356636 0.20006631
v -0.17889674 0.02315948 0.21515404
v -0.20886587 0.12916811 -0.22567774
v -0.17933661 0.02125406 -0.22707393
v -0.21221207 0.14032275 -0.22261517
v -0.17228814 -0.00282167 -0.22752429
v -0.16518206 -0.02542864 -0.22788459
v -0.16313977 -0.03213730 -0.22756932
v -0.21467328 0.14784517 -0.20752745
v -0.21567871 0.15495078 0.18497859
v -0.21359977 0.14784517 0.20763270
v -0.21364690 0.14784517 0.20006631
v -0.21368880 0.14784517 0.19254497
v -0.21605575 0.15443474 -0.21504879
v -0.21412343 0.14784517 -0.22261517
v -0.21656894 0.15872192 0.18497859
v -0.21657417 0.15870207 0.17741221
v -0.21605575 0.15439503 -0.20752745
v -0.16313977 -0.03324879 0.20763270
v -0.16313977 -0.03293122 0.21515404
v -0.17883914 0.02335796 0.21956777
v -0.21353170 0.14784517 0.21515404
v -0.20958853 0.13418969 -0.22711896
v -0.21040020 0.14032275 -0.22779453
v -0.18005927 0.02732757 -0.22774950
v -0.17320455 0.00472060 -0.22815483
v -0.16747569 -0.00282167 -0.22950598
v -0.16313977 -0.02542864 -0.22865028
v -0.16313977 -0.02906085 -0.22810980
v -0.21563158 0.15514927 0.20006631
v -0.21652704 0.15892040 0.20006631
v -0.21654799 0.15882116 0.19254497
v -0.21560540 0.15526835 0.20763270
v -0.21661083 0.15820586 -0.21504879
v -0.21656369 0.15854330 -0.21923732
v -0.21663701 0.15818603 -0.19243972
v -0.21662654 0.15816617 -0.19996106
v -0.21661606 0.15816617 -0.20752745
v -0.21531738 0.15576455 -0.22211975
v -0.21125378 0.14784517 -0.22815483
v -0.21656894 0.15935707 0.18497859
v -0.21657417 0.15935707 0.17741221
v -0.16313977 -0.03178004 0.22290058
v -0.16385195 -0.02969599 0.22141431
v -0.16370010 -0.02916009 0.22641354
v -0.21102336 0.14032275 0.22272043
v -0.21572061 0.15612182 0.21465862
v -0.21306564 0.14784517 0.22272043
v -0.20516360 0.14032275 -0.22968615
v -0.17501641 0.02732757 -0.22973118
v -0.16747569 0.00472060 -0.23004645
v -0.16313977 -0.02153842 -0.22905561
v -0.21650086 0.15901964 0.20763270
v -0.21652704 0.15925783 0.20006631
v -0.21654799 0.15931737 0.19254497
v -0.21647991 0.15911889 0.21182123
v -0.21661083 0.15939676 -0.21504879
v -0.21656369 0.15931737 -0.21923732
v -0.21663701 0.15943645 -0.19243972
v -0.21147371 0.15538745 -0.22797471
v -0.20516360 0.14784517 -0.22982125
v -0.21270432 0.16233427 0.20763270
v -0.16313977 -0.03146247 0.22438682
v -0.16313977 -0.02860434 0.22681888
v -0.16434420 -0.02413852 0.22722421
v -0.17151312 -0.00008263 0.22686391
v -0.20920625 0.13559891 0.22686391
v -0.21434861 0.15538745 0.22272043
v -0.20987130 0.14032275 0.22749445
v -0.17501641 0.03485000 -0.23009148
v -0.16747569 0.01226288 -0.22991131
v -0.16313977 -0.00714856 -0.22955101
v -0.16313977 -0.01482977 -0.22937088
v -0.21650086 0.15921813 0.20763270
v -0.21647991 0.15917842 0.21182123
v -0.21270432 0.16245337 -0.21504879
v -0.21662654 0.15943645 -0.19996106
v -0.21290330 0.16114339 -0.22211975
v -0.21052588 0.16027008 -0.22725405
v -0.21270432 0.16247321 -0.20752745
v -0.20516360 0.15538745 -0.22878537
v -0.19762811 0.12525804 -0.22977621
v -0.19008739 0.09510880 -0.22995634
v -0.19937190 0.14784517 -0.22801974
v -0.19762811 0.13278047 -0.22910064
v -0.21342697 0.16163960 0.21465862
v -0.21180361 0.16144112 0.22272043
v -0.20516360 0.16294956 0.21515404
v -0.16313977 -0.02481336 0.22762955
v -0.17216247 0.00472060 0.22753948
v -0.16516634 -0.01788637 0.22794482
v -0.21079295 0.14784517 0.22807996
v -0.21108096 0.15538745 0.22794482
v -0.21029548 0.16015098 0.22722421
v -0.18007499 0.03485000 0.22785475
v -0.17501641 0.04239227 -0.22973118
v -0.16313977 0.01226288 -0.22838004
v -0.16313977 0.00712222 -0.22883040
v -0.20516360 0.16304880 -0.21504879
v -0.20516360 0.16205641 -0.22261517
v -0.20516360 0.16011129 -0.22711896
v -0.20128850 0.15929752 -0.22653345
v -0.20055537 0.15538745 -0.22720902
v -0.19008739 0.10265107 -0.22932585
v -0.19313509 0.13278047 -0.22720902
v -0.19223963 0.12525804 -0.22792963
v -0.20662461 0.16015098 0.22722421
v -0.20453520 0.16128233 0.22321583
v -0.20106856 0.15965479 0.22105401
v -0.20094812 0.15985327 0.21515404
v -0.20086957 0.15997235 -0.21504879
v -0.16313977 -0.01788637 0.22866542
v -0.16616129 -0.01034410 0.22839523
v -0.17311028 0.01226288 0.22821505
v -0.20516360 0.14032275 0.22938602
v -0.20516360 0.14784517 0.22970129
v -0.20453520 0.15604243 0.22821505
v -0.16313977 0.01373163 -0.22819986
v -0.20103715 0.15969448 -0.22261517
v -0.19370064 0.13704780 -0.22657848
v -0.19943474 0.15538745 -0.22261517
v -0.16357965 0.02401294 -0.22657848
v -0.16313977 0.02077770 -0.22702890
v -0.16313977 0.02002348 -0.22720902
v -0.16313977 0.01978530 -0.22725405
v -0.16993689 0.04239227 -0.22774950
v -0.20160270 0.15897995 0.22609827
v -0.19998982 0.15604243 0.22321583
v -0.19369017 0.13708751 0.22672882
v -0.19360116 0.13738524 0.22272043
v -0.19944522 0.15538745 0.21515404
v -0.19927764 0.15538745 -0.21504879
v -0.16313977 -0.01034410 0.22907080
v -0.16747569 0.01226288 0.23001656
v -0.16747569 0.00472060 0.22947613
v -0.17501641 0.03485000 0.22979140
v -0.19762811 0.11771578 0.22979140
v -0.19762811 0.12525804 0.22992650
v -0.19762811 0.13278047 0.22925093
v -0.19941379 0.14784517 0.22812499
v -0.20045588 0.15395839 0.22740439
v -0.17129842 0.05356675 -0.22549759
v -0.19360116 0.13736538 -0.22261517
v -0.19232341 0.13278047 -0.22261517
v -0.16313977 0.02268312 -0.22531744
v -0.17878153 0.08383509 0.22650360
v -0.19309844 0.13278047 0.22731428
v -0.17877630 0.08383509 0.22272043
v -0.16313977 0.00472060 0.22884559
v -0.18255190 0.07250183 0.22983644
v -0.19008739 0.09510880 0.22992650
v -0.16313977 0.01226288 0.22871045
v -0.16747569 0.01978530 0.22961123
v -0.19219250 0.12525804 0.22807996
v -0.16313977 0.02327856 -0.22261517
v -0.17119369 0.05390416 -0.22049839
v -0.19029685 0.12525804 -0.21504879
v -0.17832595 0.08004410 0.22704409
v -0.16313977 0.02339765 0.22717918
v -0.16334400 0.02484656 0.22695397
v -0.16313977 0.02502519 0.22272043
v -0.17743573 0.07250183 0.22789978
v -0.16313977 0.01978530 0.22785475
v -0.17650362 0.06497940 0.22835015
v -0.18434282 0.09510880 0.22821505
f 357 358 359
f 357 359 360
f 357 360 366
f 357 366 369
f 357 369 381
f 357 381 393
f 357 393 414
f 357 414 413
f 357 413 437
f 357 437 458
f 357 458 457
f 357 457 483
f 357 483 482
f 357 482 503
f 357 503 510
f 357 510 509
f 357 509 508
f 357 508 530
f 357 530 540
f 357 540 546
f 357 546 544
f 357 544 548
f 357 548 537
f 357 537 534
f 357 534 518
f 357 518 497
f 357 497 474
f 357 474 449
f 357 449 448
f 357 448 428
f 357 428 405
f 357 405 404
f 357 404 386
f 357 386 377
f 357 377 376
f 357 376 375
f 357 375 374
f 357 374 370
f 357 370 361
f 357 361 358
f 358 362 363
f 358 363 359
f 358 361 364
f 358 364 365
f 358 365 362
f 359 366 360
f 359 363 367
f 359 367 368
f 359 368 369
f 359 369 366
f 361 370 364
f 362 371 372
f 362 372 363
f 362 365 371
f 363 372 373
f 363 373 367
f 364 370 374
f 364 374 375
f 364 375 376
f 364 376 365
f 365 376 377
f 365 377 371
f 367 378 368
f 367 373 378
f 368 378 379
f 368 379 380
f 368 380 381
f 368 381 369
f 371 377 372
f 372 382 373
f 372 377 383
f 372 383 384
f 372 384 382
f 373 382 385
f 373 385 378
f 377 386 387
f 377 387 383
f 378 388 389
f 378 389 379
f 378 385 390
f 378 390 388
f 379 389 391
f 379 391 380
f 380 391 392
f 380 392 393
f 380 393 381
f 382 394 385
f 382 384 395
f 382 395 394
f 383 387 396
f 383 396 397
f 383 397 398
f 383 398 384
f 384 398 395
f 385 399 400
f 385 400 390
f 385 394 401
f 385 401 402
f 385 402 403
f 385 403 399
f 386 404 387
f 387 405 406
f 387 406 407
f 387 407 396
f 387 404 405
f 388 408 389
f 388 390 400
f 388 400 408
f 389 408 409
f 389 409 391
f 391 409 410
f 391 410 411
f 391 411 392
f 392 411 412
f 392 412 413
f 392 413 414
f 392 414 393
f 394 395 401
f 395 398 397
f 395 397 396
f 395 396 415
f 395 415 416
f 395 416 417
f 395 417 401
f 396 407 418
f 396 418 415
f 399 419 420
f 399 420 400
f 399 403 421
f 399 421 422
f 399 422 423
f 399 423 419
f 400 420 424
f 400 424 425
f 400 425 409
f 400 409 408
f 401 426 427
f 401 427 402
f 401 417 440
f 401 440 426
f 402 427 444
f 402 444 421
f 402 421 403
f 405 428 429
f 405 429 406
f 406 429 430
f 406 430 431
f 406 431 407
f 407 432 418
f 407 431 433
f 407 433 432
f 409 425 434
f 409 434 435
f 409 435 411
f 409 411 410
f 411 435 412
f 412 435 436
f 412 436 437
f 412 437 413
f 415 418 438
f 415 438 416
f 416 439 440
f 416 440 417
f 416 438 459
f 416 459 439
f 418 432 441
f 418 441 438
f 419 442 443
f 419 443 420
f 419 423 422
f 419 422 421
f 419 421 444
f 419 444 442
f 420 443 424
f 424 443 445
f 424 445 425
f 425 445 446
f 425 446 434
f 426 440 447
f 426 447 427
f 427 447 444
f 428 448 430
f 428 430 429
f 430 448 449
f 430 449 450
f 430 450 451
f 430 451 452
f 430 452 431
f 431 452 433
f 432 433 453
f 432 453 441
f 433 452 454
f 433 454 453
f 434 446 455
f 434 455 436
f 434 436 435
f 436 455 456
f 436 456 457
f 436 457 458
f 436 458 437
f 438 441 460
f 438 460 459
f 439 459 440
f 440 459 447
f 441 453 460
f 442 461 443
f 442 444 462
f 442 462 461
f 443 463 464
f 443 464 445
f 443 461 463
f 444 465 462
f 444 447 465
f 445 464 466
f 445 466 446
f 446 467 468
f 446 468 455
f 446 466 469
f 446 469 470
f 446 470 467
f 447 459 460
f 447 460 471
f 447 471 472
f 447 472 473
f 447 473 465
f 449 474 450
f 450 475 451
f 450 474 476
f 450 476 475
f 451 475 452
f 452 475 454
f 453 472 460
f 453 454 477
f 453 477 478
f 453 478 479
f 453 479 472
f 454 475 480
f 454 480 477
f 455 468 456
f 456 468 467
f 456 467 481
f 456 481 482
f 456 482 483
f 456 483 457
f 460 472 471
f 461 484 485
f 461 485 463
f 461 462 465
f 461 465 484
f 463 485 464
f 464 486 466
f 464 485 486
f 465 473 484
f 466 486 487
f 466 487 488
f 466 488 469
f 467 470 489
f 467 489 481
f 469 488 490
f 469 490 491
f 469 491 470
f 470 491 489
f 472 479 492
f 472 492 493
f 472 493 473
f 473 493 494
f 473 494 495
f 473 495 496
f 473 496 484
f 474 497 476
f 475 476 480
f 476 498 499
f 476 499 480
f 476 497 498
f 477 480 499
f 477 499 500
f 477 500 501
f 477 501 478
f 478 501 479
f 479 501 502
f 479 502 492
f 481 489 491
f 481 491 482
f 482 491 503
f 484 496 504
f 484 504 485
f 485 504 487
f 485 487 486
f 487 505 488
f 487 504 506
f 487 506 505
f 488 505 490
f 490 505 507
f 490 507 508
f 490 508 509
f 490 509 510
f 490 510 491
f 491 510 511
f 491 511 503
f 492 512 493
f 492 502 512
f 493 512 494
f 494 512 513
f 494 513 514
f 494 514 515
f 494 515 495
f 495 515 516
f 495 516 517
f 495 517 496
f 496 517 506
f 496 506 504
f 497 518 519
f 497 519 520
f 497 520 498
f 498 520 499
f 499 520 521
f 499 521 500
f 500 521 522
f 500 522 501
f 501 522 523
f 501 523 524
f 501 524 525
f 501 525 502
f 502 525 526
f 502 526 512
f 503 511 510
f 505 527 507
f 505 506 528
f 505 528 529
f 505 529 527
f 506 517 528
f 507 527 530
f 507 530 508
f 512 526 514
f 512 514 513
f 514 531 515
f 514 526 525
f 514 525 532
f 514 532 531
f 515 531 533
f 515 533 529
f 515 529 528
f 515 528 517
f 515 517 516
f 518 534 519
f 519 535 523
f 519 523 536
f 519 536 522
f 519 522 521
f 519 521 520
f 519 534 537
f 519 537 538
f 519 538 535
f 522 536 523
f 523 535 524
f 524 535 539
f 524 539 525
f 525 539 532
f 527 540 530
f 527 529 541
f 527 541 540
f 529 542 541
f 529 533 542
f 531 532 543
f 531 543 544
f 531 544 545
f 531 545 546
f 531 546 533
f 532 539 547
f 532 547 543
f 533 546 541
f 533 541 542
f 535 538 539
f 537 548 547
f 537 547 549
f 537 549 538
f 538 549 550
f 538 550 539
f 539 550 547
f 540 541 546
f 543 547 544
f 544 547 548
f 544 546 545
f 547 550 549

o geometry_3
v 0.22059848 -0.14598180 0.17743725
v 0.21687109 -0.15286072 0.17743725
v 0.21687109 -0.15287981 0.13967326
v 0.21683841 -0.15289346 0.12459467
v 0.21670762 -0.15271063 0.07175209
v 0.22053307 -0.14598180 0.16231365
v 0.21693649 -0.14055179 0.16987544
v 0.21693649 -0.14054088 0.17743725
v 0.21693649 -0.14053269 0.18499905
v 0.22056578 -0.14598180 0.18499905
v 0.21193397 -0.15662898 0.17743725
v 0.21209743 -0.15665899 0.12459467
v 0.21683841 -0.15284707 0.18499905
v 0.21196665 -0.15661261 0.09439248
v 0.21670762 -0.15275976 0.07931389
v 0.21193397 -0.15657986 0.08683068
v 0.21667492 -0.15267516 0.06419028
v 0.22043499 -0.14598180 0.13967326
v 0.20944906 -0.13874815 0.19251584
v 0.21624986 -0.14075644 0.01134770
v 0.20944906 -0.13914927 -0.04901167
v 0.20944906 -0.13913562 -0.04144987
v 0.21683841 -0.14052451 0.19251584
v 0.22033691 -0.14598180 0.19251584
v 0.21674030 -0.15284162 0.19251584
v 0.21190127 -0.15661533 0.18499905
v 0.20833737 -0.15862906 0.12459467
v 0.21206476 -0.15666172 0.13215647
v 0.20830469 -0.15863180 0.11703286
v 0.21183589 -0.15660987 0.19251584
v 0.20817390 -0.15856631 0.08683068
v 0.20807579 -0.15854994 0.07931389
v 0.20784693 -0.15842715 0.05662849
v 0.21160699 -0.15639703 0.05662849
v 0.21660954 -0.15257693 0.04911170
v 0.21664222 -0.15262878 0.05662849
v 0.21968298 -0.14598180 0.04154990
v 0.04361366 -0.13587489 0.04154990
v 0.04361366 -0.13588308 0.04911170
v 0.04361366 -0.13589945 0.06419028
v 0.04361366 -0.13591036 0.07175209
v 0.20189622 -0.13864992 0.20007764
v 0.20944906 -0.13878362 0.20007764
v 0.20189622 -0.13852987 -0.20753942
v 0.03609353 -0.13570026 -0.01124768
v 0.21602099 -0.14075916 -0.01124768
v 0.20944906 -0.13937029 -0.13201142
v 0.20944906 -0.13924750 -0.08673065
v 0.21621718 -0.14054906 0.20007764
v 0.21929062 -0.14598180 0.20007764
v 0.21628256 -0.15266153 0.20007764
v 0.20817390 -0.15847354 0.17743725
v 0.20189622 -0.16085837 0.17743725
v 0.20189622 -0.16104392 0.12459467
v 0.20189622 -0.16104392 0.11703286
v 0.20189622 -0.16098116 0.07931389
v 0.20807579 -0.15836712 0.19251584
v 0.20814120 -0.15844898 0.18499905
v 0.21134542 -0.15642978 0.20007764
v 0.20189622 -0.16094297 0.07175209
v 0.20189622 -0.16087748 0.06419028
v 0.21150891 -0.15634247 0.04911170
v 0.20189622 -0.16080380 0.05662849
v 0.20189622 -0.16012164 -0.01124768
v 0.20189622 -0.16003432 -0.01880948
v 0.20411956 -0.15668900 -0.19997761
v 0.21654414 -0.15250599 0.04154990
v 0.21958489 -0.14598180 0.03398810
v 0.21399382 -0.14131581 -0.19241581
v 0.21592291 -0.14075644 -0.01880948
v 0.03609353 -0.13575756 0.04154990
v 0.03609353 -0.13577666 0.04911170
v 0.03609353 -0.13581486 0.06419028
v 0.05116650 -0.13637424 0.17743725
v 0.05116650 -0.13634694 0.16987544
v 0.20189622 -0.13870450 0.20763945
v 0.20189622 -0.13890915 0.21515623
v 0.20944906 -0.13914108 0.20763945
v 0.20944906 -0.13954492 -0.19241581
v 0.20944906 -0.13959950 -0.19997761
v 0.20189622 -0.13886548 -0.21505620
v 0.19437609 -0.13850804 -0.21505620
v 0.04361366 -0.13629510 -0.19241581
v 0.04361366 -0.13623780 -0.18485402
v 0.04361366 -0.13606044 -0.13201142
v 0.03609353 -0.13594038 -0.12449465
v -0.00915808 -0.13573845 -0.11693284
v -0.01667822 -0.13572754 -0.11693284
v -0.01667822 -0.13572482 -0.10937104
v -0.11342642 -0.13598131 0.19251584
v 0.21504011 -0.14086832 0.20763945
v 0.21396114 -0.14150955 0.21254561
v 0.21696920 -0.14598180 0.20763945
v 0.21399382 -0.15072418 0.21259061
v 0.21513819 -0.15184565 0.20763945
v 0.20189622 -0.16081472 0.18499905
v 0.19437609 -0.16210537 0.18499905
v 0.19437609 -0.16212992 0.17743725
v 0.19437609 -0.16214084 0.16987544
v 0.19437609 -0.16215176 0.15479685
v 0.19437609 -0.16208353 0.07175209
v 0.19437609 -0.16215176 0.14723506
v 0.19437609 -0.16179702 -0.01124768
v 0.20758535 -0.15810790 0.20007764
v 0.20189622 -0.16065646 0.19251584
v 0.20928557 -0.15588679 0.20808955
v 0.20666988 -0.15770133 0.20588403
v 0.19437609 -0.16175609 -0.01880948
v 0.20944906 -0.15340372 -0.19997761
v 0.21589020 -0.15194662 -0.01880948
v 0.19437609 -0.15970416 -0.19997761
v 0.20019601 -0.15799329 -0.20753942
v 0.20398878 -0.15662898 -0.20753942
v 0.21647876 -0.15240776 0.03398810
v 0.21925791 -0.14598180 0.01134770
v 0.21598829 -0.15199574 -0.01124768
v 0.21389574 -0.14139767 -0.19997761
v 0.01346772 -0.13620506 0.16987544
v 0.03609353 -0.13623508 0.16231365
v 0.04361366 -0.13628965 0.16987544
v 0.04361366 -0.13632240 0.17743725
v 0.05116650 -0.13643154 0.18499905
v 0.19437609 -0.13868267 0.21515623
v 0.20951444 -0.14054360 0.21511122
v 0.18682325 -0.13893097 0.22271804
v 0.19437609 -0.13939485 0.22271804
v 0.20166736 -0.14067185 0.22276304
v 0.21363416 -0.14171692 -0.20560396
v 0.21003759 -0.14046720 -0.20789950
v 0.20804312 -0.14070460 -0.21505620
v 0.20660447 -0.14140858 -0.21987235
v 0.20147116 -0.14080555 -0.22248297
v 0.19437609 -0.13942759 -0.22261801
v 0.18682325 -0.13890915 -0.22261801
v 0.04361366 -0.13649975 -0.19997761
v 0.03609353 -0.13621870 -0.19241581
v 0.03609353 -0.13616686 -0.18485402
v 0.03609353 -0.13596221 -0.13201142
v -0.00915808 -0.13575484 -0.12449465
v -0.01667822 -0.13574665 -0.12449465
v -0.02423105 -0.13575756 -0.12449465
v -0.02423105 -0.13574392 -0.11693284
v -0.02423105 -0.13573845 -0.10185425
v -0.11342642 -0.13604680 0.20007764
v -0.03175119 -0.13577393 -0.11693284
v -0.03930403 -0.13580940 -0.11693284
v -0.04682417 -0.13584761 -0.10937104
v -0.05437700 -0.13590764 -0.10937104
v -0.05437700 -0.13592128 -0.11693284
v -0.06944996 -0.13619142 -0.17733723
v -0.07700280 -0.13629238 -0.18485402
v -0.07700280 -0.13630875 -0.19241581
v -0.11342642 -0.13688449 -0.20753942
v 0.20706224 -0.14126397 0.22028745
v 0.21160699 -0.14598180 0.21691165
v 0.21435347 -0.14598180 0.21317576
v 0.20716032 -0.15119623 0.22037747
v 0.20957982 -0.15265061 0.21511122
v 0.19437609 -0.16202897 0.19251584
v 0.18682325 -0.16224725 0.20007764
v 0.18682325 -0.16224179 0.15479685
v 0.02854069 -0.16353791 0.01890950
v 0.02854069 -0.16351607 0.01134770
v 0.17930312 -0.16233730 0.20007764
v 0.18682325 -0.16182978 -0.01880948
v 0.02854069 -0.16347788 0.00378590
v 0.20189622 -0.16013801 0.20007764
v 0.19437609 -0.16176429 0.20007764
v 0.20536202 -0.15718015 0.21092523
v 0.20245205 -0.15864817 0.20808955
v 0.17930312 -0.16087748 -0.19997761
v 0.18682325 -0.16072467 -0.19997761
v 0.21000488 -0.15241321 -0.20744940
v 0.21343800 -0.15003383 -0.20488379
v 0.21360146 -0.15023030 -0.19997761
v 0.19437609 -0.15948859 -0.20753942
v 0.19937861 -0.15771224 -0.21325577
v 0.20189622 -0.15603140 -0.21550630
v 0.20801042 -0.15205304 -0.21505620
v 0.21880018 -0.14598180 -0.01124768
v 0.21428810 -0.14598180 -0.19997761
v 0.03609353 -0.13626782 0.16987544
v 0.04361366 -0.13639607 0.18499905
v -0.11342642 -0.13619142 0.20763945
v -0.11342642 -0.13645064 0.21493118
v -0.11342642 -0.13645882 0.21515623
v 0.17930312 -0.13884094 0.22271804
v 0.18682325 -0.13861445 0.21515623
v 0.17930312 -0.14065276 0.22820933
v 0.18682325 -0.14072097 0.22811932
v 0.19437609 -0.14113844 0.22757920
v 0.19898625 -0.14173876 0.22694903
v 0.21369957 -0.14598180 -0.20600905
v 0.21278407 -0.14598180 -0.20974493
v 0.21036454 -0.14598180 -0.21505620
v 0.20702953 -0.14598180 -0.22041248
v 0.20274632 -0.14598180 -0.22419337
v 0.19865927 -0.14187518 -0.22671398
v 0.19437609 -0.14124760 -0.22738915
v 0.18682325 -0.14074825 -0.22801928
v 0.17930312 -0.14070732 -0.22806431
v 0.17930312 -0.13886003 -0.22261801
v 0.00594759 -0.13638787 -0.19997761
v 0.01346772 -0.13608227 -0.19241581
v 0.02102056 -0.13610682 -0.19241581
v 0.02854069 -0.13614775 -0.19241581
v -0.11342642 -0.13738656 -0.22261801
v 0.02854069 -0.13611775 -0.18485402
v 0.00594759 -0.13606589 -0.19241581
v -0.03175119 -0.13605771 -0.19241581
v -0.03930403 -0.13606589 -0.19241581
v -0.02423105 -0.13578758 -0.13201142
v -0.03175119 -0.13580940 -0.13201142
v -0.03175119 -0.13578212 -0.12449465
v -0.03930403 -0.13582578 -0.12449465
v -0.04682417 -0.13585852 -0.11693284
v -0.06192983 -0.13610137 -0.16977542
v -0.06192983 -0.13608500 -0.16221362
v -0.06944996 -0.13622143 -0.19241581
v -0.11342642 -0.13696363 -0.21505620
v 0.20784693 -0.14598180 0.22100762
v 0.20320406 -0.14598180 0.22478852
v 0.20245205 -0.15650073 0.21565135
v 0.19901896 -0.15046769 0.22694903
v 0.20166736 -0.15247325 0.22280806
v 0.18682325 -0.16151871 0.20763945
v 0.17930312 -0.16170425 0.20763945
v 0.02854069 -0.16354063 0.02647131
v 0.02102056 -0.16357337 0.01890950
v 0.02102056 -0.16355428 0.01134770
v 0.17175028 -0.16176155 0.20763945
v 0.17175028 -0.16237550 0.20007764
v 0.02854069 -0.16348333 0.07175209
v 0.02854069 -0.16349970 0.06419028
v 0.02102056 -0.16351335 0.00378590
v 0.02854069 -0.16343149 -0.00368588
v 0.19437609 -0.16072194 0.20763945
v 0.20032679 -0.15791417 0.21349084
v 0.17175028 -0.16090476 -0.19997761
v 0.17175028 -0.16064281 -0.20753942
v 0.17930312 -0.16061007 -0.20753942
v 0.02854069 -0.16337965 -0.01124768
v 0.18682325 -0.16042452 -0.20753942
v 0.20657177 -0.15080878 -0.21987235
v 0.19467034 -0.15826071 -0.21550630
v 0.19741682 -0.15714468 -0.21829698
v -0.11342642 -0.13699910 0.22231293
v -0.11342642 -0.13703457 0.22271804
v -0.11342642 -0.13918747 0.22784925
v 0.17930312 -0.14598180 0.22991975
v 0.18682325 -0.14598180 0.22973971
v 0.19437609 -0.14598180 0.22870445
v 0.19941129 -0.14598180 0.22717408
v 0.19872468 -0.15027669 -0.22671398
v 0.19895355 -0.14598180 -0.22684902
v 0.19437609 -0.14598180 -0.22851441
v 0.18682325 -0.14598180 -0.22977470
v 0.17930312 -0.14598180 -0.22990974
v -0.11342642 -0.14043992 -0.22801928
v -0.11342642 -0.13933755 -0.22761419
v -0.11342642 -0.13750662 -0.22302310
v -0.04682417 -0.13609045 -0.19241581
v -0.05437700 -0.13612047 -0.19241581
v -0.06192983 -0.13616140 -0.19241581
v -0.04682417 -0.13587763 -0.12449465
v 0.19728603 -0.15713922 0.21848703
v 0.19437609 -0.15134904 0.22762420
v 0.19460496 -0.15546384 0.22235795
v 0.18682325 -0.15951861 0.21515623
v 0.17930312 -0.15973690 0.21515623
v 0.02102056 -0.16357611 0.02647131
v 0.01346772 -0.16356792 0.01890950
v 0.01346772 -0.16354609 0.01134770
v 0.17175028 -0.15977510 0.21515623
v -0.04682417 -0.16033720 0.21515623
v 0.16423014 -0.16177793 0.20763945
v 0.15667731 -0.16241370 0.20007764
v 0.16423014 -0.16239460 0.20007764
v 0.02102056 -0.16350516 0.07175209
v 0.02102056 -0.16351881 0.06419028
v 0.01346772 -0.16349970 0.00378590
v 0.02102056 -0.16345877 -0.00368588
v 0.19460496 -0.15848718 0.21565135
v 0.01346772 -0.16131406 -0.19997761
v 0.00594759 -0.16048729 -0.20753942
v 0.17175028 -0.15931941 -0.21505620
v 0.17930312 -0.15931669 -0.21505620
v 0.00594759 -0.16131406 -0.19997761
v 0.18682325 -0.15919390 -0.21505620
v 0.02102056 -0.16339602 -0.01124768
v 0.20150387 -0.15212944 -0.22248297
v 0.19238159 -0.15758673 -0.21960229
v 0.19467034 -0.15542837 -0.22230293
v -0.11342642 -0.14598180 0.22964967
v -0.10714875 -0.15205576 0.22825436
v 0.17930312 -0.15200120 0.22820933
v 0.18682325 -0.15194116 0.22811932
v 0.19437609 -0.15129720 -0.22747915
v 0.18682325 -0.15212671 -0.22815432
v -0.11342642 -0.14598180 -0.22945962
v 0.17930312 -0.15216491 -0.22819932
v -0.09959591 -0.15220039 -0.22819932
v -0.11342642 -0.14702687 -0.22927958
v 0.19228351 -0.15755398 0.21956728
v 0.18682325 -0.15570670 0.22379829
v 0.18682325 -0.15776136 0.22001739
v 0.17930312 -0.15784596 0.22019743
v 0.01346772 -0.16356792 0.02647131
v -0.06944996 -0.16336327 0.03398810
v -0.06944996 -0.16336054 0.02647131
v 0.00594759 -0.16354882 0.01890950
v -0.06192983 -0.16334418 0.01890950
v -0.06944996 -0.16331962 0.01890950
v -0.04682417 -0.15820068 0.22055751
v -0.05437700 -0.15820068 0.22055751
v -0.07700280 -0.15818703 0.22055751
v -0.05437700 -0.16033174 0.21515623
v -0.03930403 -0.16200713 0.20763945
v 0.15667731 -0.16178885 0.20763945
v 0.14912447 -0.16242190 0.20007764
v 0.01346772 -0.16349698 0.07175209
v -0.03175119 -0.16245463 0.20007764
v -0.06944996 -0.16325958 0.01134770
v 0.01346772 -0.16343967 -0.00368588
v -0.00160525 -0.16047090 -0.20753942
v -0.09959591 -0.15864545 -0.21505620
v -0.09959591 -0.15755671 -0.21969231
v 0.17930312 -0.15781048 -0.22014242
v 0.18682325 -0.15777773 -0.22005240
v -0.06944996 -0.16137409 -0.18485402
v -0.07700280 -0.16136044 -0.18485402
v -0.07700280 -0.16125130 -0.19241581
v -0.01667822 -0.16126494 -0.19997761
v 0.01346772 -0.16336872 -0.01124768
v -0.07700280 -0.16143411 -0.17733723
v 0.18682325 -0.15589496 -0.22383329
v -0.11342642 -0.15196844 0.22820933
v -0.10714875 -0.15582130 0.22429340
v -0.09959591 -0.15581310 0.22433842
v 0.17930312 -0.15576672 0.22393332
v 0.17930312 -0.15593317 -0.22392331
v -0.10714875 -0.15215127 -0.22815432
v -0.11342642 -0.15203667 -0.22815432
v -0.09959591 -0.15596591 -0.22347320
v -0.07700280 -0.16330870 0.03398810
v -0.06192983 -0.16331142 0.07175209
v -0.06944996 -0.16328686 0.07175209
v -0.07700280 -0.16323502 0.07175209
v -0.07700280 -0.16330051 0.02647131
v -0.07700280 -0.16326777 0.01890950
v -0.07700280 -0.16321593 0.01134770
v -0.09959591 -0.15815701 0.22055751
v -0.07700280 -0.16026625 0.21515623
v -0.05437700 -0.16198258 0.20763945
v -0.04682417 -0.16199895 0.20763945
v -0.03930403 -0.16244644 0.20007764
v -0.06944996 -0.16319409 0.00378590
v -0.00915808 -0.16045181 -0.20753942
v -0.10714875 -0.15857177 -0.21505620
v -0.10714875 -0.15753215 -0.21960229
v -0.07700280 -0.16026353 -0.20753942
v -0.08452294 -0.16022260 -0.20753942
v -0.08452294 -0.16132771 -0.18485402
v -0.08452294 -0.16123220 -0.19241581
v -0.07700280 -0.16108758 -0.19997761
v -0.11342642 -0.15573670 0.22388831
v -0.10714875 -0.15810790 0.22055751
v -0.10714875 -0.15591952 -0.22338318
v -0.11342642 -0.15267516 -0.22734412
v -0.10714875 -0.16237823 0.01890950
v -0.10714875 -0.16238914 0.01134770
v -0.08452294 -0.16300309 0.07175209
v -0.05437700 -0.16239188 0.20007764
v -0.06192983 -0.16236186 0.20007764
v -0.06944996 -0.16232639 0.20007764
v -0.08452294 -0.16222543 0.20007764
v -0.09207577 -0.16209446 0.20007764
v -0.10714875 -0.16236732 0.00378590
v -0.10714875 -0.16231548 -0.00368588
v -0.10714875 -0.16091022 -0.18485402
v -0.07700280 -0.16315044 0.00378590
v -0.09959591 -0.16016530 0.21515623
v -0.09207577 -0.16021169 0.21515623
v -0.06192983 -0.16194983 0.20763945
v -0.07700280 -0.16308495 -0.00368588
v -0.07700280 -0.16301400 -0.01124768
v -0.11342642 -0.15820885 -0.21505620
v -0.11342642 -0.15759219 -0.21847702
v -0.11342642 -0.15741755 -0.21924221
v -0.09207577 -0.16013801 -0.20753942
v -0.09959591 -0.16004251 -0.20753942
v -0.10714875 -0.15990334 -0.20753942
v -0.11342642 -0.15843534 -0.21379590
v -0.11342642 -0.15607779 -0.22239295
v -0.08452294 -0.16106030 -0.19997761
v -0.10714875 -0.16080653 -0.19241581
v -0.11342642 -0.15785687 0.22010741
v -0.10714875 -0.15997157 0.21515623
v -0.11342642 -0.15580493 -0.22302310
v -0.10714875 -0.16227727 0.06419028
v -0.11342642 -0.16130587 0.01890950
v -0.11342642 -0.16130587 0.01134770
v -0.11342642 -0.16128950 0.00378590
v -0.11342642 -0.16127313 -0.00242558
v -0.10714875 -0.16225544 0.07175209
v -0.06944996 -0.16191709 0.20763945
v -0.07700280 -0.16188162 0.20763945
v -0.08452294 -0.16183523 0.20763945
v -0.09207577 -0.16176155 0.20763945
v -0.09959591 -0.16158965 0.20763945
v -0.09959591 -0.16182158 0.20007764
v -0.11342642 -0.16124857 -0.00998738
v -0.11342642 -0.16036722 -0.17603191
v -0.11342642 -0.16035903 -0.17733723
v -0.11342642 -0.16030173 -0.18485402
v -0.10714875 -0.16058551 -0.19997761
v -0.11342642 -0.15925939 -0.20753942
v -0.11342642 -0.16013255 -0.19241581
v -0.11342642 -0.15917208 0.21515623
v -0.10714875 -0.16120492 0.20763945
v -0.11342642 -0.16120492 0.05793380
v -0.11342642 -0.16115580 0.07175209
v -0.11342642 -0.16118308 0.06549560
v -0.10714875 -0.16139592 0.20007764
v -0.11342642 -0.16054185 0.16361896
v -0.11342642 -0.15982967 -0.19997761
v -0.11342642 -0.15937673 -0.20623411
v -0.11342642 -0.16007525 0.20763945
v -0.11342642 -0.16024171 0.20133793
v -0.11342642 -0.16027445 0.20007764
v -0.11342642 -0.16033174 0.19382116
f 551 552 553
f 551 553 554
f 551 554 555
f 551 555 556
f 551 556 557
f 551 557 558
f 551 558 559
f 551 559 560
f 551 560 552
f 552 561 562
f 552 562 553
f 552 560 563
f 552 563 576
f 552 576 561
f 553 562 554
f 554 562 564
f 554 564 565
f 554 565 555
f 555 565 564
f 555 564 566
f 555 566 567
f 555 567 568
f 555 568 556
f 556 568 557
f 557 569 558
f 557 568 570
f 557 570 571
f 557 571 572
f 557 572 569
f 558 569 559
f 559 569 573
f 559 573 560
f 560 573 574
f 560 574 575
f 560 575 563
f 561 576 577
f 561 577 578
f 561 578 562
f 562 578 577
f 562 577 579
f 562 579 564
f 563 575 580
f 563 580 576
f 564 579 581
f 564 581 566
f 566 581 582
f 566 582 583
f 566 583 584
f 566 584 585
f 566 585 586
f 566 586 567
f 567 586 568
f 568 586 585
f 568 585 587
f 568 587 570
f 569 588 589
f 569 589 590
f 569 590 591
f 569 591 592
f 569 592 593
f 569 593 573
f 569 572 594
f 569 594 595
f 569 595 588
f 570 587 596
f 570 596 597
f 570 597 598
f 570 598 571
f 571 598 594
f 571 594 572
f 573 593 599
f 573 599 574
f 574 599 600
f 574 600 601
f 574 601 575
f 575 601 580
f 576 580 602
f 576 602 577
f 577 602 603
f 577 603 604
f 577 604 605
f 577 605 579
f 579 605 606
f 579 606 581
f 580 607 608
f 580 608 602
f 580 601 609
f 580 609 607
f 581 606 610
f 581 610 582
f 582 610 611
f 582 611 583
f 583 612 584
f 583 611 613
f 583 613 614
f 583 614 615
f 583 615 616
f 583 616 612
f 584 612 617
f 584 617 585
f 585 617 618
f 585 618 587
f 587 618 619
f 587 619 620
f 587 620 596
f 588 595 589
f 589 595 621
f 589 621 590
f 590 621 591
f 591 621 622
f 591 622 623
f 591 623 624
f 591 624 625
f 591 625 592
f 592 625 624
f 592 624 626
f 592 626 593
f 593 626 627
f 593 627 628
f 593 628 599
f 594 598 597
f 594 597 629
f 594 629 630
f 594 630 631
f 594 631 632
f 594 632 633
f 594 633 634
f 594 634 635
f 594 635 595
f 595 635 636
f 595 636 637
f 595 637 638
f 595 638 639
f 595 639 640
f 595 640 621
f 596 620 629
f 596 629 597
f 599 628 641
f 599 641 600
f 600 641 642
f 600 642 643
f 600 643 644
f 600 644 645
f 600 645 601
f 601 645 609
f 602 608 603
f 603 608 646
f 603 646 647
f 603 647 604
f 604 647 648
f 604 648 649
f 604 649 650
f 604 650 652
f 604 652 605
f 605 651 606
f 605 652 651
f 606 651 653
f 606 653 610
f 607 609 654
f 607 654 655
f 607 655 646
f 607 646 608
f 609 645 656
f 609 656 657
f 609 657 654
f 610 653 658
f 610 658 611
f 611 658 613
f 612 616 659
f 612 659 660
f 612 660 617
f 613 658 614
f 614 658 661
f 614 661 615
f 615 661 662
f 615 662 616
f 616 662 663
f 616 663 659
f 617 664 665
f 617 665 618
f 617 660 666
f 617 666 664
f 618 665 619
f 619 667 630
f 619 630 620
f 619 665 667
f 620 630 629
f 621 640 622
f 622 640 623
f 623 640 668
f 623 668 669
f 623 669 670
f 623 670 624
f 624 670 671
f 624 671 672
f 624 672 626
f 626 673 627
f 626 672 673
f 627 674 628
f 627 673 675
f 627 675 676
f 627 676 677
f 627 677 674
f 628 674 641
f 630 667 678
f 630 678 679
f 630 679 631
f 631 680 681
f 631 681 682
f 631 682 683
f 631 683 684
f 631 684 632
f 631 679 680
f 632 684 685
f 632 685 633
f 633 685 686
f 633 686 634
f 634 686 687
f 634 687 688
f 634 688 635
f 635 688 636
f 636 688 689
f 636 689 637
f 637 689 638
f 638 689 690
f 638 690 691
f 638 691 692
f 638 692 693
f 638 693 639
f 639 693 640
f 640 694 671
f 640 671 668
f 640 693 692
f 640 692 695
f 640 695 696
f 640 696 697
f 640 697 698
f 640 698 699
f 640 699 700
f 640 700 701
f 640 701 702
f 640 702 703
f 640 703 770
f 640 770 757
f 640 757 811
f 640 811 810
f 640 810 809
f 640 809 850
f 640 850 853
f 640 853 893
f 640 893 919
f 640 919 949
f 640 949 944
f 640 944 939
f 640 939 938
f 640 938 937
f 640 937 943
f 640 943 967
f 640 967 977
f 640 977 976
f 640 976 968
f 640 968 965
f 640 965 964
f 640 964 963
f 640 963 962
f 640 962 954
f 640 954 953
f 640 953 952
f 640 952 951
f 640 951 971
f 640 971 973
f 640 973 972
f 640 972 975
f 640 975 981
f 640 981 980
f 640 980 979
f 640 979 978
f 640 978 969
f 640 969 947
f 640 947 916
f 640 916 887
f 640 887 844
f 640 844 799
f 640 799 798
f 640 798 797
f 640 797 736
f 640 736 735
f 640 735 734
f 640 734 694
f 641 674 642
f 642 674 704
f 642 704 705
f 642 705 706
f 642 706 643
f 643 706 644
f 644 656 645
f 644 706 705
f 644 705 707
f 644 707 708
f 644 708 656
f 646 655 709
f 646 709 647
f 647 709 710
f 647 710 648
f 648 710 649
f 649 710 650
f 650 710 652
f 651 652 711
f 651 711 712
f 651 712 713
f 651 713 653
f 652 710 714
f 652 714 711
f 653 715 658
f 653 713 716
f 653 716 715
f 654 657 717
f 654 717 655
f 655 717 718
f 655 718 709
f 656 708 719
f 656 719 657
f 657 719 720
f 657 720 717
f 658 715 721
f 658 721 722
f 658 722 661
f 659 663 723
f 659 723 724
f 659 724 725
f 659 725 660
f 660 725 665
f 660 665 666
f 661 722 726
f 661 726 662
f 662 726 727
f 662 727 663
f 663 727 728
f 663 728 729
f 663 729 723
f 664 666 665
f 665 725 730
f 665 730 667
f 667 730 731
f 667 731 678
f 668 671 732
f 668 732 669
f 669 732 671
f 669 671 670
f 671 694 733
f 671 733 672
f 672 733 734
f 672 734 735
f 672 735 736
f 672 736 737
f 672 737 738
f 672 738 673
f 673 738 737
f 673 737 675
f 674 677 704
f 675 737 739
f 675 739 740
f 675 740 676
f 676 740 741
f 676 741 677
f 677 741 742
f 677 742 704
f 678 731 743
f 678 743 744
f 678 744 745
f 678 745 681
f 678 681 680
f 678 680 679
f 681 745 746
f 681 746 747
f 681 747 748
f 681 748 682
f 682 748 749
f 682 749 683
f 683 749 750
f 683 750 684
f 684 750 751
f 684 751 752
f 684 752 685
f 685 753 754
f 685 754 755
f 685 755 756
f 685 756 686
f 685 752 757
f 685 757 753
f 686 756 687
f 687 756 758
f 687 758 688
f 688 758 755
f 688 755 689
f 689 755 754
f 689 754 759
f 689 759 690
f 690 759 760
f 690 760 761
f 690 761 762
f 690 762 691
f 691 762 761
f 691 761 763
f 691 763 764
f 691 764 692
f 692 764 695
f 694 734 733
f 695 764 696
f 696 764 765
f 696 765 766
f 696 766 697
f 697 766 698
f 698 766 699
f 699 766 767
f 699 767 768
f 699 768 700
f 700 768 769
f 700 769 701
f 701 769 702
f 702 769 703
f 703 769 770
f 704 771 705
f 704 742 772
f 704 772 771
f 705 771 707
f 707 773 708
f 707 771 772
f 707 772 774
f 707 774 775
f 707 775 773
f 708 773 719
f 709 718 710
f 710 718 776
f 710 776 777
f 710 777 714
f 711 714 712
f 712 778 821
f 712 821 779
f 712 779 780
f 712 780 713
f 712 714 778
f 713 780 716
f 714 777 781
f 714 781 782
f 714 782 783
f 714 783 784
f 714 784 778
f 715 716 721
f 716 780 785
f 716 785 786
f 716 786 721
f 717 720 787
f 717 787 718
f 718 787 776
f 719 773 788
f 719 788 720
f 720 788 787
f 721 789 790
f 721 790 791
f 721 791 722
f 721 786 792
f 721 792 789
f 722 791 793
f 722 793 726
f 723 729 724
f 724 729 794
f 724 794 744
f 724 744 743
f 724 743 731
f 724 731 725
f 725 731 730
f 726 793 795
f 726 795 727
f 727 795 796
f 727 796 728
f 728 796 794
f 728 794 729
f 736 797 737
f 737 797 798
f 737 798 739
f 739 799 800
f 739 800 740
f 739 798 799
f 740 800 801
f 740 801 741
f 741 801 802
f 741 802 742
f 742 802 803
f 742 803 772
f 744 794 745
f 745 794 746
f 746 794 747
f 747 804 805
f 747 805 748
f 747 794 804
f 748 805 806
f 748 806 749
f 749 806 807
f 749 807 750
f 750 807 808
f 750 808 751
f 751 808 809
f 751 809 810
f 751 810 811
f 751 811 752
f 752 811 757
f 753 759 754
f 753 757 770
f 753 770 759
f 755 758 756
f 759 770 760
f 760 770 761
f 761 770 812
f 761 812 763
f 763 812 813
f 763 813 764
f 764 813 814
f 764 814 765
f 765 814 767
f 765 767 815
f 765 815 766
f 766 815 767
f 767 814 769
f 767 769 768
f 769 814 770
f 770 814 813
f 770 813 812
f 772 803 774
f 773 775 816
f 773 816 788
f 774 803 802
f 774 802 817
f 774 817 818
f 774 818 775
f 775 818 816
f 776 787 819
f 776 819 820
f 776 820 777
f 777 820 781
f 778 784 821
f 779 822 780
f 779 821 822
f 780 823 785
f 780 822 823
f 781 820 824
f 781 824 825
f 781 825 826
f 781 826 827
f 781 827 828
f 781 828 782
f 782 828 829
f 782 829 783
f 783 829 784
f 784 829 830
f 784 830 821
f 785 831 832
f 785 832 792
f 785 792 786
f 785 823 831
f 787 788 833
f 787 833 819
f 788 816 833
f 789 834 790
f 789 792 834
f 790 835 836
f 790 836 837
f 790 837 791
f 790 834 838
f 790 838 835
f 791 837 839
f 791 839 793
f 792 832 840
f 792 840 834
f 793 839 795
f 794 796 841
f 794 841 804
f 795 842 796
f 795 839 842
f 796 842 843
f 796 843 804
f 796 804 841
f 799 844 800
f 800 844 845
f 800 845 846
f 800 846 847
f 800 847 801
f 801 847 817
f 801 817 802
f 804 848 806
f 804 806 805
f 804 843 848
f 806 848 807
f 807 848 849
f 807 849 808
f 808 850 809
f 808 849 851
f 808 851 852
f 808 852 853
f 808 853 850
f 816 818 854
f 816 854 833
f 817 847 855
f 817 855 818
f 818 855 854
f 819 833 854
f 819 854 856
f 819 856 820
f 820 856 857
f 820 857 824
f 821 858 822
f 821 830 858
f 822 858 859
f 822 859 860
f 822 860 861
f 822 861 823
f 823 861 860
f 823 860 862
f 823 862 863
f 823 863 831
f 824 857 825
f 825 857 864
f 825 864 865
f 825 865 866
f 825 866 867
f 825 867 868
f 825 868 869
f 825 869 826
f 826 869 827
f 827 869 868
f 827 868 870
f 827 870 829
f 827 829 828
f 829 871 830
f 829 870 872
f 829 872 906
f 829 906 871
f 830 871 858
f 831 863 873
f 831 873 874
f 831 874 832
f 832 874 840
f 834 840 838
f 835 875 836
f 835 838 875
f 836 876 877
f 836 877 878
f 836 878 837
f 836 875 876
f 837 878 879
f 837 879 839
f 838 880 881
f 838 881 882
f 838 882 883
f 838 883 875
f 838 840 880
f 839 879 842
f 840 874 884
f 840 884 885
f 840 885 881
f 840 881 880
f 842 879 886
f 842 886 843
f 843 886 848
f 844 887 845
f 845 887 888
f 845 888 889
f 845 889 846
f 846 889 890
f 846 890 847
f 847 890 855
f 848 886 849
f 849 886 891
f 849 891 851
f 851 891 852
f 852 892 893
f 852 893 853
f 852 891 894
f 852 894 892
f 854 855 856
f 855 890 857
f 855 857 856
f 857 890 864
f 858 871 859
f 859 895 860
f 859 871 896
f 859 896 897
f 859 897 898
f 859 898 895
f 860 899 900
f 860 900 863
f 860 863 862
f 860 895 899
f 863 900 901
f 863 901 873
f 864 890 889
f 864 889 865
f 865 889 866
f 866 902 867
f 866 889 902
f 867 902 903
f 867 903 904
f 867 904 905
f 867 905 868
f 868 905 906
f 868 906 872
f 868 872 870
f 871 906 896
f 873 901 931
f 873 931 907
f 873 907 874
f 874 907 884
f 875 908 876
f 875 883 908
f 876 909 910
f 876 910 877
f 876 908 911
f 876 911 912
f 876 912 909
f 877 910 894
f 877 894 878
f 878 894 891
f 878 891 879
f 879 891 886
f 881 885 913
f 881 913 914
f 881 914 882
f 882 914 883
f 883 914 915
f 883 915 911
f 883 911 908
f 884 907 885
f 885 907 913
f 887 916 888
f 888 916 917
f 888 917 902
f 888 902 889
f 892 894 918
f 892 918 893
f 893 918 919
f 894 910 918
f 895 920 921
f 895 921 899
f 895 898 922
f 895 922 920
f 896 906 897
f 897 906 923
f 897 923 924
f 897 924 925
f 897 925 926
f 897 926 898
f 898 926 927
f 898 927 922
f 899 921 928
f 899 928 900
f 900 928 901
f 901 928 929
f 901 929 930
f 901 930 931
f 902 917 932
f 902 932 933
f 902 933 903
f 903 933 904
f 904 933 934
f 904 934 924
f 904 924 923
f 904 923 906
f 904 906 905
f 907 931 935
f 907 935 936
f 907 936 913
f 909 937 938
f 909 938 939
f 909 939 910
f 909 912 940
f 909 940 941
f 909 941 942
f 909 942 943
f 909 943 937
f 910 939 944
f 910 944 918
f 911 915 945
f 911 945 912
f 912 945 940
f 913 930 914
f 913 936 935
f 913 935 930
f 914 930 946
f 914 946 945
f 914 945 915
f 916 947 917
f 917 947 948
f 917 948 932
f 918 949 919
f 918 944 949
f 920 950 951
f 920 951 921
f 920 922 950
f 921 951 952
f 921 952 953
f 921 953 954
f 921 954 928
f 922 955 950
f 922 927 955
f 924 934 956
f 924 956 957
f 924 957 925
f 925 957 958
f 925 958 926
f 926 958 959
f 926 959 927
f 927 959 960
f 927 960 961
f 927 961 955
f 928 954 962
f 928 962 963
f 928 963 964
f 928 964 929
f 929 964 965
f 929 965 930
f 930 965 946
f 930 935 931
f 932 948 960
f 932 960 959
f 932 959 958
f 932 958 957
f 932 957 933
f 933 957 956
f 933 956 934
f 940 945 941
f 941 945 942
f 942 945 966
f 942 966 967
f 942 967 943
f 945 946 966
f 946 965 968
f 946 968 966
f 947 969 948
f 948 969 970
f 948 970 960
f 950 971 951
f 950 955 973
f 950 973 971
f 955 972 973
f 955 961 974
f 955 974 975
f 955 975 972
f 960 970 961
f 961 970 974
f 966 968 976
f 966 976 977
f 966 977 967
f 969 978 970
f 970 978 979
f 970 979 980
f 970 980 974
f 974 980 981
f 974 981 975

