# https://github.com/mikedh/trimesh

o geometry_0
v 0.03425938 0.00049871 0.01068725
v 0.03507392 0.00049871 0.01040414
v 0.03504696 0.00163473 0.01036430
v 0.03425938 0.00163473 0.01059288
v 0.02959123 0.00105297 0.01016298
v 0.02959123 0.00059179 0.01018814
v 0.02959123 -0.00051672 0.01019444
v 0.03425938 -0.00063307 0.01068096
v 0.03507048 -0.00063307 0.01039995
v 0.03528559 0.00049871 0.00959677
v 0.03527813 0.00163473 0.00959677
v 0.03519553 0.00277074 0.00959677
v 0.03505499 0.00380945 0.00961564
v 0.03494141 0.00277074 0.01025525
v 0.02959123 0.00152895 0.01008958
v 0.02959123 0.00150568 0.01009378
v 0.03485365 0.00336731 0.01017347
v 0.03425938 0.00277074 0.01036849
v 0.03359225 0.00341385 0.01019024
v 0.02959123 -0.00109213 0.01015459
v 0.03425938 -0.00176909 0.01057191
v 0.03503262 -0.00176909 0.01034962
v 0.03525002 -0.00176909 0.00959677
v 0.03527698 -0.00063307 0.00959677
v 0.03545079 0.00049871 0.00054361
v 0.03532632 0.00617667 0.00733400
v 0.03526723 0.00504277 0.00846643
v 0.03499591 0.00504277 0.00922139
v 0.02959123 0.00277074 0.00982954
v 0.03487832 0.00566261 0.00906620
v 0.03425938 0.00504277 0.00945836
v 0.03425938 0.00398503 0.00995327
v 0.03425938 0.00341808 0.01019234
v 0.02959123 0.00388983 0.00945207
v 0.03352686 0.00570069 0.00909137
v 0.02959123 0.00464506 0.00912702
v 0.02959123 0.00390676 0.00944577
v 0.02959123 -0.00176909 0.01007490
v 0.03494773 -0.00270625 0.01026154
v 0.03363872 -0.00351859 0.01017976
v 0.03434657 -0.00301299 0.01030349
v 0.03479227 -0.00346359 0.01015669
v 0.03508081 -0.00404112 0.00946255
v 0.03519553 -0.00517713 0.00846643
v 0.03525117 -0.00631103 0.00733400
v 0.03533549 -0.00971908 0.00054361
v 0.03544678 0.00049871 -0.00058462
v 0.03529592 0.00958472 0.00054361
v 0.03532287 0.00731269 0.00620157
v 0.03533492 -0.00971908 -0.00058462
v 0.03508367 0.00728519 0.00730674
v 0.03504352 0.00609628 0.00842868
v 0.03494830 0.00688747 0.00802814
v 0.03425938 0.00698902 0.00811622
v 0.03425938 0.00628456 0.00868243
v 0.03425938 0.00571761 0.00910395
v 0.02959123 0.00599686 0.00821688
v 0.02959123 0.00598628 0.00822527
v 0.02959123 0.00521201 0.00878309
v 0.02959123 0.00520566 0.00878729
v 0.03334502 0.00692767 0.00806169
v 0.02959123 -0.00290510 0.00986309
v 0.03496723 -0.00517713 0.00919202
v 0.03401673 -0.00351859 0.01017976
v 0.02959123 -0.00291991 0.00985890
v 0.02959123 -0.00404112 0.00949191
v 0.02959123 -0.00405170 0.00948772
v 0.02959123 -0.00480692 0.00914589
v 0.03360430 -0.00580332 0.00906830
v 0.03425938 -0.00517713 0.00940383
v 0.03434657 -0.00395438 0.00997424
v 0.03485595 -0.00576524 0.00904523
v 0.03501082 -0.00621161 0.00842029
v 0.03505155 -0.00741109 0.00729416
v 0.03524429 -0.00744705 0.00620157
v 0.03530853 -0.00971908 0.00167604
v 0.03508769 -0.01056950 0.00054361
v 0.03533263 0.00049871 -0.00963778
v 0.03527928 0.00617667 -0.00737501
v 0.03528502 0.00844870 -0.00397982
v 0.03533205 -0.00744705 -0.00624258
v 0.03533721 -0.00631103 -0.00737501
v 0.03528788 0.00958472 -0.00058462
v 0.03508023 0.01041610 0.00054361
v 0.03527412 0.00958472 0.00167604
v 0.03527412 0.00844870 0.00507124
v 0.03505155 0.00841485 0.00613237
v 0.03508654 -0.01056739 -0.00058462
v 0.03530509 -0.00971908 -0.00171706
v 0.03532345 -0.00858306 -0.00397982
v 0.03495002 0.00801503 0.00691248
v 0.03425938 0.00755597 0.00757726
v 0.02959123 0.00656592 0.00773245
v 0.03337313 0.00804041 0.00694814
v 0.02959123 -0.00537387 0.00879567
v 0.03425938 -0.00580332 0.00907039
v 0.02959123 -0.00615660 0.00822946
v 0.02959123 -0.00616507 0.00822317
v 0.03341099 -0.00705145 0.00804911
v 0.03425938 -0.00710434 0.00809734
v 0.03425938 -0.00637238 0.00866146
v 0.03493396 -0.00700914 0.00801346
v 0.03492880 -0.00812189 0.00689151
v 0.03500566 -0.00853441 0.00610510
v 0.03520815 -0.00858306 0.00507124
v 0.03520528 -0.00971908 0.00280847
v 0.03505327 -0.01051027 0.00167604
v 0.03425938 -0.01088048 0.00054361
v 0.03509744 0.00049871 -0.01045984
v 0.03530337 0.00163473 -0.00963778
v 0.03529419 0.00390676 -0.00850535
v 0.03532058 -0.00063307 -0.00963778
v 0.03509285 -0.00063307 -0.01045564
v 0.03524085 0.00504277 -0.00850535
v 0.03505557 0.00727038 -0.00733097
v 0.03527125 0.00731269 -0.00624258
v 0.03523912 0.00844870 -0.00511015
v 0.03525978 0.00958472 -0.00171706
v 0.03528100 -0.00858306 -0.00511015
v 0.03508597 -0.00741743 -0.00733936
v 0.03504409 -0.00622007 -0.00846550
v 0.03526609 -0.00517713 -0.00850535
v 0.03528387 -0.00176909 -0.00963778
v 0.03507392 0.01040553 -0.00058462
v 0.03425938 0.01072708 0.00054361
v 0.03504696 0.01036745 0.00167604
v 0.03519152 0.00958472 0.00280847
v 0.03506130 0.00961010 0.00384863
v 0.03501140 0.00922932 0.00507124
v 0.03489380 0.00906642 0.00570875
v 0.03425938 -0.01087625 -0.00058462
v 0.03504811 -0.01050604 -0.00171706
v 0.03520700 -0.00971908 -0.00284739
v 0.03425938 0.00810176 0.00701105
v 0.02959123 0.00710960 0.00717462
v 0.02959123 0.00768501 0.00652662
v 0.03354579 0.00908546 0.00573392
v 0.02959123 -0.00672567 0.00775761
v 0.03342017 -0.00816420 0.00693975
v 0.03425938 -0.00767341 0.00755420
v 0.03425938 -0.00820862 0.00698798
v 0.03485996 -0.00916905 0.00566262
v 0.03497182 -0.00932560 0.00507124
v 0.03504868 -0.00973389 0.00385073
v 0.03494658 -0.01038757 0.00280847
v 0.03425938 -0.01076624 0.00167604
v 0.03309607 -0.01069432 0.00054361
v 0.03425938 0.00049871 -0.01073665
v 0.03504983 0.00163473 -0.01039902
v 0.03510719 0.00390676 -0.00950776
v 0.03504582 -0.00176909 -0.01039692
v 0.03425938 -0.00063307 -0.01073036
v 0.03498558 0.00504277 -0.00924143
v 0.03501943 0.00608148 -0.00845711
v 0.03493166 0.00686209 -0.00804608
v 0.03493166 0.00798753 -0.00692624
v 0.03502058 0.00840005 -0.00615241
v 0.03498960 0.00919547 -0.00511015
v 0.03505384 0.00959953 -0.00387496
v 0.03518062 0.00958472 -0.00284739
v 0.03503205 0.01034629 -0.00171706
v 0.03504352 -0.00853864 -0.00615870
v 0.03505843 -0.00972966 -0.00388335
v 0.03499362 -0.00933406 -0.00511015
v 0.03494830 -0.00701761 -0.00806286
v 0.03494027 -0.00813035 -0.00693882
v 0.03486856 -0.00578216 -0.00909673
v 0.03498444 -0.00517713 -0.00924143
v 0.03505040 -0.00393111 -0.00964617
v 0.03519094 -0.00290510 -0.00963778
v 0.03425938 0.01071227 -0.00058462
v 0.03425938 0.01061496 0.00167604
v 0.02959123 0.01034418 -0.00058462
v 0.02959123 0.01034841 0.00054361
v 0.03494199 0.01024898 0.00280847
v 0.03485709 0.01016436 0.00341244
v 0.03425938 0.00948529 0.00507124
v 0.03425938 0.00910662 0.00576328
v 0.03425938 0.00866871 0.00632949
v 0.03309607 -0.01067951 -0.00058462
v 0.03425938 -0.01074932 -0.00171706
v 0.03493970 -0.01038334 -0.00284739
v 0.02959123 0.00811657 0.00596879
v 0.03359111 0.01018975 0.00347745
v 0.02959123 0.00933721 0.00393881
v 0.02959123 0.00903681 0.00454067
v 0.02959123 0.00868987 0.00510689
v 0.02959123 0.00812292 0.00596040
v 0.02959123 -0.00726935 0.00719140
v 0.02959123 -0.00783630 0.00649516
v 0.03359512 -0.00919655 0.00570456
v 0.03425938 -0.00877557 0.00627287
v 0.03425938 -0.00919867 0.00570666
v 0.03425938 -0.00954349 0.00507124
v 0.03485881 -0.01030084 0.00341244
v 0.03425938 -0.01051662 0.00280847
v 0.03361577 -0.01031776 0.00345018
v 0.03342304 -0.01041507 0.00280847
v 0.02959123 -0.00990736 0.00167604
v 0.02959123 -0.00990947 0.00166136
v 0.02959123 -0.01005756 0.00054361
v 0.02959123 -0.01005756 0.00052893
v 0.02959123 -0.01004909 -0.00058462
v 0.02959123 0.00049871 -0.00999219
v 0.03425938 0.00163473 -0.01060873
v 0.03495575 0.00258035 -0.01030256
v 0.03483988 0.00333769 -0.01020399
v 0.03425938 -0.00176909 -0.01060454
v 0.03492937 -0.00290510 -0.01028159
v 0.02959123 -0.00063307 -0.00996073
v 0.03486398 0.00564145 -0.00909253
v 0.03425938 0.00696363 -0.00813416
v 0.03425938 0.00753270 -0.00759311
v 0.03425938 0.00807638 -0.00702690
v 0.03487029 0.00904315 -0.00571621
v 0.03484791 0.01015801 -0.00342828
v 0.03492650 0.01023206 -0.00284739
v 0.03425938 0.01057900 -0.00171706
v 0.03487832 -0.00918598 -0.00572670
v 0.03485537 -0.01029872 -0.00344296
v 0.03425938 -0.00765860 -0.00758053
v 0.03425938 -0.00709165 -0.00812787
v 0.03425938 -0.00819805 -0.00701431
v 0.03425938 -0.00636815 -0.00869409
v 0.03425938 -0.00579909 -0.00910721
v 0.03425938 -0.00517713 -0.00943646
v 0.03484332 -0.00347840 -0.01020609
v 0.03425938 0.01038014 0.00280847
v 0.02959123 0.01021936 0.00140552
v 0.02959123 0.01021725 -0.00137733
v 0.03425938 0.01018975 0.00348164
v 0.03425938 0.00996339 0.00404576
v 0.03345917 -0.01039815 -0.00284739
v 0.03364273 -0.01030295 -0.00345764
v 0.03425938 -0.01049335 -0.00284739
v 0.02959123 -0.00989255 -0.00171706
v 0.02959123 0.01008397 0.00196544
v 0.02959123 0.00981742 0.00280847
v 0.02959123 -0.00817901 0.00592895
v 0.03425938 -0.01006390 0.00402688
v 0.03425938 -0.01031988 0.00346067
v 0.02959123 -0.00859576 0.00507124
v 0.02959123 -0.00900405 0.00416739
v 0.02959123 -0.00925579 0.00360956
v 0.02959123 -0.00957100 0.00280847
v 0.02959123 0.00051564 -0.00999009
v 0.02959123 0.00163473 -0.00984958
v 0.03349302 0.00277074 -0.01029207
v 0.03365478 0.00336942 -0.01021448
v 0.03437468 0.00288498 -0.01033611
v 0.03406434 0.00336942 -0.01021448
v 0.03437468 0.00381156 -0.01001945
v 0.03425938 0.00504277 -0.00945743
v 0.02959123 -0.00175428 -0.00978038
v 0.03425938 -0.00290510 -0.01036547
v 0.03366510 -0.00349109 -0.01021028
v 0.03351539 -0.00290510 -0.01028788
v 0.03425938 0.00568588 -0.00912189
v 0.03425938 0.00625495 -0.00869828
v 0.03358652 0.00568165 -0.00911770
v 0.03339034 0.00691921 -0.00809222
v 0.03339091 0.00803407 -0.00698286
v 0.03425938 0.00864333 -0.00633066
v 0.03357103 0.00906854 -0.00575396
v 0.03425938 0.00907489 -0.00576445
v 0.03425938 0.00942606 -0.00511015
v 0.03425938 0.01017282 -0.00347023
v 0.03425938 0.01034206 -0.00284739
v 0.03425938 0.00993377 -0.00403644
v 0.03362896 0.01017494 -0.00347442
v 0.03425938 -0.00954349 -0.00511015
v 0.03425938 -0.00920713 -0.00575606
v 0.03425938 -0.00876711 -0.00632227
v 0.03425938 -0.01030930 -0.00346813
v 0.03425938 -0.01005544 -0.00403434
v 0.03346261 -0.00814516 -0.00695350
v 0.03347581 -0.00702395 -0.00806705
v 0.03363298 -0.00578005 -0.00909673
v 0.03360774 -0.00919021 -0.00573299
v 0.03425938 -0.00405804 -0.00996702
v 0.03425938 -0.00348898 -0.01021028
v 0.02959123 0.01005012 -0.00194354
v 0.02959123 -0.00956888 -0.00285997
v 0.02959123 -0.00926425 -0.00366106
v 0.02959123 -0.00899347 -0.00422728
v 0.02959123 0.00277074 -0.00956438
v 0.02959123 0.00278343 -0.00956018
v 0.02959123 0.00375867 -0.00922884
v 0.02959123 0.00431928 -0.00900865
v 0.02959123 -0.00290510 -0.00947420
v 0.02959123 -0.00371745 -0.00918061
v 0.02959123 -0.00370687 -0.00918480
v 0.02959123 -0.00428440 -0.00890799
v 0.02959123 0.00504277 -0.00866053
v 0.02959123 0.00592916 -0.00815094
v 0.02959123 0.00648976 -0.00772733
v 0.02959123 0.00707575 -0.00716111
v 0.02959123 0.00708422 -0.00715272
v 0.02959123 0.00764482 -0.00649423
v 0.02959123 0.00925470 -0.00387077
v 0.02959123 0.00805311 -0.00592802
v 0.02959123 0.00856082 -0.00511015
v 0.02959123 0.00895642 -0.00443699
v 0.02959123 0.00972011 -0.00284739
v 0.02959123 -0.00805419 -0.00574347
v 0.02959123 -0.00754859 -0.00630130
v 0.02959123 -0.00697953 -0.00690317
v 0.02959123 -0.00619468 -0.00756165
v 0.02959123 -0.00573774 -0.00793494
v 0.02959123 -0.00527022 -0.00827257
v 0.02959123 -0.00524483 -0.00828935
v 0.02959123 -0.00846671 -0.00511854
v 0.02959123 -0.00806054 -0.00573509
f 1 2 3
f 1 3 4
f 1 4 5
f 1 5 6
f 1 6 7
f 1 7 8
f 1 8 9
f 1 9 2
f 2 10 11
f 2 11 3
f 2 9 10
f 3 11 12
f 3 12 13
f 3 13 14
f 3 14 4
f 4 15 16
f 4 16 5
f 4 14 17
f 4 17 18
f 4 18 19
f 4 19 15
f 5 16 15
f 5 15 29
f 5 29 34
f 5 34 37
f 5 37 36
f 5 36 60
f 5 60 59
f 5 59 58
f 5 58 57
f 5 57 93
f 5 93 135
f 5 135 136
f 5 136 183
f 5 183 188
f 5 188 187
f 5 187 186
f 5 186 185
f 5 185 238
f 5 238 237
f 5 237 229
f 5 229 174
f 5 174 173
f 5 173 230
f 5 230 282
f 5 282 304
f 5 304 300
f 5 300 303
f 5 303 302
f 5 302 301
f 5 301 299
f 5 299 298
f 5 298 297
f 5 297 296
f 5 296 295
f 5 295 294
f 5 294 289
f 5 289 288
f 5 288 287
f 5 287 286
f 5 286 247
f 5 247 246
f 5 246 204
f 5 204 210
f 5 210 254
f 5 254 290
f 5 290 292
f 5 292 291
f 5 291 293
f 5 293 311
f 5 311 310
f 5 310 309
f 5 309 308
f 5 308 307
f 5 307 306
f 5 306 305
f 5 305 313
f 5 313 312
f 5 312 285
f 5 285 284
f 5 284 283
f 5 283 236
f 5 236 203
f 5 203 202
f 5 202 201
f 5 201 200
f 5 200 199
f 5 199 245
f 5 245 244
f 5 244 243
f 5 243 242
f 5 242 239
f 5 239 190
f 5 190 189
f 5 189 138
f 5 138 98
f 5 98 97
f 5 97 95
f 5 95 68
f 5 68 67
f 5 67 66
f 5 66 65
f 5 65 62
f 5 62 38
f 5 38 20
f 5 20 7
f 5 7 6
f 7 20 8
f 8 20 21
f 8 21 22
f 8 22 9
f 9 22 23
f 9 23 24
f 9 24 10
f 10 25 26
f 10 26 11
f 10 24 25
f 11 27 12
f 11 26 27
f 12 27 13
f 13 27 28
f 13 28 14
f 14 28 17
f 15 19 29
f 17 28 30
f 17 30 31
f 17 31 32
f 17 32 33
f 17 33 18
f 18 33 19
f 19 34 29
f 19 33 32
f 19 32 31
f 19 31 35
f 19 35 36
f 19 36 37
f 19 37 34
f 20 38 21
f 21 39 22
f 21 38 40
f 21 40 41
f 21 41 42
f 21 42 39
f 22 39 43
f 22 43 23
f 23 43 44
f 23 44 45
f 23 45 24
f 24 45 46
f 24 46 25
f 25 47 48
f 25 48 49
f 25 49 26
f 25 46 50
f 25 50 47
f 26 49 51
f 26 51 52
f 26 52 27
f 27 52 28
f 28 52 30
f 30 52 53
f 30 53 54
f 30 54 55
f 30 55 56
f 30 56 31
f 31 56 35
f 35 57 58
f 35 58 59
f 35 59 60
f 35 60 36
f 35 56 55
f 35 55 54
f 35 54 61
f 35 61 57
f 38 62 40
f 39 42 63
f 39 63 43
f 40 64 41
f 40 62 65
f 40 65 66
f 40 66 67
f 40 67 68
f 40 68 69
f 40 69 70
f 40 70 64
f 41 64 42
f 42 64 71
f 42 71 70
f 42 70 72
f 42 72 63
f 43 63 44
f 44 63 73
f 44 73 45
f 45 74 75
f 45 75 76
f 45 76 46
f 45 73 74
f 46 76 77
f 46 77 50
f 47 78 79
f 47 79 80
f 47 80 48
f 47 50 81
f 47 81 82
f 47 82 78
f 48 83 84
f 48 84 85
f 48 85 49
f 48 80 83
f 49 85 86
f 49 86 87
f 49 87 51
f 50 77 88
f 50 88 89
f 50 89 90
f 50 90 81
f 51 53 52
f 51 87 91
f 51 91 53
f 53 91 92
f 53 92 54
f 54 92 61
f 57 61 93
f 61 92 94
f 61 94 93
f 63 72 73
f 64 70 71
f 68 95 69
f 69 96 70
f 69 95 97
f 69 97 98
f 69 98 99
f 69 99 100
f 69 100 101
f 69 101 96
f 70 96 72
f 72 96 101
f 72 101 100
f 72 100 102
f 72 102 73
f 73 102 74
f 74 102 103
f 74 103 104
f 74 104 105
f 74 105 75
f 75 105 76
f 76 106 107
f 76 107 77
f 76 105 106
f 77 108 88
f 77 107 108
f 78 109 110
f 78 110 111
f 78 111 79
f 78 82 112
f 78 112 113
f 78 113 109
f 79 111 114
f 79 114 115
f 79 115 116
f 79 116 80
f 80 116 117
f 80 117 118
f 80 118 83
f 81 90 119
f 81 119 120
f 81 120 82
f 82 120 121
f 82 121 122
f 82 122 123
f 82 123 112
f 83 118 124
f 83 124 84
f 84 125 126
f 84 126 85
f 84 124 125
f 85 126 127
f 85 127 86
f 86 127 128
f 86 128 129
f 86 129 87
f 87 129 130
f 87 130 91
f 88 108 131
f 88 131 132
f 88 132 89
f 89 132 133
f 89 133 119
f 89 119 90
f 91 134 92
f 91 130 134
f 92 134 94
f 93 94 135
f 94 136 135
f 94 134 137
f 94 137 136
f 98 138 99
f 99 138 139
f 99 139 140
f 99 140 100
f 100 140 102
f 102 140 103
f 103 140 141
f 103 141 142
f 103 142 104
f 104 142 143
f 104 143 105
f 105 143 144
f 105 144 106
f 106 144 145
f 106 145 107
f 107 145 146
f 107 146 108
f 108 146 147
f 108 147 131
f 109 148 149
f 109 149 110
f 109 113 148
f 110 149 150
f 110 150 114
f 110 114 111
f 112 123 113
f 113 123 151
f 113 151 152
f 113 152 148
f 114 150 153
f 114 153 154
f 114 154 115
f 115 154 155
f 115 155 156
f 115 156 157
f 115 157 117
f 115 117 116
f 117 157 158
f 117 158 159
f 117 159 160
f 117 160 118
f 118 160 161
f 118 161 124
f 119 162 120
f 119 133 163
f 119 163 164
f 119 164 162
f 120 165 121
f 120 162 166
f 120 166 165
f 121 167 168
f 121 168 122
f 121 165 167
f 122 168 169
f 122 169 170
f 122 170 123
f 123 170 151
f 124 161 171
f 124 171 125
f 125 172 126
f 125 171 173
f 125 173 174
f 125 174 172
f 126 172 175
f 126 175 128
f 126 128 127
f 128 175 129
f 129 175 176
f 129 176 130
f 130 176 177
f 130 177 178
f 130 178 179
f 130 179 134
f 131 147 180
f 131 180 181
f 131 181 132
f 132 181 182
f 132 182 163
f 132 163 133
f 134 179 137
f 136 137 183
f 137 178 177
f 137 177 184
f 137 184 185
f 137 185 186
f 137 186 187
f 137 187 188
f 137 188 183
f 137 179 178
f 138 189 139
f 139 141 140
f 139 189 190
f 139 190 191
f 139 191 141
f 141 192 142
f 141 191 192
f 142 193 194
f 142 194 195
f 142 195 143
f 142 192 193
f 143 195 144
f 144 195 145
f 145 195 146
f 146 195 196
f 146 196 197
f 146 197 198
f 146 198 199
f 146 199 200
f 146 200 201
f 146 201 147
f 147 201 202
f 147 202 203
f 147 203 180
f 148 204 205
f 148 205 149
f 148 152 204
f 149 205 206
f 149 206 150
f 150 207 153
f 150 206 207
f 151 208 152
f 151 170 169
f 151 169 209
f 151 209 208
f 152 208 210
f 152 210 204
f 153 207 211
f 153 211 154
f 154 211 155
f 155 212 213
f 155 213 156
f 155 211 212
f 156 213 214
f 156 214 215
f 156 215 157
f 157 215 158
f 158 215 216
f 158 216 159
f 159 216 217
f 159 217 161
f 159 161 160
f 161 217 218
f 161 218 171
f 162 164 219
f 162 219 166
f 163 182 220
f 163 220 164
f 164 220 219
f 165 166 221
f 165 221 222
f 165 222 167
f 166 223 221
f 166 219 223
f 167 222 224
f 167 224 225
f 167 225 226
f 167 226 227
f 167 227 168
f 168 227 169
f 169 227 209
f 171 218 173
f 172 228 176
f 172 176 175
f 172 174 229
f 172 229 184
f 172 184 228
f 173 218 230
f 176 228 231
f 176 231 232
f 176 232 177
f 177 232 184
f 180 203 181
f 181 233 234
f 181 234 235
f 181 235 220
f 181 220 182
f 181 203 236
f 181 236 233
f 184 231 228
f 184 229 237
f 184 237 238
f 184 238 185
f 184 232 231
f 190 239 191
f 191 197 240
f 191 240 194
f 191 194 193
f 191 193 192
f 191 239 197
f 194 240 195
f 195 240 241
f 195 241 196
f 196 241 197
f 197 199 198
f 197 241 240
f 197 239 242
f 197 242 243
f 197 243 244
f 197 244 245
f 197 245 199
f 204 246 205
f 205 246 247
f 205 247 248
f 205 248 249
f 205 249 250
f 205 250 207
f 205 207 206
f 207 250 251
f 207 251 252
f 207 252 253
f 207 253 211
f 208 254 210
f 208 209 227
f 208 227 255
f 208 255 256
f 208 256 257
f 208 257 254
f 211 258 259
f 211 259 212
f 211 253 258
f 212 259 260
f 212 260 261
f 212 261 213
f 213 261 262
f 213 262 214
f 214 263 215
f 214 262 264
f 214 264 263
f 215 265 266
f 215 266 216
f 215 263 265
f 216 267 268
f 216 268 218
f 216 218 217
f 216 266 269
f 216 269 267
f 218 268 270
f 218 270 230
f 219 220 271
f 219 271 272
f 219 272 273
f 219 273 223
f 220 235 274
f 220 274 275
f 220 275 271
f 221 223 276
f 221 276 277
f 221 277 222
f 222 277 278
f 222 278 224
f 223 273 279
f 223 279 276
f 224 278 225
f 225 278 226
f 226 280 227
f 226 278 256
f 226 256 280
f 227 281 255
f 227 280 281
f 230 270 282
f 233 236 234
f 234 275 274
f 234 274 235
f 234 236 283
f 234 283 284
f 234 284 285
f 234 285 279
f 234 279 271
f 234 271 275
f 247 286 249
f 247 249 248
f 249 253 252
f 249 252 251
f 249 251 250
f 249 286 287
f 249 287 288
f 249 288 289
f 249 289 260
f 249 260 253
f 253 260 258
f 254 257 256
f 254 256 290
f 255 281 256
f 256 291 292
f 256 292 290
f 256 281 280
f 256 278 293
f 256 293 291
f 258 260 259
f 260 289 294
f 260 294 295
f 260 295 296
f 260 296 261
f 261 296 297
f 261 297 298
f 261 298 262
f 262 298 299
f 262 299 264
f 263 264 265
f 264 300 270
f 264 270 266
f 264 266 265
f 264 299 301
f 264 301 302
f 264 302 303
f 264 303 300
f 266 270 269
f 267 269 270
f 267 270 268
f 270 300 304
f 270 304 282
f 271 279 272
f 272 279 273
f 276 305 306
f 276 306 307
f 276 307 277
f 276 279 305
f 277 307 308
f 277 308 309
f 277 309 278
f 278 309 310
f 278 310 311
f 278 311 293
f 279 285 312
f 279 312 313
f 279 313 305

o geometry_1
v -0.03087996 0.01063932 -0.00058433
v -0.02971891 0.01063725 -0.00058433
v -0.03087996 0.01054220 -0.00171552
v -0.03204740 0.01054013 -0.00171552
v -0.03204740 0.01063312 -0.00058433
v -0.03204740 0.01060832 0.00054483
v -0.03087996 0.01061246 0.00054483
v -0.02855785 0.01061246 0.00054483
v -0.02739042 0.01060832 0.00054483
v 0.02029583 0.01040995 0.00054483
v 0.01913477 0.01040788 -0.00058433
v -0.03087996 0.01031076 -0.00282855
v -0.03204740 0.01031076 -0.00283460
v -0.02971891 0.01053600 -0.00171552
v -0.03320846 0.01030043 -0.00282049
v -0.03320846 0.01052153 -0.00171552
v -0.03320846 0.01061659 -0.00058433
v -0.03320846 0.01059386 0.00054483
v -0.03204740 0.01046367 0.00167602
v -0.02971891 0.01047194 0.00167602
v -0.02855785 0.01047401 0.00167602
v -0.02739042 0.01047194 0.00167602
v 0.02146326 0.01025703 0.00157318
v 0.02146326 0.01040375 0.00054483
v 0.02029583 0.01040168 -0.00058433
v -0.02971891 0.01014338 -0.00338507
v -0.03087996 0.01014544 -0.00339515
v -0.03204740 0.01014751 -0.00339918
v 0.02029583 0.01025083 -0.00159655
v 0.01913477 0.01012891 -0.00217928
v -0.03320846 0.01014338 -0.00338709
v -0.03436951 0.01023637 -0.00259869
v -0.03436951 0.01039755 -0.00171552
v -0.03436951 0.01050087 -0.00058433
v -0.03436951 0.01048640 0.00054483
v -0.03320846 0.01044921 0.00167602
v -0.03320846 0.01025083 0.00256725
v -0.03204740 0.01025910 0.00259346
v -0.02855785 0.01026736 0.00261363
v 0.01913477 0.01013718 0.00217406
v 0.02029583 0.01025910 0.00159536
v 0.02029583 0.01013305 0.00216196
v 0.02378538 0.01024877 0.00152882
v 0.02959066 0.01034795 0.00054483
v 0.02959066 0.01034382 -0.00058433
v -0.02971891 0.00991194 -0.00397990
v 0.02029583 0.00991814 -0.00284871
v 0.01680628 0.00952965 -0.00397990
v -0.03204740 0.00992227 -0.00397990
v -0.03320846 0.00992021 -0.00397990
v 0.02959066 0.01021777 -0.00136668
v 0.02959066 0.01021570 -0.00137677
v 0.02029583 0.01012478 -0.00216315
v -0.03436951 0.00977556 -0.00397990
v -0.03436951 0.01006692 -0.00316528
v -0.03497556 0.01017024 -0.00235470
v -0.03503297 0.01021984 -0.00171552
v -0.03509677 0.01027563 -0.00058433
v -0.03509039 0.01027150 0.00054483
v -0.03445882 0.01030663 0.00176070
v -0.03503297 0.01021777 0.00144010
v -0.03412709 0.01021364 0.00244224
v -0.03320846 0.01007312 0.00313183
v -0.03204740 0.01008345 0.00315805
v -0.02971891 0.01008759 0.00317216
v -0.02855785 0.01008759 0.00318023
v 0.01331673 0.00998426 0.00280720
v 0.01913477 0.00995327 0.00280720
v 0.02029583 0.00994500 0.00280720
v 0.02378538 0.01011652 0.00209340
v 0.02959066 0.01021984 0.00139977
v -0.02855785 0.00936227 -0.00511108
v -0.02971891 0.00936847 -0.00511108
v -0.03204740 0.00938087 -0.00511108
v 0.01564523 0.00916390 -0.00484089
v 0.01331673 0.00917216 -0.00486307
v 0.01215568 0.00917630 -0.00487315
v 0.02959066 0.01005039 -0.00194337
v 0.02146326 0.00989541 -0.00284871
v 0.02029583 0.00949039 -0.00397990
v 0.01913477 0.00950486 -0.00397990
v -0.03320846 0.00938294 -0.00511108
v -0.03430572 0.00924655 -0.00516149
v -0.03509039 0.00915563 -0.00481871
v -0.03519884 0.00932714 -0.00397990
v -0.03520522 0.00963504 -0.00277814
v -0.03534556 0.00958338 -0.00171552
v -0.03540936 0.00958338 -0.00058433
v -0.03540298 0.00958338 0.00054483
v -0.03490538 0.01013511 0.00219422
v -0.03524349 0.00968877 0.00176070
v -0.03523711 0.00945319 0.00280720
v -0.03513504 0.00922795 0.00393838
v -0.03445882 0.01001319 0.00281526
v -0.03436951 0.00958131 0.00393838
v -0.03320846 0.00973423 0.00393838
v -0.03204740 0.00974663 0.00393838
v -0.02971891 0.00975696 0.00393838
v -0.02855785 0.00975696 0.00393838
v 0.01215568 0.00959371 0.00393838
v 0.02029583 0.00951932 0.00393838
v 0.02146326 0.00993054 0.00280720
v 0.02959066 0.01008139 0.00197646
v -0.02855785 0.00903165 -0.00569784
v 0.01331673 0.00888700 -0.00542967
v 0.01215568 0.00889113 -0.00543773
v -0.03204740 0.00903784 -0.00570591
v -0.02971891 0.00903371 -0.00570188
v -0.03087996 0.00903578 -0.00570389
v 0.01680628 0.00915770 -0.00482677
v 0.02959066 0.00972183 -0.00284871
v 0.02146326 0.00946559 -0.00397990
v 0.02146326 0.00911844 -0.00474612
v 0.02029583 0.00912877 -0.00476830
v -0.03320846 0.00903784 -0.00570793
v -0.03387830 0.00903165 -0.00569784
v -0.03465021 0.00894486 -0.00557283
v -0.03496280 0.00789098 -0.00681894
v -0.03510314 0.00811829 -0.00624226
v -0.03526901 0.00851917 -0.00516149
v -0.03550505 0.00844892 -0.00397990
v -0.03554970 0.00844892 -0.00284871
v -0.03553695 0.00844892 0.00167602
v -0.03553057 0.00844892 0.00280720
v -0.03543487 0.00844892 0.00393838
v -0.03502021 0.00907711 0.00460782
v -0.03519884 0.00844478 0.00501916
v -0.03436951 0.00917423 0.00475904
v -0.03320846 0.00924449 0.00486390
v -0.03204740 0.00924862 0.00486793
v -0.02971891 0.00925482 0.00487801
v -0.02855785 0.00925482 0.00487599
v 0.01098824 0.00918663 0.00478929
v 0.01215568 0.00918456 0.00478526
v 0.02029583 0.00913910 0.00471872
v 0.02146326 0.00913083 0.00470460
v 0.02146326 0.00950072 0.00393838
v 0.02959066 0.00981069 0.00282333
v 0.02959066 0.00981688 0.00280720
v 0.01215568 0.00839932 -0.00624226
v 0.01215568 0.00795711 -0.00689758
v 0.01331673 0.00838486 -0.00624226
v 0.01680628 0.00886427 -0.00539337
v -0.03204740 0.00858117 -0.00627251
v 0.01098824 0.00795917 -0.00690162
v 0.02959066 0.00925482 -0.00387101
v 0.02495281 0.00907297 -0.00465941
v 0.02378538 0.00940567 -0.00397990
v 0.02262432 0.00943666 -0.00397990
v 0.02378538 0.00908950 -0.00469571
v 0.02262432 0.00910397 -0.00472192
v 0.02146326 0.00882087 -0.00531272
v 0.02029583 0.00883327 -0.00533490
v 0.02378538 0.00880021 -0.00526029
v -0.03320846 0.00857910 -0.00627453
v -0.03436951 0.00795297 -0.00688347
v -0.03320846 0.00801290 -0.00694598
v -0.03487986 0.00672552 -0.00792190
v -0.03513504 0.00596921 -0.00818604
v -0.03510953 0.00731238 -0.00708511
v -0.03540298 0.00731238 -0.00624226
v -0.03554970 0.00731238 -0.00511108
v -0.03557522 0.00163593 -0.00850665
v -0.03556884 0.00390693 0.00733395
v -0.03553695 0.00617792 0.00620276
v -0.03551781 0.00731238 0.00507158
v -0.03526263 0.00734131 0.00622293
v -0.03509677 0.00806456 0.00585998
v -0.03436951 0.00879607 0.00532564
v -0.03320846 0.00886840 0.00542848
v -0.02971891 0.00887666 0.00544259
v -0.02855785 0.00887666 0.00544259
v 0.01098824 0.00882914 0.00535387
v 0.01215568 0.00882707 0.00534984
v 0.02029583 0.00879607 0.00528330
v 0.02146326 0.00878987 0.00526919
v 0.02262432 0.00877954 0.00524902
v 0.02262432 0.00911844 0.00468444
v 0.02959066 0.00933334 0.00394846
v 0.01215568 0.00739297 -0.00746418
v 0.01098824 0.00740124 -0.00746822
v 0.01331673 0.00794678 -0.00688750
v 0.02378538 0.00675652 -0.00795013
v 0.01680628 0.00833320 -0.00624226
v 0.01913477 0.00829187 -0.00624226
v -0.02855785 0.00801083 -0.00694396
v -0.03087996 0.00801290 -0.00694598
v -0.03204740 0.00801290 -0.00694799
v 0.02959066 0.00895725 -0.00443560
v 0.02495281 0.00878367 -0.00522601
v 0.02495281 0.00821541 -0.00617572
v -0.03410158 0.00680611 -0.00799046
v -0.03443969 0.00723593 -0.00753677
v -0.03320846 0.00740331 -0.00751056
v -0.03443969 0.00627918 -0.00830703
v -0.03436951 0.00536582 -0.00892807
v -0.03504573 0.00464257 -0.00915592
v -0.03524349 0.00502899 -0.00854092
v -0.03530091 0.00627918 -0.00747628
v -0.03554970 0.00504139 -0.00737345
v -0.03554970 0.00617792 -0.00624226
v -0.03558160 -0.00063506 -0.00850665
v -0.03555609 0.00277040 -0.00850665
v -0.03526901 0.00163593 -0.00954911
v -0.03557522 -0.00176953 0.00846513
v -0.03556884 0.00049940 0.00846513
v -0.03556246 0.00163593 0.00846513
v -0.03553695 0.00277040 0.00846513
v -0.03552419 0.00504139 0.00733395
v -0.03525625 0.00618619 0.00735411
v -0.03510953 0.00697969 0.00699116
v -0.03436951 0.00773807 0.00661612
v -0.03436951 0.00822781 0.00605154
v -0.03320846 0.00830013 0.00612816
v -0.02971891 0.00830840 0.00614227
v -0.02855785 0.00830840 0.00614227
v -0.00645312 0.00783312 0.00671492
v -0.00645312 0.00828154 0.00614832
v 0.01098824 0.00826087 0.00612816
v 0.01215568 0.00825880 0.00612413
v 0.01913477 0.00823194 0.00610598
v 0.02029583 0.00822781 0.00610195
v 0.02146326 0.00822161 0.00609388
v 0.02262432 0.00821128 0.00607977
v 0.02959066 0.00812242 0.00596080
v 0.02959066 0.00869069 0.00510586
v 0.02959066 0.00903784 0.00454128
v 0.01680628 0.00680198 -0.00798844
v 0.01098824 0.00683504 -0.00801465
v 0.00982718 0.00683917 -0.00802070
v 0.00866613 0.00684331 -0.00802272
v 0.01680628 0.00791785 -0.00685322
v 0.01913477 0.00789718 -0.00682903
v 0.01988754 0.00788892 -0.00681894
v 0.02444246 0.00674825 -0.00794206
v 0.02378538 0.00617792 -0.00832719
v 0.02262432 0.00617792 -0.00834735
v 0.02146326 0.00617792 -0.00836348
v 0.01913477 0.00617792 -0.00839171
v 0.01796734 0.00617792 -0.00840583
v -0.02971891 0.00740744 -0.00751258
v -0.03204740 0.00740331 -0.00751258
v 0.02959066 0.00856050 -0.00511108
v 0.02611387 0.00818441 -0.00613943
v 0.02611387 0.00875268 -0.00516149
v 0.02611387 0.00780419 -0.00670603
v 0.02495281 0.00783106 -0.00674232
v -0.03320846 0.00617792 -0.00848447
v -0.03320846 0.00683504 -0.00801465
v -0.02971891 0.00684124 -0.00801868
v -0.03436951 0.00479755 -0.00923052
v -0.03320846 0.00542988 -0.00897646
v -0.03516056 0.00390693 -0.00928698
v -0.03436951 0.00390693 -0.00957935
v -0.03436951 0.00277040 -0.00989189
v -0.03547315 0.00390693 -0.00850665
v -0.03557522 -0.00176953 -0.00850665
v -0.03557522 -0.00404052 -0.00737345
v -0.03556884 -0.00858251 -0.00171552
v -0.03556884 -0.00858251 0.00054483
v -0.03526901 -0.00176953 -0.00954306
v -0.03524987 0.00277040 -0.00943619
v -0.03495642 0.00001173 -0.01020644
v -0.03521159 0.00043328 -0.00973663
v -0.03556246 -0.00744805 0.00393838
v -0.03556246 -0.00404052 0.00733395
v -0.03554333 -0.00290606 0.00846513
v -0.03526901 -0.00176953 0.00948945
v -0.03521159 -0.00055861 0.00969108
v -0.03526263 0.00163593 0.00949146
v -0.03523074 0.00277040 0.00936040
v -0.03540298 0.00390693 0.00846513
v -0.03516694 0.00494220 0.00844497
v -0.03509039 0.00581423 0.00805379
v -0.03436951 0.00655608 0.00773722
v -0.03436951 0.00717187 0.00717062
v -0.03320846 0.00781039 0.00669476
v -0.02971891 0.00782279 0.00670686
v -0.02855785 0.00782486 0.00670887
v -0.00761418 0.00783312 0.00671492
v -0.00761418 0.00726692 0.00729564
v -0.00645312 0.00726692 0.00729362
v 0.00982718 0.00725039 0.00728152
v 0.01098824 0.00781659 0.00669476
v 0.01913477 0.00780213 0.00667258
v 0.02029583 0.00779799 0.00666653
v 0.02146326 0.00778973 0.00665846
v 0.02262432 0.00777940 0.00664637
v 0.02959066 0.00811622 0.00596887
v 0.01680628 0.00617792 -0.00841591
v 0.01215568 0.00617792 -0.00845624
v 0.01098824 0.00617792 -0.00846632
v 0.00982718 0.00617792 -0.00847438
v 0.00866613 0.00617792 -0.00847842
v -0.02971891 0.00617792 -0.00848648
v 0.00749869 0.00684331 -0.00802272
v 0.02487626 0.00716154 -0.00747830
v 0.02522075 0.00672759 -0.00792593
v 0.02487626 0.00628124 -0.00822637
v 0.02378538 0.00520050 -0.00888371
v 0.02262432 0.00523977 -0.00889782
v 0.02146326 0.00526870 -0.00890790
v 0.02029583 0.00528936 -0.00891799
v 0.01913477 0.00530176 -0.00892403
v 0.01796734 0.00531002 -0.00893008
v 0.01215568 0.00535755 -0.00895428
v 0.02959066 0.00805216 -0.00592973
v 0.02727493 0.00813895 -0.00607490
v 0.02611387 0.00723799 -0.00732707
v 0.02727493 0.00775873 -0.00664150
v 0.02727493 0.00719047 -0.00727666
v -0.03320846 0.00486161 -0.00926077
v -0.03320846 0.00390693 -0.00964993
v 0.00866613 0.00536582 -0.00896033
v -0.03479055 0.00076804 -0.01017822
v -0.03320846 0.00277040 -0.00997859
v -0.03438865 0.00160907 -0.01011369
v -0.03401226 0.00121232 -0.01022258
v -0.03555609 -0.00290606 -0.00850665
v -0.03556884 -0.00744805 -0.00397990
v -0.03554970 -0.00517705 -0.00737345
v -0.03555609 -0.00631152 -0.00624226
v -0.03554970 -0.00858251 -0.00284871
v -0.03526263 -0.00966325 -0.00171552
v -0.03556246 -0.00858251 0.00167602
v -0.03521159 -0.00056067 -0.00973260
v -0.03495642 -0.00013499 -0.01020644
v -0.03524349 -0.00290606 -0.00942611
v -0.03438865 0.00043328 -0.01024072
v -0.03552419 -0.00858251 0.00280720
v -0.03550505 -0.00744805 0.00507158
v -0.03553057 -0.00631152 0.00620276
v -0.03552419 -0.00517705 0.00733395
v -0.03540298 -0.00404052 0.00846513
v -0.03523074 -0.00290606 0.00935435
v -0.03495642 -0.00012879 0.01016694
v -0.03520522 0.00042708 0.00969310
v -0.03495642 0.00000139 0.01016694
v -0.03509039 0.00390693 0.00916884
v -0.03478418 0.00075564 0.01013267
v -0.03496918 0.00449586 0.00904383
v -0.03436951 0.00598988 0.00818284
v -0.03320846 0.00662840 0.00780376
v -0.03320846 0.00724213 0.00723716
v -0.02971891 0.00725659 0.00724523
v -0.00994267 0.00670072 0.00786022
v -0.00878161 0.00670279 0.00786224
v -0.00645312 0.00670072 0.00786022
v 0.00982718 0.00668626 0.00784610
v 0.01796734 0.00667386 0.00783804
v 0.01913477 0.00723386 0.00726942
v 0.02029583 0.00722973 0.00726337
v 0.02146326 0.00722146 0.00725531
v 0.02262432 0.00721113 0.00724321
v 0.02959066 0.00710988 0.00717465
v 0.02959066 0.00768434 0.00652740
v 0.01098824 0.00536582 -0.00895630
v 0.02611387 0.00668419 -0.00789367
v 0.02611387 0.00611799 -0.00826468
v 0.02495281 0.00514678 -0.00886153
v 0.02378538 0.00463224 -0.00913979
v 0.02262432 0.00467150 -0.00915793
v 0.02146326 0.00470043 -0.00917003
v 0.02029583 0.00472110 -0.00918011
v 0.01913477 0.00473349 -0.00918616
v 0.01098824 0.00479755 -0.00921036
v 0.01331673 0.00478102 -0.00920431
v 0.02959066 0.00764921 -0.00648624
v 0.02959066 0.00764301 -0.00649431
v 0.02959066 0.00707681 -0.00716173
v -0.03087996 0.00277040 -0.00997658
v -0.03204740 0.00277040 -0.00997859
v 0.01215568 0.00390693 -0.00951281
v -0.03320846 0.00185910 -0.01015604
v -0.03204740 0.00187357 -0.01015805
v -0.03320846 0.00129084 -0.01023266
v -0.03320846 0.00049940 -0.01029315
v -0.03546039 -0.00404052 -0.00850665
v -0.03554333 -0.00744805 -0.00511108
v -0.03528815 -0.00636938 -0.00743595
v -0.03528177 -0.00750797 -0.00629671
v -0.03544126 -0.00858251 -0.00397990
v -0.03523711 -0.00953306 -0.00284871
v -0.03520522 -0.00983063 -0.00064886
v -0.03520522 -0.00980996 0.00047628
v -0.03494366 -0.01028317 -0.00106826
v -0.03525625 -0.00960332 0.00167602
v -0.03437589 -0.00056067 -0.01023871
v -0.03476503 -0.00089130 -0.01017418
v -0.03514780 -0.00404052 -0.00926480
v -0.03537746 -0.00858251 0.00393838
v -0.03521798 -0.00946694 0.00280720
v -0.03524349 -0.00746458 0.00620075
v -0.03525625 -0.00632392 0.00735411
v -0.03517332 -0.00507993 0.00844900
v -0.03509039 -0.00404052 0.00916481
v -0.03477142 -0.00088717 0.01013065
v -0.03437589 -0.00055861 0.01020727
v -0.03438865 0.00042708 0.01020727
v -0.03436951 0.00277040 0.00977980
v -0.03400588 0.00120612 0.01018509
v -0.03438865 0.00160493 0.01005403
v -0.03436951 0.00390693 0.00938459
v -0.03436951 0.00458058 0.00909020
v -0.03436951 0.00514678 0.00874944
v -0.03320846 0.00606013 0.00823526
v -0.01808283 0.00611180 0.00828971
v -0.01808283 0.00668006 0.00784409
v -0.00878161 0.00613453 0.00831390
v 0.00982718 0.00611799 0.00830382
v 0.01680628 0.00610560 0.00829172
v 0.01796734 0.00610560 0.00828769
v 0.01913477 0.00610146 0.00828567
v 0.01913477 0.00666973 0.00783401
v 0.02029583 0.00666353 0.00782997
v 0.02146326 0.00665526 0.00782191
v 0.02959066 0.00656641 0.00773319
v 0.02727493 0.00661807 -0.00784124
v 0.02959066 0.00592995 -0.00814975
v 0.02959066 0.00592168 -0.00815580
v 0.02959066 0.00504139 -0.00865989
v 0.02495281 0.00457851 -0.00911559
v 0.02959066 0.00432848 -0.00900469
v 0.02378538 0.00390693 -0.00939183
v 0.02262432 0.00390693 -0.00942813
v 0.02959066 0.00375194 -0.00923254
v 0.02146326 0.00390693 -0.00945434
v 0.02029583 0.00390693 -0.00947047
v 0.01913477 0.00390693 -0.00947854
v 0.02959066 0.00648995 -0.00772833
v -0.03087996 0.00187150 -0.01015604
v 0.02029583 0.00277040 -0.00978502
v -0.03204740 0.00130530 -0.01023669
v -0.03087996 0.00130530 -0.01023669
v -0.03204740 0.00049940 -0.01029718
v -0.03204740 -0.00063506 -0.01029517
v -0.03320846 -0.00063506 -0.01028912
v -0.03523074 -0.00513779 -0.00852278
v -0.03512228 -0.00603048 -0.00815580
v -0.03513504 -0.00716908 -0.00710124
v -0.03511590 -0.00821882 -0.00595392
v -0.03521159 -0.00859078 -0.00506067
v -0.03512866 -0.00934295 -0.00397990
v -0.03496280 -0.01029144 -0.00031414
v -0.03496280 -0.01029144 0.00005284
v -0.03436951 -0.01001041 -0.00284871
v -0.03447796 -0.01023978 -0.00181633
v -0.03416537 -0.01033483 -0.00150581
v -0.03447796 -0.01035757 -0.00064886
v -0.03501383 -0.00920657 -0.00464933
v -0.03398674 -0.00131492 -0.01022056
v -0.03437589 -0.00172407 -0.01010159
v -0.03436951 -0.00290606 -0.00985963
v -0.03502659 -0.00473484 -0.00913777
v -0.03506487 -0.00927063 0.00393838
v -0.03515418 -0.00855152 0.00495866
v -0.03475228 -0.01024804 0.00080696
v -0.03507763 -0.00815270 0.00582369
v -0.03511590 -0.00709676 0.00699116
v -0.03509677 -0.00595403 0.00805984
v -0.03496918 -0.00463565 0.00904584
v -0.03436951 -0.00290606 0.00975964
v -0.03437589 -0.00172613 0.01004798
v -0.03399313 -0.00131905 0.01018509
v -0.03320846 -0.00063506 0.01027180
v -0.03320846 0.00049940 0.01027381
v -0.03320846 0.00185291 0.01010242
v -0.03320846 0.00277040 0.00987256
v -0.03320846 0.00128671 0.01019921
v -0.03320846 0.00390693 0.00946323
v -0.03320846 0.00465084 0.00912852
v -0.03320846 0.00521910 0.00879985
v -0.01808283 0.00532449 0.00885631
v -0.01692177 0.00533276 0.00886034
v -0.00878161 0.00534309 0.00887849
v 0.00866613 0.00535755 0.00887042
v 0.01564523 0.00533689 0.00886034
v 0.01913477 0.00532036 0.00885026
v 0.02029583 0.00609733 0.00827761
v 0.01680628 0.00533276 0.00885832
v 0.02146326 0.00608700 0.00826954
v 0.02611387 0.00603740 0.00824333
v 0.02959066 0.00599814 0.00821712
v 0.02959066 0.00277040 -0.00956524
v 0.02262432 0.00277040 -0.00975478
v 0.02146326 0.00277040 -0.00977494
v 0.02029583 0.00163593 -0.01001086
v 0.02146326 0.00163593 -0.01000481
v -0.03087996 0.00049940 -0.01030121
v 0.00982718 0.00077010 -0.01016612
v 0.00982718 0.00020184 -0.01023669
v -0.03087996 -0.00063506 -0.01029718
v -0.03087996 -0.00139964 -0.01023467
v -0.03204740 -0.00139551 -0.01023266
v -0.03320846 -0.00137897 -0.01023064
v -0.03436951 -0.00623093 -0.00831106
v -0.03436951 -0.00679919 -0.00786544
v -0.03436951 -0.00736539 -0.00730086
v -0.03436951 -0.00793366 -0.00671611
v -0.03436951 -0.00836554 -0.00614951
v -0.03436951 -0.01034103 0.00047628
v -0.03436951 -0.00961779 -0.00397990
v -0.03313828 -0.01014472 -0.00273580
v -0.03348277 -0.01028317 -0.00225994
v -0.03313828 -0.01034930 -0.00181633
v -0.03320846 -0.01046295 -0.00058433
v -0.03436951 -0.00893380 -0.00532885
v -0.03436951 -0.00927063 -0.00476225
v -0.03320846 -0.00194724 -0.01014192
v -0.03320846 -0.00290606 -0.00994230
v -0.03436951 -0.00404052 -0.00952693
v -0.03436951 -0.00485676 -0.00920028
v -0.03436951 -0.00542502 -0.00887564
v -0.03436951 -0.00986782 0.00280720
v -0.03495004 -0.00915078 0.00450498
v -0.03398037 -0.01030797 0.00121830
v -0.03436951 -0.01016126 0.00162762
v -0.03436951 -0.00826015 0.00596685
v -0.03436951 -0.00781380 0.00653143
v -0.03436951 -0.00724554 0.00714441
v -0.03436951 -0.00666901 0.00771101
v -0.03436951 -0.00610281 0.00817477
v -0.03436951 -0.00527004 0.00874137
v -0.03436951 -0.00470178 0.00908214
v -0.03436951 -0.00404052 0.00936645
v -0.03320846 -0.00290606 0.00984231
v -0.03320846 -0.00195757 0.01008831
v -0.03320846 -0.00138931 0.01019921
v -0.03204740 -0.00063506 0.01027986
v -0.03204740 0.00049940 0.01027986
v -0.03204740 0.00129910 0.01020324
v -0.03204740 0.00186737 0.01010242
v -0.02157237 0.00277040 0.00991288
v -0.01692177 0.00390693 0.00956405
v -0.01808283 0.00390693 0.00955800
v -0.01692177 0.00476449 0.00919102
v -0.01808283 0.00475622 0.00918699
v -0.01576071 0.00476656 0.00919304
v 0.00866613 0.00479135 0.00920917
v 0.01564523 0.00476862 0.00919707
v 0.01913477 0.00475209 0.00918497
v 0.02029583 0.00474383 0.00918094
v 0.02029583 0.00531002 0.00884421
v 0.01680628 0.00476449 0.00919304
v 0.02611387 0.00524597 0.00880993
v 0.02959066 0.00521290 0.00878372
v 0.02959066 0.00598781 0.00822518
v 0.02959066 0.00163593 -0.00984955
v 0.02262432 0.00163593 -0.00998868
v 0.02029583 0.00049940 -0.01014999
v 0.01098824 0.00018531 -0.01023467
v 0.01098824 0.00075357 -0.01016410
v 0.02146326 0.00049940 -0.01013990
v 0.00982718 -0.00063506 -0.01024072
v 0.00982718 -0.00123019 -0.01020644
v -0.03087996 -0.00196790 -0.01014394
v -0.03204740 -0.00196377 -0.01014394
v 0.00982718 -0.00179846 -0.01014192
v -0.03320846 -0.00629085 -0.00835340
v -0.03320846 -0.00685912 -0.00792190
v -0.03320846 -0.00741912 -0.00735732
v -0.03320846 -0.00798532 -0.00677257
v -0.03320846 -0.00840893 -0.00620799
v -0.03320846 -0.01042369 0.00054483
v -0.03320846 -0.00969838 -0.00397990
v -0.03204740 -0.01011166 -0.00285275
v -0.03271086 -0.01028731 -0.00228413
v -0.03204740 -0.01036790 -0.00171552
v -0.03204740 -0.01047122 -0.00058433
v -0.03204740 -0.01043816 0.00054483
v -0.03320846 -0.00897513 -0.00538732
v -0.03320846 -0.00930369 -0.00482072
v -0.03320846 -0.00404052 -0.00959549
v -0.03204740 -0.00290606 -0.00994432
v -0.03320846 -0.00491255 -0.00922851
v -0.03320846 -0.00548082 -0.00892000
v -0.03320846 -0.01020465 0.00185951
v -0.03320846 -0.00995255 0.00280720
v -0.03436951 -0.00946074 0.00393838
v -0.03436951 -0.00918177 0.00455942
v -0.03436951 -0.00882841 0.00512401
v -0.03320846 -0.01032450 0.00129291
v -0.03320846 -0.00886561 0.00517643
v -0.03320846 -0.00829735 0.00601121
v -0.03320846 -0.00785100 0.00657579
v -0.03320846 -0.00728480 0.00718070
v -0.03320846 -0.00670414 0.00774529
v -0.03320846 -0.00613587 0.00820300
v -0.03320846 -0.00531550 0.00876960
v -0.03320846 -0.00474724 0.00910835
v -0.03320846 -0.00404052 0.00942694
v -0.00994267 -0.00290606 0.00988869
v -0.03204740 -0.00197410 0.01009032
v 0.00633764 -0.00404052 0.00956607
v -0.03204740 -0.00140584 0.01020324
v -0.00761418 -0.00063506 0.01028994
v -0.00645312 0.00049940 0.01029801
v -0.00645312 0.00136730 0.01021131
v -0.00645312 0.00193350 0.01011855
v -0.02041132 0.00277040 0.00991490
v -0.01576071 0.00390693 0.00956607
v 0.00866613 0.00390693 0.00959631
v 0.01564523 0.00390693 0.00956808
v 0.02029583 0.00390693 0.00953985
v 0.01680628 0.00390693 0.00956203
v 0.02146326 0.00473143 0.00917489
v 0.02959066 0.00464464 0.00912650
v 0.02959066 0.00051387 -0.00999069
v 0.01746336 -0.00006473 -0.01020241
v 0.02146326 -0.00063506 -0.01015200
v 0.01746336 -0.00006680 -0.01020241
v 0.01215568 -0.00053794 -0.01022862
v 0.01109031 -0.00074665 -0.01022862
v 0.01154963 -0.00119920 -0.01020241
v 0.01077134 -0.00121986 -0.01020443
v 0.01109031 -0.00166621 -0.01015402
v 0.00982718 -0.00290606 -0.00993827
v 0.01215568 -0.00176953 -0.01012982
v 0.01215568 -0.00290606 -0.00993020
v 0.01098824 -0.00290606 -0.00993625
v -0.03204740 -0.00629292 -0.00835139
v -0.03204740 -0.00686118 -0.00792392
v -0.03204740 -0.00741912 -0.00735732
v -0.03204740 -0.00798738 -0.00677458
v -0.03087996 -0.00798738 -0.00677458
v -0.03087996 -0.00840687 -0.00620799
v -0.02971891 -0.00897513 -0.00538329
v -0.03204740 -0.01033483 0.00132517
v -0.03087996 -0.00969424 -0.00397990
v -0.02971891 -0.00930163 -0.00481871
v -0.02971891 -0.00969218 -0.00397990
v -0.03087996 -0.01010959 -0.00285073
v -0.03026754 -0.01028731 -0.00228413
v -0.03087996 -0.01028731 -0.00228615
v -0.03204740 -0.01028731 -0.00228615
v 0.01564523 -0.01046502 -0.00058433
v 0.01680628 -0.01046915 0.00054483
v 0.01564523 -0.01046915 0.00054483
v -0.03087996 -0.01033690 0.00134130
v 0.00749869 -0.00404052 -0.00955516
v 0.01215568 -0.00404052 -0.00954911
v 0.01331673 -0.00404052 -0.00954709
v 0.01447779 -0.00481130 -0.00919019
v 0.01564523 -0.00537543 -0.00883531
v -0.03204740 -0.01020672 0.00189177
v -0.03087996 -0.01021085 0.00190790
v -0.03204740 -0.00995461 0.00280720
v -0.03320846 -0.00952893 0.00393838
v -0.03320846 -0.00921070 0.00460983
v -0.03087996 -0.00886768 0.00518248
v 0.02146326 -0.00838000 0.00618865
v 0.02262432 -0.00800805 0.00675928
v 0.02029583 -0.00800185 0.00675122
v 0.02029583 -0.00743358 0.00729160
v 0.01913477 -0.00682605 0.00785619
v 0.01913477 -0.00625779 0.00828769
v 0.00633764 -0.00545602 0.00884219
v 0.00633764 -0.00488775 0.00919506
v -0.00994267 -0.00201956 0.01010645
v -0.01110373 -0.00201543 0.01010645
v -0.00412463 -0.00290606 0.00988869
v 0.01098824 -0.00489809 0.00919707
v 0.01564523 -0.00404052 0.00956607
v -0.00994267 -0.00145130 0.01020727
v -0.00761418 -0.00144097 0.01020526
v -0.00645312 -0.00063506 0.01028793
v 0.00051959 0.00049940 0.01028994
v 0.00168703 0.00135696 0.01021131
v -0.00064146 0.00136110 0.01021131
v -0.00645312 0.00277040 0.00992700
v -0.01576071 0.00277040 0.00991893
v -0.00064146 0.00192936 0.01011654
v 0.00866613 0.00277040 0.00993708
v 0.01913477 0.00277040 0.00990280
v 0.02029583 0.00277040 0.00989877
v 0.02146326 0.00277040 0.00989272
v 0.02378538 0.00277040 0.00987457
v 0.02959066 0.00277040 0.00982820
v 0.02959066 0.00390693 0.00944710
v 0.02959066 0.00049940 -0.00999069
v 0.02146326 -0.00176953 -0.01005320
v 0.02029583 -0.00063506 -0.01016208
v 0.02959066 -0.00063506 -0.00996045
v 0.02146326 -0.00290606 -0.00985963
v 0.02029583 -0.00404052 -0.00951483
v 0.01564523 -0.00613380 -0.00826871
v -0.03087996 -0.00685705 -0.00792190
v -0.02971891 -0.00741705 -0.00735127
v -0.03087996 -0.00741912 -0.00735530
v -0.02971891 -0.00798532 -0.00677257
v -0.02971891 -0.00840687 -0.00620597
v -0.02855785 -0.00929956 -0.00481467
v 0.02029583 -0.00828081 -0.00601845
v 0.02146326 -0.00884495 -0.00517359
v 0.02146326 -0.00918591 -0.00460699
v 0.02262432 -0.00945041 -0.00397990
v 0.02378538 -0.00987816 -0.00284871
v 0.02378538 -0.01018192 -0.00184860
v 0.01913477 -0.01033897 -0.00134249
v 0.01680628 -0.01034310 -0.00135660
v 0.01680628 -0.01046295 -0.00058433
v 0.01796734 -0.01046295 0.00054483
v 0.02146326 -0.01033483 0.00129492
v 0.01796734 -0.01034723 0.00132517
v 0.01680628 -0.01034930 0.00132718
v 0.02029583 -0.00478650 -0.00917810
v 0.01796734 -0.00536303 -0.00882725
v 0.01680628 -0.00612967 -0.00826670
v -0.03087996 -0.00995668 0.00280720
v 0.00168703 -0.01019638 0.00189782
v -0.03087996 -0.00921277 0.00461588
v 0.02146326 -0.00949174 0.00393838
v 0.02146326 -0.00921484 0.00464814
v 0.02146326 -0.00894827 0.00521273
v 0.02262432 -0.00837794 0.00619268
v 0.02378538 -0.00800391 0.00675323
v 0.02378538 -0.00743565 0.00728959
v 0.02262432 -0.00743978 0.00728959
v 0.02029583 -0.00682812 0.00785820
v 0.02029583 -0.00625986 0.00828769
v 0.01098824 -0.00546428 0.00885026
v 0.00749869 -0.00545809 0.00884421
v -0.00878161 -0.00201750 0.01010645
v 0.01564523 -0.00290606 0.00988465
v 0.02727493 -0.00290606 0.00988062
v 0.02378538 -0.00546015 0.00885429
v 0.02495281 -0.00546015 0.00885429
v 0.01564523 -0.00489395 0.00919707
v 0.02495281 -0.00489189 0.00919304
v 0.02495281 -0.00404052 0.00955800
v 0.02959066 -0.00178399 0.01007218
v 0.02959066 -0.00176953 0.01007419
v 0.02959066 -0.00108348 0.01015485
v 0.02959066 -0.00052348 0.01019316
v 0.02146326 0.00049940 0.01023349
v 0.02146326 0.00124538 0.01018913
v 0.02029583 0.00125778 0.01019114
v 0.00866613 0.00188184 0.01011654
v 0.00284809 0.00191490 0.01011654
v 0.02029583 0.00182604 0.01010645
v 0.02146326 0.00181364 0.01010444
v 0.02959066 0.00275593 0.00983223
v 0.02262432 -0.00176953 -0.01002295
v 0.02959066 -0.00176953 -0.00977696
v 0.02262432 -0.00290606 -0.00982737
v 0.02146326 -0.00404052 -0.00950071
v 0.02146326 -0.00477410 -0.00917003
v 0.01215568 -0.00671240 -0.00778680
v 0.01215568 -0.00728273 -0.00722020
v 0.01215568 -0.00785100 -0.00661328
v 0.01913477 -0.00782620 -0.00658908
v 0.02029583 -0.00782000 -0.00658505
v 0.02146326 -0.00827668 -0.00601038
v 0.02262432 -0.00883461 -0.00516956
v 0.02262432 -0.00918177 -0.00460296
v 0.02378538 -0.00943801 -0.00397990
v 0.02495281 -0.00985543 -0.00284871
v 0.02498471 -0.01018812 -0.00165099
v 0.02462108 -0.01030384 -0.00122957
v 0.02378538 -0.01031830 -0.00128200
v 0.02262432 -0.01032450 -0.00129813
v 0.02029583 -0.01033483 -0.00133442
v 0.01796734 -0.01045675 -0.00058433
v 0.02029583 -0.01044229 0.00054483
v 0.02029583 -0.01043816 -0.00058433
v 0.02146326 -0.01018399 0.00185951
v 0.02262432 -0.01032657 0.00126669
v 0.02378538 -0.01017985 0.00179498
v 0.02029583 -0.01018399 0.00187160
v 0.01796734 -0.01018399 0.00188975
v 0.02029583 -0.00535476 -0.00881313
v 0.01913477 -0.00535890 -0.00882120
v 0.01796734 -0.00612554 -0.00826065
v 0.01680628 -0.00669794 -0.00776865
v 0.01913477 -0.00989675 0.00280720
v 0.02146326 -0.00989262 0.00280720
v 0.02378538 -0.00988435 0.00280720
v 0.02262432 -0.00948554 0.00393838
v 0.02262432 -0.00920864 0.00463605
v 0.02262432 -0.00894620 0.00520063
v 0.02378538 -0.00836760 0.00618865
v 0.02495281 -0.00799152 0.00673710
v 0.02495281 -0.00742532 0.00728354
v 0.02495281 -0.00681986 0.00785014
v 0.02378538 -0.00682399 0.00785417
v 0.02262432 -0.00682605 0.00785619
v 0.02146326 -0.00682605 0.00785820
v 0.02378538 -0.00625572 0.00828769
v 0.02844236 -0.00290606 0.00987659
v 0.02495281 -0.00625159 0.00828769
v 0.02611387 -0.00544982 0.00884824
v 0.02611387 -0.00488155 0.00918699
v 0.02727493 -0.00404052 0.00954590
v 0.02959066 -0.00290606 0.00986449
v 0.02959066 -0.00051521 0.01019316
v 0.02262432 0.00049940 0.01022744
v 0.02959066 0.00059032 0.01018913
v 0.02959066 0.00105320 0.01016291
v 0.02262432 0.00122058 0.01018509
v 0.02262432 0.00178885 0.01010040
v 0.02959066 0.00152848 0.01009032
v 0.02959066 -0.00290606 -0.00947249
v 0.02378538 -0.00290606 -0.00977293
v 0.02262432 -0.00404052 -0.00946644
v 0.02262432 -0.00474517 -0.00915188
v 0.02146326 -0.00534237 -0.00880507
v 0.01564523 -0.00670207 -0.00777269
v 0.01913477 -0.00725794 -0.00719197
v 0.02029583 -0.00725174 -0.00718189
v 0.02146326 -0.00781174 -0.00657698
v 0.02262432 -0.00826842 -0.00599627
v 0.02378538 -0.00881395 -0.00514939
v 0.02378538 -0.00917351 -0.00458481
v 0.02452539 -0.00915904 -0.00456061
v 0.02492729 -0.00935742 -0.00407467
v 0.02959066 -0.00926443 -0.00366131
v 0.02959066 -0.00957233 -0.00284871
v 0.02959066 -0.00988849 -0.00173165
v 0.02959066 -0.00989262 -0.00171552
v 0.02539300 -0.01027698 -0.00097954
v 0.02498471 -0.01032864 -0.00059643
v 0.02378538 -0.01038856 -0.00058433
v 0.02959066 -0.01004760 -0.00060046
v 0.02959066 -0.01004967 -0.00058433
v 0.02146326 -0.01042162 -0.00058433
v 0.02146326 -0.01042782 0.00054483
v 0.02378538 -0.01031417 0.00122838
v 0.02456367 -0.01029971 0.00117394
v 0.02495281 -0.01017985 0.00160141
v 0.02495281 -0.00985129 0.00280720
v 0.02029583 -0.00610694 -0.00824855
v 0.01913477 -0.00611727 -0.00825460
v 0.01796734 -0.00669174 -0.00776261
v 0.02378538 -0.00946901 0.00393838
v 0.02378538 -0.00919830 0.00460983
v 0.02378538 -0.00893587 0.00517442
v 0.02495281 -0.00834694 0.00617252
v 0.02611387 -0.00796672 0.00670081
v 0.02727493 -0.00735712 0.00725531
v 0.02611387 -0.00739845 0.00727346
v 0.02611387 -0.00680746 0.00784006
v 0.02611387 -0.00623919 0.00828164
v 0.02727493 -0.00543536 0.00883614
v 0.02727493 -0.00486709 0.00918094
v 0.02844236 -0.00404052 0.00952574
v 0.02959066 -0.00404052 0.00949348
v 0.02959066 0.00150575 0.01009436
v 0.02959066 -0.00371816 -0.00918011
v 0.02378538 -0.00404052 -0.00940191
v 0.02378538 -0.00468524 -0.00911761
v 0.02262432 -0.00531344 -0.00878692
v 0.02146326 -0.00609454 -0.00824049
v 0.02262432 -0.00607181 -0.00822032
v 0.01913477 -0.00668347 -0.00775656
v 0.02029583 -0.00667314 -0.00774849
v 0.02146326 -0.00724347 -0.00716979
v 0.02262432 -0.00779521 -0.00656085
v 0.02378538 -0.00824569 -0.00596400
v 0.02959066 -0.00806177 -0.00573414
v 0.02492729 -0.00884288 -0.00500825
v 0.02959066 -0.00846679 -0.00511915
v 0.02529730 -0.00913631 -0.00451625
v 0.02959066 -0.00899373 -0.00422589
v 0.02559714 -0.01029764 -0.00022542
v 0.02559714 -0.01029764 0.00014963
v 0.02378538 -0.01038443 0.00054483
v 0.02262432 -0.01040716 0.00054483
v 0.02959066 -0.01005793 0.00052870
v 0.02495281 -0.01032657 0.00053475
v 0.02959066 -0.01005793 0.00054483
v 0.02959066 -0.00990915 0.00166190
v 0.02959066 -0.00990709 0.00167602
v 0.02495281 -0.00942561 0.00393838
v 0.02959066 -0.00957233 0.00280720
v 0.02495281 -0.00917144 0.00455337
v 0.02495281 -0.00891521 0.00511796
v 0.02611387 -0.00831388 0.00613421
v 0.02727493 -0.00792539 0.00663830
v 0.02959066 -0.00726827 0.00719280
v 0.02959066 -0.00673307 0.00774932
v 0.02844236 -0.00675993 0.00779368
v 0.02727493 -0.00678886 0.00782191
v 0.02727493 -0.00622059 0.00826954
v 0.02844236 -0.00541262 0.00881799
v 0.02844236 -0.00484436 0.00916884
v 0.02959066 -0.00480716 0.00914465
v 0.02959066 -0.00427816 -0.00891194
v 0.02959066 -0.00524524 -0.00828888
v 0.02959066 -0.00527004 -0.00827275
v 0.02959066 -0.00573705 -0.00793400
v 0.02146326 -0.00666074 -0.00773639
v 0.02262432 -0.00664008 -0.00771825
v 0.02959066 -0.00621233 -0.00754685
v 0.02959066 -0.00698104 -0.00690363
v 0.02262432 -0.00722694 -0.00715165
v 0.02378538 -0.00776008 -0.00653060
v 0.02959066 -0.00754104 -0.00630880
v 0.02959066 -0.00898753 -0.00423799
v 0.02556524 -0.00915491 0.00451305
v 0.02959066 -0.00925616 0.00360971
v 0.02601818 -0.00891521 0.00496270
v 0.02959066 -0.00818369 0.00591644
v 0.02727493 -0.00827255 0.00607170
v 0.02959066 -0.00783653 0.00649514
v 0.02959066 -0.00727653 0.00718272
v 0.02959066 -0.00672480 0.00775738
v 0.02844236 -0.00619373 0.00825341
v 0.02959066 -0.00616480 0.00822317
v 0.02959066 -0.00537336 0.00879581
v 0.02378538 -0.00719181 -0.00711132
v 0.02959066 -0.00860111 0.00505948
v 0.02959066 -0.00817749 0.00592854
v 0.02959066 -0.00615654 0.00822921
f 314 315 316
f 314 316 317
f 314 317 318
f 314 318 319
f 314 319 320
f 314 320 321
f 314 321 315
f 315 321 322
f 315 322 323
f 315 323 324
f 315 324 316
f 316 325 326
f 316 326 317
f 316 324 338
f 316 338 327
f 316 327 325
f 317 326 328
f 317 328 329
f 317 329 330
f 317 330 318
f 318 330 331
f 318 331 319
f 319 331 349
f 319 349 332
f 319 332 333
f 319 333 320
f 320 333 334
f 320 334 321
f 321 334 335
f 321 335 322
f 322 335 323
f 323 336 337
f 323 337 324
f 323 335 336
f 324 337 338
f 325 339 340
f 325 340 341
f 325 341 326
f 325 327 342
f 325 342 343
f 325 343 339
f 326 341 344
f 326 344 328
f 327 338 342
f 328 344 345
f 328 345 329
f 329 345 346
f 329 346 347
f 329 347 330
f 330 347 348
f 330 348 331
f 331 348 349
f 332 349 350
f 332 350 351
f 332 351 352
f 332 352 333
f 333 352 334
f 334 352 335
f 335 352 353
f 335 353 354
f 335 354 336
f 336 354 355
f 336 355 356
f 336 356 337
f 337 356 357
f 337 357 358
f 337 358 338
f 338 358 342
f 339 359 340
f 339 343 360
f 339 360 361
f 339 361 359
f 340 359 362
f 340 362 341
f 341 362 363
f 341 363 344
f 342 358 364
f 342 364 365
f 342 365 366
f 342 366 343
f 343 366 360
f 344 363 367
f 344 367 368
f 344 368 345
f 345 368 369
f 345 369 346
f 346 369 370
f 346 370 347
f 347 370 371
f 347 371 372
f 347 372 348
f 348 373 349
f 348 372 374
f 348 374 373
f 349 373 375
f 349 375 350
f 350 375 376
f 350 376 377
f 350 377 351
f 351 377 352
f 352 377 378
f 352 378 379
f 352 379 380
f 352 380 381
f 352 381 353
f 353 381 355
f 353 355 354
f 355 381 382
f 355 382 383
f 355 383 356
f 356 383 384
f 356 384 357
f 357 384 416
f 357 416 452
f 357 452 451
f 357 451 492
f 357 492 540
f 357 540 539
f 357 539 538
f 357 538 602
f 357 602 669
f 357 669 668
f 357 668 730
f 357 730 796
f 357 796 860
f 357 860 859
f 357 859 920
f 357 920 992
f 357 992 991
f 357 991 1055
f 357 1055 1114
f 357 1114 1160
f 357 1160 1111
f 357 1111 1110
f 357 1110 1108
f 357 1108 1047
f 357 1047 1046
f 357 1046 1045
f 357 1045 1044
f 357 1044 1107
f 357 1107 1159
f 357 1159 1199
f 357 1199 1222
f 357 1222 1226
f 357 1226 1221
f 357 1221 1219
f 357 1219 1193
f 357 1193 1192
f 357 1192 1218
f 357 1218 1217
f 357 1217 1225
f 357 1225 1215
f 357 1215 1224
f 357 1224 1213
f 357 1213 1187
f 357 1187 1185
f 357 1185 1184
f 357 1184 1183
f 357 1183 1181
f 357 1181 1137
f 357 1137 1136
f 357 1136 1132
f 357 1132 1131
f 357 1131 1130
f 357 1130 1129
f 357 1129 1176
f 357 1176 1211
f 357 1211 1174
f 357 1174 1172
f 357 1172 1210
f 357 1210 1207
f 357 1207 1206
f 357 1206 1203
f 357 1203 1202
f 357 1202 1201
f 357 1201 1200
f 357 1200 1161
f 357 1161 1115
f 357 1115 1057
f 357 1057 996
f 357 996 993
f 357 993 921
f 357 921 861
f 357 861 797
f 357 797 739
f 357 739 736
f 357 736 734
f 357 734 733
f 357 733 732
f 357 732 743
f 357 743 683
f 357 683 682
f 357 682 681
f 357 681 620
f 357 620 556
f 357 556 502
f 357 502 459
f 357 459 424
f 357 424 391
f 357 391 365
f 357 365 364
f 357 364 358
f 359 385 386
f 359 386 387
f 359 387 362
f 359 361 388
f 359 388 389
f 359 389 390
f 359 390 385
f 360 366 391
f 360 391 392
f 360 392 393
f 360 393 394
f 360 394 361
f 361 394 388
f 362 387 395
f 362 395 363
f 363 395 396
f 363 396 367
f 365 391 366
f 367 396 397
f 367 397 369
f 367 369 368
f 369 397 398
f 369 398 399
f 369 399 370
f 370 399 400
f 370 400 371
f 371 400 401
f 371 401 402
f 371 402 372
f 372 402 374
f 373 403 375
f 373 374 403
f 374 402 404
f 374 404 405
f 374 405 406
f 374 406 403
f 375 403 407
f 375 407 408
f 375 408 376
f 376 408 409
f 376 409 377
f 377 409 410
f 377 410 411
f 377 411 378
f 378 411 379
f 379 411 412
f 379 412 413
f 379 413 381
f 379 381 380
f 381 413 382
f 382 414 415
f 382 415 416
f 382 416 383
f 382 413 414
f 383 416 384
f 385 417 386
f 385 390 418
f 385 418 419
f 385 419 417
f 386 417 387
f 387 420 395
f 387 417 421
f 387 421 422
f 387 422 420
f 388 394 423
f 388 423 418
f 388 418 389
f 389 418 390
f 391 424 392
f 392 425 393
f 392 424 425
f 393 425 426
f 393 426 427
f 393 427 423
f 393 423 394
f 395 428 429
f 395 429 396
f 395 420 428
f 396 429 430
f 396 430 397
f 397 430 431
f 397 431 432
f 397 432 433
f 397 433 398
f 398 433 434
f 398 434 400
f 398 400 399
f 400 434 401
f 401 434 435
f 401 435 436
f 401 436 437
f 401 437 402
f 402 437 438
f 402 438 405
f 402 405 404
f 403 408 407
f 403 406 439
f 403 439 408
f 405 438 406
f 406 438 440
f 406 440 439
f 408 441 409
f 408 439 441
f 409 441 442
f 409 442 410
f 410 442 443
f 410 443 444
f 410 444 411
f 411 444 412
f 412 444 445
f 412 445 446
f 412 446 447
f 412 447 413
f 413 447 414
f 414 448 449
f 414 449 450
f 414 450 451
f 414 451 452
f 414 452 415
f 414 447 448
f 415 452 416
f 417 419 453
f 417 453 454
f 417 454 421
f 418 455 453
f 418 453 419
f 418 423 456
f 418 456 455
f 420 457 428
f 420 422 458
f 420 458 457
f 421 454 458
f 421 458 422
f 423 427 456
f 424 459 460
f 424 460 461
f 424 461 462
f 424 462 425
f 425 462 463
f 425 463 464
f 425 464 426
f 426 465 466
f 426 466 427
f 426 464 467
f 426 467 465
f 427 466 456
f 428 468 429
f 428 457 468
f 429 469 431
f 429 431 430
f 429 468 470
f 429 470 469
f 431 469 471
f 431 471 472
f 431 472 473
f 431 473 432
f 432 473 474
f 432 474 433
f 433 474 434
f 434 475 435
f 434 474 475
f 435 475 476
f 435 476 477
f 435 477 436
f 436 477 437
f 437 477 478
f 437 478 479
f 437 479 438
f 438 479 480
f 438 480 440
f 439 440 481
f 439 481 482
f 439 482 441
f 440 480 481
f 441 482 483
f 441 483 442
f 442 483 443
f 443 483 444
f 444 484 485
f 444 485 445
f 444 483 484
f 445 485 486
f 445 486 446
f 446 486 487
f 446 487 447
f 447 487 488
f 447 488 448
f 448 488 489
f 448 489 449
f 449 489 490
f 449 490 491
f 449 491 450
f 450 491 492
f 450 492 451
f 453 455 454
f 454 493 494
f 454 494 458
f 454 455 495
f 454 495 496
f 454 496 493
f 455 456 497
f 455 497 495
f 456 466 498
f 456 498 497
f 457 499 500
f 457 500 501
f 457 501 468
f 457 458 499
f 458 494 499
f 459 502 503
f 459 503 460
f 460 503 463
f 460 463 461
f 461 463 462
f 463 467 464
f 463 503 467
f 465 467 504
f 465 504 466
f 466 504 498
f 467 503 504
f 468 501 470
f 469 505 506
f 469 506 471
f 469 470 505
f 470 507 505
f 470 501 555
f 470 555 507
f 471 506 505
f 471 505 508
f 471 508 509
f 471 509 510
f 471 510 472
f 472 510 511
f 472 511 512
f 472 512 473
f 473 512 474
f 474 512 513
f 474 513 514
f 474 514 475
f 475 514 476
f 476 515 477
f 476 514 513
f 476 513 516
f 476 516 517
f 476 517 515
f 477 515 518
f 477 518 519
f 477 519 520
f 477 520 521
f 477 521 522
f 477 522 478
f 478 522 523
f 478 523 480
f 478 480 479
f 480 523 524
f 480 524 481
f 481 524 525
f 481 525 526
f 481 526 482
f 482 526 483
f 483 526 527
f 483 527 528
f 483 528 484
f 484 528 529
f 484 529 485
f 485 529 530
f 485 530 531
f 485 531 532
f 485 532 486
f 486 532 533
f 486 533 487
f 487 533 534
f 487 534 535
f 487 535 488
f 488 535 536
f 488 536 489
f 489 536 537
f 489 537 490
f 490 537 538
f 490 538 539
f 490 539 540
f 490 540 491
f 491 540 492
f 493 496 541
f 493 541 494
f 494 541 542
f 494 542 543
f 494 543 544
f 494 544 499
f 495 497 545
f 495 545 496
f 496 545 546
f 496 546 547
f 496 547 548
f 496 548 549
f 496 549 550
f 496 550 551
f 496 551 552
f 496 552 553
f 496 553 541
f 497 498 546
f 497 546 545
f 498 547 546
f 498 504 547
f 499 544 500
f 500 544 501
f 501 554 555
f 501 544 554
f 502 556 557
f 502 557 558
f 502 558 503
f 503 558 557
f 503 557 504
f 504 557 559
f 504 559 560
f 504 560 547
f 505 561 509
f 505 509 508
f 505 507 562
f 505 562 561
f 507 555 563
f 507 563 562
f 509 564 510
f 509 561 565
f 509 565 564
f 510 566 511
f 510 564 567
f 510 567 568
f 510 568 566
f 511 566 569
f 511 569 512
f 512 569 513
f 513 569 516
f 515 570 571
f 515 571 572
f 515 572 573
f 515 573 518
f 515 517 574
f 515 574 570
f 516 569 575
f 516 575 517
f 517 575 576
f 517 576 577
f 517 577 574
f 518 573 578
f 518 578 579
f 518 579 580
f 518 580 581
f 518 581 582
f 518 582 519
f 519 582 583
f 519 583 520
f 520 583 521
f 521 583 584
f 521 584 585
f 521 585 522
f 522 585 523
f 523 586 587
f 523 587 524
f 523 585 586
f 524 587 588
f 524 588 589
f 524 589 525
f 525 589 590
f 525 590 526
f 526 590 527
f 527 590 591
f 527 591 528
f 528 591 592
f 528 592 593
f 528 593 530
f 528 530 529
f 530 593 594
f 530 594 595
f 530 595 596
f 530 596 597
f 530 597 531
f 531 597 532
f 532 597 598
f 532 598 533
f 533 598 534
f 534 598 535
f 535 598 599
f 535 599 536
f 536 599 600
f 536 600 601
f 536 601 537
f 537 601 538
f 538 601 602
f 541 553 603
f 541 603 604
f 541 604 605
f 541 605 542
f 542 605 543
f 543 605 606
f 543 606 544
f 544 606 607
f 544 607 608
f 544 608 609
f 544 609 554
f 547 560 610
f 547 610 548
f 548 610 611
f 548 611 612
f 548 612 549
f 549 613 614
f 549 614 615
f 549 615 616
f 549 616 550
f 549 612 613
f 550 616 551
f 551 616 552
f 552 616 553
f 553 616 617
f 553 617 618
f 553 618 619
f 553 619 603
f 554 563 555
f 554 609 563
f 556 620 621
f 556 621 557
f 557 621 623
f 557 623 559
f 559 622 560
f 559 623 624
f 559 624 622
f 560 622 610
f 561 562 563
f 561 563 608
f 561 608 565
f 563 609 608
f 564 565 625
f 564 625 626
f 564 626 567
f 565 608 607
f 565 607 627
f 565 627 625
f 566 575 569
f 566 568 628
f 566 628 576
f 566 576 575
f 567 626 629
f 567 629 568
f 568 630 628
f 568 629 631
f 568 631 630
f 570 574 632
f 570 632 571
f 571 633 572
f 571 632 634
f 571 634 635
f 571 635 633
f 572 633 636
f 572 636 637
f 572 637 573
f 573 638 578
f 573 637 638
f 574 577 639
f 574 639 640
f 574 640 641
f 574 641 632
f 576 628 642
f 576 642 640
f 576 640 577
f 577 640 639
f 578 638 643
f 578 643 644
f 578 644 645
f 578 645 579
f 579 645 646
f 579 646 580
f 580 646 647
f 580 647 648
f 580 648 581
f 581 648 649
f 581 649 582
f 582 650 583
f 582 649 651
f 582 651 650
f 583 650 651
f 583 651 584
f 584 652 585
f 584 651 653
f 584 653 652
f 585 652 586
f 586 652 654
f 586 654 587
f 587 654 655
f 587 655 588
f 588 655 656
f 588 656 589
f 589 656 657
f 589 657 590
f 590 657 591
f 591 657 658
f 591 658 659
f 591 659 660
f 591 660 592
f 592 660 594
f 592 594 593
f 594 660 595
f 595 660 661
f 595 661 662
f 595 662 596
f 596 662 663
f 596 663 664
f 596 664 597
f 597 664 598
f 598 664 665
f 598 665 599
f 599 665 666
f 599 666 600
f 600 666 667
f 600 667 601
f 601 667 668
f 601 668 669
f 601 669 602
f 603 619 604
f 604 619 605
f 605 619 606
f 606 619 670
f 606 670 607
f 607 670 627
f 610 622 611
f 611 622 624
f 611 624 671
f 611 671 672
f 611 672 612
f 612 672 613
f 613 672 673
f 613 673 674
f 613 674 675
f 613 675 614
f 614 675 676
f 614 676 615
f 615 676 677
f 615 677 616
f 616 677 678
f 616 678 617
f 617 678 618
f 618 678 619
f 619 679 670
f 619 678 680
f 619 680 679
f 620 681 623
f 620 623 621
f 623 681 682
f 623 682 683
f 623 683 624
f 624 683 671
f 625 627 670
f 625 670 679
f 625 679 626
f 626 684 685
f 626 685 629
f 626 679 686
f 626 686 684
f 628 630 631
f 628 631 642
f 629 687 631
f 629 685 688
f 629 688 687
f 631 687 689
f 631 689 690
f 631 690 642
f 632 641 691
f 632 691 634
f 633 635 692
f 633 692 636
f 634 691 693
f 634 693 635
f 635 693 694
f 635 694 692
f 636 692 695
f 636 695 696
f 636 696 637
f 637 697 698
f 637 698 638
f 637 696 699
f 637 699 697
f 638 698 700
f 638 700 643
f 640 642 701
f 640 701 702
f 640 702 703
f 640 703 641
f 641 703 691
f 642 690 701
f 643 704 644
f 643 700 705
f 643 705 704
f 644 704 706
f 644 706 645
f 645 706 707
f 645 707 646
f 646 707 708
f 646 708 647
f 647 708 709
f 647 709 648
f 648 709 710
f 648 710 649
f 649 710 711
f 649 711 712
f 649 712 651
f 651 712 653
f 652 653 713
f 652 713 654
f 653 712 714
f 653 714 715
f 653 715 713
f 654 713 716
f 654 716 717
f 654 717 718
f 654 718 655
f 655 718 719
f 655 719 656
f 656 658 657
f 656 719 720
f 656 720 721
f 656 721 658
f 658 721 659
f 659 721 722
f 659 722 660
f 660 722 723
f 660 723 661
f 661 723 662
f 662 723 663
f 663 724 725
f 663 725 726
f 663 726 727
f 663 727 664
f 663 723 724
f 664 727 665
f 665 727 728
f 665 728 729
f 665 729 666
f 666 729 667
f 667 730 668
f 667 729 730
f 671 683 731
f 671 731 732
f 671 732 733
f 671 733 672
f 672 733 734
f 672 734 673
f 673 735 674
f 673 734 736
f 673 736 735
f 674 737 738
f 674 738 675
f 674 735 739
f 674 739 737
f 675 738 740
f 675 740 676
f 676 740 677
f 677 741 678
f 677 740 741
f 678 741 742
f 678 742 680
f 679 680 742
f 679 742 686
f 683 743 731
f 684 744 688
f 684 688 685
f 684 686 745
f 684 745 744
f 686 742 745
f 687 688 746
f 687 746 689
f 688 744 747
f 688 747 746
f 689 746 690
f 690 746 748
f 690 748 749
f 690 749 750
f 690 750 701
f 691 703 751
f 691 751 693
f 692 694 695
f 693 751 752
f 693 752 753
f 693 753 694
f 694 753 754
f 694 754 755
f 694 755 695
f 695 755 756
f 695 756 696
f 696 756 699
f 697 757 758
f 697 758 698
f 697 699 757
f 698 758 700
f 699 759 760
f 699 760 761
f 699 761 762
f 699 762 757
f 699 756 763
f 699 763 759
f 700 758 705
f 701 750 764
f 701 764 702
f 702 764 765
f 702 765 766
f 702 766 703
f 703 767 751
f 703 766 767
f 704 705 768
f 704 768 769
f 704 769 706
f 705 758 770
f 705 770 768
f 706 769 771
f 706 771 772
f 706 772 707
f 707 772 773
f 707 773 708
f 708 773 774
f 708 774 709
f 709 774 775
f 709 775 710
f 710 775 776
f 710 776 777
f 710 777 711
f 711 777 778
f 711 778 779
f 711 779 712
f 712 779 714
f 713 715 714
f 713 714 780
f 713 780 781
f 713 781 716
f 714 779 782
f 714 782 780
f 716 781 783
f 716 783 717
f 717 783 784
f 717 784 785
f 717 785 718
f 718 785 719
f 719 785 786
f 719 786 787
f 719 787 720
f 720 787 722
f 720 722 721
f 722 787 788
f 722 788 789
f 722 789 723
f 723 789 724
f 724 789 725
f 725 789 790
f 725 790 726
f 726 791 792
f 726 792 728
f 726 728 727
f 726 790 793
f 726 793 791
f 728 792 729
f 729 792 794
f 729 794 795
f 729 795 796
f 729 796 730
f 731 743 732
f 735 736 739
f 737 739 797
f 737 797 738
f 738 798 740
f 738 797 798
f 740 799 741
f 740 798 799
f 741 745 742
f 741 799 745
f 744 745 800
f 744 800 747
f 745 799 801
f 745 801 800
f 746 747 802
f 746 802 748
f 747 800 803
f 747 803 804
f 747 804 802
f 748 802 749
f 749 802 805
f 749 805 806
f 749 806 807
f 749 807 808
f 749 808 750
f 750 808 764
f 751 767 752
f 752 767 809
f 752 809 810
f 752 810 753
f 753 810 811
f 753 811 812
f 753 812 754
f 754 812 813
f 754 813 763
f 754 763 755
f 755 763 756
f 757 762 758
f 758 762 814
f 758 814 770
f 759 763 815
f 759 815 816
f 759 816 817
f 759 817 760
f 760 817 761
f 761 817 818
f 761 818 819
f 761 819 762
f 762 819 814
f 763 813 820
f 763 820 821
f 763 821 815
f 764 808 822
f 764 822 823
f 764 823 766
f 764 766 765
f 766 824 767
f 766 823 824
f 767 824 825
f 767 825 826
f 767 826 809
f 768 770 827
f 768 827 828
f 768 828 769
f 769 828 771
f 770 814 829
f 770 829 830
f 770 830 827
f 771 828 831
f 771 831 832
f 771 832 772
f 772 832 833
f 772 833 834
f 772 834 773
f 773 834 835
f 773 835 774
f 774 835 836
f 774 836 837
f 774 837 838
f 774 838 775
f 775 838 839
f 775 839 840
f 775 840 777
f 775 777 776
f 777 840 841
f 777 841 778
f 778 841 842
f 778 842 779
f 779 842 843
f 779 843 782
f 780 782 844
f 780 844 845
f 780 845 846
f 780 846 781
f 781 846 847
f 781 847 848
f 781 848 783
f 782 843 844
f 783 848 849
f 783 849 850
f 783 850 784
f 784 850 785
f 785 850 786
f 786 850 849
f 786 849 787
f 787 849 788
f 788 849 851
f 788 851 852
f 788 852 789
f 789 852 790
f 790 853 793
f 790 852 853
f 791 854 855
f 791 855 856
f 791 856 792
f 791 793 857
f 791 857 854
f 792 856 794
f 793 853 857
f 794 856 795
f 795 858 859
f 795 859 860
f 795 860 796
f 795 856 858
f 797 861 798
f 798 862 799
f 798 861 862
f 799 862 801
f 800 801 863
f 800 863 864
f 800 864 865
f 800 865 803
f 801 866 863
f 801 862 866
f 802 804 867
f 802 867 805
f 803 865 864
f 803 864 804
f 804 864 867
f 805 867 868
f 805 868 806
f 806 869 870
f 806 870 807
f 806 868 871
f 806 871 869
f 807 870 822
f 807 822 808
f 809 826 872
f 809 872 873
f 809 873 810
f 810 873 811
f 811 873 874
f 811 874 812
f 812 874 875
f 812 875 813
f 813 875 876
f 813 876 820
f 814 819 877
f 814 877 829
f 815 821 878
f 815 878 816
f 816 879 880
f 816 880 817
f 816 878 879
f 817 880 818
f 818 880 881
f 818 881 819
f 819 882 883
f 819 883 877
f 819 881 882
f 820 876 884
f 820 884 821
f 821 884 885
f 821 885 878
f 822 870 823
f 823 886 824
f 823 870 887
f 823 887 886
f 824 886 825
f 825 886 888
f 825 888 889
f 825 889 826
f 826 889 872
f 827 830 829
f 827 829 890
f 827 890 891
f 827 891 892
f 827 892 828
f 828 892 893
f 828 893 894
f 828 894 831
f 829 877 895
f 829 895 890
f 831 894 896
f 831 896 897
f 831 897 898
f 831 898 832
f 832 898 833
f 833 898 899
f 833 899 834
f 834 899 900
f 834 900 835
f 835 900 901
f 835 901 902
f 835 902 836
f 836 902 837
f 837 902 903
f 837 903 904
f 837 904 838
f 838 904 839
f 839 905 906
f 839 906 840
f 839 904 907
f 839 907 905
f 840 906 908
f 840 908 841
f 841 908 842
f 842 908 909
f 842 909 910
f 842 910 843
f 843 910 844
f 844 910 911
f 844 911 912
f 844 912 845
f 845 912 913
f 845 913 846
f 846 913 914
f 846 914 847
f 847 914 851
f 847 851 849
f 847 849 848
f 851 914 915
f 851 915 852
f 852 915 853
f 853 916 857
f 853 915 916
f 854 917 855
f 854 857 918
f 854 918 917
f 855 917 919
f 855 919 856
f 856 919 920
f 856 920 858
f 857 916 918
f 858 920 859
f 861 921 862
f 862 921 866
f 863 866 922
f 863 922 864
f 864 922 867
f 866 923 922
f 866 921 923
f 867 922 924
f 867 924 925
f 867 925 926
f 867 926 927
f 867 927 928
f 867 928 868
f 868 928 929
f 868 929 871
f 869 887 870
f 869 871 930
f 869 930 887
f 871 929 931
f 871 931 932
f 871 932 933
f 871 933 930
f 872 889 934
f 872 934 935
f 872 935 873
f 873 935 874
f 874 935 936
f 874 936 938
f 874 938 937
f 874 937 875
f 875 937 876
f 876 937 938
f 876 938 939
f 876 939 940
f 876 940 884
f 877 883 941
f 877 941 895
f 878 942 879
f 878 885 943
f 878 943 942
f 879 942 944
f 879 944 945
f 879 945 946
f 879 946 947
f 879 947 948
f 879 948 880
f 880 948 881
f 881 948 947
f 881 947 946
f 881 946 949
f 881 949 882
f 882 950 951
f 882 951 883
f 882 949 950
f 883 952 941
f 883 951 952
f 884 940 885
f 885 940 943
f 886 887 930
f 886 930 953
f 886 953 888
f 888 953 954
f 888 954 955
f 888 955 956
f 888 956 889
f 889 956 957
f 889 957 934
f 890 895 941
f 890 941 958
f 890 958 891
f 891 958 959
f 891 959 960
f 891 960 961
f 891 961 892
f 892 961 893
f 893 961 962
f 893 962 896
f 893 896 894
f 896 962 1024
f 896 1024 963
f 896 963 964
f 896 964 965
f 896 965 897
f 897 965 966
f 897 966 898
f 898 966 965
f 898 965 899
f 899 965 900
f 900 965 967
f 900 967 968
f 900 968 901
f 901 968 969
f 901 969 970
f 901 970 902
f 902 970 971
f 902 971 903
f 903 971 904
f 904 971 907
f 905 972 973
f 905 973 906
f 905 907 976
f 905 976 974
f 905 974 972
f 906 973 908
f 907 971 975
f 907 975 976
f 908 973 972
f 908 972 977
f 908 977 909
f 909 977 978
f 909 978 979
f 909 979 980
f 909 980 910
f 910 980 981
f 910 981 982
f 910 982 911
f 911 982 912
f 912 983 984
f 912 984 913
f 912 982 981
f 912 981 985
f 912 985 986
f 912 986 983
f 913 984 915
f 913 915 914
f 915 986 987
f 915 987 988
f 915 988 916
f 915 984 983
f 915 983 986
f 916 988 989
f 916 989 918
f 917 918 989
f 917 989 990
f 917 990 991
f 917 991 992
f 917 992 919
f 919 992 920
f 921 993 923
f 922 923 924
f 923 994 927
f 923 927 995
f 923 995 924
f 923 993 996
f 923 996 994
f 924 995 925
f 925 995 926
f 926 995 927
f 927 929 928
f 927 994 929
f 929 994 931
f 930 933 955
f 930 955 954
f 930 954 953
f 931 994 997
f 931 997 932
f 932 997 998
f 932 998 933
f 933 998 955
f 934 957 999
f 934 999 935
f 935 999 1000
f 935 1000 1001
f 935 1001 1002
f 935 1002 936
f 936 1002 938
f 938 1002 1003
f 938 1003 1004
f 938 1004 939
f 939 1004 940
f 940 1005 943
f 940 1004 1006
f 940 1006 1007
f 940 1007 1008
f 940 1008 1005
f 941 952 959
f 941 959 958
f 942 943 944
f 943 1005 944
f 944 1005 1008
f 944 1008 1009
f 944 1009 1010
f 944 1010 945
f 945 1010 946
f 946 1010 1011
f 946 1011 1012
f 946 1012 1013
f 946 1013 1014
f 946 1014 949
f 949 1014 950
f 950 1014 1076
f 950 1076 1015
f 950 1015 1016
f 950 1016 1017
f 950 1017 1018
f 950 1018 951
f 951 1018 952
f 952 1018 959
f 955 998 1019
f 955 1019 956
f 956 1019 957
f 957 1019 1020
f 957 1020 1021
f 957 1021 999
f 959 1022 960
f 959 1018 1023
f 959 1023 1022
f 960 1022 961
f 961 1024 962
f 961 1022 1025
f 961 1025 1026
f 961 1026 1024
f 963 1024 964
f 964 1027 1028
f 964 1028 965
f 964 1024 1027
f 965 1028 1029
f 965 1029 1030
f 965 1030 1031
f 965 1031 1032
f 965 1032 967
f 967 1032 968
f 968 1032 969
f 969 1032 1033
f 969 1033 1034
f 969 1034 1035
f 969 1035 970
f 970 1035 971
f 971 1035 1034
f 971 1034 975
f 972 1036 977
f 972 974 1037
f 972 1037 1038
f 972 1038 1036
f 974 976 1037
f 975 1034 1039
f 975 1039 1040
f 975 1040 1041
f 975 1041 976
f 976 1041 1042
f 976 1042 1043
f 976 1043 1038
f 976 1038 1037
f 977 1036 978
f 978 1036 1038
f 978 1038 1044
f 978 1044 1045
f 978 1045 1046
f 978 1046 979
f 979 1046 1047
f 979 1047 980
f 980 1047 1048
f 980 1048 1049
f 980 1049 1050
f 980 1050 981
f 981 1051 1052
f 981 1052 985
f 981 1050 1053
f 981 1053 1051
f 985 1052 986
f 986 1052 1051
f 986 1051 1053
f 986 1053 987
f 987 1053 988
f 988 1053 1054
f 988 1054 989
f 989 1054 990
f 990 1055 991
f 990 1054 1055
f 994 996 1056
f 994 1056 997
f 996 1057 1056
f 997 1056 1058
f 997 1058 1059
f 997 1059 998
f 998 1059 1060
f 998 1060 1019
f 999 1021 1000
f 1000 1021 1061
f 1000 1061 1062
f 1000 1062 1001
f 1001 1003 1002
f 1001 1062 1003
f 1003 1062 1063
f 1003 1063 1006
f 1003 1006 1004
f 1006 1063 1064
f 1006 1064 1065
f 1006 1065 1066
f 1006 1066 1007
f 1007 1066 1067
f 1007 1067 1068
f 1007 1068 1008
f 1008 1068 1009
f 1009 1068 1069
f 1009 1069 1010
f 1010 1069 1070
f 1010 1070 1011
f 1011 1070 1071
f 1011 1071 1072
f 1011 1072 1073
f 1011 1073 1074
f 1011 1074 1075
f 1011 1075 1012
f 1012 1075 1014
f 1012 1014 1013
f 1014 1075 1076
f 1015 1077 1016
f 1015 1076 1078
f 1015 1078 1077
f 1016 1079 1017
f 1016 1077 1080
f 1016 1080 1081
f 1016 1081 1079
f 1017 1079 1082
f 1017 1082 1018
f 1018 1082 1083
f 1018 1083 1023
f 1019 1060 1119
f 1019 1119 1084
f 1019 1084 1085
f 1019 1085 1020
f 1020 1085 1021
f 1021 1085 1086
f 1021 1086 1087
f 1021 1087 1061
f 1022 1023 1083
f 1022 1083 1088
f 1022 1088 1025
f 1024 1026 1027
f 1025 1088 1089
f 1025 1089 1090
f 1025 1090 1091
f 1025 1091 1026
f 1026 1091 1092
f 1026 1092 1093
f 1026 1093 1027
f 1027 1093 1028
f 1028 1093 1094
f 1028 1094 1029
f 1029 1094 1095
f 1029 1095 1096
f 1029 1096 1030
f 1030 1096 1097
f 1030 1097 1098
f 1030 1098 1099
f 1030 1099 1031
f 1031 1099 1100
f 1031 1100 1032
f 1032 1100 1101
f 1032 1101 1033
f 1033 1101 1040
f 1033 1040 1039
f 1033 1039 1034
f 1038 1043 1102
f 1038 1102 1044
f 1040 1042 1041
f 1040 1101 1103
f 1040 1103 1104
f 1040 1104 1105
f 1040 1105 1042
f 1042 1105 1106
f 1042 1106 1043
f 1043 1106 1102
f 1044 1102 1107
f 1047 1108 1048
f 1048 1108 1109
f 1048 1109 1110
f 1048 1110 1111
f 1048 1111 1049
f 1049 1054 1053
f 1049 1053 1050
f 1049 1111 1112
f 1049 1112 1113
f 1049 1113 1054
f 1054 1113 1055
f 1055 1113 1114
f 1056 1057 1058
f 1057 1115 1116
f 1057 1116 1058
f 1058 1116 1117
f 1058 1117 1059
f 1059 1117 1118
f 1059 1118 1060
f 1060 1118 1164
f 1060 1164 1119
f 1061 1087 1120
f 1061 1120 1062
f 1062 1120 1087
f 1062 1087 1121
f 1062 1121 1064
f 1062 1064 1063
f 1064 1121 1065
f 1065 1122 1123
f 1065 1123 1066
f 1065 1121 1122
f 1066 1123 1124
f 1066 1124 1067
f 1067 1124 1125
f 1067 1125 1126
f 1067 1126 1068
f 1068 1126 1069
f 1069 1126 1127
f 1069 1127 1128
f 1069 1128 1070
f 1070 1128 1129
f 1070 1129 1130
f 1070 1130 1131
f 1070 1131 1071
f 1071 1131 1132
f 1071 1132 1072
f 1072 1133 1134
f 1072 1134 1135
f 1072 1135 1073
f 1072 1132 1136
f 1072 1136 1137
f 1072 1137 1133
f 1073 1135 1138
f 1073 1138 1078
f 1073 1078 1076
f 1073 1076 1074
f 1074 1076 1075
f 1077 1078 1139
f 1077 1139 1080
f 1078 1138 1139
f 1079 1089 1082
f 1079 1081 1090
f 1079 1090 1089
f 1080 1139 1140
f 1080 1140 1081
f 1081 1140 1141
f 1081 1141 1142
f 1081 1142 1143
f 1081 1143 1090
f 1082 1089 1083
f 1083 1089 1088
f 1084 1144 1145
f 1084 1145 1086
f 1084 1086 1085
f 1084 1119 1165
f 1084 1165 1144
f 1086 1146 1087
f 1086 1145 1167
f 1086 1167 1146
f 1087 1146 1121
f 1090 1143 1147
f 1090 1147 1091
f 1091 1147 1092
f 1092 1147 1148
f 1092 1148 1149
f 1092 1149 1093
f 1093 1149 1094
f 1094 1149 1150
f 1094 1150 1095
f 1095 1150 1151
f 1095 1151 1152
f 1095 1152 1153
f 1095 1153 1096
f 1096 1153 1154
f 1096 1154 1097
f 1097 1103 1098
f 1097 1154 1155
f 1097 1155 1103
f 1098 1103 1099
f 1099 1103 1101
f 1099 1101 1100
f 1102 1106 1107
f 1103 1155 1104
f 1104 1155 1156
f 1104 1156 1157
f 1104 1157 1105
f 1105 1157 1106
f 1106 1157 1158
f 1106 1158 1107
f 1107 1158 1159
f 1108 1110 1109
f 1111 1160 1113
f 1111 1113 1112
f 1113 1160 1114
f 1115 1161 1162
f 1115 1162 1117
f 1115 1117 1116
f 1117 1162 1163
f 1117 1163 1118
f 1118 1163 1164
f 1119 1164 1166
f 1119 1166 1165
f 1121 1146 1167
f 1121 1167 1122
f 1122 1168 1169
f 1122 1169 1123
f 1122 1167 1168
f 1123 1169 1170
f 1123 1170 1124
f 1124 1170 1171
f 1124 1171 1125
f 1125 1171 1172
f 1125 1172 1173
f 1125 1173 1127
f 1125 1127 1126
f 1127 1173 1174
f 1127 1174 1175
f 1127 1175 1128
f 1128 1175 1129
f 1129 1175 1176
f 1133 1137 1134
f 1134 1137 1177
f 1134 1177 1178
f 1134 1178 1135
f 1135 1178 1179
f 1135 1179 1180
f 1135 1180 1139
f 1135 1139 1138
f 1137 1181 1177
f 1139 1180 1140
f 1140 1179 1141
f 1140 1180 1179
f 1141 1179 1182
f 1141 1182 1183
f 1141 1183 1184
f 1141 1184 1185
f 1141 1185 1142
f 1142 1185 1143
f 1143 1186 1147
f 1143 1185 1187
f 1143 1187 1186
f 1144 1165 1168
f 1144 1168 1167
f 1144 1167 1145
f 1147 1186 1148
f 1148 1186 1188
f 1148 1188 1189
f 1148 1189 1149
f 1149 1189 1150
f 1150 1190 1151
f 1150 1189 1190
f 1151 1190 1216
f 1151 1216 1191
f 1151 1191 1192
f 1151 1192 1193
f 1151 1193 1152
f 1152 1193 1194
f 1152 1194 1153
f 1153 1194 1195
f 1153 1195 1154
f 1154 1195 1196
f 1154 1196 1155
f 1155 1196 1156
f 1156 1196 1197
f 1156 1197 1198
f 1156 1198 1157
f 1157 1198 1158
f 1158 1198 1159
f 1159 1198 1199
f 1161 1200 1163
f 1161 1163 1162
f 1163 1200 1201
f 1163 1201 1202
f 1163 1202 1164
f 1164 1202 1203
f 1164 1203 1166
f 1165 1204 1168
f 1165 1166 1205
f 1165 1205 1204
f 1166 1203 1206
f 1166 1206 1207
f 1166 1207 1205
f 1168 1204 1169
f 1169 1204 1208
f 1169 1208 1170
f 1170 1208 1209
f 1170 1209 1171
f 1171 1209 1172
f 1172 1174 1173
f 1172 1209 1210
f 1174 1211 1175
f 1175 1211 1176
f 1177 1181 1183
f 1177 1183 1178
f 1178 1183 1182
f 1178 1182 1179
f 1186 1212 1188
f 1186 1187 1213
f 1186 1213 1212
f 1188 1212 1189
f 1189 1212 1214
f 1189 1214 1215
f 1189 1215 1216
f 1189 1216 1190
f 1191 1216 1217
f 1191 1217 1218
f 1191 1218 1192
f 1193 1219 1194
f 1194 1220 1195
f 1194 1219 1221
f 1194 1221 1220
f 1195 1220 1196
f 1196 1220 1197
f 1197 1220 1222
f 1197 1222 1198
f 1198 1222 1199
f 1204 1205 1208
f 1205 1207 1223
f 1205 1223 1208
f 1207 1210 1209
f 1207 1209 1223
f 1208 1223 1209
f 1212 1213 1224
f 1212 1224 1214
f 1214 1224 1215
f 1215 1225 1216
f 1216 1225 1217
f 1220 1221 1226
f 1220 1226 1222

