# https://github.com/mikedh/trimesh

o geometry_0
v 0.10805445 -0.26672234 -0.06528162
v 0.10617223 -0.27502806 -0.11277738
v 0.10803329 -0.26672234 -0.11277738
v 0.10562237 -0.25888724 -0.04153374
v 0.10801215 -0.26672234 0.10089754
v 0.10621452 -0.27505380 0.11277148
v 0.10621452 -0.27505748 0.10089754
v 0.09794547 -0.27753557 -0.12465132
v 0.10610878 -0.27500968 -0.12465132
v 0.10790640 -0.26672234 -0.12465132
v 0.10549548 -0.25909681 -0.12465132
v 0.10555892 -0.25901961 -0.11277738
v 0.10560121 -0.25894607 -0.07715556
v 0.10562237 -0.25892033 -0.05340768
v 0.09794547 -0.25560393 -0.01781386
v 0.09794547 -0.25558555 -0.00593992
v 0.10560121 -0.25887253 -0.01781386
v 0.10558007 -0.25888724 0.02965389
v 0.10558007 -0.25890930 0.04152783
v 0.10558007 -0.25894975 0.05340178
v 0.10799100 -0.26672234 0.11277148
v 0.09794547 -0.27757603 0.11277148
v 0.10615108 -0.27499497 0.12461740
v 0.08641954 -0.27770839 -0.12465132
v 0.08641954 -0.27613107 -0.13652526
v 0.09828385 -0.27496189 -0.13736540
v 0.10526285 -0.27420080 -0.13397684
v 0.10572811 -0.26672234 -0.13501302
v 0.10483988 -0.25972553 -0.13308070
v 0.09794547 -0.25631722 -0.12465132
v 0.09794547 -0.25610029 -0.11277738
v 0.09794547 -0.25592013 -0.08902950
v 0.09794547 -0.25585028 -0.07715556
v 0.09794547 -0.25563335 -0.02968780
v 0.02781709 -0.24029772 -0.00565988
v 0.09794547 -0.25559290 0.00590601
v 0.09794547 -0.25561127 0.02965389
v 0.10551662 -0.25903063 0.08902359
v 0.10549548 -0.25906740 0.10089754
v 0.10547433 -0.25911152 0.11277148
v 0.10538973 -0.25922551 0.12461740
v 0.10784296 -0.26672234 0.12461740
v 0.09794547 -0.27749146 0.12461740
v 0.08641954 -0.27764956 0.12461740
v 0.08641954 -0.27767897 0.11277148
v 0.10530514 -0.27417874 0.13383092
v 0.01730629 -0.27784443 -0.00593992
v 0.02881106 -0.27777824 -0.08902950
v 0.07489362 -0.27771207 -0.12465132
v 0.07489362 -0.27614210 -0.13652526
v 0.02881106 -0.27782972 0.01777995
v 0.02881106 -0.27782972 0.00590601
v 0.01730629 -0.27784810 0.00590601
v 0.07489362 -0.27358678 -0.14319036
v 0.08641954 -0.27357944 -0.14316233
v 0.09468860 -0.27325221 -0.14291031
v 0.09828385 -0.26603847 -0.14109000
v 0.09794547 -0.25866663 -0.13523704
v 0.08641954 -0.25498623 -0.12465132
v 0.02233963 -0.24029772 -0.02050230
v 0.02570224 -0.24029772 -0.01364118
v 0.02743642 -0.24029772 0.00470182
v 0.09794547 -0.25586865 0.07714966
v 0.09794547 -0.25565172 0.04152783
v 0.09794547 -0.25596425 0.08902359
v 0.09794547 -0.25609661 0.10089754
v 0.09794547 -0.25628780 0.11277148
v 0.09794547 -0.25677679 0.12461740
v 0.10477643 -0.25981010 0.13254270
v 0.10570696 -0.26672234 0.13447501
v 0.09786088 -0.27477436 0.13727548
v 0.08641954 -0.27567150 0.13649135
v 0.07489362 -0.27764956 0.12461740
v -0.02875511 -0.27773781 0.11277148
v -0.01725034 -0.27773413 0.11277148
v -0.02875511 -0.27778927 0.10089754
v -0.01725034 -0.27778193 0.10089754
v -0.08636359 -0.27568619 0.13649135
v 0.01730629 -0.27783707 0.02965389
v 0.01730629 -0.27784810 0.01777995
v 0.09396955 -0.27301322 0.14273637
v 0.00578037 -0.27784075 -0.01781386
v 0.00578037 -0.27785546 0.00590601
v -0.00572441 -0.27778193 -0.08902950
v -0.07483766 -0.27765325 -0.12465132
v 0.00578037 -0.27775987 -0.10090343
v -0.00572441 -0.27775987 -0.10090343
v -0.01725034 -0.27775619 -0.10090343
v -0.07483766 -0.27604284 -0.13652526
v -0.07483766 -0.27353164 -0.14313433
v 0.07489362 -0.26787683 -0.14319036
v 0.08641954 -0.26788418 -0.14316233
v 0.09468860 -0.26952769 -0.14291031
v 0.08641954 -0.26196466 -0.14209818
v 0.08641954 -0.25812249 -0.13616119
v 0.07489362 -0.25465533 -0.12465132
v 0.03623419 -0.24891230 -0.09530252
v 0.04391108 -0.24904466 -0.09421034
v 0.01635461 -0.24029772 -0.02870764
v 0.01849060 -0.24029772 0.01808800
v 0.08641954 -0.25458548 0.11277148
v 0.08641954 -0.25568849 0.12461740
v 0.09794547 -0.25897181 0.13427899
v 0.09786088 -0.26701649 0.14024397
v 0.08641954 -0.27318235 0.14284839
v -0.08636359 -0.27321544 0.14290439
v -0.06333288 -0.27763854 0.12461740
v -0.04028104 -0.27773413 0.11277148
v -0.04028104 -0.27777824 0.10089754
v -0.02875511 -0.27785546 0.01777995
v -0.01725034 -0.27785178 0.02965389
v -0.00572441 -0.27784810 0.02965389
v 0.00578037 -0.27784443 0.02965389
v -0.09401934 -0.27302057 0.14273637
v -0.09786836 -0.27474496 0.13727548
v -0.09788952 -0.27737381 0.12461740
v -0.08636359 -0.27762014 0.12461740
v -0.07483766 -0.27763485 0.12461740
v 0.00578037 -0.27785546 0.01777995
v 0.09396955 -0.27115647 0.14273637
v -0.00572441 -0.27785178 -0.00593992
v -0.01725034 -0.27785546 0.00590601
v -0.01725034 -0.27777824 -0.08902950
v -0.08636359 -0.27762751 -0.12465132
v -0.02875511 -0.27777090 -0.08902950
v -0.04028104 -0.27775250 -0.08902950
v -0.05180696 -0.27781869 0.00590601
v -0.08636359 -0.27593988 -0.13652526
v -0.08636359 -0.27344339 -0.14307833
v -0.07483766 -0.26833643 -0.14313433
v -0.06333288 -0.26824083 -0.14313433
v 0.02881106 -0.26186170 -0.14221018
v 0.02881106 -0.25800482 -0.13627322
v 0.02881106 -0.25415897 -0.12465132
v 0.04033699 -0.25420310 -0.12465132
v 0.05186291 -0.25430236 -0.12465132
v 0.06336769 -0.25447149 -0.12465132
v 0.02881106 -0.24885347 -0.09563859
v 0.01730629 -0.24774309 -0.08902950
v 0.02881106 -0.24791222 -0.08902950
v 0.00641482 -0.24029772 -0.03243225
v 0.01584704 -0.24029772 -0.02893168
v 0.01758122 -0.24029772 0.01915218
v 0.07489362 -0.25544216 0.12461740
v 0.08641954 -0.25858943 0.13497910
v 0.00480753 -0.24029772 0.02839369
v 0.04742173 -0.24886082 0.08384275
v 0.04033699 -0.24875051 0.08465488
v 0.04033699 -0.24957777 0.09059184
v 0.04033699 -0.25109995 0.10089754
v 0.08641954 -0.26464499 0.14091608
v 0.08641954 -0.27056451 0.14284839
v -0.08636359 -0.27047260 0.14290439
v -0.08636359 -0.27767530 0.11277148
v -0.05180696 -0.27781501 0.02965389
v -0.04028104 -0.27784443 0.01777995
v -0.02875511 -0.27785178 0.00590601
v -0.09401934 -0.27117118 0.14273637
v -0.09786836 -0.26702383 0.14043999
v -0.10558756 -0.26672234 0.13467105
v -0.10514345 -0.27413094 0.13383092
v -0.10592594 -0.27489201 0.12461740
v -0.09788952 -0.27742161 0.11277148
v -0.01725034 -0.27784810 -0.00593992
v -0.09788952 -0.27742529 -0.12465132
v -0.06333288 -0.27778561 0.00590601
v -0.06333288 -0.27779295 0.01777995
v -0.07483766 -0.27773781 0.00590601
v -0.08636359 -0.27767897 0.00590601
v -0.04028104 -0.27784075 0.00590601
v -0.05180696 -0.27782238 0.01777995
v -0.09776262 -0.27484055 -0.13716937
v -0.09382901 -0.27311248 -0.14282629
v -0.08636359 -0.26868572 -0.14307833
v -0.07483766 -0.26241689 -0.14193013
v -0.06333288 -0.26232130 -0.14198615
v -0.05180696 -0.26224042 -0.14204215
v -0.04028104 -0.26218894 -0.14207015
v -0.05180696 -0.25806733 -0.13610519
v -0.04028104 -0.25804527 -0.13613319
v -0.00572441 -0.25414794 -0.12465132
v 0.00578037 -0.25414060 -0.12465132
v 0.01730629 -0.25414794 -0.12465132
v -0.00572441 -0.24982780 -0.10216364
v 0.00578037 -0.24983147 -0.10210764
v 0.01730629 -0.24986457 -0.10185559
v 0.02881106 -0.24990500 -0.10157555
v 0.01730629 -0.24879831 -0.09591863
v 0.00578037 -0.24760705 -0.08902950
v 0.00578037 -0.24029772 -0.03251626
v 0.05186291 -0.25522155 0.12461740
v 0.02881106 -0.25091610 0.10089754
v 0.04033699 -0.25304493 0.11277148
v 0.02881106 -0.25291257 0.11277148
v 0.04033699 -0.25513330 0.12461740
v 0.02881106 -0.25507816 0.12461740
v 0.01730629 -0.25504508 0.12461740
v 0.00578037 -0.25501565 0.12461740
v -0.04028104 -0.25492374 0.12461740
v -0.05180696 -0.25833574 0.13503512
v -0.01725034 -0.25844971 0.13509112
v -0.00428631 -0.24029772 0.02814165
v -0.02875511 -0.24944909 0.09143198
v -0.00572441 -0.24941600 0.09182404
v 0.00578037 -0.24856301 0.08591508
v 0.01730629 -0.24944174 0.09162802
v 0.02881106 -0.24947851 0.09126396
v -0.08636359 -0.25832471 0.13511912
v -0.08636359 -0.26455308 0.14102808
v -0.08636359 -0.27768265 0.01777995
v -0.07483766 -0.27774147 0.01777995
v -0.09788952 -0.25877694 0.13450303
v -0.10474162 -0.25974759 0.13279474
v -0.10763896 -0.26672234 0.12461740
v -0.10778701 -0.26672234 0.11277148
v -0.10594708 -0.27490672 0.11277148
v -0.10605283 -0.27494349 -0.12465132
v -0.10524918 -0.27417874 -0.13364079
v -0.09382901 -0.27020419 -0.14282629
v -0.10579905 -0.26672234 -0.13473297
v -0.09776262 -0.26644290 -0.14075395
v -0.08636359 -0.26276618 -0.14184613
v -0.08636359 -0.25820338 -0.13590915
v -0.07483766 -0.25813352 -0.13599317
v -0.04028104 -0.25424354 -0.12465132
v -0.02875511 -0.25419208 -0.12465132
v -0.01725034 -0.25417000 -0.12465132
v -0.00572441 -0.25186101 -0.11277738
v -0.01725034 -0.24984618 -0.10193961
v -0.00572441 -0.24873948 -0.09622668
v 0.00578037 -0.24875051 -0.09617067
v -0.00572441 -0.24758499 -0.08902950
v -0.00572441 -0.24604812 -0.07715556
v -0.00489962 -0.24029772 -0.03260028
v 0.01730629 -0.25084993 0.10089754
v 0.01730629 -0.25286477 0.11277148
v 0.00578037 -0.25282432 0.11277148
v -0.05180696 -0.25490168 0.12461740
v -0.01111728 -0.24029772 0.02452906
v -0.05804577 -0.24891230 0.08350669
v -0.05180696 -0.24879831 0.08431883
v -0.04028104 -0.24868434 0.08518697
v -0.04028104 -0.24949689 0.09112393
v -0.04028104 -0.25092713 0.10089754
v -0.02875511 -0.25084257 0.10089754
v -0.01725034 -0.25082051 0.10089754
v -0.00572441 -0.25080214 0.10089754
v 0.00578037 -0.24941969 0.09185207
v -0.06333288 -0.25494580 0.12461740
v -0.07483766 -0.25500462 0.12461740
v -0.08636359 -0.25518478 0.12461740
v -0.09788952 -0.25637973 0.12461740
v -0.10537608 -0.25910786 0.12461740
v -0.10548182 -0.25896078 0.11277148
v -0.10552411 -0.25889093 0.10089754
v -0.10782930 -0.26672234 0.08902359
v -0.10799849 -0.26672234 -0.11277738
v -0.10797734 -0.26672234 -0.12465132
v -0.10491081 -0.25959685 -0.13305268
v -0.09788952 -0.25862986 -0.13506902
v -0.08636359 -0.25505977 -0.12465132
v -0.07483766 -0.25469945 -0.12465132
v -0.06333288 -0.25452665 -0.12465132
v -0.05180696 -0.25436119 -0.12465132
v -0.02875511 -0.24990134 -0.10157555
v -0.01725034 -0.24878360 -0.09600263
v -0.01725034 -0.24770264 -0.08902950
v -0.00572441 -0.24029772 -0.03260028
v 0.00578037 -0.25080948 0.10089754
v -0.00572441 -0.25280963 0.11277148
v -0.01725034 -0.25281329 0.11277148
v -0.02875511 -0.25281697 0.11277148
v -0.01714459 -0.24029772 0.01775195
v -0.08636359 -0.25405603 0.11277148
v -0.02351029 -0.24029772 0.00949060
v -0.05180696 -0.24960719 0.09025580
v -0.05180696 -0.25111832 0.10089754
v -0.04028104 -0.25286109 0.11277148
v -0.08636359 -0.25343833 0.10089754
v -0.09788952 -0.25586497 0.11277148
v -0.09788952 -0.25564438 0.10089754
v -0.09788952 -0.25553039 0.08902359
v -0.09788952 -0.25548996 0.07714966
v -0.10552411 -0.25885782 0.08902359
v -0.10556642 -0.25880268 -0.00593992
v -0.10560871 -0.25888356 -0.11277738
v -0.10558756 -0.25893872 -0.12465132
v -0.09788952 -0.25620323 -0.12465132
v -0.04389743 -0.24902995 -0.09432236
v -0.03622053 -0.24891964 -0.09524652
v -0.01636210 -0.24029772 -0.02876365
v -0.02875511 -0.24884979 -0.09563859
v -0.02875511 -0.24788648 -0.08902950
v -0.02437738 -0.24029772 0.00590601
v -0.08636359 -0.25317361 0.08902359
v -0.02545595 -0.24029772 0.00008106
v -0.08636359 -0.25300448 0.07714966
v -0.08636359 -0.25293462 0.06527571
v -0.09788952 -0.25547525 0.06527571
v -0.09788952 -0.25544582 0.02965389
v -0.09788952 -0.25542377 -0.00593992
v -0.09788952 -0.25540906 -0.02968780
v -0.10556642 -0.25879533 -0.02968780
v -0.09788952 -0.25560761 -0.07715556
v -0.10556642 -0.25879900 -0.04153374
v -0.09788952 -0.25542745 -0.04153374
v -0.09788952 -0.25548259 -0.05340768
v -0.09788952 -0.25569584 -0.08902950
v -0.09788952 -0.25588705 -0.11277738
v -0.02613270 -0.24029772 -0.00593992
v -0.02236827 -0.24029772 -0.01781386
v -0.01661588 -0.24029772 -0.02831558
v -0.08636359 -0.25291991 0.05340178
v -0.08636359 -0.25294565 -0.01781386
v -0.08636359 -0.25296036 -0.02968780
v -0.08636359 -0.25300816 -0.04153374
f 1 2 3
f 1 3 4
f 1 4 5
f 1 5 6
f 1 6 7
f 1 7 2
f 2 8 9
f 2 9 3
f 2 7 8
f 3 9 10
f 3 10 11
f 3 11 12
f 3 12 13
f 3 13 14
f 3 14 4
f 4 15 16
f 4 16 17
f 4 17 18
f 4 18 19
f 4 19 5
f 4 14 13
f 4 13 15
f 5 19 20
f 5 20 21
f 5 21 6
f 6 22 7
f 6 21 23
f 6 23 22
f 7 22 8
f 8 24 25
f 8 25 26
f 8 26 27
f 8 27 9
f 8 22 24
f 9 27 10
f 10 27 28
f 10 28 29
f 10 29 11
f 11 29 30
f 11 30 31
f 11 31 12
f 12 31 32
f 12 32 33
f 12 33 34
f 12 34 13
f 13 34 15
f 15 35 16
f 15 34 35
f 16 35 36
f 16 36 18
f 16 18 17
f 18 36 37
f 18 37 19
f 19 37 38
f 19 38 20
f 20 38 21
f 21 38 39
f 21 39 40
f 21 40 41
f 21 41 42
f 21 42 23
f 22 23 43
f 22 43 44
f 22 44 45
f 22 45 24
f 23 42 46
f 23 46 43
f 24 47 48
f 24 48 49
f 24 49 50
f 24 50 25
f 24 45 51
f 24 51 52
f 24 52 53
f 24 53 47
f 25 50 54
f 25 54 55
f 25 55 56
f 25 56 26
f 26 56 27
f 27 56 28
f 28 56 57
f 28 57 29
f 29 57 58
f 29 58 30
f 30 58 59
f 30 59 60
f 30 60 61
f 30 61 35
f 30 35 31
f 31 35 32
f 32 35 33
f 33 35 34
f 35 61 60
f 35 60 99
f 35 99 142
f 35 142 141
f 35 141 190
f 35 190 234
f 35 234 268
f 35 268 291
f 35 291 312
f 35 312 311
f 35 311 310
f 35 310 296
f 35 296 294
f 35 294 275
f 35 275 273
f 35 273 239
f 35 239 202
f 35 202 146
f 35 146 143
f 35 143 100
f 35 100 62
f 35 62 63
f 35 63 64
f 35 64 37
f 35 37 36
f 37 64 38
f 38 64 39
f 39 64 40
f 40 64 63
f 40 63 65
f 40 65 66
f 40 66 41
f 41 66 67
f 41 67 68
f 41 68 69
f 41 69 42
f 42 69 70
f 42 70 46
f 43 46 71
f 43 71 72
f 43 72 44
f 44 73 74
f 44 74 75
f 44 75 76
f 44 76 77
f 44 77 45
f 44 72 78
f 44 78 73
f 45 77 79
f 45 79 80
f 45 80 51
f 46 70 81
f 46 81 71
f 47 82 48
f 47 53 83
f 47 83 82
f 48 84 49
f 48 82 84
f 49 85 50
f 49 84 86
f 49 86 87
f 49 87 88
f 49 88 85
f 50 89 90
f 50 90 54
f 50 85 89
f 51 80 53
f 51 53 52
f 53 80 119
f 53 119 83
f 54 91 92
f 54 92 55
f 54 90 130
f 54 130 91
f 55 92 93
f 55 93 56
f 56 93 57
f 57 93 94
f 57 94 58
f 58 95 59
f 58 94 95
f 59 95 96
f 59 96 97
f 59 97 98
f 59 98 99
f 59 99 60
f 62 100 101
f 62 101 68
f 62 68 67
f 62 67 66
f 62 66 65
f 62 65 63
f 68 101 102
f 68 102 103
f 68 103 69
f 69 103 104
f 69 104 70
f 70 104 81
f 71 81 72
f 72 81 105
f 72 105 106
f 72 106 78
f 73 78 107
f 73 107 74
f 74 107 108
f 74 108 76
f 74 76 75
f 76 108 109
f 76 109 156
f 76 156 110
f 76 110 111
f 76 111 112
f 76 112 113
f 76 113 79
f 76 79 77
f 78 106 114
f 78 114 115
f 78 115 116
f 78 116 117
f 78 117 118
f 78 118 107
f 79 113 119
f 79 119 80
f 81 120 152
f 81 152 105
f 81 104 120
f 82 83 121
f 82 121 84
f 83 119 110
f 83 110 122
f 83 122 121
f 84 123 88
f 84 88 87
f 84 87 86
f 84 121 164
f 84 164 123
f 85 124 89
f 85 88 125
f 85 125 126
f 85 126 127
f 85 127 124
f 88 123 125
f 89 128 90
f 89 124 128
f 90 129 174
f 90 174 130
f 90 128 129
f 91 130 131
f 91 131 132
f 91 132 94
f 91 94 92
f 92 94 93
f 94 133 95
f 94 132 133
f 95 134 135
f 95 135 136
f 95 136 137
f 95 137 96
f 95 133 134
f 96 137 97
f 97 138 139
f 97 139 140
f 97 140 141
f 97 141 98
f 97 137 138
f 98 141 142
f 98 142 99
f 100 143 101
f 101 143 102
f 102 144 145
f 102 145 103
f 102 143 146
f 102 146 147
f 102 147 148
f 102 148 149
f 102 149 150
f 102 150 144
f 103 145 151
f 103 151 104
f 104 151 120
f 105 152 153
f 105 153 106
f 106 153 158
f 106 158 114
f 107 118 108
f 108 118 117
f 108 117 154
f 108 154 109
f 109 154 155
f 109 155 156
f 110 156 170
f 110 170 157
f 110 157 122
f 110 119 111
f 111 119 112
f 112 119 113
f 114 158 159
f 114 159 160
f 114 160 161
f 114 161 115
f 115 161 116
f 116 161 162
f 116 162 163
f 116 163 154
f 116 154 117
f 120 151 152
f 121 122 164
f 122 157 164
f 123 164 157
f 123 157 125
f 124 165 128
f 124 127 166
f 124 166 167
f 124 167 168
f 124 168 169
f 124 169 165
f 125 157 170
f 125 170 126
f 126 170 127
f 127 170 156
f 127 156 171
f 127 171 167
f 127 167 166
f 128 172 173
f 128 173 129
f 128 165 172
f 129 173 219
f 129 219 174
f 130 132 131
f 130 174 175
f 130 175 176
f 130 176 177
f 130 177 178
f 130 178 132
f 132 178 179
f 132 179 180
f 132 180 133
f 133 180 181
f 133 181 182
f 133 182 183
f 133 183 134
f 134 183 184
f 134 184 185
f 134 185 135
f 135 185 186
f 135 186 187
f 135 187 136
f 136 187 138
f 136 138 137
f 138 188 189
f 138 189 139
f 138 187 188
f 139 189 190
f 139 190 140
f 140 190 141
f 144 191 145
f 144 150 192
f 144 192 193
f 144 193 194
f 144 194 191
f 145 191 195
f 145 195 196
f 145 196 197
f 145 197 198
f 145 198 199
f 145 199 200
f 145 200 201
f 145 201 151
f 146 202 203
f 146 203 204
f 146 204 205
f 146 205 206
f 146 206 207
f 146 207 149
f 146 149 148
f 146 148 147
f 149 207 150
f 150 207 192
f 151 201 208
f 151 208 209
f 151 209 152
f 152 209 153
f 153 209 158
f 154 163 210
f 154 210 211
f 154 211 167
f 154 167 155
f 155 167 171
f 155 171 156
f 158 209 159
f 159 209 212
f 159 212 213
f 159 213 160
f 160 213 214
f 160 214 161
f 161 214 162
f 162 214 215
f 162 215 216
f 162 216 163
f 163 216 217
f 163 217 165
f 163 165 210
f 165 217 218
f 165 218 172
f 165 169 210
f 167 211 168
f 168 211 210
f 168 210 169
f 172 218 173
f 173 218 220
f 173 220 221
f 173 221 219
f 174 219 222
f 174 222 175
f 175 222 223
f 175 223 176
f 176 223 224
f 176 224 177
f 177 224 179
f 177 179 178
f 179 224 225
f 179 225 226
f 179 226 180
f 180 226 227
f 180 227 181
f 181 227 228
f 181 228 182
f 182 228 184
f 182 184 183
f 184 228 226
f 184 226 225
f 184 225 229
f 184 229 230
f 184 230 185
f 185 230 231
f 185 231 186
f 186 231 187
f 187 231 188
f 188 231 189
f 189 231 232
f 189 232 233
f 189 233 190
f 190 233 234
f 191 194 195
f 192 235 194
f 192 194 193
f 192 207 206
f 192 206 235
f 194 236 196
f 194 196 195
f 194 235 236
f 196 236 237
f 196 237 197
f 197 237 198
f 198 237 199
f 199 238 200
f 199 237 238
f 200 238 208
f 200 208 201
f 202 239 240
f 202 240 241
f 202 241 242
f 202 242 243
f 202 243 203
f 203 243 244
f 203 244 245
f 203 245 204
f 204 245 246
f 204 246 247
f 204 247 248
f 204 248 205
f 205 248 206
f 206 248 235
f 208 238 249
f 208 249 250
f 208 250 251
f 208 251 212
f 208 212 209
f 212 251 252
f 212 252 213
f 213 252 253
f 213 253 214
f 214 253 254
f 214 254 215
f 215 254 255
f 215 255 256
f 215 256 216
f 216 256 257
f 216 257 217
f 217 257 258
f 217 258 218
f 218 258 220
f 219 221 222
f 220 258 259
f 220 259 221
f 221 259 260
f 221 260 222
f 222 260 223
f 223 260 261
f 223 261 262
f 223 262 263
f 223 263 264
f 223 264 225
f 223 225 224
f 225 264 229
f 226 228 227
f 229 265 266
f 229 266 230
f 229 264 265
f 230 266 232
f 230 232 231
f 232 267 233
f 232 266 267
f 233 267 268
f 233 268 234
f 235 248 269
f 235 269 237
f 235 237 236
f 237 270 238
f 237 269 270
f 238 270 271
f 238 271 272
f 238 272 278
f 238 278 249
f 239 273 240
f 240 274 251
f 240 251 241
f 240 273 275
f 240 275 274
f 241 251 276
f 241 276 242
f 242 276 243
f 243 276 251
f 243 251 277
f 243 277 244
f 244 277 251
f 244 251 250
f 244 250 245
f 245 250 278
f 245 278 272
f 245 272 246
f 246 272 247
f 247 269 248
f 247 272 271
f 247 271 270
f 247 270 269
f 249 278 250
f 251 274 252
f 252 274 279
f 252 279 280
f 252 280 253
f 253 280 281
f 253 281 254
f 254 281 282
f 254 282 255
f 255 282 283
f 255 283 284
f 255 284 257
f 255 257 256
f 257 284 285
f 257 285 286
f 257 286 258
f 258 287 259
f 258 286 287
f 259 287 288
f 259 288 260
f 260 288 261
f 261 289 290
f 261 290 262
f 261 288 291
f 261 291 289
f 262 290 292
f 262 292 265
f 262 265 263
f 263 265 264
f 265 292 266
f 266 292 267
f 267 292 293
f 267 293 268
f 268 293 289
f 268 289 291
f 274 275 279
f 275 294 279
f 279 295 280
f 279 294 296
f 279 296 295
f 280 295 281
f 281 295 297
f 281 297 282
f 282 297 298
f 282 298 283
f 283 298 313
f 283 313 299
f 283 299 284
f 284 299 300
f 284 300 285
f 285 301 302
f 285 302 303
f 285 303 286
f 285 300 301
f 286 304 287
f 286 303 305
f 286 305 302
f 286 302 306
f 286 306 307
f 286 307 304
f 287 304 308
f 287 308 309
f 287 309 288
f 288 309 310
f 288 310 311
f 288 311 312
f 288 312 291
f 289 293 290
f 290 293 292
f 295 296 310
f 295 310 297
f 297 310 298
f 298 310 313
f 299 313 300
f 300 313 301
f 301 313 302
f 302 314 315
f 302 315 306
f 302 305 303
f 302 313 314
f 304 307 316
f 304 316 310
f 304 310 308
f 306 315 316
f 306 316 307
f 308 310 309
f 310 316 315
f 310 315 314
f 310 314 313

o geometry_1
v 0.00555176 -0.11259403 -0.35981814
v 0.00578499 -0.11259403 -0.35981814
v -0.00585127 -0.11259403 -0.35939408
v -0.00573466 0.10022903 -0.36080747
v -0.00573466 0.14756519 -0.36109014
v -0.00573466 0.23044139 -0.36130217
v 0.00459388 0.25410946 -0.35925278
v 0.01191547 -0.11259403 -0.35677934
v -0.01161942 -0.11259403 -0.35628468
v -0.01278971 0.10022903 -0.35769802
v -0.01299795 0.14756519 -0.35798070
v -0.01312705 0.21860734 -0.35812208
v -0.01316454 0.23044139 -0.35812208
v -0.01314371 0.24227542 -0.35812208
v -0.00573466 0.24227542 -0.36123152
v 0.01155731 0.00161204 -0.35614334
v 0.01157813 -0.00627731 -0.35621399
v 0.01203625 -0.11259403 -0.35670869
v -0.00573466 0.25410946 -0.36109014
v 0.00400665 0.26594349 -0.35889946
v 0.00955823 0.25410946 -0.35020718
v -0.01163192 -0.11259403 -0.35621399
v -0.01470965 0.14756519 -0.35020718
v -0.01486375 0.21860734 -0.35020718
v -0.01488873 0.23044139 -0.35020718
v -0.01295214 0.25410946 -0.35798070
v -0.01478878 0.24227542 -0.35020718
v 0.01274009 -0.11259403 -0.35034852
v -0.01236074 0.26359185 -0.35727405
v -0.00673003 0.26689174 -0.35904076
v 0.00227412 0.27333977 -0.35769802
v 0.00820053 0.26594349 -0.35020718
v 0.00989558 0.25410946 -0.33833483
v 0.01274425 -0.11259403 -0.35020718
v -0.01244404 -0.11259403 -0.35020718
v -0.01956573 -0.10098757 -0.30271783
v -0.02293499 -0.07728155 -0.28413196
v -0.02198127 -0.07728155 -0.29084550
v -0.02300163 -0.07083351 -0.28483865
v -0.02306410 -0.06294416 -0.28519200
v -0.02315156 0.01739076 -0.28568668
v -0.02389288 0.01739076 -0.27897315
v -0.01442645 0.25410946 -0.35020718
v -0.02518811 0.00555672 -0.26710082
v -0.02503819 0.01739076 -0.26710082
v -0.02622513 0.00555672 -0.25522847
v -0.02597108 0.01739076 -0.25522847
v -0.00355234 0.27333977 -0.35769802
v -0.01282719 0.26552627 -0.35020718
v -0.01121544 0.27144329 -0.35020718
v 0.00341942 0.27417423 -0.35020718
v 0.00831715 0.26594349 -0.33833483
v 0.01370214 -0.11259403 -0.16046178
v 0.01324402 -0.11259403 -0.29084550
v 0.01318572 -0.11259403 -0.30271783
v 0.01294833 -0.11259403 -0.33854684
v 0.01067022 0.25410946 0.33831773
v 0.01424356 -0.11259403 0.24305636
v -0.01682534 -0.11259403 -0.31430750
v -0.02080682 -0.10098757 -0.29084550
v -0.02160645 -0.08915352 -0.29084550
v -0.02360552 -0.06631989 -0.28010385
v -0.02353472 -0.07728155 -0.27819578
v -0.02388039 -0.05361347 -0.27897315
v -0.02392620 0.00555672 -0.27897315
v -0.02524226 -0.00627731 -0.26710082
v -0.01705856 0.21860734 -0.31459015
v -0.01748753 0.21860734 -0.30271783
v -0.01672538 0.23044139 -0.30271783
v -0.01470549 0.25410946 -0.32646250
v -0.02635007 -0.00627731 -0.25522847
v -0.02733295 -0.01811135 -0.24335614
v -0.02713721 -0.00627731 -0.24335614
v -0.02680403 0.00555672 -0.24335614
v -0.02642087 0.01739076 -0.24335614
v -0.00545978 0.27417423 -0.35020718
v -0.01288966 0.26560214 -0.33833483
v -0.01481793 0.25410946 -0.31459015
v -0.01126958 0.27151915 -0.33833483
v 0.00338610 0.27425008 -0.33833483
v 0.00900433 0.26594349 0.33831773
v 0.00891270 0.26594349 0.35019006
v 0.01053695 0.25410946 0.35019006
v 0.01103671 0.20677331 0.35019006
v 0.01420608 -0.11259403 0.33831773
v 0.01424356 -0.11259403 0.31457305
v 0.01424772 -0.11259403 0.30270072
v 0.01424772 -0.11259403 0.25492869
v -0.01789567 -0.11259403 -0.30271783
v -0.01792066 -0.11259403 -0.30243515
v -0.01850372 -0.11259403 -0.29084550
v -0.01851622 -0.11259403 -0.29056282
v -0.02132324 -0.10098757 -0.27897315
v -0.02360968 -0.08759841 -0.26710082
v -0.02329316 -0.08555020 -0.27600506
v -0.02492990 -0.06544751 -0.26710082
v -0.02518395 -0.05361347 -0.26710082
v -0.02447595 -0.07728155 -0.26710082
v -0.02526308 -0.04177943 -0.26710082
v -0.02526724 -0.02994539 -0.26710082
v -0.02640005 -0.01811135 -0.25522847
v -0.02593777 0.02922480 -0.24335614
v -0.02390954 0.08839499 -0.20773913
v -0.02237276 0.12389710 -0.20773913
v -0.02184383 0.13573115 -0.20773913
v -0.02129825 0.14756519 -0.20773913
v -0.02074435 0.15943716 -0.20773913
v -0.01767910 0.21860734 -0.25522847
v -0.01486375 0.25410946 -0.30271783
v -0.01682534 0.23044139 -0.25522847
v -0.01512196 0.25410946 -0.19586678
v -0.02637923 -0.02994539 -0.25522847
v -0.02631259 -0.04177943 -0.25522847
v -0.02724966 -0.02994539 -0.24335614
v -0.02784105 -0.02994539 -0.23148381
v -0.02774109 -0.01811135 -0.23148381
v -0.02734545 -0.00627731 -0.23148381
v -0.00551393 0.27425008 -0.33833483
v -0.01296879 0.26582971 -0.30271783
v -0.01146116 0.27182259 -0.29084550
v 0.00349855 0.27447765 -0.06527107
v -0.00573466 0.27489489 0.00589228
v 0.00356519 0.27443974 0.00589228
v 0.00370679 0.27432594 0.33831773
v 0.00367764 0.27413630 0.35019006
v 0.00241989 0.27330184 0.35761029
v 0.00439813 0.26594349 0.35874100
v 0.00519360 0.25410946 0.35902367
v 0.01157396 0.12143168 0.35612623
v 0.01371464 -0.07728155 0.35019006
v 0.01392287 -0.11259403 0.35019006
v -0.01868697 -0.11259403 -0.27869047
v -0.02181885 -0.10167029 -0.24335614
v -0.02329733 -0.09620843 -0.23148381
v -0.02317239 -0.09575328 -0.24335614
v -0.02305994 -0.09529811 -0.25098835
v -0.02433435 -0.08915352 -0.24335614
v -0.02376378 -0.09006384 -0.25501646
v -0.02281422 -0.09351542 -0.26710082
v -0.02522560 -0.07728155 -0.25522847
v -0.02580033 -0.07728155 -0.24335614
v -0.02583781 -0.06544751 -0.25522847
v -0.02616266 -0.05361347 -0.25522847
v -0.02394703 0.08839499 -0.19586678
v -0.02346808 0.10022903 -0.19586678
v -0.02285587 0.11437678 -0.19586678
v -0.02244356 0.12389710 -0.19586678
v -0.02191047 0.13573115 -0.19586678
v -0.02134823 0.14756519 -0.19586678
v -0.02077766 0.15943716 -0.19586678
v -0.02017794 0.17127119 -0.19586678
v -0.02029456 0.17127119 -0.12463277
v -0.01769576 0.21860734 -0.24335614
v -0.01684616 0.23044139 -0.24335614
v -0.01325200 0.26594349 -0.19586678
v -0.01529688 0.25410946 -0.11276043
v -0.02705391 -0.04177943 -0.24335614
v -0.02805761 -0.04177943 -0.21961146
v -0.02804096 -0.02994539 -0.21961146
v -0.02763698 -0.04177943 -0.23148381
v -0.02804928 -0.02994539 0.21959436
v -0.02651250 0.01739076 0.23146669
v -0.02610852 0.02922480 0.23146669
v -0.01148198 0.27186050 -0.28250659
v -0.01149448 0.27189844 -0.27459170
v -0.01164441 0.27205017 -0.19586678
v -0.00573466 0.27451558 -0.18399445
v 0.00357768 0.27443974 0.17210501
v -0.01185681 0.27231568 -0.01778173
v -0.01185681 0.27231568 -0.00590939
v -0.01185265 0.27231568 0.00589228
v -0.01164025 0.27205017 0.26708371
v -0.00573466 0.27466731 0.17210501
v -0.00573466 0.27447765 0.26708371
v -0.00551393 0.27432594 0.33831773
v -0.00531818 0.27413630 0.35019006
v -0.00343989 0.27330184 0.35761029
v -0.00666339 0.26658830 0.35852897
v -0.00573466 0.25410946 0.36008365
v -0.00573466 0.23044139 0.36036633
v 0.00578499 -0.08915352 0.36064900
v 0.01259849 -0.07728155 0.35753964
v 0.01161978 0.11206307 0.35619690
v 0.01262764 -0.08915352 0.35753964
v 0.01261098 -0.10098757 0.35753964
v 0.01258599 -0.11259403 0.35739826
v -0.01887855 -0.11259403 -0.24307346
v -0.02183134 -0.10212544 -0.23148381
v -0.02333897 -0.09632221 -0.21961146
v -0.02494240 -0.08915352 -0.19586678
v -0.02474249 -0.08915352 -0.21961146
v -0.02462171 -0.08915352 -0.23148381
v -0.02615850 -0.07728155 -0.23148381
v -0.02648751 -0.06544751 -0.24335614
v -0.02687483 -0.06544751 -0.23148381
v -0.02684151 -0.05361347 -0.24335614
v -0.02090261 0.15943716 -0.11276043
v -0.02244772 0.12389710 -0.18399445
v -0.02089428 0.15943716 -0.12463277
v -0.02031122 0.17127119 -0.11276043
v -0.01769993 0.21860734 -0.23148381
v -0.01541349 0.25410946 0.02963695
v -0.01538017 0.25410946 -0.02965406
v -0.01531770 0.25410946 -0.10088809
v -0.01686282 0.23044139 -0.23148381
v -0.01358101 0.26594349 -0.01778173
v -0.02764947 -0.05361347 -0.21961146
v -0.02797016 -0.05361347 -0.20773913
v -0.02818672 -0.05361347 -0.19586678
v -0.02820754 -0.04177943 -0.20773913
v -0.02728714 -0.05361347 -0.23148381
v -0.02829084 -0.04177943 0.20772203
v -0.02818672 -0.04177943 0.21959436
v -0.02778274 -0.02994539 0.23146669
v -0.02760782 -0.01811135 0.23146669
v -0.02615017 0.01739076 0.24333904
v -0.02576285 0.02922480 0.24333904
v -0.01725014 0.21860734 0.30270072
v -0.01736259 0.21860734 0.29082837
v -0.01741673 0.21860734 0.27895604
v -0.01745837 0.21860734 0.26708371
v -0.01802894 0.20677331 0.25521136
v -0.01805810 0.20677331 0.24333904
v -0.02399700 0.07659888 0.21959436
v -0.02455508 0.06476484 0.20772203
v -0.01358934 0.26594349 0.01776462
v -0.01313538 0.26594349 0.26708371
v -0.01305209 0.26594349 0.29082837
v -0.01154029 0.27193637 0.30270072
v -0.00564303 0.27432594 0.32644540
v -0.01357268 0.26594349 0.02963695
v -0.01151530 0.27189844 0.31181697
v -0.01147782 0.27186050 0.31973186
v -0.01139869 0.27170880 0.32644540
v -0.01127375 0.27140535 0.33831773
v -0.01107384 0.27087434 0.35019006
v -0.01195260 0.26306084 0.35676226
v -0.01227745 0.25410946 0.35711558
v -0.01243571 0.24227542 0.35732761
v -0.01252317 0.23044139 0.35746891
v -0.01258980 0.20677331 0.35753964
v -0.00573466 0.20677331 0.36043706
v -0.00573466 0.15943716 0.36029568
v -0.00573466 -0.11259403 0.35944765
v 0.00578499 -0.10098757 0.36057835
v 0.00578499 -0.11259403 0.36043706
v -0.02342227 -0.09654980 -0.18399445
v -0.01886605 -0.11259403 -0.23120113
v -0.02176054 -0.10246682 -0.17212211
v -0.02340977 -0.09647394 -0.19586678
v -0.02498821 -0.08915352 -0.18399445
v -0.02686650 -0.07728155 -0.18399445
v -0.02673323 -0.07728155 -0.19586678
v -0.02654998 -0.07728155 -0.20773913
v -0.02635840 -0.07728155 -0.21961146
v -0.02792434 -0.06544751 -0.18399445
v -0.02771611 -0.06544751 -0.19586678
v -0.01963236 0.18310522 -0.01778173
v -0.01964902 0.18310522 -0.02965406
v -0.01901182 0.19493927 -0.02965406
v -0.01769993 0.21860734 -0.21961146
v -0.01614232 0.24227542 0.05338163
v -0.01749586 0.21860734 0.24333904
v -0.01748336 0.21860734 0.25521136
v -0.01669206 0.23044139 0.26708371
v -0.01582580 0.24227542 0.29082837
v -0.01539267 0.25410946 0.04150929
v -0.02792851 -0.06544751 -0.17212211
v -0.02826585 -0.05361347 0.19584968
v -0.02763698 -0.05361347 0.21959436
v -0.02757451 -0.04177943 0.23146669
v -0.02805761 -0.05361347 0.20772203
v -0.02692481 -0.02994539 0.24333904
v -0.02694980 -0.01811135 0.24333904
v -0.02669158 -0.00627731 0.24333904
v -0.01688364 0.21860734 0.31457305
v -0.01637971 0.23044139 0.31457305
v -0.01660044 0.23044139 0.30270072
v -0.01664625 0.23044139 0.29082837
v -0.01495121 0.25410946 0.29082837
v -0.01491372 0.25410946 0.30270072
v -0.01300628 0.26594349 0.30270072
v -0.01264394 0.26711932 0.31527974
v -0.01281886 0.26579178 0.32644540
v -0.01264394 0.26548834 0.33831773
v -0.01235658 0.26495732 0.35019006
v -0.01345607 0.25410946 0.35019006
v -0.01381007 0.24227542 0.35019006
v -0.01398915 0.23044139 0.35019006
v -0.01409327 0.21860734 0.35019006
v -0.01417240 0.20677331 0.35019006
v -0.01256481 0.21860734 0.35746891
v -0.01417240 0.19493927 0.35019006
v -0.01412659 0.15943716 0.35019006
v -0.01249818 0.15943716 0.35739826
v -0.01156528 -0.11259403 0.35647958
v -0.02341810 -0.09654980 -0.17212211
v -0.01832464 -0.11259403 0.23146669
v -0.02497988 -0.08915352 -0.17212211
v -0.02691231 -0.07728155 -0.17212211
v -0.01900765 0.19493927 -0.01778173
v -0.01833713 0.20677331 -0.02965406
v -0.01667124 0.23044139 0.27895604
v -0.01579248 0.24227542 0.30270072
v -0.02783688 -0.06544751 0.16023267
v -0.02782855 -0.06544751 0.17210501
v -0.02773693 -0.06544751 0.18397735
v -0.02691648 -0.05361347 0.23146669
v -0.02743707 -0.06544751 0.19584968
v -0.02698728 -0.06544751 0.20772203
v -0.02650000 -0.06544751 0.21959436
v -0.02293499 -0.08221240 0.25916882
v -0.02294749 -0.06973356 0.27210119
v -0.02657080 -0.04177943 0.24333904
v -0.02310158 -0.06184420 0.27379723
v -0.02545049 -0.04177943 0.25521136
v -0.02320987 -0.05361347 0.27464526
v -0.02567955 -0.02994539 0.25521136
v -0.02566289 -0.01811135 0.25521136
v -0.01609234 0.21860734 0.32644540
v -0.01577999 0.23044139 0.32644540
v -0.01565088 0.24227542 0.31457305
v -0.01527605 0.24227542 0.32644540
v -0.01457222 0.25410946 0.32644540
v -0.01480961 0.25410946 0.31457305
v -0.01412659 0.25410946 0.33831773
v -0.01462636 0.24227542 0.33831773
v -0.02429270 -0.02994539 0.26708371
v -0.02330566 -0.02994539 0.27535193
v -0.02255184 -0.04177943 0.28121744
v -0.01168189 -0.11259403 0.35640893
v -0.02122745 -0.04177943 0.29082837
v -0.02302245 -0.09510846 0.19125622
v -0.01827466 -0.11259403 0.24333904
v -0.02668742 -0.07728155 0.14836033
v -0.02659163 -0.07728155 0.16023267
v -0.02646252 -0.07728155 0.17210501
v -0.02622930 -0.07728155 0.18397735
v -0.02276008 -0.07788843 0.26771972
v -0.02586697 -0.07728155 0.19584968
v -0.02350556 -0.08661223 0.23146669
v -0.02511731 -0.07728155 0.21959436
v -0.02467585 -0.07728155 0.23146669
v -0.02183967 -0.08915352 0.26708371
v -0.02106920 -0.08915352 0.27895604
v -0.02184800 -0.07728155 0.27895604
v -0.02248937 -0.05361347 0.28058141
v -0.02329733 -0.04177943 0.27528126
v -0.02421357 -0.04177943 0.26708371
v -0.01236491 -0.11259403 0.35019006
v -0.02298497 -0.09491882 0.19917111
v -0.01801645 -0.11259403 0.26708371
v -0.02292250 -0.09450158 0.20772203
v -0.02279756 -0.09366715 0.21959436
v -0.02369714 -0.08775012 0.21959436
v -0.02036952 -0.10098757 0.26708371
v -0.02326817 -0.08509505 0.24333904
v -0.01990307 -0.10098757 0.27895604
v -0.01898266 -0.10098757 0.29082837
v -0.01566754 -0.11259403 0.31457305
v -0.01781654 -0.11259403 0.27895604
v -0.02090677 -0.10098757 0.24333904
v -0.02064023 -0.10098757 0.25521136
v -0.02264763 -0.09252925 0.23146669
v -0.01742089 -0.11259403 0.29082837
v -0.01672122 -0.11259403 0.30270072
f 317 318 324
f 317 324 334
f 317 334 344
f 317 344 350
f 317 350 372
f 317 372 371
f 317 371 370
f 317 370 369
f 317 369 374
f 317 374 404
f 317 404 403
f 317 403 402
f 317 402 401
f 317 401 447
f 317 447 502
f 317 502 562
f 317 562 560
f 317 560 612
f 317 612 647
f 317 647 666
f 317 666 676
f 317 676 682
f 317 682 681
f 317 681 677
f 317 677 668
f 317 668 650
f 317 650 614
f 317 614 564
f 317 564 503
f 317 503 448
f 317 448 408
f 317 408 407
f 317 407 406
f 317 406 405
f 317 405 375
f 317 375 351
f 317 351 338
f 317 338 325
f 317 325 319
f 317 319 320
f 317 320 321
f 317 321 318
f 318 321 322
f 318 322 323
f 318 323 324
f 319 325 326
f 319 326 327
f 319 327 320
f 320 327 321
f 321 328 322
f 321 327 328
f 322 328 329
f 322 329 330
f 322 330 331
f 322 331 323
f 323 332 333
f 323 333 334
f 323 334 324
f 323 331 335
f 323 335 336
f 323 336 337
f 323 337 332
f 325 338 339
f 325 339 326
f 326 339 327
f 327 329 328
f 327 339 329
f 329 339 340
f 329 340 341
f 329 341 330
f 330 342 335
f 330 335 331
f 330 341 343
f 330 343 342
f 332 344 334
f 332 334 333
f 332 337 344
f 335 342 345
f 335 345 346
f 335 346 336
f 336 346 347
f 336 347 348
f 336 348 337
f 337 348 349
f 337 349 350
f 337 350 344
f 338 351 352
f 338 352 353
f 338 353 354
f 338 354 355
f 338 355 356
f 338 356 339
f 339 356 340
f 340 356 341
f 341 356 357
f 341 357 358
f 341 358 343
f 342 343 359
f 342 359 345
f 343 358 360
f 343 360 361
f 343 361 362
f 343 362 363
f 343 363 359
f 345 364 346
f 345 359 365
f 345 365 366
f 345 366 364
f 346 364 347
f 347 364 392
f 347 392 367
f 347 367 348
f 348 367 368
f 348 368 349
f 349 369 370
f 349 370 371
f 349 371 372
f 349 372 350
f 349 368 373
f 349 373 374
f 349 374 369
f 351 375 352
f 352 375 376
f 352 376 377
f 352 377 353
f 353 378 355
f 353 355 354
f 353 377 379
f 353 379 378
f 355 378 356
f 356 378 380
f 356 380 357
f 357 380 381
f 357 381 358
f 358 381 382
f 358 382 360
f 359 363 383
f 359 383 384
f 359 384 385
f 359 385 386
f 359 386 365
f 360 382 387
f 360 387 362
f 360 362 361
f 362 387 388
f 362 388 389
f 362 389 363
f 363 389 390
f 363 390 391
f 363 391 383
f 364 366 392
f 365 393 366
f 365 386 394
f 365 394 393
f 366 393 395
f 366 395 434
f 366 434 392
f 367 392 434
f 367 434 396
f 367 396 397
f 367 397 368
f 368 397 373
f 373 397 398
f 373 398 399
f 373 399 400
f 373 400 401
f 373 401 402
f 373 402 403
f 373 403 404
f 373 404 374
f 375 405 376
f 376 405 406
f 376 406 407
f 376 407 408
f 376 408 409
f 376 409 410
f 376 410 411
f 376 411 377
f 377 411 379
f 378 379 412
f 378 412 413
f 378 413 380
f 379 411 414
f 379 414 412
f 380 413 415
f 380 415 381
f 381 415 416
f 381 416 382
f 382 417 387
f 382 416 417
f 383 391 384
f 384 391 418
f 384 418 419
f 384 419 420
f 384 420 421
f 384 421 422
f 384 422 423
f 384 423 424
f 384 424 385
f 385 425 394
f 385 394 386
f 385 424 426
f 385 426 472
f 385 472 427
f 385 427 425
f 387 417 388
f 388 417 428
f 388 428 429
f 388 429 430
f 388 430 431
f 388 431 432
f 388 432 389
f 389 432 390
f 390 432 391
f 391 432 433
f 391 433 419
f 391 419 418
f 393 394 425
f 393 425 435
f 393 435 436
f 393 436 395
f 395 436 434
f 396 437 397
f 396 434 438
f 396 438 437
f 397 439 440
f 397 440 398
f 397 437 439
f 398 440 441
f 398 441 442
f 398 442 443
f 398 443 399
f 399 443 444
f 399 444 445
f 399 445 400
f 400 445 446
f 400 446 401
f 401 446 447
f 408 448 449
f 408 449 450
f 408 450 451
f 408 451 409
f 409 451 452
f 409 452 453
f 409 453 454
f 409 454 455
f 409 455 410
f 410 456 411
f 410 455 454
f 410 454 453
f 410 453 457
f 410 457 456
f 411 456 414
f 412 414 458
f 412 458 459
f 412 459 413
f 413 459 429
f 413 429 415
f 414 456 458
f 415 429 428
f 415 428 417
f 415 417 416
f 419 433 460
f 419 460 461
f 419 461 462
f 419 462 420
f 420 462 463
f 420 463 421
f 421 463 464
f 421 464 422
f 422 464 423
f 423 464 465
f 423 465 466
f 423 466 424
f 424 466 467
f 424 467 468
f 424 468 516
f 424 516 469
f 424 469 521
f 424 521 470
f 424 470 426
f 425 427 471
f 425 471 435
f 426 470 520
f 426 520 472
f 427 472 471
f 429 459 430
f 430 459 473
f 430 473 431
f 431 474 475
f 431 475 432
f 431 473 476
f 431 476 474
f 432 475 477
f 432 477 478
f 432 478 433
f 433 478 479
f 433 479 460
f 434 436 480
f 434 480 481
f 434 481 482
f 434 482 483
f 434 483 438
f 435 480 436
f 435 471 480
f 437 438 484
f 437 484 439
f 438 483 482
f 438 482 485
f 438 485 486
f 438 486 487
f 438 487 488
f 438 488 489
f 438 489 440
f 438 440 484
f 439 484 440
f 440 490 491
f 440 491 492
f 440 492 441
f 440 489 490
f 441 492 493
f 441 493 442
f 442 493 443
f 443 493 494
f 443 494 495
f 443 495 444
f 444 495 496
f 444 496 497
f 444 497 498
f 444 498 499
f 444 499 445
f 445 499 498
f 445 498 446
f 446 498 447
f 447 498 500
f 447 500 501
f 447 501 502
f 448 503 504
f 448 504 449
f 449 504 450
f 450 504 505
f 450 505 506
f 450 506 507
f 450 507 508
f 450 508 451
f 451 508 453
f 451 453 452
f 453 508 509
f 453 509 457
f 456 457 510
f 456 510 458
f 457 509 511
f 457 511 510
f 458 510 512
f 458 512 459
f 459 512 473
f 460 479 461
f 461 513 514
f 461 514 462
f 461 479 513
f 462 514 463
f 463 514 513
f 463 513 515
f 463 515 464
f 464 515 465
f 465 515 466
f 466 515 468
f 466 468 467
f 468 515 516
f 469 517 518
f 469 518 519
f 469 519 520
f 469 520 521
f 469 516 517
f 470 521 520
f 471 482 481
f 471 481 480
f 471 472 522
f 471 522 482
f 472 520 522
f 473 512 476
f 474 523 524
f 474 524 525
f 474 525 526
f 474 526 475
f 474 476 527
f 474 527 523
f 475 526 528
f 475 528 477
f 476 512 527
f 477 528 529
f 477 529 530
f 477 530 531
f 477 531 478
f 478 531 532
f 478 532 533
f 478 533 479
f 479 533 534
f 479 534 535
f 479 535 536
f 479 536 537
f 479 537 538
f 479 538 539
f 479 539 540
f 479 540 541
f 479 541 513
f 482 522 485
f 485 522 542
f 485 542 486
f 486 542 487
f 487 542 488
f 488 543 544
f 488 544 545
f 488 545 546
f 488 546 490
f 488 490 489
f 488 542 547
f 488 547 543
f 490 546 491
f 491 546 545
f 491 545 548
f 491 548 549
f 491 549 492
f 492 549 550
f 492 550 551
f 492 551 552
f 492 552 493
f 493 552 553
f 493 553 494
f 494 553 495
f 495 553 554
f 495 554 555
f 495 555 556
f 495 556 496
f 496 556 557
f 496 557 558
f 496 558 497
f 497 558 559
f 497 559 560
f 497 560 561
f 497 561 501
f 497 501 500
f 497 500 498
f 501 561 562
f 501 562 502
f 503 563 504
f 503 564 565
f 503 565 563
f 504 563 566
f 504 566 505
f 505 566 506
f 506 566 567
f 506 567 616
f 506 616 568
f 506 568 507
f 507 568 508
f 508 568 569
f 508 569 570
f 508 570 571
f 508 571 509
f 509 571 572
f 509 572 573
f 509 573 511
f 510 511 527
f 510 527 512
f 511 573 524
f 511 524 523
f 511 523 527
f 513 574 575
f 513 575 516
f 513 516 515
f 513 541 540
f 513 540 539
f 513 539 574
f 516 575 576
f 516 576 517
f 517 576 577
f 517 577 518
f 518 578 579
f 518 579 580
f 518 580 581
f 518 581 582
f 518 582 583
f 518 583 547
f 518 547 542
f 518 542 522
f 518 522 519
f 518 577 578
f 519 522 520
f 524 573 525
f 525 573 572
f 525 572 584
f 525 584 585
f 525 585 526
f 526 585 528
f 528 585 529
f 529 586 587
f 529 587 530
f 529 585 588
f 529 588 586
f 530 587 589
f 530 589 590
f 530 590 531
f 531 590 591
f 531 591 532
f 532 591 592
f 532 592 533
f 533 592 534
f 534 592 593
f 534 593 594
f 534 594 535
f 535 594 536
f 536 594 595
f 536 595 537
f 537 580 539
f 537 539 538
f 537 595 619
f 537 619 580
f 539 580 574
f 543 596 597
f 543 597 544
f 543 547 596
f 544 597 598
f 544 598 548
f 544 548 545
f 547 583 596
f 548 598 549
f 549 598 599
f 549 599 600
f 549 600 551
f 549 551 550
f 551 600 601
f 551 601 552
f 552 601 602
f 552 602 553
f 553 602 603
f 553 603 554
f 554 603 604
f 554 604 555
f 555 604 605
f 555 605 556
f 556 605 606
f 556 606 607
f 556 607 608
f 556 608 557
f 557 560 559
f 557 559 558
f 557 608 607
f 557 607 609
f 557 609 610
f 557 610 611
f 557 611 560
f 560 562 561
f 560 611 612
f 563 567 566
f 563 565 613
f 563 613 567
f 564 614 565
f 565 614 613
f 567 613 615
f 567 615 616
f 568 572 569
f 568 616 572
f 569 572 570
f 570 572 571
f 572 616 584
f 574 580 575
f 575 580 579
f 575 579 617
f 575 617 576
f 576 617 618
f 576 618 577
f 577 618 578
f 578 618 579
f 579 618 617
f 580 619 581
f 581 619 582
f 582 619 595
f 582 595 620
f 582 620 596
f 582 596 583
f 584 616 621
f 584 621 585
f 585 621 622
f 585 622 623
f 585 623 588
f 586 624 587
f 586 588 625
f 586 625 626
f 586 626 627
f 586 627 628
f 586 628 624
f 587 624 629
f 587 629 630
f 587 630 589
f 588 623 625
f 589 630 631
f 589 631 632
f 589 632 633
f 589 633 634
f 589 634 590
f 590 634 635
f 590 635 607
f 590 607 606
f 590 606 605
f 590 605 604
f 590 604 636
f 590 636 591
f 591 636 592
f 592 636 637
f 592 637 639
f 592 639 593
f 593 638 594
f 593 639 640
f 593 640 638
f 594 620 595
f 594 638 620
f 596 620 597
f 597 620 641
f 597 641 598
f 598 641 600
f 598 600 599
f 600 641 601
f 601 641 640
f 601 640 602
f 602 640 642
f 602 642 603
f 603 642 643
f 603 643 604
f 604 643 637
f 604 637 636
f 607 635 644
f 607 644 645
f 607 645 609
f 609 646 610
f 609 645 646
f 610 647 611
f 610 646 648
f 610 648 647
f 611 647 612
f 613 614 649
f 613 649 615
f 614 650 649
f 615 649 651
f 615 651 616
f 616 651 622
f 616 622 621
f 620 638 641
f 622 651 623
f 623 651 652
f 623 652 653
f 623 653 654
f 623 654 625
f 624 628 655
f 624 655 629
f 625 656 657
f 625 657 658
f 625 658 659
f 625 659 626
f 625 654 656
f 626 659 627
f 627 659 660
f 627 660 628
f 628 660 655
f 629 655 661
f 629 661 662
f 629 662 647
f 629 647 631
f 629 631 630
f 631 633 632
f 631 647 663
f 631 663 633
f 633 664 665
f 633 665 634
f 633 663 664
f 634 665 664
f 634 664 644
f 634 644 635
f 637 643 642
f 637 642 639
f 638 640 641
f 639 642 640
f 644 664 645
f 645 664 646
f 646 663 647
f 646 647 648
f 646 664 663
f 647 662 666
f 649 650 667
f 649 667 652
f 649 652 651
f 650 668 667
f 652 667 653
f 653 667 669
f 653 669 654
f 654 669 670
f 654 670 671
f 654 671 657
f 654 657 656
f 655 660 661
f 657 671 672
f 657 672 673
f 657 673 658
f 658 673 659
f 659 673 660
f 660 673 672
f 660 672 674
f 660 674 661
f 661 674 675
f 661 675 666
f 661 666 662
f 666 675 676
f 667 668 677
f 667 677 669
f 669 677 678
f 669 678 679
f 669 679 672
f 669 672 670
f 670 672 680
f 670 680 671
f 671 680 672
f 672 679 677
f 672 677 681
f 672 681 674
f 674 681 682
f 674 682 675
f 675 682 676
f 677 679 678

o geometry_2
v 0.01137218 -0.15490293 0.04018927
v 0.01234421 -0.15490293 0.03848894
v 0.00849835 -0.15490293 0.04018927
v 0.00480569 -0.24028936 0.02839073
v 0.01758473 -0.24028936 0.01915466
v 0.01849337 -0.24028936 0.01809295
v 0.02744768 -0.24028936 0.00469786
v 0.02003066 -0.15490293 0.00592721
v 0.00407138 -0.15490293 0.03748311
v -0.01113246 -0.24028936 0.02452707
v -0.00430182 -0.24028936 0.02814326
v 0.02783332 -0.24028936 -0.00565580
v 0.02068044 -0.15490293 -0.00594318
v -0.01318746 -0.15490293 0.01412552
v -0.02351001 -0.24028936 0.00948752
v -0.01716011 -0.24028936 0.01777364
v 0.02569908 -0.24028936 -0.01363857
v 0.01766397 -0.15490293 -0.02310614
v 0.02015216 -0.15490293 -0.01123576
v -0.01516850 -0.15490293 0.00957534
v -0.02438167 -0.24028936 0.00592721
v -0.01653674 -0.15490293 0.00592721
v 0.02234452 -0.24028936 -0.02051174
v 0.01242874 -0.15490293 -0.04128292
v 0.01465279 -0.15490293 -0.03396271
v -0.02546992 -0.24028936 0.00008382
v -0.01727105 -0.15490293 -0.00064262
v 0.01636969 -0.24028936 -0.02871803
v 0.00748934 -0.15490293 -0.04136274
v 0.01586255 -0.24028936 -0.02893356
v 0.00642222 -0.24028936 -0.03244598
v 0.00578300 -0.24028936 -0.03252581
v -0.02613555 -0.24028936 -0.00594318
v -0.01780461 -0.15490293 -0.00594318
v -0.00637267 -0.15490293 -0.02894155
v -0.00573346 -0.24028936 -0.03262161
v -0.01636241 -0.24028936 -0.02876593
v -0.02236893 -0.24028936 -0.01781356
v -0.01413308 -0.15490293 -0.01840429
v -0.01142829 -0.15490293 -0.02365695
v -0.01663183 -0.24028936 -0.02832687
f 683 684 690
f 683 690 695
f 683 695 701
f 683 701 700
f 683 700 707
f 683 707 706
f 683 706 711
f 683 711 717
f 683 717 722
f 683 722 721
f 683 721 716
f 683 716 709
f 683 709 704
f 683 704 702
f 683 702 696
f 683 696 691
f 683 691 685
f 683 685 686
f 683 686 687
f 683 687 688
f 683 688 689
f 683 689 684
f 684 689 690
f 685 691 692
f 685 692 693
f 685 693 686
f 686 693 692
f 686 692 698
f 686 698 697
f 686 697 703
f 686 703 708
f 686 708 715
f 686 715 720
f 686 720 723
f 686 723 719
f 686 719 718
f 686 718 714
f 686 714 713
f 686 713 712
f 686 712 710
f 686 710 705
f 686 705 699
f 686 699 694
f 686 694 689
f 686 689 688
f 686 688 687
f 689 694 695
f 689 695 690
f 691 696 697
f 691 697 698
f 691 698 692
f 694 699 700
f 694 700 701
f 694 701 695
f 696 702 697
f 697 702 704
f 697 704 703
f 699 705 706
f 699 706 707
f 699 707 700
f 703 704 708
f 704 709 708
f 705 710 706
f 706 710 712
f 706 712 713
f 706 713 714
f 706 714 711
f 708 709 715
f 709 716 715
f 711 714 718
f 711 718 719
f 711 719 717
f 715 716 721
f 715 721 720
f 717 719 722
f 719 723 722
f 720 721 722
f 720 722 723

o geometry_3
v 0.00748728 -0.15490292 -0.04130051
v 0.01242849 -0.15490292 -0.04122961
v -0.00637211 -0.15490292 -0.02889407
v 0.00601189 -0.15475797 -0.33834602
v 0.01240139 -0.15475797 -0.33834602
v 0.01465126 -0.15490292 -0.03392754
v -0.01142950 -0.15490292 -0.02364792
v 0.00025360 -0.15421958 -0.33834602
v 0.00705357 -0.15473312 -0.35018530
v -0.01413245 -0.15490292 -0.01840177
v -0.01780738 -0.15490292 -0.00592444
v 0.01239751 -0.15473312 -0.35018530
v 0.02068062 -0.15490292 -0.00592444
v 0.02015010 -0.15490292 -0.01117059
v 0.01766401 -0.15490292 -0.02308077
v -0.00289468 -0.14801571 -0.35018530
v 0.00129528 -0.15393796 -0.35018530
v 0.00919889 -0.15456332 -0.35656574
v -0.01888004 -0.11259402 -0.24306459
v -0.01869029 -0.11259402 -0.27872422
v -0.01851603 -0.11259402 -0.29056352
v -0.01845794 -0.11283422 -0.29084709
v -0.01144886 -0.13034421 -0.33834602
v -0.00835092 -0.13650666 -0.35018530
v -0.01726911 -0.15490292 -0.00060740
v 0.00859092 -0.15467928 0.35017569
v 0.00283263 -0.15353625 0.35017569
v -0.00315800 -0.14761813 0.35017569
v -0.00891630 -0.13722727 0.35017569
v -0.01181287 -0.13131330 0.35017569
v -0.01777253 -0.11283422 0.27892732
v -0.01781899 -0.11259402 0.27892732
v -0.01801649 -0.11259402 0.26708802
v -0.01827594 -0.11259402 0.24333857
v -0.01832628 -0.11259402 0.23142839
v 0.01210321 -0.15456332 -0.35656574
v 0.01590593 -0.14834289 -0.35018530
v 0.01781503 -0.13650666 -0.35018530
v 0.02033598 -0.14834289 -0.00592444
v 0.01831070 -0.13650666 0.35017569
v 0.01606082 -0.14834289 0.35017569
v 0.01233168 -0.15467928 0.35017569
v 0.02003006 -0.15490292 0.00591484
v -0.00182976 -0.14597399 -0.35798362
v 0.00552784 -0.14928713 -0.35869257
v -0.01850441 -0.11259402 -0.29084709
v -0.01791968 -0.11259402 -0.30247370
v -0.01786159 -0.11283422 -0.30268637
v -0.01118554 -0.12872076 -0.35018530
v -0.01653722 -0.15490292 0.00591484
v 0.00968295 -0.15451776 0.35648527
v -0.01517026 -0.15490292 0.00953043
v -0.01318758 -0.15490292 0.01406764
v 0.00407181 -0.15490292 0.03746264
v 0.00849798 -0.15490292 0.04015660
v -0.00206211 -0.14584974 0.35804492
v -0.01165410 -0.13097371 0.35634346
v -0.01738915 -0.11283422 0.29083748
v -0.01742401 -0.11259402 0.29083748
v 0.00578342 -0.13650666 -0.36209548
v 0.01367928 -0.14834289 -0.35798362
v 0.01463965 -0.13650666 -0.35911794
v 0.01331140 -0.12467044 -0.35805453
v 0.01203738 -0.11259402 -0.35670754
v 0.01532119 -0.12467044 -0.35018530
v 0.01553030 -0.12467044 -0.33834602
v 0.01887608 -0.13650666 -0.00592444
v 0.01886058 -0.13650666 0.00591484
v 0.01834168 -0.13650666 0.33833641
v 0.01420593 -0.11259402 0.33833641
v 0.01392325 -0.11259402 0.35017569
v 0.01258726 -0.11259402 0.35740688
v 0.01486812 -0.13650666 0.35917923
v 0.01374124 -0.14834289 0.35797402
v 0.01204900 -0.15451776 0.35648527
v 0.01137519 -0.15490292 0.04015660
v 0.01234330 -0.15490292 0.03845515
v -0.00397896 -0.13650666 -0.35904704
v -0.01166184 -0.12052486 -0.35635307
v -0.01682378 -0.11259402 -0.31431298
v -0.01676957 -0.11283422 -0.31459654
v -0.01204134 -0.12280266 -0.35018530
v 0.00582214 -0.14921673 0.35875386
v 0.00578342 -0.13650666 0.36215677
v -0.00583385 -0.13555413 0.35861206
v -0.00573317 -0.12467044 0.35960461
v -0.01175865 -0.12467044 0.35648527
v -0.01672310 -0.11259402 0.30267678
v -0.01670374 -0.11283422 0.30267678
v -0.00573317 -0.11283422 -0.35940151
v -0.00573317 -0.11259402 -0.35940151
v 0.00578342 -0.12467044 -0.36117387
v -0.00667029 -0.12455033 -0.35876347
v 0.00578342 -0.11259402 -0.35982688
v 0.01191733 -0.11259402 -0.35677845
v 0.01273829 -0.11259402 -0.35032708
v 0.01274216 -0.11259402 -0.35018530
v 0.01295127 -0.11259402 -0.33855869
v 0.01318749 -0.11259402 -0.30268637
v 0.01324170 -0.11259402 -0.29105978
v 0.01370252 -0.11259402 -0.16047318
v 0.01424079 -0.11259402 0.24305500
v 0.01424853 -0.11259402 0.25496516
v 0.01424853 -0.11259402 0.30267678
v 0.01424466 -0.11259402 0.31458696
v 0.00578342 -0.11259402 0.36045531
v -0.01247505 -0.11259402 -0.34997261
v -0.01244794 -0.11283422 -0.35018530
v -0.01163474 -0.11259402 -0.35621127
v -0.01161925 -0.11259402 -0.35628217
v -0.00573317 -0.11259402 0.35946280
v -0.01156503 -0.11259402 0.35648527
v -0.01168121 -0.11259402 0.35641437
v -0.01235113 -0.11259402 0.35031749
v -0.01236662 -0.11283422 0.35017569
v -0.01566593 -0.11259402 0.31458696
v 0.00555494 -0.11259402 -0.35982688
f 724 725 729
f 724 729 738
f 724 738 737
f 724 737 736
f 724 736 766
f 724 766 800
f 724 800 799
f 724 799 778
f 724 778 777
f 724 777 776
f 724 776 775
f 724 775 773
f 724 773 748
f 724 748 734
f 724 734 733
f 724 733 730
f 724 730 726
f 724 726 727
f 724 727 728
f 724 728 725
f 725 728 729
f 726 730 727
f 727 731 732
f 727 732 735
f 727 735 728
f 727 730 733
f 727 733 734
f 727 734 731
f 728 735 736
f 728 736 737
f 728 737 738
f 728 738 729
f 731 739 740
f 731 740 732
f 731 734 739
f 732 740 741
f 732 741 759
f 732 759 735
f 734 742 743
f 734 743 744
f 734 744 745
f 734 745 746
f 734 746 747
f 734 747 739
f 734 748 749
f 734 749 750
f 734 750 751
f 734 751 752
f 734 752 753
f 734 753 754
f 734 754 755
f 734 755 756
f 734 756 757
f 734 757 758
f 734 758 742
f 735 759 760
f 735 760 736
f 736 760 761
f 736 761 762
f 736 762 763
f 736 763 764
f 736 764 765
f 736 765 766
f 739 747 767
f 739 767 740
f 740 767 741
f 741 767 768
f 741 768 759
f 742 758 757
f 742 757 756
f 742 756 755
f 742 755 782
f 742 782 811
f 742 811 839
f 742 839 837
f 742 837 836
f 742 836 835
f 742 835 834
f 742 834 829
f 742 829 795
f 742 795 794
f 742 794 793
f 742 793 828
f 742 828 827
f 742 827 826
f 742 826 825
f 742 825 824
f 742 824 823
f 742 823 822
f 742 822 821
f 742 821 820
f 742 820 819
f 742 819 787
f 742 787 818
f 742 818 817
f 742 817 840
f 742 840 814
f 742 814 833
f 742 833 832
f 742 832 830
f 742 830 803
f 742 803 770
f 742 770 769
f 742 769 744
f 742 744 743
f 744 769 745
f 745 769 770
f 745 770 771
f 745 771 746
f 746 771 772
f 746 772 747
f 747 772 767
f 748 773 749
f 749 765 798
f 749 798 774
f 749 774 750
f 749 773 775
f 749 775 776
f 749 776 777
f 749 777 778
f 749 778 799
f 749 799 765
f 750 774 779
f 750 779 751
f 751 779 780
f 751 780 752
f 752 780 753
f 753 780 781
f 753 781 754
f 754 781 755
f 755 781 782
f 759 768 783
f 759 783 784
f 759 784 760
f 760 784 761
f 761 784 785
f 761 785 786
f 761 786 787
f 761 787 788
f 761 788 789
f 761 789 790
f 761 790 762
f 762 790 791
f 762 791 792
f 762 792 763
f 763 792 793
f 763 793 794
f 763 794 795
f 763 795 796
f 763 796 797
f 763 797 764
f 764 797 798
f 764 798 765
f 765 799 800
f 765 800 766
f 767 801 783
f 767 783 768
f 767 772 802
f 767 802 801
f 770 803 804
f 770 804 772
f 770 772 771
f 772 805 802
f 772 804 805
f 774 798 806
f 774 806 779
f 779 806 807
f 779 807 808
f 779 808 780
f 780 808 809
f 780 809 810
f 780 810 811
f 780 811 812
f 780 812 782
f 780 782 781
f 782 812 811
f 783 813 814
f 783 814 815
f 783 815 785
f 783 785 784
f 783 801 816
f 783 816 813
f 785 815 817
f 785 817 786
f 786 818 787
f 786 817 818
f 787 819 788
f 788 820 821
f 788 821 789
f 788 819 820
f 789 821 822
f 789 822 823
f 789 823 824
f 789 824 790
f 790 824 825
f 790 825 826
f 790 826 827
f 790 827 828
f 790 828 791
f 791 828 792
f 792 828 793
f 795 829 796
f 796 829 807
f 796 807 797
f 797 807 806
f 797 806 798
f 801 802 816
f 802 830 831
f 802 831 832
f 802 832 833
f 802 833 814
f 802 814 813
f 802 813 816
f 802 805 804
f 802 804 803
f 802 803 830
f 807 829 834
f 807 834 809
f 807 809 808
f 809 834 835
f 809 835 810
f 810 835 836
f 810 836 837
f 810 837 838
f 810 838 839
f 810 839 811
f 814 840 815
f 815 840 817
f 830 832 831
f 837 839 838

