# https://github.com/mikedh/trimesh

o geometry_0
v -0.05236362 -0.10102792 0.08933992
v -0.00732089 -0.10100863 0.13020557
v -0.00732089 -0.10100863 0.13531669
v -0.02234445 -0.10100863 0.14042782
v -0.04736042 -0.10100863 0.13531669
v -0.05236362 -0.10100863 0.13020557
v -0.05736681 -0.10100863 0.10467330
v -0.05736681 -0.10100863 0.05358540
v 0.05772063 -0.10095077 0.04847427
v 0.05772063 -0.10095077 0.05869652
v 0.01267791 -0.10098934 0.13531669
v -0.02234445 -0.10098934 0.14553895
v -0.03735403 -0.10098934 0.14553895
v -0.05236362 -0.10097005 0.14553895
v -0.06237000 -0.10095077 0.14553895
v -0.05736681 -0.10098934 0.13020557
v -0.06237000 -0.10098934 0.10978441
v -0.06237000 -0.10098934 0.04847427
v -0.06237000 -0.10089290 -0.07412267
v -0.05236362 -0.10091219 -0.08245450
v -0.05050489 -0.10091219 -0.08245450
v 0.04957298 -0.10085433 -0.08245450
v 0.05772063 -0.10083504 -0.08245450
v 0.06272383 -0.10093148 0.04336315
v 0.05271744 -0.10091219 0.13020557
v 0.04771424 -0.10093148 0.13020557
v 0.06272383 -0.10093148 0.05358540
v 0.04271105 -0.10093148 0.13531669
v 0.03270466 -0.10091219 0.14553895
v 0.01267791 -0.10097005 0.14042782
v 0.00767472 -0.10025640 0.15065007
v -0.06237000 -0.10033355 0.15065007
v -0.06738718 -0.09960062 0.14553895
v -0.06738718 -0.09958135 -0.02814590
v -0.06738718 -0.09956206 -0.06901155
v -0.06237000 -0.10087362 -0.08245450
v 0.06272383 -0.10081575 -0.08245450
v 0.06772702 -0.09936917 -0.08245450
v 0.05772063 -0.10087362 0.13020557
v 0.05772063 -0.10083504 0.14553895
v 0.05772063 -0.10089290 0.11489554
v 0.06772702 -0.09931131 0.14553895
v 0.06272383 -0.10079647 0.14553895
v 0.04271105 -0.10091219 0.14042782
v 0.04771424 -0.10087362 0.14553895
v 0.04771424 -0.10017926 0.15065007
v 0.05271744 -0.09801904 0.15433754
v 0.01267791 -0.09807692 0.15436089
v -0.06237000 -0.09813477 0.15440755
v -0.06649275 -0.09763329 0.15401080
v -0.06784836 -0.09842408 0.15109349
v -0.07025213 -0.09715110 0.14966985
v -0.07043381 -0.09740184 0.14553895
v -0.07041983 -0.09744042 -0.02814590
v -0.07043381 -0.09742113 -0.06390042
v -0.07041983 -0.09738255 -0.08245450
v -0.06738718 -0.09952347 -0.07923379
v -0.06738718 -0.09950420 -0.08245450
v 0.07067583 -0.09724754 -0.08245450
v 0.07067583 -0.09724754 -0.06390042
v 0.07067583 -0.09720896 0.14553895
v 0.06272383 -0.10012140 0.15065007
v 0.07053608 -0.09701609 0.14936645
v 0.06811833 -0.09825049 0.15090679
v 0.06272383 -0.09799977 0.15433754
v 0.06272383 -0.09402650 0.15566784
v -0.01232409 -0.09807692 0.15438422
v -0.06237000 -0.09402650 0.15578453
v -0.06784836 -0.09429653 0.15431420
v -0.06983287 -0.09616742 0.15307726
v -0.07111861 -0.09402650 0.14553895
v -0.07044779 -0.09429653 0.15109349
v -0.07043381 -0.09742113 -0.05878929
v -0.07109065 -0.09402650 -0.06901155
v -0.07043381 -0.09740184 -0.06901155
v -0.07106271 -0.09402650 -0.08245450
v 0.07103919 -0.09522233 -0.08245450
v 0.07129075 -0.09402650 0.14553895
v 0.06670682 -0.09753685 0.15396412
v 0.07067583 -0.09358289 0.15090679
v 0.07004694 -0.09497159 0.15277387
v 0.06811833 -0.09358289 0.15419751
v 0.06772702 -0.08893457 0.15452426
v 0.06272383 -0.08893457 0.15580786
v -0.06237000 -0.08893457 0.15592456
v -0.06738718 -0.08893457 0.15473430
v -0.06997262 -0.09277281 0.15331065
v -0.07071332 -0.08893457 0.15065007
v -0.07125836 -0.08893457 0.14553895
v -0.07118848 -0.08893457 -0.06901155
v -0.07117451 -0.08893457 -0.08245450
v -0.07110463 -0.09213632 -0.08245450
v 0.07124882 -0.09402650 -0.08245450
v 0.07145846 -0.08893457 0.14553895
v 0.07087149 -0.08893457 0.15065007
v 0.07024259 -0.09157698 0.15321729
v 0.06772702 0.05381326 0.15447756
v 0.07025657 -0.06852824 0.15324064
v 0.07027055 -0.02773488 0.15324064
v 0.07027055 -0.01755101 0.15324064
v 0.06272383 0.04872132 0.15573785
v 0.05772063 0.04872132 0.15576118
v -0.06237000 0.05892448 0.15597122
v -0.06738718 0.05892448 0.15471095
v -0.07001455 -0.06852824 0.15335732
v -0.07001455 -0.08893457 0.15335732
v -0.07069935 -0.07363947 0.15065007
v -0.06998660 0.04872132 0.15333400
v -0.06998660 0.05892448 0.15331065
v -0.07053164 0.05892448 0.15065007
v -0.07123041 -0.06852824 0.14553895
v -0.07116053 0.05381326 -0.08245450
v -0.07118848 -0.04302998 -0.07923379
v -0.07118848 -0.04814121 -0.07923379
v -0.07117451 -0.03284611 -0.08245450
v 0.07134665 -0.09082475 -0.08245450
v 0.07145846 -0.07363947 0.14553895
v 0.07088546 -0.07363947 0.15065007
v 0.07140255 -0.08893457 -0.08245450
v 0.07147243 -0.05003140 -0.08245450
v 0.07151436 0.00792796 -0.08245450
v 0.06272383 0.05892448 0.15569117
v 0.07025657 0.04872132 0.15321729
v 0.07024259 0.05659068 0.15321729
v 0.06820218 0.05853873 0.15419751
v 0.07088546 -0.06343631 0.15065007
v 0.05772063 0.05892448 0.15573785
v 0.05271744 0.05381326 0.15576118
v 0.05772063 0.08951467 0.15436089
v -0.05736681 0.08951467 0.15431420
v -0.06237000 0.08951467 0.15405748
v -0.06524894 0.08951467 0.15349736
v -0.06994467 0.06160547 0.15328730
v -0.07019623 0.06218409 0.15065007
v -0.07093692 0.05892448 0.14553895
v -0.07096488 0.05381326 0.14553895
v -0.07114656 0.05892448 -0.08245450
v 0.07143050 -0.02773488 0.14553895
v 0.07082956 0.04872132 0.15065007
v 0.07087149 -0.02773488 0.15065007
v 0.07150038 0.05381326 -0.07923379
v 0.07150038 0.05703430 -0.08245450
v 0.06544903 0.08951467 0.15338067
v 0.06272383 0.08951467 0.15398747
v 0.07081558 0.05381326 0.15065007
v 0.07068981 0.05853873 0.15109349
v 0.07017272 0.05998530 0.15307726
v 0.06272383 0.09248497 0.15349736
v 0.05772063 0.09277430 0.15370742
v -0.05736681 0.09271642 0.15366072
v -0.06237000 0.09252356 0.15352069
v -0.06501135 0.09221496 0.15331065
v -0.06660455 0.08951467 0.15065007
v -0.06755488 0.08951467 0.14553895
v -0.07065742 0.06401642 -0.08245450
v 0.07136063 0.04361010 0.14553895
v 0.07134665 0.05381326 0.14553895
v 0.07148640 0.05892448 -0.08245450
v 0.07148640 0.05892448 -0.07923379
v 0.07131870 0.05892448 0.14553895
v 0.06528133 0.09211851 0.15324064
v 0.07061993 0.06222267 0.14966985
v 0.06663694 0.08951467 0.15065007
v 0.06272383 0.09408585 0.15065007
v 0.05772063 0.09468377 0.15065007
v -0.05736681 0.09466448 0.15065007
v -0.06237000 0.09424015 0.15065007
v -0.06558435 0.09292860 0.15065007
v -0.06610144 0.09354580 0.14553895
v -0.06593373 0.09339150 -0.07923379
v -0.06748500 0.08951467 0.09956217
v -0.06716357 0.08951467 -0.08245450
v 0.07119292 0.06212623 -0.08245450
v 0.06755932 0.08951467 0.14553895
v 0.07101124 0.06401642 -0.08245450
v 0.06579842 0.09275501 0.15065007
v 0.06272383 0.09526240 0.14553895
v 0.05772063 0.09591817 0.14553895
v -0.05736681 0.09595675 0.14553895
v 0.01768110 0.09595675 0.14553895
v -0.06237000 0.09549385 0.14553895
v -0.06237000 0.09549385 0.13531669
v -0.06237000 0.09547456 0.10467330
v -0.06605951 0.09352650 0.10467330
v -0.06593373 0.09341079 -0.06901155
v -0.06237000 0.09516596 -0.07412267
v -0.06369767 0.09449089 -0.08245450
v -0.06593373 0.09337220 -0.08245450
v 0.06627358 0.09335291 0.14553895
v 0.06747546 0.08951467 0.08422881
v 0.06613382 0.09327576 -0.07412267
v 0.06950190 0.07421958 -0.08245450
v 0.05772063 0.09593746 0.14042782
v 0.06272383 0.09524311 0.08422881
v 0.05772063 0.09593746 0.07400655
v 0.05271744 0.09595675 0.14042782
v -0.05736681 0.09599532 0.14042782
v -0.02234445 0.09599532 0.14042782
v -0.05736681 0.09599532 0.12509445
v -0.05736681 0.09597605 0.10978441
v -0.05736681 0.09584102 0.02805312
v -0.05736681 0.09560957 -0.08245450
v -0.06237000 0.09514667 -0.08245450
v 0.06272383 0.09520453 0.02805312
v 0.06723788 0.08951467 -0.07412267
v 0.06653911 0.09186777 -0.08245450
v 0.06611985 0.09325649 -0.08245450
v 0.06486207 0.09395084 -0.08245450
v 0.06272383 0.09510809 -0.08245450
v 0.06722391 0.08951467 -0.08245450
v 0.05772063 0.09591817 0.03316424
v 0.05271744 0.09595675 0.10978441
v 0.05271744 0.09593746 0.03316424
v -0.03235084 0.09601461 0.13020557
v -0.03735403 0.09599532 0.10978441
v -0.00917962 0.09576387 -0.08245450
v -0.01232409 0.09576387 -0.07923379
v -0.05236362 0.09586031 0.02805312
v -0.05236362 0.09564815 -0.07923379
v -0.05422235 0.09562886 -0.08245450
v 0.05772063 0.09574460 -0.08245450
v 0.05271744 0.09576387 -0.08245450
v 0.04771424 0.09578316 -0.07923379
v 0.04771424 0.09593746 0.03316424
v -0.00231770 0.09591817 0.02805312
v 0.00767472 0.09578316 -0.07923379
v -0.01732728 0.09574460 -0.08245450
v -0.04736042 0.09566743 -0.07923379
v -0.04421595 0.09566743 -0.08245450
f 1 2 3
f 1 3 4
f 1 4 5
f 1 5 6
f 1 6 7
f 1 7 17
f 1 17 18
f 1 18 8
f 1 8 9
f 1 9 2
f 2 9 10
f 2 10 3
f 3 10 11
f 3 11 4
f 4 12 13
f 4 13 5
f 4 11 30
f 4 30 12
f 5 13 14
f 5 14 15
f 5 15 6
f 6 15 16
f 6 16 17
f 6 17 7
f 8 18 19
f 8 19 20
f 8 20 21
f 8 21 9
f 9 21 22
f 9 22 23
f 9 23 24
f 9 24 27
f 9 27 10
f 10 25 26
f 10 26 11
f 10 27 25
f 11 26 28
f 11 28 29
f 11 29 30
f 12 30 29
f 12 29 31
f 12 31 32
f 12 32 13
f 13 32 14
f 14 32 15
f 15 32 33
f 15 33 17
f 15 17 16
f 17 33 18
f 18 34 35
f 18 35 19
f 18 33 34
f 19 35 36
f 19 36 20
f 20 36 58
f 20 58 56
f 20 56 76
f 20 76 92
f 20 92 91
f 20 91 115
f 20 115 112
f 20 112 137
f 20 137 155
f 20 155 172
f 20 172 188
f 20 188 187
f 20 187 203
f 20 203 202
f 20 202 220
f 20 220 229
f 20 229 227
f 20 227 216
f 20 216 222
f 20 222 221
f 20 221 209
f 20 209 208
f 20 208 207
f 20 207 206
f 20 206 210
f 20 210 192
f 20 192 175
f 20 175 173
f 20 173 158
f 20 158 142
f 20 142 121
f 20 121 120
f 20 120 119
f 20 119 116
f 20 116 93
f 20 93 77
f 20 77 59
f 20 59 38
f 20 38 37
f 20 37 23
f 20 23 22
f 20 22 21
f 23 37 24
f 24 37 38
f 24 38 27
f 25 39 43
f 25 43 40
f 25 40 45
f 25 45 44
f 25 44 28
f 25 28 26
f 25 27 41
f 25 41 39
f 27 38 42
f 27 42 43
f 27 43 39
f 27 39 41
f 28 44 29
f 29 45 46
f 29 46 31
f 29 44 45
f 31 46 47
f 31 47 48
f 31 48 49
f 31 49 32
f 32 50 51
f 32 51 33
f 32 49 50
f 33 51 52
f 33 52 53
f 33 53 54
f 33 54 34
f 34 54 55
f 34 55 35
f 35 55 56
f 35 56 57
f 35 57 36
f 36 57 58
f 38 59 60
f 38 60 61
f 38 61 42
f 40 43 62
f 40 62 46
f 40 46 45
f 42 61 63
f 42 63 64
f 42 64 62
f 42 62 43
f 46 62 65
f 46 65 47
f 47 65 48
f 48 65 66
f 48 66 67
f 48 67 49
f 49 67 68
f 49 68 50
f 50 69 70
f 50 70 51
f 50 68 69
f 51 70 52
f 52 71 53
f 52 70 72
f 52 72 71
f 53 71 73
f 53 73 54
f 54 73 55
f 55 74 75
f 55 75 56
f 55 73 71
f 55 71 74
f 56 58 57
f 56 75 74
f 56 74 76
f 59 77 78
f 59 78 60
f 60 78 61
f 61 78 63
f 62 64 79
f 62 79 65
f 63 78 80
f 63 80 81
f 63 81 79
f 63 79 64
f 65 79 66
f 66 79 82
f 66 82 83
f 66 83 84
f 66 84 85
f 66 85 68
f 66 68 67
f 68 85 86
f 68 86 69
f 69 87 70
f 69 86 87
f 70 87 72
f 71 72 88
f 71 88 89
f 71 89 74
f 72 87 88
f 74 90 91
f 74 91 92
f 74 92 76
f 74 89 90
f 77 93 78
f 78 94 95
f 78 95 80
f 78 93 94
f 79 81 82
f 80 96 81
f 80 95 96
f 81 96 82
f 82 96 83
f 83 97 84
f 83 96 98
f 83 98 99
f 83 99 100
f 83 100 97
f 84 101 102
f 84 102 103
f 84 103 85
f 84 97 101
f 85 103 86
f 86 103 104
f 86 104 105
f 86 105 106
f 86 106 87
f 87 106 88
f 88 107 89
f 88 106 105
f 88 105 108
f 88 108 109
f 88 109 107
f 89 107 110
f 89 110 111
f 89 111 112
f 89 112 113
f 89 113 114
f 89 114 90
f 90 114 91
f 91 114 113
f 91 113 115
f 93 116 94
f 94 117 126
f 94 126 118
f 94 118 95
f 94 116 119
f 94 119 120
f 94 120 121
f 94 121 117
f 95 118 96
f 96 118 98
f 97 122 101
f 97 100 123
f 97 123 124
f 97 124 125
f 97 125 122
f 98 118 99
f 99 118 126
f 99 126 100
f 100 126 123
f 101 127 102
f 101 122 127
f 102 128 103
f 102 127 128
f 103 129 130
f 103 130 131
f 103 131 132
f 103 132 104
f 103 128 127
f 103 127 129
f 104 132 133
f 104 133 109
f 104 109 108
f 104 108 105
f 107 109 110
f 109 133 110
f 110 133 134
f 110 134 135
f 110 135 136
f 110 136 111
f 111 136 112
f 112 115 113
f 112 136 137
f 117 138 139
f 117 139 140
f 117 140 126
f 117 121 141
f 117 141 142
f 117 142 138
f 121 142 141
f 122 125 143
f 122 143 144
f 122 144 129
f 122 129 127
f 123 126 140
f 123 140 139
f 123 139 124
f 124 139 145
f 124 145 146
f 124 146 147
f 124 147 125
f 125 147 143
f 129 144 148
f 129 148 149
f 129 149 130
f 130 149 150
f 130 150 151
f 130 151 131
f 131 151 152
f 131 152 132
f 132 152 133
f 133 152 153
f 133 153 154
f 133 154 134
f 134 154 135
f 135 154 155
f 135 155 137
f 135 137 136
f 138 156 139
f 138 142 156
f 139 156 157
f 139 157 145
f 142 158 159
f 142 159 160
f 142 160 157
f 142 157 156
f 143 147 161
f 143 161 144
f 144 161 148
f 145 157 160
f 145 160 146
f 146 160 162
f 146 162 147
f 147 162 163
f 147 163 161
f 148 161 164
f 148 164 165
f 148 165 149
f 149 165 166
f 149 166 150
f 150 166 151
f 151 166 167
f 151 167 152
f 152 167 168
f 152 168 153
f 153 168 154
f 154 168 169
f 154 169 170
f 154 170 171
f 154 171 155
f 155 171 172
f 158 173 159
f 159 173 160
f 160 174 162
f 160 173 175
f 160 175 174
f 161 163 176
f 161 176 164
f 162 174 163
f 163 174 176
f 164 176 177
f 164 177 178
f 164 178 165
f 165 179 166
f 165 178 180
f 165 180 179
f 166 179 167
f 167 179 181
f 167 181 168
f 168 181 169
f 169 181 182
f 169 182 183
f 169 183 184
f 169 184 185
f 169 185 170
f 170 185 186
f 170 186 187
f 170 187 188
f 170 188 172
f 170 172 171
f 174 189 176
f 174 175 190
f 174 190 191
f 174 191 189
f 175 192 190
f 176 189 177
f 177 193 178
f 177 189 194
f 177 194 195
f 177 195 193
f 178 193 196
f 178 196 180
f 179 180 198
f 179 198 197
f 179 197 181
f 180 196 198
f 181 197 199
f 181 199 182
f 182 199 183
f 183 199 200
f 183 200 201
f 183 201 186
f 183 186 185
f 183 185 184
f 186 201 202
f 186 202 203
f 186 203 187
f 189 191 204
f 189 204 194
f 190 192 205
f 190 205 206
f 190 206 191
f 191 206 207
f 191 207 208
f 191 208 209
f 191 209 204
f 192 210 205
f 193 195 212
f 193 212 196
f 194 204 211
f 194 211 195
f 195 211 213
f 195 213 212
f 196 214 198
f 196 212 214
f 197 198 214
f 197 214 199
f 199 214 215
f 199 215 200
f 200 215 216
f 200 216 217
f 200 217 218
f 200 218 201
f 201 218 228
f 201 228 219
f 201 219 202
f 202 219 220
f 204 209 211
f 205 210 206
f 209 221 211
f 211 221 222
f 211 222 213
f 212 213 214
f 213 222 223
f 213 223 226
f 213 226 224
f 213 224 214
f 214 224 215
f 215 224 225
f 215 225 216
f 216 225 226
f 216 226 223
f 216 223 222
f 216 227 217
f 217 227 218
f 218 227 228
f 219 228 229
f 219 229 220
f 224 226 225
f 227 229 228

o geometry_1
v -0.00992129 0.09576172 -0.08245450
v -0.00992129 0.09576172 -0.08435067
v -0.04736528 0.09967098 -0.12521560
v -0.01233664 0.09576172 -0.08245450
v -0.00992129 -0.10076190 -0.08245450
v -0.00992129 0.09574208 -0.08946239
v -0.05737517 0.09560457 -0.08245450
v -0.05237023 0.09564385 -0.08245450
v -0.03921796 0.09568315 -0.08245450
v -0.00992129 0.09572244 -0.09456690
v -0.00992129 0.09556528 -0.13032732
v -0.00992129 0.09538848 -0.13279306
v -0.00992129 0.09519204 -0.13543183
v -0.02735149 0.09546707 -0.14564806
v -0.03235644 0.09550635 -0.14564806
v -0.06238013 0.09450447 -0.15075978
v -0.06238013 0.09552600 -0.14564806
v -0.06738507 0.09415087 -0.14564806
v -0.06238013 0.09554564 -0.10479034
v -0.06238013 0.09513310 -0.08245450
v -0.02735149 -0.10084047 -0.08245450
v -0.00992129 -0.10078154 -0.08343503
v -0.00992129 0.09344368 -0.13915928
v -0.01985909 0.09202927 -0.15330482
v -0.02185987 0.09334545 -0.15126446
v -0.02735149 0.09440626 -0.15075978
v -0.03235644 0.09442590 -0.15075978
v -0.06238013 0.09275612 -0.15380229
v -0.06572077 0.09252038 -0.15364369
v -0.06738507 0.09320795 -0.15059395
v -0.06738507 0.09405266 -0.10989486
v -0.07004677 0.09232394 -0.14877709
v -0.07010685 0.09242215 -0.14564806
v -0.06738507 0.09401336 -0.10479034
v -0.06593105 0.09338475 -0.08245450
v -0.04550870 -0.10089941 -0.08245450
v -0.04236033 -0.10089941 -0.08435067
v -0.00992129 -0.10086013 -0.10231740
v -0.00992129 0.08120515 -0.15211521
v -0.00992129 0.07996754 -0.15309574
v -0.00992129 0.07865136 -0.15401138
v -0.00992129 0.07651011 -0.15432862
v -0.00992129 0.07421170 -0.15466026
v -0.02185987 0.09000589 -0.15380229
v -0.02319973 0.09246145 -0.15357879
v -0.02735149 0.09267755 -0.15373020
v -0.03235644 0.09269718 -0.15374461
v -0.05737517 0.09273648 -0.15379508
v -0.06238013 0.08951478 -0.15448722
v -0.06635164 0.08951478 -0.15390324
v -0.06885111 0.08951478 -0.15181961
v -0.07003475 0.09230429 -0.10989486
v -0.07001673 0.09228465 -0.10479034
v -0.07016694 0.08951478 -0.14926736
v -0.07039525 0.08951478 -0.14564806
v -0.06996266 0.09218642 -0.10123593
v -0.06782368 0.09340439 -0.09959210
v -0.06716277 0.08951478 -0.08245450
v -0.05737517 -0.10089941 -0.08245450
v -0.05237023 -0.10091906 -0.08435067
v -0.00992129 -0.10087977 -0.10742191
v -0.00992129 -0.10097800 -0.13807059
v -0.00992129 -0.10091906 -0.11764534
v -0.02735149 0.08951478 -0.15434303
v -0.00992129 0.06401621 -0.15576335
v -0.03235644 0.08951478 -0.15437186
v -0.06238013 0.06401621 -0.15587150
v -0.06738507 0.05890864 -0.15471073
v -0.06787776 0.06438945 -0.15437186
v -0.06987253 0.06633426 -0.15328319
v -0.07022101 0.08951478 -0.10989486
v -0.07016694 0.08951478 -0.10479034
v -0.07037723 0.06438945 -0.15125004
v -0.07060555 0.05890864 -0.15075978
v -0.07118836 0.05890864 -0.14564806
v -0.07115831 0.05890864 -0.08946239
v -0.07115230 0.05890864 -0.08245450
v -0.07066563 0.06401621 -0.08245450
v -0.06052355 -0.10087977 -0.08245450
v -0.06238013 -0.10089941 -0.09456690
v -0.05737517 -0.10091906 -0.09456690
v -0.06238013 -0.10093870 -0.14564806
v -0.01734159 -0.10097800 -0.14564806
v -0.00992129 -0.10097800 -0.14564806
v -0.00992129 0.06154100 -0.15582103
v -0.00992129 0.05890864 -0.15587871
v -0.06238013 0.05890864 -0.15595081
v -0.06995064 0.05890864 -0.15339133
v -0.06993261 0.06293576 -0.15336250
v -0.06238013 0.05382071 -0.15597242
v -0.06738507 0.05382071 -0.15472514
v -0.07061756 0.05382071 -0.15075978
v -0.07120638 0.05382071 -0.14564806
v -0.07117033 0.05382071 -0.08946239
v -0.07116432 0.05382071 -0.08435067
v -0.07115831 0.05382071 -0.08245450
v -0.06238013 -0.10086013 -0.08245450
v -0.06552850 -0.10001540 -0.08245450
v -0.06738507 -0.09956359 -0.09967862
v -0.06738507 -0.09962252 -0.14564806
v -0.06238013 -0.10050653 -0.15075978
v -0.00992129 -0.10074226 -0.14828683
v -0.00992129 0.05382071 -0.15588591
v -0.01233664 0.05382071 -0.15589313
v -0.06238013 0.04871314 -0.15598686
v -0.05737517 0.05382071 -0.15596523
v -0.06738507 -0.08893590 -0.15496306
v -0.07008883 -0.08893590 -0.15356437
v -0.07008282 -0.07872076 -0.15354996
v -0.07072571 -0.02774327 -0.15075978
v -0.07121840 0.04871314 -0.14564806
v -0.07122440 0.04362521 -0.14564806
v -0.07127848 -0.00224471 -0.14564806
v -0.07124243 -0.03285085 -0.10479034
v -0.07123041 -0.03285085 -0.09967862
v -0.07118235 -0.04304634 -0.08245450
v -0.06738507 -0.09950465 -0.08245450
v -0.06929572 -0.09816882 -0.08245450
v -0.07041929 -0.09738304 -0.08245450
v -0.07043731 -0.09740270 -0.09967862
v -0.07044332 -0.09744197 -0.14564806
v -0.07019698 -0.09706873 -0.15075978
v -0.06738507 -0.09903318 -0.15075978
v -0.06238013 -0.09830634 -0.15462420
v -0.00992129 -0.10048687 -0.15075978
v -0.06738507 -0.09748127 -0.15400417
v -0.00992129 -0.07872076 -0.15607337
v -0.00992129 -0.08893590 -0.15608779
v -0.01734159 -0.08382834 -0.15608779
v -0.03235644 -0.08893590 -0.15610222
v -0.06238013 -0.08893590 -0.15610942
v -0.06238013 -0.09402384 -0.15602291
v -0.06738507 -0.09402384 -0.15483329
v -0.07001673 -0.09402384 -0.15347786
v -0.07079180 -0.08893590 -0.15075978
v -0.07078579 -0.07872076 -0.15075978
v -0.07129049 -0.04304634 -0.14564806
v -0.07129049 -0.04813427 -0.14564806
v -0.07121840 -0.08893590 -0.09967862
v -0.07117634 -0.08893590 -0.08245450
v -0.07118235 -0.05135597 -0.08245450
v -0.07106819 -0.09402384 -0.08245450
v -0.07110424 -0.09402384 -0.09967862
v -0.07112827 -0.09402384 -0.14564806
v -0.07065361 -0.09402384 -0.15075978
v -0.06992660 -0.09663656 -0.15336250
v -0.05737517 -0.09402384 -0.15602291
v -0.01233664 -0.09828668 -0.15461700
v -0.00992129 -0.09828668 -0.15460978
v -0.00992129 -0.09402384 -0.15600127
v -0.01734159 -0.09402384 -0.15600849
v -0.07126045 -0.08893590 -0.14564806
v -0.07126647 -0.08382834 -0.14564806
v -0.07111025 -0.09213796 -0.08245450
v -0.00992129 -0.09608650 -0.15533076
f 230 231 232
f 230 232 233
f 230 233 238
f 230 238 237
f 230 237 236
f 230 236 249
f 230 249 264
f 230 264 287
f 230 287 307
f 230 307 306
f 230 306 325
f 230 325 345
f 230 345 370
f 230 370 369
f 230 369 383
f 230 383 371
f 230 371 348
f 230 348 347
f 230 347 346
f 230 346 327
f 230 327 326
f 230 326 308
f 230 308 288
f 230 288 265
f 230 265 250
f 230 250 234
f 230 234 251
f 230 251 267
f 230 267 290
f 230 290 292
f 230 292 291
f 230 291 313
f 230 313 331
f 230 331 354
f 230 354 378
f 230 378 384
f 230 384 379
f 230 379 357
f 230 357 356
f 230 356 332
f 230 332 315
f 230 315 314
f 230 314 294
f 230 294 272
f 230 272 271
f 230 271 270
f 230 270 269
f 230 269 268
f 230 268 252
f 230 252 242
f 230 242 241
f 230 241 240
f 230 240 239
f 230 239 235
f 230 235 231
f 231 235 232
f 232 236 237
f 232 237 238
f 232 238 233
f 232 235 239
f 232 239 240
f 232 240 241
f 232 241 242
f 232 242 243
f 232 243 244
f 232 244 245
f 232 245 246
f 232 246 247
f 232 247 248
f 232 248 249
f 232 249 236
f 234 250 251
f 242 252 253
f 242 253 254
f 242 254 255
f 242 255 243
f 243 255 244
f 244 255 256
f 244 256 245
f 245 256 257
f 245 257 258
f 245 258 259
f 245 259 246
f 246 259 247
f 247 260 248
f 247 259 261
f 247 261 262
f 247 262 260
f 248 260 263
f 248 263 249
f 249 263 264
f 250 265 266
f 250 266 267
f 250 267 251
f 252 268 253
f 253 268 269
f 253 269 270
f 253 270 271
f 253 271 272
f 253 272 273
f 253 273 274
f 253 274 254
f 254 274 255
f 255 274 275
f 255 275 276
f 255 276 256
f 256 276 257
f 257 276 277
f 257 277 278
f 257 278 258
f 258 261 259
f 258 278 279
f 258 279 280
f 258 280 261
f 260 262 281
f 260 281 282
f 260 282 263
f 261 280 283
f 261 283 284
f 261 284 262
f 262 284 281
f 263 282 285
f 263 285 286
f 263 286 264
f 264 286 285
f 264 285 287
f 265 288 289
f 265 289 266
f 266 290 267
f 266 289 291
f 266 291 292
f 266 292 290
f 272 293 273
f 272 294 293
f 273 293 274
f 274 293 275
f 275 293 295
f 275 295 278
f 275 278 276
f 276 278 277
f 278 295 294
f 278 294 296
f 278 296 279
f 279 296 297
f 279 297 298
f 279 298 299
f 279 299 280
f 280 299 283
f 281 284 282
f 282 284 300
f 282 300 301
f 282 301 285
f 283 299 302
f 283 302 303
f 283 303 304
f 283 304 284
f 284 304 305
f 284 305 306
f 284 306 300
f 285 301 306
f 285 306 307
f 285 307 287
f 288 308 309
f 288 309 310
f 288 310 289
f 289 310 311
f 289 311 312
f 289 312 291
f 291 312 313
f 293 294 295
f 294 314 296
f 296 314 315
f 296 315 316
f 296 316 297
f 297 317 318
f 297 318 298
f 297 316 319
f 297 319 320
f 297 320 317
f 298 318 299
f 299 318 302
f 300 306 301
f 302 318 303
f 303 318 317
f 303 317 321
f 303 321 322
f 303 322 304
f 304 322 305
f 305 322 323
f 305 323 306
f 306 323 324
f 306 324 325
f 308 326 309
f 309 311 310
f 309 326 327
f 309 327 328
f 309 328 329
f 309 329 311
f 311 329 330
f 311 330 312
f 312 330 331
f 312 331 313
f 315 332 333
f 315 333 334
f 315 334 335
f 315 335 319
f 315 319 316
f 317 320 336
f 317 336 337
f 317 337 338
f 317 338 339
f 317 339 321
f 319 335 334
f 319 334 320
f 320 334 336
f 321 340 322
f 321 339 340
f 322 340 323
f 323 340 341
f 323 341 342
f 323 342 324
f 324 342 343
f 324 343 344
f 324 344 345
f 324 345 325
f 327 346 328
f 328 346 347
f 328 347 348
f 328 348 349
f 328 349 329
f 329 349 350
f 329 350 351
f 329 351 352
f 329 352 330
f 330 353 354
f 330 354 331
f 330 352 355
f 330 355 353
f 332 356 333
f 333 356 357
f 333 357 334
f 334 357 358
f 334 358 359
f 334 359 360
f 334 360 336
f 336 360 361
f 336 361 362
f 336 362 363
f 336 363 337
f 337 363 364
f 337 364 365
f 337 365 338
f 338 365 339
f 339 365 342
f 339 342 341
f 339 341 340
f 342 365 364
f 342 364 366
f 342 366 343
f 343 366 367
f 343 367 368
f 343 368 344
f 344 368 369
f 344 369 370
f 344 370 345
f 348 371 372
f 348 372 349
f 349 372 373
f 349 373 350
f 350 373 351
f 351 374 375
f 351 375 352
f 351 373 374
f 352 375 355
f 353 355 361
f 353 361 376
f 353 376 377
f 353 377 354
f 354 377 378
f 355 375 362
f 355 362 361
f 357 379 380
f 357 380 359
f 357 359 358
f 359 380 376
f 359 376 360
f 360 376 361
f 362 375 363
f 363 375 374
f 363 374 364
f 364 374 373
f 364 373 381
f 364 381 382
f 364 382 367
f 364 367 366
f 367 382 368
f 368 382 381
f 368 381 372
f 368 372 371
f 368 371 383
f 368 383 369
f 372 381 373
f 376 380 377
f 377 380 384
f 377 384 378
f 379 384 380

o geometry_2
v 0.05272298 0.09576319 -0.08245450
v 0.03490554 0.09576319 -0.08245450
v 0.05772572 0.09574352 -0.08245450
v 0.04772024 0.09997238 -0.12521515
v 0.01548833 0.09576319 -0.08246171
v 0.03490554 -0.10080994 -0.08245450
v 0.06087579 0.09535014 -0.08245450
v 0.02770380 0.09546815 -0.14564051
v 0.01548833 0.09521245 -0.13542783
v 0.01548833 0.09536981 -0.13317195
v 0.01548833 0.09552716 -0.13031788
v 0.01548833 0.09572385 -0.09232123
v 0.06272845 0.09509444 -0.08245450
v 0.05619191 0.09798580 -0.12677912
v 0.06272845 0.09556650 -0.14564772
v 0.06272845 0.09454370 -0.15075045
v 0.02770380 0.09444536 -0.15075045
v 0.01548833 -0.10077060 -0.08246171
v 0.01769833 -0.10079027 -0.08246171
v 0.03957293 -0.10082960 -0.08245450
v 0.02270107 0.09387496 -0.15075045
v 0.02270107 0.09479940 -0.14564051
v 0.01974890 0.09267514 -0.15075045
v 0.02016122 0.09210473 -0.15333785
v 0.01548833 0.09430768 -0.13819541
v 0.06487248 0.09395363 -0.08245450
v 0.06773669 0.09403231 -0.09968705
v 0.06773669 0.09440602 -0.10478979
v 0.06773669 0.09442569 -0.14564772
v 0.06778617 0.09330455 -0.15075045
v 0.06614791 0.09253745 -0.15364778
v 0.06272845 0.09277349 -0.15382075
v 0.05772572 0.09277349 -0.15380633
v 0.02770380 0.09267514 -0.15373425
v 0.02270107 0.09241944 -0.15353965
v 0.01548833 -0.10079027 -0.08329055
v 0.03490005 -0.10082960 -0.08352118
v 0.04772024 -0.10084928 -0.08435001
v 0.05457564 -0.10082960 -0.08245450
v 0.02270107 0.08950841 -0.15394327
v 0.01548833 0.06401724 -0.15573067
v 0.01548833 0.07420584 -0.15464238
v 0.01548833 0.07922147 -0.15400813
v 0.01548833 0.08144407 -0.15281172
v 0.01548833 0.08354866 -0.15057027
v 0.01548833 0.09352091 -0.13990353
v 0.06613141 0.09326521 -0.08245450
v 0.07045246 0.09239977 -0.09968705
v 0.07056791 0.09259646 -0.10478979
v 0.07062838 0.09267514 -0.14564772
v 0.07050194 0.09245878 -0.14904234
v 0.06931997 0.08950841 -0.15222073
v 0.06681860 0.08950841 -0.15390002
v 0.06272845 0.08950841 -0.15449102
v 0.02770380 0.08950841 -0.15431084
v 0.01548833 -0.10090829 -0.11725834
v 0.05272298 -0.10084928 -0.08946717
v 0.05772572 -0.10082960 -0.08435001
v 0.01548833 -0.10092795 -0.12520794
v 0.01548833 -0.10096729 -0.14564051
v 0.04772024 -0.10086895 -0.09968705
v 0.06272845 -0.10080994 -0.08245450
v 0.05772572 0.06399757 -0.15574508
v 0.01548833 0.06116522 -0.15579553
v 0.06723092 0.08950841 -0.08245450
v 0.07030403 0.09216374 -0.09702036
v 0.07066137 0.08950841 -0.09968705
v 0.07091975 0.08950841 -0.10478979
v 0.07094723 0.08950841 -0.10989974
v 0.07109017 0.08950841 -0.14564772
v 0.07067786 0.08950841 -0.14966216
v 0.06955636 0.08441411 -0.15241533
v 0.07025455 0.06183397 -0.15333066
v 0.06705500 0.08441411 -0.15401535
v 0.06272845 0.06399757 -0.15574508
v 0.04272301 -0.10088862 -0.14564772
v 0.01548833 -0.10045590 -0.15075045
v 0.06272845 -0.10035755 -0.15075045
v 0.06272845 -0.10080994 -0.14564772
v 0.06773669 -0.09949211 -0.14564772
v 0.06773669 -0.09939376 -0.09456990
v 0.06773669 -0.09935443 -0.08245450
v 0.05772572 0.05890327 -0.15585319
v 0.01548833 0.05890327 -0.15584599
v 0.07101321 0.06399757 -0.08245450
v 0.07119462 0.06210933 -0.08245450
v 0.07149149 0.05890327 -0.08245450
v 0.07149699 0.05890327 -0.08435001
v 0.07158494 0.05890327 -0.13543504
v 0.07159594 0.05890327 -0.14564772
v 0.07071634 0.08441411 -0.14986396
v 0.06772569 0.05380897 -0.15458472
v 0.06823146 0.05850989 -0.15432525
v 0.06817099 0.06372220 -0.15428922
v 0.07079331 0.05850989 -0.15126216
v 0.07098022 -0.07872152 -0.15075045
v 0.07027104 -0.07872152 -0.15335227
v 0.06773669 -0.08891012 -0.15470724
v 0.06272845 0.05890327 -0.15585319
v 0.01548833 -0.09825295 -0.15459913
v 0.05772572 -0.09821362 -0.15459913
v 0.06272845 -0.09821362 -0.15458472
v 0.06677462 -0.09764321 -0.15414507
v 0.06816000 -0.09839064 -0.15110361
v 0.07058990 -0.09709247 -0.14962612
v 0.07076582 -0.09734818 -0.14564772
v 0.07074932 -0.09730883 -0.12010521
v 0.07073283 -0.09730883 -0.11500247
v 0.07072184 -0.09728917 -0.10478979
v 0.07067786 -0.09724983 -0.08435001
v 0.07067236 -0.09723016 -0.08245450
v 0.05772572 0.05380897 -0.15588202
v 0.01548833 -0.08668752 -0.15606940
v 0.07150798 0.05380897 -0.08245450
v 0.07151348 0.05380897 -0.08435001
v 0.07160694 0.04871467 -0.14564772
v 0.07091975 0.05380897 -0.15073604
v 0.07093074 0.04871467 -0.15072163
v 0.06272845 -0.08891012 -0.15606940
v 0.06272845 0.04871467 -0.15588202
v 0.07163992 -0.07872152 -0.14564772
v 0.07096922 -0.08381582 -0.15075045
v 0.07026554 -0.08891012 -0.15333066
v 0.07162893 0.00792092 -0.14564772
v 0.07165092 -0.06853292 -0.14564772
v 0.07025455 -0.09174248 -0.15333066
v 0.06816000 -0.09367005 -0.15438292
v 0.06272845 -0.09400443 -0.15597571
v 0.01548833 -0.09402409 -0.15598291
v 0.07010611 -0.09512556 -0.15303516
v 0.07073283 -0.09367005 -0.15110361
v 0.07144201 -0.09400443 -0.14564772
v 0.07071634 -0.09726950 -0.09968705
v 0.07141452 -0.09400443 -0.12010521
v 0.07137604 -0.09400443 -0.10478979
v 0.07135405 -0.09400443 -0.09968705
v 0.07104069 -0.09520424 -0.08245450
v 0.03772027 -0.08891012 -0.15608382
v 0.01548833 -0.08891012 -0.15606940
v 0.07151348 0.00792092 -0.08245450
v 0.07155746 -0.08891012 -0.10989974
v 0.07162893 -0.08381582 -0.14564772
v 0.07095274 -0.08891012 -0.15075045
v 0.07154646 -0.08891012 -0.10478979
v 0.07161244 -0.08891012 -0.14564772
v 0.07125509 -0.09400443 -0.08245450
v 0.07148049 -0.04813605 -0.08245450
v 0.07140903 -0.08891012 -0.08245450
f 385 386 390
f 385 390 404
f 385 404 423
f 385 423 446
f 385 446 466
f 385 466 495
f 385 495 521
f 385 521 530
f 385 530 532
f 385 532 531
f 385 531 524
f 385 524 498
f 385 498 471
f 385 471 470
f 385 470 469
f 385 469 449
f 385 449 431
f 385 431 410
f 385 410 397
f 385 397 391
f 385 391 387
f 385 387 388
f 385 388 386
f 386 388 389
f 386 389 402
f 386 402 390
f 387 391 388
f 388 392 393
f 388 393 394
f 388 394 395
f 388 395 396
f 388 396 389
f 388 391 397
f 388 397 398
f 388 398 399
f 388 399 400
f 388 400 401
f 388 401 392
f 389 396 395
f 389 395 394
f 389 394 393
f 389 393 409
f 389 409 430
f 389 430 429
f 389 429 428
f 389 428 427
f 389 427 426
f 389 426 425
f 389 425 448
f 389 448 468
f 389 468 497
f 389 497 523
f 389 523 513
f 389 513 484
f 389 484 461
f 389 461 444
f 389 444 443
f 389 443 440
f 389 440 420
f 389 420 402
f 390 402 403
f 390 403 404
f 392 401 405
f 392 405 406
f 392 406 393
f 393 406 405
f 393 405 407
f 393 407 408
f 393 408 409
f 397 410 411
f 397 411 412
f 397 412 398
f 398 412 413
f 398 413 399
f 399 413 400
f 400 413 414
f 400 414 415
f 400 415 416
f 400 416 417
f 400 417 401
f 401 417 418
f 401 418 419
f 401 419 405
f 402 420 403
f 403 420 421
f 403 421 404
f 404 421 422
f 404 422 423
f 405 419 408
f 405 408 407
f 408 419 424
f 408 424 425
f 408 425 426
f 408 426 427
f 408 427 428
f 408 428 429
f 408 429 430
f 408 430 409
f 410 431 411
f 411 431 432
f 411 432 412
f 412 432 433
f 412 433 434
f 412 434 413
f 413 434 435
f 413 435 414
f 414 435 415
f 415 435 436
f 415 436 437
f 415 437 438
f 415 438 416
f 416 438 417
f 417 438 418
f 418 438 439
f 418 439 419
f 419 439 424
f 420 440 421
f 421 440 422
f 422 441 442
f 422 442 423
f 422 440 443
f 422 443 444
f 422 444 445
f 422 445 441
f 423 442 446
f 424 439 425
f 425 439 438
f 425 438 447
f 425 447 448
f 431 449 450
f 431 450 432
f 432 450 451
f 432 451 452
f 432 452 433
f 433 452 453
f 433 453 454
f 433 454 434
f 434 454 435
f 435 454 455
f 435 455 436
f 436 456 437
f 436 455 456
f 437 456 457
f 437 457 458
f 437 458 459
f 437 459 438
f 438 459 447
f 441 445 460
f 441 460 442
f 442 460 446
f 444 461 462
f 444 462 460
f 444 460 445
f 446 460 463
f 446 463 464
f 446 464 465
f 446 465 466
f 447 459 483
f 447 483 467
f 447 467 468
f 447 468 448
f 449 469 450
f 450 469 470
f 450 470 471
f 450 471 451
f 451 471 452
f 452 471 453
f 453 471 454
f 454 471 472
f 454 472 473
f 454 473 474
f 454 474 455
f 455 474 475
f 455 475 457
f 455 457 456
f 457 476 477
f 457 477 478
f 457 478 458
f 457 475 479
f 457 479 480
f 457 480 481
f 457 481 482
f 457 482 476
f 458 478 459
f 459 478 483
f 460 462 463
f 461 484 485
f 461 485 486
f 461 486 462
f 462 486 487
f 462 487 488
f 462 488 464
f 462 464 463
f 464 488 489
f 464 489 490
f 464 490 465
f 465 490 491
f 465 491 492
f 465 492 493
f 465 493 466
f 466 493 494
f 466 494 495
f 467 483 496
f 467 496 468
f 468 496 497
f 471 498 499
f 471 499 472
f 472 499 473
f 473 499 500
f 473 500 474
f 474 501 475
f 474 500 502
f 474 502 501
f 475 501 479
f 476 483 478
f 476 478 477
f 476 482 503
f 476 503 504
f 476 504 483
f 479 501 502
f 479 502 480
f 480 505 526
f 480 526 506
f 480 506 507
f 480 507 481
f 480 502 508
f 480 508 509
f 480 509 505
f 481 507 510
f 481 510 482
f 482 510 511
f 482 511 512
f 482 512 503
f 483 504 496
f 484 513 512
f 484 512 485
f 485 512 486
f 486 512 487
f 487 512 511
f 487 511 514
f 487 514 489
f 487 489 488
f 489 514 515
f 489 515 516
f 489 516 490
f 490 516 491
f 491 517 493
f 491 493 492
f 491 516 518
f 491 518 517
f 493 517 494
f 494 517 519
f 494 519 520
f 494 520 495
f 495 520 521
f 496 504 503
f 496 503 522
f 496 522 497
f 497 522 523
f 498 524 499
f 499 524 509
f 499 509 508
f 499 508 500
f 500 508 502
f 503 512 522
f 505 509 525
f 505 525 526
f 506 526 529
f 506 529 527
f 506 527 507
f 507 527 510
f 509 528 525
f 509 524 528
f 510 515 514
f 510 514 511
f 510 527 515
f 512 513 522
f 513 523 522
f 515 527 516
f 516 527 529
f 516 529 518
f 517 518 519
f 518 529 525
f 518 525 528
f 518 528 519
f 519 528 520
f 520 530 521
f 520 528 530
f 524 531 528
f 525 529 526
f 528 532 530
f 528 531 532

o geometry_3
v 0.01268587 0.09577854 -0.08245450
v 0.01548832 0.09575928 -0.08245450
v 0.01548832 0.09575928 -0.08721169
v 0.01548832 0.09574002 -0.09232206
v -0.00991528 0.09574002 -0.09193284
v -0.00991528 0.09575928 -0.08435017
v -0.00991528 0.09575928 -0.08245450
v 0.01548832 -0.10078742 -0.08245450
v 0.01548832 0.09554740 -0.13032190
v 0.01268587 0.09556666 -0.13032190
v -0.00991528 0.09556666 -0.13032190
v -0.00991528 -0.10076816 -0.08245450
v 0.00768273 -0.10078742 -0.08245450
v -0.00991528 -0.10086447 -0.10231937
v 0.01268587 -0.10092225 -0.12010836
v 0.01548832 -0.10090300 -0.11500520
v 0.01548832 0.09537405 -0.13318342
v 0.01548832 0.09521995 -0.13543227
v -0.00991528 0.09539330 -0.13279419
v -0.00991528 -0.10094152 -0.12521153
v 0.00768273 -0.10094152 -0.12521153
v 0.01268587 -0.10096078 -0.13543227
v 0.01548832 -0.10092225 -0.12235721
v 0.01548832 0.09431465 -0.13820729
v -0.00991528 0.09520069 -0.13543227
v -0.00991528 -0.10098004 -0.13807035
v -0.00732917 -0.10099930 -0.14565302
v 0.00768273 -0.10098004 -0.14054264
v 0.01548832 -0.10096078 -0.14054264
v 0.01548832 0.09352492 -0.13990835
v -0.00991528 0.09342860 -0.13915874
v -0.00991528 -0.10098004 -0.14565302
v -0.00991528 -0.10049849 -0.15075618
v -0.00732917 -0.10049849 -0.15075618
v 0.01268587 -0.10047924 -0.15075618
v 0.00768273 -0.10098004 -0.14565302
v 0.01548832 -0.10096078 -0.14565302
v 0.01548832 0.08354734 -0.15058319
v 0.01548832 0.08144781 -0.15281763
v -0.00991528 0.08121667 -0.15211846
v -0.00991528 -0.09936205 -0.15275276
v 0.01268587 -0.09828340 -0.15460518
v 0.01548832 -0.09949689 -0.15245724
v 0.01548832 -0.10045997 -0.15075618
v 0.01548832 -0.10074890 -0.14790187
v 0.01548832 0.07923271 -0.15401414
v -0.00991528 0.07865486 -0.15401414
v -0.00991528 0.07998392 -0.15309874
v -0.00232354 -0.09828340 -0.15461238
v -0.00991528 -0.09828340 -0.15461238
v 0.01548832 -0.09826414 -0.15460518
v -0.00991528 -0.09402655 -0.15600350
v 0.01548832 -0.09402655 -0.15598909
v 0.01548832 0.07420540 -0.15464842
v 0.01268587 0.07420540 -0.15468445
v 0.00768273 0.07420540 -0.15470609
v 0.00267960 0.07420540 -0.15469889
v -0.00991528 0.07651681 -0.15433128
v -0.00991528 -0.08892220 -0.15609000
v 0.00768273 -0.08892220 -0.15608278
v 0.01548832 -0.08892220 -0.15607558
v 0.01548832 0.06401594 -0.15573681
v 0.01268587 0.06401594 -0.15574402
v -0.00732917 0.06401594 -0.15576564
v -0.00991528 0.06401594 -0.15576564
v -0.00991528 0.07420540 -0.15466284
v -0.00991528 0.05891159 -0.15588096
v -0.00232354 -0.08383710 -0.15608278
v 0.01548832 -0.08668784 -0.15607558
v 0.01548832 0.06116521 -0.15580169
v 0.01548832 0.05891159 -0.15585213
v -0.00232354 0.05891159 -0.15587376
v 0.01268587 0.05380723 -0.15586655
f 533 534 535
f 533 535 536
f 533 536 537
f 533 537 538
f 533 538 539
f 533 539 544
f 533 544 545
f 533 545 540
f 533 540 534
f 534 540 548
f 534 548 555
f 534 555 561
f 534 561 569
f 534 569 577
f 534 577 576
f 534 576 575
f 534 575 583
f 534 583 585
f 534 585 593
f 534 593 601
f 534 601 603
f 534 603 602
f 534 602 594
f 534 594 586
f 534 586 578
f 534 578 571
f 534 571 570
f 534 570 562
f 534 562 556
f 534 556 550
f 534 550 549
f 534 549 541
f 534 541 536
f 534 536 535
f 536 541 542
f 536 542 543
f 536 543 537
f 537 543 551
f 537 551 557
f 537 557 563
f 537 563 572
f 537 572 580
f 537 580 579
f 537 579 590
f 537 590 598
f 537 598 597
f 537 597 599
f 537 599 591
f 537 591 584
f 537 584 582
f 537 582 573
f 537 573 565
f 537 565 564
f 537 564 558
f 537 558 552
f 537 552 546
f 537 546 544
f 537 544 539
f 537 539 538
f 540 545 546
f 540 546 547
f 540 547 548
f 541 549 542
f 542 549 543
f 543 549 550
f 543 550 551
f 544 546 545
f 546 552 553
f 546 553 547
f 547 553 554
f 547 554 555
f 547 555 548
f 550 556 557
f 550 557 551
f 552 558 553
f 553 558 559
f 553 559 560
f 553 560 554
f 554 560 561
f 554 561 555
f 556 562 557
f 557 562 563
f 558 564 559
f 559 564 565
f 559 565 566
f 559 566 567
f 559 567 568
f 559 568 560
f 560 568 569
f 560 569 561
f 562 570 563
f 563 570 571
f 563 571 572
f 565 573 566
f 566 573 567
f 567 573 574
f 567 574 575
f 567 575 576
f 567 576 577
f 567 577 568
f 568 577 569
f 571 578 579
f 571 579 580
f 571 580 572
f 573 581 574
f 573 582 581
f 574 583 575
f 574 581 584
f 574 584 585
f 574 585 583
f 578 586 587
f 578 587 588
f 578 588 589
f 578 589 590
f 578 590 579
f 581 582 584
f 584 591 592
f 584 592 585
f 585 592 593
f 586 594 587
f 587 594 588
f 588 594 595
f 588 595 596
f 588 596 597
f 588 597 589
f 589 598 590
f 589 597 598
f 591 599 600
f 591 600 592
f 592 600 601
f 592 601 593
f 594 602 595
f 595 602 603
f 595 603 604
f 595 604 596
f 596 604 599
f 596 599 597
f 599 604 601
f 599 601 600
f 601 604 605
f 601 605 603
f 603 605 604

