# https://github.com/mikedh/trimesh

o geometry_0
v 0.00045608 0.03166080 0.00951953
v 0.00156171 0.03166080 0.00940011
v 0.00147511 0.03292099 0.00906423
v 0.00045608 0.03281769 0.00918366
v -0.00064771 0.03281769 0.00917619
v -0.00064771 0.03166080 0.00950460
v -0.00064771 -0.03282899 0.00948781
v 0.00045608 -0.03167899 0.00949714
v 0.00156171 -0.03167899 0.00938145
v 0.00266734 0.03166080 0.00915193
v 0.00336389 0.03242518 0.00888510
v 0.00266734 0.03265242 0.00899519
v 0.00266734 -0.03167899 0.00914820
v 0.00104944 0.03339614 0.00882725
v 0.00045608 0.03339614 0.00882725
v -0.00121158 0.03338925 0.00882725
v -0.00165014 0.03290722 0.00904931
v -0.00175334 0.03166080 0.00936092
v -0.00175334 -0.03282899 0.00934599
v -0.00175334 -0.03397900 0.00923404
v -0.00064771 -0.03397900 0.00936652
v 0.00045608 -0.03282899 0.00949527
v 0.00156171 -0.03282899 0.00937772
v 0.00342286 0.03166080 0.00890936
v 0.00342654 -0.03167899 0.00891122
v 0.00549960 0.03238386 0.00777298
v 0.00477173 0.03279015 0.00791479
v 0.00433316 0.03339614 0.00772446
v 0.00397567 0.03166080 0.00867051
v 0.00266734 -0.03282899 0.00914074
v 0.00045608 0.03496621 0.00385257
v -0.00064771 0.03495932 0.00385257
v -0.00452478 0.03339614 0.00772446
v -0.00285897 0.03259045 0.00896534
v -0.00349470 0.03236320 0.00886084
v -0.00285897 0.03166080 0.00909036
v -0.00285897 -0.03167899 0.00909222
v -0.00285897 -0.03282899 0.00908662
v -0.00288845 -0.03397900 0.00896907
v -0.00253833 -0.03463319 0.00889443
v -0.00175334 -0.03471583 0.00897467
v -0.00064771 -0.03477092 0.00903811
v 0.00045608 -0.03397900 0.00937212
v 0.00156171 -0.03397900 0.00926203
v 0.00397936 -0.02937209 0.00867238
v 0.00341549 -0.03282899 0.00890563
v 0.00397936 -0.03167899 0.00867238
v 0.00662919 0.03245272 0.00671124
v 0.00591421 0.03268685 0.00711429
v 0.00487860 0.03166080 0.00819469
v 0.00552908 0.03166080 0.00779724
v 0.00608190 0.03166080 0.00730835
v 0.00598424 0.03325841 0.00606188
v 0.00266734 0.03502130 0.00274605
v 0.00156171 0.03516591 0.00274605
v 0.00703458 0.03263865 0.00597232
v 0.00274474 -0.03404786 0.00899892
v 0.00334178 -0.03371043 0.00887577
v 0.00045608 0.03517279 0.00274605
v -0.00064771 0.03517279 0.00274605
v -0.00175334 0.03515902 0.00274605
v -0.00296400 0.03489734 0.00285055
v -0.00563226 0.03339614 0.00662168
v -0.00636934 0.03316201 0.00625221
v -0.00678764 0.03239075 0.00667579
v -0.00564331 0.03229434 0.00773566
v -0.00496335 0.03272817 0.00787188
v -0.00407700 0.03166080 0.00862200
v -0.00352419 0.03166080 0.00887390
v -0.00354446 -0.03167899 0.00888323
v -0.00353524 -0.03282899 0.00887764
v -0.00348549 -0.03358648 0.00885711
v -0.00327542 -0.03435774 0.00876941
v -0.00478092 -0.03469517 0.00787374
v -0.00396460 -0.03480535 0.00806967
v -0.00288845 -0.03483978 0.00834957
v -0.00175334 -0.03501882 0.00827306
v -0.00064771 -0.03507391 0.00827306
v 0.00045608 -0.03477781 0.00903998
v 0.00156171 -0.03472960 0.00898773
v 0.00242779 -0.03464697 0.00890749
v 0.00316488 -0.03448169 0.00880486
v 0.00396830 -0.03282899 0.00866678
v 0.00487860 -0.03282899 0.00817976
v 0.00487860 -0.03167899 0.00819096
v 0.00667157 0.03166080 0.00675603
v 0.00766664 0.03231500 0.00554501
v 0.00553277 0.01208317 0.00779724
v 0.00608559 0.01093317 0.00733448
v 0.00670290 0.01093317 0.00678215
v 0.00708987 0.03314135 0.00495723
v 0.00380614 0.03479405 0.00154623
v 0.00266734 0.03515902 0.00164140
v 0.00704196 0.03338237 0.00385444
v 0.00819550 0.03330662 0.00164140
v 0.00266734 0.03517279 0.00053674
v 0.00783617 0.03256979 0.00495723
v 0.00373612 -0.03404786 0.00863692
v 0.00045608 0.03517968 0.00053674
v -0.00285897 0.03517279 0.00053674
v -0.00285897 0.03515902 0.00164140
v -0.00673236 0.03339614 0.00551515
v -0.00698665 0.03279015 0.00595552
v -0.00804437 0.03261111 0.00477063
v -0.00782878 0.03166080 0.00550209
v -0.00736441 0.03166080 0.00606188
v -0.00681528 0.03166080 0.00670378
v -0.00620350 0.03166080 0.00725797
v -0.00565068 0.03166080 0.00774126
v -0.00507023 0.03166080 0.00809020
v -0.00409727 -0.03167899 0.00862759
v -0.00408806 -0.03282899 0.00862386
v -0.00563963 -0.03347630 0.00773193
v -0.00511814 -0.03391013 0.00795771
v -0.00389826 -0.03397900 0.00858095
v -0.00551801 -0.03424756 0.00764609
v -0.00670103 -0.03445415 0.00658809
v -0.00596395 -0.03475026 0.00691090
v -0.00511814 -0.03487421 0.00723371
v -0.00396460 -0.03510834 0.00716841
v -0.00285897 -0.03515655 0.00716841
v 0.00045608 -0.03508080 0.00827306
v 0.00156171 -0.03503259 0.00827306
v 0.00274474 -0.03485355 0.00837009
v 0.00377297 -0.03482601 0.00811818
v 0.00464827 -0.03470894 0.00790360
v 0.00538535 -0.03441972 0.00768715
v 0.00496153 -0.03401343 0.00800996
v 0.00548302 -0.03365534 0.00775992
v 0.00551619 -0.03282899 0.00778604
v 0.00552171 -0.03167899 0.00779164
v 0.00722438 0.03166080 0.00610667
v 0.00725387 0.01208317 0.00614958
v 0.00767401 0.03166080 0.00555434
v 0.00801675 0.03166080 0.00495723
v 0.00876305 0.03230122 0.00334130
v 0.00607453 -0.03167899 0.00729902
v 0.00724465 0.00632626 0.00615332
v 0.00725387 0.00978316 0.00614958
v 0.00725571 0.01093317 0.00614958
v 0.00665867 -0.03167899 0.00674670
v 0.00822498 0.03272129 0.00376674
v 0.00819550 0.03308626 0.00274605
v 0.00377297 0.03492489 0.00053674
v 0.00819550 0.03334793 0.00053674
v 0.00896760 0.03273506 0.00164140
v 0.00903025 0.03277638 0.00053674
v 0.00377297 0.03493866 -0.00056791
v 0.00266734 0.03517279 -0.00056791
v 0.00884782 0.03251470 0.00274605
v 0.00156171 0.03517279 -0.00167257
v -0.00175334 0.03517279 -0.00167257
v -0.00285897 0.03517279 -0.00056791
v -0.00406226 0.03481471 0.00055913
v -0.00387983 0.03484225 0.00164140
v -0.00760949 0.03338237 0.00385257
v -0.00840186 0.03270063 0.00374621
v -0.00903023 0.03247338 0.00274605
v -0.00894362 0.03225302 0.00330771
v -0.00814941 0.03166080 0.00494976
v -0.00783799 -0.01325136 0.00551329
v -0.00681160 -0.03167899 0.00670191
v -0.00620718 -0.03167899 0.00725424
v -0.00565437 -0.03167899 0.00774499
v -0.00507023 -0.03167899 0.00809953
v -0.00507023 -0.03282899 0.00809393
v -0.00565068 -0.03282899 0.00774126
v -0.00620350 -0.03282899 0.00725051
v -0.00680791 -0.03282899 0.00669818
v -0.00677843 -0.03368289 0.00666646
v -0.00713776 -0.03403409 0.00615705
v -0.00775507 -0.03397900 0.00540133
v -0.00797619 -0.03470205 0.00465494
v -0.00700877 -0.03475026 0.00585103
v -0.00626984 -0.03490864 0.00615705
v -0.00507023 -0.03515655 0.00606188
v -0.00175334 -0.03516343 0.00716841
v 0.00266734 -0.03517032 0.00716841
v 0.00377297 -0.03512900 0.00716841
v 0.00496153 -0.03488798 0.00725797
v 0.00598424 -0.03471583 0.00687918
v 0.00655179 -0.03457121 0.00663101
v 0.00590500 -0.03401343 0.00731768
v 0.00660707 -0.03397900 0.00669072
v 0.00606900 -0.03282899 0.00729716
v 0.00770533 0.01208317 0.00559539
v 0.00770902 0.00747627 0.00560099
v 0.00853824 0.03166080 0.00389922
v 0.00805729 0.01093317 0.00495723
v 0.00876674 0.03166080 0.00334689
v 0.00893074 0.03166080 0.00274605
v 0.00916292 0.03166080 0.00164140
v 0.00665683 -0.03282899 0.00674296
v 0.00770902 0.00632626 0.00560099
v 0.00720411 -0.03282899 0.00606188
v 0.00770718 0.00516937 0.00559912
v 0.00903393 0.03277638 -0.00056791
v 0.00819550 0.03334793 -0.00056791
v 0.00928454 0.03166080 0.00053674
v 0.00929191 0.03166080 -0.00056791
v 0.00382273 0.03480782 -0.00161286
v 0.00266734 0.03515902 -0.00167257
v 0.00819550 0.03331350 -0.00167257
v 0.00156171 0.03515902 -0.00277723
v 0.00045608 0.03516591 -0.00277723
v -0.00064771 0.03516591 -0.00277723
v -0.00175334 0.03515214 -0.00277723
v -0.00285897 0.03515214 -0.00167257
v -0.00405673 0.03481471 -0.00056791
v -0.00851795 0.03336171 -0.00056791
v -0.00852164 0.03336171 0.00053674
v -0.00847004 0.03331350 0.00164140
v -0.00916475 0.03273506 0.00164140
v -0.00937666 0.03166080 0.00164140
v -0.00870222 0.03166080 0.00385817
v -0.00911315 0.03166080 0.00274605
v -0.00894546 -0.01555137 0.00331331
v -0.00870960 -0.01440137 0.00386190
v -0.00816047 -0.01440137 0.00495723
v -0.00783615 -0.01440137 0.00551329
v -0.00734598 -0.03167899 0.00606188
v -0.00733861 -0.03282899 0.00606188
v -0.00781219 -0.03282899 0.00547410
v -0.00808491 -0.03397900 0.00484900
v -0.00897863 -0.03460565 0.00233740
v -0.00815494 -0.03481912 0.00385257
v -0.00733861 -0.03488110 0.00499641
v -0.00856218 -0.03397900 0.00385257
v -0.00728149 -0.03512211 0.00385257
v -0.00617586 -0.03515655 0.00495723
v -0.00396460 -0.03516343 0.00606188
v -0.00617586 -0.03516343 0.00385257
v -0.00728149 -0.03516343 0.00274605
v -0.00728149 -0.03516343 -0.00277723
v 0.00377297 -0.03516343 -0.00609306
v 0.00487860 -0.03516343 -0.00609306
v 0.00598424 -0.03516343 -0.00498840
v 0.00708987 -0.03516343 0.00164140
v 0.00708987 -0.03516343 0.00274605
v 0.00598424 -0.03516343 0.00495723
v 0.00487860 -0.03516343 0.00606188
v 0.00598424 -0.03501882 0.00606188
v 0.00677476 -0.03471583 0.00606188
v 0.00780300 -0.03470894 0.00468480
v 0.00758924 -0.03397900 0.00543865
v 0.00710645 -0.03397900 0.00606188
v 0.00805729 0.00632626 0.00495723
v 0.00854561 0.00978316 0.00385257
v 0.00875200 -0.03282899 0.00330771
v 0.00892337 -0.03282899 0.00274605
v 0.00918135 -0.03282899 0.00164140
v 0.00930481 -0.03282899 0.00053674
v 0.00763531 -0.03282899 0.00550023
v 0.00795963 -0.03282899 0.00494790
v 0.00897865 0.03274194 -0.00167257
v 0.00918504 0.03166080 -0.00167257
v 0.00930481 -0.03167899 -0.00056791
v 0.00266734 0.03502818 -0.00277723
v 0.00716726 0.03338237 -0.00388188
v 0.00819550 0.03310692 -0.00277723
v 0.00045608 0.03492489 -0.00388188
v 0.00432763 0.03338925 -0.00775191
v -0.00295479 0.03489046 -0.00287239
v -0.00064771 0.03491112 -0.00388188
v -0.00420415 0.03338925 -0.00763435
v -0.00563041 0.03339614 -0.00665285
v -0.00385588 0.03483537 -0.00167257
v -0.00673052 0.03338925 -0.00554260
v -0.00783799 0.03339614 -0.00337060
v -0.00846451 0.03329285 -0.00167257
v -0.00922556 0.03278326 -0.00056791
v -0.00922924 0.03278326 0.00053674
v -0.00950565 0.03166080 0.00053674
v -0.00951671 0.02705390 0.00053674
v -0.00937666 0.02590389 0.00164140
v -0.00910947 0.02590389 0.00274605
v -0.00907998 -0.01670138 0.00274605
v -0.00894178 -0.01858821 0.00330398
v -0.00870775 -0.01555137 0.00386563
v -0.00813098 -0.03167899 0.00492737
v -0.00781588 -0.03167899 0.00547970
v -0.00812730 -0.03282899 0.00492177
v -0.00865800 -0.03282899 0.00385257
v -0.00904681 -0.03468828 0.00164140
v -0.00886438 -0.03397900 0.00308006
v -0.00902654 -0.03397900 0.00252773
v -0.00920529 -0.03397900 0.00164140
v -0.00844793 -0.03483289 0.00272179
v -0.00838712 -0.03499816 0.00164140
v -0.00891598 -0.03282899 0.00321254
v -0.00838712 -0.03506703 0.00053674
v -0.00285897 -0.03515655 -0.00719771
v -0.00838712 -0.03505325 -0.00056791
v -0.00728149 -0.03509457 -0.00388188
v -0.00617586 -0.03514278 -0.00498840
v -0.00507023 -0.03514278 -0.00609306
v 0.00266734 -0.03515655 -0.00719771
v 0.00377297 -0.03512211 -0.00719771
v 0.00598424 -0.03502571 -0.00609306
v 0.00708987 -0.03512900 -0.00388188
v 0.00708987 -0.03515655 -0.00277723
v 0.00819550 -0.03510146 -0.00056791
v 0.00819550 -0.03510146 0.00053674
v 0.00708987 -0.03512900 0.00385257
v 0.00715989 -0.03488798 0.00501507
v 0.00881465 -0.03464008 0.00243070
v 0.00869303 -0.03419247 0.00316776
v 0.00792093 -0.03397900 0.00488446
v 0.00799648 -0.03482601 0.00385257
v 0.00851244 -0.03282899 0.00386190
v 0.00875015 -0.03342810 0.00330398
v 0.00885887 -0.03387570 0.00277777
v 0.00911317 -0.03397900 0.00164140
v 0.00924585 -0.03397900 0.00053674
v 0.00930481 -0.03282899 -0.00056791
v 0.00886072 0.03254224 -0.00277723
v 0.00894733 0.03166080 -0.00277723
v 0.00877043 0.03232188 -0.00338553
v 0.00918319 -0.03167899 -0.00167257
v 0.00636936 0.03338925 -0.00526270
v 0.00539825 0.03338925 -0.00661180
v 0.00700694 0.03317578 -0.00493242
v 0.00822314 0.03274194 -0.00380538
v 0.00156171 0.03336171 -0.00848897
v 0.00045608 0.03338237 -0.00856360
v 0.00599345 0.03327907 -0.00618262
v 0.00661813 0.03243895 -0.00672935
v 0.00590316 0.03265931 -0.00713800
v 0.00548117 0.03235631 -0.00778923
v 0.00476988 0.03276949 -0.00792544
v 0.00332519 0.03238386 -0.00890134
v 0.00266734 0.03260422 -0.00901144
v 0.00156171 0.03278326 -0.00914952
v -0.00064771 0.03338237 -0.00851509
v -0.00175334 0.03333416 -0.00841992
v -0.00175334 0.03276260 -0.00912153
v -0.00285897 0.03252847 -0.00897412
v -0.00488043 0.03261799 -0.00797396
v -0.00517711 0.03292787 -0.00746268
v -0.00607082 0.03273506 -0.00688236
v -0.00674894 0.03230122 -0.00666778
v -0.00636750 0.03306560 -0.00627966
v -0.00754316 0.03336859 -0.00410766
v -0.00693690 0.03273506 -0.00598297
v -0.00801673 0.03259733 -0.00473650
v -0.00816047 0.03291410 -0.00379605
v -0.00904681 0.03251470 -0.00255891
v -0.00915369 0.03271440 -0.00167257
v -0.00950196 0.03166080 -0.00056791
v -0.00951118 0.02705390 -0.00056791
v -0.00951671 0.02590389 0.00053674
v -0.00937297 0.02360388 0.00164140
v -0.00928268 -0.02592208 0.00164140
v -0.00907445 -0.02476519 0.00268821
v -0.00906155 -0.03167899 0.00267328
v -0.00891967 -0.03167899 0.00322561
v -0.00866353 -0.03167899 0.00385257
v -0.00933243 -0.03397900 0.00053674
v -0.00911315 -0.03476403 0.00053674
v -0.00905971 -0.03282899 0.00266022
v -0.00926425 -0.03282899 0.00164140
v -0.00396460 -0.03510834 -0.00719771
v -0.00064771 -0.03507391 -0.00830423
v 0.00045608 -0.03508080 -0.00830423
v -0.00910025 -0.03475026 -0.00056791
v -0.00838712 -0.03497062 -0.00167257
v -0.00809781 -0.03479158 -0.00388188
v -0.00730729 -0.03484666 -0.00497907
v -0.00624588 -0.03488798 -0.00616210
v 0.00156171 -0.03503948 -0.00830423
v 0.00377297 -0.03481912 -0.00812697
v 0.00495600 -0.03488798 -0.00728541
v 0.00598424 -0.03472271 -0.00691222
v 0.00680424 -0.03472271 -0.00609306
v 0.00717647 -0.03489487 -0.00506677
v 0.00800570 -0.03482601 -0.00388188
v 0.00819550 -0.03503948 -0.00167257
v 0.00896207 -0.03479158 -0.00056791
v 0.00896391 -0.03479158 0.00053674
v 0.00819550 -0.03503948 0.00164140
v 0.00889573 -0.03472960 0.00164140
v 0.00849586 -0.03387570 0.00374435
v 0.00827289 -0.03485355 0.00277777
v 0.00924216 -0.03397900 -0.00056791
v 0.00917951 -0.03282899 -0.00167257
v 0.00893443 -0.03167899 -0.00277723
v 0.00853271 0.03166080 -0.00393413
v 0.00799464 0.03166080 -0.00498840
v 0.00765558 0.03228056 -0.00555939
v 0.00782511 0.03254913 -0.00498840
v 0.00876121 -0.03167899 -0.00336687
v 0.00854009 -0.03167899 -0.00391920
v 0.00045608 0.03281081 -0.00921110
v -0.00064771 0.03280392 -0.00920177
v 0.00702721 0.03261799 -0.00599416
v 0.00665498 0.03166080 -0.00676854
v 0.00605610 0.03166080 -0.00732087
v 0.00550329 0.03166080 -0.00780602
v 0.00487860 0.03166080 -0.00817735
v 0.00391671 0.03166080 -0.00867556
v 0.00336389 0.03166080 -0.00891627
v 0.00266734 0.03166080 -0.00915139
v 0.00156171 0.03166080 -0.00941822
v 0.00045608 0.03166080 -0.00954324
v -0.00064771 0.03166080 -0.00952831
v -0.00175334 0.03166080 -0.00937157
v -0.00345601 0.03230122 -0.00887522
v -0.00505917 0.03166080 -0.00808032
v -0.00561199 0.03166080 -0.00774258
v -0.00617586 0.03166080 -0.00722197
v -0.00675816 0.03166080 -0.00667711
v -0.00724279 0.03166080 -0.00609306
v -0.00776612 0.03166080 -0.00543810
v -0.00810518 0.03166080 -0.00488577
v -0.00863589 0.03166080 -0.00388188
v -0.00891782 0.03166080 -0.00326238
v -0.00909472 0.03166080 -0.00271005
v -0.00935639 0.03166080 -0.00167257
v -0.00951118 0.02475389 -0.00056791
v -0.00951486 0.02475389 0.00053674
v -0.00926978 -0.03167899 0.00164140
v -0.00931401 -0.03397900 -0.00056791
v -0.00938403 -0.03282899 0.00053674
v -0.00937113 -0.03282899 -0.00056791
v -0.00509603 -0.03486044 -0.00724436
v -0.00396460 -0.03480535 -0.00808592
v -0.00175334 -0.03501882 -0.00830423
v -0.00064771 -0.03477781 -0.00906368
v 0.00045608 -0.03478469 -0.00907115
v -0.00902102 -0.03466074 -0.00167257
v -0.00842950 -0.03481912 -0.00270818
v -0.00896021 -0.03458499 -0.00229207
v -0.00793197 -0.03466074 -0.00460588
v -0.00695717 -0.03472960 -0.00583929
v -0.00592341 -0.03473649 -0.00690476
v 0.00156171 -0.03473649 -0.00901890
v 0.00272263 -0.03485355 -0.00839193
v 0.00239278 -0.03464697 -0.00893493
v 0.00463721 -0.03470894 -0.00792358
v 0.00656285 -0.03458499 -0.00667151
v 0.00781221 -0.03471583 -0.00475142
v 0.00827473 -0.03485355 -0.00281454
v 0.00881649 -0.03464697 -0.00247121
v 0.00889573 -0.03472960 -0.00167257
v 0.00910948 -0.03397900 -0.00167257
v 0.00886072 -0.03390325 -0.00281454
v 0.00893074 -0.03282899 -0.00277723
v 0.00875937 -0.03282899 -0.00336127
v 0.00804439 -0.03167899 -0.00498840
v 0.00769981 -0.03052898 -0.00562097
v 0.00720780 0.03166080 -0.00611172
v 0.00726308 -0.03167899 -0.00617329
v 0.00726124 -0.03052898 -0.00617329
v 0.00853824 -0.03282899 -0.00391360
v 0.00671027 -0.03167899 -0.00682265
v 0.00670842 -0.03052898 -0.00682265
v 0.00609480 -0.03167899 -0.00737498
v 0.00554198 -0.03167899 -0.00783401
v 0.00487860 -0.03167899 -0.00822400
v 0.00394435 -0.02592208 -0.00869049
v 0.00394066 -0.03052898 -0.00869422
v 0.00339153 -0.02592208 -0.00892560
v 0.00339153 -0.02707208 -0.00892560
v 0.00266734 -0.02707208 -0.00914206
v 0.00156171 -0.03282899 -0.00937530
v 0.00045608 -0.02476519 -0.00950779
v -0.00064771 -0.02476519 -0.00950592
v -0.00175334 -0.02476519 -0.00936037
v -0.00285897 0.03166080 -0.00908234
v -0.00285897 -0.02592208 -0.00909541
v -0.00285897 -0.02476519 -0.00909541
v -0.00347259 0.03166080 -0.00888082
v -0.00402541 0.03166080 -0.00863265
v -0.00405489 -0.02707208 -0.00863265
v -0.00405489 -0.02822209 -0.00863265
v -0.00504812 -0.02937209 -0.00808032
v -0.00560093 -0.03052898 -0.00773511
v -0.00617586 -0.03052898 -0.00721451
v -0.00675816 -0.03052898 -0.00667711
v -0.00724095 0.02360388 -0.00609306
v -0.00776612 0.02475389 -0.00543624
v -0.00774033 -0.03167899 -0.00538772
v -0.00805727 -0.03167899 -0.00483539
v -0.00860640 0.01323318 -0.00388188
v -0.00860456 0.01208317 -0.00388188
v -0.00852532 -0.03282899 -0.00388188
v -0.00890308 0.01323318 -0.00321759
v -0.00909104 0.02475389 -0.00268393
v -0.00935455 0.02475389 -0.00167257
v -0.00935270 0.02360388 -0.00167257
v -0.00921819 -0.03282899 -0.00167257
v -0.00915738 -0.03397900 -0.00167257
v -0.00474591 -0.03468828 -0.00789372
v -0.00287739 -0.03483978 -0.00837701
v -0.00252175 -0.03463319 -0.00892000
v -0.00175334 -0.03471583 -0.00899838
v -0.00064771 -0.03397900 -0.00937903
v 0.00045608 -0.03397900 -0.00939023
v -0.00899522 -0.03397900 -0.00241336
v -0.00881095 -0.03397900 -0.00296569
v -0.00844240 -0.03397900 -0.00388188
v -0.00801858 -0.03397900 -0.00475516
v -0.00767583 -0.03397900 -0.00530935
v -0.00666049 -0.03423379 -0.00657634
v 0.00156171 -0.03397900 -0.00927827
v 0.00272263 -0.03401343 -0.00901330
v 0.00312987 -0.03441972 -0.00881738
v 0.00537430 -0.03441972 -0.00771086
v 0.00591237 -0.03401343 -0.00736565
v 0.00663656 -0.03397900 -0.00674801
v 0.00725755 -0.03399966 -0.00601096
v 0.00760398 -0.03439217 -0.00548848
v 0.00869487 -0.03423379 -0.00320827
v 0.00875384 -0.03346942 -0.00334635
v 0.00803887 -0.03282899 -0.00498840
v 0.00769981 -0.03167899 -0.00562097
v 0.00769612 -0.03282899 -0.00561723
v 0.00725571 -0.03282899 -0.00616956
v 0.00670290 -0.03282899 -0.00681706
v 0.00608927 -0.03282899 -0.00736938
v 0.00553646 -0.03282899 -0.00782841
v 0.00487860 -0.03282899 -0.00821467
v 0.00393329 -0.03282899 -0.00868863
v 0.00394066 -0.03167899 -0.00869422
v 0.00338785 -0.03052898 -0.00892374
v 0.00266734 -0.03167899 -0.00913832
v 0.00266734 -0.03282899 -0.00913459
v 0.00045608 -0.03282899 -0.00949659
v 0.00045608 -0.03167899 -0.00950032
v -0.00064771 -0.03167899 -0.00949659
v -0.00175334 -0.03167899 -0.00935478
v -0.00285897 -0.02937209 -0.00909354
v -0.00350208 -0.02592208 -0.00889575
v -0.00350208 -0.02822209 -0.00889575
v -0.00350023 -0.02937209 -0.00889575
v -0.00405305 -0.02937209 -0.00863265
v -0.00504812 -0.03052898 -0.00807845
v -0.00504443 -0.03167899 -0.00807659
v -0.00559540 -0.03167899 -0.00773138
v -0.00617586 -0.03167899 -0.00720891
v -0.00675632 -0.03167899 -0.00667524
v -0.00721699 -0.03167899 -0.00609306
v -0.00773480 -0.03282899 -0.00538026
v -0.00805727 -0.03282899 -0.00482793
v -0.00885517 -0.03282899 -0.00306085
v -0.00908182 0.01669008 -0.00266527
v -0.00902470 -0.03282899 -0.00250853
v -0.00549590 -0.03397900 -0.00765488
v -0.00494308 -0.03397900 -0.00801501
v -0.00387430 -0.03393079 -0.00858786
v -0.00325884 -0.03427511 -0.00879312
v -0.00287739 -0.03393079 -0.00898158
v -0.00175334 -0.03397900 -0.00924468
v -0.00064771 -0.03282899 -0.00949286
v -0.00673789 -0.03346942 -0.00665472
v -0.00705115 -0.03390325 -0.00616210
v -0.00624588 -0.03390325 -0.00701671
v 0.00332151 -0.03364846 -0.00889761
v 0.00372322 -0.03401343 -0.00864571
v 0.00495600 -0.03401343 -0.00803553
v 0.00549592 -0.03365534 -0.00780042
v 0.00767585 -0.03362780 -0.00558738
v 0.00790066 -0.03399966 -0.00506677
v 0.00851244 -0.03390325 -0.00378112
v 0.00338048 -0.03282899 -0.00892000
v 0.00338785 -0.03167899 -0.00892187
v -0.00175334 -0.03282899 -0.00935104
v -0.00285897 -0.03167899 -0.00908981
v -0.00285897 -0.03052898 -0.00909167
v -0.00349655 -0.03052898 -0.00889388
v -0.00404936 -0.03052898 -0.00863078
v -0.00404383 -0.03167899 -0.00862891
v -0.00503337 -0.03282899 -0.00807099
v -0.00558619 -0.03282899 -0.00772578
v -0.00617586 -0.03282899 -0.00719398
v -0.00674894 -0.03282899 -0.00666778
v -0.00720225 -0.03282899 -0.00609306
v -0.00907998 0.01554007 -0.00266340
v -0.00402909 -0.03282899 -0.00862332
v -0.00344679 -0.03351073 -0.00887149
v -0.00285897 -0.03282899 -0.00908048
v -0.00349102 -0.03167899 -0.00889201
v -0.00347628 -0.03282899 -0.00888455
f 1 2 3
f 1 3 4
f 1 4 5
f 1 5 6
f 1 6 7
f 1 7 8
f 1 8 9
f 1 9 2
f 2 10 11
f 2 11 12
f 2 12 3
f 2 9 13
f 2 13 10
f 3 12 14
f 3 14 4
f 4 14 15
f 4 15 16
f 4 16 5
f 5 17 6
f 5 16 17
f 6 17 18
f 6 18 19
f 6 19 7
f 7 19 20
f 7 20 21
f 7 21 22
f 7 22 8
f 8 22 9
f 9 22 23
f 9 23 13
f 10 24 11
f 10 13 25
f 10 25 24
f 11 26 27
f 11 27 28
f 11 28 12
f 11 24 29
f 11 29 26
f 12 28 14
f 13 23 30
f 13 30 25
f 14 28 31
f 14 31 15
f 15 31 16
f 16 31 32
f 16 32 33
f 16 33 34
f 16 34 17
f 17 34 18
f 18 34 35
f 18 35 36
f 18 36 37
f 18 37 19
f 19 37 38
f 19 38 39
f 19 39 20
f 20 39 40
f 20 40 41
f 20 41 21
f 21 41 42
f 21 42 43
f 21 43 22
f 22 43 44
f 22 44 23
f 23 44 30
f 24 25 45
f 24 45 29
f 25 30 46
f 25 46 83
f 25 83 47
f 25 47 45
f 26 48 49
f 26 49 28
f 26 28 27
f 26 29 50
f 26 50 51
f 26 51 52
f 26 52 48
f 28 53 54
f 28 54 55
f 28 55 31
f 28 49 48
f 28 48 56
f 28 56 53
f 29 45 50
f 30 44 57
f 30 57 58
f 30 58 46
f 31 55 59
f 31 59 60
f 31 60 32
f 32 60 61
f 32 61 33
f 33 61 62
f 33 62 63
f 33 63 64
f 33 64 65
f 33 65 66
f 33 66 67
f 33 67 35
f 33 35 34
f 35 67 66
f 35 66 68
f 35 68 69
f 35 69 36
f 36 69 70
f 36 70 37
f 37 70 38
f 38 71 72
f 38 72 39
f 38 70 71
f 39 72 73
f 39 73 40
f 40 73 74
f 40 74 75
f 40 75 76
f 40 76 41
f 41 76 77
f 41 77 42
f 42 77 78
f 42 78 79
f 42 79 43
f 43 79 80
f 43 80 44
f 44 80 81
f 44 81 82
f 44 82 57
f 45 47 50
f 46 58 83
f 47 83 84
f 47 84 85
f 47 85 50
f 48 52 86
f 48 86 87
f 48 87 56
f 50 88 51
f 50 85 88
f 51 88 89
f 51 89 52
f 52 89 90
f 52 90 86
f 53 56 91
f 53 91 54
f 54 92 93
f 54 93 55
f 54 91 94
f 54 94 95
f 54 95 92
f 55 93 96
f 55 96 59
f 56 87 97
f 56 97 91
f 57 82 58
f 58 82 98
f 58 98 83
f 59 99 60
f 59 96 99
f 60 99 100
f 60 100 101
f 60 101 61
f 61 101 62
f 62 101 102
f 62 102 63
f 63 102 64
f 64 103 65
f 64 102 103
f 65 103 104
f 65 104 105
f 65 105 106
f 65 106 107
f 65 107 66
f 66 107 108
f 66 108 109
f 66 109 110
f 66 110 68
f 68 110 111
f 68 111 70
f 68 70 69
f 70 111 112
f 70 112 71
f 71 112 72
f 72 113 114
f 72 114 115
f 72 115 73
f 72 112 113
f 73 115 74
f 74 115 116
f 74 116 117
f 74 117 118
f 74 118 119
f 74 119 75
f 75 119 120
f 75 120 77
f 75 77 76
f 77 120 78
f 78 120 121
f 78 121 122
f 78 122 79
f 79 122 123
f 79 123 80
f 80 123 124
f 80 124 81
f 81 124 125
f 81 125 126
f 81 126 82
f 82 127 98
f 82 126 127
f 83 98 128
f 83 128 84
f 84 128 129
f 84 129 130
f 84 130 85
f 85 130 131
f 85 131 88
f 86 132 87
f 86 90 133
f 86 133 132
f 87 132 134
f 87 134 135
f 87 135 136
f 87 136 97
f 88 131 89
f 89 131 137
f 89 137 90
f 90 138 139
f 90 139 140
f 90 140 133
f 90 137 141
f 90 141 138
f 91 97 142
f 91 142 143
f 91 143 95
f 91 95 94
f 92 144 93
f 92 95 144
f 93 144 148
f 93 148 96
f 95 145 144
f 95 143 146
f 95 146 147
f 95 147 145
f 96 148 149
f 96 149 99
f 97 150 142
f 97 136 150
f 98 127 128
f 99 149 151
f 99 151 152
f 99 152 153
f 99 153 100
f 100 153 154
f 100 154 101
f 101 154 155
f 101 155 156
f 101 156 102
f 102 156 104
f 102 104 103
f 104 157 158
f 104 158 159
f 104 159 160
f 104 160 105
f 104 156 157
f 105 160 161
f 105 161 106
f 106 161 107
f 107 161 162
f 107 162 163
f 107 163 108
f 108 163 164
f 108 164 109
f 109 164 165
f 109 165 110
f 110 165 111
f 111 165 166
f 111 166 112
f 112 166 113
f 113 166 167
f 113 167 168
f 113 168 169
f 113 169 170
f 113 170 117
f 113 117 116
f 113 116 114
f 114 116 115
f 117 170 171
f 117 171 172
f 117 172 173
f 117 173 174
f 117 174 118
f 118 174 175
f 118 175 119
f 119 175 120
f 120 176 121
f 120 175 176
f 121 176 231
f 121 231 177
f 121 177 122
f 122 177 178
f 122 178 179
f 122 179 123
f 123 125 124
f 123 179 125
f 125 179 180
f 125 180 126
f 126 181 182
f 126 182 127
f 126 180 181
f 127 182 183
f 127 183 129
f 127 129 128
f 129 184 185
f 129 185 130
f 129 183 184
f 130 185 131
f 131 185 137
f 132 133 186
f 132 186 134
f 133 140 187
f 133 187 186
f 134 186 135
f 135 188 136
f 135 186 189
f 135 189 188
f 136 188 190
f 136 190 191
f 136 191 192
f 136 192 150
f 137 185 193
f 137 193 141
f 138 194 139
f 138 141 194
f 139 194 140
f 140 194 187
f 141 193 195
f 141 195 196
f 141 196 194
f 142 150 143
f 143 150 146
f 144 145 148
f 145 147 197
f 145 197 198
f 145 198 148
f 146 150 192
f 146 192 199
f 146 199 147
f 147 199 200
f 147 200 197
f 148 201 202
f 148 202 149
f 148 198 203
f 148 203 201
f 149 202 204
f 149 204 151
f 151 204 205
f 151 205 206
f 151 206 152
f 152 206 207
f 152 207 208
f 152 208 153
f 153 208 209
f 153 209 154
f 154 209 210
f 154 210 211
f 154 211 155
f 155 211 212
f 155 212 156
f 156 212 213
f 156 213 157
f 157 213 158
f 158 213 214
f 158 214 159
f 159 215 160
f 159 214 216
f 159 216 217
f 159 217 218
f 159 218 215
f 160 215 219
f 160 219 161
f 161 219 220
f 161 220 162
f 162 220 221
f 162 221 169
f 162 169 168
f 162 168 163
f 163 168 167
f 163 167 164
f 164 167 166
f 164 166 165
f 169 222 170
f 169 221 222
f 170 222 223
f 170 223 172
f 170 172 171
f 172 223 224
f 172 224 173
f 173 225 226
f 173 226 227
f 173 227 174
f 173 224 228
f 173 228 225
f 174 227 175
f 175 227 229
f 175 229 230
f 175 230 176
f 176 230 232
f 176 232 231
f 177 231 178
f 178 231 232
f 178 232 233
f 178 233 234
f 178 234 235
f 178 235 236
f 178 236 237
f 178 237 238
f 178 238 239
f 178 239 240
f 178 240 241
f 178 241 179
f 179 241 242
f 179 242 180
f 180 242 181
f 181 243 182
f 181 242 243
f 182 243 244
f 182 244 245
f 182 245 246
f 182 246 184
f 182 184 183
f 184 246 195
f 184 195 193
f 184 193 185
f 186 187 189
f 187 194 247
f 187 247 189
f 188 189 247
f 188 247 248
f 188 248 249
f 188 249 190
f 190 249 250
f 190 250 191
f 191 250 251
f 191 251 192
f 192 251 252
f 192 252 199
f 194 196 247
f 195 246 245
f 195 245 253
f 195 253 196
f 196 253 254
f 196 254 247
f 197 200 255
f 197 255 203
f 197 203 198
f 199 252 200
f 200 256 255
f 200 252 257
f 200 257 256
f 201 258 202
f 201 203 259
f 201 259 258
f 202 258 204
f 203 255 260
f 203 260 259
f 204 261 205
f 204 258 262
f 204 262 261
f 205 261 206
f 206 261 207
f 207 263 208
f 207 261 264
f 207 264 265
f 207 265 266
f 207 266 263
f 208 267 209
f 208 263 268
f 208 268 269
f 208 269 267
f 209 267 210
f 210 269 270
f 210 270 271
f 210 271 272
f 210 272 211
f 210 267 269
f 211 272 212
f 212 272 213
f 213 272 273
f 213 273 214
f 214 273 274
f 214 274 351
f 214 351 275
f 214 275 216
f 215 218 219
f 216 275 276
f 216 276 217
f 217 277 278
f 217 278 279
f 217 279 218
f 217 276 275
f 217 275 277
f 218 279 219
f 219 279 280
f 219 280 281
f 219 281 220
f 220 281 221
f 221 281 222
f 222 281 223
f 223 282 224
f 223 281 280
f 223 280 282
f 224 282 283
f 224 283 228
f 225 284 226
f 225 228 285
f 225 285 286
f 225 286 287
f 225 287 284
f 226 288 289
f 226 289 229
f 226 229 227
f 226 284 288
f 228 283 290
f 228 290 285
f 229 291 233
f 229 233 230
f 229 289 291
f 230 233 232
f 233 291 234
f 234 292 235
f 234 291 293
f 234 293 294
f 234 294 295
f 234 295 296
f 234 296 292
f 235 292 297
f 235 297 236
f 236 297 298
f 236 298 299
f 236 299 237
f 237 300 301
f 237 301 238
f 237 299 300
f 238 301 302
f 238 302 303
f 238 303 239
f 239 303 304
f 239 304 240
f 240 304 242
f 240 242 241
f 242 305 243
f 242 304 305
f 243 305 244
f 244 306 307
f 244 307 308
f 244 308 245
f 244 305 309
f 244 309 306
f 245 308 253
f 247 254 310
f 247 310 248
f 248 310 249
f 249 310 311
f 249 311 250
f 250 311 312
f 250 312 251
f 251 312 313
f 251 313 314
f 251 314 252
f 252 314 315
f 252 315 257
f 253 308 254
f 254 308 310
f 255 316 260
f 255 256 316
f 256 317 318
f 256 318 316
f 256 257 315
f 256 315 319
f 256 319 317
f 258 259 320
f 258 320 321
f 258 321 262
f 259 260 322
f 259 322 320
f 260 316 323
f 260 323 322
f 261 262 324
f 261 324 325
f 261 325 264
f 262 321 326
f 262 326 327
f 262 327 328
f 262 328 329
f 262 329 330
f 262 330 331
f 262 331 332
f 262 332 333
f 262 333 324
f 263 266 268
f 264 325 334
f 264 334 335
f 264 335 265
f 265 335 336
f 265 336 337
f 265 337 338
f 265 338 339
f 265 339 266
f 266 339 340
f 266 340 341
f 266 341 342
f 266 342 268
f 268 343 269
f 268 342 341
f 268 341 344
f 268 344 345
f 268 345 343
f 269 343 346
f 269 346 347
f 269 347 348
f 269 348 270
f 270 348 271
f 271 348 349
f 271 349 273
f 271 273 272
f 273 349 274
f 274 350 419
f 274 419 351
f 274 349 350
f 275 351 420
f 275 420 352
f 275 352 277
f 277 353 354
f 277 354 355
f 277 355 278
f 277 352 353
f 278 355 356
f 278 356 357
f 278 357 279
f 279 357 280
f 280 357 283
f 280 283 282
f 283 357 356
f 283 356 290
f 284 287 358
f 284 358 359
f 284 359 289
f 284 289 288
f 285 290 286
f 286 290 360
f 286 360 287
f 287 360 361
f 287 361 358
f 289 359 291
f 290 356 360
f 291 359 293
f 292 296 362
f 292 362 363
f 292 363 364
f 292 364 297
f 293 359 365
f 293 365 366
f 293 366 294
f 294 366 367
f 294 367 368
f 294 368 369
f 294 369 295
f 295 369 296
f 296 369 362
f 297 364 298
f 298 364 370
f 298 370 371
f 298 371 372
f 298 372 299
f 299 372 373
f 299 373 374
f 299 374 375
f 299 375 300
f 300 302 301
f 300 375 376
f 300 376 377
f 300 377 302
f 302 377 378
f 302 378 379
f 302 379 303
f 303 379 380
f 303 380 304
f 304 380 309
f 304 309 305
f 306 309 381
f 306 381 313
f 306 313 312
f 306 312 307
f 307 312 311
f 307 311 382
f 307 382 308
f 308 382 311
f 308 311 310
f 309 380 383
f 309 383 381
f 313 381 314
f 314 381 379
f 314 379 378
f 314 378 384
f 314 384 315
f 315 384 385
f 315 385 319
f 316 318 323
f 317 319 386
f 317 386 318
f 318 387 388
f 318 388 389
f 318 389 390
f 318 390 323
f 318 386 391
f 318 391 392
f 318 392 387
f 319 385 447
f 319 447 386
f 320 322 326
f 320 326 321
f 322 323 390
f 322 390 326
f 324 333 325
f 325 333 393
f 325 393 394
f 325 394 334
f 326 390 395
f 326 395 327
f 327 395 389
f 327 389 396
f 327 396 329
f 327 329 328
f 329 396 397
f 329 397 398
f 329 398 399
f 329 399 400
f 329 400 331
f 329 331 330
f 331 400 401
f 331 401 402
f 331 402 403
f 331 403 332
f 332 403 333
f 333 403 404
f 333 404 393
f 334 394 336
f 334 336 335
f 336 394 405
f 336 405 406
f 336 406 337
f 337 406 407
f 337 407 338
f 338 407 408
f 338 408 409
f 338 409 341
f 338 341 340
f 338 340 339
f 341 409 410
f 341 410 411
f 341 411 412
f 341 412 413
f 341 413 345
f 341 345 344
f 343 345 346
f 345 413 414
f 345 414 415
f 345 415 347
f 345 347 346
f 347 415 416
f 347 416 417
f 347 417 418
f 347 418 348
f 348 418 349
f 349 418 350
f 350 418 419
f 351 419 420
f 352 420 353
f 353 421 354
f 353 420 421
f 354 421 355
f 355 421 360
f 355 360 356
f 358 422 365
f 358 365 359
f 358 361 423
f 358 423 424
f 358 424 422
f 360 421 361
f 361 421 423
f 362 369 425
f 362 425 426
f 362 426 427
f 362 427 363
f 363 427 428
f 363 428 429
f 363 429 364
f 364 429 370
f 365 430 366
f 365 422 430
f 366 430 431
f 366 431 367
f 367 431 432
f 367 432 433
f 367 433 368
f 368 433 434
f 368 434 369
f 369 434 435
f 369 435 425
f 370 429 436
f 370 436 437
f 370 437 371
f 371 437 436
f 371 436 438
f 371 438 439
f 371 439 372
f 372 439 373
f 373 439 440
f 373 440 374
f 374 440 441
f 374 441 375
f 375 441 376
f 376 442 377
f 376 441 443
f 376 443 444
f 376 444 442
f 377 442 444
f 377 444 378
f 378 444 384
f 379 381 380
f 380 381 383
f 384 444 445
f 384 445 385
f 385 445 446
f 385 446 447
f 386 447 448
f 386 448 391
f 387 392 449
f 387 449 388
f 388 449 450
f 388 450 389
f 389 451 396
f 389 395 390
f 389 450 452
f 389 452 453
f 389 453 451
f 391 448 454
f 391 454 392
f 392 454 449
f 393 404 394
f 394 404 405
f 396 451 453
f 396 453 452
f 396 452 455
f 396 455 456
f 396 456 397
f 397 456 455
f 397 455 457
f 397 457 398
f 398 457 458
f 398 458 399
f 399 458 459
f 399 459 400
f 400 459 460
f 400 460 401
f 401 460 461
f 401 461 462
f 401 462 402
f 402 462 463
f 402 463 464
f 402 464 403
f 403 464 465
f 403 465 466
f 403 466 404
f 404 466 467
f 404 467 405
f 405 467 468
f 405 468 406
f 406 469 407
f 406 468 470
f 406 470 471
f 406 471 469
f 407 469 472
f 407 472 473
f 407 473 408
f 408 473 474
f 408 474 475
f 408 475 476
f 408 476 409
f 409 476 477
f 409 477 478
f 409 478 479
f 409 479 410
f 410 479 411
f 411 479 412
f 412 480 481
f 412 481 413
f 412 479 480
f 413 481 414
f 414 481 482
f 414 482 483
f 414 483 415
f 415 484 416
f 415 483 484
f 416 484 485
f 416 485 486
f 416 486 487
f 416 487 417
f 417 487 488
f 417 488 489
f 417 489 418
f 418 489 419
f 419 489 490
f 419 490 491
f 419 491 424
f 419 424 423
f 419 423 420
f 420 423 421
f 422 492 432
f 422 432 430
f 422 424 491
f 422 491 492
f 425 435 493
f 425 493 426
f 426 494 427
f 426 493 495
f 426 495 494
f 427 494 496
f 427 496 428
f 428 496 497
f 428 497 498
f 428 498 429
f 429 498 436
f 430 432 431
f 432 492 499
f 432 499 500
f 432 500 501
f 432 501 433
f 433 501 502
f 433 502 503
f 433 503 504
f 433 504 434
f 434 504 435
f 435 504 493
f 436 498 505
f 436 505 438
f 438 505 506
f 438 506 507
f 438 507 439
f 439 507 508
f 439 508 440
f 440 508 509
f 440 509 510
f 440 510 511
f 440 511 512
f 440 512 441
f 441 512 513
f 441 513 443
f 443 513 446
f 443 446 445
f 443 445 444
f 446 514 447
f 446 513 514
f 447 514 448
f 448 514 454
f 449 454 515
f 449 515 516
f 449 516 450
f 450 516 452
f 452 516 517
f 452 517 518
f 452 518 455
f 454 514 515
f 455 518 519
f 455 519 520
f 455 520 457
f 457 520 521
f 457 521 458
f 458 521 459
f 459 521 522
f 459 522 523
f 459 523 524
f 459 524 461
f 459 461 460
f 461 524 463
f 461 463 462
f 463 524 525
f 463 525 526
f 463 526 464
f 464 526 465
f 465 526 527
f 465 527 505
f 465 505 528
f 465 528 529
f 465 529 466
f 466 529 467
f 467 529 530
f 467 530 531
f 467 531 468
f 468 531 532
f 468 532 470
f 469 471 533
f 469 533 472
f 470 534 533
f 470 533 471
f 470 532 535
f 470 535 534
f 472 533 473
f 473 533 474
f 474 533 534
f 474 534 475
f 475 534 535
f 475 535 536
f 475 536 476
f 476 536 537
f 476 537 477
f 477 537 538
f 477 538 539
f 477 539 540
f 477 540 478
f 478 540 541
f 478 541 479
f 479 541 542
f 479 542 481
f 479 481 480
f 481 542 482
f 482 542 543
f 482 543 544
f 482 544 483
f 483 544 486
f 483 486 485
f 483 485 484
f 486 544 502
f 486 502 501
f 486 501 500
f 486 500 545
f 486 545 487
f 487 546 488
f 487 545 546
f 488 490 489
f 488 546 490
f 490 546 547
f 490 547 491
f 491 547 499
f 491 499 492
f 493 504 548
f 493 548 549
f 493 549 550
f 493 550 551
f 493 551 495
f 494 495 496
f 495 551 552
f 495 552 553
f 495 553 496
f 496 553 497
f 497 553 554
f 497 554 498
f 498 554 528
f 498 528 505
f 499 547 545
f 499 545 500
f 502 544 543
f 502 543 503
f 503 543 555
f 503 555 556
f 503 556 504
f 504 556 555
f 504 555 557
f 504 557 548
f 505 527 506
f 506 527 558
f 506 558 507
f 507 558 559
f 507 559 508
f 508 559 560
f 508 560 561
f 508 561 509
f 509 561 510
f 510 561 520
f 510 520 519
f 510 519 562
f 510 562 511
f 511 562 512
f 512 562 563
f 512 563 513
f 513 563 564
f 513 564 514
f 514 564 515
f 515 564 563
f 515 563 562
f 515 562 517
f 515 517 516
f 517 562 518
f 518 562 519
f 520 561 521
f 521 561 522
f 522 561 560
f 522 560 523
f 523 560 558
f 523 558 565
f 523 565 524
f 524 566 525
f 524 565 566
f 525 566 526
f 526 566 527
f 527 565 558
f 527 566 565
f 528 554 530
f 528 530 529
f 530 554 567
f 530 567 531
f 531 567 568
f 531 568 569
f 531 569 532
f 532 569 535
f 535 569 568
f 535 568 570
f 535 570 571
f 535 571 536
f 536 571 537
f 537 571 538
f 538 571 572
f 538 572 573
f 538 573 574
f 538 574 539
f 539 574 540
f 540 574 575
f 540 575 576
f 540 576 541
f 541 576 542
f 542 576 577
f 542 577 543
f 543 577 555
f 545 547 578
f 545 578 546
f 546 578 547
f 548 557 555
f 548 555 574
f 548 574 549
f 549 574 573
f 549 573 579
f 549 579 580
f 549 580 550
f 550 580 551
f 551 580 552
f 552 580 581
f 552 581 567
f 552 567 553
f 553 567 554
f 555 577 576
f 555 576 575
f 555 575 574
f 558 560 559
f 567 581 568
f 568 582 570
f 568 581 582
f 570 582 572
f 570 572 571
f 572 582 579
f 572 579 573
f 579 582 583
f 579 583 580
f 580 583 581
f 581 583 582

