# https://github.com/mikedh/trimesh

o geometry_0
v -0.02856929 0.00155574 0.09557289
v -0.02856929 0.00515439 0.09544097
v -0.04948541 0.00515439 0.09591212
v -0.05379344 0.00515439 0.09600635
v -0.05811154 0.00515439 0.09606289
v -0.06674774 0.00515439 0.09613828
v -0.07538394 0.00515439 0.09619481
v -0.03221300 0.00155574 0.09559174
v -0.02856929 -0.00324901 0.09429135
v -0.05379344 0.00757372 0.09515827
v -0.05811154 0.00765044 0.09523366
v -0.02856929 0.00707237 0.09459289
v -0.06242964 0.00771288 0.09527135
v -0.06674774 0.00775749 0.09530905
v -0.07106585 0.00779852 0.09534674
v -0.07538394 0.00784134 0.09536558
v -0.07969198 0.00786811 0.09538443
v -0.08400002 0.00788416 0.09540328
v -0.07969198 0.00515439 0.09621366
v -0.07106585 0.00155574 0.09562943
v -0.03221300 -0.00320976 0.09427251
v -0.02856929 -0.00557021 0.09214289
v -0.07969198 0.00155574 0.09562943
v -0.09263622 -0.00102951 0.09480020
v -0.10989855 -0.00085110 0.09474366
v -0.06242964 0.00879765 0.09229366
v -0.06674774 0.00889400 0.09229366
v -0.07106585 0.00897964 0.09229366
v -0.07538394 0.00906171 0.09229366
v -0.02856929 0.00761832 0.09229366
v -0.05811154 0.00867098 0.09229366
v -0.07969198 0.00912951 0.09229366
v -0.08400002 0.00918125 0.09229366
v -0.11421665 0.00947564 0.09229366
v -0.09695432 0.00791806 0.09542212
v -0.10127241 0.00793233 0.09542212
v -0.11421665 0.00796802 0.09542212
v -0.10559052 0.00515439 0.09617597
v -0.09263622 -0.00282795 0.09366943
v -0.09695432 -0.00278870 0.09361289
v -0.10989855 -0.00264953 0.09346212
v -0.11421665 -0.00440158 0.09125712
v -0.02856929 -0.00736864 0.08967405
v -0.09695432 0.00155574 0.09555405
v -0.10559052 0.00155574 0.09549751
v -0.10989855 0.00155574 0.09545981
v -0.11421665 -0.00076011 0.09468712
v -0.10559052 -0.00268879 0.09351866
v -0.06242964 0.00914200 0.08799674
v -0.06674774 0.00924370 0.08799674
v -0.07106585 0.00933469 0.08799674
v -0.07538394 0.00942211 0.08799674
v -0.07969198 0.00950418 0.08799674
v -0.08400002 0.00957912 0.08799674
v -0.02856929 0.00800192 0.08867520
v -0.02856929 0.00807150 0.08799674
v -0.05811154 0.00900819 0.08799674
v -0.11421665 0.01003586 0.08799674
v -0.11853475 0.00945066 0.09229366
v -0.11853475 0.01005192 0.08799674
v -0.11853475 0.00793769 0.09536558
v -0.10989855 0.00515439 0.09615712
v -0.11421665 -0.00255854 0.09340558
v -0.11853475 -0.00434449 0.09110635
v -0.11853475 -0.00512595 0.08799674
v -0.02856929 -0.00741325 0.08933481
v -0.11421665 0.00515439 0.09608173
v -0.11421665 0.00155574 0.09536558
v -0.11853475 -0.00049962 0.09457404
v -0.06242964 0.00916162 0.08371866
v -0.06674774 0.00927224 0.08371866
v -0.07106585 0.00936680 0.08371866
v -0.07538394 0.00945958 0.08371866
v -0.07969198 0.00954879 0.08371866
v -0.08400002 0.00963086 0.08371866
v -0.08831811 0.00970401 0.08371866
v -0.09263622 0.00977359 0.08371866
v -0.10989855 0.01005014 0.08371866
v -0.11421665 0.01011793 0.08371866
v -0.02856929 0.00810183 0.08437827
v -0.02856929 0.00810718 0.08371866
v -0.11853475 0.01013934 0.08371866
v -0.12285286 0.00908490 0.09229366
v -0.12285286 0.00995022 0.08799674
v -0.12285286 0.01006441 0.08371866
v -0.12285286 0.00763616 0.09504520
v -0.11853475 0.00515439 0.09591212
v -0.11853475 -0.00229984 0.09323597
v -0.12183624 -0.00414645 0.09071059
v -0.02856929 -0.00793066 0.08371866
v -0.03221300 -0.00758631 0.08705443
v -0.02856929 -0.00764697 0.08752558
v -0.12310449 -0.00449793 0.08824173
v -0.12285286 -0.00514201 0.08371866
v -0.11853475 -0.00534362 0.08371866
v -0.11853475 0.00155574 0.09512059
v -0.12077936 -0.00028552 0.09446097
v -0.02856929 0.00811967 0.08010019
v -0.02856929 0.00812146 0.07942173
v -0.06242964 0.00917233 0.07942173
v -0.06674774 0.00929008 0.07942173
v -0.07538394 0.00948099 0.07942173
v -0.07969198 0.00957377 0.07942173
v -0.08400002 0.00966297 0.07942173
v -0.08831811 0.00974326 0.07942173
v -0.09263622 0.00981641 0.07942173
v -0.09695432 0.00988421 0.07942173
v -0.10989855 0.01008225 0.07942173
v -0.11421665 0.01013578 0.07942173
v -0.11853475 0.01014827 0.07942173
v -0.12717096 0.00914557 0.08799674
v -0.12695958 0.00788595 0.09214289
v -0.12538936 0.00723116 0.09466827
v -0.12717096 0.00946315 0.08371866
v -0.12285286 0.01007155 0.07942173
v -0.12717096 0.00949348 0.07942173
v -0.12310449 0.00499025 0.09512059
v -0.12470491 -0.00370576 0.08982481
v -0.12274214 -0.00199653 0.09235020
v -0.10989855 -0.00595737 0.07084673
v -0.02856929 -0.00794671 0.08304020
v -0.12546989 -0.00411968 0.08696020
v -0.12583225 -0.00434449 0.08371866
v -0.12599329 -0.00444083 0.07942173
v -0.12285286 -0.00527761 0.07942173
v -0.11853475 -0.00564514 0.07084673
v -0.12161479 0.00155574 0.09468712
v -0.12471498 0.00367889 0.09434789
v -0.12376881 0.00155574 0.09402750
v -0.12596309 -0.00130784 0.09112519
v -0.02856929 0.00812859 0.07512481
v -0.02856929 0.00815892 -0.06580677
v -0.02856929 0.00815892 -0.07076330
v -0.06242964 0.00917054 0.07512481
v -0.08400002 0.00966297 0.05795596
v -0.07538394 0.00948099 0.07512481
v -0.07969198 0.00957733 0.07512481
v -0.06242964 0.00908669 -0.07506023
v -0.06674774 0.00918839 -0.07506023
v -0.08400002 0.00967011 0.07512481
v -0.08831811 0.00975575 0.07512481
v -0.09263622 0.00983068 0.07512481
v -0.09695432 0.00990027 0.07512481
v -0.10127241 0.00996628 0.07512481
v -0.10559052 0.01002694 0.07512481
v -0.10989855 0.01008404 0.07512481
v -0.10127241 0.00974861 -0.07506023
v -0.10559052 0.00979322 -0.07506023
v -0.10989855 0.00983247 -0.07506023
v -0.11421665 0.00985209 -0.08363523
v -0.11853475 0.00986815 -0.08363523
v -0.12285286 0.00983782 -0.08363523
v -0.13004969 0.00769326 0.08799674
v -0.12963700 0.00730074 0.09061635
v -0.13033152 0.00794304 0.08371866
v -0.12538936 0.00607859 0.09466827
v -0.13036172 0.00796802 0.07942173
v -0.12717096 0.00946850 -0.08363523
v -0.12717096 0.00947385 -0.07935716
v -0.13049258 0.00804295 -0.07935716
v -0.12670794 -0.00232125 0.08824173
v -0.11421665 -0.00598770 0.06225288
v -0.10989855 -0.00610903 0.06225288
v -0.02856929 -0.00802700 0.07942173
v -0.12931490 -0.00019274 0.08564097
v -0.12824796 -0.00177708 0.08400135
v -0.12814731 -0.00231411 0.07942173
v -0.12816744 -0.00234623 0.07512481
v -0.12601342 -0.00445511 0.07512481
v -0.12285286 -0.00537217 0.06654981
v -0.12285286 -0.00534540 0.07084673
v -0.12285286 -0.00531329 0.07512481
v -0.11853475 -0.00582891 0.06225288
v -0.11853475 -0.00599841 0.04508403
v -0.12676833 0.00155574 0.09187904
v -0.12928471 0.00348263 0.09003212
v -0.12900287 0.00122567 0.08835481
v -0.02856929 0.00815357 -0.07438177
v -0.06242964 0.00907063 -0.08793215
v -0.06242964 0.00908134 -0.07935716
v -0.08400002 0.00965940 0.05367788
v -0.08831811 0.00975040 0.05795596
v -0.06674774 0.00918125 -0.07935716
v -0.07106585 0.00927581 -0.07506023
v -0.09263622 0.00982176 0.05795596
v -0.10127241 0.00996271 0.07084673
v -0.10559052 0.01002337 0.07084673
v -0.09263622 0.00965405 -0.07076330
v -0.09695432 0.00970758 -0.07076330
v -0.09695432 0.00969866 -0.07506023
v -0.10127241 0.00969152 -0.08793215
v -0.11421665 0.00983604 -0.08793215
v -0.11853475 0.00985388 -0.08793215
v -0.12285286 0.00981820 -0.08793215
v -0.13102605 0.00515439 0.08371866
v -0.13015034 0.00487071 0.08835481
v -0.12963700 0.00588233 0.09061635
v -0.13112670 0.00515439 0.07942173
v -0.12733201 0.00477972 0.09248212
v -0.13139847 0.00515439 -0.07935716
v -0.13048252 0.00804117 -0.08363523
v -0.12717096 0.00933290 -0.08793215
v -0.11421665 -0.00604301 0.05795596
v -0.10989855 -0.00618039 0.05795596
v -0.10989855 -0.00629636 0.04508403
v -0.02856929 -0.00803235 0.07874327
v -0.12973765 0.00220339 0.08716751
v -0.12992891 0.00122567 0.08400135
v -0.12941556 -0.00040149 0.08277635
v -0.12948603 -0.00051568 0.07942173
v -0.12949609 -0.00054779 0.07512481
v -0.12956655 -0.00064057 -0.07935716
v -0.12821776 -0.00244079 -0.07935716
v -0.12285286 -0.00538822 0.06225288
v -0.12601342 -0.00445867 0.07084673
v -0.12285286 -0.00555415 0.00646825
v -0.12285286 -0.00554880 0.01074633
v -0.12285286 -0.00553631 0.01504326
v -0.12285286 -0.00544710 0.04508403
v -0.11853475 -0.00614828 0.01074633
v -0.11853475 -0.00602695 0.04078711
v -0.11421665 -0.00617147 0.04508403
v -0.11421665 -0.00620180 0.04078711
v -0.02856929 0.00815179 -0.07506023
v -0.05811154 0.00894931 -0.08793215
v -0.05811154 0.00863351 -0.09222908
v -0.06242964 0.00875305 -0.09222908
v -0.06674774 0.00916698 -0.08793215
v -0.08831811 0.00974683 0.05367788
v -0.07106585 0.00926689 -0.07935716
v -0.07538394 0.00935788 -0.07506023
v -0.08831811 0.00959339 -0.07076330
v -0.09263622 0.00981641 0.05367788
v -0.09263622 0.00964513 -0.07506023
v -0.09263622 0.00962729 -0.07935716
v -0.09695432 0.00967903 -0.07935716
v -0.08400002 0.00945601 -0.08793215
v -0.07969198 0.00903852 -0.09222908
v -0.11421665 0.00943282 -0.09222908
v -0.11853475 0.00946136 -0.09222908
v -0.12285286 0.00932755 -0.09222908
v -0.13025100 0.00155574 0.07942173
v -0.13033152 0.00155574 0.04078711
v -0.13027113 0.00155574 0.07512481
v -0.13134814 0.00515439 -0.08363523
v -0.13042211 0.00155574 -0.08363523
v -0.13046237 0.00155574 -0.07935716
v -0.13029126 0.00791806 -0.08793215
v -0.12727162 0.00818747 -0.09234216
v -0.12985845 0.00751841 -0.09098523
v -0.10989855 -0.00632848 0.04078711
v -0.10559052 -0.00643553 0.04078711
v -0.02856929 -0.00805733 0.07512481
v -0.12951622 -0.00055136 0.04508403
v -0.12956655 -0.00062808 -0.08363523
v -0.12815737 -0.00242830 -0.08363523
v -0.12606375 -0.00451934 -0.07935716
v -0.12605368 -0.00452290 -0.07506023
v -0.12604361 -0.00452469 -0.07076330
v -0.12285286 -0.00554880 0.00217133
v -0.11853475 -0.00615541 -0.00638483
v -0.11853475 -0.00615363 0.00217133
v -0.11853475 -0.00615185 0.00646825
v -0.11421665 -0.00631420 0.01074633
v -0.11421665 -0.00629815 0.01504326
v -0.10989855 -0.00636416 0.03221211
v -0.10989855 -0.00634632 0.03650903
v -0.10989855 -0.00643017 0.01504326
v -0.02856929 0.00808756 -0.08793215
v -0.02856929 0.00771467 -0.09222908
v -0.02856929 0.00724543 -0.09422677
v -0.02856929 0.00714909 -0.09460370
v -0.05379344 0.00756658 -0.09501831
v -0.06674774 0.00884761 -0.09222908
v -0.07106585 0.00924905 -0.08793215
v -0.07969198 0.00943817 -0.07506023
v -0.08400002 0.00952024 -0.07076330
v -0.07538394 0.00934896 -0.07935716
v -0.08400002 0.00951489 -0.07506023
v -0.08831811 0.00958447 -0.07506023
v -0.08831811 0.00956663 -0.07935716
v -0.07969198 0.00939178 -0.08793215
v -0.07106585 0.00891719 -0.09222908
v -0.07538394 0.00897964 -0.09222908
v -0.06242964 0.00769504 -0.09513139
v -0.06674774 0.00773965 -0.09516908
v -0.07538394 0.00779852 -0.09522562
v -0.07969198 0.00782350 -0.09524447
v -0.11421665 0.00799835 -0.09541408
v -0.11853475 0.00801976 -0.09543293
v -0.12285286 0.00790379 -0.09528215
v -0.12589264 0.00750770 -0.09486754
v -0.13087505 0.00515439 -0.08793215
v -0.12987858 0.00155039 -0.08785677
v -0.12947596 -0.00047642 -0.08636793
v -0.12988865 0.00515439 -0.09104177
v -0.12817750 0.00515439 -0.09319024
v -0.10559052 -0.00649797 0.02791518
v -0.10559052 -0.00647835 0.03221211
v -0.10559052 -0.00645694 0.03650903
v -0.02856929 -0.00806090 0.07446519
v -0.12600335 -0.00446403 -0.08363523
v -0.12790574 -0.00182168 -0.08785677
v -0.12557054 -0.00418748 -0.08793215
v -0.12285286 -0.00532221 -0.08363523
v -0.12285286 -0.00537752 -0.07935716
v -0.12285286 -0.00541320 -0.07076330
v -0.12285286 -0.00552739 -0.01068175
v -0.11853475 -0.00614471 -0.01068175
v -0.11421665 -0.00631956 -0.00638483
v -0.11421665 -0.00631777 0.00646825
v -0.10989855 -0.00644266 0.01074633
v -0.10559052 -0.00654436 0.01504326
v -0.02856929 0.00515439 -0.09528215
v -0.04948541 0.00748808 -0.09496177
v -0.05379344 0.00515439 -0.09575331
v -0.05811154 0.00763616 -0.09507485
v -0.07538394 0.00932398 -0.08793215
v -0.08400002 0.00949883 -0.07935716
v -0.05811154 0.00515439 -0.09582869
v -0.06674774 0.00515439 -0.09594177
v -0.11853475 0.00515439 -0.09631869
v -0.12285286 0.00515439 -0.09592292
v -0.12601342 0.00515439 -0.09494293
v -0.12955648 0.00274577 -0.09047639
v -0.12909347 0.00034786 -0.08923254
v -0.12545982 0.00225691 -0.09464138
v -0.12492634 -0.00014100 -0.09433985
v -0.12728168 0.00130239 -0.09239869
v -0.10127241 -0.00659610 0.02791518
v -0.10127241 -0.00663000 0.01934018
v -0.02856929 -0.00807339 0.07084673
v -0.12514779 -0.00392164 -0.09025023
v -0.12285286 -0.00491364 -0.08793215
v -0.11853475 -0.00543283 -0.08363523
v -0.11853475 -0.00532935 -0.08793215
v -0.11853475 -0.00563622 -0.06648522
v -0.11853475 -0.00592526 -0.04072253
v -0.11421665 -0.00629458 -0.01068175
v -0.10989855 -0.00643196 -0.00638483
v -0.10989855 -0.00643731 -0.00210675
v -0.10989855 -0.00644088 0.00217133
v -0.10989855 -0.00644266 0.00646825
v -0.10559052 -0.00655328 0.01074633
v -0.10127241 -0.00664427 0.01504326
v -0.02856929 0.00155574 -0.09539523
v -0.03221300 0.00155574 -0.09543293
v -0.04084921 0.00155574 -0.09550831
v -0.05811154 0.00155574 -0.09564023
v -0.10989855 0.00155574 -0.09586639
v -0.11421665 0.00155574 -0.09586639
v -0.11853475 0.00155574 -0.09582869
v -0.08831811 0.00155574 -0.09577215
v -0.12323535 0.00125600 -0.09511254
v -0.12601342 -0.00204113 -0.09124908
v -0.12204761 -0.00094923 -0.09473562
v -0.12323535 -0.00210536 -0.09330331
v -0.02856929 -0.00807517 0.07016827
v -0.12285286 -0.00419819 -0.09090985
v -0.11853475 -0.00446403 -0.09156946
v -0.02856929 -0.00711708 -0.08363523
v -0.04948541 -0.00702608 -0.06218830
v -0.04948541 -0.00708139 -0.05789138
v -0.10127241 -0.00587173 -0.07506023
v -0.10559052 -0.00589314 -0.06648522
v -0.02856929 -0.00691904 -0.08793215
v -0.04948541 -0.00723840 -0.04501945
v -0.10559052 -0.00649262 -0.01068175
v -0.10989855 -0.00640163 -0.01068175
v -0.10559052 -0.00652474 -0.00638483
v -0.10559052 -0.00653722 -0.00210675
v -0.10559052 -0.00654615 0.00217133
v -0.10559052 -0.00655150 0.00646825
v -0.10127241 -0.00665141 0.01074633
v -0.02856929 -0.00141489 -0.09482985
v -0.03221300 -0.00194479 -0.09475446
v -0.02856929 -0.00376285 -0.09435869
v -0.10127241 -0.00152016 -0.09499946
v -0.10559052 -0.00151659 -0.09499946
v -0.10989855 -0.00150053 -0.09499946
v -0.11421665 -0.00147377 -0.09498062
v -0.11853475 -0.00137921 -0.09494293
v -0.11853475 -0.00317943 -0.09371792
v -0.02856929 -0.00807874 0.06587134
v -0.11421665 -0.00450149 -0.09166369
v -0.11421665 -0.00327221 -0.09381215
v -0.02856929 -0.00717595 -0.07935716
v -0.04076868 -0.00740433 -0.04507599
v -0.04948541 -0.00718844 -0.04931637
v -0.02856929 -0.00667282 -0.08861062
v -0.04516731 -0.00732226 -0.04501945
v -0.04225838 -0.00742395 -0.04072253
v -0.05581661 -0.00743644 -0.01262290
v -0.05652119 -0.00745072 -0.00975829
v -0.05706473 -0.00745964 -0.00638483
v -0.06015484 -0.00743644 0.00049402
v -0.06049706 -0.00744358 0.00335864
v -0.06080910 -0.00744893 0.00646825
v -0.10127241 -0.00663714 0.00217133
v -0.10127241 -0.00664784 0.00646825
v -0.06674774 -0.00734367 0.01074633
v -0.06328521 -0.00741503 0.01504326
v -0.06674774 -0.00734545 0.01504326
v -0.02856929 -0.00506529 -0.09254946
v -0.03221300 -0.00374501 -0.09433985
v -0.06110100 -0.00745428 0.01074633
v -0.02856929 -0.00806804 0.04508403
v -0.02856929 -0.00529902 -0.09221023
v -0.02856929 -0.00760415 -0.04501945
v -0.03221300 -0.00755063 -0.04501945
v -0.03666196 -0.00747569 -0.04507599
v -0.03927899 -0.00744893 -0.04366253
v -0.04009430 -0.00746499 -0.04072253
v -0.03221300 -0.00785572 -0.01068175
v -0.03653111 -0.00752743 -0.04072253
v -0.03653111 -0.00775224 -0.01497867
v -0.03221300 -0.00782717 -0.01497867
v -0.03653111 -0.00780576 -0.00638483
v -0.05762840 -0.00747034 -0.00210675
v -0.05811154 -0.00749710 0.00646825
v -0.05847390 -0.00747391 0.00202056
v -0.06325501 -0.00741325 0.01074633
v -0.03221300 -0.00797883 0.01934018
v -0.02856929 -0.00806268 0.04012749
v -0.02856929 -0.00764519 -0.04140099
v -0.03221300 -0.00759880 -0.04072253
v -0.02856929 -0.00790746 -0.01068175
v -0.03221300 -0.00787713 -0.00638483
v -0.02856929 -0.00787356 -0.01565714
v -0.02856929 -0.00787891 -0.01497867
v -0.02856929 -0.00765233 -0.04072253
v -0.03221300 -0.00789676 -0.00210675
v -0.03221300 -0.00793422 0.00646825
v -0.03221300 -0.00795207 0.01074633
v -0.03221300 -0.00796812 0.01504326
v -0.02856929 -0.00802700 0.01504326
v -0.02856929 -0.00803592 0.01866172
v -0.02856929 -0.00800737 0.01008672
f 1 2 3
f 1 3 4
f 1 4 5
f 1 5 6
f 1 6 7
f 1 7 8
f 1 8 9
f 1 9 22
f 1 22 43
f 1 43 66
f 1 66 92
f 1 92 90
f 1 90 121
f 1 121 164
f 1 164 206
f 1 206 253
f 1 253 301
f 1 301 332
f 1 332 358
f 1 358 384
f 1 384 407
f 1 407 424
f 1 424 437
f 1 437 436
f 1 436 438
f 1 438 427
f 1 427 430
f 1 430 429
f 1 429 431
f 1 431 425
f 1 425 409
f 1 409 387
f 1 387 361
f 1 361 366
f 1 366 390
f 1 390 408
f 1 408 404
f 1 404 377
f 1 377 375
f 1 375 346
f 1 346 314
f 1 314 272
f 1 272 271
f 1 271 270
f 1 270 269
f 1 269 224
f 1 224 178
f 1 178 133
f 1 133 132
f 1 132 131
f 1 131 99
f 1 99 98
f 1 98 81
f 1 81 80
f 1 80 56
f 1 56 55
f 1 55 30
f 1 30 12
f 1 12 2
f 2 10 11
f 2 11 3
f 2 12 10
f 3 11 4
f 4 11 13
f 4 13 5
f 5 13 14
f 5 14 15
f 5 15 6
f 6 15 16
f 6 16 7
f 7 16 17
f 7 17 18
f 7 18 19
f 7 19 8
f 8 19 20
f 8 20 9
f 9 21 22
f 9 20 23
f 9 23 24
f 9 24 25
f 9 25 21
f 10 12 26
f 10 26 11
f 11 26 27
f 11 27 28
f 11 28 29
f 11 29 13
f 12 30 31
f 12 31 26
f 13 29 32
f 13 32 14
f 14 32 15
f 15 32 33
f 15 33 16
f 16 33 34
f 16 34 17
f 17 34 18
f 18 35 19
f 18 34 35
f 19 35 36
f 19 36 37
f 19 37 38
f 19 38 23
f 19 23 20
f 21 39 22
f 21 25 39
f 22 39 40
f 22 40 41
f 22 41 42
f 22 42 43
f 23 38 44
f 23 44 24
f 24 44 25
f 25 44 45
f 25 45 46
f 25 46 47
f 25 47 63
f 25 63 41
f 25 41 48
f 25 48 39
f 26 31 49
f 26 49 50
f 26 50 27
f 27 50 51
f 27 51 52
f 27 52 28
f 28 52 53
f 28 53 29
f 29 53 54
f 29 54 32
f 30 55 31
f 31 55 56
f 31 56 57
f 31 57 49
f 32 54 58
f 32 58 33
f 33 58 34
f 34 59 37
f 34 37 36
f 34 36 35
f 34 58 60
f 34 60 59
f 37 61 62
f 37 62 38
f 37 59 61
f 38 62 44
f 39 48 40
f 40 48 41
f 41 63 42
f 42 64 43
f 42 63 64
f 43 64 65
f 43 65 66
f 44 62 45
f 45 62 46
f 46 62 67
f 46 67 68
f 46 68 47
f 47 69 63
f 47 68 69
f 49 57 70
f 49 70 71
f 49 71 50
f 50 71 72
f 50 72 73
f 50 73 51
f 51 73 74
f 51 74 52
f 52 74 75
f 52 75 53
f 53 75 54
f 54 75 76
f 54 76 77
f 54 77 78
f 54 78 79
f 54 79 58
f 56 80 57
f 57 80 81
f 57 81 70
f 58 79 82
f 58 82 60
f 59 83 61
f 59 60 84
f 59 84 83
f 60 82 85
f 60 85 84
f 61 86 87
f 61 87 67
f 61 67 62
f 61 83 86
f 63 69 88
f 63 88 64
f 64 89 65
f 64 88 89
f 65 90 91
f 65 91 92
f 65 92 66
f 65 89 93
f 65 93 94
f 65 94 95
f 65 95 90
f 67 87 68
f 68 87 96
f 68 96 69
f 69 97 88
f 69 96 97
f 70 98 99
f 70 99 100
f 70 100 101
f 70 101 71
f 70 81 98
f 71 101 102
f 71 102 72
f 72 102 103
f 72 103 73
f 73 103 104
f 73 104 74
f 74 104 75
f 75 104 105
f 75 105 106
f 75 106 76
f 76 106 77
f 77 106 78
f 78 106 107
f 78 107 79
f 79 107 108
f 79 108 109
f 79 109 82
f 82 109 110
f 82 110 85
f 83 84 111
f 83 111 112
f 83 112 113
f 83 113 86
f 84 85 114
f 84 114 111
f 85 110 115
f 85 115 116
f 85 116 114
f 86 113 87
f 87 113 117
f 87 117 97
f 87 97 96
f 88 97 89
f 89 118 93
f 89 97 119
f 89 119 118
f 90 92 91
f 90 95 120
f 90 120 121
f 93 118 122
f 93 122 94
f 94 122 123
f 94 123 124
f 94 124 125
f 94 125 95
f 95 125 126
f 95 126 120
f 97 117 127
f 97 127 128
f 97 128 129
f 97 129 130
f 97 130 119
f 99 131 100
f 100 131 132
f 100 132 133
f 100 133 134
f 100 134 101
f 101 135 136
f 101 136 137
f 101 137 102
f 101 134 138
f 101 138 139
f 101 139 135
f 102 137 140
f 102 140 103
f 103 140 104
f 104 140 141
f 104 141 105
f 105 141 142
f 105 142 106
f 106 142 143
f 106 143 107
f 107 143 108
f 108 143 144
f 108 144 145
f 108 145 146
f 108 146 109
f 109 146 147
f 109 147 148
f 109 148 149
f 109 149 150
f 109 150 151
f 109 151 110
f 110 151 152
f 110 152 115
f 111 153 154
f 111 154 112
f 111 114 155
f 111 155 153
f 112 154 113
f 113 156 117
f 113 154 197
f 113 197 156
f 114 116 157
f 114 157 155
f 115 152 158
f 115 158 159
f 115 159 116
f 116 159 160
f 116 160 157
f 117 156 128
f 117 128 127
f 118 119 130
f 118 130 161
f 118 161 122
f 120 126 162
f 120 162 163
f 120 163 164
f 120 164 121
f 122 161 165
f 122 165 166
f 122 166 123
f 123 166 167
f 123 167 124
f 124 167 168
f 124 168 169
f 124 169 170
f 124 170 171
f 124 171 172
f 124 172 125
f 125 173 126
f 125 172 174
f 125 174 173
f 126 173 162
f 128 156 175
f 128 175 130
f 128 130 129
f 130 176 177
f 130 177 161
f 130 175 176
f 133 178 179
f 133 179 180
f 133 180 138
f 133 138 134
f 135 181 229
f 135 229 182
f 135 182 140
f 135 140 137
f 135 137 136
f 135 139 181
f 138 180 139
f 139 180 179
f 139 179 183
f 139 183 184
f 139 184 229
f 139 229 181
f 140 182 141
f 141 182 142
f 142 182 185
f 142 185 143
f 143 185 144
f 144 185 186
f 144 186 187
f 144 187 145
f 145 187 146
f 146 187 188
f 146 188 189
f 146 189 147
f 147 189 190
f 147 190 191
f 147 191 192
f 147 192 150
f 147 150 148
f 148 150 149
f 150 192 193
f 150 193 151
f 151 193 152
f 152 193 194
f 152 194 158
f 153 155 195
f 153 195 154
f 154 195 196
f 154 196 197
f 155 157 198
f 155 198 195
f 156 197 199
f 156 199 175
f 157 160 200
f 157 200 198
f 158 201 160
f 158 160 159
f 158 194 202
f 158 202 201
f 160 201 200
f 161 177 165
f 162 173 203
f 162 203 204
f 162 204 163
f 163 204 164
f 164 204 205
f 164 205 206
f 165 207 195
f 165 195 208
f 165 208 209
f 165 209 166
f 165 177 207
f 166 209 167
f 167 209 210
f 167 210 168
f 168 210 211
f 168 211 212
f 168 212 213
f 168 213 169
f 169 214 170
f 169 213 215
f 169 215 216
f 169 216 217
f 169 217 218
f 169 218 219
f 169 219 214
f 170 214 220
f 170 220 221
f 170 221 171
f 171 221 174
f 171 174 172
f 173 174 222
f 173 222 203
f 174 221 223
f 174 223 222
f 175 199 197
f 175 197 176
f 176 197 196
f 176 196 207
f 176 207 177
f 178 224 225
f 178 225 179
f 179 225 226
f 179 226 227
f 179 227 228
f 179 228 183
f 182 229 185
f 183 228 184
f 184 228 230
f 184 230 278
f 184 278 231
f 184 231 229
f 185 229 232
f 185 232 233
f 185 233 186
f 186 233 232
f 186 232 188
f 186 188 187
f 188 232 280
f 188 280 234
f 188 234 190
f 188 190 189
f 190 234 235
f 190 235 236
f 190 236 191
f 191 236 235
f 191 235 237
f 191 237 238
f 191 238 239
f 191 239 192
f 192 239 240
f 192 240 193
f 193 240 194
f 194 240 241
f 194 241 202
f 195 207 196
f 195 198 242
f 195 242 208
f 198 243 244
f 198 244 242
f 198 200 243
f 200 201 245
f 200 245 246
f 200 246 247
f 200 247 243
f 201 202 248
f 201 248 245
f 202 241 249
f 202 249 250
f 202 250 248
f 203 222 204
f 204 222 205
f 205 222 251
f 205 251 252
f 205 252 206
f 206 252 253
f 208 242 209
f 209 242 210
f 210 242 211
f 211 254 212
f 211 242 244
f 211 244 243
f 211 243 247
f 211 247 254
f 212 247 255
f 212 255 213
f 212 254 247
f 213 255 256
f 213 256 257
f 213 257 215
f 214 219 220
f 215 257 258
f 215 258 259
f 215 259 216
f 216 260 261
f 216 261 262
f 216 262 263
f 216 263 220
f 216 220 217
f 216 259 258
f 216 258 257
f 216 257 260
f 217 220 218
f 218 220 219
f 220 263 311
f 220 311 264
f 220 264 265
f 220 265 223
f 220 223 221
f 222 223 251
f 223 266 267
f 223 267 251
f 223 265 268
f 223 268 266
f 224 269 225
f 225 269 226
f 226 270 271
f 226 271 272
f 226 272 227
f 226 269 270
f 227 272 273
f 227 273 274
f 227 274 228
f 228 275 278
f 228 278 230
f 228 274 275
f 229 231 276
f 229 276 277
f 229 277 232
f 231 278 276
f 232 277 279
f 232 279 280
f 234 280 281
f 234 281 235
f 235 281 237
f 237 281 282
f 237 282 283
f 237 283 284
f 237 284 238
f 238 284 285
f 238 285 286
f 238 286 239
f 239 286 287
f 239 287 288
f 239 288 289
f 239 289 290
f 239 290 240
f 240 290 241
f 241 290 291
f 241 291 292
f 241 292 249
f 245 248 293
f 245 293 246
f 246 255 247
f 246 293 294
f 246 294 295
f 246 295 255
f 248 250 293
f 249 292 250
f 250 296 293
f 250 292 297
f 250 297 296
f 251 267 298
f 251 298 299
f 251 299 300
f 251 300 252
f 252 300 301
f 252 301 253
f 255 295 256
f 256 302 257
f 256 295 303
f 256 303 304
f 256 304 302
f 257 302 305
f 257 305 306
f 257 306 307
f 257 307 308
f 257 308 260
f 260 308 261
f 261 308 307
f 261 307 309
f 261 309 310
f 261 310 311
f 261 311 262
f 262 311 263
f 264 311 312
f 264 312 268
f 264 268 265
f 266 298 267
f 266 268 298
f 268 312 313
f 268 313 298
f 272 314 315
f 272 315 273
f 273 315 316
f 273 316 317
f 273 317 274
f 274 317 285
f 274 285 283
f 274 283 318
f 274 318 275
f 275 318 279
f 275 279 276
f 275 276 278
f 276 279 277
f 279 318 319
f 279 319 280
f 280 319 281
f 281 319 282
f 282 319 318
f 282 318 283
f 283 285 284
f 285 317 320
f 285 320 321
f 285 321 286
f 286 321 287
f 287 321 322
f 287 322 289
f 287 289 288
f 289 322 290
f 290 322 291
f 291 322 323
f 291 323 292
f 292 323 324
f 292 324 297
f 293 296 325
f 293 325 294
f 294 325 326
f 294 326 295
f 295 326 303
f 296 297 325
f 297 324 327
f 297 327 328
f 297 328 329
f 297 329 325
f 298 330 301
f 298 301 299
f 298 313 331
f 298 331 330
f 299 301 300
f 301 330 331
f 301 331 332
f 302 304 305
f 303 326 333
f 303 333 304
f 304 333 334
f 304 334 305
f 305 335 306
f 305 334 336
f 305 336 335
f 306 335 337
f 306 337 338
f 306 338 309
f 306 309 307
f 309 338 339
f 309 339 310
f 310 339 340
f 310 340 341
f 310 341 342
f 310 342 343
f 310 343 312
f 310 312 311
f 312 343 344
f 312 344 313
f 313 344 345
f 313 345 331
f 314 346 316
f 314 316 315
f 316 320 317
f 316 346 320
f 320 346 321
f 321 346 347
f 321 347 348
f 321 348 349
f 321 349 322
f 322 350 351
f 322 351 352
f 322 352 323
f 322 349 353
f 322 353 350
f 323 352 354
f 323 354 327
f 323 327 324
f 325 329 326
f 326 329 328
f 326 328 355
f 326 355 333
f 327 354 328
f 328 354 356
f 328 356 357
f 328 357 333
f 328 333 355
f 331 345 332
f 332 345 358
f 333 357 359
f 333 359 334
f 334 359 360
f 334 360 336
f 335 336 361
f 335 361 362
f 335 362 363
f 335 363 364
f 335 364 365
f 335 365 337
f 336 360 366
f 336 366 361
f 337 365 338
f 338 367 368
f 338 368 369
f 338 369 339
f 338 365 367
f 339 369 340
f 340 370 371
f 340 371 372
f 340 372 341
f 340 369 370
f 341 372 373
f 341 373 342
f 342 373 344
f 342 344 343
f 344 373 374
f 344 374 345
f 345 374 358
f 346 375 347
f 347 375 348
f 348 375 376
f 348 376 349
f 349 376 377
f 349 377 353
f 350 378 351
f 350 353 377
f 350 377 378
f 351 378 379
f 351 379 380
f 351 380 381
f 351 381 352
f 352 381 382
f 352 382 356
f 352 356 354
f 356 383 357
f 356 382 383
f 357 383 359
f 358 374 384
f 359 383 360
f 360 385 366
f 360 383 386
f 360 386 385
f 361 387 362
f 362 387 388
f 362 388 363
f 363 388 389
f 363 389 364
f 364 389 365
f 365 389 367
f 366 385 390
f 367 389 391
f 367 391 392
f 367 392 368
f 368 393 394
f 368 394 370
f 368 370 369
f 368 392 393
f 370 394 395
f 370 395 396
f 370 396 397
f 370 397 398
f 370 398 399
f 370 399 371
f 371 399 400
f 371 400 372
f 372 400 373
f 373 400 374
f 374 400 401
f 374 401 402
f 374 402 403
f 374 403 384
f 375 377 376
f 377 404 405
f 377 405 381
f 377 381 380
f 377 380 379
f 377 379 378
f 381 405 386
f 381 386 382
f 382 386 383
f 384 403 402
f 384 402 406
f 384 406 407
f 385 386 408
f 385 408 390
f 386 405 404
f 386 404 408
f 387 409 410
f 387 410 411
f 387 411 412
f 387 412 388
f 388 412 391
f 388 391 389
f 391 412 392
f 392 412 413
f 392 413 394
f 392 394 393
f 394 414 395
f 394 413 415
f 394 415 416
f 394 416 417
f 394 417 414
f 395 418 419
f 395 419 396
f 395 414 418
f 396 419 397
f 397 420 398
f 397 419 421
f 397 421 420
f 398 420 406
f 398 406 422
f 398 422 399
f 399 422 400
f 400 422 401
f 401 422 402
f 402 422 406
f 406 420 423
f 406 423 407
f 407 423 424
f 409 425 410
f 410 425 426
f 410 426 415
f 410 415 412
f 410 412 411
f 412 415 413
f 414 427 428
f 414 428 418
f 414 417 430
f 414 430 427
f 415 426 417
f 415 417 416
f 417 429 430
f 417 426 431
f 417 431 429
f 418 428 432
f 418 432 433
f 418 433 419
f 419 433 421
f 420 434 435
f 420 435 423
f 420 421 434
f 421 433 434
f 423 435 436
f 423 436 437
f 423 437 424
f 425 431 426
f 427 438 428
f 428 438 432
f 432 438 433
f 433 438 434
f 434 438 436
f 434 436 435

o geometry_1
v 0.13173566 -0.00203944 -0.02355912
v 0.13104523 -0.00563929 -0.01926554
v 0.13104523 -0.00563929 -0.02355912
v 0.13171996 -0.00203944 -0.03643988
v 0.13079415 0.00155617 -0.07506341
v 0.13082555 0.00155617 0.06654994
v 0.13168859 -0.00203944 0.00645848
v 0.13010374 -0.00800182 -0.01497195
v 0.13010374 -0.00801239 -0.01926554
v 0.13010374 -0.00801662 -0.02355912
v 0.13096677 -0.00563929 0.00645848
v 0.13007235 -0.00795529 0.00645848
v 0.13010374 -0.00800816 -0.02785271
v 0.13008805 -0.00800182 -0.03643988
v 0.13101386 -0.00563929 -0.03643988
v 0.13168859 -0.00203944 -0.04502705
v 0.13077847 0.00155617 -0.07935699
v 0.12974283 0.00340474 -0.07935699
v 0.12980560 0.00345550 0.07084352
v 0.12980560 0.00345973 0.07513711
v 0.12980560 0.00345550 0.07943070
v 0.13079415 0.00155617 0.07513711
v 0.13153167 -0.00203944 0.04078842
v 0.12749894 -0.00977847 -0.01926554
v 0.12749894 -0.00979116 -0.02355912
v 0.12749894 -0.00977847 -0.03643988
v 0.13065293 -0.00563929 0.04078842
v 0.12988405 -0.00774589 0.04078842
v 0.13000959 -0.00791510 0.01933924
v 0.12749894 -0.00966426 0.01075207
v 0.12749894 -0.00968118 0.00645848
v 0.12749894 -0.00976790 -0.04073347
v 0.13007235 -0.00798913 -0.04073347
v 0.13099816 -0.00563929 -0.04073347
v 0.13164150 -0.00203944 -0.05788906
v 0.13153167 -0.00203944 -0.07935699
v 0.13070002 0.00155617 -0.08365058
v 0.12969576 0.00338570 -0.08365058
v 0.13156305 -0.00203944 -0.07506341
v 0.12749894 0.00373469 -0.08365058
v 0.12749894 0.00375795 -0.07935699
v 0.12749894 0.00393562 0.07943070
v 0.13076279 0.00155617 0.07943070
v 0.12749894 0.00391235 0.08370553
v 0.12975853 0.00342800 0.08370553
v 0.13124921 -0.00203944 0.07084352
v 0.12392126 -0.01101367 -0.02785271
v 0.13120214 -0.00203944 0.07513711
v 0.13027634 -0.00563929 0.07084352
v 0.12968006 -0.00746671 0.07337468
v 0.12969576 -0.00749632 0.07084352
v 0.12749894 -0.00934065 0.04078842
v 0.12749894 -0.00957966 0.01933924
v 0.12749894 -0.00962407 0.01504565
v 0.12318376 -0.01063508 0.04078842
v 0.12385849 -0.01101156 -0.02355912
v 0.12371727 -0.01101579 -0.04073347
v 0.12749894 -0.00973617 -0.04502705
v 0.12994682 -0.00782627 -0.07506341
v 0.13005666 -0.00797009 -0.04502705
v 0.13079415 -0.00563929 -0.07506341
v 0.13076279 -0.00563929 -0.07935699
v 0.13137475 -0.00203944 -0.08365058
v 0.13024496 0.00166192 -0.08755043
v 0.12966436 0.00336243 -0.08584425
v 0.12760878 0.00363528 -0.08755043
v 0.12318376 0.00415135 -0.08792542
v 0.12318376 0.00418097 -0.08365058
v 0.12318376 0.00419577 -0.07935699
v 0.12318376 0.00442420 0.07943070
v 0.12318376 0.00442420 0.08370553
v 0.13066863 0.00155617 0.08370553
v 0.12318376 0.00437132 0.08799912
v 0.12767155 0.00374738 0.08773663
v 0.12969576 0.00338782 0.08612419
v 0.12177152 -0.01104963 -0.02785271
v 0.13011942 -0.00589733 0.07493087
v 0.13109231 -0.00203944 0.07943070
v 0.13013512 -0.00515705 0.07943070
v 0.12958591 -0.00727000 0.07624332
v 0.12698112 -0.00863845 0.08370553
v 0.12727926 -0.00879074 0.07943070
v 0.12789123 -0.00858981 0.07493087
v 0.12749894 -0.00892822 0.07084352
v 0.12318376 -0.01029878 0.07513711
v 0.11886858 -0.01062238 0.04078842
v 0.12318376 -0.01088888 0.01075207
v 0.11886858 -0.01031993 0.07513711
v 0.12142630 -0.01104328 -0.02082173
v 0.12169306 -0.01104751 -0.02355912
v 0.12155184 -0.01104328 -0.04073347
v 0.12139492 -0.01104328 -0.04352711
v 0.12318376 -0.01082966 -0.07506341
v 0.12318376 -0.01080428 -0.07935699
v 0.12749894 -0.00950140 -0.07506341
v 0.12749894 -0.00944641 -0.07935699
v 0.12991544 -0.00778820 -0.07935699
v 0.12978990 -0.00761053 -0.08365058
v 0.13051171 -0.00563929 -0.08365058
v 0.12997820 -0.00563929 -0.08674421
v 0.13049603 -0.00228479 -0.08826290
v 0.12997820 0.00053459 -0.09058781
v 0.12911517 0.00293308 -0.08871289
v 0.12624361 0.00358240 -0.09105655
v 0.12302684 0.00370085 -0.09238775
v 0.11886858 0.00399272 -0.09221900
v 0.11455340 0.00462301 -0.08792542
v 0.11886858 0.00442420 -0.08365058
v 0.11886858 0.00444535 -0.07935699
v 0.00025610 0.01055789 -0.00006627
v 0.11886858 0.00461244 0.08370553
v 0.00025610 0.01055789 0.00004623
v 0.13019787 0.00164923 0.08773663
v 0.12993112 0.00051133 0.09062401
v 0.13082555 -0.00203944 0.08370553
v 0.11886858 0.00454476 0.08799912
v 0.11455340 0.00427403 0.09229271
v 0.11886858 0.00407944 0.09229271
v 0.12302684 0.00378122 0.09248020
v 0.12635345 0.00365220 0.09118649
v 0.12922501 0.00290981 0.08899283
v 0.12029651 -0.01104963 -0.02785271
v 0.12944469 -0.00695697 0.07943070
v 0.12993112 -0.00452042 0.08370553
v 0.12318376 -0.01000056 0.08370553
v 0.12914655 -0.00632034 0.08370553
v 0.12625930 -0.00815833 0.08799912
v 0.12318376 -0.00933008 0.08799912
v 0.12318376 -0.01020572 0.07943070
v 0.11886858 -0.01026282 0.07943070
v 0.09727700 -0.01015072 0.08370553
v 0.09296182 -0.01013169 0.08370553
v 0.08864664 -0.01010631 0.08370553
v 0.11886858 -0.01085504 0.01075207
v 0.12065742 -0.01104328 -0.02082173
v 0.10159217 -0.01016342 0.08370553
v 0.12037497 -0.01104751 -0.02355912
v 0.12073587 -0.01104328 -0.04352711
v 0.11886858 -0.01083389 -0.07935699
v 0.11886858 -0.01079794 -0.08365058
v 0.12318376 -0.01070910 -0.08365058
v 0.12749894 -0.00919472 -0.08365058
v 0.12966436 -0.00745190 -0.08580675
v 0.12957022 -0.00364690 -0.08989409
v 0.12997820 -0.00124841 -0.09058781
v 0.12572579 0.00049863 -0.09458141
v 0.12742048 0.00171691 -0.09225650
v 0.12436063 0.00289712 -0.09392519
v 0.12148907 0.00341320 -0.09445017
v 0.11455340 0.00422327 -0.09221900
v 0.11022253 0.00483452 -0.08792542
v 0.11455340 0.00464417 -0.08365058
v 0.00011488 0.01055789 -0.00006627
v 0.10590735 0.00498681 -0.08792542
v 0.08864664 0.00556422 -0.08792542
v 0.08433146 0.00567843 -0.08792542
v 0.02608440 0.00695382 -0.09008159
v -0.02856929 0.00808749 -0.08792542
v 0.00011488 0.01055789 0.00004623
v -0.02856929 0.00807269 0.08799912
v 0.08001628 0.00571016 0.08799912
v 0.08433146 0.00561287 0.08799912
v 0.11022253 0.00485356 0.08799912
v 0.11455340 0.00470973 0.08799912
v 0.12993112 -0.00076617 0.09062401
v 0.12749894 0.00170211 0.09233020
v 0.12577287 0.00049440 0.09467386
v 0.13021357 -0.00199503 0.08771788
v 0.11022253 0.00443689 0.09229271
v 0.11886858 0.00350837 0.09463637
v 0.12147338 0.00341743 0.09452387
v 0.12436063 0.00289289 0.09403639
v 0.11814677 -0.01101367 -0.02785271
v 0.11820954 -0.01101156 -0.02355912
v 0.12972713 -0.00402126 0.08610544
v 0.11886858 -0.00982077 0.08799912
v 0.11886858 -0.01016976 0.08370553
v 0.12839335 -0.00538760 0.08771788
v 0.12560026 -0.00766552 0.09043653
v 0.12318376 -0.00811392 0.09105525
v 0.11886858 -0.00848194 0.09156148
v 0.11455340 -0.01017399 0.08370553
v 0.09727700 -0.00990326 0.08799912
v 0.09296182 -0.00988423 0.08799912
v 0.08864664 -0.00986308 0.08799912
v 0.08433146 -0.00983135 0.08799912
v 0.08433146 -0.01006824 0.08370553
v 0.08864664 -0.01013592 0.07943070
v 0.06707075 -0.00985250 0.08370553
v 0.05410952 -0.00965157 0.08370553
v 0.10159217 -0.00991384 0.08799912
v 0.11846060 -0.01100521 -0.04073347
v 0.10159217 -0.01053990 -0.08365058
v 0.10590735 -0.01061181 -0.08365058
v 0.11455340 -0.01077255 -0.07935699
v 0.11455340 -0.01074717 -0.08365058
v 0.10159217 -0.01028820 -0.08792542
v 0.10590735 -0.01033685 -0.08792542
v 0.11022253 -0.01036646 -0.08792542
v 0.11455340 -0.01039396 -0.08792542
v 0.11886858 -0.01038973 -0.08792542
v 0.12318376 -0.01004709 -0.08792542
v 0.12743617 -0.00835715 -0.08751293
v 0.12596116 -0.00794260 -0.09064407
v 0.12898963 -0.00563929 -0.08888163
v 0.12682420 -0.00563929 -0.09139403
v 0.12765586 -0.00225307 -0.09235025
v 0.12572579 -0.00085924 -0.09458141
v 0.11886858 0.00155617 -0.09516264
v 0.12302684 0.00164077 -0.09478765
v 0.11886858 0.00349357 -0.09454391
v 0.11022253 0.00442420 -0.09221900
v -0.02856929 0.00815306 -0.07506341
v -0.02856929 0.00815941 -0.07076982
v 0.09296182 0.00503122 -0.09221900
v 0.08864664 0.00517293 -0.09221900
v 0.01527292 0.00707861 -0.09107530
v 0.01095774 0.00712725 -0.09141279
v -0.02856929 0.00777235 -0.09156278
v -0.02856929 0.00815941 -0.07009485
v -0.02856929 0.00812768 0.07579333
v -0.02856929 0.00812133 0.07943070
v -0.02856929 0.00811922 0.08008692
v -0.02856929 0.00810653 0.08370553
v -0.02856929 0.00810230 0.08438051
v -0.02856929 0.00761795 0.09229271
v 0.08433146 0.00511583 0.09229271
v 0.08864664 0.00501430 0.09229271
v 0.10590735 0.00455956 0.09229271
v 0.12577287 -0.00075560 0.09467386
v 0.12748324 -0.00196119 0.09231145
v 0.12302684 0.00163866 0.09486135
v 0.11886858 0.00155617 0.09527384
v 0.11455340 0.00361836 0.09474886
v 0.06273988 -0.00995402 0.01075207
v 0.06273988 -0.00994979 0.00645848
v 0.04981004 -0.00957754 0.08370553
v 0.06273988 -0.00994979 0.01504565
v 0.11455340 -0.00987154 0.08799912
v 0.11455340 -0.00852847 0.09161773
v 0.11022253 -0.00988846 0.08799912
v 0.10590735 -0.00990326 0.08799912
v 0.12398403 -0.00315408 0.09401764
v 0.12279147 -0.00530934 0.09319267
v 0.11886858 -0.00575139 0.09369890
v 0.11455340 -0.00583599 0.09375515
v 0.11022253 -0.00591425 0.09379265
v 0.08864664 -0.00854116 0.09167398
v 0.08433146 -0.00852847 0.09165523
v 0.08001628 -0.00850732 0.09163648
v 0.06707075 -0.00845021 0.09156148
v 0.07138593 -0.00970445 0.08799912
v 0.06707075 -0.00966003 0.08799912
v 0.06273988 -0.00959446 0.08799912
v 0.05410952 -0.00946333 0.08799912
v 0.10159217 -0.00856443 0.09167398
v 0.09727700 -0.00856020 0.09167398
v 0.09296182 -0.00855173 0.09167398
v 0.05842470 -0.00986096 0.00645848
v 0.09727700 -0.01044472 -0.08365058
v 0.09727700 -0.01019514 -0.08792542
v -0.02856929 -0.00802720 0.01504565
v -0.02856929 -0.00802508 0.01437068
v -0.00851548 -0.00743921 -0.09008159
v 0.00232738 -0.00755131 -0.09032532
v 0.00664256 -0.00759572 -0.09041907
v 0.02823414 -0.00781569 -0.09081280
v 0.08433146 -0.00851578 -0.09150653
v 0.09727700 -0.00869556 -0.09161903
v 0.10159217 -0.00873786 -0.09163778
v 0.10590735 -0.00875267 -0.09165652
v 0.11022253 -0.00875478 -0.09165652
v 0.11455340 -0.00874844 -0.09165652
v 0.11886858 -0.00872517 -0.09163778
v 0.12318376 -0.00845233 -0.09128154
v 0.12291700 -0.00536856 -0.09347521
v 0.12418802 -0.00325772 -0.09413143
v 0.12291700 -0.00205002 -0.09478765
v 0.11886858 -0.00203944 -0.09508765
v 0.11455340 0.00155617 -0.09525638
v 0.11022253 0.00367969 -0.09475016
v 0.11455340 0.00359509 -0.09465641
v -0.00198779 0.00690306 -0.09424393
v -0.00467105 0.00694113 -0.09433767
v -0.02856929 0.00771524 -0.09221900
v -0.02856929 0.00707226 0.09459887
v -0.02787887 0.00706380 0.09458011
v -0.02356369 0.00699612 0.09450512
v -0.02120995 0.00696016 0.09444887
v 0.11022253 0.00370085 0.09484261
v 0.11886858 -0.00203944 0.09512385
v 0.12279147 -0.00198868 0.09482386
v 0.12109678 -0.00388801 0.09446762
v 0.11455340 0.00155617 0.09540509
v -0.01061815 -0.00848617 0.07943070
v 0.05842470 -0.00986731 0.01075207
v -0.00630297 -0.00836138 0.08799912
v -0.01061815 -0.00847136 0.08370553
v 0.10590735 -0.00855596 0.09165523
v 0.10590735 -0.00596924 0.09381139
v 0.10159217 -0.00599885 0.09383015
v 0.11886858 -0.00395146 0.09448637
v 0.11022253 -0.00411433 0.09454262
v 0.08864664 -0.00602846 0.09383015
v 0.08433146 -0.00600731 0.09381139
v 0.07570111 -0.00598404 0.09375515
v 0.06707075 -0.00592482 0.09369890
v 0.06273988 -0.00841849 0.09152399
v -0.00198779 -0.00786011 0.09084901
v -0.00630297 -0.00781992 0.09079276
v 0.05410952 -0.00835292 0.09144899
v -0.01061815 -0.00777127 0.09071776
v 0.09727700 -0.00601577 0.09383015
v 0.09296182 -0.00602846 0.09383015
v -0.02856929 -0.00803566 0.01866427
v -0.02856929 -0.00790664 -0.01067836
v -0.02856929 -0.00790241 -0.01135334
v -0.02856929 -0.00787914 -0.01497195
v 0.08864664 -0.01023321 -0.08365058
v -0.02856929 -0.00801028 0.01075207
v -0.02856929 -0.00798701 0.00578351
v -0.01022586 -0.00752804 -0.08803791
v -0.01140273 -0.00740114 -0.08953785
v -0.02856929 -0.00691890 -0.08792542
v -0.02856929 -0.00667144 -0.08860039
v -0.02856929 -0.00529876 -0.09220026
v -0.02856929 -0.00506399 -0.09253774
v -0.02856929 -0.00376322 -0.09435642
v -0.02157086 -0.00384148 -0.09437517
v 0.10159217 -0.00595655 -0.09379394
v 0.11455340 -0.00593540 -0.09381269
v 0.11886858 -0.00589733 -0.09379394
v 0.12131647 -0.00398954 -0.09443142
v 0.08433146 -0.00203944 -0.09505014
v 0.06273988 0.00155617 -0.09572512
v 0.08001628 0.00155617 -0.09570637
v 0.08864664 0.00155617 -0.09565012
v 0.09296182 0.00155617 -0.09559388
v 0.11022253 0.00155617 -0.09533138
v 0.11886858 -0.00409740 -0.09446892
v 0.11022253 -0.00414817 -0.09448766
v 0.10590735 -0.00415663 -0.09448766
v 0.10159217 -0.00415663 -0.09448766
v 0.09296182 0.00399907 -0.09501265
v -0.00754261 0.00696228 -0.09437517
v -0.02787887 0.00713994 -0.09460017
v -0.02856929 0.00714840 -0.09460017
v -0.02856929 0.00724570 -0.09422518
v 0.08864664 0.00406675 -0.09505014
v -0.02856929 0.00515601 0.09544258
v 0.08433146 0.00400965 0.09510510
v 0.08864664 0.00397157 0.09506760
v 0.10590735 0.00376430 0.09489886
v 0.10590735 0.00155617 0.09555508
v 0.11455340 -0.00203944 0.09518010
v -0.01493333 -0.00839522 0.07943070
v -0.01493333 -0.00839310 0.07513711
v -0.02856929 -0.00806315 0.04013220
v -0.01061815 -0.00827889 0.08799912
v -0.01493333 -0.00836138 0.08370553
v 0.10590735 -0.00416932 0.09456137
v 0.10159217 -0.00420104 0.09458011
v 0.04117968 -0.00392820 0.09448637
v 0.08864664 -0.00422854 0.09458011
v 0.07570111 -0.00418412 0.09458011
v 0.06707075 -0.00412490 0.09456137
v -0.02856929 -0.00324926 0.09428013
v 0.00232738 -0.00563929 0.09294893
v -0.01061815 -0.00563929 0.09272394
v -0.01493333 -0.00768033 0.09056777
v -0.01493333 -0.00563929 0.09257395
v -0.02856929 -0.00556949 0.09214271
v 0.09727700 -0.00421796 0.09458011
v 0.09296182 -0.00422854 0.09458011
v -0.02856929 -0.00765283 -0.04073347
v -0.00630297 -0.00778397 -0.08365058
v -0.01416445 -0.00749209 -0.08666922
v -0.02856929 -0.00711560 -0.08365058
v -0.02856929 -0.00348192 -0.09441267
v -0.02856929 -0.00141550 -0.09482515
v -0.02856929 0.00155617 -0.09538763
v -0.02856929 0.00212089 -0.09538763
v -0.02856929 0.00515601 -0.09527514
v -0.02787887 0.00515601 -0.09527514
v 0.06273988 0.00430152 -0.09516264
v 0.07138593 0.00422538 -0.09514389
v 0.07570111 0.00418731 -0.09512514
v 0.08001628 0.00414712 -0.09510639
v -0.02856929 0.00547539 -0.09518139
v -0.02856929 0.00155617 0.09557383
v 0.07138593 0.00155617 0.09581757
v 0.08433146 0.00155617 0.09579882
v 0.08864664 0.00155617 0.09578007
v 0.08864664 -0.00203944 0.09529259
v -0.02787887 -0.00804623 0.07943070
v -0.02787887 -0.00807584 0.07513711
v -0.02856929 -0.00806104 0.07446213
v -0.02787887 -0.00809065 0.07084352
v -0.02787887 -0.00809488 0.06654994
v -0.02856929 -0.00806738 0.04440703
v -0.02538391 -0.00742229 0.09004279
v -0.02787887 -0.00738210 0.08976155
v -0.01493333 -0.00812661 0.08799912
v -0.02856929 -0.00792990 0.08370553
v -0.02787887 -0.00795317 0.08370553
v -0.02856929 -0.00794683 0.08304931
v -0.02856929 -0.00802720 0.07943070
v 0.07138593 -0.00203944 0.09523634
v 0.07570111 -0.00203944 0.09525509
v -0.02251235 -0.00748151 0.09023028
v -0.02856929 -0.00736941 0.08966781
v -0.02856929 -0.00760418 -0.04502705
v -0.01061815 -0.00766975 -0.08365058
v -0.01705169 -0.00743709 -0.08545051
v -0.02856929 -0.00717483 -0.07935699
v -0.02856929 -0.00805681 0.07513711
v -0.02856929 -0.00807373 0.07016855
v -0.02856929 -0.00807796 0.06654994
v -0.02856929 -0.00807796 0.06587497
v -0.02856929 -0.00741383 0.08933032
v -0.02856929 -0.00764649 0.08753038
f 439 440 441
f 439 441 442
f 439 442 443
f 439 443 444
f 439 444 445
f 439 445 440
f 440 446 447
f 440 447 448
f 440 448 441
f 440 445 449
f 440 449 450
f 440 450 446
f 441 448 451
f 441 451 452
f 441 452 453
f 441 453 442
f 442 453 472
f 442 472 454
f 442 454 455
f 442 455 443
f 443 455 456
f 443 456 457
f 443 457 458
f 443 458 444
f 444 458 459
f 444 459 460
f 444 460 445
f 445 460 461
f 445 461 449
f 446 462 463
f 446 463 447
f 446 450 462
f 447 463 448
f 448 463 464
f 448 464 451
f 449 461 465
f 449 465 466
f 449 466 467
f 449 467 450
f 450 467 468
f 450 468 469
f 450 469 462
f 451 464 452
f 452 464 470
f 452 470 471
f 452 471 472
f 452 472 453
f 454 472 473
f 454 473 455
f 455 474 475
f 455 475 476
f 455 476 456
f 455 473 477
f 455 477 474
f 456 476 478
f 456 478 479
f 456 479 480
f 456 480 458
f 456 458 457
f 458 480 459
f 459 481 460
f 459 480 482
f 459 482 483
f 459 483 481
f 460 481 461
f 461 481 484
f 461 484 465
f 462 485 463
f 462 469 485
f 463 485 464
f 464 485 470
f 465 484 486
f 465 486 487
f 465 487 488
f 465 488 489
f 465 489 466
f 466 490 467
f 466 489 490
f 467 491 492
f 467 492 468
f 467 490 491
f 468 492 493
f 468 493 494
f 468 494 485
f 468 485 469
f 470 495 496
f 470 496 497
f 470 497 498
f 470 498 471
f 470 485 495
f 471 498 472
f 472 498 497
f 472 497 499
f 472 499 477
f 472 477 473
f 474 500 501
f 474 501 475
f 474 477 499
f 474 499 500
f 475 501 502
f 475 502 503
f 475 503 476
f 476 503 478
f 478 503 504
f 478 504 505
f 478 505 506
f 478 506 479
f 479 506 507
f 479 507 508
f 479 508 480
f 480 508 509
f 480 509 482
f 481 483 510
f 481 510 486
f 481 486 484
f 482 509 511
f 482 511 512
f 482 512 513
f 482 513 483
f 483 513 510
f 485 494 514
f 485 514 495
f 486 515 487
f 486 510 516
f 486 516 515
f 487 515 488
f 488 515 517
f 488 517 518
f 488 518 519
f 488 519 520
f 488 520 521
f 488 521 522
f 488 522 489
f 489 522 490
f 490 522 523
f 490 523 491
f 491 523 492
f 492 523 493
f 493 524 525
f 493 525 494
f 493 523 526
f 493 526 524
f 494 527 528
f 494 528 514
f 494 525 527
f 495 514 529
f 495 529 530
f 495 530 531
f 495 531 532
f 495 532 533
f 495 533 496
f 496 533 497
f 497 533 534
f 497 534 535
f 497 535 500
f 497 500 499
f 500 535 536
f 500 536 537
f 500 537 501
f 501 537 538
f 501 538 539
f 501 539 540
f 501 540 502
f 502 540 541
f 502 541 503
f 503 541 542
f 503 542 504
f 504 542 505
f 505 542 543
f 505 543 544
f 505 544 545
f 505 545 546
f 505 546 506
f 506 546 547
f 506 547 507
f 507 547 508
f 508 548 550
f 508 550 509
f 508 547 548
f 509 549 511
f 509 550 549
f 510 513 551
f 510 551 552
f 510 552 553
f 510 553 516
f 511 554 555
f 511 555 556
f 511 556 557
f 511 557 558
f 511 558 512
f 511 549 554
f 512 558 513
f 513 558 559
f 513 559 551
f 514 560 576
f 514 576 530
f 514 530 529
f 514 528 575
f 514 575 560
f 515 516 517
f 516 553 517
f 517 561 518
f 517 553 562
f 517 562 561
f 518 561 519
f 519 563 520
f 519 561 564
f 519 564 565
f 519 565 566
f 519 566 563
f 520 563 567
f 520 567 522
f 520 522 521
f 522 567 523
f 523 567 568
f 523 568 526
f 524 526 569
f 524 569 570
f 524 570 525
f 525 570 571
f 525 571 572
f 525 572 573
f 525 573 527
f 526 568 574
f 526 574 569
f 527 573 575
f 527 575 528
f 530 576 577
f 530 577 532
f 530 532 531
f 532 577 578
f 532 578 579
f 532 579 534
f 532 534 533
f 534 579 580
f 534 580 535
f 535 580 536
f 536 580 581
f 536 581 537
f 537 581 538
f 538 581 582
f 538 582 539
f 539 582 583
f 539 583 540
f 540 583 646
f 540 646 584
f 540 584 585
f 540 585 541
f 541 585 542
f 542 585 586
f 542 586 587
f 542 587 543
f 543 587 544
f 544 587 588
f 544 588 545
f 545 589 590
f 545 590 546
f 545 588 589
f 546 590 547
f 547 590 548
f 548 591 597
f 548 597 550
f 548 590 589
f 548 589 592
f 548 592 593
f 548 593 594
f 548 594 595
f 548 595 596
f 548 596 591
f 549 550 554
f 550 597 598
f 550 598 599
f 550 599 600
f 550 600 601
f 550 601 602
f 550 602 554
f 551 559 552
f 552 603 553
f 552 559 604
f 552 604 605
f 552 605 668
f 552 668 603
f 553 606 562
f 553 603 606
f 554 602 555
f 555 607 608
f 555 608 556
f 555 602 607
f 556 608 609
f 556 609 557
f 557 609 558
f 558 609 610
f 558 610 604
f 558 604 559
f 560 611 576
f 560 575 612
f 560 612 611
f 561 562 564
f 562 606 613
f 562 613 564
f 563 566 614
f 563 614 615
f 563 615 567
f 564 613 616
f 564 616 565
f 565 617 566
f 565 616 617
f 566 617 618
f 566 618 619
f 566 619 614
f 567 615 568
f 568 615 620
f 568 620 574
f 569 574 621
f 569 621 622
f 569 622 570
f 570 622 623
f 570 623 571
f 571 623 624
f 571 624 625
f 571 625 626
f 571 626 572
f 572 626 625
f 572 625 573
f 573 625 627
f 573 627 628
f 573 628 575
f 574 620 629
f 574 629 621
f 575 628 612
f 576 611 630
f 576 630 631
f 576 631 632
f 576 632 633
f 576 633 577
f 577 633 634
f 577 634 578
f 578 634 635
f 578 635 636
f 578 636 637
f 578 637 638
f 578 638 639
f 578 639 579
f 579 639 640
f 579 640 580
f 580 640 641
f 580 641 581
f 581 641 642
f 581 642 643
f 581 643 582
f 582 643 642
f 582 642 644
f 582 644 645
f 582 645 583
f 583 645 646
f 584 646 647
f 584 647 648
f 584 648 587
f 584 587 586
f 584 586 585
f 587 648 647
f 587 647 649
f 587 649 650
f 587 650 588
f 588 650 589
f 589 650 592
f 591 596 651
f 591 651 652
f 591 652 658
f 591 658 597
f 592 650 653
f 592 653 593
f 593 653 654
f 593 654 594
f 594 654 595
f 595 654 655
f 595 655 596
f 596 655 656
f 596 656 657
f 596 657 723
f 596 723 786
f 596 786 785
f 596 785 827
f 596 827 821
f 596 821 820
f 596 820 819
f 596 819 818
f 596 818 817
f 596 817 766
f 596 766 765
f 596 765 764
f 596 764 763
f 596 763 762
f 596 762 816
f 596 816 853
f 596 853 850
f 596 850 813
f 596 813 756
f 596 756 755
f 596 755 754
f 596 754 759
f 596 759 758
f 596 758 701
f 596 701 700
f 596 700 753
f 596 753 796
f 596 796 838
f 596 838 857
f 596 857 856
f 596 856 855
f 596 855 835
f 596 835 854
f 596 854 845
f 596 845 844
f 596 844 842
f 596 842 859
f 596 859 858
f 596 858 849
f 596 849 810
f 596 810 805
f 596 805 828
f 596 828 788
f 596 788 724
f 596 724 664
f 596 664 598
f 596 598 663
f 596 663 662
f 596 662 661
f 596 661 660
f 596 660 659
f 596 659 658
f 596 658 652
f 596 652 651
f 597 658 659
f 597 659 660
f 597 660 661
f 597 661 662
f 597 662 663
f 597 663 598
f 598 664 599
f 599 664 665
f 599 665 600
f 600 665 666
f 600 666 667
f 600 667 607
f 600 607 601
f 601 607 602
f 603 617 616
f 603 616 613
f 603 613 606
f 603 668 669
f 603 669 617
f 604 610 605
f 605 610 609
f 605 609 670
f 605 670 671
f 605 671 668
f 607 667 672
f 607 672 608
f 608 672 671
f 608 671 609
f 609 671 670
f 611 612 673
f 611 673 674
f 611 674 630
f 612 628 675
f 612 675 676
f 612 676 673
f 614 677 615
f 614 619 678
f 614 678 677
f 615 677 679
f 615 679 680
f 615 680 629
f 615 629 620
f 617 669 668
f 617 668 681
f 617 681 682
f 617 682 618
f 618 682 683
f 618 683 619
f 619 683 684
f 619 684 685
f 619 685 678
f 621 629 696
f 621 696 686
f 621 686 622
f 622 686 687
f 622 687 623
f 623 687 688
f 623 688 689
f 623 689 624
f 624 690 625
f 624 689 690
f 625 690 691
f 625 691 627
f 627 691 692
f 627 692 693
f 627 693 628
f 628 693 675
f 629 680 694
f 629 694 695
f 629 695 696
f 630 674 697
f 630 697 631
f 631 698 699
f 631 699 635
f 631 635 632
f 631 697 700
f 631 700 701
f 631 701 698
f 632 635 634
f 632 634 633
f 635 699 702
f 635 702 703
f 635 703 704
f 635 704 705
f 635 705 706
f 635 706 707
f 635 707 708
f 635 708 636
f 636 708 637
f 637 708 638
f 638 708 709
f 638 709 710
f 638 710 639
f 639 710 711
f 639 711 712
f 639 712 640
f 640 712 713
f 640 713 642
f 640 642 641
f 642 713 714
f 642 714 715
f 642 715 646
f 642 646 644
f 644 646 645
f 646 716 647
f 646 715 716
f 647 717 718
f 647 718 719
f 647 719 720
f 647 720 649
f 647 716 717
f 649 720 654
f 649 654 653
f 649 653 650
f 654 721 656
f 654 656 655
f 654 720 719
f 654 719 721
f 656 721 722
f 656 722 723
f 656 723 657
f 664 724 725
f 664 725 726
f 664 726 727
f 664 727 665
f 665 727 666
f 666 727 728
f 666 728 672
f 666 672 667
f 668 671 729
f 668 729 730
f 668 730 731
f 668 731 681
f 671 732 729
f 671 672 732
f 672 728 732
f 673 676 733
f 673 733 734
f 673 734 674
f 674 734 697
f 675 693 735
f 675 735 736
f 675 736 733
f 675 733 676
f 677 678 737
f 677 737 679
f 678 685 738
f 678 738 739
f 678 739 737
f 679 737 694
f 679 694 680
f 681 731 682
f 682 731 683
f 683 731 684
f 684 731 740
f 684 740 685
f 685 740 741
f 685 741 799
f 685 799 738
f 686 696 742
f 686 742 687
f 687 742 743
f 687 743 688
f 688 743 744
f 688 744 689
f 689 744 745
f 689 745 746
f 689 746 690
f 690 746 691
f 691 747 748
f 691 748 692
f 691 746 749
f 691 749 747
f 692 748 693
f 693 748 750
f 693 750 735
f 694 737 739
f 694 739 751
f 694 751 752
f 694 752 742
f 694 742 695
f 695 742 696
f 697 734 753
f 697 753 700
f 698 754 755
f 698 755 756
f 698 756 757
f 698 757 699
f 698 701 758
f 698 758 759
f 698 759 754
f 699 760 702
f 699 757 760
f 702 760 761
f 702 761 762
f 702 762 763
f 702 763 764
f 702 764 765
f 702 765 766
f 702 766 703
f 703 766 704
f 704 766 705
f 705 766 706
f 706 766 707
f 707 766 708
f 708 766 767
f 708 767 768
f 708 768 709
f 709 768 710
f 710 768 769
f 710 769 711
f 711 769 712
f 712 769 770
f 712 770 713
f 713 770 714
f 714 770 771
f 714 771 715
f 715 771 716
f 716 771 717
f 717 772 773
f 717 773 774
f 717 774 775
f 717 775 776
f 717 776 777
f 717 777 718
f 717 771 778
f 717 778 779
f 717 779 780
f 717 780 781
f 717 781 772
f 718 777 782
f 718 782 719
f 719 782 722
f 719 722 721
f 722 783 784
f 722 784 785
f 722 785 786
f 722 786 723
f 722 782 787
f 722 787 783
f 724 788 789
f 724 789 790
f 724 790 791
f 724 791 728
f 724 728 726
f 724 726 725
f 726 728 727
f 728 791 732
f 729 732 792
f 729 792 831
f 729 831 793
f 729 793 740
f 729 740 731
f 729 731 730
f 732 791 792
f 733 736 794
f 733 794 795
f 733 795 734
f 734 796 753
f 734 795 796
f 735 750 797
f 735 797 736
f 736 797 798
f 736 798 794
f 738 799 800
f 738 800 739
f 739 800 811
f 739 811 751
f 740 793 741
f 741 793 799
f 742 801 743
f 742 752 812
f 742 812 802
f 742 802 803
f 742 803 804
f 742 804 801
f 743 801 805
f 743 805 744
f 744 805 745
f 745 805 806
f 745 806 749
f 745 749 746
f 747 749 807
f 747 807 748
f 748 807 750
f 749 806 807
f 750 808 797
f 750 807 809
f 750 809 810
f 750 810 808
f 751 811 752
f 752 811 812
f 756 813 757
f 757 814 815
f 757 815 760
f 757 813 814
f 760 815 761
f 761 815 762
f 762 815 816
f 766 817 767
f 767 817 818
f 767 818 773
f 767 773 772
f 767 772 781
f 767 781 768
f 768 781 769
f 769 781 780
f 769 780 779
f 769 779 778
f 769 778 770
f 770 778 771
f 773 818 819
f 773 819 820
f 773 820 821
f 773 821 822
f 773 822 774
f 774 822 823
f 774 823 824
f 774 824 825
f 774 825 826
f 774 826 775
f 775 826 787
f 775 787 782
f 775 782 776
f 776 782 777
f 783 787 784
f 784 787 826
f 784 826 825
f 784 825 824
f 784 824 823
f 784 823 827
f 784 827 785
f 788 828 829
f 788 829 830
f 788 830 831
f 788 831 789
f 789 831 790
f 790 831 792
f 790 792 791
f 793 831 830
f 793 830 832
f 793 832 800
f 793 800 799
f 794 798 833
f 794 833 834
f 794 834 835
f 794 835 836
f 794 836 837
f 794 837 795
f 795 837 838
f 795 838 796
f 797 808 839
f 797 839 840
f 797 840 841
f 797 841 842
f 797 842 843
f 797 843 798
f 798 843 844
f 798 844 845
f 798 845 833
f 800 832 811
f 801 804 846
f 801 846 805
f 802 812 832
f 802 832 803
f 803 832 847
f 803 847 804
f 804 847 846
f 805 810 809
f 805 809 807
f 805 807 806
f 805 846 828
f 808 848 839
f 808 810 848
f 810 849 840
f 810 840 839
f 810 839 848
f 811 832 812
f 813 850 851
f 813 851 814
f 814 851 815
f 815 852 816
f 815 851 852
f 816 852 851
f 816 851 853
f 821 827 822
f 822 827 823
f 828 846 847
f 828 847 832
f 828 832 829
f 829 832 830
f 833 845 854
f 833 854 834
f 834 854 835
f 835 855 836
f 836 855 856
f 836 856 837
f 837 856 857
f 837 857 838
f 840 849 841
f 841 849 858
f 841 858 859
f 841 859 842
f 842 844 843
f 850 853 851

