# https://github.com/mikedh/trimesh

o geometry_0
v -0.08674625 0.00461323 -0.07268938
v -0.08674625 -0.00061836 -0.07240471
v -0.08866547 -0.00015930 -0.07234778
v -0.08904178 0.00461323 -0.07246164
v -0.08898534 0.00691064 -0.07243318
v -0.08704731 0.00764683 -0.07250435
v -0.08356637 0.00761087 -0.07251858
v -0.08044294 0.00713912 -0.07254704
v -0.01422995 0.00389820 -0.07261821
v -0.00792664 0.00185464 -0.07266091
v -0.01739101 0.00185464 -0.07266091
v -0.01422995 -0.00366253 -0.07258975
v -0.01422995 -0.00568493 -0.07249011
v -0.08358519 -0.00210977 -0.07220544
v -0.08674625 -0.00199765 -0.07216274
v -0.08979442 -0.00100972 -0.07172151
v -0.09037771 0.00185464 -0.07187808
v -0.09062231 0.00461323 -0.07194924
v -0.08828915 0.00874900 -0.07224814
v -0.08998258 0.00764683 -0.07187808
v -0.08618177 0.00877227 -0.07226238
v -0.08458243 0.00877227 -0.07226238
v -0.00162333 0.00371203 -0.07257551
v -0.00476557 0.00377550 -0.07258975
v -0.00476557 0.00185464 -0.07264668
v 0.01412554 -0.00366253 -0.07257551
v -0.01106889 -0.00366253 -0.07258975
v 0.01412554 -0.00600014 -0.07249011
v -0.01422995 -0.00696480 -0.07066823
v 0.01412554 -0.00738155 -0.07167880
v -0.08674625 -0.00294962 -0.07058283
v -0.08990732 -0.00282903 -0.07019853
v -0.09201469 -0.00258152 -0.06961496
v -0.09252272 -0.00090395 -0.07008466
v -0.09278614 0.00185464 -0.07029817
v -0.09269206 0.00737182 -0.07021277
v -0.09289904 0.00461323 -0.07038356
v -0.08704731 0.00937518 -0.07098137
v -0.09208996 0.00906632 -0.06967189
v -0.08990732 0.00936249 -0.07031240
v -0.08356637 0.00937306 -0.07096714
v -0.08044294 0.00947038 -0.07055437
v -0.05206863 0.00894574 -0.06944416
v 0.08462855 0.00322124 -0.06905986
v 0.08664184 0.00177002 -0.07051167
v 0.01982675 0.00328894 -0.07229085
v 0.01728661 0.00335240 -0.07234778
v 0.01412554 0.00342433 -0.07240471
v 0.01096448 0.00348991 -0.07244741
v 0.00466117 0.00360203 -0.07251858
v 0.05999860 0.00047958 -0.07224814
v 0.05510647 0.00055574 -0.07229085
v 0.05510647 0.00011783 -0.07229085
v 0.05826754 0.00030399 -0.07226238
v 0.08348078 -0.00090395 -0.07190654
v 0.08033853 -0.00366253 -0.07176421
v 0.08348078 -0.00366253 -0.07172151
v 0.08348078 -0.00642324 -0.07143684
v 0.08348078 -0.00865719 -0.07015583
v -0.01422995 -0.00742175 -0.06753689
v -0.08990732 -0.00351234 -0.06753689
v 0.01412554 -0.00798235 -0.07011313
v -0.00026859 -0.00780676 -0.06913103
v 0.08033853 -0.00863603 -0.07017006
v 0.05826754 -0.00850910 -0.07014160
v 0.05510647 -0.00848372 -0.07011313
v 0.04566091 -0.00839275 -0.07005620
v 0.01728661 -0.00802677 -0.07011313
v -0.09304957 -0.00276345 -0.06730915
v -0.09468655 -0.00234036 -0.06611355
v -0.09410325 -0.00090395 -0.06816315
v -0.09436667 0.00185464 -0.06860439
v -0.09447957 0.00461323 -0.06880366
v -0.09427259 0.00737182 -0.06847629
v -0.08674625 0.01056620 -0.06753689
v -0.08358519 0.01057466 -0.06753689
v -0.08990732 0.01028061 -0.06753689
v -0.09474299 0.00884842 -0.06625588
v -0.09310601 0.00932018 -0.06739455
v -0.08044294 0.01050273 -0.06753689
v -0.07097856 0.01021926 -0.06753689
v -0.06783632 0.01012194 -0.06753689
v -0.06783632 0.00925460 -0.07001350
v -0.06467525 0.01001194 -0.06753689
v -0.04890757 0.00887593 -0.06931606
v 0.08353723 0.00354491 -0.06782155
v 0.08664184 0.00351106 -0.06718105
v 0.08664184 0.00314932 -0.06876096
v -0.04401545 0.00876169 -0.06911679
v -0.05206863 0.00954442 -0.06753689
v -0.04890757 0.00940691 -0.06753689
v 0.08980291 0.00149289 -0.07019853
v 0.08664184 -0.00090395 -0.07176421
v 0.05999860 0.00044362 -0.07224814
v 0.08664184 -0.00366253 -0.07152224
v 0.08664184 -0.00642324 -0.07126604
v 0.08664184 -0.00864661 -0.07009890
v 0.08664184 -0.00964512 -0.06753689
v 0.08348078 -0.00963031 -0.06753689
v -0.04168228 -0.00782580 0.06884768
v -0.08990732 -0.00401159 -0.05183743
v -0.08990732 -0.00396716 -0.05498301
v -0.08990732 -0.00391005 -0.05811437
v -0.08990732 -0.00384658 -0.06125995
v -0.08990732 -0.00372388 -0.06439130
v -0.01106889 -0.00753175 -0.06753689
v 0.00466117 -0.00954992 0.06430723
v 0.00151892 -0.00943145 0.06430723
v -0.09304957 -0.00342983 -0.06125995
v -0.09304957 -0.00320347 -0.06439130
v 0.06140979 -0.00932991 -0.06753689
v 0.05826754 -0.00928548 -0.06753689
v 0.05510647 -0.00923260 -0.06753689
v 0.04880316 -0.00911413 -0.06753689
v 0.04566091 -0.00905490 -0.06753689
v 0.04249985 -0.00899143 -0.06753689
v 0.03935760 -0.00892585 -0.06753689
v 0.03935760 -0.00900624 -0.06439130
v -0.09483707 -0.00247998 -0.06439130
v -0.09538274 -0.00090395 -0.06439130
v -0.09489352 -0.00090395 -0.06659748
v -0.09506285 0.00185464 -0.06702448
v -0.09515694 0.00461323 -0.06723798
v -0.09500641 0.00737182 -0.06691062
v -0.08674625 0.01097237 -0.06439130
v -0.08358519 0.01101468 -0.06439130
v -0.08990732 0.01069524 -0.06439130
v -0.08044294 0.01096179 -0.06439130
v -0.09304957 0.00984270 -0.06439130
v -0.09560852 0.00737182 -0.06439130
v -0.09489352 0.00898170 -0.06439130
v -0.07097856 0.01073120 -0.06439130
v -0.06783632 0.01064658 -0.06439130
v -0.06467525 0.01055139 -0.06439130
v -0.06151419 0.01045196 -0.06439130
v -0.05837194 0.01035042 -0.06439130
v -0.05521088 0.01024253 -0.06439130
v -0.06151419 0.00989770 -0.06753689
v -0.03630095 0.00899228 -0.06681098
v -0.03313988 0.00890977 -0.06651208
v -0.04890757 0.00999925 -0.06439130
v 0.08664184 0.00386858 -0.06439130
v 0.08899383 0.00336933 -0.06659748
v 0.08348078 0.00408648 -0.06439130
v 0.08995343 0.00291450 -0.06759382
v -0.05837194 0.00978347 -0.06753689
v -0.05521088 0.00966500 -0.06753689
v -0.05206863 0.01012829 -0.06439130
v 0.09206081 0.00101268 -0.06965766
v 0.08980291 -0.00090395 -0.07108101
v 0.08980291 -0.00642324 -0.07044050
v 0.08980291 -0.00833986 -0.06968613
v 0.08980291 -0.00930452 -0.06753689
v 0.08664184 -0.00981224 -0.06439130
v 0.08980291 -0.00976781 -0.06439130
v -0.04168228 -0.00782580 0.06906118
v -0.07413963 -0.00593033 0.06430723
v -0.07097856 -0.00611438 0.06430723
v -0.08990732 -0.00440718 -0.00788465
v 0.00151892 -0.00946319 0.06743858
v -0.09304957 -0.00370273 -0.04241491
v -0.09304957 -0.00355253 -0.05498301
v -0.09304957 -0.00350599 -0.05811437
v 0.00782223 -0.00964300 0.06430723
v 0.00466117 -0.00957531 0.06743858
v -0.09498760 -0.00261960 -0.06125995
v 0.08348078 -0.00976781 -0.06439130
v 0.06140979 -0.00943568 -0.06439130
v 0.05510647 -0.00932568 -0.06439130
v 0.05196422 -0.00927068 -0.06439130
v 0.04880316 -0.00921356 -0.06439130
v 0.04566091 -0.00915009 -0.06439130
v 0.04249985 -0.00908028 -0.06439130
v 0.04566091 -0.00974031 -0.01103023
v 0.04249985 -0.00966416 -0.01103023
v 0.01096448 -0.00972339 0.06430723
v -0.09566496 -0.00090395 -0.06125995
v -0.09604129 0.00185464 -0.06125995
v -0.09574024 0.00185464 -0.06439130
v -0.09590957 0.00461323 -0.06439130
v -0.08674625 0.01110564 -0.06125995
v -0.08358519 0.01119873 -0.06125995
v -0.08044294 0.01117545 -0.06125995
v -0.08990732 0.01079890 -0.06125995
v -0.09304957 0.00997809 -0.06125995
v -0.07728188 0.01111622 -0.06125995
v -0.07413963 0.01104853 -0.06125995
v -0.09617299 0.00461323 -0.06125995
v -0.09583430 0.00737182 -0.06125995
v -0.09500641 0.00906420 -0.06125995
v -0.07097856 0.01097025 -0.06125995
v -0.06783632 0.01088140 -0.06125995
v -0.06467525 0.01078832 -0.06125995
v -0.06151419 0.01069312 -0.06125995
v -0.05837194 0.01059370 -0.06125995
v -0.05521088 0.01048792 -0.06125995
v -0.05206863 0.01037792 -0.06125995
v -0.04576532 0.01013464 -0.06125995
v -0.03946201 0.00987443 -0.06125995
v 0.08664184 0.00395955 -0.06125995
v 0.08980291 0.00355126 -0.06125995
v 0.08995343 0.00344125 -0.06427743
v 0.08348078 0.00420283 -0.06125995
v 0.09110120 0.00318316 -0.06523107
v 0.06457085 0.00516537 -0.06125995
v 0.07087416 0.00487132 -0.06125995
v 0.07403522 0.00472324 -0.06125995
v 0.07717747 0.00455611 -0.06125995
v 0.08033853 0.00438053 -0.06125995
v -0.03630095 0.00973270 -0.06125995
v 0.09305805 0.00151193 -0.06753689
v -0.04890757 0.01026157 -0.06125995
v 0.09478911 0.00079479 -0.06649784
v 0.09384832 -0.00090395 -0.06816315
v 0.09226778 -0.00090395 -0.06981423
v 0.09177858 -0.00642324 -0.06944416
v 0.09155278 -0.00796754 -0.06924489
v 0.09219252 -0.00838852 -0.06753689
v 0.09318976 -0.00866565 -0.06441976
v 0.08980291 -0.00979743 -0.06125995
v 0.08664184 -0.01014225 -0.00475330
v 0.08348078 -0.01012956 -0.00788465
v 0.08033853 -0.01012110 -0.00788465
v 0.07717747 -0.01011052 -0.00788465
v 0.07403522 -0.01009783 -0.00788465
v 0.07087416 -0.01007668 -0.00788465
v 0.06457085 -0.01003013 -0.00788465
v 0.06140979 -0.01000052 -0.00788465
v 0.06773191 -0.00971281 -0.05183743
v 0.06773191 -0.00968320 -0.05498301
v 0.06457085 -0.00964300 -0.05498301
v 0.06457085 -0.00960069 -0.05811437
v 0.09294516 -0.00906547 -0.06125995
v -0.03313988 -0.00798658 0.06937432
v -0.05837194 -0.00595149 0.06997213
v -0.06151419 -0.00583302 0.06990096
v -0.06467525 -0.00571878 0.06981556
v -0.07728188 -0.00531261 0.06940279
v -0.08044294 -0.00521741 0.06928892
v -0.08302071 -0.00512433 0.06914658
v -0.07728188 -0.00564897 0.06743858
v -0.06151419 -0.00665171 0.06743858
v -0.05837194 -0.00684633 0.06743858
v -0.05521088 -0.00703461 0.06743858
v -0.07728188 -0.00571878 0.06430723
v -0.08990732 -0.00468643 0.03605390
v -0.09304957 -0.00395024 -0.01103023
v -0.09502522 -0.00265133 -0.05811437
v 0.01412554 -0.00978897 0.06430723
v 0.01096448 -0.00970435 0.06743858
v 0.00466117 -0.00868046 0.07025679
v 0.00151892 -0.00862334 0.07022832
v -0.01739101 -0.00824678 0.06994366
v -0.09572141 -0.00090395 -0.05811437
v 0.06457085 -0.00954357 -0.06125995
v 0.06140979 -0.00949280 -0.06125995
v 0.06140979 -0.00954992 -0.05811437
v 0.05826754 -0.00948857 -0.05811437
v 0.05826754 -0.00953300 -0.05498301
v 0.05510647 -0.00949915 -0.05183743
v 0.04880316 -0.00979743 -0.01103023
v 0.04566091 -0.00976993 -0.00788465
v 0.05826754 -0.00956684 -0.05183743
v 0.06140979 -0.00962608 -0.05183743
v -0.09606010 0.00185464 -0.05811437
v -0.08674625 0.01109930 -0.05811437
v -0.08358519 0.01124103 -0.05811437
v -0.08044294 0.01126642 -0.05811437
v -0.07728188 0.01123469 -0.05811437
v -0.08990732 0.01076294 -0.05811437
v -0.09304957 0.00993367 -0.05811437
v -0.09498760 0.00904093 -0.05811437
v -0.07413963 0.01117545 -0.05811437
v -0.09619182 0.00461323 -0.05811437
v -0.09617299 0.00461323 -0.04241491
v -0.09609774 0.00461323 -0.00160771
v -0.09598483 0.00461323 0.05803029
v -0.09581549 0.00737182 -0.05811437
v -0.09525102 0.00662928 0.06116164
v -0.07097856 0.01109295 -0.05811437
v -0.06783632 0.01099775 -0.05811437
v -0.06467525 0.01089833 -0.05811437
v -0.05837194 0.01069524 -0.05811437
v -0.06151419 0.01079678 -0.05811437
v -0.05521088 0.01058735 -0.05811437
v -0.04890757 0.01035888 -0.05811437
v -0.03630095 0.00986809 -0.05811437
v -0.01251771 0.00875957 -0.05976544
v 0.08348078 0.00422187 -0.05811437
v 0.08664184 0.00396801 -0.05811437
v 0.08980291 0.00355337 -0.05811437
v 0.09145870 0.00326567 -0.06125995
v 0.09143989 0.00325509 -0.06313876
v 0.07717747 0.00461323 -0.05811437
v 0.08033853 0.00442072 -0.05811437
v 0.09266292 0.00258660 -0.06427743
v 0.06457085 0.00526057 -0.05811437
v 0.06773191 0.00510825 -0.05811437
v 0.07087416 0.00494959 -0.05811437
v 0.07403522 0.00478882 -0.05811437
v -0.04576532 0.01024041 -0.05811437
v -0.03946201 0.00999502 -0.05811437
v 0.09507135 0.00108461 -0.06439130
v 0.09548530 -0.00090395 -0.06439130
v 0.09484555 -0.00090395 -0.06659748
v 0.09350963 -0.00623073 -0.06723798
v 0.09465741 -0.00366253 -0.06622741
v 0.09454450 -0.00518145 -0.06599967
v 0.09439398 -0.00702192 -0.06548727
v 0.09465741 -0.00797177 -0.06339496
v 0.09294516 -0.00909298 -0.05811437
v 0.08980291 -0.01006821 -0.00475330
v 0.08664184 -0.01015495 0.00780057
v 0.08033853 -0.01027130 0.06116164
v 0.07717747 -0.01029668 0.06116164
v 0.07403522 -0.01031149 0.06116164
v 0.07087416 -0.01032207 0.06116164
v 0.06773191 -0.01032630 0.05803029
v 0.06773191 -0.01030092 0.04546219
v 0.06773191 -0.01029457 0.04233084
v 0.06457085 -0.01030303 0.04233084
v 0.08348078 -0.01014437 -0.00475330
v 0.08980291 -0.01007244 -0.00160771
v 0.06457085 -0.01026707 0.03290832
v 0.06140979 -0.01025649 0.03290832
v 0.06140979 -0.01023745 0.02977696
v 0.05826754 -0.01023110 0.03290832
v 0.06140979 -0.01002167 -0.00475330
v 0.05196422 -0.01016553 0.03290832
v 0.05826754 -0.00996244 -0.00788465
v 0.06457085 -0.00967473 -0.05183743
v 0.06140979 -0.00959435 -0.05498301
v 0.09473266 -0.00808389 -0.06125995
v 0.09475147 -0.00811351 -0.05811437
v -0.05206863 -0.00617361 0.07010023
v -0.07728188 -0.00366253 0.07054146
v -0.08044294 -0.00366253 0.07039913
v -0.01739101 -0.00642324 0.07143816
v -0.08388624 -0.00393543 0.06997213
v -0.08674625 -0.00353561 0.07001482
v -0.08990732 -0.00298558 0.06955936
v -0.08990732 -0.00421044 0.06743858
v -0.08674625 -0.00486201 0.06743858
v -0.08507164 -0.00503337 0.06743858
v -0.08349111 -0.00517510 0.06743858
v -0.08044294 -0.00542896 0.06743858
v -0.08990732 -0.00473508 0.06430723
v -0.08990732 -0.00471181 0.04233084
v -0.08990732 -0.00470547 0.03918525
v -0.09304957 -0.00396716 -0.00788465
v -0.09506285 -0.00270211 -0.04556049
v 0.01728661 -0.00984186 0.06430723
v 0.03935760 -0.00993705 0.02663138
v 0.03935760 -0.00996244 0.02977696
v 0.03935760 -0.00998571 0.03290832
v 0.01412554 -0.00975512 0.06743858
v 0.01728661 -0.00979320 0.06743858
v 0.02358992 -0.00986090 0.06743858
v 0.01412554 -0.00875661 0.07031373
v 0.00466117 -0.00642324 0.07177977
v -0.01106889 -0.00642324 0.07153780
v -0.09577785 -0.00090395 -0.04241491
v 0.05196422 -0.00984609 -0.01103023
v 0.04880316 -0.00982493 -0.00788465
v -0.09606010 0.00185464 -0.04241491
v -0.08674625 0.00930748 0.05803029
v -0.08358519 0.00957192 0.05488471
v -0.08358519 0.01112891 -0.04869185
v -0.08358519 0.01121353 -0.05498301
v -0.08044294 0.01127277 -0.05498301
v -0.07728188 0.01126854 -0.05498301
v -0.07413963 0.01121988 -0.05498301
v -0.09111153 0.00868976 0.05803029
v -0.08953100 0.00895420 0.05803029
v -0.09304957 0.00791338 0.06116164
v -0.07097856 0.01114161 -0.05498301
v -0.09598483 0.00185464 0.02663138
v -0.09594721 0.00185464 0.05803029
v -0.09596602 0.00461323 0.06116164
v -0.09510049 0.00646216 0.06430723
v -0.06783632 0.01104641 -0.05498301
v -0.06467525 0.01094698 -0.05498301
v -0.06151419 0.01084121 -0.05498301
v -0.05837194 0.01073332 -0.05498301
v -0.05521088 0.01062120 -0.05498301
v -0.03630095 0.00985962 -0.05498301
v -0.03313988 0.00972423 -0.05498301
v -0.03313988 0.00972847 -0.05811437
v -0.04890757 0.01037369 -0.05498301
v -0.05521088 0.01062543 -0.05183743
v -0.05521088 0.01061908 -0.04869185
v 0.08348078 0.00422398 -0.05498301
v 0.08033853 0.00442918 -0.05498301
v 0.08664184 0.00396589 -0.05498301
v 0.08980291 0.00354703 -0.05498301
v 0.09145870 0.00326355 -0.05811437
v 0.08664184 0.00396166 -0.05183743
v 0.08664184 0.00395532 -0.04869185
v 0.08664184 0.00394262 -0.04241491
v 0.09303923 0.00259506 -0.06125995
v 0.07717747 0.00462381 -0.05498301
v 0.07403522 0.00480362 -0.05498301
v 0.06457085 0.00528595 -0.05498301
v 0.06773191 0.00513152 -0.05498301
v 0.07087416 0.00496863 -0.05498301
v -0.05206863 0.01049850 -0.05498301
v 0.09520305 0.00121365 -0.06125995
v 0.09584280 -0.00090395 -0.06125995
v 0.09557938 -0.00366253 -0.06125995
v 0.09516544 -0.00366253 -0.06439130
v 0.09477030 -0.00623073 -0.06441976
v 0.09516544 -0.00642324 -0.06125995
v 0.09294516 -0.00921356 -0.02986104
v 0.09484555 -0.00820024 -0.02671546
v 0.09294516 -0.00922625 -0.02671546
v 0.08664184 -0.01015706 0.01093192
v 0.08033853 -0.01025861 0.06430723
v 0.08348078 -0.01023110 0.06116164
v 0.07717747 -0.01028188 0.06430723
v 0.07403522 -0.01029457 0.06430723
v 0.06773191 -0.01033053 0.06116164
v 0.06457085 -0.01033476 0.05803029
v 0.06457085 -0.01030938 0.04546219
v 0.06140979 -0.01030303 0.04546219
v 0.06140979 -0.01029457 0.04233084
v 0.06457085 -0.01029245 0.03918525
v 0.09294516 -0.00922837 -0.02358410
v 0.08980291 -0.01007668 0.00780057
v 0.06140979 -0.01028399 0.03918525
v 0.06140979 -0.01027130 0.03605390
v 0.05826754 -0.01024803 0.03605390
v 0.05510647 -0.01019937 0.03290832
v 0.05196422 -0.01018245 0.03605390
v 0.04880316 -0.01012533 0.03290832
v 0.05510647 -0.00992013 -0.00788465
v 0.05510647 -0.00989263 -0.01103023
v 0.09533477 -0.00642324 -0.02986104
v -0.07413963 -0.00366253 0.07066956
v -0.08358519 -0.00090395 0.07139547
v -0.02999763 -0.00366253 0.07193633
v -0.03946201 -0.00366253 0.07177977
v -0.04260426 -0.00366253 0.07172283
v -0.04576532 -0.00366253 0.07165167
v -0.04890757 -0.00366253 0.07156627
v -0.06151419 -0.00366253 0.07118197
v -0.06783632 -0.00366253 0.07092576
v -0.08674625 -0.00090395 0.07116773
v -0.08990732 -0.00090395 0.07028526
v -0.09161956 -0.00246517 0.06913235
v -0.09233456 -0.00300039 0.06743858
v -0.09333180 -0.00342137 0.06452073
v -0.09304957 -0.00400313 0.06116164
v -0.09304957 -0.00403274 0.05803029
v -0.09304957 -0.00402851 0.04546219
v -0.09304957 -0.00401159 0.00780057
v -0.09510049 -0.00282480 -0.01103023
v -0.09510049 -0.00281211 -0.01416158
v -0.09510049 -0.00279519 -0.01730717
v 0.02358992 -0.00992013 0.06116164
v 0.02358992 -0.00993282 0.06430723
v 0.04249985 -0.01001321 0.02977696
v 0.04249985 -0.01003437 0.03290832
v 0.02673217 -0.00997302 0.06430723
v 0.03935760 -0.01011475 0.06430723
v 0.02673217 -0.00989263 0.06743858
v 0.02042885 -0.00644651 0.07189363
v 0.00782223 -0.00642324 0.07180823
v 0.03619654 -0.00996879 0.06743858
v 0.03935760 -0.00998994 0.06743858
v 0.06140979 -0.01011052 0.06743858
v 0.02358992 -0.00879892 0.07032796
v 0.02673217 -0.00649516 0.07190787
v 0.01103974 -0.00615669 0.07190787
v 0.01214988 -0.00506087 0.07214984
v -0.09577785 -0.00090395 0.01093192
v -0.09510049 -0.00286711 0.01407751
v 0.05196422 -0.00987359 -0.00788465
v -0.09575905 -0.00090395 0.02977696
v -0.08932402 0.00891400 0.06116164
v -0.08674625 0.00920383 0.06116164
v -0.08358519 0.00950211 0.05803029
v -0.08044294 0.00963327 0.05488471
v -0.08044294 0.00969039 0.05175335
v -0.08044294 0.00973904 0.04860777
v -0.08044294 0.01120296 -0.04869185
v -0.08044294 0.01124315 -0.05183743
v -0.07728188 0.01125161 -0.05183743
v -0.07413963 0.01121353 -0.05183743
v -0.07097856 0.01114584 -0.05183743
v -0.09090456 0.00865803 0.06116164
v -0.09304957 0.00764260 0.06430723
v -0.06783632 0.01105699 -0.05183743
v -0.06467525 0.01096179 -0.05183743
v -0.09564616 -0.00090395 0.05803029
v -0.09590957 0.00185464 0.06116164
v -0.09560852 0.00461323 0.06430723
v -0.09483707 0.00620830 0.06625720
v -0.06151419 0.01085390 -0.05183743
v -0.05837194 0.01074390 -0.05183743
v -0.03630095 0.00981943 -0.04869185
v -0.05521088 0.01060427 -0.04556049
v 0.07087416 0.00457727 0.03918525
v 0.07087416 0.00459419 0.03605390
v 0.06457085 0.00527538 -0.05183743
v -0.05837194 0.01074178 -0.04869185
v 0.08348078 0.00421975 -0.05183743
v 0.08033853 0.00442072 -0.05183743
v 0.08348078 0.00421340 -0.04869185
v 0.09078134 0.00313662 0.05803029
v 0.08921962 0.00339471 0.05803029
v 0.09294516 0.00240678 0.05803029
v 0.09138344 0.00323605 -0.04013756
v 0.08664184 0.00368665 0.05803029
v 0.09516544 0.00112480 0.05803029
v 0.09522188 0.00115442 0.01720886
v 0.09522188 0.00115865 0.01407751
v 0.09522188 0.00120096 -0.04869185
v 0.08348078 0.00389397 0.05803029
v 0.08348078 0.00395532 0.03918525
v 0.07087416 0.00495805 -0.05183743
v 0.08033853 0.00413302 0.03918525
v 0.06773191 0.00512095 -0.05183743
v 0.09599332 -0.00090395 -0.01103023
v 0.09580516 -0.00366253 -0.01103023
v 0.09484555 -0.00820024 -0.02358410
v 0.08664184 -0.01016764 0.06116164
v 0.08033853 -0.01009360 0.06743858
v 0.08348078 -0.01021841 0.06430723
v 0.08348078 -0.01006187 0.06743858
v 0.07717747 -0.01010841 0.06743858
v 0.07403522 -0.01012110 0.06743858
v 0.07087416 -0.01030092 0.06430723
v 0.06457085 -0.01033476 0.06116164
v 0.06140979 -0.01032630 0.05803029
v 0.06140979 -0.01030938 0.04860777
v 0.05826754 -0.01027765 0.04546219
v 0.05826754 -0.01026072 0.03918525
v 0.09294516 -0.00917548 0.00780057
v 0.08980291 -0.01000898 0.05803029
v 0.08980291 -0.01003225 0.04233084
v 0.05510647 -0.01021630 0.03605390
v 0.05196422 -0.01019514 0.03918525
v 0.04880316 -0.01014225 0.03605390
v 0.04566091 -0.01008091 0.03290832
v 0.09580516 -0.00366253 -0.00475330
v 0.09522188 -0.00642324 0.00780057
v -0.08044294 -0.00090395 0.07146663
v -0.08044294 0.00185464 0.07186517
v -0.08358519 0.00185464 0.07177977
v -0.02369432 -0.00366253 0.07199327
v -0.02999763 -0.00197226 0.07213561
v -0.04576532 0.00185464 0.07240604
v -0.03946201 -0.00152590 0.07207867
v -0.04260426 -0.00144339 0.07205020
v -0.08674625 0.00185464 0.07153780
v -0.08990732 0.00185464 0.07071226
v -0.09186417 -0.00090395 0.06930315
v -0.09376456 0.00185464 0.06790828
v -0.09363286 -0.00099914 0.06722508
v -0.09457365 -0.00198284 0.06570210
v -0.09485588 -0.00260691 0.06360979
v -0.09500641 -0.00281000 0.06116164
v -0.09504405 -0.00284596 0.05803029
v -0.09510049 -0.00285865 0.02977696
v -0.09510049 -0.00286288 0.02663138
v -0.09510049 -0.00286711 0.02035445
v 0.04566091 -0.01009783 0.03605390
v 0.02673217 -0.00996244 0.06116164
v 0.03935760 -0.01011898 0.06116164
v 0.04249985 -0.01015072 0.06116164
v 0.06140979 -0.01032207 0.06116164
v 0.06140979 -0.01029034 0.06430723
v 0.01425725 -0.00615669 0.07193633
v 0.06457085 -0.01012533 0.06743858
v 0.02673217 -0.00881162 0.07032796
v 0.03303548 -0.00882643 0.07034219
v 0.03619654 -0.00883489 0.07034219
v 0.02989323 -0.00650151 0.07190787
v 0.02989323 -0.00512222 0.07216407
v 0.02673217 -0.00511375 0.07216407
v 0.02358992 -0.00509472 0.07216407
v 0.03619654 -0.00366253 0.07237757
v 0.03935760 -0.00090395 0.07271917
v 0.03619654 -0.00090395 0.07270494
v 0.00466117 -0.00090395 0.07250567
v -0.04260426 0.00185464 0.07243450
v -0.08889126 0.00883996 0.06360979
v -0.08674625 0.00891612 0.06450650
v -0.08358519 0.00936249 0.06116164
v -0.08044294 0.00953384 0.05803029
v -0.07728188 0.00959731 0.05488471
v -0.07728188 0.00967346 0.05175335
v -0.07728188 0.00973270 0.04860777
v -0.07728188 0.00978135 0.04546219
v -0.07728188 0.01117122 -0.04556049
v -0.07728188 0.01121776 -0.04869185
v -0.07413963 0.01119026 -0.04869185
v -0.07097856 0.01113103 -0.04869185
v -0.06783632 0.01105064 -0.04869185
v -0.08992613 0.00858187 0.06450650
v -0.09306838 0.00678160 0.06736741
v -0.08990732 0.00793877 0.06743858
v -0.06467525 0.01095756 -0.04869185
v -0.06151419 0.01085390 -0.04869185
v -0.09558971 -0.00090395 0.06116164
v -0.09549563 0.00185464 0.06430723
v -0.09496877 0.00461323 0.06651341
v -0.09391509 0.00461323 0.06807908
v -0.09201469 0.00635639 0.06940279
v 0.07087416 0.00455400 0.04233084
v -0.05837194 0.01072697 -0.04556049
v -0.05521088 0.01057889 -0.04241491
v 0.08033853 0.00402936 0.05803029
v 0.07403522 0.00444822 0.03605390
v 0.08348078 0.00420494 -0.04556049
v 0.09074370 0.00312816 0.06116164
v 0.09294516 0.00239197 0.06116164
v 0.08916317 0.00338625 0.06116164
v 0.09516544 0.00111634 0.06116164
v 0.08664184 0.00366338 0.06116164
v 0.09522188 0.00114807 0.02035445
v 0.09599332 -0.00090395 -0.00475330
v 0.08348078 0.00385166 0.06116164
v 0.09469502 -0.00803312 0.02035445
v 0.09294516 -0.00911836 0.02035445
v 0.09294516 -0.00916702 0.01093192
v 0.08664184 -0.01014437 0.06430723
v 0.08980291 -0.00999417 0.06116164
v 0.08033853 -0.00887508 0.07028526
v 0.08348078 -0.00886027 0.07027103
v 0.08664184 -0.00997090 0.06743858
v 0.08664184 -0.00880950 0.07018563
v 0.07087416 -0.01012533 0.06743858
v 0.06773191 -0.01030303 0.06430723
v 0.06457085 -0.01030515 0.06430723
v 0.05826754 -0.01029880 0.05803029
v 0.05826754 -0.01028399 0.04860777
v 0.05510647 -0.01023745 0.04233084
v 0.05510647 -0.01022899 0.03918525
v 0.04880316 -0.01015495 0.03918525
v 0.09574871 -0.00366253 0.00780057
v 0.09595569 -0.00090395 0.00780057
v 0.09514661 -0.00642324 0.02035445
v 0.09454450 -0.00783638 0.05488471
v -0.07310475 0.00318528 0.07216407
v -0.08358519 0.00461323 0.07170860
v -0.08674625 0.00461323 0.07155204
v -0.07310475 0.00326355 0.07216407
v -0.06151419 0.00255698 0.07226371
v -0.08990732 0.00461323 0.07084036
v -0.09233456 0.00461323 0.06964475
v -0.09218403 0.00185464 0.06954512
v -0.09487469 0.00185464 0.06634260
v -0.09472418 -0.00014237 0.06604370
v -0.09504405 -0.00099914 0.06452073
v 0.06457085 -0.00888566 0.07028526
v 0.06140979 -0.00887931 0.07029949
v 0.03935760 -0.00883912 0.07034219
v 0.04249985 -0.00884123 0.07034219
v 0.04249985 -0.00649728 0.07190787
v 0.04249985 -0.00511799 0.07216407
v 0.05196422 -0.00366253 0.07237757
v 0.08348078 -0.00090395 0.07263378
v 0.06773191 0.00089210 0.07247721
v -0.03946201 0.00358511 0.07237757
v -0.04260426 0.00360415 0.07237757
v -0.04576532 0.00360626 0.07236334
v -0.06151419 0.00351106 0.07226371
v -0.08779994 0.00873419 0.06570210
v -0.08571138 0.00877015 0.06594407
v -0.08358519 0.00903670 0.06430723
v -0.08044294 0.00937306 0.06116164
v -0.07728188 0.00947672 0.05803029
v -0.07413963 0.00950845 0.05488471
v -0.07413963 0.00959942 0.05175335
v -0.07413963 0.00966923 0.04860777
v -0.07413963 0.01115007 -0.04556049
v -0.07413963 0.00972847 0.04546219
v -0.07413963 0.00977924 0.04233084
v -0.07097856 0.01105487 -0.04241491
v -0.07097856 0.01109930 -0.04556049
v -0.06783632 0.01102737 -0.04556049
v -0.06467525 0.01094064 -0.04556049
v -0.08990732 0.00671390 0.06987249
v -0.08674625 0.00690853 0.07018563
v -0.08674625 0.00837033 0.06716814
v -0.06151419 0.01083909 -0.04556049
v -0.05837194 0.01070159 -0.04241491
v -0.05521088 0.01054293 -0.03928356
v -0.05837194 0.01066351 -0.03928356
v -0.05521088 0.01049850 -0.03613797
v -0.05521088 0.01015791 -0.01416158
v -0.05521088 0.00994848 -0.00160771
v -0.05521088 0.00989559 0.00152364
v -0.06467525 0.00956980 0.03918525
v -0.06783632 0.00962058 0.04233084
v 0.09036738 0.00307316 0.06430723
v 0.09294516 0.00221216 0.06430723
v 0.08878685 0.00332279 0.06430723
v 0.09501491 0.00099364 0.06430723
v 0.09563582 -0.00090395 0.06116164
v 0.09567346 -0.00090395 0.05803029
v 0.09584280 -0.00090395 0.03290832
v 0.08664184 0.00353222 0.06430723
v -0.06783632 0.00954865 0.04546219
v -0.07097856 0.00957827 0.04860777
v -0.07097856 0.00949788 0.05175335
v -0.07097856 0.00940268 0.05488471
v 0.08033853 0.00395955 0.06116164
v 0.08348078 0.00370569 0.06430723
v 0.09294516 -0.00888143 0.05488471
v 0.09294516 -0.00909721 0.02348580
v 0.08980291 -0.00990955 0.06430723
v 0.09283226 -0.00883489 0.06116164
v 0.05510647 -0.00885393 0.07032796
v 0.07717747 -0.00887931 0.07028526
v 0.08348078 -0.00642324 0.07179400
v 0.08033853 -0.00642324 0.07180823
v 0.04566091 -0.00648670 0.07190787
v 0.08980291 -0.00938914 0.06743858
v 0.08664184 -0.00642324 0.07159473
v 0.08980291 -0.00837160 0.06963052
v 0.07087416 -0.00888566 0.07028526
v 0.09572991 -0.00366253 0.01093192
v 0.09561702 -0.00366253 0.02663138
v 0.09556055 -0.00366253 0.03290832
v 0.09452569 -0.00781946 0.05674928
v 0.09324621 -0.00864661 0.05788796
v -0.08044294 0.00461323 0.07172283
v -0.08358519 0.00692122 0.07022832
v -0.06467525 0.00345818 0.07223523
v 0.04566091 -0.00510741 0.07216407
v 0.05196422 -0.00508414 0.07216407
v 0.08033853 -0.00338752 0.07233487
v 0.08348078 -0.00331560 0.07233487
v 0.08664184 -0.00090395 0.07254837
v 0.08664184 0.00080748 0.07243450
v 0.08348078 0.00084556 0.07244874
v -0.02053326 0.00346241 0.07233487
v -0.06151419 0.00489036 0.07155204
v -0.06467525 0.00483747 0.07159473
v -0.06783632 0.00477189 0.07163743
v -0.07097856 0.00469997 0.07168013
v -0.08358519 0.00830051 0.06753821
v -0.08358519 0.00877861 0.06597253
v -0.08014189 0.00897324 0.06462036
v -0.07728188 0.00898170 0.06420759
v -0.07728188 0.00930537 0.06116164
v -0.07413963 0.00938364 0.05803029
v -0.07097856 0.00965019 0.04546219
v -0.07097856 0.00971154 0.04233084
v -0.07097856 0.00976443 0.03918525
v -0.06783632 0.01094275 -0.03928356
v -0.06783632 0.01099141 -0.04241491
v -0.06467525 0.01090890 -0.04241491
v -0.06151419 0.01080948 -0.04241491
v -0.05837194 0.01061485 -0.03613797
v -0.06151419 0.01077140 -0.03928356
v -0.05837194 0.01025945 -0.01416158
v -0.06783632 0.00968192 0.03918525
v -0.06467525 0.00962481 0.03605390
v 0.08957712 0.00283411 0.06722508
v 0.08839172 0.00325932 0.06602947
v 0.09311450 0.00143366 0.06749551
v 0.09477030 0.00074613 0.06648494
v 0.09535358 -0.00090395 0.06430723
v 0.09439398 -0.00681883 0.06116164
v 0.09448806 -0.00735193 0.05884160
v 0.08664184 0.00333125 0.06641377
v -0.07097856 0.00927787 0.05803029
v 0.08348078 0.00341375 0.06684077
v -0.06309472 0.00875323 0.06274155
v 0.09253121 -0.00876296 0.06430723
v 0.08033853 -0.00476682 0.07210714
v 0.08664184 -0.00291365 0.07227794
v 0.05196422 -0.00646343 0.07189363
v 0.09191028 -0.00833775 0.06743858
v 0.09145870 -0.00791888 0.06911812
v 0.08980291 -0.00642324 0.07051299
v 0.08837290 -0.00248844 0.07220677
v -0.01739101 0.00344337 0.07232064
v -0.01422995 0.00341587 0.07230640
v -0.08044294 0.00689583 0.07019986
v 0.08869278 -0.00090395 0.07230640
v 0.08869278 0.00066786 0.07230640
v 0.08664184 0.00200273 0.07058416
v 0.08348078 0.00211062 0.07058416
v -0.06151419 0.00665890 0.06998636
v -0.06467525 0.00670967 0.07002906
v -0.06783632 0.00675410 0.07007176
v -0.01106889 0.00337779 0.07227794
v -0.07728188 0.00686410 0.07017139
v -0.07413963 0.00682814 0.07014292
v -0.07728188 0.00822859 0.06743858
v -0.08014189 0.00837033 0.06716814
v -0.08098860 0.00876804 0.06592984
v -0.07888122 0.00875111 0.06587290
v -0.07728188 0.00873842 0.06578750
v -0.07413963 0.00870034 0.06551707
v -0.07413963 0.00892670 0.06395139
v -0.07413963 0.00920594 0.06116164
v -0.07097856 0.00910228 0.06116164
v -0.06783632 0.00973270 0.03605390
v -0.06467525 0.01086448 -0.03928356
v 0.08976528 0.00137866 0.07074073
v 0.09217371 0.00102326 0.06980132
v 0.08664184 0.00304989 0.06797945
v 0.09407411 -0.00090395 0.06816448
v 0.09480794 -0.00090395 0.06659881
v 0.09465741 -0.00254768 0.06621450
v 0.09478911 -0.00354618 0.06400833
v 0.09399884 -0.00618207 0.06400833
v 0.08348078 0.00311758 0.06842068
v -0.06467525 0.00855014 0.06447803
v -0.07097856 0.00865168 0.06517546
v 0.09209844 -0.00366253 0.06973016
v 0.09027331 -0.00090395 0.07165167
v 0.08957712 -0.00351022 0.07136700
v 0.08033853 0.00314720 0.06859148
v -0.04260426 0.00632677 0.06958782
v -0.07097856 0.00807204 0.06743858
v -0.07413963 0.00815666 0.06743858
v -0.06783632 0.00798108 0.06743858
v -0.06467525 0.00788800 0.06743858
v 0.09249358 -0.00090395 0.07008599
f 1 2 3
f 1 3 4
f 1 4 5
f 1 5 6
f 1 6 7
f 1 7 8
f 1 8 9
f 1 9 10
f 1 10 11
f 1 11 12
f 1 12 13
f 1 13 2
f 2 14 15
f 2 15 3
f 2 13 14
f 3 15 16
f 3 16 17
f 3 17 18
f 3 18 4
f 4 18 5
f 5 19 6
f 5 18 20
f 5 20 19
f 6 19 21
f 6 21 7
f 7 21 22
f 7 22 23
f 7 23 24
f 7 24 9
f 7 9 8
f 9 24 10
f 10 24 25
f 10 25 26
f 10 26 27
f 10 27 12
f 10 12 11
f 12 27 28
f 12 28 13
f 13 29 15
f 13 15 14
f 13 28 30
f 13 30 29
f 15 29 31
f 15 31 32
f 15 32 33
f 15 33 16
f 16 33 34
f 16 34 17
f 17 34 35
f 17 35 18
f 18 36 20
f 18 35 37
f 18 37 36
f 19 38 21
f 19 20 39
f 19 39 40
f 19 40 38
f 20 36 39
f 21 38 22
f 22 38 41
f 22 41 42
f 22 42 43
f 22 43 44
f 22 44 45
f 22 45 46
f 22 46 47
f 22 47 48
f 22 48 49
f 22 49 50
f 22 50 23
f 23 25 24
f 23 50 51
f 23 51 52
f 23 52 25
f 25 52 26
f 26 52 53
f 26 53 28
f 26 28 27
f 28 53 54
f 28 54 55
f 28 55 56
f 28 56 57
f 28 57 58
f 28 58 59
f 28 59 30
f 29 60 61
f 29 61 31
f 29 30 62
f 29 62 63
f 29 63 60
f 30 59 64
f 30 64 65
f 30 65 66
f 30 66 67
f 30 67 68
f 30 68 62
f 31 61 32
f 32 61 33
f 33 61 69
f 33 69 70
f 33 70 71
f 33 71 34
f 34 71 72
f 34 72 35
f 35 72 73
f 35 73 37
f 36 37 73
f 36 73 74
f 36 74 39
f 38 40 75
f 38 75 76
f 38 76 41
f 39 77 40
f 39 74 78
f 39 78 79
f 39 79 77
f 40 77 75
f 41 76 42
f 42 76 80
f 42 80 81
f 42 81 82
f 42 82 83
f 42 83 43
f 43 83 82
f 43 82 84
f 43 84 85
f 43 85 44
f 44 86 87
f 44 87 88
f 44 88 45
f 44 85 89
f 44 89 90
f 44 90 91
f 44 91 86
f 45 88 92
f 45 92 93
f 45 93 55
f 45 55 51
f 45 51 46
f 46 51 47
f 47 51 48
f 48 51 49
f 49 51 50
f 51 55 94
f 51 94 53
f 51 53 52
f 53 94 54
f 54 94 55
f 55 93 57
f 55 57 56
f 57 93 95
f 57 95 96
f 57 96 58
f 58 96 97
f 58 97 59
f 59 97 98
f 59 98 99
f 59 99 64
f 60 100 101
f 60 101 102
f 60 102 103
f 60 103 104
f 60 104 105
f 60 105 61
f 60 63 106
f 60 106 107
f 60 107 108
f 60 108 100
f 61 105 109
f 61 109 110
f 61 110 69
f 62 68 111
f 62 111 112
f 62 112 113
f 62 113 114
f 62 114 115
f 62 115 116
f 62 116 117
f 62 117 63
f 63 117 118
f 63 118 106
f 64 99 65
f 65 99 66
f 66 99 67
f 67 99 68
f 68 99 111
f 69 110 70
f 70 110 119
f 70 119 120
f 70 120 121
f 70 121 71
f 71 121 72
f 72 121 122
f 72 122 73
f 73 122 123
f 73 123 124
f 73 124 74
f 74 124 78
f 75 125 126
f 75 126 76
f 75 77 127
f 75 127 125
f 76 126 128
f 76 128 80
f 77 79 129
f 77 129 127
f 78 129 79
f 78 124 130
f 78 130 131
f 78 131 129
f 80 128 132
f 80 132 133
f 80 133 81
f 81 133 134
f 81 134 82
f 82 134 135
f 82 135 136
f 82 136 137
f 82 137 84
f 84 137 138
f 84 138 85
f 85 138 89
f 86 91 139
f 86 139 140
f 86 140 141
f 86 141 87
f 87 142 143
f 87 143 88
f 87 141 144
f 87 144 142
f 88 143 145
f 88 145 92
f 89 138 146
f 89 146 147
f 89 147 90
f 90 147 148
f 90 148 141
f 90 141 91
f 91 141 139
f 92 145 149
f 92 149 150
f 92 150 93
f 93 150 95
f 95 150 96
f 96 150 151
f 96 151 152
f 96 152 97
f 97 152 153
f 97 153 98
f 98 154 99
f 98 153 155
f 98 155 154
f 99 154 111
f 100 156 157
f 100 157 158
f 100 158 159
f 100 159 101
f 100 108 160
f 100 160 156
f 101 159 161
f 101 161 162
f 101 162 102
f 102 162 163
f 102 163 103
f 103 163 104
f 104 163 109
f 104 109 105
f 106 118 164
f 106 164 107
f 107 164 165
f 107 165 160
f 107 160 108
f 109 163 166
f 109 166 119
f 109 119 110
f 111 154 167
f 111 167 112
f 112 167 168
f 112 168 113
f 113 168 169
f 113 169 170
f 113 170 171
f 113 171 114
f 114 171 115
f 115 171 116
f 116 171 172
f 116 172 117
f 117 172 173
f 117 173 118
f 118 173 174
f 118 174 175
f 118 175 176
f 118 176 164
f 119 166 177
f 119 177 120
f 120 177 178
f 120 178 179
f 120 179 121
f 121 179 122
f 122 179 180
f 122 180 123
f 123 180 124
f 124 180 130
f 125 181 182
f 125 182 126
f 125 127 181
f 126 182 183
f 126 183 128
f 127 184 181
f 127 129 185
f 127 185 184
f 128 183 186
f 128 186 187
f 128 187 132
f 129 131 185
f 130 180 188
f 130 188 189
f 130 189 131
f 131 189 190
f 131 190 185
f 132 187 191
f 132 191 133
f 133 191 192
f 133 192 193
f 133 193 194
f 133 194 134
f 134 194 135
f 135 194 195
f 135 195 136
f 136 195 196
f 136 196 137
f 137 196 197
f 137 197 148
f 137 148 146
f 137 146 138
f 139 141 140
f 141 148 198
f 141 198 199
f 141 199 144
f 142 200 201
f 142 201 202
f 142 202 143
f 142 144 203
f 142 203 200
f 143 202 204
f 143 204 145
f 144 205 206
f 144 206 207
f 144 207 208
f 144 208 209
f 144 209 203
f 144 199 210
f 144 210 205
f 145 204 211
f 145 211 149
f 146 148 147
f 148 197 212
f 148 212 198
f 149 211 213
f 149 213 214
f 149 214 215
f 149 215 150
f 150 215 216
f 150 216 151
f 151 216 217
f 151 217 152
f 152 217 153
f 153 217 218
f 153 218 219
f 153 219 155
f 154 155 220
f 154 220 221
f 154 221 222
f 154 222 223
f 154 223 224
f 154 224 225
f 154 225 226
f 154 226 227
f 154 227 228
f 154 228 229
f 154 229 230
f 154 230 231
f 154 231 232
f 154 232 167
f 155 219 233
f 155 233 220
f 156 234 235
f 156 235 236
f 156 236 237
f 156 237 238
f 156 238 239
f 156 239 240
f 156 240 241
f 156 241 242
f 156 242 243
f 156 243 244
f 156 244 157
f 156 160 165
f 156 165 234
f 157 244 243
f 157 243 242
f 157 242 241
f 157 241 245
f 157 245 159
f 157 159 158
f 159 245 246
f 159 246 247
f 159 247 161
f 161 247 248
f 161 248 162
f 162 248 163
f 163 248 166
f 164 176 165
f 165 176 249
f 165 249 250
f 165 250 251
f 165 251 252
f 165 252 253
f 165 253 234
f 166 248 254
f 166 254 177
f 167 232 255
f 167 255 168
f 168 255 256
f 168 256 169
f 169 256 257
f 169 257 170
f 170 257 171
f 171 257 258
f 171 258 259
f 171 259 172
f 172 259 260
f 172 260 173
f 173 260 174
f 174 261 262
f 174 262 176
f 174 176 175
f 174 260 259
f 174 259 263
f 174 263 264
f 174 264 261
f 176 262 249
f 177 254 178
f 178 265 274
f 178 274 188
f 178 188 180
f 178 180 179
f 178 254 265
f 181 266 267
f 181 267 182
f 181 184 266
f 182 267 268
f 182 268 183
f 183 268 269
f 183 269 186
f 184 270 266
f 184 185 270
f 185 271 270
f 185 190 272
f 185 272 271
f 186 269 273
f 186 273 187
f 187 273 191
f 188 274 189
f 189 274 275
f 189 275 276
f 189 276 277
f 189 277 278
f 189 278 190
f 190 278 279
f 190 279 272
f 191 280 192
f 191 273 280
f 192 280 193
f 193 280 194
f 194 280 281
f 194 281 282
f 194 282 195
f 195 283 196
f 195 282 284
f 195 284 283
f 196 285 197
f 196 283 285
f 197 285 286
f 197 286 212
f 198 212 287
f 198 287 199
f 199 287 288
f 199 288 210
f 200 203 289
f 200 289 290
f 200 290 201
f 201 291 292
f 201 292 293
f 201 293 202
f 201 290 291
f 202 293 204
f 203 209 294
f 203 294 295
f 203 295 289
f 204 293 296
f 204 296 211
f 205 297 206
f 205 210 288
f 205 288 297
f 206 297 207
f 207 297 298
f 207 298 299
f 207 299 300
f 207 300 208
f 208 300 209
f 209 300 294
f 211 296 213
f 212 286 301
f 212 301 302
f 212 302 287
f 213 303 304
f 213 304 305
f 213 305 214
f 213 296 303
f 214 306 216
f 214 216 215
f 214 305 307
f 214 307 308
f 214 308 306
f 216 306 217
f 217 306 309
f 217 309 218
f 218 309 310
f 218 310 219
f 219 310 233
f 220 233 311
f 220 311 312
f 220 312 221
f 221 313 314
f 221 314 315
f 221 315 316
f 221 316 317
f 221 317 318
f 221 318 319
f 221 319 320
f 221 320 321
f 221 321 322
f 221 322 222
f 221 312 323
f 221 323 313
f 222 322 223
f 223 322 324
f 223 324 325
f 223 325 224
f 224 325 225
f 225 325 226
f 226 325 326
f 226 326 227
f 227 326 327
f 227 327 328
f 227 328 228
f 228 328 329
f 228 329 330
f 228 330 331
f 228 331 229
f 229 331 230
f 230 331 231
f 231 331 264
f 231 264 332
f 231 332 232
f 232 332 257
f 232 257 256
f 232 256 255
f 233 310 333
f 233 333 334
f 233 334 311
f 234 253 335
f 234 335 235
f 235 336 337
f 235 337 236
f 235 335 338
f 235 338 336
f 236 337 237
f 237 337 238
f 238 337 239
f 239 337 339
f 239 339 240
f 240 339 340
f 240 340 341
f 240 341 342
f 240 342 343
f 240 343 344
f 240 344 345
f 240 345 346
f 240 346 241
f 241 346 245
f 245 346 347
f 245 347 348
f 245 348 349
f 245 349 246
f 246 349 247
f 247 350 351
f 247 351 248
f 247 349 350
f 248 351 254
f 249 352 250
f 249 262 353
f 249 353 354
f 249 354 355
f 249 355 352
f 250 352 356
f 250 356 251
f 251 356 357
f 251 357 358
f 251 358 359
f 251 359 360
f 251 360 361
f 251 361 338
f 251 338 252
f 252 338 253
f 253 338 335
f 254 351 362
f 254 362 265
f 257 332 259
f 257 259 258
f 259 332 263
f 261 264 331
f 261 331 363
f 261 363 477
f 261 477 364
f 261 364 262
f 262 364 354
f 262 354 353
f 263 332 264
f 265 362 475
f 265 475 365
f 265 365 274
f 266 366 367
f 266 367 368
f 266 368 369
f 266 369 267
f 266 270 366
f 267 369 370
f 267 370 268
f 268 370 371
f 268 371 269
f 269 371 372
f 269 372 273
f 270 271 373
f 270 373 374
f 270 374 366
f 271 375 373
f 271 272 375
f 272 279 375
f 273 372 376
f 273 376 280
f 274 365 377
f 274 377 378
f 274 378 275
f 275 378 276
f 276 378 277
f 277 378 379
f 277 379 278
f 278 379 279
f 279 379 380
f 279 380 375
f 280 376 381
f 280 381 281
f 281 381 382
f 281 382 282
f 282 382 284
f 283 284 382
f 283 382 383
f 283 383 285
f 285 383 384
f 285 384 385
f 285 385 286
f 286 385 301
f 287 386 387
f 287 387 388
f 287 388 288
f 287 302 389
f 287 389 390
f 287 390 391
f 287 391 386
f 288 388 297
f 289 392 290
f 289 295 393
f 289 393 392
f 290 392 394
f 290 394 291
f 291 395 396
f 291 396 292
f 291 394 397
f 291 397 398
f 291 398 399
f 291 399 395
f 292 396 400
f 292 400 293
f 293 400 296
f 294 401 295
f 294 300 402
f 294 402 401
f 295 401 393
f 296 400 303
f 297 403 298
f 297 388 403
f 298 403 404
f 298 404 299
f 299 404 300
f 300 404 405
f 300 405 402
f 301 385 302
f 302 385 406
f 302 406 389
f 303 407 408
f 303 408 304
f 303 400 407
f 304 408 409
f 304 409 410
f 304 410 308
f 304 308 307
f 304 307 305
f 306 308 309
f 308 410 309
f 309 410 411
f 309 411 310
f 310 411 410
f 310 410 409
f 310 409 412
f 310 412 333
f 311 413 312
f 311 334 414
f 311 414 413
f 312 413 415
f 312 415 323
f 313 416 314
f 313 323 416
f 314 417 315
f 314 416 418
f 314 418 528
f 314 528 417
f 315 417 419
f 315 419 316
f 316 420 317
f 316 419 420
f 317 421 318
f 317 420 421
f 318 421 422
f 318 422 423
f 318 423 319
f 319 423 321
f 319 321 320
f 321 423 424
f 321 424 425
f 321 425 429
f 321 429 426
f 321 426 322
f 322 426 324
f 323 415 427
f 323 427 428
f 323 428 416
f 324 426 429
f 324 429 430
f 324 430 325
f 325 430 431
f 325 431 327
f 325 327 326
f 327 431 541
f 327 541 432
f 327 432 328
f 328 432 329
f 329 433 543
f 329 543 434
f 329 434 330
f 329 432 541
f 329 541 433
f 330 434 435
f 330 435 331
f 331 435 436
f 331 436 363
f 333 412 334
f 334 412 437
f 334 437 414
f 336 338 438
f 336 438 439
f 336 439 337
f 337 439 340
f 337 340 339
f 338 361 440
f 338 440 441
f 338 441 442
f 338 442 443
f 338 443 444
f 338 444 445
f 338 445 446
f 338 446 438
f 340 439 447
f 340 447 341
f 341 448 449
f 341 449 342
f 341 447 448
f 342 449 450
f 342 450 451
f 342 451 347
f 342 347 343
f 343 347 344
f 344 347 345
f 345 347 346
f 347 451 452
f 347 452 453
f 347 453 454
f 347 454 455
f 347 455 348
f 348 455 349
f 349 455 350
f 350 455 456
f 350 456 457
f 350 457 351
f 351 457 458
f 351 458 362
f 352 355 459
f 352 459 460
f 352 460 356
f 354 461 355
f 354 364 461
f 355 461 462
f 355 462 459
f 356 460 463
f 356 463 357
f 357 463 464
f 357 464 358
f 358 464 465
f 358 465 359
f 359 466 467
f 359 467 360
f 359 465 468
f 359 468 469
f 359 469 470
f 359 470 471
f 359 471 472
f 359 472 466
f 360 467 473
f 360 473 474
f 360 474 440
f 360 440 361
f 362 458 457
f 362 457 456
f 362 456 476
f 362 476 566
f 362 566 475
f 363 436 435
f 363 435 477
f 364 477 461
f 365 475 478
f 365 478 377
f 366 374 479
f 366 479 480
f 366 480 481
f 366 481 367
f 367 481 482
f 367 482 483
f 367 483 484
f 367 484 485
f 367 485 368
f 368 485 369
f 369 485 486
f 369 486 370
f 370 486 487
f 370 487 371
f 371 487 488
f 371 488 372
f 372 488 489
f 372 489 376
f 373 490 374
f 373 375 490
f 374 490 479
f 375 491 490
f 375 380 491
f 376 489 492
f 376 492 493
f 376 493 381
f 377 478 378
f 378 478 494
f 378 494 495
f 378 495 379
f 379 495 496
f 379 496 380
f 380 496 497
f 380 497 491
f 381 493 382
f 382 493 383
f 383 498 384
f 383 493 498
f 384 498 499
f 384 499 385
f 385 499 390
f 385 390 406
f 386 500 387
f 386 391 501
f 386 501 500
f 387 500 502
f 387 502 503
f 387 503 504
f 387 504 403
f 387 403 388
f 389 406 390
f 390 499 505
f 390 505 391
f 391 505 611
f 391 611 501
f 392 393 506
f 392 506 397
f 392 397 394
f 393 507 508
f 393 508 506
f 393 401 507
f 395 509 396
f 395 399 510
f 395 510 509
f 396 511 400
f 396 509 512
f 396 512 511
f 397 506 508
f 397 508 398
f 398 508 399
f 399 513 510
f 399 508 513
f 400 511 514
f 400 514 515
f 400 515 516
f 400 516 517
f 400 517 407
f 401 518 519
f 401 519 507
f 401 402 518
f 402 405 520
f 402 520 521
f 402 521 518
f 403 504 522
f 403 522 404
f 404 522 520
f 404 520 405
f 407 517 523
f 407 523 408
f 408 523 524
f 408 524 409
f 409 524 437
f 409 437 412
f 413 414 415
f 414 437 525
f 414 525 427
f 414 427 415
f 416 526 418
f 416 428 526
f 417 527 419
f 417 528 529
f 417 529 527
f 418 526 528
f 419 527 530
f 419 530 531
f 419 531 420
f 420 531 532
f 420 532 421
f 421 532 533
f 421 533 422
f 422 533 534
f 422 534 535
f 422 535 424
f 422 424 423
f 424 535 637
f 424 637 536
f 424 536 537
f 424 537 425
f 425 537 429
f 427 538 539
f 427 539 540
f 427 540 428
f 427 525 538
f 428 540 526
f 429 537 431
f 429 431 430
f 431 537 639
f 431 639 541
f 433 542 640
f 433 640 543
f 433 541 639
f 433 639 542
f 434 543 567
f 434 567 544
f 434 544 435
f 435 544 461
f 435 461 477
f 437 524 545
f 437 545 546
f 437 546 525
f 438 446 439
f 439 547 548
f 439 548 549
f 439 549 447
f 439 446 445
f 439 445 444
f 439 444 443
f 439 443 547
f 440 550 551
f 440 551 552
f 440 552 553
f 440 553 554
f 440 554 441
f 440 474 550
f 441 554 547
f 441 547 442
f 442 547 443
f 447 555 556
f 447 556 448
f 447 549 555
f 448 556 557
f 448 557 449
f 449 557 558
f 449 558 559
f 449 559 560
f 449 560 450
f 450 560 451
f 451 560 561
f 451 561 452
f 452 561 562
f 452 562 563
f 452 563 453
f 453 563 564
f 453 564 565
f 453 565 566
f 453 566 476
f 453 476 454
f 454 476 455
f 455 476 456
f 459 462 544
f 459 544 567
f 459 567 543
f 459 543 568
f 459 568 460
f 460 568 463
f 461 544 462
f 463 568 569
f 463 569 464
f 464 468 465
f 464 569 570
f 464 570 571
f 464 571 572
f 464 572 468
f 466 573 467
f 466 472 573
f 467 573 473
f 468 572 469
f 469 572 470
f 470 572 635
f 470 635 574
f 470 574 471
f 471 575 576
f 471 576 472
f 471 574 575
f 472 576 577
f 472 577 578
f 472 578 579
f 472 579 580
f 472 580 581
f 472 581 474
f 472 474 573
f 473 573 474
f 474 581 582
f 474 582 583
f 474 583 584
f 474 584 585
f 474 585 586
f 474 586 551
f 474 551 550
f 475 566 565
f 475 565 564
f 475 564 478
f 478 564 563
f 478 563 494
f 479 587 480
f 479 490 587
f 480 587 588
f 480 588 589
f 480 589 481
f 481 589 590
f 481 590 482
f 482 590 591
f 482 591 592
f 482 592 593
f 482 593 483
f 483 593 594
f 483 594 484
f 484 594 595
f 484 595 485
f 485 595 596
f 485 596 486
f 486 596 487
f 487 596 597
f 487 597 488
f 488 597 598
f 488 598 489
f 489 598 599
f 489 599 492
f 490 491 600
f 490 600 587
f 491 497 601
f 491 601 602
f 491 602 600
f 492 599 603
f 492 603 493
f 493 603 604
f 493 604 498
f 494 563 562
f 494 562 605
f 494 605 495
f 495 605 606
f 495 606 496
f 496 606 607
f 496 607 497
f 497 608 609
f 497 609 601
f 497 607 608
f 498 604 499
f 499 604 505
f 500 501 610
f 500 610 502
f 501 611 688
f 501 688 612
f 501 612 613
f 501 613 610
f 502 610 518
f 502 518 503
f 503 518 614
f 503 614 504
f 504 614 521
f 504 521 522
f 505 604 687
f 505 687 611
f 507 519 615
f 507 615 508
f 508 615 513
f 509 616 617
f 509 617 511
f 509 511 512
f 509 510 616
f 510 513 618
f 510 618 616
f 511 617 619
f 511 619 514
f 513 620 618
f 513 615 519
f 513 519 518
f 513 518 620
f 514 619 621
f 514 621 515
f 515 621 622
f 515 622 516
f 516 622 517
f 517 622 523
f 518 613 623
f 518 623 620
f 518 521 614
f 518 610 613
f 520 522 521
f 523 622 545
f 523 545 524
f 525 546 624
f 525 624 625
f 525 625 626
f 525 626 538
f 526 627 528
f 526 540 539
f 526 539 628
f 526 628 627
f 527 629 530
f 527 529 630
f 527 630 629
f 528 627 529
f 529 627 631
f 529 631 632
f 529 632 630
f 530 629 531
f 531 633 532
f 531 629 716
f 531 716 633
f 532 634 533
f 532 633 634
f 533 635 571
f 533 571 534
f 533 634 635
f 534 571 636
f 534 636 637
f 534 637 535
f 536 638 639
f 536 639 537
f 536 637 570
f 536 570 569
f 536 569 638
f 538 626 539
f 539 626 628
f 542 639 569
f 542 569 568
f 542 568 640
f 543 640 568
f 545 641 546
f 545 622 642
f 545 642 703
f 545 703 641
f 546 641 643
f 546 643 644
f 546 644 624
f 547 554 548
f 548 645 549
f 548 554 645
f 549 646 647
f 549 647 555
f 549 645 648
f 549 648 646
f 551 586 552
f 552 554 553
f 552 586 645
f 552 645 649
f 552 649 554
f 554 649 645
f 555 647 650
f 555 650 556
f 556 650 651
f 556 651 652
f 556 652 557
f 557 652 558
f 558 608 653
f 558 653 654
f 558 654 560
f 558 560 559
f 558 652 608
f 560 654 606
f 560 606 655
f 560 655 561
f 561 655 605
f 561 605 562
f 569 639 638
f 570 637 636
f 570 636 571
f 571 635 572
f 574 635 633
f 574 633 723
f 574 723 656
f 574 656 657
f 574 657 658
f 574 658 577
f 574 577 576
f 574 576 575
f 577 658 578
f 578 658 659
f 578 659 660
f 578 660 661
f 578 661 579
f 579 582 580
f 579 661 662
f 579 662 582
f 580 582 581
f 582 662 583
f 583 586 584
f 583 662 663
f 583 663 664
f 583 664 665
f 583 665 666
f 583 666 586
f 584 586 585
f 586 666 667
f 586 667 668
f 586 668 648
f 586 648 645
f 587 669 588
f 587 600 669
f 588 670 671
f 588 671 589
f 588 669 670
f 589 671 672
f 589 672 590
f 590 672 673
f 590 673 591
f 591 673 674
f 591 674 675
f 591 675 592
f 592 675 676
f 592 676 678
f 592 678 593
f 593 677 594
f 593 678 679
f 593 679 680
f 593 680 677
f 594 677 595
f 595 677 596
f 596 677 597
f 597 677 681
f 597 681 598
f 598 681 682
f 598 682 599
f 599 682 683
f 599 683 603
f 600 602 669
f 601 609 602
f 602 684 685
f 602 685 686
f 602 686 669
f 602 609 684
f 603 683 687
f 603 687 604
f 605 655 606
f 606 654 653
f 606 653 607
f 607 653 608
f 608 652 651
f 608 651 609
f 609 651 650
f 609 650 684
f 611 687 688
f 612 688 689
f 612 689 613
f 613 689 690
f 613 690 691
f 613 691 692
f 613 692 693
f 613 693 694
f 613 694 695
f 613 695 696
f 613 696 623
f 616 697 698
f 616 698 617
f 616 618 697
f 617 698 619
f 618 620 699
f 618 699 697
f 619 698 700
f 619 700 701
f 619 701 702
f 619 702 703
f 619 703 642
f 619 642 622
f 619 622 621
f 620 623 704
f 620 704 699
f 623 696 705
f 623 705 706
f 623 706 707
f 623 707 708
f 623 708 709
f 623 709 710
f 623 710 704
f 624 644 711
f 624 711 712
f 624 712 625
f 625 712 628
f 625 628 626
f 627 628 713
f 627 713 631
f 628 712 711
f 628 711 714
f 628 714 713
f 629 715 716
f 629 630 717
f 629 717 718
f 629 718 719
f 629 719 660
f 629 660 715
f 630 632 717
f 631 713 720
f 631 720 632
f 632 721 717
f 632 720 722
f 632 722 721
f 633 716 723
f 633 635 634
f 641 724 643
f 641 703 724
f 643 724 725
f 643 725 726
f 643 726 644
f 644 726 727
f 644 727 728
f 644 728 711
f 646 729 730
f 646 730 685
f 646 685 647
f 646 648 731
f 646 731 668
f 646 668 667
f 646 667 729
f 647 685 684
f 647 684 650
f 648 668 731
f 656 723 657
f 657 723 715
f 657 715 659
f 657 659 658
f 659 715 660
f 660 719 732
f 660 732 661
f 661 732 662
f 662 733 734
f 662 734 663
f 662 732 733
f 663 734 735
f 663 735 736
f 663 736 737
f 663 737 738
f 663 738 664
f 664 738 665
f 665 739 730
f 665 730 666
f 665 738 739
f 666 730 740
f 666 740 741
f 666 741 742
f 666 742 743
f 666 743 729
f 666 729 667
f 669 686 670
f 670 686 744
f 670 744 745
f 670 745 671
f 671 745 746
f 671 746 672
f 672 746 747
f 672 747 748
f 672 748 673
f 673 748 749
f 673 749 674
f 674 749 770
f 674 770 708
f 674 708 707
f 674 707 675
f 675 707 706
f 675 706 750
f 675 750 676
f 676 750 751
f 676 751 678
f 677 680 681
f 678 751 752
f 678 752 679
f 679 752 753
f 679 753 680
f 680 753 754
f 680 754 681
f 681 754 682
f 682 754 755
f 682 755 683
f 683 755 756
f 683 756 687
f 685 730 744
f 685 744 686
f 687 756 688
f 688 690 689
f 688 756 758
f 688 758 690
f 690 757 691
f 690 758 757
f 691 757 692
f 692 757 758
f 692 758 759
f 692 759 760
f 692 760 693
f 693 760 694
f 694 760 761
f 694 761 695
f 695 761 760
f 695 760 696
f 696 760 751
f 696 751 750
f 696 750 706
f 696 706 705
f 697 762 698
f 697 699 763
f 697 763 762
f 698 764 765
f 698 765 700
f 698 762 764
f 699 704 763
f 700 765 766
f 700 766 701
f 701 766 767
f 701 767 768
f 701 768 727
f 701 727 726
f 701 726 702
f 702 726 725
f 702 725 724
f 702 724 703
f 704 769 763
f 704 710 769
f 708 770 709
f 709 770 710
f 710 771 769
f 710 770 772
f 710 772 771
f 711 728 714
f 713 714 773
f 713 773 720
f 714 728 727
f 714 727 773
f 715 723 716
f 717 735 774
f 717 774 718
f 717 721 775
f 717 775 735
f 718 774 733
f 718 733 776
f 718 776 719
f 719 776 733
f 719 733 732
f 720 773 777
f 720 777 778
f 720 778 722
f 721 722 779
f 721 779 780
f 721 780 775
f 722 778 779
f 727 768 773
f 729 743 730
f 730 743 742
f 730 742 741
f 730 741 740
f 730 739 781
f 730 781 782
f 730 782 783
f 730 783 744
f 733 774 735
f 733 735 734
f 735 775 736
f 736 775 780
f 736 780 784
f 736 784 785
f 736 785 737
f 737 785 786
f 737 786 787
f 737 787 788
f 737 788 789
f 737 789 790
f 737 790 791
f 737 791 782
f 737 782 738
f 738 782 781
f 738 781 739
f 744 783 792
f 744 792 793
f 744 793 790
f 744 790 794
f 744 794 795
f 744 795 796
f 744 796 745
f 745 796 746
f 746 797 798
f 746 798 747
f 746 796 797
f 747 798 799
f 747 799 800
f 747 800 748
f 748 801 749
f 748 800 772
f 748 772 801
f 749 801 802
f 749 802 772
f 749 772 770
f 751 760 752
f 752 760 803
f 752 803 804
f 752 804 753
f 753 804 754
f 754 804 755
f 755 804 758
f 755 758 756
f 758 804 760
f 758 760 759
f 760 804 803
f 762 805 806
f 762 806 764
f 762 763 807
f 762 807 786
f 762 786 805
f 763 769 807
f 764 806 765
f 765 808 809
f 765 809 766
f 765 806 808
f 766 809 810
f 766 810 811
f 766 811 767
f 767 811 810
f 767 810 812
f 767 812 773
f 767 773 768
f 769 771 807
f 771 813 807
f 771 772 814
f 771 814 815
f 771 815 799
f 771 799 813
f 772 802 801
f 772 800 815
f 772 815 814
f 773 812 777
f 777 812 810
f 777 810 778
f 778 816 817
f 778 817 779
f 778 810 808
f 778 808 816
f 779 817 818
f 779 818 780
f 780 818 817
f 780 817 784
f 782 791 793
f 782 793 792
f 782 792 783
f 784 817 785
f 785 817 806
f 785 806 805
f 785 805 786
f 786 807 813
f 786 813 819
f 786 819 787
f 787 819 820
f 787 820 788
f 788 820 821
f 788 821 822
f 788 822 794
f 788 794 789
f 789 794 790
f 790 793 791
f 794 822 797
f 794 797 795
f 795 797 796
f 797 822 798
f 798 822 821
f 798 821 823
f 798 823 824
f 798 824 813
f 798 813 799
f 799 815 800
f 806 825 808
f 806 817 825
f 808 825 816
f 808 810 809
f 813 824 819
f 816 825 817
f 819 824 823
f 819 823 820
f 820 823 821

