# https://github.com/mikedh/trimesh

o geometry_0
v 0.00104627 0.06334564 0.00920458
v 0.00297958 0.06334564 0.00857052
v 0.00273632 0.06556394 0.00844588
v 0.00104627 0.06556394 0.00896432
v -0.00095905 0.06556394 0.00895890
v -0.00095905 0.06334564 0.00919554
v -0.00095905 -0.05886015 0.00881078
v 0.00104627 -0.05886015 0.00879633
v 0.00268991 -0.05886015 0.00838266
v 0.00398304 0.06334564 0.00806473
v 0.00369657 -0.05662857 0.00794009
v 0.00373978 0.06556394 0.00791118
v 0.00234581 0.06683913 0.00825079
v 0.00104627 0.06699853 0.00841517
v -0.00095905 0.06699853 0.00841517
v -0.00263629 0.06556394 0.00844046
v -0.00225219 0.06682585 0.00825079
v -0.00287315 0.06334564 0.00856149
v -0.00261228 -0.05886015 0.00839892
v -0.00234181 -0.06107845 0.00828511
v -0.00095905 -0.06107845 0.00861027
v 0.00104627 -0.06107845 0.00861027
v 0.00245304 -0.06107845 0.00828511
v 0.00369337 -0.05886015 0.00793105
v 0.00525858 0.06334564 0.00685624
v 0.00606039 0.06407622 0.00607226
v 0.00489208 0.06556394 0.00689417
v 0.00506013 -0.05662857 0.00694837
v 0.00608599 -0.05662857 0.00610296
v 0.00450638 0.06699853 0.00652025
v 0.00303079 0.06719778 0.00715610
v 0.00104627 0.06759627 0.00709469
v -0.00095905 0.06759627 0.00709469
v -0.00293877 0.06719778 0.00715430
v -0.00363975 0.06556394 0.00790215
v -0.00387661 0.06334564 0.00805208
v -0.00442076 0.06699853 0.00651663
v -0.00361095 -0.05662857 0.00793467
v -0.00361575 -0.05886015 0.00792744
v -0.00334528 -0.06107845 0.00779015
v -0.00400145 -0.06667069 0.00610296
v -0.00203293 -0.06228723 0.00814240
v -0.00095905 -0.06264587 0.00824898
v 0.00104627 -0.06268572 0.00825982
v 0.00216177 -0.06232708 0.00815686
v 0.00345651 -0.06107845 0.00781364
v 0.00493689 -0.06107845 0.00679663
v 0.00526178 -0.05907268 0.00675869
v 0.00606839 0.06260178 0.00608309
v 0.00647330 0.06334564 0.00526118
v 0.00644129 0.06556394 0.00480054
v 0.00589715 0.06556394 0.00581755
v 0.00608119 -0.05847493 0.00609574
v 0.00675337 -0.05662857 0.00506247
v 0.00675497 -0.05441027 0.00506247
v 0.00622843 0.06685241 0.00438145
v 0.00512894 0.06721106 0.00506066
v 0.00305320 0.06780880 0.00506247
v 0.00104627 0.06783538 0.00506247
v -0.00095905 0.06783538 0.00506247
v -0.00296758 0.06779553 0.00506247
v -0.00504332 0.06537798 0.00673340
v -0.00598917 0.06451457 0.00609213
v -0.00497450 0.06334564 0.00706398
v -0.00600517 -0.05662857 0.00610838
v -0.00497450 -0.05662857 0.00694837
v -0.00504332 0.06721106 0.00506608
v -0.00615081 0.06686569 0.00439049
v -0.00575871 0.06598901 0.00574530
v -0.00497450 -0.05886015 0.00693391
v -0.00598437 -0.06000251 0.00608490
v -0.00505772 -0.06087920 0.00663947
v -0.00578271 -0.06147695 0.00585729
v -0.00595876 -0.06656443 0.00401836
v -0.00447997 -0.06694964 0.00506247
v -0.00296758 -0.06753411 0.00506247
v -0.00296758 -0.06692308 0.00635767
v -0.00296758 -0.06551505 0.00683637
v -0.00095905 -0.06551505 0.00749210
v 0.00104627 -0.06551505 0.00751558
v 0.00305320 -0.06551505 0.00685443
v 0.00409187 -0.06667069 0.00610658
v 0.00594036 -0.06107845 0.00593136
v 0.00606359 -0.05994937 0.00607768
v 0.00739354 0.06334564 0.00302845
v 0.00773443 -0.05662857 0.00306819
v 0.00774083 -0.05441027 0.00304471
v 0.00772482 -0.04552378 0.00303206
v 0.00711827 0.06556394 0.00302845
v 0.00660773 -0.05907268 0.00526479
v 0.00773443 -0.05886015 0.00307180
v 0.00645729 0.06706495 0.00302845
v 0.00506013 0.06764941 0.00302845
v 0.00506013 0.06779553 0.00099624
v 0.00305320 0.06782209 -0.00509860
v 0.00104627 0.06782209 -0.00509860
v -0.00296758 0.06782209 0.00302845
v -0.00497450 0.06779553 0.00099624
v -0.00497450 0.06766269 0.00302845
v -0.00629325 0.06537798 0.00506608
v -0.00731592 0.06334564 0.00302845
v -0.00651090 0.06334564 0.00506247
v -0.00599877 0.06334564 0.00610477
v -0.00667735 -0.05662857 0.00506247
v -0.00667255 -0.05886015 0.00506247
v -0.00599877 -0.05886015 0.00610116
v -0.00639407 0.06706495 0.00302845
v -0.00706145 0.06556394 0.00302845
v -0.00642768 -0.06087920 0.00513292
v -0.00644049 -0.06570102 0.00321632
v -0.00624684 -0.06694964 0.00266355
v -0.00629485 -0.06329675 0.00452597
v -0.00755278 -0.06090577 0.00285503
v -0.00516335 -0.06730829 0.00321632
v -0.00497450 -0.06775992 0.00099624
v -0.00296758 -0.06783962 0.00302845
v -0.00095905 -0.06781305 0.00506247
v -0.00095905 -0.06720203 0.00667379
v 0.00104627 -0.06720203 0.00668282
v 0.00305320 -0.06693636 0.00637031
v 0.00305320 -0.06753411 0.00506247
v 0.00456240 -0.06694964 0.00506247
v 0.00603478 -0.06649801 0.00400211
v 0.00662694 -0.06107845 0.00491435
v 0.00780645 0.06334564 0.00099624
v 0.00807211 -0.04435486 0.00201325
v 0.00808492 -0.05886015 0.00205660
v 0.00808332 -0.05662857 0.00205299
v 0.00751517 0.06556394 0.00099624
v 0.00764800 -0.06087920 0.00284058
v 0.00807852 -0.06001579 0.00203673
v 0.00664934 0.06719778 0.00099624
v 0.00506013 0.06779553 -0.00103417
v 0.00665094 0.06721106 -0.00103417
v 0.00506013 0.06766269 -0.00306639
v 0.00514655 0.06723763 -0.00511847
v 0.00453359 0.06701182 -0.00657263
v 0.00305320 0.06723763 -0.00720307
v 0.00104627 0.06763612 -0.00713262
v -0.00095905 0.06763612 -0.00713262
v -0.00296758 0.06779553 -0.00509860
v -0.00497450 0.06779553 -0.00103417
v -0.00661973 0.06722435 -0.00103417
v -0.00660853 0.06721106 0.00099624
v -0.00749036 0.06556394 0.00099624
v -0.00774003 0.06334564 0.00099624
v -0.00800890 -0.05886015 0.00208731
v -0.00765520 -0.05886015 0.00310251
v -0.00709026 -0.06551505 0.00099624
v -0.00800089 -0.06005564 0.00206202
v -0.00645009 -0.06714889 0.00099624
v -0.00645969 -0.06716218 -0.00103417
v -0.00497450 -0.06777320 -0.00103417
v -0.00296758 -0.06783962 -0.00306639
v 0.00305320 -0.06783962 0.00302845
v 0.00104627 -0.06781305 0.00506247
v 0.00506013 -0.06773335 0.00099624
v 0.00524417 -0.06729500 0.00320548
v 0.00632126 -0.06693636 0.00264549
v 0.00648770 -0.06566117 0.00320548
v 0.00781605 0.06112734 0.00099624
v 0.00780805 0.06112734 -0.00103417
v 0.00779684 0.06334564 -0.00103417
v 0.00751037 0.06556394 -0.00103417
v 0.00820495 -0.05886015 0.00099624
v 0.00814253 -0.04349145 0.00117688
v 0.00710546 -0.06551505 0.00099624
v 0.00795849 -0.06151680 0.00099624
v 0.00813933 -0.06040101 0.00099624
v 0.00646689 0.06707823 -0.00306639
v 0.00623803 0.06686569 -0.00445371
v 0.00587154 0.06600229 -0.00580852
v 0.00514655 0.06537798 -0.00678760
v 0.00377179 0.06556394 -0.00795996
v 0.00238423 0.06686569 -0.00831402
v 0.00104627 0.06703838 -0.00849285
v -0.00095905 0.06703838 -0.00849827
v -0.00231301 0.06686569 -0.00832124
v -0.00297558 0.06722435 -0.00720668
v -0.00444796 0.06701182 -0.00657805
v -0.00506092 0.06723763 -0.00513292
v -0.00497450 0.06767598 -0.00306639
v -0.00642288 0.06709151 -0.00306639
v -0.00750477 0.06556394 -0.00103417
v -0.00774803 0.06334564 -0.00103417
v -0.00805371 -0.02775081 0.00062953
v -0.00814493 -0.05886015 0.00099624
v -0.00786326 -0.06154337 0.00099624
v -0.00709986 -0.06551505 -0.00103417
v -0.00806651 -0.06044086 0.00099624
v -0.00618922 -0.06688323 -0.00306639
v -0.00497450 -0.06748097 -0.00306639
v 0.00305320 -0.06783962 -0.00306639
v -0.00296758 -0.06754739 -0.00509860
v -0.00095905 -0.06781305 -0.00509860
v 0.00506013 -0.06773335 -0.00103417
v 0.00650530 -0.06713561 0.00099624
v 0.00815694 -0.04107390 0.00091133
v 0.00813773 -0.02996911 0.00070360
v 0.00813293 -0.02775081 0.00065844
v 0.00810412 -0.01663274 0.00031161
v 0.00808012 -0.00996455 0.00006955
v 0.00807532 -0.00866279 0.00000813
v 0.00807532 -0.00866279 -0.00004968
v 0.00808012 -0.00996455 -0.00012555
v 0.00739034 0.06334564 -0.00306639
v 0.00810412 -0.01663274 -0.00034593
v 0.00813293 -0.02775081 -0.00060425
v 0.00815054 -0.03663729 -0.00075418
v 0.00815374 -0.03885559 -0.00080114
v 0.00804651 -0.03885559 -0.00181635
v 0.00804971 -0.04107390 -0.00184886
v 0.00712627 0.06556394 -0.00306639
v 0.00815534 -0.06050727 -0.00065663
v 0.00819055 -0.05886015 -0.00100346
v 0.00813773 -0.02996911 -0.00063315
v 0.00709106 -0.06551505 -0.00103417
v 0.00638207 0.06537798 -0.00511847
v 0.00607799 0.06452785 -0.00613187
v 0.00276673 0.06556394 -0.00850550
v 0.00398304 0.06334564 -0.00810086
v 0.00104627 0.06556394 -0.00904381
v -0.00095905 0.06556394 -0.00904381
v -0.00267310 0.06556394 -0.00850550
v -0.00367656 0.06556394 -0.00795273
v -0.00483046 0.06556394 -0.00693572
v -0.00583393 0.06556394 -0.00590426
v -0.00617482 0.06687898 -0.00447900
v -0.00709986 0.06556394 -0.00306639
v -0.00733352 0.06334564 -0.00306639
v -0.00800730 -0.05886015 -0.00211802
v -0.00814173 -0.05886015 -0.00103417
v -0.00805371 -0.02775081 -0.00063134
v -0.00806651 -0.06044086 -0.00103417
v -0.00786646 -0.06155665 -0.00103417
v -0.00656212 -0.06551505 -0.00306639
v -0.00800089 -0.06005564 -0.00210176
v -0.00597797 -0.06663085 -0.00408340
v -0.00480486 -0.06689651 -0.00489628
v 0.00104627 -0.06779977 -0.00509860
v 0.00324845 -0.06732158 -0.00529731
v 0.00522497 -0.06728172 -0.00321451
v -0.00402225 -0.06668398 -0.00615716
v -0.00296758 -0.06694964 -0.00641909
v -0.00095905 -0.06720203 -0.00672076
v 0.00104627 -0.06720203 -0.00670270
v 0.00630525 -0.06692308 -0.00263465
v 0.00649250 -0.06712232 -0.00103417
v 0.00659813 0.06334564 -0.00509860
v 0.00807051 -0.05662857 -0.00203312
v 0.00769442 -0.05441027 -0.00306639
v 0.00805291 -0.04330548 -0.00187415
v 0.00806731 -0.05886015 -0.00202047
v 0.00797129 -0.06117143 -0.00121301
v 0.00646369 -0.06558147 -0.00321451
v 0.00750077 -0.06107845 -0.00306639
v 0.00608279 0.06334564 -0.00613909
v 0.00506013 0.06334564 -0.00710733
v 0.00297798 0.06334564 -0.00861027
v 0.00104627 0.06334564 -0.00924974
v 0.00603158 -0.05886015 -0.00607587
v 0.00502812 -0.05886015 -0.00692127
v 0.00364215 -0.05886015 -0.00793828
v -0.00095905 0.06334564 -0.00923890
v -0.00285075 0.06334564 -0.00860124
v -0.00385421 0.06334564 -0.00807376
v -0.00497290 0.06334564 -0.00705675
v -0.00597636 0.06334564 -0.00611380
v -0.00638767 0.06556394 -0.00488725
v -0.00649810 0.06334564 -0.00509679
v -0.00764560 -0.05441027 -0.00309348
v -0.00764080 -0.05886015 -0.00313322
v -0.00755598 -0.06090577 -0.00289297
v -0.00653651 -0.06107845 -0.00492699
v -0.00582753 -0.06107845 -0.00594400
v 0.00270911 -0.06698950 -0.00645702
v 0.00466642 -0.06702934 -0.00475177
v -0.00482406 -0.06107845 -0.00680747
v -0.00333567 -0.06107845 -0.00782267
v -0.00204093 -0.06228723 -0.00818215
v -0.00296758 -0.06551505 -0.00689779
v -0.00095905 -0.06551505 -0.00751919
v 0.00104627 -0.06551505 -0.00749029
v 0.00600437 -0.06636518 -0.00398946
v 0.00769602 -0.05886015 -0.00306639
v 0.00669575 -0.05886015 -0.00505886
v 0.00659653 -0.06107845 -0.00490712
v 0.00263869 -0.05886015 -0.00840434
v 0.00104627 -0.05886015 -0.00879994
v -0.00095905 -0.05886015 -0.00882162
v 0.00589554 -0.06107845 -0.00592233
v 0.00489208 -0.06107845 -0.00678218
v 0.00336208 -0.06107845 -0.00779738
v 0.00235862 -0.06107845 -0.00828511
v -0.00259308 -0.05886015 -0.00842601
v -0.00360774 -0.05662857 -0.00796899
v -0.00361095 -0.05441027 -0.00797260
v -0.00497450 -0.05662857 -0.00696282
v -0.00598757 -0.05662857 -0.00612645
v -0.00664854 -0.05441027 -0.00509860
v -0.00650930 -0.05886015 -0.00529731
v -0.00664534 -0.05662857 -0.00509860
v -0.00596996 -0.05961729 -0.00610658
v 0.00324845 -0.06572758 -0.00667199
v 0.00404706 -0.06660428 -0.00610658
v -0.00359654 -0.05886015 -0.00795635
v -0.00233221 -0.06107845 -0.00831402
v -0.00095905 -0.06107845 -0.00861569
v -0.00095905 -0.06260603 -0.00827427
v 0.00104627 -0.06253961 -0.00825440
v 0.00206574 -0.06220753 -0.00815505
v 0.00104627 -0.06107845 -0.00858678
v -0.00516975 -0.05886015 -0.00678037
v -0.00598597 -0.05812957 -0.00612464
f 1 2 3
f 1 3 4
f 1 4 5
f 1 5 6
f 1 6 7
f 1 7 8
f 1 8 9
f 1 9 2
f 2 10 3
f 2 9 11
f 2 11 10
f 3 10 12
f 3 12 13
f 3 13 4
f 4 13 14
f 4 14 15
f 4 15 5
f 5 16 6
f 5 15 17
f 5 17 16
f 6 16 18
f 6 18 19
f 6 19 7
f 7 19 20
f 7 20 21
f 7 21 22
f 7 22 8
f 8 22 23
f 8 23 9
f 9 23 24
f 9 24 11
f 10 25 26
f 10 26 27
f 10 27 12
f 10 11 28
f 10 28 29
f 10 29 25
f 11 24 28
f 12 27 30
f 12 30 13
f 13 30 31
f 13 31 32
f 13 32 14
f 14 32 33
f 14 33 15
f 15 33 34
f 15 34 17
f 16 35 36
f 16 36 18
f 16 17 35
f 17 34 37
f 17 37 35
f 18 36 38
f 18 38 39
f 18 39 19
f 19 39 20
f 20 40 41
f 20 41 42
f 20 42 21
f 20 39 40
f 21 42 43
f 21 43 44
f 21 44 22
f 22 44 45
f 22 45 23
f 23 45 46
f 23 46 24
f 24 46 47
f 24 47 48
f 24 48 28
f 25 49 26
f 25 29 49
f 26 49 50
f 26 50 51
f 26 51 52
f 26 52 27
f 27 52 30
f 28 48 53
f 28 53 29
f 29 53 54
f 29 54 55
f 29 55 49
f 30 52 56
f 30 56 57
f 30 57 58
f 30 58 31
f 31 58 32
f 32 58 59
f 32 59 60
f 32 60 33
f 33 60 61
f 33 61 34
f 34 61 37
f 35 62 63
f 35 63 36
f 35 37 62
f 36 63 64
f 36 64 65
f 36 65 66
f 36 66 39
f 36 39 38
f 37 61 67
f 37 67 68
f 37 68 69
f 37 69 62
f 39 70 71
f 39 71 72
f 39 72 40
f 39 66 70
f 40 72 41
f 41 73 74
f 41 74 75
f 41 75 76
f 41 76 77
f 41 77 78
f 41 78 42
f 41 72 71
f 41 71 73
f 42 78 79
f 42 79 43
f 43 79 80
f 43 80 44
f 44 80 45
f 45 80 81
f 45 81 82
f 45 82 46
f 46 82 47
f 47 82 83
f 47 83 84
f 47 84 48
f 48 84 53
f 49 55 50
f 50 85 51
f 50 55 86
f 50 86 87
f 50 87 88
f 50 88 85
f 51 85 89
f 51 89 56
f 51 56 52
f 53 84 90
f 53 90 54
f 54 90 91
f 54 91 55
f 55 91 86
f 56 92 57
f 56 89 92
f 57 92 93
f 57 93 58
f 58 94 59
f 58 93 94
f 59 95 96
f 59 96 60
f 59 94 95
f 60 96 97
f 60 97 61
f 61 97 98
f 61 98 99
f 61 99 67
f 62 69 63
f 63 69 100
f 63 100 101
f 63 101 102
f 63 102 103
f 63 103 64
f 64 103 65
f 65 104 105
f 65 105 106
f 65 106 66
f 65 103 104
f 66 106 70
f 67 107 68
f 67 99 107
f 68 107 108
f 68 108 100
f 68 100 69
f 70 106 71
f 71 109 74
f 71 74 73
f 71 106 105
f 71 105 109
f 74 110 111
f 74 111 75
f 74 109 112
f 74 112 113
f 74 113 110
f 75 111 114
f 75 114 76
f 76 114 115
f 76 115 116
f 76 116 117
f 76 117 118
f 76 118 77
f 77 118 79
f 77 79 78
f 79 118 80
f 80 118 119
f 80 119 120
f 80 120 81
f 81 120 82
f 82 120 121
f 82 121 122
f 82 122 123
f 82 123 83
f 83 123 124
f 83 124 84
f 84 124 90
f 85 125 89
f 85 88 126
f 85 126 125
f 86 91 127
f 86 127 87
f 87 127 128
f 87 128 126
f 87 126 88
f 89 125 129
f 89 129 92
f 90 124 91
f 91 124 130
f 91 130 131
f 91 131 127
f 92 132 93
f 92 129 132
f 93 132 94
f 94 133 95
f 94 132 134
f 94 134 133
f 95 133 135
f 95 135 136
f 95 136 137
f 95 137 138
f 95 138 139
f 95 139 140
f 95 140 96
f 96 140 141
f 96 141 97
f 97 141 142
f 97 142 98
f 98 142 143
f 98 143 144
f 98 144 99
f 99 144 107
f 100 108 101
f 101 108 145
f 101 145 146
f 101 146 147
f 101 147 148
f 101 148 102
f 102 148 103
f 103 148 104
f 104 148 105
f 105 148 109
f 107 144 145
f 107 145 108
f 109 148 113
f 109 113 112
f 110 149 111
f 110 113 150
f 110 150 149
f 111 151 114
f 111 149 151
f 113 148 150
f 114 151 115
f 115 151 152
f 115 152 153
f 115 153 116
f 116 154 193
f 116 193 155
f 116 155 156
f 116 156 117
f 116 153 154
f 117 156 119
f 117 119 118
f 119 156 121
f 119 121 120
f 121 156 155
f 121 155 157
f 121 157 158
f 121 158 122
f 122 159 123
f 122 158 159
f 123 159 160
f 123 160 130
f 123 130 124
f 125 126 161
f 125 161 162
f 125 162 163
f 125 163 164
f 125 164 129
f 126 128 165
f 126 165 166
f 126 166 161
f 127 131 165
f 127 165 128
f 129 164 134
f 129 134 132
f 130 160 131
f 131 160 167
f 131 167 168
f 131 168 169
f 131 169 165
f 133 134 135
f 134 170 135
f 134 164 170
f 135 170 136
f 136 170 171
f 136 171 137
f 137 171 172
f 137 172 173
f 137 173 174
f 137 174 175
f 137 175 138
f 138 175 176
f 138 176 139
f 139 176 177
f 139 177 140
f 140 177 178
f 140 178 179
f 140 179 141
f 141 179 180
f 141 180 181
f 141 181 182
f 141 182 142
f 142 182 143
f 143 182 183
f 143 183 184
f 143 184 145
f 143 145 144
f 145 184 146
f 146 184 185
f 146 185 186
f 146 186 187
f 146 187 147
f 147 187 150
f 147 150 148
f 149 188 189
f 149 189 152
f 149 152 151
f 149 150 188
f 150 190 188
f 150 187 190
f 152 191 192
f 152 192 153
f 152 189 191
f 153 192 194
f 153 194 154
f 154 194 195
f 154 195 193
f 155 193 196
f 155 196 157
f 157 196 197
f 157 197 158
f 158 197 159
f 159 197 167
f 159 167 160
f 161 166 198
f 161 198 199
f 161 199 200
f 161 200 201
f 161 201 202
f 161 202 203
f 161 203 204
f 161 204 205
f 161 205 162
f 162 206 163
f 162 205 207
f 162 207 208
f 162 208 209
f 162 209 210
f 162 210 211
f 162 211 212
f 162 212 206
f 163 206 213
f 163 213 164
f 164 213 170
f 165 198 166
f 165 169 214
f 165 214 215
f 165 215 209
f 165 209 216
f 165 216 208
f 165 208 200
f 165 200 199
f 165 199 198
f 167 217 168
f 167 197 217
f 168 217 214
f 168 214 169
f 170 213 171
f 171 213 218
f 171 218 172
f 172 218 219
f 172 219 173
f 173 219 174
f 174 220 175
f 174 219 221
f 174 221 220
f 175 220 222
f 175 222 176
f 176 222 177
f 177 222 223
f 177 223 178
f 178 180 179
f 178 223 224
f 178 224 225
f 178 225 180
f 180 225 226
f 180 226 227
f 180 227 228
f 180 228 181
f 181 228 183
f 181 183 182
f 183 228 229
f 183 229 184
f 184 229 185
f 185 229 230
f 185 230 231
f 185 231 232
f 185 232 233
f 185 233 186
f 186 233 187
f 187 233 232
f 187 232 234
f 187 234 190
f 188 235 189
f 188 190 235
f 189 236 191
f 189 235 237
f 189 237 236
f 190 234 235
f 191 238 192
f 191 236 238
f 192 238 239
f 192 239 194
f 193 195 240
f 193 240 241
f 193 241 242
f 193 242 196
f 194 239 243
f 194 243 244
f 194 244 245
f 194 245 195
f 195 245 246
f 195 246 240
f 196 242 247
f 196 247 248
f 196 248 197
f 197 248 217
f 200 208 207
f 200 207 201
f 201 207 205
f 201 205 202
f 202 205 204
f 202 204 203
f 206 249 219
f 206 219 218
f 206 218 213
f 206 212 250
f 206 250 251
f 206 251 249
f 208 216 209
f 209 215 210
f 210 215 212
f 210 212 211
f 212 215 252
f 212 252 250
f 214 253 215
f 214 217 254
f 214 254 253
f 215 253 250
f 215 250 252
f 217 248 247
f 217 247 255
f 217 255 256
f 217 256 254
f 219 249 257
f 219 257 258
f 219 258 221
f 220 221 259
f 220 259 260
f 220 260 222
f 221 258 261
f 221 261 262
f 221 262 263
f 221 263 259
f 222 260 223
f 223 260 264
f 223 264 224
f 224 264 265
f 224 265 266
f 224 266 225
f 225 266 226
f 226 266 267
f 226 267 268
f 226 268 227
f 227 268 269
f 227 269 228
f 228 269 229
f 229 269 230
f 230 269 270
f 230 270 271
f 230 271 231
f 231 271 272
f 231 272 237
f 231 237 232
f 232 237 234
f 234 237 235
f 236 237 273
f 236 273 238
f 237 272 273
f 238 243 239
f 238 273 274
f 238 274 275
f 238 275 243
f 240 246 276
f 240 276 241
f 241 276 277
f 241 277 242
f 242 277 247
f 243 278 279
f 243 279 280
f 243 280 281
f 243 281 244
f 243 275 278
f 244 281 282
f 244 282 245
f 245 282 246
f 246 282 283
f 246 283 276
f 247 277 284
f 247 284 255
f 249 251 257
f 250 253 285
f 250 285 251
f 251 285 286
f 251 286 257
f 253 254 256
f 253 256 285
f 255 284 256
f 256 287 285
f 256 284 287
f 257 286 261
f 257 261 258
f 259 263 288
f 259 288 260
f 260 288 289
f 260 289 290
f 260 290 264
f 261 286 287
f 261 287 291
f 261 291 292
f 261 292 262
f 262 292 263
f 263 292 293
f 263 293 294
f 263 294 288
f 264 290 295
f 264 295 265
f 265 295 296
f 265 296 297
f 265 297 266
f 266 297 298
f 266 298 299
f 266 299 267
f 267 299 268
f 268 270 269
f 268 299 300
f 268 300 270
f 270 300 272
f 270 272 271
f 272 301 274
f 272 274 273
f 272 300 302
f 272 302 301
f 274 301 303
f 274 303 275
f 275 303 278
f 276 304 305
f 276 305 277
f 276 283 304
f 277 305 284
f 278 303 306
f 278 306 279
f 279 306 307
f 279 307 280
f 280 307 308
f 280 308 309
f 280 309 282
f 280 282 281
f 282 309 283
f 283 309 310
f 283 310 311
f 283 311 304
f 284 305 291
f 284 291 287
f 285 287 286
f 288 294 289
f 289 294 312
f 289 312 308
f 289 308 290
f 290 308 307
f 290 307 295
f 291 305 292
f 292 305 293
f 293 305 311
f 293 311 294
f 294 311 312
f 295 307 306
f 295 306 296
f 296 298 297
f 296 306 298
f 298 306 313
f 298 313 314
f 298 314 299
f 299 314 302
f 299 302 300
f 301 302 314
f 301 314 303
f 303 314 313
f 303 313 306
f 304 311 305
f 308 312 309
f 309 312 310
f 310 312 311

