# https://github.com/mikedh/trimesh

o geometry_0
v -0.04491835 0.01070599 0.00141065
v -0.04491835 0.01070175 -0.00136035
v -0.04803532 0.01062984 -0.00136035
v -0.04803532 0.01062984 0.00141065
v -0.04491835 0.00992341 0.00418166
v 0.08851732 0.01038661 0.00141065
v 0.08851732 0.01045429 -0.00136035
v -0.04491835 0.00992130 -0.00413339
v -0.05113373 0.01052621 -0.00136035
v -0.05423213 0.01042045 0.00141065
v -0.04803532 0.00980497 0.00418166
v -0.04491835 0.00878762 0.00632150
v 0.08851732 0.00920852 0.00418166
v 0.09161573 0.01027451 0.00141065
v 0.09161573 0.01034431 -0.00136035
v 0.09161573 0.00938195 -0.00413339
v 0.08851732 0.00944964 -0.00413339
v -0.04491835 0.00878973 -0.00626305
v -0.04803532 0.00979016 -0.00413339
v -0.08527188 0.00856131 -0.00335971
v -0.05423213 0.01041834 -0.00136035
v -0.05734910 0.01029566 0.00141065
v -0.04803532 0.00871148 0.00621563
v -0.08527188 0.00854439 0.00338965
v -0.05423213 0.00953212 0.00418166
v -0.04491835 0.00754607 0.00770802
v 0.07300672 0.00835826 0.00571884
v 0.08851732 0.00829481 0.00563740
v 0.09083649 0.00827577 0.00561500
v 0.09176415 0.00895682 0.00444634
v 0.09289591 0.00821444 0.00554578
v 0.09367515 0.00877704 0.00369709
v 0.09395345 0.00918525 0.00141065
v 0.09397201 0.00921698 -0.00136035
v 0.09365659 0.00875378 -0.00413339
v 0.09330409 0.00834134 -0.00564614
v 0.09161573 0.00844286 -0.00577237
v 0.08851732 0.00846824 -0.00580699
v -0.04491835 0.00752281 -0.00764957
v -0.08527188 0.00632145 -0.00630784
v -0.08527188 0.00771105 -0.00474623
v -0.08838884 0.00846613 -0.00318868
v -0.08527188 0.00913026 -0.00136035
v -0.05734910 0.01029143 -0.00136035
v -0.08527188 0.00911122 0.00141065
v -0.05423213 0.00855496 0.00599166
v -0.08838884 0.00843863 0.00318809
v -0.08527188 0.00770259 0.00477617
v -0.08217348 0.00779777 0.00490240
v -0.07907507 0.00788448 0.00502049
v -0.05734910 0.00847247 0.00587968
v -0.08527188 0.00631299 0.00633982
v -0.04803532 0.00603803 0.00872602
v -0.04491835 0.00615859 0.00880542
v 0.06679135 0.00543312 0.00833104
v 0.06988976 0.00684599 0.00709314
v 0.08851732 0.00684599 0.00686104
v 0.07300672 0.00684599 0.00705853
v 0.06988976 0.00540562 0.00831678
v 0.09176415 0.00711037 0.00650881
v 0.09161573 0.00499742 0.00809486
v 0.09347107 0.00322287 0.00856314
v 0.09369370 0.00636164 0.00627060
v 0.09412043 0.00711037 0.00444634
v 0.09476980 0.00684599 0.00141065
v 0.09478835 0.00684599 -0.00136035
v 0.09447295 0.00684599 -0.00413339
v 0.09358238 0.00657949 -0.00670487
v 0.09319276 0.00547542 -0.00830517
v 0.09161573 0.00696654 -0.00715889
v 0.08851732 0.00703846 -0.00719351
v -0.04491835 0.00613321 -0.00873680
v 0.08851732 0.00565097 -0.00842936
v -0.05970537 0.00552195 -0.00833571
v -0.08838884 0.00621781 -0.00620401
v -0.04803532 0.00600630 -0.00865332
v -0.08838884 0.00760741 -0.00457520
v -0.09029984 0.00834557 -0.00296269
v -0.08838884 0.00893567 -0.00136035
v -0.08838884 0.00891029 0.00141065
v -0.09022563 0.00832230 0.00296820
v -0.08838884 0.00757568 0.00457461
v -0.08838884 0.00618608 0.00621563
v -0.07907507 0.00455748 0.00791569
v -0.07595810 0.00473726 0.00799306
v -0.06200598 0.00545850 0.00834325
v -0.06044751 0.00552618 0.00838804
v -0.04491835 0.00406890 0.00975420
v -0.04181995 0.00406890 0.00975013
v 0.06988976 0.00401602 0.00889094
v 0.08851732 0.00510951 0.00818037
v 0.07300672 0.00535909 0.00829439
v 0.07300672 0.00396949 0.00887261
v 0.09161573 0.00360782 0.00871788
v 0.09371225 0.00129182 0.00877081
v 0.09399055 0.00411755 0.00709925
v 0.09161573 0.00129182 0.00930017
v 0.09478835 0.00406890 0.00418166
v 0.09480691 0.00406890 0.00141065
v 0.09480691 0.00406890 -0.00413339
v 0.09469558 0.00129182 -0.00690643
v 0.09432451 0.00406890 -0.00690643
v 0.09350816 0.00406890 -0.00860446
v 0.09161573 0.00129182 -0.00984031
v 0.09161573 0.00406890 -0.00905442
v 0.09161573 0.00557695 -0.00837643
v -0.04491835 0.00406890 -0.00968558
v -0.04181995 0.00611629 -0.00873273
v -0.04181995 0.00406890 -0.00968558
v 0.08851732 0.00406890 -0.00917861
v -0.06176479 0.00543312 -0.00828073
v -0.08838884 0.00406890 -0.00751316
v -0.09148725 0.00581595 -0.00584160
v -0.07595810 0.00471400 -0.00792647
v -0.07907507 0.00454479 -0.00785114
v -0.08217348 0.00435655 -0.00777377
v -0.09139449 0.00722881 -0.00398680
v -0.09235926 0.00790987 -0.00136035
v -0.09080078 0.00852112 -0.00136035
v -0.09076367 0.00850420 0.00141065
v -0.09230360 0.00790141 0.00141065
v -0.09161713 0.00690521 0.00425495
v -0.09093065 0.00588998 0.00595095
v -0.08838884 0.00406890 0.00749424
v -0.08217348 0.00435232 0.00782611
v -0.07907507 0.00316788 0.00853667
v -0.08217348 0.00296272 0.00845320
v -0.07595810 0.00334766 0.00861404
v -0.04803532 0.00129182 0.01028356
v -0.04491835 0.00129182 0.01041183
v -0.04181995 0.00129182 0.01043016
v 0.07300672 0.00129182 0.00958114
v 0.08851732 0.00371991 0.00876267
v 0.08851732 0.00129182 0.00940197
v 0.09369370 -0.00148527 0.00875452
v 0.09452860 -0.00148527 0.00695470
v 0.09452860 0.00129182 0.00695470
v 0.09161573 -0.00148527 0.00927371
v 0.09482545 -0.00148527 0.00418166
v 0.09480691 -0.00148527 -0.00413339
v 0.09469558 -0.00148527 -0.00690643
v 0.09387923 0.00129182 -0.00898112
v 0.09161573 -0.00148527 -0.00983624
v 0.08851732 -0.00148527 -0.01001541
v 0.08851732 0.00129182 -0.01001134
v -0.04491835 0.00129182 -0.01036968
v -0.06044751 0.00129182 -0.00973851
v -0.08217348 0.00296695 -0.00840697
v -0.07907507 0.00315731 -0.00848637
v -0.07595810 0.00332651 -0.00855967
v -0.04181995 0.00129182 -0.01036764
v -0.08549452 0.00386585 -0.00780838
v -0.08666338 0.00261373 -0.00828481
v -0.08838884 0.00204267 -0.00821558
v -0.09148725 0.00406890 -0.00681074
v -0.09304574 0.00547119 -0.00553213
v -0.09339824 0.00593439 -0.00413339
v -0.09378787 0.00652027 -0.00136035
v -0.09380642 0.00651181 0.00141065
v -0.09350957 0.00606976 0.00369505
v -0.09300863 0.00542889 0.00554374
v -0.09178411 0.00432905 0.00654342
v -0.08857438 0.00145468 0.00824145
v -0.08645930 0.00248894 0.00831678
v -0.08438132 0.00279563 0.00838804
v -0.08536465 0.00386162 0.00783425
v -0.09148725 0.00129182 0.00757364
v -0.05734910 0.00129182 0.00989265
v -0.07595810 0.00129182 0.00908843
v -0.07285969 0.00129182 0.00922688
v -0.06044751 0.00129182 0.00976031
v -0.04491835 -0.00148527 0.01035075
v -0.05423213 -0.00148527 0.00996188
v -0.04181995 -0.00148527 0.01037315
v 0.08851732 -0.00148527 0.00937143
v 0.09345251 -0.00334864 0.00854278
v 0.09399055 -0.00426870 0.00707686
v 0.09480691 -0.00426235 0.00418166
v 0.09161573 -0.00369763 0.00869141
v 0.09480691 -0.00426235 -0.00136035
v 0.09478835 -0.00426235 -0.00413339
v 0.09406477 -0.00452674 -0.00717518
v 0.09360094 -0.00377800 -0.00868793
v 0.09387923 -0.00148527 -0.00897501
v 0.09187548 -0.00452674 -0.00889153
v 0.08851732 -0.00426235 -0.00919897
v 0.06369294 -0.00426235 -0.00943922
v 0.06057598 -0.00426235 -0.00946162
v 0.06057598 -0.00148527 -0.01017422
v -0.04181995 -0.00148527 -0.01029638
v -0.04491835 -0.00148527 -0.01027602
v -0.05423213 -0.00148527 -0.00991972
v -0.05734910 -0.00148527 -0.00979552
v -0.06354591 -0.00148527 -0.00953288
v -0.06666288 -0.00148527 -0.00939646
v -0.06354591 0.00129182 -0.00960210
v -0.08460396 0.00280409 -0.00834181
v 0.05747757 -0.00148527 -0.01017829
v -0.07907507 0.00129182 -0.00886303
v -0.08217348 0.00129182 -0.00870219
v -0.08549452 0.00152870 -0.00849248
v -0.08838884 0.00065307 -0.00839068
v -0.06666288 0.00129182 -0.00945754
v -0.06976128 0.00129182 -0.00931299
v -0.07285969 0.00129182 -0.00916436
v -0.08998443 0.00004604 -0.00831127
v -0.09120896 0.00109934 -0.00773712
v -0.09336115 0.00406890 -0.00587621
v -0.09414038 0.00406890 -0.00413339
v -0.09462277 0.00406890 -0.00136035
v -0.09462277 0.00406890 0.00141065
v -0.09391774 0.00432905 0.00444430
v -0.09347246 0.00357609 0.00600592
v -0.08766526 -0.00047638 0.00843691
v -0.08766526 0.00063615 0.00843691
v -0.08536465 0.00145468 0.00852446
v -0.08217348 0.00129182 0.00874842
v -0.07907507 0.00129182 0.00892555
v -0.09373222 0.00129182 0.00629503
v -0.09362089 -0.00148527 0.00617694
v -0.09148725 -0.00148527 0.00735579
v -0.05734910 -0.00148527 0.00982953
v -0.07595810 -0.00148527 0.00899070
v -0.07285969 -0.00148527 0.00914137
v -0.04491835 -0.00426235 0.00956282
v -0.04181995 -0.00426235 0.00957707
v 0.08851732 -0.00379492 0.00873416
v 0.09369370 -0.00643453 0.00623395
v 0.09161573 -0.00508723 0.00803378
v 0.09406477 -0.00723191 0.00434454
v 0.09469558 -0.00704155 0.00141065
v 0.08851732 -0.00518452 0.00810707
v 0.09469558 -0.00704155 -0.00136035
v 0.09406477 -0.00731440 -0.00440621
v 0.09369370 -0.00657201 -0.00642797
v 0.09308144 -0.00563080 -0.00827666
v 0.09102202 -0.00578943 -0.00839475
v 0.08851732 -0.00585923 -0.00844565
v 0.06369294 -0.00601575 -0.00855559
v 0.07920354 -0.00592268 -0.00849044
v 0.06057598 -0.00602632 -0.00856577
v 0.05747757 -0.00426235 -0.00946772
v -0.04181995 -0.00426235 -0.00951863
v -0.04491835 -0.00426235 -0.00946772
v -0.04803532 -0.00426235 -0.00935371
v -0.05113373 -0.00426235 -0.00922748
v -0.06666288 -0.00384357 -0.00871644
v -0.06976128 -0.00365110 -0.00863296
v -0.07285969 -0.00345228 -0.00854338
v -0.07595810 -0.00323655 -0.00844972
v -0.08080053 -0.00289813 -0.00830313
v -0.06976128 -0.00148527 -0.00924173
v -0.08838884 -0.00048907 -0.00839068
v -0.08998443 -0.00017181 -0.00831127
v -0.09120896 -0.00125261 -0.00759460
v -0.09365800 -0.00148527 -0.00619179
v -0.09373222 0.00129182 -0.00628341
v -0.09456711 0.00129182 -0.00413339
v -0.09469699 0.00129182 -0.00136035
v -0.09469699 0.00129182 0.00141065
v -0.09454856 0.00129182 0.00418166
v -0.08527188 -0.00231649 0.00819870
v -0.08527188 -0.00092689 0.00853667
v -0.08857438 -0.00143662 0.00809079
v -0.09445579 -0.00148527 0.00418166
v -0.09332404 -0.00335076 0.00584915
v -0.09139449 -0.00427081 0.00622377
v -0.07595810 -0.00326193 0.00851835
v -0.07907507 -0.00148527 0.00881560
v -0.08096751 -0.00292775 0.00836565
v -0.07907507 -0.00306099 0.00842469
v -0.04491835 -0.00615534 0.00867716
v -0.07285969 -0.00343325 0.00859775
v -0.05423213 -0.00426235 0.00912508
v -0.05645854 -0.00570483 0.00837786
v -0.04181995 -0.00616169 0.00867919
v 0.09161573 -0.00690830 0.00664726
v 0.09161573 -0.00829790 0.00539308
v 0.09358238 -0.00881187 0.00353013
v 0.09386068 -0.00912701 0.00141065
v 0.09387923 -0.00915662 -0.00136035
v 0.08851732 -0.00697176 0.00672055
v 0.09360094 -0.00885417 -0.00366511
v 0.09313710 -0.00842481 -0.00551380
v 0.09207956 -0.00710712 -0.00697565
v 0.08851732 -0.00724883 -0.00713853
v 0.09107768 -0.00854748 -0.00567465
v 0.06679135 -0.00737785 -0.00727087
v 0.06369294 -0.00740535 -0.00727698
v 0.06057598 -0.00741592 -0.00728309
v -0.04181995 -0.00757667 -0.00756813
v -0.04181995 -0.00618707 -0.00863907
v -0.04491835 -0.00615111 -0.00861260
v -0.04803532 -0.00605170 -0.00855152
v -0.05423213 -0.00583385 -0.00841307
v -0.05734910 -0.00571752 -0.00833774
v -0.05423213 -0.00426235 -0.00909921
v -0.06354591 -0.00540872 -0.00816672
v -0.06354591 -0.00401912 -0.00878566
v -0.05894468 -0.00565618 -0.00829498
v -0.06666288 -0.00523105 -0.00807102
v -0.07285969 -0.00484188 -0.00786946
v -0.06976128 -0.00504070 -0.00797126
v -0.08196939 -0.00400009 -0.00765975
v -0.08527188 -0.00426235 -0.00729123
v -0.08838884 -0.00426235 -0.00703877
v -0.08285995 -0.00266759 -0.00824205
v -0.08196939 -0.00163755 -0.00853523
v -0.07595810 -0.00148527 -0.00890375
v -0.07285969 -0.00148527 -0.00907478
v -0.08527188 -0.00097131 -0.00850469
v -0.08527188 -0.00236091 -0.00815857
v -0.08838884 -0.00187867 -0.00804048
v -0.09146870 -0.00431312 -0.00627730
v -0.09337970 -0.00341844 -0.00585992
v -0.09449290 -0.00148527 -0.00413339
v -0.09469699 -0.00148527 -0.00136035
v -0.09471554 -0.00148527 0.00141065
v -0.08838884 -0.00426235 0.00696284
v -0.08304548 -0.00267394 0.00829439
v -0.08208071 -0.00164390 0.00859164
v -0.09445579 -0.00426235 0.00141065
v -0.09373222 -0.00427081 0.00421016
v -0.09336115 -0.00597979 0.00330414
v -0.09235926 -0.00520356 0.00515283
v -0.09029984 -0.00579578 0.00570866
v -0.07595810 -0.00465153 0.00778742
v -0.05853651 -0.00561177 0.00832086
v -0.08527188 -0.00426235 0.00728249
v -0.08208071 -0.00401701 0.00768969
v -0.07907507 -0.00445059 0.00768155
v -0.04491835 -0.00754494 0.00756753
v -0.04181995 -0.00755128 0.00758586
v -0.07595810 -0.00652548 0.00640090
v 0.08851732 -0.00836136 0.00548063
v 0.08851732 -0.00918835 0.00409411
v 0.09161573 -0.00909740 0.00400656
v 0.09161573 -0.01004072 0.00141065
v 0.09161573 -0.01011686 -0.00136035
v 0.09191258 -0.00909529 -0.00440621
v 0.08851732 -0.00860459 -0.00575201
v 0.08851732 -0.00945273 -0.00413339
v 0.06988976 -0.00869131 -0.00587214
v 0.06679135 -0.00869765 -0.00588436
v -0.04181995 -0.00894723 -0.00618161
v -0.04491835 -0.00894723 -0.00616532
v -0.04491835 -0.00754071 -0.00755184
v -0.08527188 -0.00620822 -0.00604113
v -0.05423213 -0.00722133 -0.00725866
v -0.05734910 -0.00710712 -0.00716093
v -0.07285969 -0.00671160 -0.00648294
v -0.07595810 -0.00659104 -0.00637503
v -0.07907507 -0.00646202 -0.00626509
v -0.08838884 -0.00605382 -0.00590471
v -0.09041116 -0.00586346 -0.00572555
v -0.09248913 -0.00527124 -0.00513714
v -0.09376931 -0.00431312 -0.00418022
v -0.09336115 -0.00599036 -0.00328845
v -0.09445579 -0.00426235 -0.00136035
v -0.08838884 -0.00596710 0.00587358
v -0.09362089 -0.00629493 -0.00136035
v -0.09362089 -0.00628647 0.00141065
v -0.09122751 -0.00772261 0.00121112
v -0.09139449 -0.00638588 0.00421016
v -0.08838884 -0.00719595 0.00418166
v -0.08527188 -0.00614053 0.00604053
v -0.08217348 -0.00628436 0.00617694
v -0.07907507 -0.00640915 0.00629503
v -0.04491835 -0.00891550 0.00618101
v -0.04181995 -0.00893031 0.00619934
v -0.06195033 -0.00842692 0.00556410
v -0.05987235 -0.00849038 0.00564351
v -0.05734910 -0.00856652 0.00573716
v -0.05423213 -0.00865747 0.00585118
v 0.08851732 -0.01025223 0.00141065
v -0.04181995 -0.01003649 0.00418166
v 0.08851732 -0.01034318 -0.00136035
v 0.06988976 -0.00958598 -0.00413339
v -0.04181995 -0.01008302 -0.00413339
v -0.04491835 -0.01009571 -0.00413339
v -0.05423213 -0.00871457 -0.00587214
v -0.05734910 -0.00863632 -0.00577441
v -0.06044751 -0.00854748 -0.00566650
v -0.06274812 -0.00847768 -0.00557895
v -0.06480754 -0.00840789 -0.00548937
v -0.06666288 -0.00694849 -0.00668451
v -0.08838884 -0.00730382 -0.00413339
v -0.06666288 -0.00833598 -0.00538350
v -0.06976128 -0.00821753 -0.00519822
v -0.07285969 -0.00810120 -0.00500480
v -0.07595810 -0.00798064 -0.00480324
v -0.08217348 -0.00772472 -0.00440214
v -0.09146870 -0.00644510 -0.00418022
v -0.09122751 -0.00773953 -0.00116897
v -0.08530899 -0.00768665 0.00395770
v -0.08217348 -0.00767184 0.00441172
v -0.09002154 -0.00845653 0.00015647
v -0.08838884 -0.00827041 0.00207032
v -0.08636653 -0.00839097 0.00262208
v -0.08430711 -0.00847557 0.00288472
v -0.07907507 -0.00779875 0.00458886
v -0.06666288 -0.00824714 0.00530757
v -0.06354591 -0.00836559 0.00548063
v -0.04491835 -0.01002169 0.00418166
v -0.05423213 -0.00960713 0.00418166
v -0.05113373 -0.00975096 0.00418166
v -0.04803532 -0.00988632 0.00418166
v -0.08217348 -0.00854537 0.00302520
v -0.06666288 -0.00903606 0.00392105
v -0.06354591 -0.00913759 0.00409411
v -0.06072581 -0.00910798 0.00445652
v -0.05734910 -0.00944850 0.00418166
v -0.04181995 -0.01084445 0.00141065
v -0.04491835 -0.01085714 0.00141065
v -0.04491835 -0.01090155 -0.00136035
v -0.04803532 -0.01079791 -0.00136035
v -0.05423213 -0.01057583 -0.00136035
v -0.05734910 -0.01045104 -0.00136035
v -0.06044751 -0.01031568 -0.00136035
v -0.05423213 -0.00968327 -0.00413339
v -0.05734910 -0.00953522 -0.00413339
v -0.06044751 -0.00937659 -0.00413339
v -0.06369434 -0.00905087 -0.00439196
v -0.06666288 -0.00906567 -0.00399698
v -0.08217348 -0.00855806 -0.00301766
v -0.08536465 -0.00774376 -0.00392368
v -0.08438132 -0.00848192 -0.00285885
v -0.08644075 -0.00839731 -0.00259417
v -0.08838884 -0.00829156 -0.00204648
v -0.09002154 -0.00845653 -0.00011635
v -0.06354591 -0.01014436 -0.00136035
v -0.08838884 -0.00856017 0.00068380
v -0.08530899 -0.00868073 0.00158168
v -0.08217348 -0.00892396 0.00141065
v -0.06354591 -0.01011263 0.00141065
v -0.06044751 -0.01029030 0.00141065
v -0.05734910 -0.01043412 0.00141065
v -0.05423213 -0.01055680 0.00141065
v -0.05113373 -0.01066255 0.00141065
v -0.04803532 -0.01076407 0.00141065
v -0.08217348 -0.00893454 -0.00136035
v -0.08536465 -0.00868496 -0.00154563
v -0.08838884 -0.00856017 -0.00065996
f 1 2 3
f 1 3 4
f 1 4 5
f 1 5 6
f 1 6 7
f 1 7 2
f 2 8 3
f 2 7 8
f 3 8 9
f 3 9 4
f 4 9 10
f 4 10 5
f 5 10 11
f 5 11 12
f 5 12 13
f 5 13 6
f 6 13 14
f 6 14 15
f 6 15 7
f 7 15 16
f 7 16 17
f 7 17 8
f 8 18 19
f 8 19 20
f 8 20 21
f 8 21 9
f 8 17 18
f 9 21 10
f 10 21 22
f 10 22 11
f 11 23 12
f 11 22 24
f 11 24 25
f 11 25 23
f 12 23 26
f 12 26 27
f 12 27 13
f 13 27 28
f 13 28 29
f 13 29 30
f 13 30 14
f 14 30 31
f 14 31 32
f 14 32 33
f 14 33 15
f 15 33 34
f 15 34 35
f 15 35 36
f 15 36 16
f 16 37 17
f 16 36 37
f 17 37 38
f 17 38 18
f 18 39 40
f 18 40 41
f 18 41 20
f 18 20 19
f 18 38 39
f 20 41 42
f 20 42 43
f 20 43 44
f 20 44 21
f 21 44 22
f 22 44 43
f 22 43 45
f 22 45 24
f 23 25 46
f 23 46 26
f 24 45 47
f 24 47 48
f 24 48 49
f 24 49 50
f 24 50 51
f 24 51 46
f 24 46 25
f 26 46 51
f 26 51 52
f 26 52 53
f 26 53 54
f 26 54 55
f 26 55 56
f 26 56 28
f 26 28 27
f 28 57 29
f 28 56 58
f 28 58 59
f 28 59 57
f 29 57 60
f 29 60 31
f 29 31 30
f 31 60 61
f 31 61 62
f 31 62 63
f 31 63 32
f 32 63 64
f 32 64 33
f 33 64 65
f 33 65 34
f 34 65 66
f 34 66 67
f 34 67 35
f 35 67 36
f 36 67 68
f 36 68 69
f 36 69 70
f 36 70 37
f 37 70 71
f 37 71 38
f 38 71 39
f 39 72 40
f 39 71 73
f 39 73 72
f 40 74 75
f 40 75 41
f 40 72 76
f 40 76 74
f 41 75 77
f 41 77 42
f 42 77 78
f 42 78 79
f 42 79 43
f 43 79 45
f 45 79 80
f 45 80 47
f 47 80 81
f 47 81 82
f 47 82 48
f 48 82 83
f 48 83 52
f 48 52 49
f 49 52 51
f 49 51 50
f 52 83 84
f 52 84 85
f 52 85 86
f 52 86 87
f 52 87 53
f 53 88 54
f 53 87 88
f 54 88 89
f 54 89 55
f 55 90 59
f 55 59 58
f 55 58 56
f 55 89 90
f 57 91 60
f 57 59 92
f 57 92 91
f 59 90 93
f 59 93 92
f 60 91 61
f 61 94 62
f 61 91 94
f 62 95 96
f 62 96 63
f 62 94 97
f 62 97 95
f 63 96 64
f 64 98 65
f 64 96 98
f 65 98 99
f 65 99 66
f 66 99 100
f 66 100 67
f 67 100 101
f 67 101 102
f 67 102 68
f 68 102 69
f 69 102 103
f 69 103 104
f 69 104 105
f 69 105 106
f 69 106 70
f 70 106 73
f 70 73 71
f 72 107 76
f 72 73 108
f 72 108 109
f 72 109 107
f 73 106 110
f 73 110 108
f 74 111 75
f 74 76 107
f 74 107 111
f 75 112 113
f 75 113 77
f 75 111 114
f 75 114 115
f 75 115 116
f 75 116 112
f 77 113 78
f 78 113 117
f 78 117 118
f 78 118 119
f 78 119 79
f 79 119 120
f 79 120 80
f 80 120 81
f 81 120 121
f 81 121 122
f 81 122 123
f 81 123 82
f 82 123 83
f 83 123 124
f 83 124 125
f 83 125 84
f 84 126 128
f 84 128 85
f 84 125 127
f 84 127 126
f 85 128 86
f 86 128 87
f 87 128 88
f 88 129 130
f 88 130 131
f 88 131 89
f 88 128 126
f 88 126 129
f 89 131 132
f 89 132 90
f 90 132 93
f 91 133 94
f 91 92 133
f 92 93 133
f 93 132 133
f 94 133 134
f 94 134 97
f 95 97 135
f 95 135 136
f 95 136 137
f 95 137 96
f 96 137 98
f 97 134 138
f 97 138 135
f 98 137 139
f 98 139 99
f 99 139 100
f 100 139 140
f 100 140 141
f 100 141 101
f 101 141 142
f 101 142 102
f 102 142 103
f 103 142 104
f 104 143 144
f 104 144 145
f 104 145 105
f 104 142 143
f 105 145 110
f 105 110 106
f 107 109 146
f 107 146 147
f 107 147 148
f 107 148 149
f 107 149 150
f 107 150 111
f 108 110 109
f 109 151 146
f 109 110 145
f 109 145 151
f 111 150 114
f 112 116 152
f 112 152 153
f 112 153 154
f 112 154 155
f 112 155 113
f 113 155 156
f 113 156 117
f 114 150 149
f 114 149 115
f 115 149 116
f 116 149 148
f 116 148 152
f 117 156 157
f 117 157 118
f 118 121 119
f 118 157 158
f 118 158 159
f 118 159 121
f 119 121 120
f 121 159 160
f 121 160 122
f 122 160 161
f 122 161 123
f 123 161 162
f 123 162 124
f 124 163 164
f 124 164 165
f 124 165 166
f 124 166 125
f 124 162 167
f 124 167 163
f 125 165 127
f 125 166 165
f 126 127 168
f 126 168 129
f 127 165 169
f 127 169 170
f 127 170 171
f 127 171 168
f 129 172 130
f 129 168 173
f 129 173 172
f 130 172 174
f 130 174 131
f 131 174 132
f 132 175 134
f 132 134 133
f 132 174 175
f 134 175 138
f 135 176 177
f 135 177 136
f 135 138 176
f 136 178 139
f 136 139 137
f 136 177 178
f 138 175 179
f 138 179 176
f 139 178 180
f 139 180 140
f 140 180 181
f 140 181 141
f 141 181 182
f 141 182 183
f 141 183 184
f 141 184 142
f 142 184 143
f 143 185 186
f 143 186 144
f 143 184 183
f 143 183 185
f 144 186 187
f 144 187 188
f 144 188 189
f 144 189 145
f 145 189 151
f 146 151 190
f 146 190 191
f 146 191 192
f 146 192 193
f 146 193 147
f 147 193 194
f 147 194 195
f 147 195 196
f 147 196 197
f 147 197 148
f 148 197 152
f 151 189 198
f 151 198 190
f 152 197 153
f 153 199 200
f 153 200 201
f 153 201 202
f 153 202 154
f 153 197 196
f 153 196 203
f 153 203 204
f 153 204 205
f 153 205 199
f 154 202 206
f 154 206 207
f 154 207 155
f 155 207 208
f 155 208 156
f 156 208 209
f 156 209 157
f 157 209 158
f 158 209 210
f 158 210 159
f 159 210 211
f 159 211 160
f 160 211 212
f 160 212 161
f 161 212 213
f 161 213 162
f 162 213 167
f 163 214 215
f 163 215 164
f 163 167 214
f 164 215 216
f 164 216 217
f 164 217 165
f 165 217 218
f 165 218 169
f 167 213 219
f 167 219 220
f 167 220 221
f 167 221 214
f 168 171 222
f 168 222 173
f 169 218 214
f 169 214 223
f 169 223 224
f 169 224 170
f 170 222 171
f 170 224 222
f 172 225 174
f 172 173 225
f 173 222 225
f 174 225 226
f 174 226 227
f 174 227 175
f 175 227 179
f 176 228 177
f 176 179 229
f 176 229 228
f 177 228 230
f 177 230 178
f 178 230 231
f 178 231 233
f 178 233 180
f 179 227 232
f 179 232 229
f 180 233 181
f 181 233 234
f 181 234 182
f 182 234 235
f 182 235 183
f 183 235 236
f 183 236 185
f 185 236 237
f 185 237 186
f 186 237 238
f 186 238 187
f 187 239 188
f 187 238 240
f 187 240 239
f 188 239 241
f 188 241 242
f 188 242 189
f 189 242 198
f 190 243 191
f 190 198 242
f 190 242 243
f 191 243 244
f 191 244 245
f 191 245 192
f 192 245 193
f 193 245 246
f 193 246 247
f 193 247 194
f 194 247 195
f 195 204 203
f 195 203 196
f 195 247 248
f 195 248 249
f 195 249 250
f 195 250 251
f 195 251 252
f 195 252 253
f 195 253 204
f 199 253 254
f 199 254 206
f 199 206 202
f 199 202 200
f 199 205 253
f 200 202 201
f 204 253 205
f 206 254 207
f 207 255 256
f 207 256 257
f 207 257 208
f 207 254 255
f 208 257 209
f 209 258 210
f 209 257 258
f 210 258 259
f 210 259 260
f 210 260 211
f 211 260 261
f 211 261 212
f 212 261 213
f 213 261 219
f 214 262 263
f 214 263 223
f 214 218 215
f 214 221 264
f 214 264 262
f 215 218 217
f 215 217 216
f 219 261 265
f 219 265 220
f 220 265 266
f 220 266 221
f 221 266 267
f 221 267 264
f 222 224 268
f 222 268 225
f 223 269 270
f 223 270 271
f 223 271 224
f 223 263 269
f 224 271 268
f 225 272 226
f 225 268 273
f 225 273 274
f 225 274 275
f 225 275 272
f 226 272 276
f 226 276 232
f 226 232 227
f 228 229 277
f 228 277 278
f 228 278 279
f 228 279 230
f 229 232 277
f 230 279 280
f 230 280 231
f 231 280 281
f 231 281 233
f 232 282 277
f 232 276 282
f 233 281 283
f 233 283 234
f 234 283 235
f 235 283 284
f 235 284 236
f 236 285 237
f 236 284 285
f 237 286 238
f 237 285 287
f 237 287 286
f 238 286 288
f 238 288 240
f 239 289 241
f 239 240 289
f 240 288 289
f 241 289 290
f 241 290 291
f 241 291 292
f 241 292 242
f 242 292 243
f 243 292 293
f 243 293 244
f 244 293 294
f 244 294 245
f 245 294 295
f 245 295 296
f 245 296 246
f 246 296 297
f 246 297 247
f 247 298 248
f 247 297 299
f 247 299 300
f 247 300 298
f 248 298 301
f 248 301 249
f 249 302 250
f 249 301 303
f 249 303 302
f 250 302 251
f 251 304 305
f 251 305 306
f 251 306 307
f 251 307 308
f 251 308 309
f 251 309 310
f 251 310 252
f 251 302 304
f 252 310 311
f 252 311 253
f 253 311 312
f 253 312 313
f 253 313 254
f 254 313 255
f 255 314 315
f 255 315 256
f 255 313 314
f 256 315 316
f 256 316 257
f 257 316 258
f 258 317 259
f 258 316 317
f 259 317 318
f 259 318 260
f 260 318 261
f 261 318 265
f 262 264 319
f 262 319 320
f 262 320 263
f 263 320 321
f 263 321 269
f 264 267 319
f 265 318 322
f 265 322 323
f 265 323 266
f 266 324 325
f 266 325 267
f 266 323 324
f 267 325 326
f 267 326 319
f 268 271 327
f 268 327 328
f 268 328 273
f 269 321 270
f 270 321 320
f 270 320 329
f 270 329 330
f 270 330 331
f 270 331 271
f 271 331 327
f 272 332 333
f 272 333 276
f 272 275 332
f 273 328 274
f 274 328 275
f 275 328 334
f 275 334 332
f 276 333 282
f 277 282 335
f 277 335 278
f 278 335 336
f 278 336 337
f 278 337 279
f 279 337 338
f 279 338 280
f 280 338 339
f 280 339 281
f 281 339 283
f 282 333 335
f 283 339 284
f 284 339 340
f 284 340 287
f 284 287 285
f 286 287 341
f 286 341 288
f 287 340 342
f 287 342 341
f 288 343 289
f 288 341 343
f 289 343 344
f 289 344 290
f 290 344 345
f 290 345 291
f 291 345 346
f 291 346 347
f 291 347 292
f 292 347 293
f 293 347 294
f 294 347 295
f 295 347 296
f 296 300 297
f 296 347 300
f 297 300 299
f 298 300 348
f 298 348 301
f 300 347 349
f 300 349 350
f 300 350 351
f 300 351 352
f 300 352 353
f 300 353 348
f 301 348 303
f 302 348 354
f 302 354 305
f 302 305 304
f 302 303 348
f 305 354 306
f 306 313 312
f 306 312 307
f 306 354 355
f 306 355 314
f 306 314 313
f 307 312 311
f 307 311 308
f 308 311 309
f 309 311 310
f 314 356 315
f 314 355 356
f 315 357 316
f 315 356 358
f 315 358 357
f 316 359 317
f 316 357 359
f 317 359 318
f 318 359 322
f 319 326 360
f 319 360 329
f 319 329 320
f 322 361 362
f 322 362 324
f 322 324 323
f 322 359 361
f 324 363 364
f 324 364 325
f 324 362 363
f 325 364 326
f 326 365 360
f 326 364 365
f 327 331 366
f 327 366 367
f 327 367 328
f 328 367 368
f 328 368 334
f 329 360 366
f 329 366 331
f 329 331 330
f 332 369 370
f 332 370 333
f 332 334 371
f 332 371 372
f 332 372 373
f 332 373 374
f 332 374 369
f 333 370 335
f 334 368 371
f 335 370 336
f 336 375 337
f 336 370 376
f 336 376 375
f 337 375 338
f 338 375 377
f 338 377 339
f 339 377 342
f 339 342 340
f 341 342 343
f 342 377 378
f 342 378 343
f 343 378 379
f 343 379 344
f 344 379 380
f 344 380 345
f 345 380 346
f 346 380 381
f 346 381 347
f 347 381 382
f 347 382 383
f 347 383 349
f 348 353 384
f 348 384 385
f 348 385 354
f 349 383 350
f 350 383 384
f 350 384 386
f 350 386 351
f 351 386 384
f 351 384 352
f 352 384 353
f 354 387 355
f 354 385 388
f 354 388 389
f 354 389 390
f 354 390 391
f 354 391 392
f 354 392 387
f 355 387 393
f 355 393 356
f 356 393 358
f 357 358 359
f 358 393 394
f 358 394 361
f 358 361 359
f 360 365 395
f 360 395 396
f 360 396 366
f 361 394 362
f 362 394 397
f 362 397 363
f 363 397 398
f 363 398 364
f 364 398 365
f 365 398 399
f 365 399 400
f 365 400 395
f 366 396 401
f 366 401 402
f 366 402 403
f 366 403 367
f 367 403 371
f 367 371 368
f 369 404 370
f 369 374 405
f 369 405 406
f 369 406 407
f 369 407 404
f 370 404 376
f 371 403 408
f 371 408 409
f 371 409 410
f 371 410 411
f 371 411 412
f 371 412 372
f 372 412 373
f 373 412 405
f 373 405 374
f 375 376 413
f 375 413 377
f 376 404 414
f 376 414 413
f 377 413 415
f 377 415 379
f 377 379 378
f 379 415 380
f 380 415 416
f 380 416 417
f 380 417 418
f 380 418 419
f 380 419 420
f 380 420 382
f 380 382 381
f 382 420 421
f 382 421 383
f 383 421 384
f 384 421 422
f 384 422 385
f 385 422 423
f 385 423 424
f 385 424 425
f 385 425 388
f 387 392 426
f 387 426 427
f 387 427 428
f 387 428 429
f 387 429 393
f 388 425 389
f 389 425 390
f 390 425 427
f 390 427 391
f 391 427 392
f 392 427 426
f 393 429 394
f 394 429 430
f 394 430 397
f 395 400 396
f 396 400 401
f 397 430 431
f 397 431 432
f 397 432 398
f 398 432 399
f 399 432 433
f 399 433 400
f 400 408 401
f 400 433 434
f 400 434 435
f 400 435 436
f 400 436 408
f 401 408 403
f 401 403 402
f 404 407 437
f 404 437 438
f 404 438 439
f 404 439 440
f 404 440 414
f 405 412 436
f 405 436 437
f 405 437 406
f 406 437 407
f 408 436 412
f 408 412 409
f 409 412 410
f 410 412 411
f 413 414 415
f 414 440 415
f 415 440 439
f 415 439 416
f 416 439 438
f 416 438 417
f 417 438 437
f 417 437 418
f 418 437 419
f 419 437 436
f 419 436 431
f 419 431 425
f 419 425 422
f 419 422 421
f 419 421 420
f 422 424 423
f 422 425 424
f 425 431 427
f 427 441 442
f 427 442 428
f 427 431 441
f 428 442 443
f 428 443 429
f 429 443 430
f 430 443 431
f 431 436 435
f 431 435 432
f 431 443 441
f 432 434 433
f 432 435 434
f 441 443 442

