# https://github.com/mikedh/trimesh

o geometry_0
v -0.02804186 0.04747523 -0.00218610
v -0.02803086 0.04747523 -0.00225117
v -0.02801987 0.04747523 0.00216253
v -0.02427559 0.12896327 0.00216253
v -0.02427559 0.12896327 -0.00218610
v -0.02728860 0.04747523 -0.00653473
v -0.02725012 0.04747523 0.00651658
v -0.02328041 0.12896327 0.00651116
v -0.02366528 0.13348495 0.00216253
v -0.02369278 0.13348495 -0.00218610
v -0.02326941 0.12896327 -0.00653473
v -0.02727211 0.04747523 -0.00658895
v -0.02637040 0.04747523 0.00936867
v -0.02208730 0.13231233 0.00949339
v -0.02261512 0.13368039 0.00656538
v -0.02192235 0.13599009 0.00515560
v -0.02218626 0.13622107 0.00216253
v -0.02220825 0.13623883 -0.00218610
v -0.02194434 0.13600786 -0.00527135
v -0.02263162 0.13371592 -0.00664317
v -0.02208730 0.13235676 -0.00953322
v -0.02637590 0.04747523 -0.00944104
v -0.02634841 0.04747523 0.00942290
v -0.02086119 0.12896327 0.01170566
v -0.01868390 0.12896327 0.01472042
v -0.01835951 0.13348495 0.01431917
v -0.02058628 0.13368039 0.01091401
v -0.02137803 0.13532382 0.00805107
v -0.02536423 0.04747523 0.01157010
v -0.02309347 0.04747523 0.01553375
v -0.01843648 0.13644316 0.01085979
v -0.01975055 0.13673630 0.00656538
v -0.01948664 0.13734926 0.00216253
v -0.01948664 0.13736702 -0.00218610
v -0.01977255 0.13676296 -0.00664317
v -0.02141101 0.13537713 -0.00816682
v -0.01849696 0.13647868 -0.01088336
v -0.02064676 0.13371592 -0.01094300
v -0.01840899 0.13348495 -0.01437527
v -0.01868940 0.12896327 -0.01469519
v -0.02086119 0.12896327 -0.01172923
v -0.02292852 0.04747523 -0.01549225
v -0.02530375 0.04747523 -0.01165874
v -0.02174091 0.04747523 0.01747491
v -0.01677602 0.12896327 0.01689473
v -0.01632517 0.13348495 0.01649349
v -0.01764474 0.13600786 0.01344077
v -0.01513755 0.13757135 0.01085979
v -0.01513755 0.13799775 0.00651116
v -0.01513755 0.13807770 0.00216253
v -0.01513755 0.13807770 -0.00218610
v -0.01513755 0.13800663 -0.00653473
v -0.01513755 0.13762464 -0.01088336
v -0.01768872 0.13604338 -0.01351856
v -0.01637465 0.13348495 -0.01654959
v -0.01671004 0.12896327 -0.01686950
v -0.01966258 0.04747523 -0.01924444
v -0.02289003 0.04747523 -0.01554105
v -0.01966258 0.04747523 0.01961127
v -0.01459873 0.12896327 0.01853767
v -0.01414787 0.13348495 0.01821775
v -0.01734234 0.04747523 0.02176932
v -0.01325166 0.13591902 0.01758878
v -0.01487364 0.13643426 0.01501864
v -0.01078846 0.13805994 0.01085979
v -0.01078846 0.13742921 0.01520842
v -0.01078846 0.13815765 0.00651116
v -0.01078846 0.13817542 0.00216253
v -0.01078846 0.13817542 -0.00218610
v -0.01078846 0.13815765 -0.00653473
v -0.01078846 0.13809547 -0.01088336
v -0.01078846 0.13751804 -0.01523741
v -0.01492862 0.13650533 -0.01507474
v -0.01333964 0.13597231 -0.01766657
v -0.01420285 0.13348495 -0.01826301
v -0.01453275 0.12896327 -0.01851244
v -0.01553342 0.04747523 -0.02276347
v -0.01909627 0.04747523 -0.01979751
v -0.01940417 0.04747523 -0.01951013
v -0.00886959 0.13152170 0.02184523
v -0.01543446 0.04747523 0.02302185
v -0.01050256 0.13320956 0.02027820
v -0.01078846 0.13630102 0.01814184
v -0.00643938 0.13457762 0.02106985
v -0.00643938 0.13788227 0.01520842
v -0.00209029 0.13802441 0.01520842
v -0.00643938 0.13814877 0.01085979
v -0.00643938 0.13670077 0.01889553
v -0.00643938 0.13819318 0.00651116
v -0.00643938 0.13821096 0.00216253
v -0.00643938 0.13819318 -0.00653473
v -0.00643938 0.13816653 -0.01088336
v -0.00209029 0.13805106 -0.01523741
v -0.00643938 0.13793556 -0.01523741
v -0.00643938 0.13674518 -0.01895706
v -0.01078846 0.13636319 -0.01823048
v -0.00643938 0.13455097 -0.02113137
v -0.01046957 0.13318291 -0.02033430
v -0.00880911 0.13146840 -0.02184168
v -0.01534099 0.04747523 -0.02290444
v -0.00209029 0.12896327 0.02303812
v -0.00643938 0.13231233 0.02216514
v -0.01111836 0.04747523 0.02539679
v -0.00900154 0.04747523 0.02628061
v -0.00670879 0.04747523 0.02699092
v -0.00209029 0.13537713 0.02146025
v -0.00209029 0.13681625 0.01928593
v 0.00225330 0.13803328 0.01520842
v -0.00209029 0.13817542 0.01085979
v 0.00225330 0.13682513 0.01929678
v -0.00209029 0.13821096 0.00651116
v 0.00225330 0.13822872 0.00216253
v -0.00209029 0.13821984 -0.00218610
v -0.00209029 0.13821096 -0.00653473
v -0.00209029 0.13818431 -0.01088336
v 0.00225330 0.13804218 -0.01523741
v -0.00209029 0.13684291 -0.01934746
v 0.00225330 0.13818431 -0.01088336
v -0.00209029 0.13541266 -0.02152177
v -0.00643938 0.13228569 -0.02216160
v -0.00670329 0.04747523 -0.02702534
v -0.01076097 0.04747523 -0.02557218
v 0.00225330 0.12896327 0.02305438
v -0.00209029 0.13311184 0.02253385
v -0.00214527 0.04747523 0.02765786
v -0.00209029 0.04747523 0.02766328
v 0.00225330 0.04747523 0.02768497
v 0.00225330 0.13539489 0.02147651
v 0.00660239 0.13792668 0.01520842
v 0.01095148 0.13808658 0.01085979
v 0.00660239 0.13815765 0.01085979
v 0.00225330 0.13817542 0.01085979
v 0.00660239 0.13673630 0.01893349
v 0.00225330 0.13821096 0.00651116
v 0.00660239 0.13821096 0.00216253
v 0.00660239 0.13821096 -0.00218610
v 0.00225330 0.13821096 -0.00653473
v 0.00660239 0.13793556 -0.01523741
v 0.00225330 0.13683401 -0.01934204
v 0.00660239 0.13815765 -0.01088336
v 0.01095148 0.13810436 -0.01088336
v 0.00225330 0.13540378 -0.02152177
v 0.00660239 0.13819318 -0.00653473
v -0.00209029 0.13314738 -0.02253031
v -0.00209029 0.12896327 -0.02295324
v -0.00209029 0.04747523 -0.02770854
v 0.00904909 0.13154836 0.02185065
v 0.00660239 0.13234787 0.02217598
v 0.00225330 0.13312961 0.02253927
v 0.00686630 0.04747523 0.02699634
v 0.00660239 0.13461315 0.02110780
v 0.01095148 0.13747362 0.01520842
v 0.01530056 0.13809547 0.00216253
v 0.01095148 0.13815765 0.00651116
v 0.01530056 0.13759800 0.01085979
v 0.01530056 0.13800663 0.00651116
v 0.00660239 0.13819318 0.00651116
v 0.01095148 0.13632766 0.01816895
v 0.01095148 0.13818431 0.00216253
v 0.01095148 0.13818431 -0.00218610
v 0.01095148 0.13747362 -0.01523741
v 0.00660239 0.13673630 -0.01895164
v 0.01095148 0.13816653 -0.00653473
v 0.01530056 0.13805106 -0.00653473
v 0.01530056 0.13762464 -0.01088336
v 0.01095148 0.13631878 -0.01817083
v 0.00660239 0.13455097 -0.02112595
v 0.00660239 0.13228569 -0.02216160
v 0.00225330 0.13314738 -0.02252489
v 0.00225330 0.12896327 -0.02295324
v 0.00225330 0.04747523 -0.02767601
v 0.01476174 0.12896327 0.01854309
v 0.01431638 0.13348495 0.01821233
v 0.01068206 0.13322734 0.02029447
v 0.01092399 0.04747523 0.02555946
v 0.01552599 0.04747523 0.02289714
v 0.01342567 0.13591902 0.01758878
v 0.01504215 0.13645202 0.01501864
v 0.01530056 0.13811323 -0.00218610
v 0.01964965 0.13735814 0.00216253
v 0.01781875 0.13600786 0.01344619
v 0.01861599 0.13645202 0.01085979
v 0.01992457 0.13674518 0.00656538
v 0.01502565 0.13645202 -0.01503679
v 0.01339268 0.13591014 -0.01759066
v 0.01964965 0.13737591 -0.00218610
v 0.01990807 0.13677182 -0.00656184
v 0.01858850 0.13646980 -0.01088336
v 0.01780775 0.13600786 -0.01345349
v 0.01063258 0.13318291 -0.02026924
v 0.00897212 0.13146840 -0.02184168
v 0.00230828 0.04747523 -0.02767058
v 0.01693353 0.12896327 0.01689473
v 0.01567994 0.04747523 0.02278327
v 0.01649368 0.13348495 0.01649891
v 0.02233828 0.13621217 0.00216253
v 0.02155753 0.13535048 0.00805649
v 0.01856101 0.13348495 0.01432459
v 0.02079328 0.13369816 0.01094112
v 0.02207986 0.13598121 0.00515560
v 0.01640021 0.13348495 -0.01644657
v 0.01422291 0.13348495 -0.01818168
v 0.02233828 0.13622107 -0.00218610
v 0.02207986 0.13598121 -0.00513579
v 0.02153004 0.13528830 -0.00803669
v 0.02073280 0.13366262 -0.01091589
v 0.01850602 0.13348495 -0.01427225
v 0.01461329 0.12896327 -0.01846906
v 0.01546001 0.04747523 -0.02286649
v 0.01116041 0.04747523 -0.02534445
v 0.00903260 0.04747523 -0.02624996
v 0.00681132 0.04747523 -0.02694400
v 0.01889640 0.12896327 0.01471499
v 0.01716446 0.04875445 0.02147651
v 0.01918230 0.04747523 0.01981731
v 0.01954519 0.04747523 0.01946487
v 0.01966065 0.04747523 0.01934558
v 0.01990807 0.04747523 0.01907989
v 0.02381730 0.13348495 0.00216253
v 0.02382280 0.13348495 -0.00218610
v 0.02227230 0.13233009 0.00954761
v 0.02278913 0.13369816 0.00656538
v 0.01678508 0.12896327 -0.01679901
v 0.02277264 0.13366262 -0.00656184
v 0.02223931 0.13226791 -0.00948984
v 0.01882492 0.12896327 -0.01462470
v 0.01727992 0.04747523 -0.02159769
v 0.02106819 0.12896327 0.01176530
v 0.02286611 0.04747523 0.01559882
v 0.02345992 0.12896327 0.00651116
v 0.02440561 0.12896327 0.00216253
v 0.02441110 0.12896327 -0.00218610
v 0.02341593 0.12896327 -0.00653473
v 0.02300356 0.04747523 0.01540904
v 0.02550525 0.04747523 0.01137490
v 0.02594511 0.04747523 0.01032299
v 0.02714372 0.04747523 0.00733534
v 0.02729767 0.04747523 0.00691240
v 0.02166750 0.04747523 -0.01721652
v 0.01950120 0.04747523 -0.01945048
v 0.02100221 0.12896327 -0.01168585
v 0.02722070 0.04747523 -0.00689260
v 0.02639596 0.04747523 -0.00916451
v 0.02568119 0.04747523 -0.01086709
v 0.02296508 0.04747523 -0.01538923
v 0.02812790 0.04747523 0.00216253
v 0.02809491 0.04747523 -0.00218610
f 1 2 6
f 1 6 12
f 1 12 22
f 1 22 43
f 1 43 42
f 1 42 58
f 1 58 57
f 1 57 79
f 1 79 78
f 1 78 77
f 1 77 100
f 1 100 122
f 1 122 121
f 1 121 146
f 1 146 171
f 1 171 192
f 1 192 212
f 1 212 211
f 1 211 210
f 1 210 209
f 1 209 227
f 1 227 240
f 1 240 239
f 1 239 245
f 1 245 244
f 1 244 243
f 1 243 242
f 1 242 247
f 1 247 246
f 1 246 238
f 1 238 237
f 1 237 236
f 1 236 235
f 1 235 234
f 1 234 229
f 1 229 218
f 1 218 217
f 1 217 216
f 1 216 215
f 1 215 194
f 1 194 176
f 1 176 175
f 1 175 150
f 1 150 127
f 1 127 126
f 1 126 125
f 1 125 105
f 1 105 104
f 1 104 103
f 1 103 81
f 1 81 62
f 1 62 59
f 1 59 44
f 1 44 30
f 1 30 29
f 1 29 23
f 1 23 13
f 1 13 7
f 1 7 3
f 1 3 4
f 1 4 5
f 1 5 2
f 2 5 6
f 3 7 4
f 4 8 9
f 4 9 10
f 4 10 5
f 4 7 8
f 5 10 11
f 5 11 6
f 6 11 12
f 7 13 8
f 8 14 15
f 8 15 9
f 8 13 14
f 9 15 16
f 9 16 17
f 9 17 18
f 9 18 10
f 10 18 19
f 10 19 20
f 10 20 11
f 11 20 21
f 11 21 22
f 11 22 12
f 13 23 14
f 14 24 25
f 14 25 26
f 14 26 27
f 14 27 28
f 14 28 15
f 14 23 29
f 14 29 30
f 14 30 24
f 15 28 16
f 16 28 31
f 16 31 32
f 16 32 33
f 16 33 17
f 17 33 18
f 18 33 34
f 18 34 35
f 18 35 19
f 19 36 20
f 19 35 37
f 19 37 36
f 20 36 21
f 21 36 38
f 21 38 39
f 21 39 40
f 21 40 41
f 21 41 42
f 21 42 43
f 21 43 22
f 24 30 44
f 24 44 25
f 25 45 26
f 25 44 45
f 26 46 47
f 26 47 27
f 26 45 46
f 27 47 28
f 28 47 31
f 31 47 48
f 31 48 32
f 32 48 33
f 33 48 49
f 33 49 50
f 33 50 34
f 34 50 51
f 34 51 52
f 34 52 53
f 34 53 35
f 35 53 37
f 36 37 54
f 36 54 38
f 37 53 54
f 38 54 39
f 39 55 56
f 39 56 40
f 39 54 55
f 40 56 57
f 40 57 58
f 40 58 42
f 40 42 41
f 44 59 45
f 45 60 61
f 45 61 46
f 45 59 62
f 45 62 60
f 46 61 63
f 46 63 47
f 47 63 64
f 47 64 48
f 48 65 49
f 48 64 66
f 48 66 65
f 49 65 67
f 49 67 50
f 50 67 68
f 50 68 69
f 50 69 51
f 51 69 70
f 51 70 71
f 51 71 52
f 52 71 53
f 53 72 73
f 53 73 54
f 53 71 72
f 54 73 74
f 54 74 55
f 55 74 75
f 55 75 56
f 56 75 76
f 56 76 77
f 56 77 78
f 56 78 79
f 56 79 57
f 60 80 61
f 60 62 81
f 60 81 80
f 61 80 82
f 61 82 63
f 63 83 66
f 63 66 64
f 63 82 84
f 63 84 83
f 65 66 85
f 65 85 86
f 65 86 87
f 65 87 67
f 66 83 88
f 66 88 85
f 67 87 89
f 67 89 90
f 67 90 68
f 68 90 69
f 69 90 91
f 69 91 70
f 70 91 92
f 70 92 71
f 71 92 93
f 71 93 94
f 71 94 72
f 72 94 95
f 72 95 96
f 72 96 74
f 72 74 73
f 74 96 97
f 74 97 98
f 74 98 75
f 75 98 99
f 75 99 76
f 76 99 100
f 76 100 77
f 80 101 102
f 80 102 84
f 80 84 82
f 80 81 103
f 80 103 104
f 80 104 105
f 80 105 101
f 83 84 106
f 83 106 88
f 84 102 106
f 85 88 107
f 85 107 86
f 86 108 109
f 86 109 87
f 86 107 110
f 86 110 108
f 87 109 89
f 88 106 107
f 89 111 90
f 89 109 111
f 90 111 112
f 90 112 113
f 90 113 114
f 90 114 91
f 91 114 115
f 91 115 92
f 92 115 93
f 93 116 117
f 93 117 94
f 93 115 118
f 93 118 116
f 94 117 95
f 95 117 119
f 95 119 96
f 96 119 97
f 97 119 120
f 97 120 99
f 97 99 98
f 99 120 121
f 99 121 122
f 99 122 100
f 101 123 124
f 101 124 102
f 101 105 125
f 101 125 126
f 101 126 127
f 101 127 123
f 102 124 106
f 106 128 107
f 106 124 128
f 107 128 110
f 108 110 129
f 108 129 130
f 108 130 131
f 108 131 132
f 108 132 109
f 109 132 134
f 109 134 111
f 110 128 133
f 110 133 129
f 111 134 112
f 112 134 157
f 112 157 135
f 112 135 136
f 112 136 137
f 112 137 114
f 112 114 113
f 114 137 118
f 114 118 115
f 116 138 139
f 116 139 117
f 116 118 140
f 116 140 141
f 116 141 138
f 117 139 142
f 117 142 119
f 118 137 143
f 118 143 163
f 118 163 140
f 119 142 144
f 119 144 120
f 120 145 146
f 120 146 121
f 120 144 145
f 123 147 148
f 123 148 149
f 123 149 124
f 123 127 150
f 123 150 147
f 124 149 128
f 128 149 148
f 128 148 151
f 128 151 133
f 129 133 152
f 129 152 130
f 130 153 154
f 130 154 131
f 130 152 155
f 130 155 156
f 130 156 153
f 131 154 157
f 131 157 134
f 131 134 132
f 133 151 158
f 133 158 152
f 135 157 159
f 135 159 160
f 135 160 136
f 136 160 163
f 136 163 143
f 136 143 137
f 138 161 162
f 138 162 139
f 138 141 161
f 139 162 142
f 140 163 141
f 141 163 179
f 141 179 164
f 141 164 165
f 141 165 161
f 142 166 167
f 142 167 168
f 142 168 169
f 142 169 144
f 142 162 166
f 144 169 170
f 144 170 145
f 145 170 146
f 146 170 171
f 147 172 173
f 147 173 174
f 147 174 151
f 147 151 148
f 147 150 175
f 147 175 176
f 147 176 172
f 151 177 158
f 151 174 177
f 152 158 177
f 152 177 178
f 152 178 155
f 153 179 159
f 153 159 154
f 153 156 180
f 153 180 186
f 153 186 179
f 154 159 157
f 155 178 181
f 155 181 182
f 155 182 183
f 155 183 180
f 155 180 156
f 159 179 160
f 160 179 163
f 161 165 184
f 161 184 185
f 161 185 166
f 161 166 162
f 164 186 165
f 164 179 186
f 165 186 187
f 165 187 188
f 165 188 189
f 165 189 184
f 166 185 167
f 167 185 190
f 167 190 191
f 167 191 168
f 168 191 192
f 168 192 170
f 168 170 169
f 170 192 171
f 172 193 173
f 172 176 194
f 172 194 193
f 173 195 177
f 173 177 174
f 173 193 195
f 177 195 181
f 177 181 178
f 180 183 196
f 180 196 186
f 181 197 182
f 181 195 198
f 181 198 199
f 181 199 197
f 182 197 200
f 182 200 183
f 183 200 196
f 184 189 185
f 185 189 201
f 185 201 202
f 185 202 190
f 186 203 187
f 186 196 203
f 187 203 204
f 187 204 188
f 188 204 205
f 188 205 189
f 189 205 206
f 189 206 207
f 189 207 201
f 190 202 191
f 191 202 208
f 191 208 209
f 191 209 210
f 191 210 211
f 191 211 212
f 191 212 192
f 193 213 198
f 193 198 195
f 193 194 214
f 193 214 215
f 193 215 216
f 193 216 217
f 193 217 218
f 193 218 213
f 194 215 214
f 196 200 219
f 196 219 220
f 196 220 203
f 197 199 221
f 197 221 222
f 197 222 200
f 198 213 221
f 198 221 199
f 200 222 219
f 201 207 223
f 201 223 202
f 202 223 208
f 203 220 204
f 204 220 224
f 204 224 205
f 205 224 225
f 205 225 206
f 206 225 207
f 207 225 226
f 207 226 223
f 208 223 227
f 208 227 209
f 213 228 221
f 213 218 229
f 213 229 228
f 219 222 230
f 219 230 231
f 219 231 232
f 219 232 220
f 220 232 233
f 220 233 224
f 221 230 222
f 221 228 234
f 221 234 235
f 221 235 236
f 221 236 237
f 221 237 238
f 221 238 230
f 223 226 239
f 223 239 240
f 223 240 227
f 224 233 225
f 225 241 226
f 225 233 242
f 225 242 243
f 225 243 244
f 225 244 245
f 225 245 241
f 226 241 239
f 228 229 234
f 230 238 231
f 231 238 246
f 231 246 232
f 232 246 247
f 232 247 242
f 232 242 233
f 239 241 245

o geometry_1
v -0.04030430 0.01133573 -0.00218097
v -0.04028849 0.01133573 0.00216188
v -0.04026477 0.01585998 0.00216188
v -0.04027268 0.01585998 -0.00218097
v -0.03982194 0.01585998 -0.00653169
v -0.03983776 0.01133573 -0.00653169
v -0.04028849 -0.12435549 -0.00218097
v -0.03982194 0.01133573 0.00651260
v -0.03981403 0.01585998 0.00651260
v -0.04027268 -0.12435549 0.00216188
v -0.04013034 0.02038423 0.00216188
v -0.04013034 0.02038423 -0.00218097
v -0.03968752 0.02038423 -0.00653169
v -0.03927632 0.01585998 -0.00957641
v -0.03921307 0.02038423 -0.00930892
v -0.03928423 0.01133573 -0.00958428
v -0.03981403 -0.12435549 -0.00653169
v -0.04002754 -0.12887974 -0.00218097
v -0.04002754 -0.12887974 0.00216188
v -0.03927632 0.01585998 0.00955732
v -0.03979822 -0.11983124 0.00651260
v -0.03921307 0.02038423 0.00929769
v -0.03967961 0.02038423 0.00651260
v -0.03979032 -0.12435549 0.00651260
v -0.03930796 0.02403634 0.00651260
v -0.03949774 0.02536273 0.00257099
v -0.03961635 0.02490849 -0.00218097
v -0.03926841 0.02467228 -0.00613045
v -0.03911818 0.02300067 -0.00895488
v -0.03869907 0.01585998 -0.01174784
v -0.03862791 0.02038423 -0.01148821
v -0.03869907 0.01133573 -0.01175571
v -0.03926051 -0.12435549 -0.00945840
v -0.03918934 -0.12784407 -0.00919091
v -0.03946610 -0.12917045 -0.00685426
v -0.03924469 -0.13156885 -0.00561907
v -0.03941866 -0.13193225 -0.00218097
v -0.03942656 -0.13195041 0.00216188
v -0.03925260 -0.13156885 0.00559210
v -0.03945820 -0.12915228 0.00682730
v -0.03870698 0.01133573 0.01172874
v -0.03870698 0.01585998 0.01172874
v -0.03926051 -0.11983124 0.00941570
v -0.03863581 0.02038423 0.01146912
v -0.03911818 0.02300067 0.00893579
v -0.03925260 -0.12435549 0.00938423
v -0.03917352 -0.12782590 0.00910887
v -0.03888094 0.02628938 0.00651260
v -0.03905491 0.02716153 0.00430184
v -0.03914980 0.02745224 0.00139873
v -0.03913399 0.02741590 -0.00218097
v -0.03906282 0.02719786 -0.00441534
v -0.03884141 0.02601683 -0.00731844
v -0.03833533 0.02467228 -0.01059919
v -0.03745758 0.01585998 -0.01523314
v -0.03730734 0.02038423 -0.01523314
v -0.03745758 0.01133573 -0.01523314
v -0.03864372 -0.12435549 -0.01162983
v -0.03859627 -0.12917045 -0.01073293
v -0.03902328 -0.13086024 -0.00852217
v -0.03803484 -0.13320413 -0.00685426
v -0.03804275 -0.13420346 -0.00218097
v -0.03804275 -0.13420346 0.00216188
v -0.03902328 -0.13084207 0.00849521
v -0.03801111 -0.13320413 0.00682730
v -0.03750503 0.01585998 0.01520617
v -0.03863581 -0.11983124 0.01159500
v -0.03733106 0.02038423 0.01520617
v -0.03831951 0.02467228 0.01057222
v -0.03861209 -0.12435549 0.01155566
v -0.03854883 -0.12915228 0.01067450
v -0.03681707 0.02943274 0.01086332
v -0.03786087 0.02943274 0.00651260
v -0.03846184 0.02916019 0.00257099
v -0.03834323 0.02966894 -0.00218097
v -0.03815345 0.02899666 -0.00613045
v -0.03689615 0.02943274 -0.01088241
v -0.03665892 0.02490849 -0.01523314
v -0.03563094 0.01585998 -0.01906460
v -0.03563094 0.01133573 -0.01907247
v -0.03555977 0.02038423 -0.01893085
v -0.03521974 0.02490849 -0.01832506
v -0.03560721 -0.05649171 -0.01908820
v -0.03732315 -0.11983124 -0.01523314
v -0.03729943 -0.12435549 -0.01523314
v -0.03699895 -0.12887974 -0.01523314
v -0.03505369 -0.13180506 -0.01801036
v -0.03558349 -0.13334948 -0.01495777
v -0.03698313 -0.13340399 -0.01088241
v -0.03481645 -0.13576606 -0.01332134
v -0.03517230 -0.13603859 -0.01088241
v -0.03563094 -0.13636564 -0.00653169
v -0.03586816 -0.13649284 -0.00218097
v -0.03586816 -0.13649284 0.00216188
v -0.03559930 -0.13632931 0.00651260
v -0.03688033 -0.12887974 0.01520617
v -0.03687242 -0.13340399 0.01086332
v -0.03548069 -0.13329497 0.01483640
v -0.03500624 -0.13171421 0.01792046
v -0.03509322 -0.13596592 0.01086332
v -0.03474529 -0.13569337 0.01313702
v -0.03567838 0.01133573 0.01917139
v -0.03567838 0.01585998 0.01917139
v -0.03729943 -0.11983124 0.01520617
v -0.03563094 -0.05649171 0.01908485
v -0.03557558 0.02038423 0.01898257
v -0.03663520 0.02490849 0.01520617
v -0.03723617 -0.12435549 0.01520617
v -0.03536999 0.02919653 0.01500162
v -0.03487972 0.03201283 0.01342025
v -0.03531463 0.03277596 0.01086332
v -0.03567838 0.03419320 0.00630018
v -0.03636634 0.03395698 0.00216188
v -0.03641379 0.03395698 -0.00218097
v -0.03574164 0.03424770 -0.00646875
v -0.03536999 0.03292132 -0.01088241
v -0.03540952 0.02923287 -0.01507579
v -0.03491925 0.03208551 -0.01352589
v -0.03487181 0.02757943 -0.01770353
v -0.03438945 0.01585998 -0.02124390
v -0.03438945 0.01133573 -0.02125176
v -0.03441317 -0.05649171 -0.02125963
v -0.03430247 0.02038423 -0.02110228
v -0.03393081 0.02490849 -0.02050435
v -0.03560721 -0.06101596 -0.01907247
v -0.03555977 -0.11983124 -0.01891512
v -0.03553605 -0.12435549 -0.01886791
v -0.03536999 -0.12887974 -0.01856895
v -0.03407315 -0.12887974 -0.02074038
v -0.03018263 -0.13000626 -0.02590145
v -0.03127387 -0.13258636 -0.02300621
v -0.03027752 -0.13560252 -0.02166087
v -0.03403361 -0.13482122 -0.01621657
v -0.03113153 -0.13616578 -0.01875777
v -0.03256280 -0.13645650 -0.01495777
v -0.03253117 -0.13718327 -0.01088241
v -0.03253117 -0.13754668 -0.00653169
v -0.03253117 -0.13769204 -0.00218097
v -0.03253117 -0.13767387 0.00216188
v -0.03253117 -0.13749217 0.00651260
v -0.03253117 -0.13707427 0.01086332
v -0.03530672 -0.12887974 0.01845545
v -0.03550441 -0.12435549 0.01879375
v -0.03397035 -0.13473038 0.01603226
v -0.03125015 -0.13247734 0.02297925
v -0.03019053 -0.13000626 0.02588235
v -0.03403361 -0.12887974 0.02063474
v -0.03261024 -0.13360386 0.01969851
v -0.03252326 -0.13638383 0.01483640
v -0.03015890 -0.13549350 0.02147656
v -0.03106827 -0.13611126 0.01858133
v -0.03447643 0.01133573 0.02134281
v -0.03447643 0.01585998 0.02135068
v -0.03554396 -0.11983124 0.01887242
v -0.03441317 -0.05649171 0.02125627
v -0.03442898 -0.04744321 0.02127201
v -0.03435782 0.02038423 0.02115400
v -0.03520392 0.02490849 0.01828236
v -0.03484809 0.02752492 0.01764510
v -0.03416804 0.03054108 0.01631549
v -0.03261024 0.03406601 0.01533205
v -0.02535901 0.04747523 0.01156353
v -0.02634746 0.04747523 0.00942357
v -0.02637118 0.04747523 0.00936850
v -0.03395453 0.03504717 0.01086332
v -0.03446062 0.03584663 0.00760618
v -0.03477692 0.03631905 0.00470308
v -0.03492716 0.03653708 0.00216188
v -0.03495089 0.03657342 -0.00218097
v -0.03481645 0.03637355 -0.00497393
v -0.03453969 0.03595565 -0.00787703
v -0.03405733 0.03517435 -0.01088241
v -0.03420758 0.03059560 -0.01642113
v -0.03110781 0.03715486 -0.01445425
v -0.03265769 0.03413869 -0.01543769
v -0.03311633 0.02923287 -0.01932423
v -0.03091803 0.02943274 -0.02250269
v -0.03245210 0.01585998 -0.02393458
v -0.03246000 0.01133573 -0.02393458
v -0.03228604 0.02038423 -0.02393458
v -0.03248373 -0.05649171 -0.02393458
v -0.03227022 -0.11983124 -0.02393458
v -0.03429456 -0.11983124 -0.02108655
v -0.03040404 0.02283714 -0.02616894
v -0.02995331 0.02585331 -0.02563395
v -0.03150319 0.02456326 -0.02408406
v -0.03426293 -0.12435549 -0.02104721
v -0.03041194 -0.12699009 -0.02616894
v -0.03162180 -0.12864353 -0.02424141
v -0.02811084 -0.12842550 -0.02821449
v -0.02577021 -0.12984273 -0.03026004
v -0.02705123 -0.13340399 -0.02713664
v -0.02940768 -0.13382189 -0.02424141
v -0.02612605 -0.13574788 -0.02623188
v -0.02712240 -0.13620212 -0.02393458
v -0.02856948 -0.13680172 -0.01996149
v -0.02818201 -0.13776471 -0.01523314
v -0.02818201 -0.13801909 -0.01088241
v -0.02818201 -0.13807361 -0.00653169
v -0.02818201 -0.13809176 -0.00218097
v -0.02818201 -0.13809176 0.00216188
v -0.02818201 -0.13807361 0.00651260
v -0.02818201 -0.13798275 0.01086332
v -0.02818201 -0.13771020 0.01520617
v -0.03423920 -0.12435549 0.02097304
v -0.02928907 -0.13374921 0.02422231
v -0.02700379 -0.13340399 0.02710968
v -0.02584928 -0.13016979 0.03030388
v -0.02813457 -0.12858903 0.02821900
v -0.03040404 -0.12699009 0.02614198
v -0.03159017 -0.12864353 0.02422231
v -0.02849832 -0.13674722 0.01984012
v -0.02698006 -0.13612945 0.02390762
v -0.02605488 -0.13569337 0.02613411
v -0.03264979 0.01133573 0.02390762
v -0.03264979 0.01585998 0.02390762
v -0.03239674 0.02038423 0.02390762
v -0.03427874 -0.11983124 0.02104385
v -0.03251536 -0.05649171 0.02390762
v -0.03254699 -0.04744321 0.02390762
v -0.03223859 -0.11983124 0.02390762
v -0.03255490 -0.04293713 0.02390762
v -0.03042776 0.02289165 0.02615772
v -0.03392291 0.02490849 0.02046166
v -0.03106827 0.02865144 0.02270389
v -0.03261815 0.02959627 0.01968277
v -0.03034078 0.03166761 0.02172045
v -0.03126596 0.03310301 0.01881735
v -0.03027752 0.03611918 0.01725172
v -0.02308954 0.04747523 0.01553661
v -0.02724892 0.04747523 0.00651260
v -0.02801595 0.04747523 0.00216188
v -0.02802386 0.04747523 0.00208320
v -0.02803968 0.04747523 -0.00218097
v -0.02803177 0.04747523 -0.00225178
v -0.02728846 0.04747523 -0.00653169
v -0.02727264 0.04747523 -0.00658677
v -0.02637118 0.04747523 -0.00944266
v -0.03108409 0.03281230 -0.01958386
v -0.03037241 0.03172212 -0.02177889
v -0.03032496 0.03617369 -0.01735736
v -0.02530366 0.04747523 -0.01165343
v -0.02913092 0.02943274 -0.02467412
v -0.03059382 0.01585998 -0.02638137
v -0.03050684 0.02038423 -0.02628695
v -0.03061754 -0.02033403 -0.02641283
v -0.03061754 -0.04744321 -0.02639710
v -0.03060963 -0.05649171 -0.02638923
v -0.03051474 -0.11983124 -0.02628695
v -0.03220696 -0.12435549 -0.02393458
v -0.02801595 0.02436340 -0.02812008
v -0.02607860 0.02289165 -0.03052753
v -0.02837179 0.02038423 -0.02845838
v -0.02553298 0.02590782 -0.03006335
v -0.02695634 0.02943274 -0.02706584
v -0.03047521 -0.12435549 -0.02623975
v -0.02828481 -0.12435549 -0.02841904
v -0.02603906 -0.12682656 -0.03048819
v -0.01775194 -0.13164153 -0.03504347
v -0.02286813 -0.13256818 -0.03132215
v -0.02412543 -0.12855268 -0.03164471
v -0.02041679 -0.12887974 -0.03409150
v -0.02412543 -0.13380373 -0.02949689
v -0.02154757 -0.13558435 -0.03037805
v -0.02383285 -0.13618395 -0.02722319
v -0.02383285 -0.13725596 -0.02393458
v -0.02383285 -0.13791008 -0.01958386
v -0.02383285 -0.13807361 -0.01523314
v -0.02383285 -0.13812811 -0.00218097
v -0.02383285 -0.13812811 0.00651260
v -0.02383285 -0.13805542 0.01520617
v -0.02383285 -0.13810994 0.01086332
v -0.02383285 -0.13785556 0.01955689
v -0.02383285 -0.13714694 0.02390762
v -0.03216742 -0.12435549 0.02390762
v -0.02417288 -0.13376738 0.02940699
v -0.02294721 -0.13251368 0.03135026
v -0.01783892 -0.13167787 0.03505585
v -0.02052749 -0.12887974 0.03413535
v -0.02417288 -0.12875255 0.03168856
v -0.02607860 -0.12715362 0.03050057
v -0.02831644 -0.12435549 0.02837635
v -0.03045939 -0.12435549 0.02620492
v -0.02383285 -0.13612945 0.02707821
v -0.02142105 -0.13552985 0.03026454
v -0.03071243 0.01133573 0.02648815
v -0.03070452 0.01585998 0.02647242
v -0.03057010 0.02038423 0.02632293
v -0.03063336 -0.05649171 0.02639374
v -0.03064917 -0.04744321 0.02641734
v -0.03049102 -0.11983124 0.02623639
v -0.03065708 -0.04293713 0.02642521
v -0.02607860 0.02287348 0.03049270
v -0.02800805 0.02438156 0.02809312
v -0.02994540 0.02590782 0.02559912
v -0.03151110 0.02459960 0.02405710
v -0.02840342 0.02038423 0.02850223
v -0.02935233 0.02986881 0.02405710
v -0.02620512 0.03195832 0.02628360
v -0.02715403 0.03366628 0.02367159
v -0.02174526 0.04747523 0.01747988
v -0.02292348 0.04747523 -0.01549276
v -0.02628420 0.03650074 -0.02206212
v -0.02769965 0.03335738 -0.02336812
v -0.02622094 0.03197649 -0.02632629
v -0.02845878 0.01585998 -0.02855279
v -0.02846668 -0.02033403 -0.02858426
v -0.02843505 -0.04744321 -0.02857639
v -0.02836389 -0.11530698 -0.02846625
v -0.02834807 -0.11983124 -0.02845838
v -0.02398310 0.02459960 -0.03159751
v -0.02095450 0.02038423 -0.03441407
v -0.02383285 0.02038423 -0.03240786
v -0.02619721 0.02038423 -0.03062981
v -0.02398310 0.02988698 -0.02948116
v -0.02263881 0.02866961 -0.03116480
v -0.02617349 -0.11983124 -0.03060620
v -0.02611023 -0.12435549 -0.03055113
v -0.02383285 -0.12435549 -0.03221117
v -0.01824221 -0.12887974 -0.03530310
v -0.01513453 -0.12887974 -0.03668777
v -0.01078538 -0.12887974 -0.03820620
v -0.01078538 -0.13340399 -0.03675071
v -0.01474706 -0.13324046 -0.03547618
v -0.01303903 -0.13569337 -0.03484678
v -0.01594111 -0.13465770 -0.03408364
v -0.01964975 -0.13362202 -0.03270682
v -0.02077263 -0.12435549 -0.03429606
v -0.01865340 -0.13614762 -0.03118053
v -0.01985535 -0.13680172 -0.02867080
v -0.01513453 -0.13776471 -0.02828530
v -0.01948369 -0.13791008 -0.02393458
v -0.01513453 -0.13809176 -0.02393458
v -0.01513453 -0.13810994 -0.01958386
v -0.01078538 -0.13812811 -0.01958386
v 0.00225420 -0.13814628 -0.02393458
v -0.01948369 -0.13812811 0.01086332
v -0.01948369 -0.13805542 0.01955689
v -0.01948369 -0.13810994 0.01520617
v -0.01948369 -0.13785556 0.02390762
v -0.01513453 -0.13765570 0.02825833
v -0.01977627 -0.13672903 0.02858877
v -0.01963394 -0.13360386 0.03268773
v -0.01078538 -0.12887974 0.03820284
v -0.01513453 -0.12887974 0.03672375
v -0.01835291 -0.12887974 0.03532334
v -0.01513453 -0.13493025 0.03419042
v -0.01288879 -0.13563886 0.03475688
v -0.01513453 -0.13265904 0.03563804
v -0.02083589 -0.12435549 0.03430843
v -0.02383285 -0.12435549 0.03225502
v -0.02614186 -0.12435549 0.03055564
v -0.02835598 -0.11983124 0.02841569
v -0.01851897 -0.13609311 0.03111423
v -0.02858530 0.01133573 0.02865958
v -0.02855367 0.01585998 0.02865171
v -0.02849041 -0.04744321 0.02859664
v -0.02849832 -0.04293713 0.02860450
v -0.02395938 0.02458143 0.03149187
v -0.02549344 0.02588965 0.03002065
v -0.02622884 0.02038423 0.03063432
v -0.02383285 0.02038423 0.03235730
v -0.02082798 0.02038423 0.03433203
v -0.02693262 0.02943274 0.02700740
v -0.02395938 0.02979613 0.02938339
v -0.02153966 0.03155859 0.03035896
v -0.02359563 0.03366628 0.02718836
v -0.02198248 0.03651891 0.02635440
v -0.01734074 0.04747523 0.02176766
v -0.01965766 0.04747523 0.01960410
v -0.02288394 0.04747523 -0.01553997
v -0.01966557 0.04747523 -0.01923769
v -0.02355609 0.03366628 -0.02723892
v -0.02165037 0.03168577 -0.03045672
v -0.01949160 0.04747523 -0.01941864
v -0.01940462 0.04747523 -0.01950518
v -0.01909622 0.04747523 -0.01979628
v -0.02628420 0.01585998 -0.03070062
v -0.02629211 -0.01580978 -0.03070848
v -0.02629211 -0.02033403 -0.03070848
v -0.02618931 -0.11530698 -0.03061407
v -0.02021910 0.02490849 -0.03401283
v -0.01804452 0.02490849 -0.03518508
v -0.01877992 0.02038423 -0.03557059
v -0.01893807 0.01585998 -0.03566500
v -0.02111265 0.01585998 -0.03449274
v -0.02383285 0.01585998 -0.03255734
v -0.01953114 0.02950542 -0.03267536
v -0.01741982 0.02730688 -0.03486252
v -0.02383285 -0.11530698 -0.03235279
v -0.02383285 -0.11983124 -0.03232918
v -0.02087542 -0.11983124 -0.03435900
v -0.01859805 -0.12435549 -0.03548404
v -0.01513453 -0.12435549 -0.03703394
v -0.00755909 -0.12887974 -0.03899295
v -0.00463329 -0.13127813 -0.03922110
v -0.01036627 -0.12401026 -0.03862317
v -0.00829449 -0.12528214 -0.03911096
v -0.00622271 -0.13304060 -0.03798591
v -0.01078538 -0.13596592 -0.03516148
v -0.01474706 -0.13640198 -0.03263602
v -0.01078538 -0.13711060 -0.03263602
v -0.01078538 -0.13801909 -0.02828530
v -0.00643622 -0.13752851 -0.03263602
v -0.00643622 -0.13809176 -0.02828530
v 0.00225420 -0.13812811 -0.02828530
v -0.00643622 -0.13812811 -0.02393458
v 0.00225420 -0.13812811 0.01520617
v -0.01513453 -0.13812811 0.01520617
v 0.01095251 -0.13812811 -0.02393458
v 0.02399999 -0.13812811 -0.00653169
v 0.02399999 -0.13812811 -0.00218097
v 0.01530167 -0.13812811 0.01086332
v -0.01078538 -0.13809176 0.02390762
v -0.01513453 -0.13803727 0.02390762
v -0.01078538 -0.13792823 0.02825833
v -0.00643622 -0.13738315 0.03260906
v -0.01118075 -0.13669270 0.03302603
v -0.01513453 -0.13649284 0.03201113
v -0.00468074 -0.13129631 0.03920988
v -0.00772515 -0.12887974 0.03898172
v -0.00846055 -0.12589991 0.03910760
v -0.01040581 -0.12437366 0.03861195
v -0.01513453 -0.12435549 0.03703058
v -0.01866131 -0.12435549 0.03548855
v -0.00999462 -0.13596592 0.03515026
v -0.00625434 -0.13304060 0.03787240
v -0.01118075 -0.13384006 0.03628318
v -0.02091496 -0.11983124 0.03435563
v -0.02383285 -0.11983124 0.03233369
v -0.02618140 -0.11983124 0.03059498
v -0.02641072 0.01133573 0.03078380
v -0.02637909 0.01585998 0.03076020
v -0.02631583 -0.04744321 0.03070512
v -0.01949160 0.02525371 0.03403307
v -0.02259137 0.02854242 0.03107490
v -0.02383285 0.01585998 0.03264052
v -0.02112847 0.01585998 0.03448938
v -0.01865340 0.02038423 0.03546495
v -0.01804452 0.02398183 0.03515026
v -0.01984744 0.02979613 0.03208980
v -0.01863758 0.03292132 0.03116144
v -0.01692955 0.03593749 0.03023308
v -0.01984744 0.03424770 0.02956434
v -0.01551410 0.04747523 0.02297138
v -0.01698490 0.03599199 -0.03028364
v -0.01874829 0.03297582 -0.03128281
v -0.01586203 0.03032305 -0.03418591
v -0.01553782 0.04747523 -0.02276232
v -0.01534013 0.04747523 -0.02290393
v -0.02383285 -0.01128553 -0.03252587
v -0.01513453 0.02490849 -0.03635734
v -0.01513453 0.02038423 -0.03712048
v -0.01513453 0.01585998 -0.03732504
v -0.01513453 0.01133573 -0.03732504
v -0.01513453 -0.11530698 -0.03715195
v -0.01872457 -0.11530698 -0.03555485
v -0.02089915 -0.11530698 -0.03436686
v -0.01296786 0.03170395 -0.03481531
v -0.01469962 0.02906934 -0.03520082
v -0.01870084 -0.11983124 -0.03554699
v -0.01513453 -0.11983124 -0.03713622
v -0.01085654 -0.11983124 -0.03857597
v -0.00538451 -0.12887974 -0.03933912
v -0.00208706 -0.12887974 -0.03965382
v -0.00208706 -0.13153252 -0.03931551
v -0.00208706 -0.13378555 -0.03808032
v -0.00863452 -0.12226597 -0.03916603
v -0.00668135 -0.12401026 -0.03940206
v -0.00643622 -0.13632931 -0.03564927
v -0.00208706 -0.13771020 -0.03263602
v -0.00208706 -0.13649284 -0.03590889
v 0.00660336 -0.13810994 -0.02828530
v 0.00225420 -0.13810994 0.02390762
v -0.00643622 -0.13810994 0.02390762
v 0.01530167 -0.13809176 -0.02393458
v 0.01965083 -0.13809176 -0.01958386
v 0.02399999 -0.13810994 -0.01088241
v 0.02834915 -0.13809176 -0.00218097
v 0.02399999 -0.13810994 0.00651260
v 0.01965083 -0.13810994 0.01520617
v -0.00208706 -0.13807361 0.02825833
v -0.00643622 -0.13803727 0.02825833
v -0.00208706 -0.13754668 0.03260906
v -0.00208706 -0.13634748 0.03573245
v -0.00643622 -0.13622030 0.03551216
v -0.00208706 -0.13153252 0.03930428
v -0.00208706 -0.12887974 0.03969766
v -0.00555057 -0.12887974 0.03935149
v -0.00208706 -0.13378555 0.03791174
v -0.00678415 -0.12437366 0.03943803
v -0.00870569 -0.12288374 0.03916267
v -0.01094353 -0.11983124 0.03854901
v -0.01513453 -0.11983124 0.03712499
v -0.01874038 -0.11983124 0.03553576
v -0.01876411 -0.11530698 0.03555150
v -0.02093868 -0.11530698 0.03436351
v -0.02383285 -0.11530698 0.03235730
v -0.02383285 0.01133573 0.03268773
v -0.01717469 0.02699799 0.03473328
v -0.02116801 0.01133573 0.03451299
v -0.01895389 0.01585998 0.03562230
v -0.01513453 0.01585998 0.03726661
v -0.01513453 0.02038423 0.03694404
v -0.01549037 0.02525371 0.03581899
v -0.01549037 0.02970528 0.03423762
v -0.01534013 0.03424770 0.03194819
v -0.01402748 0.03686414 0.03090968
v -0.01111749 0.04747523 0.02539457
v -0.01543502 0.04747523 0.02301859
v -0.01408283 0.03691865 -0.03099171
v -0.01497638 0.03384797 -0.03258881
v -0.01075374 0.04747523 -0.02557101
v -0.01078538 0.02490849 -0.03769481
v -0.01039790 0.02003901 -0.03858383
v -0.01099097 0.01585998 -0.03864678
v -0.01109377 0.01133573 -0.03865464
v -0.01090399 -0.11530698 -0.03859171
v -0.00669717 0.04747523 -0.02702650
v -0.01078538 0.03453842 -0.03379254
v -0.01078538 0.03226721 -0.03511427
v -0.01078538 0.02943274 -0.03627867
v -0.00868196 -0.11983124 -0.03918176
v -0.00208706 -0.12435549 -0.03989771
v 0.00225420 -0.12887974 -0.03966168
v 0.00225420 -0.13153252 -0.03932338
v 0.00225420 -0.13380373 -0.03806458
v -0.00643622 -0.11983124 -0.03952007
v 0.00225420 -0.13769204 -0.03263602
v 0.00225420 -0.13647467 -0.03588529
v 0.01095251 -0.13801909 -0.02828530
v 0.00660336 -0.13809176 0.02390762
v 0.01965083 -0.13794642 -0.02393458
v 0.02399999 -0.13805542 -0.01523314
v 0.02834915 -0.13807361 -0.00653169
v 0.03269831 -0.13767387 -0.00218097
v 0.02834915 -0.13807361 0.00216188
v 0.02399999 -0.13809176 0.01086332
v 0.02399999 -0.13803727 0.01520617
v 0.01965083 -0.13803727 0.01955689
v 0.01530167 -0.13809176 0.01955689
v 0.00225420 -0.13805542 0.02825833
v 0.00225420 -0.13751034 0.03260906
v 0.00660336 -0.13801909 0.02825833
v 0.00225420 -0.13631114 0.03569311
v 0.00225420 -0.13149617 0.03929642
v 0.00225420 -0.12887974 0.03967406
v 0.00225420 -0.12435549 0.03997302
v -0.00208706 -0.12435549 0.03998876
v 0.00225420 -0.13374921 0.03786454
v -0.00643622 -0.11983124 0.03958752
v -0.00876895 -0.11983124 0.03917841
v -0.01095934 -0.11530698 0.03856474
v -0.01513453 -0.11530698 0.03714860
v -0.01899342 0.01133573 0.03564590
v -0.01427261 0.02837890 0.03526040
v -0.01256458 0.03139507 0.03465460
v -0.01513453 0.01133573 0.03731381
v -0.01106214 0.01133573 0.03862768
v -0.01095143 0.01585998 0.03860408
v -0.01078538 0.02490849 0.03746330
v -0.01036627 0.01998450 0.03849393
v -0.01098306 0.03390248 0.03383639
v -0.00899827 0.04747523 0.02627573
v -0.00643622 0.02943274 -0.03715195
v -0.00632551 0.02465411 -0.03860744
v -0.00770143 0.02132906 -0.03902442
v -0.00868196 0.01831289 -0.03917390
v -0.00881639 0.01585998 -0.03921324
v -0.00891919 0.01133573 -0.03924471
v -0.00891919 0.00681148 -0.03924471
v -0.00872941 -0.11530698 -0.03918964
v -0.00208706 0.04747523 -0.02770310
v -0.00643622 0.03541057 -0.03433540
v -0.00643622 0.03313936 -0.03557059
v -0.00643622 -0.11530698 -0.03955154
v -0.00208706 -0.11983124 -0.03999212
v 0.00225420 -0.12435549 -0.03990558
v 0.00554374 -0.12887974 -0.03934698
v 0.00481625 -0.13129631 -0.03922897
v 0.00639776 -0.13304060 -0.03793083
v 0.00660336 -0.13629297 -0.03559419
v -0.00208706 -0.11530698 -0.04003146
v 0.00660336 -0.13751034 -0.03263602
v 0.01530167 -0.13778289 -0.02828530
v 0.02399999 -0.13727413 -0.02393458
v 0.02399999 -0.13791008 -0.01958386
v 0.02834915 -0.13796458 -0.01088241
v 0.03269831 -0.13747399 -0.00653169
v 0.03601158 -0.13645650 -0.00218097
v 0.03600367 -0.13645650 0.00216188
v 0.03269831 -0.13765570 0.00216188
v 0.02834915 -0.13803727 0.00651260
v 0.02834915 -0.13794642 0.01086332
v 0.02399999 -0.13781923 0.01955689
v 0.01530167 -0.13800092 0.02390762
v 0.00660336 -0.13729231 0.03260906
v 0.01095251 -0.13789190 0.02825833
v 0.00660336 -0.13612945 0.03540202
v 0.00473717 -0.13125997 0.03919414
v 0.00554374 -0.12887974 0.03933576
v 0.00688012 -0.12404660 0.03941443
v 0.00660336 -0.11983124 0.03954818
v 0.00225420 -0.11983124 0.04007531
v -0.00208706 -0.11983124 0.04009103
v 0.00635031 -0.13302242 0.03775439
v -0.00208706 -0.11530698 0.04011464
v -0.00643622 -0.11530698 0.03959539
v -0.00878476 -0.11530698 0.03918627
v -0.01098306 0.02970528 0.03580326
v -0.00967041 0.03235805 0.03511092
v -0.00888756 0.01133573 0.03920988
v -0.00877685 0.01585998 0.03917841
v -0.00864243 0.01820387 0.03914694
v -0.00643622 0.02943274 0.03700698
v -0.00759072 0.02122004 0.03898959
v -0.00626225 0.02461777 0.03853327
v -0.00643622 0.03533789 0.03429270
v -0.00670507 0.04747523 0.02699167
v -0.00208706 0.02943274 -0.03756893
v -0.00208706 0.02559893 -0.03877266
v -0.00480726 0.02298249 -0.03923684
v -0.00632551 0.02003901 -0.03934698
v -0.00643622 0.01585998 -0.03956727
v -0.00643622 0.01133573 -0.03963022
v -0.00643622 0.00681148 -0.03964595
v -0.00643622 0.00228722 -0.03964595
v -0.00643622 -0.05649171 -0.03962234
v -0.00202380 0.04747523 -0.02770310
v -0.00208706 0.03581030 -0.03456355
v -0.00208706 0.03353909 -0.03578301
v -0.00208706 -0.11078273 -0.04004719
v -0.00208706 -0.05649171 -0.04018094
v -0.00208706 -0.06101596 -0.04017307
v 0.00225420 -0.11983124 -0.03999212
v 0.00225420 -0.11530698 -0.04003932
v 0.00630287 -0.12435549 -0.03946500
v 0.00771832 -0.12887974 -0.03896934
v 0.00847745 -0.12435549 -0.03911096
v 0.01095251 -0.12887974 -0.03817473
v 0.01095251 -0.13340399 -0.03667991
v 0.01315872 -0.13567521 -0.03482318
v 0.01095251 -0.13592959 -0.03511427
v 0.01095251 -0.13705610 -0.03263602
v 0.01488257 -0.13640198 -0.03262815
v 0.01999086 -0.13681989 -0.02865507
v 0.02399999 -0.13620212 -0.02719172
v 0.02722628 -0.13618395 -0.02393458
v 0.02869709 -0.13676538 -0.01989069
v 0.02834915 -0.13769204 -0.01523314
v 0.03269831 -0.13700160 -0.01088241
v 0.03571109 -0.13629297 -0.00653169
v 0.03818616 -0.13409444 -0.00218097
v 0.03269831 -0.13743765 0.00651260
v 0.03817825 -0.13409444 0.00216188
v 0.03571109 -0.13629297 0.00651260
v 0.02834915 -0.13765570 0.01520617
v 0.01965083 -0.13776471 0.02390762
v 0.02399999 -0.13705610 0.02390762
v 0.01530167 -0.13752851 0.02825833
v 0.01111857 -0.13662003 0.03293949
v 0.00978220 -0.13589324 0.03506371
v 0.01111857 -0.13374921 0.03616516
v 0.01530167 -0.13245917 0.03553576
v 0.01095251 -0.12887974 0.03809270
v 0.00771832 -0.12887974 0.03893451
v 0.00850908 -0.12533665 0.03908400
v 0.00880957 -0.12232048 0.03914694
v 0.00884120 -0.11983124 0.03915481
v 0.00660336 -0.11530698 0.03956392
v 0.00225420 -0.11530698 0.04009891
v 0.00225420 -0.05649171 0.04018544
v -0.00208706 -0.04293713 0.04017758
v -0.00643622 -0.03841287 0.03963473
v -0.00643622 0.03306668 0.03547282
v -0.00643622 0.00681148 0.03958752
v -0.00643622 0.01133573 0.03957965
v -0.00643622 0.01585998 0.03951671
v -0.00626225 0.01998450 0.03930428
v -0.00208706 0.02554442 0.03874569
v -0.00208706 0.02943274 0.03751050
v -0.00469655 0.02290982 0.03919414
v -0.00208706 0.03584663 0.03457593
v -0.00214241 0.04747523 0.02766041
v 0.00225420 0.02943274 -0.03757680
v 0.00225420 0.02548991 -0.03878839
v -0.00208706 0.02332772 -0.03931551
v -0.00208706 0.02038423 -0.03968529
v -0.00208706 0.01585998 -0.03996065
v -0.00208706 0.01133573 -0.04005506
v -0.00208706 0.00681148 -0.04007866
v -0.00208706 -0.02485829 -0.04015733
v -0.00208706 -0.02938254 -0.04016520
v -0.00208706 -0.05196746 -0.04018094
v 0.00230955 0.04747523 -0.02767163
v 0.00225420 0.03577395 -0.03454782
v 0.00225420 0.03352092 -0.03577515
v 0.00225420 -0.11078273 -0.04005506
v 0.00225420 -0.06101596 -0.04018094
v 0.00225420 -0.02938254 -0.04018881
v 0.00700664 -0.11948601 -0.03944139
v 0.00660336 -0.11530698 -0.03952793
v 0.00873049 -0.12077606 -0.03915030
v 0.01095251 -0.12435549 -0.03847370
v 0.01530167 -0.12887974 -0.03666417
v 0.01789535 -0.13162336 -0.03503560
v 0.01530167 -0.12435549 -0.03701034
v 0.01488257 -0.13324046 -0.03545258
v 0.02167517 -0.13556618 -0.03034658
v 0.01877310 -0.13614762 -0.03118053
v 0.01605289 -0.13463953 -0.03408364
v 0.02627737 -0.13572971 -0.02621615
v 0.03037349 -0.13552985 -0.02155073
v 0.03120378 -0.13611126 -0.01864762
v 0.03267459 -0.13634748 -0.01480042
v 0.03518920 -0.13591140 -0.01088241
v 0.03808336 -0.13314961 -0.00657890
v 0.03937229 -0.13149617 -0.00516275
v 0.03951463 -0.13182323 -0.00218097
v 0.03952254 -0.13184140 0.00216188
v 0.03269831 -0.13698341 0.01086332
v 0.03937229 -0.13149617 0.00523020
v 0.03809127 -0.13316778 0.00660701
v 0.03518920 -0.13591140 0.01086332
v 0.03266668 -0.13631114 0.01478133
v 0.03120378 -0.13609311 0.01857346
v 0.02866545 -0.13669270 0.01984012
v 0.02713139 -0.13609311 0.02390762
v 0.02620620 -0.13567521 0.02611051
v 0.02399999 -0.13607493 0.02695233
v 0.01982480 -0.13662003 0.02850223
v 0.01530167 -0.13640198 0.03181444
v 0.01268427 -0.13551167 0.03460740
v 0.01787163 -0.13155068 0.03499291
v 0.01530167 -0.13473038 0.03399374
v 0.01530167 -0.12887974 0.03656640
v 0.01530167 -0.12435549 0.03693617
v 0.01053341 -0.12404660 0.03858048
v 0.01101577 -0.11983124 0.03852541
v 0.00887283 -0.11530698 0.03916267
v 0.00660336 -0.06101596 0.03963473
v 0.00660336 -0.05649171 0.03963473
v 0.00660336 -0.02485829 0.03961899
v 0.00225420 -0.02938254 0.04016971
v -0.00208706 -0.03841287 0.04017758
v -0.00208706 0.03359360 0.03572458
v -0.00208706 0.01133573 0.03998876
v -0.00208706 -0.03388862 0.04016971
v -0.00208706 -0.02033403 0.04012251
v -0.00208706 0.00681148 0.04001236
v -0.00208706 0.01585998 0.03992582
v -0.00208706 0.02038423 0.03965045
v 0.00225420 0.02558077 0.03875356
v -0.00208706 0.02329138 0.03928068
v 0.00225420 0.02943274 0.03752623
v 0.00225420 0.03357542 0.03573245
v 0.00225420 0.03584663 0.03456806
v 0.00225420 0.04747523 0.02768401
v 0.00219094 0.04747523 0.02768401
v 0.00660336 0.02943274 -0.03713622
v 0.00634241 0.02456326 -0.03859957
v 0.00472136 0.02283714 -0.03919750
v 0.00225420 0.02323688 -0.03929191
v 0.00225420 0.02038423 -0.03963808
v 0.00225420 0.01585998 -0.03992918
v 0.00225420 0.01133573 -0.04003146
v 0.00225420 0.00681148 -0.04006292
v 0.00680895 0.04747523 -0.02693996
v 0.00660336 0.03531971 -0.03427245
v 0.00660336 0.03304850 -0.03553912
v 0.00660336 -0.06101596 -0.03963808
v 0.00660336 -0.06554021 -0.03963022
v 0.00660336 -0.02938254 -0.03965382
v 0.00660336 0.00681148 -0.03958301
v 0.00660336 -0.02485829 -0.03964595
v 0.00877793 -0.11775989 -0.03915816
v 0.00879375 -0.11530698 -0.03916603
v 0.01051760 -0.11948601 -0.03867825
v 0.01530167 -0.11983124 -0.03711262
v 0.01836190 -0.12887974 -0.03528736
v 0.02053648 -0.12887974 -0.03405216
v 0.02376277 -0.12887974 -0.03187287
v 0.02298782 -0.13255001 -0.03129854
v 0.01870983 -0.12435549 -0.03547618
v 0.02426094 -0.13378555 -0.02944182
v 0.02715511 -0.13340399 -0.02709731
v 0.02947993 -0.13376738 -0.02419420
v 0.03410586 -0.13463953 -0.01596481
v 0.03487289 -0.13565703 -0.01306958
v 0.03135403 -0.13251368 -0.02291967
v 0.03511011 -0.13162336 -0.01784514
v 0.03684187 -0.13340399 -0.01088241
v 0.03909553 -0.13004260 -0.00806585
v 0.03951463 -0.12866170 -0.00657890
v 0.04002862 -0.12887974 -0.00218097
v 0.04003653 -0.12887974 0.00216188
v 0.03952254 -0.12873438 0.00660701
v 0.03911926 -0.13015161 0.00812544
v 0.03685769 -0.13340399 0.01086332
v 0.03487289 -0.13565703 0.01304261
v 0.03031813 -0.13551167 0.02147656
v 0.02944040 -0.13376738 0.02421445
v 0.02714720 -0.13340399 0.02704674
v 0.02428466 -0.13369470 0.02927324
v 0.02138259 -0.13542083 0.03011506
v 0.01848842 -0.13602043 0.03100409
v 0.01962711 -0.13347667 0.03259332
v 0.02302736 -0.13240466 0.03127945
v 0.02592944 -0.12978823 0.03023308
v 0.02051276 -0.12887974 0.03403307
v 0.01833818 -0.12887974 0.03523679
v 0.01868611 -0.12435549 0.03541775
v 0.01530167 -0.11983124 0.03703058
v 0.01104741 -0.11530698 0.03853327
v 0.01119765 0.00681148 0.03863555
v 0.00902307 0.00681148 0.03919414
v 0.00900725 0.01133573 0.03919414
v 0.00660336 0.00681148 0.03957178
v 0.00660336 0.01133573 0.03956392
v 0.00225420 -0.02485829 0.04015398
v 0.00225420 0.01133573 0.03998876
v 0.00225420 0.01585998 0.03993369
v 0.00225420 0.00681148 0.04001236
v 0.00225420 0.02038423 0.03966619
v 0.00660336 0.02943274 0.03705419
v 0.00225420 0.02332772 0.03928856
v 0.00490323 0.02294616 0.03920201
v 0.00645311 0.02463594 0.03855688
v 0.00660336 0.03308484 0.03549643
v 0.00660336 0.03533789 0.03426910
v 0.00686431 0.04747523 0.02699167
v 0.01095251 0.02490849 -0.03761614
v 0.01002733 0.03237622 -0.03517721
v 0.01126882 0.02979613 -0.03594036
v 0.00776577 0.02038423 -0.03901655
v 0.00559119 0.02038423 -0.03933125
v 0.00691966 0.01573279 -0.03942566
v 0.00660336 0.01133573 -0.03955941
v 0.00903098 0.04747523 -0.02624762
v 0.01126882 0.03392065 -0.03387908
v 0.00893609 -0.06101596 -0.03920537
v 0.00889655 0.01133573 -0.03918964
v 0.00895190 -0.02938254 -0.03921324
v 0.01096833 -0.11530698 -0.03856811
v 0.01530167 -0.11530698 -0.03712835
v 0.01884426 -0.11530698 -0.03554699
v 0.01881263 -0.11983124 -0.03553125
v 0.02088441 -0.12435549 -0.03425672
v 0.02593735 -0.12887974 -0.03026790
v 0.02441909 -0.12439182 -0.03177059
v 0.02614294 -0.12591808 -0.03043312
v 0.02098721 -0.11983124 -0.03431966
v 0.02814356 -0.12887974 -0.02808861
v 0.03031813 -0.12887974 -0.02586211
v 0.03553713 -0.13324046 -0.01480042
v 0.03193128 -0.12887974 -0.02369068
v 0.03410586 -0.12887974 -0.02049648
v 0.03537898 -0.12887974 -0.01832506
v 0.03681816 -0.12887974 -0.01523314
v 0.03855782 -0.12866170 -0.01053625
v 0.03926159 -0.12702643 -0.00885260
v 0.03974395 -0.12435549 -0.00653169
v 0.04026585 -0.12435549 -0.00218097
v 0.04027376 -0.12435549 0.00216188
v 0.03976767 -0.12435549 0.00651260
v 0.03926950 -0.12713545 0.00885711
v 0.03514175 -0.13169604 0.01788899
v 0.03556876 -0.13327681 0.01478133
v 0.03858944 -0.12873438 0.01053289
v 0.03688141 -0.12887974 0.01520617
v 0.03410586 -0.13471221 0.01594572
v 0.03276157 -0.13360386 0.01968277
v 0.03141729 -0.13249550 0.02296352
v 0.03033395 -0.12975188 0.02586662
v 0.02827008 -0.12826197 0.02817179
v 0.02619830 -0.12677206 0.03045336
v 0.02428466 -0.12851635 0.03158628
v 0.02086069 -0.12435549 0.03422976
v 0.01876519 -0.11983124 0.03546495
v 0.01877310 -0.11530698 0.03548069
v 0.01530167 -0.11530698 0.03704632
v 0.01530167 0.00681148 0.03732168
v 0.01530167 0.01133573 0.03732955
v 0.01118183 0.01133573 0.03863555
v 0.01107113 0.01585998 0.03861195
v 0.00889655 0.01585998 0.03916267
v 0.00660336 0.01585998 0.03950884
v 0.00645311 0.01994816 0.03931216
v 0.01095251 0.02490849 0.03756557
v 0.01126882 0.02979613 0.03587406
v 0.01002733 0.03237622 0.03513452
v 0.00780530 0.02118370 0.03898959
v 0.01092088 0.04747523 0.02555979
v 0.01126882 0.03390248 0.03386785
v 0.01456627 0.02854242 -0.03537391
v 0.01572868 0.02534456 -0.03594036
v 0.01530167 0.02038423 -0.03697887
v 0.01095251 0.02038423 -0.03833995
v 0.01292150 0.03155859 -0.03474450
v 0.00858025 0.01716820 -0.03912670
v 0.00884120 0.01415203 -0.03917390
v 0.01115811 0.04747523 -0.02534286
v 0.01414717 0.03684597 -0.03092877
v 0.01111067 -0.06101596 -0.03857597
v 0.01107113 0.01133573 -0.03859957
v 0.01530167 0.01133573 -0.03721489
v 0.01897869 0.01133573 -0.03559419
v 0.01894706 -0.04293713 -0.03556272
v 0.02101884 -0.11530698 -0.03433540
v 0.02114536 -0.01128553 -0.03442981
v 0.02112164 -0.03841287 -0.03441407
v 0.02112164 -0.04293713 -0.03440620
v 0.02399999 -0.11983124 -0.03218757
v 0.02619830 -0.12290192 -0.03048819
v 0.02834915 -0.12439182 -0.02828530
v 0.03049210 -0.12588174 -0.02607453
v 0.02399999 -0.11530698 -0.03222691
v 0.03182057 -0.12437366 -0.02435155
v 0.03429564 -0.12435549 -0.02082692
v 0.03556085 -0.12435549 -0.01864762
v 0.03715027 -0.12435549 -0.01523314
v 0.03863689 -0.12435549 -0.01113417
v 0.03929322 -0.12435549 -0.00895488
v 0.03985466 -0.02938254 -0.00653169
v 0.04043982 -0.02938254 -0.00218097
v 0.04047936 -0.02938254 0.00216188
v 0.03931695 -0.11983124 0.00902233
v 0.03930904 -0.12435549 0.00899873
v 0.03994955 -0.02938254 0.00651260
v 0.03866852 -0.12435549 0.01117015
v 0.03542642 -0.12887974 0.01839251
v 0.03418493 -0.12887974 0.02057180
v 0.03721353 -0.12435549 0.01520617
v 0.03171777 -0.12849818 0.02421445
v 0.03053955 -0.12673571 0.02610264
v 0.02841241 -0.12435549 0.02831341
v 0.02623783 -0.12435549 0.03049270
v 0.02399999 -0.12435549 0.03210554
v 0.02093977 -0.11983124 0.03426910
v 0.02128770 0.00681148 0.03447365
v 0.01907358 -0.00676128 0.03563017
v 0.01912103 0.01133573 0.03565377
v 0.01908940 0.01585998 0.03563804
v 0.01530167 0.01585998 0.03729021
v 0.01530167 0.02038423 0.03703845
v 0.01052551 0.01994816 0.03852541
v 0.00879375 0.01816753 0.03913907
v 0.01572868 0.02534456 0.03592127
v 0.01455836 0.02854242 0.03532334
v 0.01292150 0.03155859 0.03472541
v 0.01552309 0.04747523 0.02289271
v 0.01418671 0.03686414 0.03090968
v 0.01708878 0.03593749 0.03023308
v 0.01746044 0.02714335 -0.03480744
v 0.01822747 0.02412718 -0.03519295
v 0.01878100 0.02038423 -0.03548404
v 0.01530167 0.01585998 -0.03719916
v 0.01055714 0.01573279 -0.03868612
v 0.01572868 0.02979613 -0.03435900
v 0.01547564 0.03422953 -0.03203022
v 0.01882845 0.03290314 -0.03121987
v 0.01545983 0.04747523 -0.02286460
v 0.01704924 0.03591931 -0.03023643
v 0.01896288 0.01585998 -0.03558633
v 0.02113745 0.01585998 -0.03442193
v 0.02115327 0.01133573 -0.03442193
v 0.02399999 -0.03841287 -0.03244720
v 0.02399999 -0.01128553 -0.03247080
v 0.02622993 -0.11983124 -0.03051180
v 0.03054746 -0.12286557 -0.02613747
v 0.02840451 -0.11983124 -0.02834037
v 0.02630900 -0.08816147 -0.03057474
v 0.02624574 -0.11530698 -0.03051966
v 0.02640389 -0.03841287 -0.03066128
v 0.02639599 -0.04293713 -0.03065341
v 0.03221595 -0.11983124 -0.02393458
v 0.03434308 -0.11983124 -0.02089773
v 0.03559248 -0.11983124 -0.01871843
v 0.03720563 -0.11983124 -0.01523314
v 0.03865271 -0.11983124 -0.01113417
v 0.03870015 -0.05649171 -0.01119711
v 0.03932485 -0.02938254 -0.00906502
v 0.03929322 0.01585998 -0.00897848
v 0.03968860 0.01585998 -0.00653169
v 0.04017096 0.01585998 -0.00218097
v 0.04021840 0.01585998 0.00216188
v 0.03977558 0.01585998 0.00651260
v 0.03935648 -0.05649171 0.00917181
v 0.03872388 -0.05649171 0.01135111
v 0.03868433 -0.11983124 0.01119376
v 0.03933276 0.01585998 0.00910100
v 0.03934066 0.01133573 0.00911674
v 0.03938020 -0.02938254 0.00919541
v 0.03726098 -0.11983124 0.01520617
v 0.03559248 -0.12435549 0.01869934
v 0.03435890 -0.12435549 0.02087077
v 0.03562411 -0.11983124 0.01875441
v 0.03223177 -0.12435549 0.02390762
v 0.03057118 -0.12435549 0.02614198
v 0.02845195 -0.11983124 0.02835275
v 0.02627737 -0.11983124 0.03052417
v 0.02399999 -0.11983124 0.03218421
v 0.02399999 -0.00223703 0.03253825
v 0.02129561 0.01133573 0.03448152
v 0.01911312 0.00681148 0.03564590
v 0.02126398 0.01585998 0.03445792
v 0.01886008 0.02038423 0.03551216
v 0.01825910 0.02414536 0.03519746
v 0.01746044 0.02716153 0.03478049
v 0.01572868 0.02979613 0.03433203
v 0.01878891 0.03292132 0.03119291
v 0.01550727 0.03424770 0.03200326
v 0.01568124 0.04747523 0.02278256
v 0.02000667 0.03424770 0.02950927
v 0.02169098 0.03154042 0.03034322
v 0.01966665 0.02534456 -0.03409150
v 0.02002249 0.02981430 -0.03217184
v 0.02273478 0.02856059 -0.03110972
v 0.02095558 0.02038423 -0.03431966
v 0.02172262 0.03157676 -0.03039378
v 0.01727857 0.04747523 -0.02159793
v 0.02002249 0.03422953 -0.02956770
v 0.02399999 0.01585998 -0.03241573
v 0.02399999 0.01133573 -0.03243933
v 0.02443491 0.02083847 -0.03186500
v 0.02641180 -0.00676128 -0.03066914
v 0.02641180 -0.01580978 -0.03066914
v 0.03057118 -0.11983124 -0.02616108
v 0.02842032 -0.11530698 -0.02834824
v 0.02848358 -0.08816147 -0.02841118
v 0.02857847 -0.02485829 -0.02850559
v 0.02857847 -0.02938254 -0.02849772
v 0.02857847 -0.03841287 -0.02848198
v 0.02857056 -0.04293713 -0.02848198
v 0.03223967 -0.11530698 -0.02393458
v 0.03439053 -0.10173422 -0.02096067
v 0.03562411 -0.10173422 -0.01878924
v 0.03563202 -0.09720998 -0.01879711
v 0.03724516 -0.10173422 -0.01523314
v 0.03731633 -0.05649171 -0.01523314
v 0.03733214 0.01585998 -0.01523314
v 0.03868433 -0.02938254 -0.01124432
v 0.03870015 0.01585998 -0.01114991
v 0.03926159 0.01960293 -0.00888407
v 0.03953044 0.02082030 -0.00696441
v 0.04008398 0.02038423 -0.00218097
v 0.04012351 0.02038423 0.00216188
v 0.03967278 0.02038423 0.00651260
v 0.03928531 0.02038423 0.00891218
v 0.03737168 -0.05649171 0.01520617
v 0.03873969 0.01133573 0.01129603
v 0.03740331 0.01585998 0.01520617
v 0.03740331 0.01133573 0.01520617
v 0.03873969 0.01585998 0.01128030
v 0.03569528 -0.05649171 0.01890389
v 0.03439053 -0.11983124 0.02092584
v 0.03448542 -0.05649171 0.02108319
v 0.03229503 -0.11983124 0.02390762
v 0.03060281 -0.11983124 0.02618132
v 0.03071351 -0.05649171 0.02630720
v 0.02853893 -0.05649171 0.02847862
v 0.02861010 -0.02033403 0.02852583
v 0.02643552 -0.02033403 0.03066579
v 0.02399999 0.00681148 0.03256185
v 0.02399999 0.01133573 0.03256185
v 0.02399999 0.01585998 0.03251465
v 0.02399999 0.02038423 0.03225502
v 0.02103466 0.02038423 0.03432417
v 0.01969037 0.02534456 0.03405667
v 0.02268734 0.02852426 0.03105916
v 0.02000667 0.02979613 0.03212914
v 0.01917638 0.04747523 0.01981652
v 0.02205473 0.03642806 0.02628360
v 0.02407907 0.02979613 0.02928898
v 0.02629319 0.03184931 0.02620492
v 0.02369951 0.03359360 0.02709395
v 0.02359671 0.02490849 -0.03173912
v 0.02577129 0.02490849 -0.03013416
v 0.02411070 0.02981430 -0.02941035
v 0.02617457 0.02265544 -0.03045672
v 0.02211799 0.03648258 -0.02635776
v 0.02373904 0.03366628 -0.02720745
v 0.02637226 0.03195832 -0.02631056
v 0.01950059 0.04747523 -0.01945011
v 0.02628528 0.01963927 -0.03055900
v 0.02636435 0.01585998 -0.03062981
v 0.02638808 0.01133573 -0.03065341
v 0.02858638 -0.01580978 -0.02849772
v 0.02856266 0.01133573 -0.02849772
v 0.03057909 -0.11530698 -0.02617681
v 0.03062653 -0.09268572 -0.02622401
v 0.03071351 -0.02485829 -0.02633416
v 0.03067398 -0.05649171 -0.02628695
v 0.03232666 -0.09268572 -0.02393458
v 0.03440635 -0.09268572 -0.02098427
v 0.03566365 -0.05649171 -0.01886791
v 0.03567156 0.01133573 -0.01891512
v 0.03567156 0.01585998 -0.01891512
v 0.03721353 0.02038423 -0.01523314
v 0.03877132 0.02082030 -0.01055198
v 0.03922205 0.02261910 -0.00870312
v 0.03942765 0.02381830 -0.00580002
v 0.03956208 0.02516286 -0.00211803
v 0.03940393 0.02365477 0.00651260
v 0.03957789 0.02521737 0.00217761
v 0.03922996 0.02270995 0.00872336
v 0.03866852 0.02038423 0.01109148
v 0.03571109 0.01133573 0.01895897
v 0.03571109 0.01585998 0.01894323
v 0.03723725 0.02038423 0.01520617
v 0.03451705 0.01133573 0.02113039
v 0.03250853 -0.05649171 0.02390762
v 0.03257970 0.01133573 0.02390762
v 0.03075305 -0.02033403 0.02634654
v 0.02864173 0.00228722 0.02851796
v 0.02646715 0.00228722 0.03069726
v 0.02646715 0.01133573 0.03069726
v 0.02643552 0.01585998 0.03066579
v 0.02630109 0.02038423 0.03054777
v 0.02618248 0.02269178 0.03044550
v 0.02407907 0.02447241 0.03145254
v 0.02558941 0.02570795 0.02994985
v 0.01954803 0.04747523 0.01946248
v 0.02698114 0.02943274 0.02689726
v 0.02936923 0.02977796 0.02399416
v 0.03042884 0.03152225 0.02160244
v 0.02717092 0.03359360 0.02360865
v 0.02637226 0.03642806 0.02196435
v 0.01990388 0.04747523 0.01908485
v 0.02709185 0.02943274 -0.02702650
v 0.03009672 0.02570795 -0.02558675
v 0.02853103 0.02449058 -0.02760083
v 0.03053164 0.02269178 -0.02612174
v 0.02798540 0.02083847 -0.02879668
v 0.02645134 0.03651891 -0.02208572
v 0.02732117 0.03366628 -0.02369068
v 0.03050001 0.03164944 -0.02172381
v 0.02950366 0.02986881 -0.02406046
v 0.02166726 0.04747523 -0.01721574
v 0.02853893 0.01585998 -0.02848198
v 0.03061071 0.02038423 -0.02620828
v 0.03071351 -0.02033403 -0.02633416
v 0.03070561 0.01133573 -0.02631843
v 0.03068979 0.01585998 -0.02630269
v 0.03242155 -0.05649171 -0.02393458
v 0.03249272 0.01133573 -0.02393458
v 0.03246899 -0.02485829 -0.02393458
v 0.03443797 -0.05649171 -0.02103934
v 0.03444588 -0.05196746 -0.02103934
v 0.03447751 0.01585998 -0.02109441
v 0.03560038 0.02038423 -0.01876564
v 0.03658883 0.02490849 -0.01523314
v 0.03814662 0.02490849 -0.01088241
v 0.03900855 0.02516286 -0.00696441
v 0.03915879 0.02683447 -0.00352631
v 0.03926950 0.02730688 -0.00063108
v 0.03917460 0.02694349 0.00363310
v 0.03897691 0.02592598 0.00651260
v 0.03926950 0.02730688 0.00073786
v 0.03836803 0.02449058 0.01044634
v 0.03450915 0.01585998 0.02112252
v 0.03561620 0.02038423 0.01875441
v 0.03657302 0.02490849 0.01520617
v 0.03526036 0.02490849 0.01809354
v 0.03254807 0.01585998 0.02390762
v 0.03075305 0.01133573 0.02635440
v 0.02864173 0.01133573 0.02852583
v 0.02861010 0.01585998 0.02851010
v 0.02847567 0.02038423 0.02836848
v 0.03052373 0.02265544 0.02608691
v 0.02811193 0.02418170 0.02801444
v 0.03003346 0.02567161 0.02550471
v 0.03115634 0.02850608 0.02260161
v 0.03271412 0.02945091 0.01956476
v 0.03426401 0.03037756 0.01617387
v 0.03136193 0.03299400 0.01869934
v 0.03035767 0.03601017 0.01711011
v 0.02961436 0.03428404 0.01991093
v 0.02286130 0.04747523 0.01559955
v 0.03119588 0.02863327 -0.02269151
v 0.03158335 0.02449058 -0.02406046
v 0.03401097 0.02490849 -0.02030766
v 0.03439053 0.02038423 -0.02094493
v 0.03230293 0.02038423 -0.02393458
v 0.03428773 0.03039573 -0.01621657
v 0.03273785 0.02952359 -0.01964680
v 0.02974088 0.03432038 -0.02000083
v 0.03041303 0.03608284 -0.01722361
v 0.03138566 0.03306668 -0.01882858
v 0.02296410 0.04747523 -0.01538262
v 0.03247690 0.01585998 -0.02393458
v 0.03526036 0.02490849 -0.01813624
v 0.03495197 0.02737956 -0.01756191
v 0.03541851 0.02910568 -0.01494991
v 0.03679443 0.02943274 -0.01088241
v 0.03784614 0.02943274 -0.00653169
v 0.03851828 0.02906934 -0.00211803
v 0.03853410 0.02906934 0.00217761
v 0.03788567 0.02943274 0.00651260
v 0.03681025 0.02943274 0.01086332
v 0.03439844 0.02038423 0.02093370
v 0.03231875 0.02038423 0.02390762
v 0.03541060 0.02908751 0.01492294
v 0.03495197 0.02736139 0.01751922
v 0.03397934 0.02490849 0.02027284
v 0.03073724 0.01585998 0.02633080
v 0.03061862 0.02038423 0.02619705
v 0.03155172 0.02445424 0.02399416
v 0.03498360 0.03188564 0.01327864
v 0.03269831 0.03393882 0.01519044
v 0.02550243 0.04747523 0.01137471
v 0.02300364 0.04747523 0.01541073
v 0.03498360 0.03190381 -0.01331347
v 0.03114843 0.03700950 -0.01432051
v 0.03271412 0.03399333 -0.01526460
v 0.02567640 0.04747523 -0.01086668
v 0.03539479 0.03264877 -0.01088241
v 0.03572691 0.03413869 -0.00612258
v 0.03631207 0.03395698 -0.00218097
v 0.03631998 0.03395698 0.00216188
v 0.03574273 0.03413869 0.00609562
v 0.03539479 0.03263060 0.01086332
v 0.03401888 0.03488364 0.01086332
v 0.02594525 0.04747523 0.01032046
v 0.03404260 0.03490181 -0.01088241
v 0.02639599 0.04747523 -0.00916730
v 0.03458822 0.03577395 -0.00729484
v 0.03488080 0.03622820 -0.00439174
v 0.03496778 0.03635539 -0.00218097
v 0.03496778 0.03635539 0.00216188
v 0.03488080 0.03622820 0.00437264
v 0.03457240 0.03575579 0.00727575
v 0.02729745 0.04747523 0.00691384
v 0.02713930 0.04747523 0.00733082
v 0.02721837 0.04747523 -0.00689360
v 0.02809611 0.04747523 -0.00218097
v 0.02812774 0.04747523 0.00216188
v 0.02811983 0.04747523 0.00221695
f 248 249 250
f 248 250 251
f 248 251 252
f 248 252 253
f 248 253 254
f 248 254 257
f 248 257 249
f 249 255 256
f 249 256 250
f 249 257 255
f 250 256 270
f 250 270 258
f 250 258 251
f 251 258 259
f 251 259 260
f 251 260 252
f 252 261 253
f 252 260 262
f 252 262 261
f 253 261 263
f 253 263 264
f 253 264 254
f 254 264 265
f 254 265 266
f 254 266 257
f 255 267 256
f 255 257 268
f 255 268 267
f 256 267 269
f 256 269 270
f 257 266 271
f 257 271 268
f 258 270 272
f 258 272 273
f 258 273 274
f 258 274 259
f 259 274 275
f 259 275 260
f 260 275 276
f 260 276 262
f 261 277 263
f 261 262 277
f 262 276 278
f 262 278 277
f 263 277 279
f 263 279 280
f 263 280 264
f 264 280 281
f 264 281 282
f 264 282 265
f 265 282 283
f 265 283 284
f 265 284 285
f 265 285 266
f 266 285 286
f 266 286 287
f 266 287 271
f 267 288 289
f 267 289 269
f 267 268 290
f 267 290 288
f 268 271 290
f 269 291 292
f 269 292 270
f 269 289 291
f 270 292 272
f 271 293 290
f 271 287 294
f 271 294 293
f 272 292 295
f 272 295 296
f 272 296 273
f 273 296 297
f 273 297 274
f 274 297 298
f 274 298 299
f 274 299 275
f 275 299 300
f 275 300 276
f 276 300 301
f 276 301 278
f 277 302 279
f 277 278 303
f 277 303 302
f 278 301 303
f 279 302 304
f 279 304 305
f 279 305 280
f 280 305 281
f 281 306 307
f 281 307 282
f 281 305 306
f 282 307 283
f 283 307 308
f 283 308 309
f 283 309 284
f 284 309 285
f 285 309 310
f 285 310 286
f 286 311 287
f 286 310 312
f 286 312 311
f 287 311 294
f 288 313 289
f 288 290 314
f 288 314 313
f 289 313 291
f 290 293 314
f 291 313 315
f 291 315 316
f 291 316 292
f 292 316 295
f 293 317 314
f 293 294 317
f 294 311 318
f 294 318 317
f 295 316 319
f 295 319 320
f 295 320 296
f 296 320 321
f 296 321 297
f 297 321 322
f 297 322 298
f 298 322 299
f 299 322 323
f 299 323 300
f 300 323 324
f 300 324 301
f 301 324 325
f 301 325 303
f 302 326 327
f 302 327 304
f 302 303 328
f 302 328 326
f 303 325 329
f 303 329 328
f 304 327 330
f 304 330 331
f 304 331 305
f 305 331 332
f 305 332 333
f 305 333 306
f 306 333 307
f 307 333 334
f 307 334 335
f 307 335 336
f 307 336 308
f 308 336 337
f 308 337 338
f 308 338 309
f 309 338 339
f 309 339 340
f 309 340 341
f 309 341 310
f 310 341 342
f 310 342 312
f 311 343 318
f 311 312 344
f 311 344 345
f 311 345 346
f 311 346 343
f 312 342 347
f 312 347 348
f 312 348 344
f 313 349 350
f 313 350 315
f 313 314 351
f 313 351 352
f 313 352 349
f 314 317 351
f 315 350 353
f 315 353 354
f 315 354 316
f 316 354 319
f 317 355 351
f 317 318 343
f 317 343 355
f 319 354 356
f 319 356 357
f 319 357 358
f 319 358 320
f 320 358 359
f 320 359 360
f 320 360 321
f 321 360 322
f 322 360 361
f 322 361 323
f 323 361 362
f 323 362 363
f 323 363 324
f 324 364 325
f 324 363 365
f 324 365 364
f 325 364 366
f 325 366 329
f 326 367 368
f 326 368 327
f 326 328 367
f 327 368 369
f 327 369 330
f 328 370 367
f 328 329 370
f 329 366 371
f 329 371 370
f 330 369 372
f 330 372 331
f 331 372 373
f 331 373 332
f 332 373 374
f 332 374 333
f 333 375 334
f 333 374 375
f 334 375 376
f 334 376 377
f 334 377 378
f 334 378 379
f 334 379 380
f 334 380 335
f 335 380 337
f 335 337 336
f 337 380 379
f 337 379 381
f 337 381 382
f 337 382 338
f 338 382 383
f 338 383 339
f 339 383 384
f 339 384 340
f 340 384 385
f 340 385 341
f 341 385 386
f 341 386 387
f 341 387 342
f 342 387 388
f 342 388 347
f 343 346 389
f 343 389 390
f 343 390 355
f 344 348 345
f 345 348 391
f 345 391 346
f 346 392 393
f 346 393 394
f 346 394 389
f 346 391 395
f 346 395 392
f 347 388 396
f 347 396 348
f 348 397 391
f 348 396 398
f 348 398 397
f 349 399 400
f 349 400 350
f 349 352 399
f 350 400 353
f 351 355 401
f 351 401 352
f 352 401 402
f 352 402 403
f 352 403 399
f 353 400 404
f 353 404 405
f 353 405 354
f 354 405 406
f 354 406 356
f 355 390 401
f 356 406 407
f 356 407 357
f 357 407 408
f 357 408 409
f 357 409 410
f 357 410 411
f 357 411 412
f 357 412 358
f 358 412 413
f 358 413 359
f 359 413 414
f 359 414 360
f 360 414 415
f 360 415 361
f 361 415 416
f 361 416 417
f 361 417 362
f 362 417 418
f 362 418 363
f 363 418 419
f 363 419 365
f 364 365 420
f 364 420 366
f 365 419 421
f 365 421 422
f 365 422 420
f 366 420 423
f 366 423 424
f 366 424 371
f 367 425 426
f 367 426 368
f 367 370 427
f 367 427 425
f 368 426 369
f 369 428 429
f 369 429 430
f 369 430 373
f 369 373 372
f 369 426 428
f 370 431 427
f 370 371 431
f 371 424 432
f 371 432 433
f 371 433 431
f 373 430 374
f 374 430 434
f 374 434 375
f 375 434 376
f 376 434 435
f 376 435 436
f 376 436 377
f 377 436 435
f 377 435 437
f 377 437 438
f 377 438 439
f 377 439 378
f 378 439 440
f 378 440 379
f 379 440 441
f 379 441 442
f 379 442 381
f 381 442 443
f 381 443 382
f 382 443 444
f 382 444 383
f 383 444 384
f 384 444 445
f 384 445 385
f 385 445 446
f 385 446 447
f 385 447 448
f 385 448 449
f 385 449 386
f 386 449 450
f 386 450 387
f 387 450 451
f 387 451 388
f 388 451 396
f 389 394 452
f 389 452 390
f 390 452 401
f 391 397 395
f 392 395 397
f 392 397 453
f 392 453 454
f 392 454 393
f 393 454 455
f 393 455 456
f 393 456 457
f 393 457 458
f 393 458 394
f 394 458 452
f 396 451 459
f 396 459 398
f 397 398 460
f 397 460 461
f 397 461 453
f 398 459 460
f 399 462 400
f 399 403 462
f 400 462 463
f 400 463 464
f 400 464 404
f 401 452 465
f 401 465 402
f 402 466 467
f 402 467 403
f 402 465 468
f 402 468 466
f 403 467 469
f 403 469 462
f 404 464 470
f 404 470 471
f 404 471 405
f 405 471 406
f 406 472 473
f 406 473 407
f 406 471 472
f 407 474 475
f 407 475 408
f 407 473 474
f 408 475 476
f 408 476 409
f 409 477 548
f 409 548 617
f 409 617 616
f 409 616 692
f 409 692 757
f 409 757 756
f 409 756 811
f 409 811 866
f 409 866 931
f 409 931 1006
f 409 1006 1005
f 409 1005 1078
f 409 1078 1140
f 409 1140 1198
f 409 1198 1260
f 409 1260 1319
f 409 1319 1370
f 409 1370 1376
f 409 1376 1426
f 409 1426 1459
f 409 1459 1458
f 409 1458 1471
f 409 1471 1481
f 409 1481 1480
f 409 1480 1485
f 409 1485 1484
f 409 1484 1483
f 409 1483 1482
f 409 1482 1473
f 409 1473 1463
f 409 1463 1437
f 409 1437 1386
f 409 1386 1331
f 409 1331 1268
f 409 1268 1209
f 409 1209 1149
f 409 1149 1086
f 409 1086 1015
f 409 1015 942
f 409 942 876
f 409 876 820
f 409 820 766
f 409 766 760
f 409 760 697
f 409 697 696
f 409 696 624
f 409 624 623
f 409 623 622
f 409 622 619
f 409 619 618
f 409 618 549
f 409 549 489
f 409 489 485
f 409 485 484
f 409 484 483
f 409 483 482
f 409 482 481
f 409 481 480
f 409 480 479
f 409 479 478
f 409 478 411
f 409 411 410
f 409 476 477
f 411 478 413
f 411 413 412
f 413 478 414
f 414 478 479
f 414 479 415
f 415 479 480
f 415 480 416
f 416 480 481
f 416 481 417
f 417 481 482
f 417 482 483
f 417 483 418
f 418 483 484
f 418 484 485
f 418 485 419
f 419 485 421
f 420 422 486
f 420 486 487
f 420 487 423
f 421 488 422
f 421 485 489
f 421 489 488
f 422 488 486
f 423 487 424
f 424 490 432
f 424 487 490
f 425 491 426
f 425 427 492
f 425 492 491
f 426 491 493
f 426 493 428
f 427 431 492
f 428 494 495
f 428 495 496
f 428 496 429
f 428 493 494
f 429 496 497
f 429 497 434
f 429 434 430
f 431 433 432
f 431 432 498
f 431 498 499
f 431 499 500
f 431 500 492
f 432 501 498
f 432 490 502
f 432 502 501
f 434 497 435
f 435 497 503
f 435 503 504
f 435 504 505
f 435 505 437
f 437 505 438
f 438 506 507
f 438 507 439
f 438 505 508
f 438 508 509
f 438 509 506
f 439 510 441
f 439 441 440
f 439 507 510
f 441 511 512
f 441 512 442
f 441 510 511
f 442 512 513
f 442 513 443
f 443 513 444
f 444 514 445
f 444 513 514
f 445 514 515
f 445 515 446
f 446 515 516
f 446 516 447
f 447 516 517
f 447 517 448
f 448 517 519
f 448 519 449
f 449 518 450
f 449 519 518
f 450 518 520
f 450 520 451
f 451 521 459
f 451 520 521
f 452 458 457
f 452 457 522
f 452 522 465
f 453 461 454
f 454 461 523
f 454 523 524
f 454 524 455
f 455 524 525
f 455 525 526
f 455 526 527
f 455 527 528
f 455 528 456
f 456 528 457
f 457 529 530
f 457 530 522
f 457 528 529
f 459 521 460
f 460 531 461
f 460 521 531
f 461 531 532
f 461 532 523
f 462 533 463
f 462 469 533
f 463 533 534
f 463 534 535
f 463 535 464
f 464 535 470
f 465 522 468
f 466 536 537
f 466 537 467
f 466 468 538
f 466 538 536
f 467 537 539
f 467 539 533
f 467 533 469
f 468 522 530
f 468 530 538
f 470 540 541
f 470 541 542
f 470 542 543
f 470 543 471
f 470 535 544
f 470 544 540
f 471 543 472
f 472 543 542
f 472 542 545
f 472 545 474
f 472 474 473
f 474 476 475
f 474 545 546
f 474 546 547
f 474 547 548
f 474 548 476
f 476 548 477
f 486 488 487
f 487 488 549
f 487 549 550
f 487 550 551
f 487 551 552
f 487 552 490
f 488 489 549
f 490 552 502
f 491 492 500
f 491 500 553
f 491 553 493
f 493 553 554
f 493 554 494
f 494 555 495
f 494 554 555
f 495 555 556
f 495 556 496
f 496 556 557
f 496 557 503
f 496 503 497
f 498 501 499
f 499 501 558
f 499 558 559
f 499 559 560
f 499 560 561
f 499 561 500
f 500 561 553
f 501 502 562
f 501 562 563
f 501 563 558
f 502 552 562
f 503 557 504
f 504 557 564
f 504 564 565
f 504 565 505
f 505 565 566
f 505 566 508
f 506 509 567
f 506 567 568
f 506 568 569
f 506 569 570
f 506 570 571
f 506 571 572
f 506 572 573
f 506 573 574
f 506 574 507
f 507 574 511
f 507 511 510
f 508 566 575
f 508 575 509
f 509 575 567
f 511 572 576
f 511 576 512
f 511 574 573
f 511 573 572
f 512 576 577
f 512 577 513
f 513 577 578
f 513 578 579
f 513 579 514
f 514 579 580
f 514 580 515
f 515 580 581
f 515 581 516
f 516 581 582
f 516 582 583
f 516 583 517
f 517 583 584
f 517 584 519
f 518 585 587
f 518 587 520
f 518 519 585
f 519 584 656
f 519 656 586
f 519 586 585
f 520 587 521
f 521 587 588
f 521 588 589
f 521 589 531
f 523 532 524
f 524 532 590
f 524 590 525
f 525 591 592
f 525 592 593
f 525 593 526
f 525 590 594
f 525 594 595
f 525 595 596
f 525 596 591
f 526 593 597
f 526 597 527
f 527 597 598
f 527 598 528
f 528 598 599
f 528 599 529
f 529 599 678
f 529 678 600
f 529 600 530
f 530 600 538
f 531 601 532
f 531 589 601
f 532 601 595
f 532 595 594
f 532 594 590
f 533 602 534
f 533 539 602
f 534 602 603
f 534 603 535
f 535 603 544
f 536 604 537
f 536 538 600
f 536 600 604
f 537 604 605
f 537 605 539
f 539 605 602
f 540 606 607
f 540 607 541
f 540 544 608
f 540 608 609
f 540 609 610
f 540 610 606
f 541 607 542
f 542 607 611
f 542 611 545
f 544 603 608
f 545 611 546
f 546 611 612
f 546 612 613
f 546 613 614
f 546 614 615
f 546 615 616
f 546 616 617
f 546 617 548
f 546 548 547
f 549 618 550
f 550 552 551
f 550 618 619
f 550 619 552
f 552 620 621
f 552 621 562
f 552 619 622
f 552 622 623
f 552 623 624
f 552 624 620
f 553 561 625
f 553 625 554
f 554 625 626
f 554 626 627
f 554 627 555
f 555 628 556
f 555 627 628
f 556 628 564
f 556 564 557
f 558 563 629
f 558 629 559
f 559 629 630
f 559 630 631
f 559 631 632
f 559 632 633
f 559 633 560
f 560 633 634
f 560 634 561
f 561 634 625
f 562 621 563
f 563 635 636
f 563 636 629
f 563 621 635
f 564 628 637
f 564 637 638
f 564 638 565
f 565 638 566
f 566 638 639
f 566 639 575
f 567 575 640
f 567 640 641
f 567 641 568
f 568 641 569
f 569 642 643
f 569 643 570
f 569 641 644
f 569 644 645
f 569 645 642
f 570 643 646
f 570 646 572
f 570 572 571
f 572 647 648
f 572 648 576
f 572 646 647
f 575 639 708
f 575 708 640
f 576 648 577
f 577 648 649
f 577 649 578
f 578 650 579
f 578 649 651
f 578 651 650
f 579 650 580
f 580 650 652
f 580 652 653
f 580 653 654
f 580 654 582
f 580 582 581
f 582 654 583
f 583 655 656
f 583 656 584
f 583 654 653
f 583 653 657
f 583 657 658
f 583 658 659
f 583 659 660
f 583 660 655
f 585 586 661
f 585 661 662
f 585 662 587
f 586 656 722
f 586 722 661
f 587 662 663
f 587 663 588
f 588 664 665
f 588 665 666
f 588 666 589
f 588 663 664
f 589 666 601
f 591 596 667
f 591 667 668
f 591 668 669
f 591 669 670
f 591 670 671
f 591 671 592
f 592 671 593
f 593 671 672
f 593 672 597
f 595 601 666
f 595 666 673
f 595 673 674
f 595 674 675
f 595 675 596
f 596 675 667
f 597 672 742
f 597 742 676
f 597 676 598
f 598 676 677
f 598 677 599
f 599 677 678
f 600 678 604
f 602 679 603
f 602 605 679
f 603 679 680
f 603 680 608
f 604 678 605
f 605 678 681
f 605 681 679
f 606 610 682
f 606 682 683
f 606 683 607
f 607 683 612
f 607 612 611
f 608 680 684
f 608 684 609
f 609 684 685
f 609 685 610
f 610 686 687
f 610 687 682
f 610 685 749
f 610 749 686
f 612 683 613
f 613 683 688
f 613 688 689
f 613 689 690
f 613 690 691
f 613 691 616
f 613 616 615
f 613 615 614
f 616 691 692
f 620 624 621
f 621 693 694
f 621 694 695
f 621 695 635
f 621 624 696
f 621 696 697
f 621 697 693
f 625 634 626
f 626 634 627
f 627 634 698
f 627 698 637
f 627 637 628
f 629 636 630
f 630 636 699
f 630 699 700
f 630 700 631
f 631 700 701
f 631 701 632
f 632 701 702
f 632 702 703
f 632 703 704
f 632 704 633
f 633 698 634
f 633 704 705
f 633 705 637
f 633 637 698
f 635 695 636
f 636 695 706
f 636 706 707
f 636 707 699
f 637 705 638
f 638 705 639
f 639 705 704
f 639 704 708
f 640 708 641
f 641 708 709
f 641 709 710
f 641 710 644
f 642 711 643
f 642 645 711
f 643 711 712
f 643 712 713
f 643 713 714
f 643 714 646
f 644 715 645
f 644 710 715
f 645 715 716
f 645 716 711
f 646 714 717
f 646 717 647
f 647 717 649
f 647 649 648
f 649 717 651
f 650 651 718
f 650 718 652
f 651 717 719
f 651 719 718
f 652 718 653
f 653 720 657
f 653 718 720
f 655 660 721
f 655 721 722
f 655 722 656
f 657 720 723
f 657 723 724
f 657 724 725
f 657 725 658
f 658 725 782
f 658 782 726
f 658 726 659
f 659 726 727
f 659 727 728
f 659 728 660
f 660 728 721
f 661 729 730
f 661 730 662
f 661 722 729
f 662 730 663
f 663 730 731
f 663 731 664
f 664 731 732
f 664 732 733
f 664 733 665
f 665 733 673
f 665 673 666
f 667 734 735
f 667 735 736
f 667 736 668
f 667 675 674
f 667 674 737
f 667 737 734
f 668 736 669
f 669 738 739
f 669 739 670
f 669 736 738
f 670 739 740
f 670 740 671
f 671 740 741
f 671 741 672
f 672 741 742
f 673 733 674
f 674 733 737
f 676 742 743
f 676 743 744
f 676 744 677
f 677 744 745
f 677 745 678
f 678 745 681
f 679 746 680
f 679 681 746
f 680 746 684
f 681 745 746
f 682 747 683
f 682 687 747
f 683 747 688
f 684 746 748
f 684 748 685
f 685 748 802
f 685 802 749
f 686 749 750
f 686 750 751
f 686 751 687
f 687 751 752
f 687 752 747
f 688 747 753
f 688 753 689
f 689 754 690
f 689 753 754
f 690 754 755
f 690 755 756
f 690 756 757
f 690 757 692
f 690 692 691
f 693 758 759
f 693 759 694
f 693 697 760
f 693 760 758
f 694 759 706
f 694 706 695
f 699 707 761
f 699 761 700
f 700 761 762
f 700 762 763
f 700 763 701
f 701 763 764
f 701 764 702
f 702 764 765
f 702 765 703
f 703 765 709
f 703 709 704
f 704 709 708
f 706 759 758
f 706 758 760
f 706 760 766
f 706 766 767
f 706 767 768
f 706 768 769
f 706 769 707
f 707 769 761
f 709 765 710
f 710 770 715
f 710 765 770
f 711 716 771
f 711 771 712
f 712 772 773
f 712 773 713
f 712 771 825
f 712 825 772
f 713 773 714
f 714 773 774
f 714 774 719
f 714 719 717
f 715 770 775
f 715 775 716
f 716 775 771
f 718 719 776
f 718 776 720
f 719 777 776
f 719 774 777
f 720 776 778
f 720 778 723
f 721 728 788
f 721 788 779
f 721 779 729
f 721 729 722
f 723 778 780
f 723 780 724
f 724 780 834
f 724 834 781
f 724 781 782
f 724 782 725
f 726 782 783
f 726 783 839
f 726 839 784
f 726 784 785
f 726 785 727
f 727 785 728
f 728 785 786
f 728 786 787
f 728 787 788
f 729 779 789
f 729 789 731
f 729 731 730
f 731 790 732
f 731 789 791
f 731 791 790
f 732 790 792
f 732 792 737
f 732 737 733
f 734 793 735
f 734 737 793
f 735 793 794
f 735 794 795
f 735 795 796
f 735 796 736
f 736 796 738
f 737 792 797
f 737 797 793
f 738 796 798
f 738 798 739
f 739 798 799
f 739 799 740
f 740 799 800
f 740 800 801
f 740 801 741
f 741 801 743
f 741 743 742
f 743 801 802
f 743 802 748
f 743 748 744
f 744 748 746
f 744 746 745
f 747 752 803
f 747 803 804
f 747 804 753
f 749 802 805
f 749 805 750
f 750 805 806
f 750 806 807
f 750 807 751
f 751 808 752
f 751 807 809
f 751 809 808
f 752 808 803
f 753 804 754
f 754 804 810
f 754 810 755
f 755 810 811
f 755 811 756
f 761 769 812
f 761 812 813
f 761 813 814
f 761 814 762
f 762 815 763
f 762 814 815
f 763 815 816
f 763 816 817
f 763 817 764
f 764 817 818
f 764 818 819
f 764 819 765
f 765 819 770
f 766 820 821
f 766 821 767
f 767 821 768
f 768 821 822
f 768 822 812
f 768 812 769
f 770 819 823
f 770 823 775
f 771 775 824
f 771 824 825
f 772 826 827
f 772 827 773
f 772 825 826
f 773 827 774
f 774 827 828
f 774 828 829
f 774 829 777
f 775 823 830
f 775 830 824
f 776 777 831
f 776 831 778
f 777 829 831
f 778 831 832
f 778 832 780
f 779 788 791
f 779 791 789
f 780 832 833
f 780 833 834
f 781 834 835
f 781 835 782
f 782 835 783
f 783 835 836
f 783 836 837
f 783 837 838
f 783 838 839
f 784 839 840
f 784 840 785
f 785 840 786
f 786 840 841
f 786 841 842
f 786 842 787
f 787 842 843
f 787 843 791
f 787 791 788
f 790 844 792
f 790 791 845
f 790 845 844
f 791 843 845
f 792 846 797
f 792 844 846
f 793 847 794
f 793 797 847
f 794 847 848
f 794 848 795
f 795 849 850
f 795 850 851
f 795 851 852
f 795 852 796
f 795 848 849
f 796 852 798
f 797 853 847
f 797 846 853
f 798 852 854
f 798 854 855
f 798 855 856
f 798 856 799
f 799 856 800
f 800 856 806
f 800 806 805
f 800 805 801
f 801 805 802
f 803 808 857
f 803 857 804
f 804 857 858
f 804 858 810
f 806 859 807
f 806 856 859
f 807 860 861
f 807 861 809
f 807 859 860
f 808 862 857
f 808 809 863
f 808 863 864
f 808 864 862
f 809 861 863
f 810 858 865
f 810 865 866
f 810 866 811
f 812 867 868
f 812 868 813
f 812 822 867
f 813 869 814
f 813 868 869
f 814 869 870
f 814 870 815
f 815 870 871
f 815 871 816
f 816 871 872
f 816 872 817
f 817 872 873
f 817 873 874
f 817 874 818
f 818 874 875
f 818 875 819
f 819 875 823
f 820 876 877
f 820 877 821
f 821 877 822
f 822 877 878
f 822 878 867
f 823 879 830
f 823 875 880
f 823 880 881
f 823 881 879
f 824 882 825
f 824 830 883
f 824 883 882
f 825 882 884
f 825 884 826
f 826 885 827
f 826 884 886
f 826 886 885
f 827 885 887
f 827 887 888
f 827 888 828
f 828 888 889
f 828 889 890
f 828 890 829
f 829 890 891
f 829 891 831
f 830 879 945
f 830 945 883
f 831 891 832
f 832 891 892
f 832 892 893
f 832 893 833
f 833 893 894
f 833 894 895
f 833 895 896
f 833 896 897
f 833 897 834
f 834 897 835
f 835 897 836
f 836 897 898
f 836 898 899
f 836 899 837
f 837 899 900
f 837 900 902
f 837 902 838
f 838 901 839
f 838 902 903
f 838 903 901
f 839 901 841
f 839 841 840
f 841 901 904
f 841 904 842
f 842 905 843
f 842 904 906
f 842 906 905
f 843 905 845
f 844 845 907
f 844 907 908
f 844 908 846
f 845 905 907
f 846 909 853
f 846 908 909
f 847 853 910
f 847 910 911
f 847 911 912
f 847 912 913
f 847 913 848
f 848 913 914
f 848 914 849
f 849 915 850
f 849 914 915
f 850 915 916
f 850 916 917
f 850 917 918
f 850 918 851
f 851 918 854
f 851 854 852
f 853 909 910
f 854 918 919
f 854 919 920
f 854 920 855
f 855 920 921
f 855 921 856
f 856 921 859
f 857 862 858
f 858 862 922
f 858 922 865
f 859 921 923
f 859 923 924
f 859 924 860
f 860 925 861
f 860 924 925
f 861 926 863
f 861 925 926
f 862 864 927
f 862 927 928
f 862 928 922
f 863 929 864
f 863 926 929
f 864 929 927
f 865 922 930
f 865 930 931
f 865 931 866
f 867 932 868
f 867 878 932
f 868 932 933
f 868 933 934
f 868 934 869
f 869 934 935
f 869 935 870
f 870 936 871
f 870 935 936
f 871 936 937
f 871 937 872
f 872 937 938
f 872 938 873
f 873 938 939
f 873 939 940
f 873 940 941
f 873 941 880
f 873 880 874
f 874 880 875
f 876 942 877
f 877 943 944
f 877 944 878
f 877 942 943
f 878 944 932
f 879 881 946
f 879 946 945
f 880 946 881
f 880 941 947
f 880 947 946
f 882 883 948
f 882 948 884
f 883 945 949
f 883 949 948
f 884 948 950
f 884 950 886
f 885 886 887
f 886 950 951
f 886 951 887
f 887 952 953
f 887 953 888
f 887 951 954
f 887 954 952
f 888 953 955
f 888 955 889
f 889 956 957
f 889 957 892
f 889 892 890
f 889 955 953
f 889 953 958
f 889 958 956
f 890 892 891
f 892 957 893
f 893 957 894
f 894 957 956
f 894 956 959
f 894 959 895
f 895 959 960
f 895 960 961
f 895 961 896
f 896 962 897
f 896 961 962
f 897 962 898
f 898 962 963
f 898 963 899
f 899 963 964
f 899 964 900
f 900 964 965
f 900 965 966
f 900 966 967
f 900 967 902
f 901 903 968
f 901 968 904
f 902 967 969
f 902 969 970
f 902 970 903
f 903 970 971
f 903 971 968
f 904 968 972
f 904 972 973
f 904 973 974
f 904 974 906
f 905 906 907
f 906 974 975
f 906 975 976
f 906 976 977
f 906 977 978
f 906 978 907
f 907 978 979
f 907 979 908
f 908 979 909
f 909 980 910
f 909 979 980
f 910 980 911
f 911 981 912
f 911 980 982
f 911 982 981
f 912 981 983
f 912 983 984
f 912 984 985
f 912 985 914
f 912 914 913
f 914 985 915
f 915 985 986
f 915 986 916
f 916 986 1061
f 916 1061 987
f 916 987 917
f 917 987 988
f 917 988 919
f 917 919 918
f 919 988 989
f 919 989 990
f 919 990 991
f 919 991 992
f 919 992 920
f 920 992 921
f 921 992 923
f 922 993 930
f 922 928 993
f 923 992 995
f 923 995 924
f 924 994 998
f 924 998 925
f 924 995 996
f 924 996 997
f 924 997 994
f 925 998 926
f 926 998 999
f 926 999 929
f 927 1000 928
f 927 929 1001
f 927 1001 1073
f 927 1073 1000
f 928 1000 1002
f 928 1002 993
f 929 999 1001
f 930 993 1003
f 930 1003 1004
f 930 1004 1005
f 930 1005 1006
f 930 1006 931
f 932 1007 933
f 932 944 1007
f 933 1007 1008
f 933 1008 1009
f 933 1009 1010
f 933 1010 934
f 934 1010 935
f 935 1010 1011
f 935 1011 1012
f 935 1012 936
f 936 1012 1013
f 936 1013 937
f 937 1013 1014
f 937 1014 938
f 938 1014 947
f 938 947 939
f 939 947 940
f 940 947 941
f 942 1015 1016
f 942 1016 943
f 943 1016 1017
f 943 1017 944
f 944 1017 1007
f 945 946 949
f 946 1018 1019
f 946 1019 949
f 946 947 1020
f 946 1020 1018
f 947 1014 1021
f 947 1021 1022
f 947 1022 1020
f 948 949 1023
f 948 1023 950
f 949 1024 1023
f 949 1019 1024
f 950 1023 1025
f 950 1025 951
f 951 1025 1026
f 951 1026 954
f 952 1027 953
f 952 954 1027
f 953 1027 1028
f 953 1028 1029
f 953 1029 1030
f 953 1030 956
f 953 956 958
f 954 1026 1031
f 954 1031 1027
f 956 1032 959
f 956 1030 1032
f 959 1032 1033
f 959 1033 1034
f 959 1034 960
f 960 1035 1036
f 960 1036 961
f 960 1034 1037
f 960 1037 1038
f 960 1038 1035
f 961 1036 962
f 962 1036 963
f 963 1036 964
f 964 1036 1039
f 964 1039 965
f 965 1040 1041
f 965 1041 1042
f 965 1042 966
f 965 1039 1040
f 966 1042 967
f 967 1042 1043
f 967 1043 969
f 968 971 972
f 969 1043 1044
f 969 1044 1045
f 969 1045 1046
f 969 1046 970
f 970 1046 1047
f 970 1047 971
f 971 1047 972
f 972 1047 973
f 973 975 974
f 973 1047 1048
f 973 1048 975
f 975 1048 976
f 976 1048 1049
f 976 1049 1050
f 976 1050 1051
f 976 1051 1052
f 976 1052 977
f 977 1052 1053
f 977 1053 978
f 978 1053 979
f 979 1053 980
f 980 1053 1052
f 980 1052 982
f 981 982 1054
f 981 1054 1055
f 981 1055 1056
f 981 1056 1057
f 981 1057 1058
f 981 1058 983
f 982 1052 1054
f 983 1058 984
f 984 1059 1060
f 984 1060 986
f 984 986 985
f 984 1058 1059
f 986 1060 1061
f 987 1061 1062
f 987 1062 1063
f 987 1063 988
f 988 1063 989
f 989 1063 990
f 990 1063 1064
f 990 1064 1065
f 990 1065 991
f 991 1065 1066
f 991 1066 1067
f 991 1067 995
f 991 995 992
f 993 1002 1003
f 994 1068 1069
f 994 1069 998
f 994 997 1070
f 994 1070 1068
f 995 1067 996
f 996 1067 997
f 997 1067 1070
f 998 1069 1071
f 998 1071 999
f 999 1071 1001
f 1000 1072 1002
f 1000 1073 1074
f 1000 1074 1075
f 1000 1075 1072
f 1001 1071 1073
f 1002 1072 1076
f 1002 1076 1003
f 1003 1076 1004
f 1004 1076 1077
f 1004 1077 1005
f 1005 1077 1078
f 1007 1079 1008
f 1007 1017 1080
f 1007 1080 1081
f 1007 1081 1079
f 1008 1082 1009
f 1008 1079 1082
f 1009 1082 1083
f 1009 1083 1011
f 1009 1011 1010
f 1011 1083 1012
f 1012 1084 1085
f 1012 1085 1013
f 1012 1083 1084
f 1013 1085 1014
f 1014 1085 1021
f 1015 1086 1087
f 1015 1087 1080
f 1015 1080 1016
f 1016 1080 1017
f 1018 1088 1024
f 1018 1024 1019
f 1018 1020 1088
f 1020 1022 1089
f 1020 1089 1090
f 1020 1090 1088
f 1021 1085 1089
f 1021 1089 1022
f 1023 1024 1025
f 1024 1091 1025
f 1024 1088 1091
f 1025 1091 1026
f 1026 1091 1092
f 1026 1092 1093
f 1026 1093 1094
f 1026 1094 1031
f 1027 1031 1095
f 1027 1095 1028
f 1028 1095 1029
f 1029 1096 1030
f 1029 1095 1097
f 1029 1097 1098
f 1029 1098 1096
f 1030 1096 1033
f 1030 1033 1032
f 1031 1094 1099
f 1031 1099 1095
f 1033 1096 1100
f 1033 1100 1101
f 1033 1101 1037
f 1033 1037 1034
f 1035 1038 1036
f 1036 1038 1102
f 1036 1102 1039
f 1037 1101 1103
f 1037 1103 1038
f 1038 1103 1104
f 1038 1104 1105
f 1038 1105 1106
f 1038 1106 1040
f 1038 1040 1039
f 1038 1039 1102
f 1040 1106 1107
f 1040 1107 1108
f 1040 1108 1041
f 1041 1108 1109
f 1041 1109 1110
f 1041 1110 1042
f 1042 1110 1111
f 1042 1111 1043
f 1043 1111 1112
f 1043 1112 1044
f 1044 1112 1113
f 1044 1113 1045
f 1045 1114 1115
f 1045 1115 1046
f 1045 1113 1116
f 1045 1116 1117
f 1045 1117 1114
f 1046 1115 1047
f 1047 1115 1114
f 1047 1114 1118
f 1047 1118 1048
f 1048 1118 1119
f 1048 1119 1120
f 1048 1120 1049
f 1049 1120 1050
f 1050 1120 1121
f 1050 1121 1056
f 1050 1056 1055
f 1050 1055 1051
f 1051 1055 1052
f 1052 1055 1054
f 1056 1121 1122
f 1056 1122 1123
f 1056 1123 1124
f 1056 1124 1057
f 1057 1124 1125
f 1057 1125 1058
f 1058 1125 1059
f 1059 1125 1126
f 1059 1126 1060
f 1060 1126 1127
f 1060 1127 1128
f 1060 1128 1061
f 1061 1128 1129
f 1061 1129 1130
f 1061 1130 1062
f 1062 1130 1131
f 1062 1131 1064
f 1062 1064 1063
f 1064 1131 1132
f 1064 1132 1133
f 1064 1133 1066
f 1064 1066 1065
f 1066 1133 1134
f 1066 1134 1069
f 1066 1069 1068
f 1066 1068 1070
f 1066 1070 1067
f 1069 1134 1135
f 1069 1135 1071
f 1071 1074 1073
f 1071 1135 1074
f 1072 1075 1136
f 1072 1136 1137
f 1072 1137 1138
f 1072 1138 1076
f 1074 1139 1075
f 1074 1135 1139
f 1075 1139 1136
f 1076 1138 1077
f 1077 1138 1078
f 1078 1138 1141
f 1078 1141 1140
f 1079 1081 1142
f 1079 1142 1143
f 1079 1143 1144
f 1079 1144 1145
f 1079 1145 1082
f 1080 1146 1081
f 1080 1087 1146
f 1081 1146 1142
f 1082 1145 1147
f 1082 1147 1083
f 1083 1147 1084
f 1084 1148 1085
f 1084 1147 1148
f 1085 1148 1089
f 1086 1149 1150
f 1086 1150 1146
f 1086 1146 1087
f 1088 1151 1091
f 1088 1090 1151
f 1089 1148 1152
f 1089 1152 1090
f 1090 1152 1151
f 1091 1151 1092
f 1092 1151 1153
f 1092 1153 1154
f 1092 1154 1155
f 1092 1155 1093
f 1093 1156 1099
f 1093 1099 1094
f 1093 1155 1157
f 1093 1157 1158
f 1093 1158 1159
f 1093 1159 1156
f 1095 1099 1097
f 1096 1098 1100
f 1097 1099 1160
f 1097 1160 1161
f 1097 1161 1098
f 1098 1161 1162
f 1098 1162 1163
f 1098 1163 1100
f 1099 1156 1164
f 1099 1164 1160
f 1100 1163 1101
f 1101 1163 1103
f 1103 1163 1165
f 1103 1165 1166
f 1103 1166 1104
f 1104 1166 1105
f 1105 1166 1167
f 1105 1167 1168
f 1105 1168 1106
f 1106 1168 1107
f 1107 1168 1169
f 1107 1169 1108
f 1108 1169 1170
f 1108 1170 1109
f 1109 1170 1171
f 1109 1171 1172
f 1109 1172 1110
f 1110 1172 1173
f 1110 1173 1111
f 1111 1173 1112
f 1112 1174 1175
f 1112 1175 1113
f 1112 1173 1176
f 1112 1176 1174
f 1113 1175 1177
f 1113 1177 1116
f 1114 1117 1178
f 1114 1178 1179
f 1114 1179 1121
f 1114 1121 1120
f 1114 1120 1119
f 1114 1119 1118
f 1116 1177 1180
f 1116 1180 1117
f 1117 1180 1178
f 1121 1179 1181
f 1121 1181 1182
f 1121 1182 1122
f 1122 1182 1123
f 1123 1182 1183
f 1123 1183 1184
f 1123 1184 1185
f 1123 1185 1125
f 1123 1125 1124
f 1125 1185 1186
f 1125 1186 1126
f 1126 1186 1127
f 1127 1186 1187
f 1127 1187 1188
f 1127 1188 1128
f 1128 1188 1189
f 1128 1189 1129
f 1129 1189 1130
f 1130 1189 1190
f 1130 1190 1191
f 1130 1191 1131
f 1131 1191 1132
f 1132 1191 1192
f 1132 1192 1193
f 1132 1193 1194
f 1132 1194 1133
f 1133 1194 1134
f 1134 1194 1135
f 1135 1194 1139
f 1136 1195 1196
f 1136 1196 1137
f 1136 1139 1193
f 1136 1193 1192
f 1136 1192 1195
f 1137 1197 1138
f 1137 1196 1197
f 1138 1197 1141
f 1139 1194 1193
f 1140 1141 1197
f 1140 1197 1199
f 1140 1199 1200
f 1140 1200 1198
f 1142 1201 1143
f 1142 1146 1201
f 1143 1201 1202
f 1143 1202 1144
f 1144 1202 1203
f 1144 1203 1204
f 1144 1204 1145
f 1145 1204 1205
f 1145 1205 1147
f 1146 1206 1201
f 1146 1150 1207
f 1146 1207 1208
f 1146 1208 1206
f 1147 1205 1148
f 1148 1205 1152
f 1149 1209 1210
f 1149 1210 1150
f 1150 1210 1207
f 1151 1152 1153
f 1152 1205 1204
f 1152 1204 1153
f 1153 1204 1211
f 1153 1211 1154
f 1154 1211 1212
f 1154 1212 1213
f 1154 1213 1157
f 1154 1157 1155
f 1156 1159 1214
f 1156 1214 1164
f 1157 1215 1214
f 1157 1214 1158
f 1157 1213 1215
f 1158 1214 1159
f 1160 1216 1161
f 1160 1164 1216
f 1161 1217 1162
f 1161 1216 1218
f 1161 1218 1217
f 1162 1217 1163
f 1163 1217 1165
f 1164 1219 1220
f 1164 1220 1216
f 1164 1214 1221
f 1164 1221 1222
f 1164 1222 1219
f 1165 1217 1223
f 1165 1223 1166
f 1166 1223 1224
f 1166 1224 1167
f 1167 1224 1225
f 1167 1225 1168
f 1168 1225 1226
f 1168 1226 1169
f 1169 1226 1227
f 1169 1227 1170
f 1170 1227 1228
f 1170 1228 1229
f 1170 1229 1171
f 1171 1229 1230
f 1171 1230 1231
f 1171 1231 1172
f 1172 1231 1232
f 1172 1232 1233
f 1172 1233 1173
f 1173 1233 1234
f 1173 1234 1176
f 1174 1235 1236
f 1174 1236 1237
f 1174 1237 1175
f 1174 1176 1235
f 1175 1237 1177
f 1176 1234 1238
f 1176 1238 1239
f 1176 1239 1240
f 1176 1240 1235
f 1177 1237 1241
f 1177 1241 1180
f 1178 1180 1242
f 1178 1242 1243
f 1178 1243 1179
f 1179 1243 1181
f 1180 1241 1244
f 1180 1244 1242
f 1181 1243 1182
f 1182 1243 1245
f 1182 1245 1246
f 1182 1246 1183
f 1183 1246 1247
f 1183 1247 1184
f 1184 1247 1248
f 1184 1248 1249
f 1184 1249 1185
f 1185 1249 1186
f 1186 1249 1187
f 1187 1250 1251
f 1187 1251 1189
f 1187 1189 1252
f 1187 1252 1188
f 1187 1249 1250
f 1188 1252 1189
f 1189 1251 1190
f 1190 1251 1253
f 1190 1253 1254
f 1190 1254 1191
f 1191 1254 1192
f 1192 1254 1255
f 1192 1255 1195
f 1195 1256 1196
f 1195 1255 1256
f 1196 1256 1197
f 1197 1256 1257
f 1197 1257 1258
f 1197 1258 1259
f 1197 1259 1199
f 1198 1200 1261
f 1198 1261 1262
f 1198 1262 1260
f 1199 1259 1200
f 1200 1259 1258
f 1200 1258 1262
f 1200 1262 1261
f 1201 1263 1202
f 1201 1206 1264
f 1201 1264 1265
f 1201 1265 1263
f 1202 1266 1203
f 1202 1263 1266
f 1203 1266 1212
f 1203 1212 1211
f 1203 1211 1204
f 1206 1208 1264
f 1207 1210 1208
f 1208 1267 1264
f 1208 1210 1267
f 1209 1268 1267
f 1209 1267 1269
f 1209 1269 1210
f 1210 1269 1267
f 1212 1270 1271
f 1212 1271 1213
f 1212 1266 1272
f 1212 1272 1270
f 1213 1271 1215
f 1214 1215 1221
f 1215 1273 1274
f 1215 1274 1221
f 1215 1271 1273
f 1216 1220 1276
f 1216 1276 1218
f 1217 1218 1275
f 1217 1275 1223
f 1218 1276 1275
f 1219 1277 1220
f 1219 1222 1277
f 1220 1277 1276
f 1221 1278 1279
f 1221 1279 1280
f 1221 1280 1281
f 1221 1281 1222
f 1221 1274 1278
f 1222 1281 1277
f 1223 1275 1282
f 1223 1282 1224
f 1224 1282 1283
f 1224 1283 1225
f 1225 1283 1284
f 1225 1284 1226
f 1226 1284 1285
f 1226 1285 1286
f 1226 1286 1227
f 1227 1286 1287
f 1227 1287 1228
f 1228 1287 1288
f 1228 1288 1289
f 1228 1289 1229
f 1229 1289 1290
f 1229 1290 1230
f 1230 1290 1291
f 1230 1291 1231
f 1231 1291 1292
f 1231 1292 1293
f 1231 1293 1232
f 1232 1293 1233
f 1233 1293 1294
f 1233 1294 1234
f 1234 1294 1295
f 1234 1295 1296
f 1234 1296 1238
f 1235 1240 1236
f 1236 1297 1237
f 1236 1240 1298
f 1236 1298 1299
f 1236 1299 1300
f 1236 1300 1297
f 1237 1297 1241
f 1238 1301 1239
f 1238 1296 1301
f 1239 1301 1240
f 1240 1301 1298
f 1241 1297 1302
f 1241 1302 1244
f 1242 1244 1303
f 1242 1303 1243
f 1243 1303 1245
f 1244 1302 1304
f 1244 1304 1303
f 1245 1303 1305
f 1245 1305 1246
f 1246 1305 1306
f 1246 1306 1247
f 1247 1306 1307
f 1247 1307 1308
f 1247 1308 1248
f 1248 1308 1309
f 1248 1309 1310
f 1248 1310 1250
f 1248 1250 1249
f 1250 1310 1311
f 1250 1311 1251
f 1251 1311 1312
f 1251 1312 1253
f 1253 1312 1313
f 1253 1313 1314
f 1253 1314 1315
f 1253 1315 1254
f 1254 1315 1255
f 1255 1315 1316
f 1255 1316 1256
f 1256 1316 1317
f 1256 1317 1318
f 1256 1318 1258
f 1256 1258 1257
f 1258 1318 1262
f 1260 1262 1320
f 1260 1320 1319
f 1262 1318 1317
f 1262 1317 1321
f 1262 1321 1322
f 1262 1322 1323
f 1262 1323 1320
f 1263 1265 1324
f 1263 1324 1266
f 1264 1267 1265
f 1265 1325 1324
f 1265 1267 1326
f 1265 1326 1325
f 1266 1324 1327
f 1266 1327 1272
f 1267 1268 1328
f 1267 1328 1329
f 1267 1329 1330
f 1267 1330 1326
f 1268 1331 1330
f 1268 1330 1328
f 1270 1272 1332
f 1270 1332 1333
f 1270 1333 1334
f 1270 1334 1271
f 1271 1334 1273
f 1272 1327 1332
f 1273 1335 1274
f 1273 1334 1336
f 1273 1336 1335
f 1274 1335 1278
f 1275 1276 1337
f 1275 1337 1282
f 1276 1277 1337
f 1277 1338 1337
f 1277 1281 1338
f 1278 1339 1279
f 1278 1335 1339
f 1279 1339 1280
f 1280 1339 1281
f 1281 1339 1340
f 1281 1340 1338
f 1282 1337 1341
f 1282 1341 1283
f 1283 1341 1342
f 1283 1342 1284
f 1284 1342 1285
f 1285 1342 1343
f 1285 1343 1287
f 1285 1287 1286
f 1287 1343 1344
f 1287 1344 1288
f 1288 1344 1345
f 1288 1345 1346
f 1288 1346 1347
f 1288 1347 1290
f 1288 1290 1289
f 1290 1347 1291
f 1291 1347 1348
f 1291 1348 1292
f 1292 1348 1293
f 1293 1348 1349
f 1293 1349 1350
f 1293 1350 1294
f 1294 1351 1295
f 1294 1350 1352
f 1294 1352 1351
f 1295 1351 1353
f 1295 1353 1296
f 1296 1354 1301
f 1296 1353 1354
f 1297 1300 1355
f 1297 1355 1302
f 1298 1301 1299
f 1299 1356 1355
f 1299 1355 1300
f 1299 1301 1354
f 1299 1354 1357
f 1299 1357 1356
f 1302 1355 1358
f 1302 1358 1304
f 1303 1304 1359
f 1303 1359 1305
f 1304 1358 1360
f 1304 1360 1359
f 1305 1359 1306
f 1306 1359 1307
f 1307 1359 1361
f 1307 1361 1309
f 1307 1309 1308
f 1309 1361 1362
f 1309 1362 1363
f 1309 1363 1310
f 1310 1363 1311
f 1311 1363 1364
f 1311 1364 1312
f 1312 1364 1313
f 1313 1364 1365
f 1313 1365 1366
f 1313 1366 1314
f 1314 1366 1367
f 1314 1367 1315
f 1315 1367 1368
f 1315 1368 1316
f 1316 1368 1317
f 1317 1368 1369
f 1317 1369 1321
f 1319 1320 1322
f 1319 1322 1370
f 1320 1323 1322
f 1321 1369 1371
f 1321 1371 1322
f 1322 1371 1372
f 1322 1372 1373
f 1322 1373 1374
f 1322 1374 1375
f 1322 1375 1376
f 1322 1376 1370
f 1324 1325 1327
f 1325 1326 1377
f 1325 1377 1378
f 1325 1378 1379
f 1325 1379 1327
f 1326 1330 1377
f 1327 1379 1380
f 1327 1380 1381
f 1327 1381 1332
f 1328 1330 1329
f 1330 1382 1383
f 1330 1383 1384
f 1330 1384 1385
f 1330 1385 1377
f 1330 1331 1386
f 1330 1386 1382
f 1332 1387 1333
f 1332 1381 1388
f 1332 1388 1387
f 1333 1387 1334
f 1334 1387 1336
f 1335 1389 1339
f 1335 1336 1390
f 1335 1390 1389
f 1336 1387 1391
f 1336 1391 1390
f 1337 1338 1341
f 1338 1340 1392
f 1338 1392 1341
f 1339 1389 1393
f 1339 1393 1394
f 1339 1394 1392
f 1339 1392 1340
f 1341 1392 1342
f 1342 1392 1395
f 1342 1395 1396
f 1342 1396 1343
f 1343 1396 1397
f 1343 1397 1344
f 1344 1397 1345
f 1345 1397 1398
f 1345 1398 1346
f 1346 1398 1399
f 1346 1399 1400
f 1346 1400 1348
f 1346 1348 1347
f 1348 1400 1401
f 1348 1401 1349
f 1349 1401 1402
f 1349 1402 1350
f 1350 1402 1403
f 1350 1403 1352
f 1351 1352 1404
f 1351 1404 1405
f 1351 1405 1353
f 1352 1403 1406
f 1352 1406 1404
f 1353 1405 1407
f 1353 1407 1357
f 1353 1357 1354
f 1355 1356 1358
f 1356 1408 1358
f 1356 1357 1409
f 1356 1409 1408
f 1357 1407 1410
f 1357 1410 1411
f 1357 1411 1409
f 1358 1408 1360
f 1359 1360 1361
f 1360 1408 1412
f 1360 1412 1413
f 1360 1413 1361
f 1361 1413 1414
f 1361 1414 1362
f 1362 1414 1363
f 1363 1414 1364
f 1364 1414 1415
f 1364 1415 1365
f 1365 1415 1366
f 1366 1415 1416
f 1366 1416 1367
f 1367 1417 1418
f 1367 1418 1369
f 1367 1369 1368
f 1367 1416 1417
f 1369 1419 1371
f 1369 1418 1419
f 1371 1419 1372
f 1372 1419 1420
f 1372 1420 1373
f 1373 1420 1421
f 1373 1421 1422
f 1373 1422 1423
f 1373 1423 1424
f 1373 1424 1425
f 1373 1425 1426
f 1373 1426 1375
f 1373 1375 1374
f 1375 1426 1376
f 1377 1385 1378
f 1378 1385 1427
f 1378 1427 1428
f 1378 1428 1380
f 1378 1380 1379
f 1380 1428 1429
f 1380 1429 1430
f 1380 1430 1431
f 1380 1431 1388
f 1380 1388 1381
f 1382 1384 1383
f 1382 1386 1384
f 1384 1432 1433
f 1384 1433 1427
f 1384 1427 1385
f 1384 1386 1434
f 1384 1434 1435
f 1384 1435 1436
f 1384 1436 1432
f 1386 1437 1435
f 1386 1435 1434
f 1387 1388 1391
f 1388 1431 1438
f 1388 1438 1391
f 1389 1390 1393
f 1390 1391 1438
f 1390 1438 1393
f 1392 1396 1395
f 1392 1394 1396
f 1393 1438 1397
f 1393 1397 1394
f 1394 1397 1396
f 1397 1438 1431
f 1397 1431 1430
f 1397 1430 1398
f 1398 1430 1439
f 1398 1439 1399
f 1399 1439 1440
f 1399 1440 1441
f 1399 1441 1442
f 1399 1442 1400
f 1400 1442 1443
f 1400 1443 1401
f 1401 1443 1402
f 1402 1443 1444
f 1402 1444 1403
f 1403 1444 1445
f 1403 1445 1406
f 1404 1406 1445
f 1404 1445 1446
f 1404 1446 1405
f 1405 1446 1447
f 1405 1447 1407
f 1407 1447 1410
f 1408 1409 1448
f 1408 1448 1449
f 1408 1449 1412
f 1409 1411 1448
f 1410 1447 1450
f 1410 1450 1451
f 1410 1451 1411
f 1411 1451 1452
f 1411 1452 1448
f 1412 1453 1413
f 1412 1449 1454
f 1412 1454 1453
f 1413 1453 1414
f 1414 1453 1415
f 1415 1453 1454
f 1415 1454 1416
f 1416 1454 1417
f 1417 1455 1419
f 1417 1419 1418
f 1417 1454 1449
f 1417 1449 1448
f 1417 1448 1452
f 1417 1452 1455
f 1419 1455 1420
f 1420 1455 1452
f 1420 1452 1451
f 1420 1451 1421
f 1421 1451 1422
f 1422 1456 1423
f 1422 1451 1456
f 1423 1456 1457
f 1423 1457 1424
f 1424 1457 1458
f 1424 1458 1459
f 1424 1459 1425
f 1425 1459 1426
f 1427 1433 1440
f 1427 1440 1429
f 1427 1429 1428
f 1429 1440 1439
f 1429 1439 1430
f 1432 1436 1460
f 1432 1460 1440
f 1432 1440 1433
f 1435 1461 1462
f 1435 1462 1436
f 1435 1437 1463
f 1435 1463 1461
f 1436 1462 1460
f 1440 1460 1441
f 1441 1460 1442
f 1442 1460 1464
f 1442 1464 1443
f 1443 1464 1465
f 1443 1465 1466
f 1443 1466 1444
f 1444 1466 1445
f 1445 1466 1467
f 1445 1467 1446
f 1446 1467 1468
f 1446 1468 1469
f 1446 1469 1447
f 1447 1469 1456
f 1447 1456 1450
f 1450 1456 1451
f 1456 1469 1470
f 1456 1470 1471
f 1456 1471 1458
f 1456 1458 1457
f 1460 1462 1461
f 1460 1461 1472
f 1460 1472 1464
f 1461 1463 1472
f 1463 1473 1472
f 1464 1472 1474
f 1464 1474 1465
f 1465 1474 1475
f 1465 1475 1466
f 1466 1475 1476
f 1466 1476 1467
f 1467 1476 1477
f 1467 1477 1478
f 1467 1478 1468
f 1468 1478 1479
f 1468 1479 1469
f 1469 1479 1470
f 1470 1479 1480
f 1470 1480 1481
f 1470 1481 1471
f 1472 1473 1482
f 1472 1482 1474
f 1474 1482 1475
f 1475 1482 1483
f 1475 1483 1476
f 1476 1483 1484
f 1476 1484 1477
f 1477 1484 1478
f 1478 1484 1485
f 1478 1485 1480
f 1478 1480 1479

