# https://github.com/mikedh/trimesh

o geometry_0
v 0.04657000 -0.03090898 0.37297498
v 0.03456462 0.02999113 0.37283539
v -0.01343444 0.23702046 0.37251434
v 0.03456462 0.01778779 0.37289120
v 0.05856415 -0.09184797 0.37282145
v 0.05856415 -0.07964463 0.37286332
v 0.04657000 -0.01874450 0.37265393
v 0.02257047 0.09085239 0.37261206
v 0.01056509 0.13958802 0.37262601
v -0.00142906 0.20048815 0.37224915
v -0.01343444 0.24922380 0.37188623
v -0.02543982 0.26138828 0.37117434
v -0.01343444 0.22485597 0.37202578
v 0.03456462 0.00562332 0.37241662
v 0.04657000 -0.04311232 0.37269580
v 0.05856415 -0.10401244 0.37215143
v 0.07056953 -0.12212314 0.37216537
v 0.05856415 -0.06748015 0.37229102
v 0.04657000 -0.00658003 0.37199789
v 0.02257047 0.10301687 0.37201184
v 0.01056509 0.15175251 0.37222122
v -0.00142906 0.21265263 0.37138372
v -0.00359452 0.23702046 0.36954121
v -0.00527752 0.24922380 0.36877351
v -0.01258172 0.26189350 0.36970868
v -0.01601503 0.27028816 0.36866185
v -0.02543982 0.27098770 0.36927602
v -0.03272158 0.26935542 0.36807556
v -0.03265426 0.26138828 0.36803369
v 0.02600378 0.00562332 0.36924809
v 0.03742572 -0.04311232 0.36951328
v 0.04657000 -0.05527681 0.37190017
v 0.05048577 -0.10401244 0.36895497
v 0.05856415 -0.11621578 0.37092308
v 0.05825000 -0.12212314 0.37008559
v 0.07879377 -0.12212314 0.36892704
v 0.07056953 -0.11621578 0.37171871
v 0.05593868 -0.01874450 0.36948536
v 0.03098545 0.10301687 0.36898285
v 0.02257047 0.11522021 0.37109060
v 0.01056509 0.16395585 0.37132787
v 0.01937278 0.15175251 0.36917829
v 0.00735618 0.20048815 0.36922016
v 0.00614442 0.21265263 0.36832681
v -0.00654537 0.25816253 0.36762890
v 0.00520194 0.22081410 0.36732184
v -0.01442180 0.27195932 0.36042637
v -0.02543982 0.27471867 0.36042637
v -0.00841911 0.26430308 0.36042637
v -0.03394456 0.26138828 0.36042637
v -0.03342844 0.27024930 0.36042637
v -0.03176789 0.25404296 0.36698681
v 0.02802338 -0.01520786 0.36727993
v 0.02717066 -0.00658003 0.36827100
v 0.03865992 -0.05527681 0.36874558
v 0.05168631 -0.11621578 0.36768476
v 0.05230341 -0.12212314 0.36691701
v 0.08048799 -0.12212314 0.36042637
v 0.07726786 -0.10618884 0.36750330
v 0.07817668 -0.11621578 0.36849433
v 0.05470449 -0.00658003 0.36885725
v 0.06701280 -0.06748015 0.36913643
v 0.02988589 0.11522021 0.36804767
v 0.01813858 0.16395585 0.36827100
v 0.01717366 0.17207846 0.36732184
v 0.00520194 0.22081410 0.36483723
v -0.01462376 0.27219250 0.34821278
v -0.02543982 0.27491300 0.34821278
v -0.00912597 0.26099963 0.23039000
v -0.01518476 0.27118203 0.23039000
v -0.03407920 0.26138828 0.34821278
v 0.01325789 0.04215561 0.23823463
v 0.03478902 -0.05527681 0.23039000
v 0.02773166 -0.01645152 0.36042637
v -0.03347332 0.27021044 0.34821278
v 0.03968094 -0.06475965 0.36767077
v 0.03927702 -0.06643081 0.36042637
v 0.05214633 -0.12212314 0.36042637
v 0.07828888 -0.12212314 0.24242213
v 0.06507174 -0.04575509 0.36515828
v 0.06507174 -0.04575509 0.36719619
v 0.05360493 0.00562332 0.36782435
v 0.02905562 0.12361487 0.36718225
v 0.01717366 0.17207846 0.36482327
v -0.00747663 0.25509227 0.23039000
v -0.00846399 0.25866778 0.23039000
v -0.01509500 0.27149295 0.26267576
v -0.02543982 0.27339730 0.23039000
v -0.03327136 0.26966633 0.23039000
v -0.03411286 0.26138828 0.33598524
v 0.01319057 0.04215561 0.23039000
v 0.03653934 -0.06312736 0.23039000
v 0.03751548 -0.06748015 0.23039000
v -0.03336112 0.26986065 0.27490332
v -0.03342844 0.27001611 0.31154408
v -0.03346210 0.27013269 0.33598524
v -0.03410164 0.26138828 0.32377164
v 0.05251659 -0.12212314 0.23039000
v 0.03975948 -0.07649663 0.23039000
v 0.04035413 -0.07867302 0.23039000
v 0.04143125 -0.08259830 0.23039000
v 0.07819911 -0.12212314 0.23823463
v 0.05284197 0.01296864 0.36568869
v 0.05284197 0.01296864 0.36694494
v 0.02905562 0.12361487 0.36458598
v 0.07801960 -0.12212314 0.23039000
v -0.03372016 0.26434194 0.23039000
v -0.00828447 0.14172555 0.23039000
v 0.01224809 0.04650840 0.23039000
v -0.03395578 0.26138828 0.23039000
v -0.03277768 0.25575298 0.23039000
f 1 2 3
f 1 3 4
f 1 4 5
f 1 5 6
f 1 6 2
f 2 6 7
f 2 7 8
f 2 8 9
f 2 9 3
f 3 9 10
f 3 10 11
f 3 11 12
f 3 12 13
f 3 13 14
f 3 14 4
f 4 14 15
f 4 15 5
f 5 15 16
f 5 16 17
f 5 17 6
f 6 17 18
f 6 18 7
f 7 18 19
f 7 19 20
f 7 20 8
f 8 20 21
f 8 21 10
f 8 10 9
f 10 22 11
f 10 21 22
f 11 22 23
f 11 23 24
f 11 24 25
f 11 25 12
f 12 25 26
f 12 26 27
f 12 27 28
f 12 28 29
f 12 29 30
f 12 30 31
f 12 31 32
f 12 32 14
f 12 14 13
f 14 32 15
f 15 32 16
f 16 33 34
f 16 34 17
f 16 32 31
f 16 31 33
f 17 35 57
f 17 57 78
f 17 78 98
f 17 98 106
f 17 106 102
f 17 102 79
f 17 79 58
f 17 58 36
f 17 36 37
f 17 37 19
f 17 19 18
f 17 34 35
f 19 37 38
f 19 38 39
f 19 39 40
f 19 40 20
f 20 40 41
f 20 41 21
f 21 41 22
f 22 41 42
f 22 42 43
f 22 43 23
f 23 43 44
f 23 44 24
f 24 45 25
f 24 44 46
f 24 46 45
f 25 45 26
f 26 47 48
f 26 48 27
f 26 45 49
f 26 49 47
f 27 48 28
f 28 50 29
f 28 48 51
f 28 51 50
f 29 50 52
f 29 52 53
f 29 53 54
f 29 54 55
f 29 55 30
f 30 55 31
f 31 55 33
f 33 56 35
f 33 35 34
f 33 55 56
f 35 56 57
f 36 58 59
f 36 59 60
f 36 60 61
f 36 61 62
f 36 62 37
f 37 62 38
f 38 62 61
f 38 61 39
f 39 63 42
f 39 42 40
f 39 61 63
f 40 42 41
f 42 64 44
f 42 44 43
f 42 63 64
f 44 64 65
f 44 65 46
f 45 46 49
f 46 66 49
f 46 65 84
f 46 84 66
f 47 67 68
f 47 68 48
f 47 49 67
f 48 68 51
f 49 69 70
f 49 70 67
f 49 66 69
f 50 51 71
f 50 71 72
f 50 72 73
f 50 73 74
f 50 74 53
f 50 53 52
f 51 68 75
f 51 75 71
f 53 74 57
f 53 57 76
f 53 76 55
f 53 55 54
f 55 76 56
f 56 76 57
f 57 77 78
f 57 74 77
f 58 79 80
f 58 80 81
f 58 81 59
f 59 81 60
f 60 81 82
f 60 82 61
f 61 82 63
f 63 83 64
f 63 82 83
f 64 83 65
f 65 83 105
f 65 105 84
f 66 85 86
f 66 86 69
f 66 84 85
f 67 70 87
f 67 87 68
f 68 87 70
f 68 70 88
f 68 88 89
f 68 89 75
f 69 86 85
f 69 85 106
f 69 106 98
f 69 98 101
f 69 101 100
f 69 100 99
f 69 99 93
f 69 93 92
f 69 92 73
f 69 73 91
f 69 91 109
f 69 109 108
f 69 108 111
f 69 111 110
f 69 110 107
f 69 107 89
f 69 89 88
f 69 88 70
f 71 75 90
f 71 90 91
f 71 91 72
f 72 91 73
f 73 92 74
f 74 92 93
f 74 93 77
f 75 89 94
f 75 94 95
f 75 95 96
f 75 96 97
f 75 97 90
f 77 93 78
f 78 93 99
f 78 99 100
f 78 100 101
f 78 101 98
f 79 102 80
f 80 102 103
f 80 103 104
f 80 104 81
f 81 104 82
f 82 104 83
f 83 104 103
f 83 103 105
f 84 105 85
f 85 105 106
f 89 107 94
f 90 97 108
f 90 108 109
f 90 109 91
f 94 107 95
f 95 107 110
f 95 110 96
f 96 110 97
f 97 110 111
f 97 111 108
f 102 106 103
f 103 106 105

o geometry_1
v -0.04944791 -0.23587407 -0.05681240
v -0.03948736 -0.23587407 -0.05522653
v -0.06144380 -0.23587407 -0.05676709
v -0.00962063 -0.14058921 -0.05204345
v -0.03713142 -0.23587407 -0.05475077
v -0.07309675 -0.23587407 -0.05459218
v -0.03376899 -0.15277621 -0.05040095
v -0.02544865 -0.15277621 -0.05178292
v -0.01344530 -0.14058921 -0.05188487
v -0.00962063 -0.13262524 -0.05060484
v -0.00962063 -0.15150825 -0.05045758
v -0.02943735 -0.23587407 -0.04915491
v -0.04424396 -0.16932243 -0.04965332
v -0.03210641 -0.14569246 -0.04951739
v -0.08245340 -0.23587407 -0.04282274
v -0.02484476 -0.14121795 -0.05032165
v -0.01344530 -0.13291865 -0.05038962
v -0.00962063 -0.12979593 -0.04283407
v -0.00962063 -0.15658005 -0.04691203
v -0.02667136 -0.23587407 -0.04291337
v -0.03783224 -0.15277621 -0.04283407
v -0.03312782 -0.14438258 -0.04283407
v -0.02747655 -0.13830482 -0.04283407
v -0.02043856 -0.13391414 -0.04954005
v -0.08577855 -0.23587407 -0.03087207
v -0.01344530 -0.13047706 -0.04283407
v -0.00962063 -0.12882138 -0.03061153
v -0.00962063 -0.16363237 -0.04197317
v -0.02546357 -0.23587407 -0.03193687
v -0.03960665 -0.15277621 -0.03061153
v -0.03385100 -0.14358619 -0.03061153
v -0.02799098 -0.13749793 -0.03061153
v -0.02147487 -0.13327493 -0.04283407
v -0.08577109 -0.23587407 -0.02953540
v -0.03963647 -0.15277621 0.03046719
v -0.03964392 -0.15277621 0.01824465
v -0.01344530 -0.12960730 -0.03061153
v -0.01344530 -0.12961778 -0.01838899
v -0.01344530 -0.12965970 0.03046719
v -0.00962063 -0.12883186 -0.02228570
v -0.00962063 -0.16714280 -0.03061153
v -0.02534428 -0.23587407 -0.03061153
v -0.03388828 -0.14361762 0.01824465
v -0.03387337 -0.14360714 0.03046719
v -0.02793879 -0.13751889 0.03046719
v -0.02193712 -0.13295008 0.03046719
v -0.02198930 -0.13293961 -0.03061153
v -0.08516720 -0.23587407 0.03047852
v -0.04300635 -0.15953510 0.04270106
v -0.03930097 -0.15277621 0.04270106
v -0.03374663 -0.14373289 0.04270106
v -0.00962063 -0.12890521 0.03046719
v -0.00962063 -0.12889474 0.02658180
v -0.02182528 -0.13304439 0.04270106
v -0.01344530 -0.13000551 0.04270106
v -0.00962063 -0.16719520 -0.02966001
v -0.00962063 -0.16768771 -0.01838899
v -0.00962063 -0.16770867 -0.01765269
v -0.00962063 -0.16802304 -0.00564538
v -0.00962063 -0.16872513 0.03046719
v -0.02505351 -0.23587407 0.04270106
v -0.02781950 -0.13763416 0.04270106
v -0.08483916 -0.23587407 0.04211202
v -0.03290415 -0.14479127 0.05026793
v -0.00962063 -0.12914623 0.03880434
v -0.02095299 -0.13358929 0.04984881
v -0.01344530 -0.13242613 0.05090228
v -0.00962063 -0.13099052 0.04828559
v -0.00962063 -0.12934533 0.04270106
v -0.00962063 -0.16870417 0.03055781
v -0.00962063 -0.16490032 0.04340337
v -0.00962063 -0.16459643 0.04390179
v -0.02712614 -0.23587407 0.05193310
v -0.08180477 -0.23587407 0.04919180
v -0.04521318 -0.16756197 0.05065308
v -0.03522281 -0.15277621 0.05154796
v -0.02515043 -0.14068352 0.05144601
v -0.00962063 -0.13213272 0.05111751
v -0.01344530 -0.14058921 0.05365490
v -0.00962063 -0.15959798 0.04873870
v -0.00962063 -0.15310105 0.05178584
v -0.00962063 -0.15014599 0.05253346
v -0.00962063 -0.14058921 0.05384747
v -0.03755638 -0.23587407 0.05696258
v -0.07462513 -0.23587407 0.05563724
v -0.07326077 -0.23587407 0.05618097
v -0.02544865 -0.15277621 0.05409668
v -0.00962063 -0.13769704 0.05298657
v -0.06144380 -0.23587407 0.05891093
v -0.04944791 -0.23587407 0.05865040
v -0.03745201 -0.17712922 0.05519547
f 112 113 116
f 112 116 123
f 112 123 131
f 112 131 140
f 112 140 153
f 112 153 172
f 112 172 184
f 112 184 195
f 112 195 201
f 112 201 200
f 112 200 197
f 112 197 196
f 112 196 185
f 112 185 174
f 112 174 159
f 112 159 145
f 112 145 136
f 112 136 126
f 112 126 117
f 112 117 114
f 112 114 115
f 112 115 113
f 113 115 116
f 114 117 118
f 114 118 119
f 114 119 120
f 114 120 115
f 115 120 121
f 115 121 129
f 115 129 138
f 115 138 151
f 115 151 164
f 115 164 163
f 115 163 176
f 115 176 180
f 115 180 179
f 115 179 189
f 115 189 199
f 115 199 194
f 115 194 193
f 115 193 192
f 115 192 191
f 115 191 183
f 115 183 182
f 115 182 181
f 115 181 171
f 115 171 170
f 115 170 169
f 115 169 168
f 115 168 167
f 115 167 152
f 115 152 139
f 115 139 130
f 115 130 122
f 115 122 116
f 116 122 123
f 117 124 125
f 117 125 118
f 117 126 124
f 118 125 127
f 118 127 119
f 119 127 120
f 120 127 128
f 120 128 121
f 121 128 129
f 122 130 131
f 122 131 123
f 124 126 125
f 125 132 133
f 125 133 134
f 125 134 135
f 125 135 127
f 125 126 132
f 126 136 132
f 127 135 128
f 128 135 137
f 128 137 129
f 129 137 138
f 130 139 131
f 131 139 140
f 132 136 141
f 132 141 133
f 133 141 142
f 133 142 134
f 134 142 143
f 134 143 144
f 134 144 135
f 135 144 137
f 136 145 146
f 136 146 147
f 136 147 141
f 137 144 148
f 137 148 138
f 138 148 149
f 138 149 150
f 138 150 151
f 139 152 153
f 139 153 140
f 141 147 142
f 142 147 154
f 142 154 143
f 143 154 155
f 143 155 156
f 143 156 157
f 143 157 158
f 143 158 144
f 144 158 148
f 145 159 146
f 146 159 160
f 146 160 161
f 146 161 162
f 146 162 155
f 146 155 154
f 146 154 147
f 148 158 157
f 148 157 149
f 149 157 150
f 150 163 164
f 150 164 151
f 150 157 165
f 150 165 166
f 150 166 163
f 152 167 153
f 153 167 168
f 153 168 169
f 153 169 170
f 153 170 171
f 153 171 172
f 155 162 173
f 155 173 156
f 156 173 165
f 156 165 157
f 159 174 160
f 160 174 175
f 160 175 161
f 161 175 162
f 162 175 173
f 163 166 176
f 165 173 177
f 165 177 166
f 166 177 178
f 166 178 179
f 166 179 180
f 166 180 176
f 171 181 172
f 172 181 182
f 172 182 183
f 172 183 184
f 173 175 177
f 174 185 186
f 174 186 175
f 175 186 187
f 175 187 188
f 175 188 177
f 177 188 178
f 178 189 179
f 178 188 190
f 178 190 189
f 183 191 184
f 184 191 192
f 184 192 193
f 184 193 194
f 184 194 195
f 185 196 186
f 186 196 187
f 187 196 197
f 187 197 198
f 187 198 188
f 188 198 190
f 189 190 199
f 190 194 199
f 190 198 194
f 194 198 200
f 194 200 201
f 194 201 195
f 197 200 202
f 197 202 198
f 198 202 200

o geometry_2
v 0.08657309 -0.15275995 0.36038669
v 0.08506384 -0.14058463 0.36038669
v 0.08088877 -0.14058463 0.36972848
v 0.08160238 -0.15275995 0.36958251
v 0.07993318 -0.16072933 0.36841479
v 0.08158598 -0.16161848 0.36038669
v 0.07839522 -0.16093197 -0.36053757
v 0.07925237 -0.15275995 -0.36053757
v 0.08049915 -0.12212314 0.36038669
v 0.07880124 -0.12212314 0.36892569
v 0.07946154 -0.12840104 0.36936355
v 0.08089697 -0.14058463 -0.01839413
v 0.07057415 -0.12840104 0.37264781
v 0.07057415 -0.14058463 0.37301270
v 0.07057415 -0.15275995 0.37242886
v 0.07057415 -0.16421153 0.36038669
v 0.07057415 -0.16152337 0.36921758
v 0.07057415 -0.16437282 -0.34834943
v 0.07057415 -0.16418258 -0.36053757
v 0.07777593 -0.16020409 -0.36798181
v 0.07792767 -0.15275995 -0.36827375
v 0.07717305 -0.14436460 -0.36747095
v 0.07743553 -0.14348371 -0.36053757
v 0.07649634 -0.12261529 -0.00613301
v 0.07636510 -0.12212314 -0.00613301
v 0.07057415 -0.12212314 0.37213692
v 0.05825401 -0.12212314 0.37002042
v 0.06057942 -0.14058463 0.36972848
v 0.06166215 -0.15275995 0.36936355
v 0.06298685 -0.16053495 0.36819583
v 0.06212969 -0.16144479 0.36038669
v 0.04467891 -0.16113875 -0.00613301
v 0.04467891 -0.16123800 -0.01839413
v 0.05857391 -0.16313626 -0.03058226
v 0.06006677 -0.16230087 -0.34834943
v 0.06006677 -0.16210235 -0.36053757
v 0.06160883 -0.16087407 -0.36849270
v 0.07057415 -0.16138275 -0.36907655
v 0.07057415 -0.15275995 -0.37126602
v 0.06861785 -0.12840104 -0.36973341
v 0.06965137 -0.12212314 -0.36484354
v 0.07075870 -0.12212314 -0.36053757
v 0.07275191 -0.12840104 -0.36053757
v 0.07560227 -0.13739606 -0.36053757
v 0.06764586 -0.12212314 -0.36929550
v 0.05231132 -0.12212314 0.36688214
v 0.05240975 -0.12307847 0.36673621
v 0.05859032 -0.15275995 0.36038669
v 0.04467891 -0.15970782 0.04159775
v 0.04467891 -0.15982775 0.04013809
v 0.04467891 -0.16034471 0.03043138
v 0.04467891 -0.16111393 -0.03058226
v 0.05406665 -0.15527027 -0.36053757
v 0.05799564 -0.15262347 -0.36944147
v 0.05206934 -0.14847543 -0.36732498
v 0.05857391 -0.14058463 -0.37163095
v 0.05857391 -0.12840104 -0.37257972
v 0.05857391 -0.12212314 -0.37228778
v 0.06344619 -0.12212314 -0.37090114
v 0.05215547 -0.12212314 0.36038669
v 0.04467891 -0.12930261 0.05393184
v 0.04467891 -0.13096927 0.05451571
v 0.04467891 -0.14058463 0.05728905
v 0.04467891 -0.15304530 0.05429676
v 0.04467891 -0.15426532 0.05291008
v 0.04467891 -0.15613876 0.04940691
v 0.04467891 -0.15855811 0.04444408
v 0.04467891 -0.16096092 -0.03182296
v 0.04471582 -0.12212314 -0.36053757
v 0.04955938 -0.14058463 -0.36053757
v 0.05185608 -0.14917848 -0.36053757
v 0.05103993 -0.14058463 -0.36841972
v 0.04622097 -0.12212314 -0.36484354
v 0.04953478 -0.12840104 -0.36944147
v 0.04867352 -0.12212314 -0.36966043
v 0.05305364 -0.12212314 -0.37112005
v 0.04668851 -0.12212314 0.04269249
v 0.04467891 -0.12614712 0.04269249
v 0.04467891 -0.15992701 -0.03861037
v 0.04467891 -0.14035716 -0.05539641
v 0.04467891 -0.13855403 -0.05517746
v 0.04467891 -0.12932329 -0.05400974
v 0.04467891 -0.12892213 -0.05306097
v 0.04467891 -0.12558467 -0.04277039
v 0.04467891 -0.12552677 -0.03058226
v 0.04567961 -0.12212314 -0.04277039
v 0.04467891 -0.15475332 -0.04474092
v 0.04467891 -0.14866153 -0.05109043
f 203 204 205
f 203 205 206
f 203 206 207
f 203 207 208
f 203 208 209
f 203 209 210
f 203 210 204
f 204 211 212
f 204 212 213
f 204 213 205
f 204 210 214
f 204 214 211
f 205 213 215
f 205 215 216
f 205 216 206
f 206 216 217
f 206 217 207
f 207 218 208
f 207 217 219
f 207 219 218
f 208 218 220
f 208 220 209
f 209 220 221
f 209 221 222
f 209 222 210
f 210 222 223
f 210 223 224
f 210 224 225
f 210 225 214
f 211 226 227
f 211 227 244
f 211 244 243
f 211 243 247
f 211 247 261
f 211 261 260
f 211 260 278
f 211 278 277
f 211 277 275
f 211 275 271
f 211 271 288
f 211 288 279
f 211 279 262
f 211 262 248
f 211 248 229
f 211 229 228
f 211 228 212
f 211 214 226
f 212 228 213
f 213 228 215
f 214 225 226
f 215 228 229
f 215 229 216
f 216 229 217
f 217 229 230
f 217 230 231
f 217 231 232
f 217 232 219
f 218 219 232
f 218 232 233
f 218 233 234
f 218 234 235
f 218 235 236
f 218 236 220
f 220 236 235
f 220 235 237
f 220 237 221
f 221 238 239
f 221 239 240
f 221 240 222
f 221 237 238
f 222 240 241
f 222 241 223
f 223 241 242
f 223 242 224
f 224 243 244
f 224 244 245
f 224 245 246
f 224 246 225
f 224 242 247
f 224 247 243
f 225 246 227
f 225 227 226
f 227 246 245
f 227 245 244
f 229 231 230
f 229 248 231
f 231 248 249
f 231 249 232
f 232 249 250
f 232 250 233
f 233 250 251
f 233 251 252
f 233 252 253
f 233 253 234
f 234 253 252
f 234 252 251
f 234 251 269
f 234 269 268
f 234 268 267
f 234 267 266
f 234 266 265
f 234 265 264
f 234 264 263
f 234 263 280
f 234 280 287
f 234 287 286
f 234 286 285
f 234 285 284
f 234 284 283
f 234 283 282
f 234 282 290
f 234 290 289
f 234 289 281
f 234 281 270
f 234 270 254
f 234 254 235
f 235 254 237
f 237 254 238
f 238 254 255
f 238 255 239
f 239 256 241
f 239 241 240
f 239 255 257
f 239 257 256
f 241 258 259
f 241 259 260
f 241 260 261
f 241 261 242
f 241 256 258
f 242 261 247
f 248 262 263
f 248 263 264
f 248 264 265
f 248 265 266
f 248 266 267
f 248 267 268
f 248 268 269
f 248 269 251
f 248 251 249
f 249 251 250
f 254 270 271
f 254 271 272
f 254 272 273
f 254 273 255
f 255 273 257
f 256 257 274
f 256 274 258
f 257 273 272
f 257 272 271
f 257 271 275
f 257 275 274
f 258 274 276
f 258 276 277
f 258 277 259
f 259 277 278
f 259 278 260
f 262 279 280
f 262 280 263
f 270 281 271
f 271 282 283
f 271 283 284
f 271 284 285
f 271 285 286
f 271 286 287
f 271 287 280
f 271 280 288
f 271 281 289
f 271 289 290
f 271 290 282
f 274 275 276
f 275 277 276
f 279 288 280

o geometry_3
v 0.05856967 -0.12212314 -0.37226085
v 0.04657465 -0.07967337 -0.37243785
v 0.05856967 -0.11621543 -0.37202481
v 0.06344032 -0.12212314 -0.37090367
v 0.05305643 -0.12212314 -0.37113972
v 0.04657465 -0.09185591 -0.37202481
v 0.03560406 -0.06529351 -0.36984158
v 0.04415796 -0.06529351 -0.37125772
v 0.04657465 -0.06749639 -0.37161176
v 0.06764509 -0.12212314 -0.36931049
v 0.04867471 -0.12212314 -0.36966454
v 0.03748061 -0.07967337 -0.36960554
v 0.03419315 -0.06529351 -0.36736327
v 0.04671900 -0.06529351 -0.37125772
v 0.05546382 -0.07967337 -0.36948754
v 0.05405291 -0.06749639 -0.36842540
v 0.06673243 -0.11621543 -0.36883845
v 0.06964737 -0.12212314 -0.36482599
v 0.04622076 -0.12212314 -0.36488499
v 0.03975296 -0.10144062 -0.36771731
v 0.03875182 -0.09185591 -0.36877945
v 0.03068685 -0.06529351 -0.36051849
v 0.05286086 -0.06529351 -0.36866145
v 0.05379681 -0.06529351 -0.36813036
v 0.06536343 -0.10770434 -0.36765831
v 0.07076026 -0.12212314 -0.36051849
v 0.04471673 -0.12212314 -0.36051849
v 0.04094501 -0.10887254 -0.36051849
v 0.03942700 -0.10278127 -0.36051849
v 0.03046334 -0.06529351 -0.34830405
v 0.05480260 -0.06529351 -0.36234768
v 0.05490970 -0.06529351 -0.36051849
v 0.07476480 -0.11621543 -0.00618238
v 0.07636196 -0.12212314 -0.00618238
v 0.04568061 -0.12212314 -0.04288464
v 0.03045868 -0.06529351 -0.34499968
v 0.05988279 -0.06529351 0.23037608
v 0.07492312 -0.11621543 0.00603204
v 0.07575663 -0.11312809 0.23037608
v 0.07676708 -0.11704430 0.23037608
v 0.07644578 -0.12212314 0.00538297
v 0.04669107 -0.12212314 0.04267529
v 0.03653069 -0.06529351 0.20152173
v 0.03647482 -0.07967337 -0.06731347
v 0.03059372 -0.06529351 -0.32387524
v 0.03052853 -0.06529351 -0.33284428
v 0.03703359 -0.06529351 0.23037608
v 0.07731654 -0.11921936 0.23037608
v 0.07645044 -0.12212314 0.00603204
v 0.05253025 -0.12212314 0.23037608
v 0.04143859 -0.08262165 0.23037608
v 0.04035830 -0.07871100 0.23037608
v 0.03976692 -0.07653038 0.23037608
v 0.03752717 -0.06749639 0.23037608
v 0.03742939 -0.06749639 0.22600958
v 0.03720122 -0.06749639 0.21373613
v 0.03670764 -0.06529351 0.21373613
v 0.03693580 -0.06529351 0.22600958
v 0.07760524 -0.12039310 0.23037608
v 0.07802897 -0.12212314 0.23037608
f 291 292 293
f 291 293 294
f 291 294 300
f 291 300 308
f 291 308 316
f 291 316 324
f 291 324 331
f 291 331 339
f 291 339 350
f 291 350 340
f 291 340 332
f 291 332 325
f 291 325 317
f 291 317 309
f 291 309 301
f 291 301 295
f 291 295 296
f 291 296 292
f 292 296 297
f 292 297 298
f 292 298 299
f 292 299 293
f 293 299 294
f 294 299 300
f 295 301 296
f 296 301 302
f 296 302 297
f 297 302 303
f 297 303 312
f 297 312 320
f 297 320 326
f 297 326 336
f 297 336 335
f 297 335 333
f 297 333 347
f 297 347 348
f 297 348 337
f 297 337 327
f 297 327 322
f 297 322 321
f 297 321 314
f 297 314 313
f 297 313 304
f 297 304 298
f 298 304 299
f 299 304 305
f 299 305 300
f 300 305 306
f 300 306 307
f 300 307 308
f 301 309 310
f 301 310 311
f 301 311 302
f 302 311 303
f 303 311 312
f 304 313 305
f 305 313 306
f 306 313 314
f 306 314 307
f 307 314 315
f 307 315 308
f 308 315 316
f 309 317 310
f 310 317 318
f 310 318 319
f 310 319 312
f 310 312 311
f 312 319 320
f 314 321 316
f 314 316 315
f 316 321 322
f 316 322 323
f 316 323 324
f 317 325 318
f 318 325 319
f 319 326 320
f 319 325 326
f 322 327 328
f 322 328 323
f 323 328 324
f 324 328 329
f 324 329 330
f 324 330 331
f 325 332 333
f 325 333 334
f 325 334 335
f 325 335 336
f 325 336 326
f 327 337 344
f 327 344 343
f 327 343 342
f 327 342 341
f 327 341 340
f 327 340 350
f 327 350 349
f 327 349 338
f 327 338 330
f 327 330 329
f 327 329 328
f 330 338 339
f 330 339 331
f 332 340 341
f 332 341 342
f 332 342 343
f 332 343 344
f 332 344 345
f 332 345 346
f 332 346 347
f 332 347 333
f 333 335 334
f 337 348 345
f 337 345 344
f 338 349 339
f 339 349 350
f 345 348 347
f 345 347 346

o geometry_4
v 0.11855850 -0.26976111 -0.13513002
v 0.11855850 -0.26670091 -0.13513002
v 0.12831470 -0.26949822 -0.13499805
v 0.11855850 -0.27441094 -0.12837372
v -0.12144407 -0.27098107 -0.12792506
v -0.12144407 -0.26394058 -0.13404795
v -0.12827341 -0.25770931 -0.13454941
v 0.01055161 -0.25271443 -0.12779310
v 0.02254600 -0.25307179 -0.12760836
v 0.03454039 -0.25348666 -0.12731804
v 0.12831470 -0.26716917 -0.13499805
v -0.12827341 -0.25606215 -0.13454941
v -0.12144407 -0.25605394 -0.13454941
v -0.11186004 -0.25621822 -0.13449662
v 0.13741093 -0.26999113 -0.12615680
v 0.13161459 -0.27186832 -0.12948216
v 0.11855850 -0.27780384 -0.11615432
v -0.12144407 -0.27345797 -0.11615432
v -0.13343846 -0.27058262 -0.12721247
v -0.13274979 -0.26201822 -0.13312425
v -0.12144407 -0.24996642 -0.12982526
v -0.12144407 -0.24362012 -0.12372877
v 0.04656347 -0.25394262 -0.12694856
v 0.05855786 -0.25439445 -0.12652630
v 0.07055225 -0.25479700 -0.12599846
v 0.08257533 -0.25516257 -0.12539144
v 0.11878806 -0.25983706 -0.12750279
v 0.13161459 -0.26433902 -0.12948216
v 0.13741093 -0.26679950 -0.12615680
v -0.14055475 -0.25349487 -0.12557620
v -0.13277848 -0.25071811 -0.12861123
v -0.12930643 -0.24369407 -0.12349124
v 0.14874534 -0.26881635 0.06956485
v 0.13795613 -0.27091944 -0.11615432
v 0.13058159 -0.27561447 -0.11615432
v 0.13058159 -0.27594720 -0.10393491
v 0.13058159 -0.27650584 -0.07949608
v 0.13058159 -0.27726574 -0.04283786
v 0.13058159 -0.27750398 -0.03061846
v 0.13058159 -0.27760257 -0.01837266
v 0.13058159 -0.27763544 -0.00615325
v 0.11855850 -0.27783259 -0.10393491
v -0.12144407 -0.27351959 0.11601445
v -0.13343846 -0.27281307 0.11601445
v -0.13343846 -0.27280896 0.10379504
v -0.13343846 -0.27266519 -0.11615432
v 0.11855850 -0.27783671 -0.09171549
v -0.14049736 -0.26963377 -0.12507474
v -0.14107126 -0.26239612 -0.12686939
v -0.06144343 -0.23587722 -0.05677274
v -0.04942034 -0.23587722 -0.05679913
v -0.03946328 -0.23587722 -0.05521562
v -0.03711031 -0.23587722 -0.05474057
v -0.10944968 -0.24393640 -0.12283144
v 0.09456973 -0.25551582 -0.12465247
v 0.10656411 -0.25587730 -0.12370237
v 0.11491427 -0.25614020 -0.12288421
v 0.12292010 -0.25646058 -0.11829205
v 0.12937641 -0.25903197 -0.11499306
v 0.13795613 -0.26569044 -0.11615432
v 0.14874534 -0.26811805 0.06956485
v -0.14270685 -0.26239612 -0.11615432
v -0.14109995 -0.25225026 -0.11615432
v -0.13607837 -0.24615864 -0.11615432
v -0.13008118 -0.24348047 -0.11615432
v -0.12144407 -0.23936050 -0.04283786
v -0.08244796 -0.23587722 -0.04283786
v -0.07309348 -0.23587722 -0.05458222
v 0.15009399 -0.27056620 0.11601445
v 0.13967781 -0.27254608 -0.04283786
v 0.13818568 -0.27123163 -0.10393491
v 0.13999345 -0.27275145 -0.03061846
v 0.14025170 -0.27287058 -0.01837266
v 0.14257598 -0.27415628 0.11601445
v 0.13058159 -0.27763953 0.00603977
v -0.12144407 -0.27100161 0.12794353
v -0.13343846 -0.27065245 0.12725736
v 0.11855850 -0.27782438 -0.03061846
v 0.11855850 -0.27779563 -0.01837266
v 0.11855850 -0.27770116 -0.00615325
v 0.11855850 -0.27759436 0.00603977
v 0.13058159 -0.27752452 0.03047858
v 0.13058159 -0.27736022 0.04269799
v 0.13058159 -0.27716306 0.05491740
v 0.13058159 -0.27693304 0.06713681
v 0.13058159 -0.27663727 0.07935622
v 0.13058159 -0.27633332 0.09157563
v 0.13058159 -0.27598828 0.10379504
v 0.13058159 -0.27557750 0.11601445
v -0.14058344 -0.26970770 0.12509323
v -0.14115734 -0.27031563 0.11601445
v -0.14104255 -0.27020473 -0.11615432
v -0.10319423 -0.24411304 -0.12230360
v -0.02942013 -0.23587722 -0.04914550
v 0.01055161 -0.24889432 -0.11615432
v 0.12458440 -0.25630860 -0.11013697
v -0.02666544 -0.23587722 -0.04291704
v 0.13373800 -0.25714656 -0.04283786
v 0.13075375 -0.25914698 -0.10393491
v 0.13448407 -0.25685903 -0.03061846
v 0.13517274 -0.25664543 -0.01837266
v 0.13580402 -0.25648524 -0.00615325
v 0.13626314 -0.25637844 0.00313667
v 0.15009399 -0.26549326 0.11601445
v -0.14305119 -0.26239612 0.10379504
v -0.14132951 -0.25272675 0.10379504
v -0.14132951 -0.25269800 0.11601445
v -0.13708269 -0.24654064 -0.03061846
v -0.13105680 -0.24221531 -0.03061846
v -0.13094202 -0.24231390 -0.04283786
v -0.12144407 -0.23903601 -0.03061846
v -0.08577654 -0.23587722 -0.03088237
v 0.14977835 -0.27006095 0.12620167
v 0.14375246 -0.27094410 0.12944786
v 0.13058159 -0.27761490 0.01825918
v -0.12144407 -0.26465942 0.13404005
v 0.13058159 -0.27214354 0.12823386
v 0.13058159 -0.26870134 0.13448871
v 0.10002172 -0.26849184 0.13435675
v -0.13269240 -0.26213323 0.13314272
v -0.14124343 -0.26239612 0.12688786
v -0.14302249 -0.26239612 0.11601445
v -0.14115734 -0.27030742 0.10379504
v 0.13058159 -0.25488326 0.04269799
v 0.12774081 -0.25575818 -0.04283786
v 0.12848687 -0.25568425 -0.03061846
v 0.13698051 -0.25604982 0.03047858
v 0.13660748 -0.25629627 0.01129174
v -0.02543156 -0.23587722 -0.03193805
v 0.14469939 -0.25940165 0.11601445
v 0.14977835 -0.26611764 0.12620167
v -0.14069822 -0.25389742 0.12551550
v -0.13343846 -0.24730057 0.11601445
v -0.13051160 -0.24245767 0.04269799
v -0.13650880 -0.24682408 0.04269799
v -0.13676705 -0.24675836 0.03047858
v -0.13699661 -0.24658994 -0.00615325
v -0.13705400 -0.24653655 -0.01837266
v -0.13105680 -0.24220710 -0.01837266
v -0.12144407 -0.23900726 -0.01837266
v -0.12144407 -0.23901135 0.03047858
v -0.08517395 -0.23587722 0.03047858
v 0.14056734 -0.26869311 0.13446232
v -0.12144407 -0.25856781 0.13440952
v -0.12815863 -0.25789825 0.13440952
v 0.13058159 -0.26769085 0.13448871
v -0.12815863 -0.25615662 0.13440952
v 0.13058159 -0.25459982 0.06713681
v 0.13718137 -0.25591427 0.04269799
v -0.02531678 -0.23587722 -0.03061846
v 0.13787004 -0.25561853 0.07935622
v 0.13870220 -0.25546653 0.11601445
v 0.13818568 -0.25572942 0.12406394
v 0.14337942 -0.26290547 0.12921035
v 0.14056734 -0.26781409 0.13446232
v -0.13269240 -0.25260762 0.12905199
v -0.12144407 -0.24568215 0.11601445
v -0.12144407 -0.23945909 0.04269799
v -0.13074116 -0.24230157 0.03047858
v -0.13082724 -0.24227282 0.01825918
v -0.13099941 -0.24222764 -0.00615325
v -0.08482962 -0.23587722 0.04211737
v -0.05188809 -0.25628396 0.13435675
v -0.07343781 -0.25624698 0.13438315
v -0.12144407 -0.25610733 0.13440952
v -0.12144407 -0.25081670 0.12823386
v 0.13058159 -0.25447250 0.07935622
v 0.13761179 -0.25570479 0.06713681
v -0.02502984 -0.23587722 0.04269799
v 0.13058159 -0.25424657 0.11601445
v 0.13058159 -0.25439034 0.09157563
v 0.13058159 -0.25525295 0.12554187
v 0.13058159 -0.26159923 0.13166479
v 0.11855850 -0.26187855 0.13245653
v 0.10656411 -0.26212911 0.13298438
v -0.04942034 -0.23587722 0.05863864
v -0.06144343 -0.23587722 0.05890257
v -0.06147212 -0.23587722 0.05890257
v -0.07323695 -0.23587722 0.05618421
v -0.07461430 -0.23587722 0.05562998
v -0.08178798 -0.23587722 0.04919038
v 0.01055161 -0.25280890 0.12812829
v 0.02254600 -0.25301428 0.12810189
v 0.03454039 -0.25324019 0.12804910
v 0.04656347 -0.25349487 0.12799633
v 0.08257533 -0.25424245 0.12754766
v 0.09456973 -0.25447660 0.12725736
v -0.00141409 -0.24886557 0.11601445
v 0.07055225 -0.25400833 0.12773240
v 0.05855786 -0.25376186 0.12789076
v -0.02709586 -0.23587722 0.05193512
v 0.11855850 -0.25494897 0.12633363
v -0.03754073 -0.23587722 0.05694957
v 0.10656411 -0.25470662 0.12686147
v 0.01055161 -0.24922293 0.11601445
f 351 352 361
f 351 361 353
f 351 353 354
f 351 354 355
f 351 355 356
f 351 356 357
f 351 357 362
f 351 362 352
f 352 358 359
f 352 359 360
f 352 360 361
f 352 362 363
f 352 363 364
f 352 364 358
f 353 361 379
f 353 379 365
f 353 365 366
f 353 366 354
f 354 366 367
f 354 367 355
f 355 368 369
f 355 369 356
f 355 367 368
f 356 369 370
f 356 370 357
f 357 370 362
f 358 364 371
f 358 371 372
f 358 372 359
f 359 372 360
f 360 373 361
f 360 372 373
f 361 373 374
f 361 374 375
f 361 375 376
f 361 376 377
f 361 377 378
f 361 378 379
f 362 370 380
f 362 380 381
f 362 381 382
f 362 382 371
f 362 371 363
f 363 371 364
f 365 379 411
f 365 411 383
f 365 383 384
f 365 384 385
f 365 385 366
f 366 385 367
f 367 385 386
f 367 386 387
f 367 387 388
f 367 388 389
f 367 389 390
f 367 390 391
f 367 391 392
f 367 392 368
f 368 393 394
f 368 394 395
f 368 395 396
f 368 396 369
f 368 392 397
f 368 397 393
f 369 396 398
f 369 398 370
f 370 398 399
f 370 399 380
f 371 382 372
f 372 382 400
f 372 400 401
f 372 401 402
f 372 402 403
f 372 403 404
f 372 404 405
f 372 405 376
f 372 376 373
f 373 376 374
f 374 376 375
f 376 405 377
f 377 405 406
f 377 406 407
f 377 407 378
f 378 407 408
f 378 408 409
f 378 409 379
f 379 410 411
f 379 409 410
f 380 399 412
f 380 412 413
f 380 413 414
f 380 414 382
f 380 382 381
f 382 414 415
f 382 415 416
f 382 416 417
f 382 417 418
f 382 418 400
f 383 411 454
f 383 454 419
f 383 419 384
f 384 419 420
f 384 420 421
f 384 421 385
f 385 421 420
f 385 420 422
f 385 422 386
f 386 422 387
f 387 422 388
f 388 422 423
f 388 423 419
f 388 419 389
f 389 419 424
f 389 424 390
f 390 424 391
f 391 424 425
f 391 425 392
f 392 425 397
f 393 426 427
f 393 427 394
f 393 397 428
f 393 428 429
f 393 429 430
f 393 430 431
f 393 431 432
f 393 432 433
f 393 433 434
f 393 434 435
f 393 435 436
f 393 436 437
f 393 437 438
f 393 438 439
f 393 439 426
f 394 427 440
f 394 440 441
f 394 441 395
f 395 441 442
f 395 442 396
f 396 442 398
f 397 425 428
f 398 442 412
f 398 412 399
f 400 418 417
f 400 417 462
f 400 462 492
f 400 492 512
f 400 512 531
f 400 531 530
f 400 530 529
f 400 529 528
f 400 528 527
f 400 527 526
f 400 526 543
f 400 543 541
f 400 541 519
f 400 519 500
f 400 500 479
f 400 479 447
f 400 447 444
f 400 444 403
f 400 403 402
f 400 402 401
f 403 443 404
f 403 444 407
f 403 407 445
f 403 445 443
f 404 443 405
f 405 443 406
f 406 443 407
f 407 443 445
f 407 444 408
f 408 446 409
f 408 444 447
f 408 447 446
f 409 446 448
f 409 448 449
f 409 449 410
f 410 449 450
f 410 450 451
f 410 451 452
f 410 452 453
f 410 453 454
f 410 454 411
f 412 455 413
f 412 442 455
f 413 455 456
f 413 456 457
f 413 457 458
f 413 458 414
f 414 458 459
f 414 459 460
f 414 460 415
f 415 460 461
f 415 461 416
f 416 461 417
f 417 461 462
f 419 454 481
f 419 481 463
f 419 463 424
f 419 423 422
f 419 422 420
f 424 463 464
f 424 464 439
f 424 439 438
f 424 438 437
f 424 437 436
f 424 436 435
f 424 435 434
f 424 434 433
f 424 433 432
f 424 432 465
f 424 465 425
f 425 465 428
f 426 466 427
f 426 439 467
f 426 467 468
f 426 468 469
f 426 469 466
f 427 470 440
f 427 466 470
f 428 465 429
f 429 465 432
f 429 432 430
f 430 432 431
f 439 464 467
f 440 471 472
f 440 472 441
f 440 470 471
f 441 472 455
f 441 455 473
f 441 473 442
f 442 473 455
f 446 474 475
f 446 475 476
f 446 476 477
f 446 477 478
f 446 478 453
f 446 453 452
f 446 452 451
f 446 451 450
f 446 450 448
f 446 447 479
f 446 479 474
f 448 450 449
f 453 478 454
f 454 480 481
f 454 478 480
f 455 472 457
f 455 457 456
f 457 472 482
f 457 482 483
f 457 483 484
f 457 484 485
f 457 485 486
f 457 486 487
f 457 487 488
f 457 488 458
f 458 488 489
f 458 489 459
f 459 489 490
f 459 490 461
f 459 461 460
f 461 490 462
f 462 490 491
f 462 491 492
f 463 481 505
f 463 505 493
f 463 493 464
f 464 493 467
f 466 494 495
f 466 495 470
f 466 469 468
f 466 468 494
f 467 493 468
f 468 493 505
f 468 505 496
f 468 496 497
f 468 497 495
f 468 495 494
f 470 495 497
f 470 497 482
f 470 482 471
f 471 482 472
f 474 498 499
f 474 499 477
f 474 477 476
f 474 476 475
f 474 479 498
f 477 499 480
f 477 480 478
f 479 500 498
f 480 499 501
f 480 501 502
f 480 502 503
f 480 503 481
f 481 503 504
f 481 504 505
f 482 497 506
f 482 506 483
f 483 506 507
f 483 507 508
f 483 508 484
f 484 509 485
f 484 508 491
f 484 491 509
f 485 509 486
f 486 509 487
f 487 509 488
f 488 509 510
f 488 510 511
f 488 511 489
f 489 511 491
f 489 491 490
f 491 511 510
f 491 510 509
f 491 508 512
f 491 512 492
f 496 505 513
f 496 513 514
f 496 514 515
f 496 515 497
f 497 515 516
f 497 516 506
f 498 517 518
f 498 518 499
f 498 500 517
f 499 518 501
f 500 519 520
f 500 520 521
f 500 521 517
f 501 518 517
f 501 517 502
f 502 517 521
f 502 521 520
f 502 520 503
f 503 520 522
f 503 522 523
f 503 523 504
f 504 523 505
f 505 523 524
f 505 524 525
f 505 525 513
f 506 516 507
f 507 526 527
f 507 527 528
f 507 528 529
f 507 529 530
f 507 530 531
f 507 531 508
f 507 516 532
f 507 532 533
f 507 533 534
f 507 534 535
f 507 535 536
f 507 536 537
f 507 537 538
f 507 538 526
f 508 531 512
f 513 516 515
f 513 515 514
f 513 525 524
f 513 524 536
f 513 536 539
f 513 539 540
f 513 540 535
f 513 535 534
f 513 534 533
f 513 533 532
f 513 532 516
f 519 541 520
f 520 541 522
f 522 542 523
f 522 541 543
f 522 543 542
f 523 542 544
f 523 544 537
f 523 537 524
f 524 537 536
f 526 538 543
f 535 540 536
f 536 540 539
f 537 544 538
f 538 544 545
f 538 545 543
f 542 545 544
f 542 543 545

o geometry_5
v 0.04415148 -0.06529351 -0.37125003
v 0.03456300 -0.04311413 -0.37160398
v 0.03456300 -0.03091381 -0.37225286
v 0.04671100 -0.06529351 -0.37125003
v 0.03560038 -0.06529351 -0.36983433
v -0.00143499 0.12739195 -0.37130903
v 0.02600221 -0.03091381 -0.36924441
v -0.01003456 0.13959227 -0.36912645
v -0.00143499 0.13959227 -0.37183994
v 0.01055788 0.09089045 -0.37201690
v 0.03456300 -0.01874665 -0.37189890
v 0.02256044 0.04215548 -0.37166294
v 0.01899264 0.09089045 -0.36918541
v 0.04384124 -0.03091381 -0.36959837
v 0.05284800 -0.06529351 -0.36865454
v 0.03418489 -0.06529351 -0.36735680
v 0.02794124 -0.05193284 -0.36747475
v 0.02708807 -0.04311413 -0.36841858
v -0.01343755 0.18829409 -0.37101407
v -0.03337072 0.24922935 -0.36830058
v -0.00897779 0.12739195 -0.36835958
v -0.02122273 0.18829409 -0.36841858
v -0.02544011 0.24922935 -0.37042420
v -0.01343755 0.20049440 -0.37119107
v -0.00143499 0.15175943 -0.37130903
v 0.01055788 0.10305762 -0.37125003
v -0.00483797 0.20049440 -0.36894950
v 0.00656349 0.15175943 -0.36871354
v 0.01780014 0.10305762 -0.36818263
v 0.03027776 0.04215548 -0.36859554
v 0.05378843 -0.06529351 -0.36812363
v 0.03067526 -0.06529351 -0.36051408
v 0.02916282 -0.05932597 -0.36051408
v 0.02765038 -0.05325896 -0.36051408
v -0.03204248 0.22807773 -0.36051408
v -0.03173224 0.22953647 -0.36700284
v -0.00800828 0.11840748 -0.36741575
v -0.03408816 0.26139653 -0.36853654
v -0.03243999 0.23702904 -0.36765171
v -0.03794681 0.26139653 -0.36051408
v -0.02544011 0.26139653 -0.37030620
v -0.01743194 0.26139653 -0.36841858
v -0.00590444 0.21266156 -0.36824163
v 0.00540977 0.16395975 -0.36765171
v 0.02934703 0.05220086 -0.36765171
v 0.05307099 -0.05919335 -0.36735680
v 0.05479672 -0.06529351 -0.36234274
v 0.03045227 -0.06529351 -0.34830343
v -0.03709364 0.24922935 -0.34830343
v 0.02902709 -0.05932597 -0.34830343
v 0.02759221 -0.05329212 -0.33609274
v 0.02529447 -0.04311413 -0.33609274
v -0.03387487 0.23702904 -0.36051408
v -0.03615322 0.24922935 -0.36051408
v -0.03343858 0.26915435 -0.36794667
v -0.03505767 0.27038102 -0.36051408
v -0.03915870 0.26139653 -0.34830343
v -0.02544011 0.26971795 -0.36835958
v -0.01845962 0.26878966 -0.36759275
v -0.00679639 0.22194440 -0.36735680
v 0.00471172 0.17075612 -0.36682588
v 0.04070971 0.00028320 -0.36688488
v 0.05490337 -0.06529351 -0.36051408
v 0.03045227 -0.06529351 -0.34500003
v 0.02903679 -0.05939227 -0.33609274
v -0.03718090 0.24922935 -0.33609274
v 0.02760191 -0.05319266 -0.32388210
v 0.02530416 -0.04311413 -0.32388210
v 0.02269617 -0.03091381 -0.32388210
v -0.02544011 0.27263541 -0.36051408
v -0.03563937 0.27067939 -0.34830343
v -0.02544011 0.27323216 -0.34830343
v -0.03713243 0.24922935 -0.32388210
v -0.03910054 0.26139653 -0.33609274
v -0.03327377 0.26968480 0.23037603
v -0.01773249 0.26975111 -0.36051408
v -0.01504694 0.26139653 -0.36051408
v 0.02843569 0.05989236 -0.36051408
v -0.01463974 0.26139653 -0.34830343
v 0.00472142 0.19509044 0.15262889
v 0.01703422 0.13568021 0.12820756
v 0.04521794 0.00562084 0.23037603
v 0.05988666 -0.06529351 0.23037603
v 0.03050075 -0.06529351 -0.33609274
v 0.02906587 -0.05929281 -0.32388210
v 0.03652142 -0.06529351 0.20153055
v -0.00132834 0.09089045 0.00604190
v -0.00145438 0.09089045 -0.00622776
v -0.02544011 0.27339793 0.23037603
v -0.01747072 0.27004948 -0.34830343
v -0.01885712 0.27197237 0.23037603
v -0.01519236 0.27117669 0.23037603
v -0.03550364 0.24922935 -0.15281476
v -0.03395242 0.26139653 0.23037603
v -0.03372944 0.26434714 0.23037603
v -0.00936560 0.26139653 0.21374124
v -0.00747505 0.25509746 0.23037603
v -0.00749444 0.25499800 0.22595189
v -0.00674791 0.25171584 0.23037603
v -0.00524517 0.24468741 0.23037603
v 0.01708270 0.13591227 0.14041823
v 0.03702557 -0.06529351 0.23037603
v 0.03052014 -0.06529351 -0.33284839
v 0.03058800 -0.06529351 -0.32388210
v 0.03669593 -0.06529351 0.21374124
v 0.03424307 -0.05528129 0.20153055
v -0.00097931 0.09089045 0.03046324
v -0.03276962 0.25576052 0.23037603
v -0.03275023 0.24962719 0.12820756
v -0.03476681 0.24922935 -0.07949177
v -0.00925895 0.26139653 0.22595189
v -0.00912322 0.26099870 0.23037603
v -0.00846395 0.25867798 0.23037603
v 0.03697709 -0.06529351 0.22819346
v 0.03654081 -0.06313857 0.23037603
v 0.03444666 -0.05528129 0.21374124
v 0.03692862 -0.06529351 0.22595189
v 0.01318526 0.04215548 0.23037603
v 0.01224483 0.04649854 0.23037603
v 0.01054819 0.05435580 0.23037603
v -0.00828944 0.14174722 0.23037603
v -0.03212005 0.25267728 0.23037603
v 0.03478599 -0.05528129 0.23037603
v 0.03468904 -0.05528129 0.22595189
f 546 547 548
f 546 548 549
f 546 549 560
f 546 560 576
f 546 576 592
f 546 592 608
f 546 608 628
f 546 628 647
f 546 647 659
f 546 659 662
f 546 662 650
f 546 650 631
f 546 631 649
f 546 649 648
f 546 648 629
f 546 629 609
f 546 609 593
f 546 593 577
f 546 577 561
f 546 561 550
f 546 550 547
f 547 551 548
f 547 550 552
f 547 552 553
f 547 553 551
f 548 554 555
f 548 555 556
f 548 556 549
f 548 551 554
f 549 556 557
f 549 557 558
f 549 558 559
f 549 559 560
f 550 561 562
f 550 562 563
f 550 563 552
f 551 564 554
f 551 553 565
f 551 565 564
f 552 563 566
f 552 566 553
f 553 566 567
f 553 567 565
f 554 564 568
f 554 568 569
f 554 569 555
f 555 569 570
f 555 570 571
f 555 571 557
f 555 557 556
f 557 571 558
f 558 571 572
f 558 572 573
f 558 573 574
f 558 574 575
f 558 575 576
f 558 576 560
f 558 560 559
f 561 577 562
f 562 577 578
f 562 578 579
f 562 579 580
f 562 580 581
f 562 581 582
f 562 582 566
f 562 566 563
f 564 565 568
f 565 583 568
f 565 567 584
f 565 584 585
f 565 585 583
f 566 582 581
f 566 581 584
f 566 584 567
f 568 586 569
f 568 583 586
f 569 586 587
f 569 587 570
f 570 587 571
f 571 587 572
f 572 587 588
f 572 588 573
f 573 588 574
f 574 589 590
f 574 590 575
f 574 588 589
f 575 590 576
f 576 590 591
f 576 591 592
f 577 593 578
f 578 593 579
f 579 594 580
f 579 593 595
f 579 595 596
f 579 596 597
f 579 597 594
f 580 594 598
f 580 598 581
f 581 598 599
f 581 599 585
f 581 585 584
f 583 600 586
f 583 585 600
f 585 601 600
f 585 599 602
f 585 602 601
f 586 600 603
f 586 603 604
f 586 604 587
f 587 604 605
f 587 605 588
f 588 605 589
f 589 605 606
f 589 606 590
f 590 606 591
f 591 606 607
f 591 607 592
f 592 607 608
f 593 609 610
f 593 610 595
f 594 602 599
f 594 599 598
f 594 597 611
f 594 611 602
f 595 610 596
f 596 610 612
f 596 612 613
f 596 613 597
f 597 613 614
f 597 614 611
f 600 601 615
f 600 615 603
f 601 602 616
f 601 616 617
f 601 617 615
f 602 611 618
f 602 618 619
f 602 619 620
f 602 620 616
f 603 615 604
f 604 615 621
f 604 621 622
f 604 622 605
f 605 622 606
f 606 623 608
f 606 608 607
f 606 622 624
f 606 624 625
f 606 625 623
f 608 623 625
f 608 625 626
f 608 626 627
f 608 627 628
f 609 629 630
f 609 630 610
f 610 630 612
f 611 614 618
f 612 630 631
f 612 631 613
f 613 631 632
f 613 632 633
f 613 633 614
f 614 633 618
f 615 617 621
f 616 620 634
f 616 634 617
f 617 635 621
f 617 634 636
f 617 636 637
f 617 637 635
f 618 633 638
f 618 638 639
f 618 639 619
f 619 639 640
f 619 640 620
f 620 640 639
f 620 639 653
f 620 653 667
f 620 667 666
f 620 666 665
f 620 665 664
f 620 664 663
f 620 663 668
f 620 668 660
f 620 660 647
f 620 647 628
f 620 628 627
f 620 627 645
f 620 645 644
f 620 644 642
f 620 642 658
f 620 658 657
f 620 657 637
f 620 637 636
f 620 636 634
f 621 635 624
f 621 624 622
f 624 635 641
f 624 641 642
f 624 642 643
f 624 643 625
f 625 643 642
f 625 642 644
f 625 644 645
f 625 645 627
f 625 627 646
f 625 646 626
f 626 646 627
f 629 648 630
f 630 648 649
f 630 649 631
f 631 650 651
f 631 651 632
f 632 652 653
f 632 653 639
f 632 639 654
f 632 654 633
f 632 651 652
f 633 654 655
f 633 655 638
f 635 637 656
f 635 656 641
f 637 657 656
f 638 655 639
f 639 655 654
f 641 656 658
f 641 658 642
f 647 660 659
f 650 661 651
f 650 662 661
f 651 661 652
f 652 661 663
f 652 663 664
f 652 664 665
f 652 665 666
f 652 666 667
f 652 667 653
f 656 657 658
f 659 660 662
f 660 668 669
f 660 669 662
f 661 662 669
f 661 669 663
f 663 669 668

o geometry_6
v 0.04467890 -0.14058321 0.05733980
v 0.04467890 -0.15304408 0.05436010
v 0.04467890 -0.13097223 0.05454771
v -0.00961318 -0.14058321 0.05385245
v -0.00961318 -0.15013499 0.05253917
v 0.04467890 -0.15426606 0.05295853
v -0.00961318 -0.15308636 0.05179976
v -0.00961318 -0.15958529 0.04875385
v -0.00961318 -0.16457895 0.04390907
v 0.04467890 -0.12930204 0.05399591
v -0.00143429 -0.13151345 0.05155697
v -0.00961318 -0.13769104 0.05299164
v 0.04467890 -0.15613498 0.04947118
v -0.00961318 -0.16489184 0.04340142
v 0.04467890 -0.12614771 0.04269512
v 0.01056566 -0.12723862 0.04269512
v -0.00143429 -0.12792360 0.04269512
v -0.00961318 -0.13212656 0.05111553
v 0.04467890 -0.15855782 0.04446087
v 0.04467890 -0.15970792 0.04160256
v -0.00961318 -0.16870156 0.03056664
v 0.01056566 -0.12654940 0.03047835
v 0.04467890 -0.12552615 -0.03061654
v -0.00961318 -0.12933587 0.04269512
v -0.00961318 -0.13098491 0.04829033
v -0.00143429 -0.12728513 0.03047835
v 0.04467890 -0.15982631 0.04013479
v -0.00961318 -0.16871847 0.03047835
v -0.00143429 -0.12724708 0.01826158
v 0.01056566 -0.12637605 -0.03061654
v 0.04467890 -0.12558535 -0.04283331
v -0.00961318 -0.12913291 0.03879944
v -0.00961318 -0.12889612 0.03047835
v 0.04467890 -0.16034640 0.03047835
v -0.00961318 -0.16801234 -0.00565327
v 0.04467890 -0.16111172 -0.03061654
v 0.04467890 -0.16123434 -0.01838873
v 0.04467890 -0.16113709 -0.00617196
v -0.00961318 -0.12888767 0.02658267
v -0.00143429 -0.12718365 -0.01838873
v 0.01056566 -0.12755997 -0.04283331
v -0.00143429 -0.12831261 -0.04283331
v -0.00143429 -0.12716251 -0.03061654
v 0.04467890 -0.12892150 -0.05306361
v -0.00961318 -0.16799966 -0.00617196
v -0.00961318 -0.16768253 -0.01838873
v -0.00961318 -0.16719205 -0.02966745
v -0.00961318 -0.16714554 -0.03061654
v 0.04467890 -0.16095950 -0.03181945
v -0.00961318 -0.16770367 -0.01766036
v -0.00961318 -0.12882846 -0.02229545
v 0.04467890 -0.12932318 -0.05401270
v -0.00143429 -0.13197857 -0.05108818
v -0.00961318 -0.13261705 -0.05061364
v -0.00961318 -0.12978407 -0.04283331
v -0.00961318 -0.12882424 -0.03061654
v -0.00961318 -0.16362334 -0.04198354
v 0.04467890 -0.15992779 -0.03863966
v 0.04467890 -0.13855362 -0.05518251
v -0.00961318 -0.14058321 -0.05203727
v -0.00961318 -0.15657473 -0.04691660
v 0.04467890 -0.14865930 -0.05114336
v 0.04467890 -0.15475232 -0.04475356
v 0.04467890 -0.15912018 -0.03959978
v 0.04467890 -0.14035488 -0.05540323
v -0.00961318 -0.15150496 -0.05045913
f 670 671 675
f 670 675 682
f 670 682 688
f 670 688 689
f 670 689 696
f 670 696 703
f 670 703 707
f 670 707 706
f 670 706 705
f 670 705 718
f 670 718 727
f 670 727 733
f 670 733 732
f 670 732 731
f 670 731 734
f 670 734 728
f 670 728 721
f 670 721 713
f 670 713 700
f 670 700 692
f 670 692 684
f 670 684 679
f 670 679 672
f 670 672 673
f 670 673 674
f 670 674 671
f 671 674 676
f 671 676 677
f 671 677 678
f 671 678 675
f 672 679 680
f 672 680 681
f 672 681 673
f 673 681 687
f 673 687 694
f 673 694 693
f 673 693 701
f 673 701 702
f 673 702 708
f 673 708 720
f 673 720 725
f 673 725 724
f 673 724 723
f 673 723 729
f 673 729 735
f 673 735 730
f 673 730 726
f 673 726 717
f 673 717 716
f 673 716 715
f 673 715 719
f 673 719 714
f 673 714 704
f 673 704 697
f 673 697 690
f 673 690 683
f 673 683 678
f 673 678 677
f 673 677 676
f 673 676 674
f 675 678 683
f 675 683 682
f 679 684 685
f 679 685 686
f 679 686 680
f 680 687 681
f 680 686 687
f 682 683 688
f 683 689 688
f 683 690 689
f 684 691 685
f 684 692 691
f 685 691 686
f 686 693 694
f 686 694 687
f 686 691 695
f 686 695 693
f 689 690 697
f 689 697 696
f 691 698 695
f 691 692 699
f 691 699 698
f 692 700 699
f 693 695 701
f 695 698 702
f 695 702 701
f 696 697 703
f 697 704 705
f 697 705 706
f 697 706 707
f 697 707 703
f 698 708 702
f 698 699 709
f 698 709 708
f 699 700 710
f 699 710 711
f 699 711 712
f 699 712 709
f 700 713 710
f 704 714 705
f 705 715 716
f 705 716 717
f 705 717 718
f 705 714 719
f 705 719 715
f 708 709 712
f 708 712 720
f 710 713 711
f 711 713 721
f 711 721 722
f 711 722 723
f 711 723 724
f 711 724 712
f 712 724 725
f 712 725 720
f 717 726 727
f 717 727 718
f 721 728 729
f 721 729 723
f 721 723 722
f 726 730 731
f 726 731 732
f 726 732 733
f 726 733 727
f 728 734 729
f 729 734 735
f 730 735 731
f 731 735 734

