# https://github.com/mikedh/trimesh

o geometry_0
v -0.06649898 -0.02448049 0.21206027
v -0.06013297 -0.02410827 0.21206027
v -0.06110638 -0.02361675 0.21694189
v -0.06649898 -0.02360721 0.21698975
v -0.07058914 -0.02317295 0.21641544
v -0.07075366 -0.02333520 0.21206027
v -0.07079479 -0.02339724 -0.22292977
v -0.07079479 -0.02339724 -0.22594490
v -0.06670006 -0.02402715 -0.22843355
v -0.06058540 -0.02396988 -0.22819426
v -0.03576112 -0.01547087 0.01191412
v -0.03576112 -0.01464054 0.21986129
v -0.03576112 -0.01458804 0.22790159
v -0.03576112 -0.01458327 0.22809302
v -0.03576112 -0.01428740 0.23608547
v -0.03576112 -0.01548041 -0.01225465
v -0.03576112 -0.01548041 -0.00402291
v -0.05876653 -0.01423968 0.23608547
v -0.06649898 -0.01421105 0.23608547
v -0.07423601 -0.01330436 0.23608547
v -0.07866434 -0.00919086 0.24067995
v -0.07960576 -0.01036001 0.23608547
v -0.08028669 -0.01115694 0.22809302
v -0.07746243 -0.01503661 0.21206027
v -0.06941465 -0.02261462 -0.23130510
v -0.08021358 -0.01117603 -0.22020181
v -0.08023185 -0.01110922 -0.22819426
v -0.07961034 -0.01042682 -0.23618671
v -0.06425511 -0.02332566 -0.23259728
v -0.06182844 -0.02332566 -0.23259728
v -0.03576112 -0.01446397 -0.23618671
v -0.03576112 -0.01465008 -0.22843355
v -0.03576112 -0.01465485 -0.22819426
v -0.03576112 -0.01545655 -0.02024710
v -0.03576112 -0.01116171 0.24230716
v -0.05876653 -0.01113785 0.24225929
v -0.06649898 -0.01110445 0.24225929
v -0.07423601 -0.01035524 0.24158925
v -0.07423601 -0.00462878 0.24273784
v -0.07872832 -0.00462878 0.24072777
v -0.08088080 -0.00462878 0.23608547
v -0.08243917 -0.00462878 0.22809302
v -0.08029127 -0.01129533 0.22010058
v -0.08028213 -0.01136691 0.21206027
v -0.07869176 -0.00930539 -0.24082904
v -0.07423601 -0.01047931 -0.24169051
v -0.08236147 -0.00462878 -0.22819426
v -0.08107731 -0.00462878 -0.23618671
v -0.06649898 -0.01490300 -0.23939326
v -0.05876653 -0.01128101 -0.24236050
v -0.05876653 -0.01494595 -0.23939326
v -0.03576112 -0.01128101 -0.24236050
v -0.03576112 -0.01437807 -0.23637814
v -0.03576112 -0.00462878 0.24441292
v -0.05876653 -0.00462878 0.24436505
v -0.06649898 -0.00462878 0.24422149
v -0.07423601 0.00027688 0.24125425
v -0.07837643 -0.00062981 0.24039278
v -0.07937726 0.00037232 0.23608547
v -0.08244373 -0.00462878 0.22010058
v -0.08025927 0.00184211 0.22809302
v -0.08091735 0.00270108 0.21206027
v -0.08112301 0.00270108 0.09997460
v -0.08136979 0.00270108 -0.22020181
v -0.07894311 -0.00462878 -0.24106834
v -0.07423601 -0.00462878 -0.24312629
v -0.06649898 -0.00462878 -0.24437057
v -0.06649898 -0.01123329 -0.24231268
v -0.08127839 0.00270108 -0.22819426
v -0.07964232 0.00284901 -0.23637814
v -0.07863692 0.00050117 -0.24078116
v -0.03576112 -0.01110445 -0.24245624
v -0.05876653 -0.00462878 -0.24446631
v -0.03576112 -0.00462878 -0.24451419
v -0.04329249 0.00110244 0.24221142
v -0.05102951 0.00109767 0.24221142
v -0.03576112 0.00109290 0.24221142
v -0.05876653 0.00108813 0.24216354
v -0.06649898 0.00104995 0.24211573
v -0.05876653 0.02025266 0.22345071
v -0.07048403 0.01381040 0.22416860
v -0.06371128 0.02188948 0.21823408
v -0.07129292 0.01460256 0.22010058
v -0.07789202 0.00621808 0.22354642
v -0.07855466 0.00702933 0.21823408
v -0.08009932 0.00334531 0.22057917
v -0.07878316 0.00735860 0.21206027
v -0.07896596 0.00756857 0.09997460
v -0.07917161 0.00783580 -0.06805819
v -0.07924930 0.00829392 -0.22020181
v -0.07398923 0.00284901 -0.24149908
v -0.06649898 0.00270108 -0.24264767
v -0.07914419 0.00808872 -0.22819426
v -0.07871461 0.00733951 -0.23384163
v -0.07640676 0.00539251 -0.23920183
v -0.05876653 0.00270108 -0.24274336
v -0.03576112 0.00270108 -0.24264767
v -0.03576112 0.01158186 0.22010058
v -0.05324596 0.02223306 0.21842551
v -0.05876653 0.02257188 0.21943055
v -0.05876653 0.02418006 0.21206027
v -0.06426882 0.02232851 0.21206027
v -0.06813962 0.01903579 0.21206027
v -0.07562072 0.00969690 0.22057917
v -0.07205612 0.01536609 0.21206027
v -0.07592233 0.01102830 0.21206027
v -0.07699629 0.01195885 -0.22020181
v -0.07124722 0.00662847 -0.24044617
v -0.06649898 0.00681458 -0.24058973
v -0.07663983 0.01175842 -0.22819426
v -0.07277360 0.01612962 -0.22819426
v -0.07170422 0.01491275 -0.23321946
v -0.05876653 0.00687185 -0.24063760
v -0.03576112 0.00280607 -0.24259980
v -0.03576112 0.01261739 0.21234742
v -0.05232739 0.02289161 0.21206027
v -0.05876653 0.02427073 0.20406783
v -0.06431909 0.02235714 0.20406783
v -0.06818988 0.01906920 0.20406783
v -0.06822188 0.01909783 0.19607538
v -0.06935067 0.02035765 -0.22020181
v -0.07312549 0.01668795 -0.22020181
v -0.06649898 0.01626801 -0.23393734
v -0.05876653 0.02068215 -0.23173582
v -0.05876653 0.01701722 -0.23412878
v -0.06687373 0.01990431 -0.22881643
v -0.03576112 0.00673823 -0.24054186
v -0.03576112 0.01264602 0.21206027
v -0.05220400 0.02295364 0.20406783
v -0.05876653 0.02418006 -0.21220937
v -0.06540675 0.02250984 -0.21220937
v -0.05189781 0.02294887 0.14802499
v -0.05102951 0.02277231 -0.00402291
v -0.06547988 0.02243826 -0.22020181
v -0.06454302 0.02192288 -0.22656705
v -0.05876653 0.02242872 -0.22776354
v -0.05260160 0.02200878 -0.22656705
v -0.05042627 0.02011428 -0.22881643
v -0.03576112 0.01017888 -0.23618671
v -0.03576112 0.00685276 -0.24039830
v -0.03576112 0.01273669 0.20440284
v -0.03576112 0.01316141 0.16439275
v -0.03576112 0.01418262 0.02794687
v -0.04716786 0.02104005 0.03053126
v -0.05128086 0.02270550 -0.21220937
v -0.05135398 0.02259097 -0.22020181
v -0.05876653 0.02398918 -0.22020181
v -0.04714044 0.02105914 -0.00967027
v -0.03576112 0.01352885 -0.22977361
v -0.04748776 0.02085394 -0.22020181
v -0.03576112 0.01030772 -0.23594741
v -0.03576112 0.01413968 -0.15616653
v -0.04741007 0.02088735 -0.21220937
v -0.03576112 0.01387721 -0.22565773
v -0.03576112 0.01398220 -0.22020181
v -0.03576112 0.01401560 -0.21220937
f 1 2 3
f 1 3 4
f 1 4 5
f 1 5 6
f 1 6 7
f 1 7 8
f 1 8 9
f 1 9 10
f 1 10 2
f 2 11 12
f 2 12 13
f 2 13 14
f 2 14 15
f 2 15 3
f 2 10 16
f 2 16 17
f 2 17 11
f 3 15 4
f 4 15 18
f 4 18 19
f 4 19 20
f 4 20 5
f 5 20 21
f 5 21 22
f 5 22 23
f 5 23 6
f 6 23 24
f 6 24 7
f 7 24 8
f 8 25 9
f 8 24 26
f 8 26 27
f 8 27 28
f 8 28 25
f 9 25 29
f 9 29 30
f 9 30 10
f 10 30 31
f 10 31 32
f 10 32 33
f 10 33 34
f 10 34 16
f 11 17 16
f 11 16 34
f 11 34 33
f 11 33 32
f 11 32 31
f 11 31 53
f 11 53 52
f 11 52 72
f 11 72 74
f 11 74 97
f 11 97 114
f 11 114 127
f 11 127 140
f 11 140 139
f 11 139 151
f 11 151 149
f 11 149 154
f 11 154 155
f 11 155 156
f 11 156 152
f 11 152 143
f 11 143 142
f 11 142 141
f 11 141 128
f 11 128 115
f 11 115 98
f 11 98 77
f 11 77 54
f 11 54 35
f 11 35 15
f 11 15 14
f 11 14 13
f 11 13 12
f 15 35 18
f 18 35 36
f 18 36 19
f 19 36 37
f 19 37 20
f 20 37 38
f 20 38 21
f 21 38 39
f 21 39 40
f 21 40 41
f 21 41 22
f 22 41 42
f 22 42 23
f 23 42 43
f 23 43 24
f 24 43 44
f 24 44 26
f 25 28 45
f 25 45 46
f 25 46 29
f 26 47 27
f 26 44 47
f 27 47 28
f 28 48 45
f 28 47 48
f 29 46 49
f 29 49 50
f 29 50 51
f 29 51 30
f 30 51 52
f 30 52 53
f 30 53 31
f 35 54 55
f 35 55 37
f 35 37 36
f 37 55 56
f 37 56 38
f 38 56 39
f 39 56 57
f 39 57 58
f 39 58 40
f 40 58 41
f 41 58 59
f 41 59 42
f 42 60 44
f 42 44 43
f 42 59 61
f 42 61 62
f 42 62 63
f 42 63 64
f 42 64 60
f 44 60 47
f 45 48 65
f 45 65 66
f 45 66 46
f 46 66 67
f 46 67 68
f 46 68 49
f 47 64 69
f 47 69 48
f 47 60 64
f 48 70 71
f 48 71 65
f 48 69 70
f 49 68 50
f 50 72 52
f 50 52 51
f 50 68 73
f 50 73 74
f 50 74 72
f 54 75 76
f 54 76 55
f 54 77 75
f 55 76 78
f 55 78 79
f 55 79 56
f 56 79 57
f 57 79 80
f 57 80 58
f 58 81 59
f 58 80 82
f 58 82 81
f 59 81 83
f 59 83 84
f 59 84 61
f 61 84 85
f 61 85 86
f 61 86 62
f 62 86 87
f 62 87 88
f 62 88 89
f 62 89 90
f 62 90 63
f 63 90 64
f 64 90 69
f 65 71 66
f 66 71 91
f 66 91 67
f 67 91 92
f 67 92 96
f 67 96 73
f 67 73 68
f 69 93 94
f 69 94 70
f 69 90 93
f 70 94 71
f 71 94 95
f 71 95 91
f 73 96 74
f 74 96 97
f 75 80 76
f 75 77 80
f 76 80 78
f 77 98 99
f 77 99 80
f 78 80 79
f 80 100 82
f 80 99 100
f 81 82 83
f 82 100 101
f 82 101 102
f 82 102 103
f 82 103 83
f 83 104 84
f 83 103 105
f 83 105 85
f 83 85 104
f 84 104 85
f 85 105 106
f 85 106 87
f 85 87 86
f 87 106 107
f 87 107 88
f 88 107 90
f 88 90 89
f 90 107 93
f 91 95 108
f 91 108 92
f 92 108 109
f 92 109 96
f 93 110 94
f 93 107 110
f 94 110 111
f 94 111 112
f 94 112 95
f 95 112 108
f 96 109 113
f 96 113 114
f 96 114 97
f 98 115 116
f 98 116 99
f 99 116 101
f 99 101 100
f 101 116 117
f 101 117 102
f 102 117 118
f 102 118 119
f 102 119 103
f 103 119 105
f 105 119 120
f 105 120 121
f 105 121 122
f 105 122 106
f 106 122 107
f 107 122 110
f 108 112 123
f 108 123 124
f 108 124 109
f 109 124 125
f 109 125 113
f 110 122 111
f 111 126 112
f 111 122 121
f 111 121 126
f 112 126 123
f 113 127 114
f 113 125 127
f 115 128 116
f 116 128 129
f 116 129 117
f 117 130 131
f 117 131 118
f 117 129 132
f 117 132 133
f 117 133 130
f 118 120 119
f 118 131 121
f 118 121 120
f 121 131 134
f 121 134 135
f 121 135 126
f 123 126 124
f 124 126 135
f 124 135 136
f 124 136 137
f 124 137 138
f 124 138 139
f 124 139 140
f 124 140 127
f 124 127 125
f 128 141 129
f 129 141 142
f 129 142 143
f 129 143 144
f 129 144 132
f 130 145 146
f 130 146 147
f 130 147 134
f 130 134 131
f 130 133 145
f 132 144 133
f 133 144 148
f 133 148 145
f 134 147 135
f 135 147 136
f 136 147 137
f 137 149 138
f 137 147 146
f 137 146 150
f 137 150 149
f 138 149 151
f 138 151 139
f 143 152 148
f 143 148 144
f 145 148 153
f 145 153 150
f 145 150 146
f 148 152 153
f 149 150 154
f 150 153 155
f 150 155 154
f 152 156 153
f 153 156 155

o geometry_1
v 0.03765099 -0.00462859 0.22924168
v 0.03765099 -0.01144382 0.22665722
v 0.03765099 -0.00124073 0.22861949
v -0.02008128 -0.00462859 0.24264253
v -0.02008128 -0.01003094 0.24135028
v -0.02781341 -0.01111870 0.24225963
v 0.03765099 -0.01488637 0.22033968
v 0.03765099 0.00301612 0.22727941
v -0.02008128 0.00033318 0.24139816
v -0.02781341 -0.00462859 0.24431763
v -0.03555272 -0.00462859 0.24441335
v -0.03555272 -0.01116124 0.24230751
v -0.02781341 -0.01422703 0.23608567
v 0.03765099 -0.01520844 0.21205987
v -0.03555272 -0.01428780 0.23608567
v 0.03765099 0.00753732 0.22502997
v -0.02781341 0.00105937 0.24216392
v -0.03555272 0.00109583 0.24221179
v -0.03576112 0.00109583 0.24221179
v -0.03576112 -0.00462859 0.24436548
v -0.03576112 -0.00480482 0.24431763
v -0.03576112 -0.01116124 0.24230751
v -0.03576112 -0.01428780 0.23608567
v -0.03555272 -0.01458860 0.22809302
v -0.03576112 -0.01458860 0.22790159
v -0.03576112 -0.01464025 0.22010038
v -0.03555272 -0.01547583 0.01190863
v -0.00279178 -0.01564598 0.01731683
v 0.03765099 -0.01583132 0.01994914
v 0.03765099 0.00845189 0.22340274
v 0.01860092 0.01129587 0.22010038
v 0.01086161 0.01143260 0.22010038
v -0.02008128 0.01195521 0.22010038
v -0.02781341 0.01194306 0.22010038
v -0.03576112 0.01158149 0.22010038
v -0.03576112 -0.01458556 0.22809302
v -0.03576112 -0.01547279 0.01190863
v -0.03576112 -0.01547887 -0.00402881
v -0.03555272 -0.01547887 0.00391598
v 0.01086161 -0.01572802 0.01190863
v 0.01860092 -0.01576448 0.01190863
v 0.03765099 -0.01585259 0.01190863
v 0.03765099 0.00966727 0.22038754
v 0.03765099 0.01120472 0.21205987
v 0.01860092 0.01275432 0.21205987
v 0.01086161 0.01279079 0.21205987
v -0.02008128 0.01287890 0.21205987
v -0.03576112 0.01262063 0.21234704
v -0.02781341 0.01286067 0.21205987
v -0.03576112 -0.01547887 -0.01226076
v -0.03555272 -0.01548190 -0.01202146
v -0.02781341 -0.01552444 -0.01202146
v 0.00312229 -0.01567636 -0.01202146
v 0.01860092 -0.01574321 -0.01202146
v 0.03407237 -0.01580702 -0.01202146
v 0.03765099 -0.01581917 -0.01202146
v 0.03765099 0.01324655 0.12399715
v 0.03765099 0.01330428 0.12031191
v 0.01860092 0.01286371 0.20406721
v 0.01086161 0.01290321 0.20406721
v -0.02781341 0.01432520 0.08398605
v -0.03576112 0.01264494 0.21205987
v -0.03576112 0.01273609 0.20440223
v -0.03576112 -0.01545759 -0.02006197
v -0.02781341 -0.01550317 -0.02006197
v -0.02008128 -0.01554571 -0.02006197
v -0.00229595 -0.01563990 -0.01781254
v 0.01860092 -0.01572194 -0.02006197
v 0.02633305 -0.01575232 -0.02006197
v 0.03407237 -0.01578271 -0.02006197
v 0.03765099 -0.01512944 -0.22820586
v 0.03765099 0.01333163 0.11600450
v -0.02008128 0.01426139 0.08398605
v -0.02008128 0.01506050 -0.04403992
v -0.02781341 0.01437381 0.07599339
v -0.03362688 0.01403047 0.07599339
v -0.03356220 0.01397578 0.08398605
v -0.03576112 0.01315844 0.16443899
v -0.03576112 -0.01465848 -0.22820586
v 0.03765099 -0.01510210 -0.22988096
v 0.03765099 0.01348963 0.04397494
v 0.03519338 0.01362332 0.04397494
v 0.03109736 0.01373574 0.05029249
v -0.02008128 0.01518811 -0.08409888
v -0.02781341 0.01502100 -0.04403992
v -0.03576112 0.01418239 0.02794178
v -0.03576112 0.01316147 0.16405611
v -0.03576112 -0.01446403 -0.23619850
v 0.03765099 -0.01484687 -0.23648567
v 0.03765099 0.01338024 -0.02805462
v 0.03485564 0.01360205 -0.02805462
v 0.03132732 0.01373878 0.04397494
v 0.03111174 0.01373574 -0.03279277
v 0.01860092 0.01413378 -0.08409888
v 0.01086161 0.01438293 -0.05208042
v -0.02781341 0.01514558 -0.08409888
v 0.01558281 0.01379651 -0.22820586
v 0.01086161 0.01387855 -0.22820586
v -0.02008128 0.01401224 -0.22820586
v -0.03576112 0.01413985 -0.15612844
v -0.03576112 -0.01437895 -0.23638995
v -0.03576112 -0.01128278 -0.24237247
v 0.03765099 -0.01319700 -0.23959658
v 0.03765099 0.01299436 -0.22820586
v -0.03576112 0.01398185 -0.22021321
v -0.03576112 0.01401528 -0.21217271
v 0.01527381 0.01376309 -0.23232183
v 0.01086161 0.01379955 -0.23241755
v -0.02008128 0.01384512 -0.23251328
v -0.02617500 0.01378132 -0.23236969
v -0.03576112 0.01387855 -0.22566927
v -0.03576112 -0.00462859 -0.24447831
v 0.00312229 -0.00462859 -0.24452618
v 0.03765099 -0.01140432 -0.24237247
v 0.03765099 0.01186710 -0.23165179
v 0.03765099 0.01024761 -0.23595921
v 0.03765099 0.00661667 -0.24041021
v 0.01086161 0.01051803 -0.23643781
v -0.02008128 0.01058488 -0.23653352
v -0.02838110 0.01118345 -0.23552846
v -0.03133455 0.01369320 -0.23112533
v -0.03576112 0.01017773 -0.23619850
v -0.03576112 0.01352913 -0.22978525
v -0.03576112 -0.00443413 -0.24443047
v -0.02781341 0.00270316 -0.24275536
v -0.02008128 0.00270316 -0.24275536
v 0.03765099 -0.00462859 -0.24447831
v 0.03765099 -0.00776730 -0.24352112
v 0.03765099 0.00270316 -0.24251605
v 0.01860092 0.00677163 -0.24055380
v 0.01086161 0.00685063 -0.24060164
v -0.02008128 0.00691748 -0.24064951
v -0.02781341 0.00689317 -0.24064951
v -0.03576112 0.00673821 -0.24055380
v -0.03576112 0.00685367 -0.24041021
v -0.03576112 0.00270316 -0.24265964
v -0.03576112 0.00280951 -0.24261177
v 0.01086161 0.00270316 -0.24270749
v 0.03765099 -0.00068470 -0.24342540
v 0.01860092 0.00270316 -0.24265964
f 157 158 163
f 157 163 170
f 157 170 185
f 157 185 198
f 157 198 212
f 157 212 227
f 157 227 236
f 157 236 245
f 157 245 259
f 157 259 270
f 157 270 284
f 157 284 283
f 157 283 295
f 157 295 285
f 157 285 273
f 157 273 272
f 157 272 271
f 157 271 260
f 157 260 246
f 157 246 237
f 157 237 228
f 157 228 214
f 157 214 213
f 157 213 200
f 157 200 199
f 157 199 186
f 157 186 172
f 157 172 164
f 157 164 159
f 157 159 160
f 157 160 161
f 157 161 158
f 158 161 162
f 158 162 163
f 159 164 165
f 159 165 160
f 160 165 166
f 160 166 161
f 161 166 162
f 162 166 167
f 162 167 168
f 162 168 169
f 162 169 163
f 163 169 171
f 163 171 170
f 164 172 165
f 165 173 166
f 165 172 173
f 166 173 167
f 167 173 174
f 167 174 175
f 167 175 176
f 167 176 177
f 167 177 178
f 167 178 168
f 168 178 179
f 168 179 171
f 168 171 169
f 170 171 179
f 170 179 180
f 170 180 181
f 170 181 182
f 170 182 183
f 170 183 184
f 170 184 185
f 172 186 187
f 172 187 173
f 173 187 188
f 173 188 189
f 173 189 174
f 174 189 175
f 175 189 190
f 175 190 191
f 175 191 204
f 175 204 218
f 175 218 219
f 175 219 234
f 175 234 243
f 175 243 242
f 175 242 256
f 175 256 262
f 175 262 261
f 175 261 267
f 175 267 279
f 175 279 278
f 175 278 291
f 175 291 290
f 175 290 293
f 175 293 292
f 175 292 280
f 175 280 268
f 175 268 258
f 175 258 257
f 175 257 244
f 175 244 235
f 175 235 220
f 175 220 206
f 175 206 194
f 175 194 193
f 175 193 182
f 175 182 181
f 175 181 192
f 175 192 179
f 175 179 178
f 175 178 177
f 175 177 176
f 179 192 180
f 180 192 181
f 182 193 183
f 183 193 194
f 183 194 195
f 183 195 196
f 183 196 184
f 184 196 185
f 185 196 197
f 185 197 198
f 186 199 187
f 187 199 200
f 187 200 201
f 187 201 188
f 188 201 189
f 189 201 202
f 189 202 203
f 189 203 190
f 190 204 191
f 190 203 205
f 190 205 204
f 194 206 207
f 194 207 195
f 195 207 208
f 195 208 196
f 196 209 197
f 196 208 209
f 197 209 198
f 198 209 210
f 198 210 211
f 198 211 212
f 200 213 201
f 201 213 214
f 201 214 215
f 201 215 216
f 201 216 202
f 202 216 203
f 203 216 217
f 203 217 205
f 204 205 218
f 205 219 218
f 205 217 219
f 206 220 207
f 207 220 221
f 207 221 222
f 207 222 208
f 208 222 223
f 208 223 209
f 209 223 210
f 210 223 224
f 210 224 211
f 211 224 225
f 211 225 226
f 211 226 212
f 212 226 227
f 214 228 229
f 214 229 215
f 215 229 217
f 215 217 216
f 217 229 230
f 217 230 231
f 217 231 232
f 217 232 233
f 217 233 234
f 217 234 219
f 220 235 227
f 220 227 221
f 221 227 222
f 222 227 223
f 223 227 224
f 224 227 225
f 225 227 226
f 227 235 236
f 228 237 238
f 228 238 239
f 228 239 230
f 228 230 229
f 230 240 241
f 230 241 231
f 230 239 240
f 231 242 232
f 231 241 242
f 232 242 243
f 232 243 233
f 233 243 234
f 235 244 236
f 236 244 245
f 237 246 247
f 237 247 238
f 238 248 239
f 238 247 249
f 238 249 250
f 238 250 251
f 238 251 248
f 239 248 251
f 239 251 240
f 240 252 241
f 240 251 250
f 240 250 253
f 240 253 254
f 240 254 255
f 240 255 252
f 241 252 242
f 242 252 256
f 244 257 245
f 245 257 258
f 245 258 259
f 246 260 247
f 247 260 250
f 247 250 249
f 250 260 253
f 252 255 261
f 252 261 262
f 252 262 256
f 253 260 263
f 253 263 254
f 254 263 264
f 254 264 255
f 255 264 265
f 255 265 266
f 255 266 267
f 255 267 261
f 258 268 269
f 258 269 270
f 258 270 259
f 260 271 263
f 263 271 272
f 263 272 264
f 264 272 273
f 264 273 274
f 264 274 275
f 264 275 265
f 265 276 266
f 265 275 276
f 266 277 267
f 266 276 278
f 266 278 277
f 267 277 279
f 268 280 281
f 268 281 269
f 269 281 282
f 269 282 283
f 269 283 284
f 269 284 270
f 273 285 286
f 273 286 287
f 273 287 274
f 274 287 275
f 275 287 288
f 275 288 289
f 275 289 290
f 275 290 276
f 276 290 291
f 276 291 278
f 277 278 279
f 280 292 281
f 281 292 293
f 281 293 289
f 281 289 288
f 281 288 282
f 282 294 283
f 282 288 294
f 283 294 296
f 283 296 295
f 285 295 296
f 285 296 287
f 285 287 286
f 287 296 294
f 287 294 288
f 289 293 290

o geometry_2
v 0.08088194 -0.00463389 -0.22822259
v 0.07877878 -0.01145840 -0.22822259
v 0.07845718 -0.01103434 -0.23622228
v 0.08022602 -0.00463389 -0.23622228
v 0.07839793 0.00183394 -0.23622228
v 0.07872801 0.00253937 -0.22822259
v 0.08067035 -0.00463389 -0.15618104
v 0.07863068 -0.01167637 -0.13130666
v 0.07868569 -0.01162881 -0.15618104
v 0.07869838 -0.01162881 -0.16418073
v 0.07873224 -0.01154559 -0.21221212
v 0.07874916 -0.01150992 -0.22021181
v 0.07477138 -0.01512825 -0.22822259
v 0.07761508 -0.00986126 -0.24124148
v 0.06249101 -0.02426327 -0.22822259
v 0.06176739 -0.02354594 -0.23276534
v 0.07808055 -0.00463389 -0.24172899
v 0.07757699 0.00043495 -0.24121932
v 0.07137756 0.00832554 -0.23481512
v 0.07649368 0.00620923 -0.22822259
v 0.07648944 0.00619734 -0.22021181
v 0.07869838 0.00253145 -0.22021181
v 0.07857990 0.00202020 -0.13215981
v 0.07857990 0.00201228 -0.13130666
v 0.07879148 0.00131477 -0.13130666
v 0.08058149 -0.00463389 -0.13130666
v 0.08037414 -0.00538292 -0.13130666
v 0.07275709 -0.01513618 -0.13130666
v 0.07868992 -0.01161296 -0.18819089
v 0.07275709 -0.01099867 -0.24203922
v 0.07275709 -0.00463389 -0.24382310
v 0.06232597 -0.02411663 -0.22159680
v 0.05729027 -0.02597930 -0.22822259
v 0.05729027 -0.02405322 -0.23323071
v 0.07275709 0.00184979 -0.24201706
v 0.06757327 0.00627660 -0.24015564
v 0.06164044 0.01380655 -0.23243295
v 0.06609218 0.01299014 -0.22822259
v 0.07262591 0.00932029 -0.22822259
v 0.07262168 0.00932029 -0.22021181
v 0.07213926 0.00919743 -0.13130666
v 0.07645559 0.00615771 -0.21221212
v 0.07600703 0.00568213 -0.13130666
v 0.06583828 -0.01515996 -0.13130666
v 0.06502156 -0.01144651 -0.24233839
v 0.06502156 -0.00463389 -0.24443247
v 0.05091310 -0.02468336 -0.22822259
v 0.05195833 -0.02383525 -0.23302018
v 0.06502156 -0.01515996 -0.13130666
v 0.03765522 -0.01497766 -0.13130666
v 0.03765522 -0.01140291 -0.24238272
v 0.05729027 -0.01930143 -0.23684275
v 0.06500463 0.00337956 -0.24195057
v 0.06241484 0.00646683 -0.24029969
v 0.05729027 0.01024370 -0.23676520
v 0.05729027 0.01397696 -0.23276534
v 0.05729027 0.01438913 -0.22822259
v 0.06222441 0.01396507 -0.22822259
v 0.06250794 0.01405622 -0.22021181
v 0.06637570 0.01299014 -0.22021181
v 0.07139025 0.00955807 -0.13130666
v 0.05729027 -0.01522733 -0.23984540
v 0.05729027 -0.01156144 -0.24236055
v 0.05729027 -0.00463389 -0.24445463
v 0.04955050 0.00270186 -0.24255998
v 0.05729027 0.00270186 -0.24248241
v 0.04704534 -0.02192898 -0.22822259
v 0.03765522 -0.01484687 -0.23649927
v 0.03765522 -0.01319425 -0.23961272
v 0.03765522 0.01075494 -0.13130666
v 0.03765522 -0.01512825 -0.22822259
v 0.03765522 -0.00463389 -0.24448787
v 0.04955050 -0.01150992 -0.24237161
v 0.05729027 0.00657780 -0.24037722
v 0.04955050 0.01034277 -0.23696462
v 0.04955050 0.01407208 -0.23296477
v 0.04955050 0.01446839 -0.22822259
v 0.05729027 0.01450802 -0.22021181
v 0.06229212 0.01399282 -0.21221212
v 0.06502156 0.01259779 -0.13130666
v 0.04181497 -0.00463389 -0.24448787
v 0.04955050 -0.00463389 -0.24447679
v 0.04181497 0.00270186 -0.24258214
v 0.04955050 0.00667292 -0.24045479
v 0.03765522 -0.01510448 -0.22991781
v 0.04181497 0.01230452 -0.13130666
v 0.03765522 0.01258987 -0.18831276
v 0.03765522 0.00270186 -0.24254889
v 0.04181497 0.00667688 -0.24046587
v 0.03765522 0.00661743 -0.24043263
v 0.04445554 0.01393733 -0.23269887
v 0.04407469 0.01404433 -0.22822259
v 0.04955050 0.01444461 -0.22021181
v 0.06144578 0.01376692 -0.19117138
v 0.06168276 0.01382240 -0.19620166
v 0.05178060 0.01373521 -0.16635240
v 0.05517442 0.01373521 -0.16635240
v 0.05729027 0.01320812 -0.13130666
v 0.04873379 0.01312093 -0.13130666
v 0.04543307 0.01375899 -0.19131541
v 0.03765522 0.01270876 -0.19620166
v 0.03765522 0.01024766 -0.23598959
v 0.03765522 0.01186462 -0.23166844
v 0.03765522 0.01299411 -0.22822259
v 0.03765522 0.01298618 -0.22488754
v 0.04444708 0.01399282 -0.22021181
v 0.04933892 0.01367576 -0.16388158
v 0.04955050 0.01321604 -0.13130666
v 0.04776473 0.01367180 -0.17219151
f 297 298 299
f 297 299 300
f 297 300 301
f 297 301 302
f 297 302 303
f 297 303 304
f 297 304 305
f 297 305 306
f 297 306 298
f 298 307 308
f 298 308 309
f 298 309 299
f 298 306 307
f 299 310 300
f 299 309 311
f 299 311 312
f 299 312 310
f 300 310 313
f 300 313 314
f 300 314 301
f 301 314 315
f 301 315 316
f 301 316 302
f 302 316 317
f 302 317 318
f 302 318 319
f 302 319 320
f 302 320 321
f 302 321 303
f 303 321 322
f 303 322 323
f 303 323 304
f 304 323 322
f 304 322 321
f 304 321 320
f 304 320 339
f 304 339 337
f 304 337 357
f 304 357 376
f 304 376 394
f 304 394 404
f 304 404 395
f 304 395 382
f 304 382 366
f 304 366 346
f 304 346 345
f 304 345 340
f 304 340 324
f 304 324 311
f 304 311 309
f 304 309 306
f 304 306 305
f 306 325 307
f 306 309 325
f 307 309 308
f 307 325 309
f 310 326 327
f 310 327 313
f 310 312 326
f 311 328 329
f 311 329 312
f 311 324 328
f 312 329 330
f 312 330 326
f 313 327 314
f 314 327 331
f 314 331 332
f 314 332 315
f 315 333 334
f 315 334 335
f 315 335 316
f 315 332 333
f 316 335 336
f 316 336 317
f 317 336 337
f 317 337 338
f 317 338 320
f 317 320 319
f 317 319 318
f 320 338 339
f 324 340 329
f 324 329 328
f 326 341 342
f 326 342 327
f 326 330 341
f 327 342 331
f 329 343 344
f 329 344 330
f 329 340 345
f 329 345 346
f 329 346 343
f 330 344 347
f 330 347 348
f 330 348 341
f 331 342 349
f 331 349 332
f 332 349 350
f 332 350 351
f 332 351 352
f 332 352 333
f 333 352 353
f 333 353 354
f 333 354 334
f 334 354 355
f 334 355 356
f 334 356 335
f 335 356 336
f 336 356 337
f 337 339 338
f 337 356 357
f 341 348 358
f 341 358 359
f 341 359 342
f 342 360 361
f 342 361 362
f 342 362 349
f 342 359 360
f 343 363 364
f 343 364 344
f 343 346 363
f 344 364 365
f 344 365 347
f 346 366 383
f 346 383 397
f 346 397 401
f 346 401 400
f 346 400 399
f 346 399 398
f 346 398 386
f 346 386 384
f 346 384 368
f 346 368 347
f 346 347 365
f 346 365 364
f 346 364 381
f 346 381 367
f 346 367 363
f 347 368 369
f 347 369 358
f 347 358 348
f 349 362 370
f 349 370 350
f 350 370 371
f 350 371 351
f 351 371 352
f 352 372 353
f 352 371 372
f 353 372 373
f 353 373 374
f 353 374 354
f 354 374 355
f 355 374 375
f 355 375 376
f 355 376 356
f 356 376 357
f 358 369 359
f 359 369 368
f 359 368 377
f 359 377 378
f 359 378 360
f 360 378 379
f 360 379 361
f 361 379 380
f 361 380 362
f 362 380 370
f 363 367 381
f 363 381 364
f 366 382 383
f 368 384 379
f 368 379 377
f 370 380 371
f 371 380 385
f 371 385 386
f 371 386 372
f 372 387 373
f 372 386 387
f 373 387 388
f 373 388 389
f 373 389 374
f 374 390 391
f 374 391 375
f 374 389 392
f 374 392 393
f 374 393 394
f 374 394 390
f 375 391 376
f 376 391 390
f 376 390 394
f 377 379 378
f 379 384 385
f 379 385 380
f 382 395 396
f 382 396 383
f 383 396 397
f 384 386 385
f 386 398 387
f 387 398 399
f 387 399 400
f 387 400 388
f 388 400 401
f 388 401 397
f 388 397 396
f 388 396 402
f 388 402 389
f 389 402 396
f 389 396 403
f 389 403 392
f 392 403 404
f 392 404 393
f 393 404 394
f 395 404 396
f 396 404 405
f 396 405 403
f 403 405 404

o geometry_3
v 0.08076488 -0.00463323 0.21207705
v 0.07885734 0.00270227 0.21207705
v 0.08034708 -0.00463323 0.22008898
v 0.07854082 -0.01119900 0.22008898
v 0.07873495 -0.01148765 0.21207705
v 0.07874761 -0.01161081 0.16404075
v 0.07870119 -0.01196488 0.01996712
v 0.08058763 -0.00463323 -0.12414179
v 0.07683163 0.00657785 0.21207705
v 0.07677676 0.00652012 0.21666538
v 0.07816521 0.00296783 0.21963014
v 0.08058340 -0.00463323 -0.13130665
v 0.07879403 0.00131676 -0.13130665
v 0.07857880 0.00201337 -0.13130665
v 0.07765879 0.00070098 0.22524203
v 0.07824962 -0.00463323 0.22587733
v 0.07775586 -0.01006366 0.22534791
v 0.06199751 -0.02366089 0.21687714
v 0.07502959 -0.01515540 0.21207705
v 0.07870541 -0.01160696 0.19608848
v 0.07680630 -0.01574809 0.02797905
v 0.07686538 -0.01579043 0.01996712
v 0.07686116 -0.01578658 0.01195519
v 0.07865476 -0.01196488 -0.02005725
v 0.07863788 -0.01173011 -0.11612986
v 0.07275910 0.00940275 0.21207705
v 0.07600446 0.00568112 -0.13130665
v 0.07213872 0.00919877 -0.13130665
v 0.07280974 0.00795566 0.21963014
v 0.07542628 0.00559260 0.22199491
v 0.08037662 -0.00537986 -0.13130665
v 0.07280974 0.00296783 0.22612440
v 0.07275910 -0.00463323 0.22838328
v 0.07026916 0.00704353 0.22471260
v 0.07275910 -0.01117206 0.22630088
v 0.05728773 -0.02416506 0.21740658
v 0.05728773 -0.02560060 0.21207705
v 0.06251660 -0.02409193 0.21207705
v 0.07684428 -0.01577503 -0.00403338
v 0.07863366 -0.01170317 -0.12414179
v 0.07683585 -0.01576733 -0.01204531
v 0.07682318 -0.01575964 -0.02005725
v 0.06509938 0.01308204 0.15602881
v 0.06502341 0.01292425 0.19608848
v 0.06502341 0.01286652 0.20406511
v 0.06502341 0.01258557 0.21207705
v 0.07139174 0.00955669 -0.13130665
v 0.06502341 0.01062277 0.22008898
v 0.07862944 -0.01167623 -0.13130665
v 0.06502341 0.00270227 0.22764209
v 0.06502341 -0.00463323 0.22912446
v 0.06502341 0.00762083 0.22513615
v 0.06502341 -0.01153383 0.22661852
v 0.05169170 -0.02387256 0.21705362
v 0.05728773 -0.01930038 0.22107724
v 0.03765099 -0.01144532 0.22668912
v 0.05066619 -0.02447680 0.21207705
v 0.03765099 -0.01497451 -0.13130665
v 0.03809412 -0.01497836 -0.13130665
v 0.06502341 -0.01515925 -0.13130665
v 0.06584214 -0.01515925 -0.13130665
v 0.07275910 -0.01513616 -0.13130665
v 0.07667126 -0.01565957 -0.03399872
v 0.07675144 -0.01571345 -0.02806918
v 0.06122943 0.01371707 0.15602881
v 0.06122099 0.01371322 0.16022890
v 0.06502341 0.01261636 -0.12414179
v 0.05728773 0.01349385 0.20406511
v 0.05728773 0.01320520 0.21207705
v 0.06502341 0.01260097 -0.13130665
v 0.05728773 0.01122700 0.22008898
v 0.05728773 0.00270227 0.22781856
v 0.05728773 0.00790563 0.22527732
v 0.05728773 -0.00463323 0.22919505
v 0.05728773 -0.01167623 0.22665383
v 0.03765099 -0.01488600 0.22037134
v 0.03765099 -0.00463323 0.22926564
v 0.04679623 -0.02206755 0.21207705
v 0.03765099 -0.01581737 -0.01204531
v 0.03765099 -0.01580582 -0.01635129
v 0.03765099 -0.01579043 -0.02005725
v 0.03765099 0.01075362 -0.13130665
v 0.06118722 0.01370937 0.15168754
v 0.05728773 0.01320905 -0.13130665
v 0.04955205 0.01321675 -0.13130665
v 0.05972280 0.01371707 0.15602881
v 0.05984941 0.01371322 0.16022890
v 0.05728773 0.01355543 0.19608848
v 0.04955205 0.01337069 0.20406511
v 0.04955205 0.01316287 0.21207705
v 0.04955205 0.01128088 0.22008898
v 0.04955205 0.00795951 0.22531262
v 0.04955205 0.00270227 0.22788915
v 0.04955205 -0.00463323 0.22923035
v 0.03765099 -0.01520543 0.21207705
v 0.03765099 -0.00124258 0.22863034
v 0.03765099 -0.01582891 0.01996712
v 0.03765099 -0.01585200 0.01195519
v 0.03765099 0.01288576 -0.06809355
v 0.04181636 0.01230462 -0.13130665
v 0.04873332 0.01312053 -0.13130665
v 0.03765099 0.01309359 -0.06008162
v 0.03765099 0.01337839 -0.02806918
v 0.05585707 0.01368628 0.15602881
v 0.03765099 0.01349000 0.04400292
v 0.04955205 0.01358237 0.15602881
v 0.04955205 0.01341688 0.19608848
v 0.04181636 0.01229307 0.21207705
v 0.03765099 0.01333221 0.11600444
v 0.03765099 0.01330527 0.12031041
v 0.03765099 0.01324754 0.12401636
v 0.04181636 0.01084214 0.22008898
v 0.04181636 0.00791333 0.22531262
v 0.04181636 0.00270227 0.22788915
v 0.03765099 0.00301786 0.22725384
v 0.03765099 0.01120391 0.21207705
v 0.03765099 0.00966830 0.22037134
v 0.03765099 0.00844829 0.22340670
v 0.03765099 0.00753616 0.22503026
v 0.03765099 0.00560414 0.22598323
f 406 407 408
f 406 408 409
f 406 409 410
f 406 410 411
f 406 411 412
f 406 412 413
f 406 413 407
f 407 414 415
f 407 415 416
f 407 416 408
f 407 413 417
f 407 417 418
f 407 418 419
f 407 419 414
f 408 416 420
f 408 420 421
f 408 421 422
f 408 422 409
f 409 422 423
f 409 423 424
f 409 424 410
f 410 425 411
f 410 424 426
f 410 426 427
f 410 427 425
f 411 425 427
f 411 427 412
f 412 427 428
f 412 428 429
f 412 429 430
f 412 430 417
f 412 417 413
f 414 431 415
f 414 419 432
f 414 432 433
f 414 433 431
f 415 434 435
f 415 435 420
f 415 420 416
f 415 431 434
f 417 430 436
f 417 436 454
f 417 454 467
f 417 467 466
f 417 466 465
f 417 465 464
f 417 464 463
f 417 463 487
f 417 487 505
f 417 505 506
f 417 506 490
f 417 490 489
f 417 489 475
f 417 475 452
f 417 452 433
f 417 433 432
f 417 432 419
f 417 419 418
f 420 437 438
f 420 438 421
f 420 435 439
f 420 439 437
f 421 438 422
f 422 438 440
f 422 440 423
f 423 440 441
f 423 441 442
f 423 442 443
f 423 443 424
f 424 443 427
f 424 427 426
f 427 443 428
f 428 444 430
f 428 430 429
f 428 443 444
f 430 445 436
f 430 444 446
f 430 446 447
f 430 447 445
f 431 448 449
f 431 449 450
f 431 450 451
f 431 451 434
f 431 433 448
f 433 452 448
f 434 451 453
f 434 453 439
f 434 439 435
f 436 445 454
f 437 455 438
f 437 439 455
f 438 455 456
f 438 456 440
f 439 453 457
f 439 457 455
f 440 456 458
f 440 458 441
f 441 459 442
f 441 458 460
f 441 460 461
f 441 461 459
f 442 459 462
f 442 462 463
f 442 463 464
f 442 464 465
f 442 465 466
f 442 466 467
f 442 467 443
f 443 467 468
f 443 468 469
f 443 469 447
f 443 447 446
f 443 446 444
f 445 447 454
f 447 469 454
f 448 470 471
f 448 471 449
f 448 452 472
f 448 472 470
f 449 471 450
f 450 473 451
f 450 471 473
f 451 473 474
f 451 474 453
f 452 475 472
f 453 476 457
f 453 474 476
f 454 469 468
f 454 468 467
f 455 477 456
f 455 457 478
f 455 478 477
f 456 477 498
f 456 498 479
f 456 479 480
f 456 480 458
f 457 476 478
f 458 480 460
f 459 461 481
f 459 481 462
f 460 480 461
f 461 480 482
f 461 482 501
f 461 501 520
f 461 520 525
f 461 525 524
f 461 524 523
f 461 523 522
f 461 522 521
f 461 521 516
f 461 516 515
f 461 515 514
f 461 514 510
f 461 510 508
f 461 508 507
f 461 507 504
f 461 504 487
f 461 487 463
f 461 463 486
f 461 486 485
f 461 485 484
f 461 484 503
f 461 503 502
f 461 502 500
f 461 500 481
f 462 481 483
f 462 483 484
f 462 484 485
f 462 485 486
f 462 486 463
f 470 472 475
f 470 475 488
f 470 488 489
f 470 489 490
f 470 490 491
f 470 491 492
f 470 492 471
f 471 492 493
f 471 493 473
f 473 494 495
f 473 495 474
f 473 493 494
f 474 495 496
f 474 496 476
f 475 489 488
f 476 496 497
f 476 497 478
f 477 478 498
f 478 497 498
f 479 498 499
f 479 499 480
f 480 499 482
f 481 500 483
f 482 499 498
f 482 498 501
f 483 500 502
f 483 502 503
f 483 503 484
f 487 504 505
f 490 506 507
f 490 507 508
f 490 508 491
f 491 509 492
f 491 508 510
f 491 510 509
f 492 509 493
f 493 509 511
f 493 511 512
f 493 512 494
f 494 513 495
f 494 512 514
f 494 514 515
f 494 515 516
f 494 516 513
f 495 513 517
f 495 517 496
f 496 517 518
f 496 518 497
f 497 518 519
f 497 519 498
f 498 519 501
f 501 519 520
f 504 507 505
f 505 507 506
f 509 510 511
f 510 514 511
f 511 514 512
f 513 521 517
f 513 516 521
f 517 522 523
f 517 523 518
f 517 521 522
f 518 523 524
f 518 524 519
f 519 524 525
f 519 525 520

