# https://github.com/mikedh/trimesh

o geometry_0
v -0.00050596 0.02486497 0.00682231
v 0.00118512 0.02486497 0.00680997
v -0.00050596 0.02700641 0.00681545
v -0.00178317 0.02700641 0.00652767
v -0.00179139 0.02486497 0.00653041
v -0.00176946 -0.01374515 0.00652630
v -0.00176809 -0.06093388 0.00651534
v -0.00050596 -0.06093388 0.00678668
v 0.00118512 -0.06093388 0.00679079
v 0.00243355 0.02486497 0.00651945
v 0.00242259 0.02700641 0.00651534
v 0.00118512 0.02700641 0.00680312
v 0.00245548 -0.06093388 0.00652082
v -0.00050596 0.02914786 0.00677571
v -0.00173246 0.02914786 0.00650711
v -0.00263007 0.02700641 0.00616588
v -0.00263693 0.02486497 0.00617136
v -0.00263556 0.01628637 0.00617274
v -0.00261363 -0.06093388 0.00616588
v -0.00169820 -0.06307532 0.00648656
v -0.00050596 -0.06307532 0.00672638
v 0.00118512 -0.06307532 0.00673460
v 0.00239244 -0.06307532 0.00649478
v 0.00327909 0.01628637 0.00615492
v 0.00327909 0.02486497 0.00614807
v 0.00330238 -0.06093388 0.00616862
v 0.00326812 0.02700641 0.00614259
v 0.00236914 0.02914786 0.00649204
v 0.00118512 0.02914786 0.00676064
v -0.00155842 0.03130213 0.00643859
v -0.00050596 0.06133365 0.00517371
v -0.00257800 0.02914786 0.00614259
v -0.00166120 0.06133365 0.00487634
v -0.00385658 0.02700641 0.00534913
v -0.00386480 0.02486497 0.00535461
v -0.00382780 0.02914786 0.00532583
v -0.00387714 0.01842781 0.00535461
v -0.00387714 0.01628637 0.00535598
v -0.00388125 -0.06093388 0.00534913
v -0.00384562 -0.06307532 0.00531350
v -0.00254374 -0.06307532 0.00613025
v -0.00152964 -0.06426786 0.00642215
v -0.00050596 -0.06440892 0.00650848
v 0.00118512 -0.06440892 0.00651534
v 0.00222525 -0.06428068 0.00643037
v 0.00323935 -0.06307532 0.00613025
v 0.00452478 0.01628637 0.00533953
v 0.00456589 -0.06093388 0.00535324
v 0.00450011 0.02486497 0.00533131
v 0.00449189 0.02700641 0.00532583
v 0.00452615 -0.06307532 0.00531350
v 0.00446448 0.02914786 0.00530116
v 0.00321468 0.02914786 0.00611792
v 0.00229925 0.06133365 0.00485989
v 0.00220743 0.03130213 0.00642763
v 0.00118512 0.06133365 0.00515727
v 0.00118512 0.06305193 0.00489552
v -0.00050596 0.06307758 0.00490238
v -0.00149127 0.06266724 0.00479274
v -0.00177632 0.05917938 0.00493390
v -0.00262185 0.05917938 0.00445974
v -0.00250674 0.06133365 0.00438985
v -0.00470349 0.02700641 0.00468859
v -0.00471034 0.02486497 0.00469682
v -0.00472267 0.01842781 0.00470915
v -0.00467334 0.02914786 0.00465707
v -0.00472816 -0.06093388 0.00471463
v -0.00469253 -0.06307532 0.00467900
v -0.00355235 -0.06452433 0.00508875
v -0.00213536 -0.06466537 0.00559580
v -0.00050596 -0.06497313 0.00553824
v 0.00118512 -0.06498595 0.00553824
v 0.00282411 -0.06467820 0.00559580
v 0.00423014 -0.06452433 0.00508875
v 0.00537032 0.01628637 0.00467626
v 0.00541143 -0.06093388 0.00472011
v 0.00537306 -0.06307532 0.00468037
v 0.00534702 0.02486497 0.00465022
v 0.00536483 0.01842781 0.00467078
v 0.00533743 0.02700641 0.00464063
v 0.00531002 0.02914786 0.00461185
v 0.00417944 0.06133365 0.00353335
v 0.00324209 0.05917938 0.00441588
v 0.00314479 0.06133365 0.00435010
v 0.00215125 0.06264160 0.00478452
v 0.00118512 0.06412907 0.00456663
v -0.00050596 0.06414189 0.00456663
v -0.00211206 0.06342380 0.00415688
v -0.00328513 0.06347509 0.00332368
v -0.00353728 0.06133365 0.00357309
v -0.00529824 0.02700641 0.00387184
v -0.00530921 0.02486497 0.00388006
v -0.00527221 0.02914786 0.00384032
v -0.00531743 0.02271070 0.00388280
v -0.00532154 0.02056926 0.00388691
v -0.00532428 0.01842781 0.00389239
v -0.00445545 0.05917938 0.00267411
v -0.00532565 -0.06093388 0.00389787
v -0.00529687 -0.06307532 0.00386361
v -0.00508720 -0.06452433 0.00357994
v -0.00402651 -0.06481926 0.00403765
v -0.00219703 -0.06526806 0.00390609
v 0.00287619 -0.06525523 0.00390609
v 0.00470430 -0.06480643 0.00403491
v 0.00575266 -0.06451150 0.00357720
v 0.00597466 0.01628637 0.00385950
v 0.00597192 0.01842781 0.00385402
v 0.00600207 -0.06093388 0.00390335
v 0.00596233 -0.06307532 0.00386361
v 0.00595274 0.02486497 0.00383346
v 0.00594451 0.02700641 0.00382387
v 0.00592396 0.02914786 0.00379646
v 0.00510035 0.05917938 0.00259736
v 0.00502498 0.06133365 0.00247403
v 0.00393140 0.06347509 0.00329490
v 0.00278026 0.06341098 0.00413221
v 0.00374091 0.06456505 0.00310852
v 0.00287619 0.06482151 0.00338534
v 0.00118512 0.06509079 0.00374987
v -0.00307546 0.06459070 0.00311949
v -0.00050596 0.06509079 0.00374987
v -0.00219703 0.06483433 0.00339494
v -0.00414711 0.06341098 0.00218487
v -0.00480216 0.06265442 0.00158053
v -0.00438419 0.06133365 0.00255625
v -0.00614378 0.02700641 0.00237125
v -0.00615611 0.02486497 0.00240277
v -0.00616296 0.02271070 0.00242195
v -0.00616845 0.02056926 0.00243292
v -0.00611911 0.02914786 0.00231780
v -0.00495153 0.05917938 0.00185735
v -0.00616982 0.01842781 0.00243292
v -0.00617119 -0.06093388 0.00244662
v -0.00488849 0.06133365 0.00173949
v -0.00614241 -0.06307532 0.00239591
v -0.00644116 -0.06417810 0.00149693
v -0.00562303 -0.06461409 0.00213417
v -0.00388947 -0.06526806 0.00227258
v 0.00287619 -0.06528088 -0.00425874
v 0.00456863 -0.06525523 0.00227258
v 0.00629397 -0.06460126 0.00212047
v 0.00711209 -0.06416527 0.00147501
v 0.00682157 0.01628637 0.00234247
v 0.00684761 -0.06093388 0.00244114
v 0.00681883 0.01842781 0.00233425
v 0.00680787 -0.06307532 0.00237399
v 0.00681198 0.02056926 0.00232602
v 0.00680512 0.02271070 0.00231643
v 0.00679827 0.02486497 0.00230410
v 0.00675990 0.02914786 0.00227258
v 0.00557999 0.05917938 0.00178061
v 0.00551558 0.06133365 0.00165727
v 0.00544569 0.06252619 0.00151886
v 0.00478516 0.06333404 0.00214650
v 0.00520724 0.06397519 0.00063906
v 0.00400951 0.06482151 0.00227258
v 0.00287619 0.06536008 0.00227258
v 0.00118512 0.06566783 0.00227258
v -0.00456097 0.06410342 0.00063906
v -0.00219703 0.06538572 0.00227258
v -0.00335913 0.06483433 0.00227258
v -0.00050596 0.06566783 0.00227258
v -0.00490631 0.06302629 0.00063906
v -0.00517902 0.06133365 0.00063906
v -0.00646171 0.02700641 0.00155449
v -0.00644253 0.02914786 0.00150104
v -0.00647268 0.02486497 0.00158601
v -0.00647953 0.02271070 0.00160656
v -0.00648364 0.02056926 0.00161616
v -0.00643019 0.03026346 0.00146541
v -0.00648775 -0.06093388 0.00162986
v -0.00646994 -0.06307532 0.00157916
v -0.00530235 0.05917938 0.00063906
v -0.00662342 -0.06307532 0.00063906
v -0.00650282 -0.06428068 0.00063906
v -0.00558055 -0.06485772 0.00063906
v -0.00388947 -0.06526806 -0.00262660
v 0.00118512 -0.06497313 -0.00589226
v 0.00279671 -0.06467820 -0.00593885
v 0.00468649 -0.06481926 -0.00437112
v 0.00456863 -0.06526806 -0.00262660
v -0.00219703 -0.06526806 -0.00425874
v -0.00050596 -0.06497313 -0.00589226
v 0.00625971 -0.06484490 -0.00099308
v 0.00625971 -0.06483208 0.00063906
v 0.00717376 -0.06426786 0.00063906
v 0.00729299 -0.06307532 0.00063906
v 0.00714224 -0.06307532 0.00155723
v 0.00712991 0.01628637 0.00152571
v 0.00716554 -0.06093388 0.00162438
v 0.00712169 0.02271070 0.00150104
v 0.00711621 0.02486497 0.00148734
v 0.00711072 0.02651914 0.00147090
v 0.00685309 0.02714747 0.00211772
v 0.00710524 0.02795532 0.00144623
v 0.00709428 0.02914786 0.00135852
v 0.00578007 0.06133365 0.00063906
v 0.00589518 0.05917938 0.00063906
v 0.00554847 0.06289806 0.00063906
v 0.00521683 0.06403931 -0.00099308
v 0.00436170 0.06507797 0.00063906
v 0.00556491 0.06296217 -0.00099308
v 0.00287619 0.06565501 0.00063906
v 0.00118512 0.06570630 0.00063906
v -0.00371543 0.06507797 0.00063906
v -0.00371406 0.06507797 -0.00099308
v -0.00455960 0.06405213 -0.00099308
v -0.00219703 0.06565501 0.00063906
v -0.00050596 0.06570630 0.00063906
v -0.00488849 0.06297499 -0.00099308
v -0.00514750 0.06133365 -0.00099308
v -0.00527632 0.05917938 -0.00099308
v -0.00659601 0.02700641 0.00063906
v -0.00661520 0.02486497 0.00063906
v -0.00662890 0.02271070 0.00063906
v -0.00663438 0.02056926 0.00063906
v -0.00666042 -0.06093388 0.00063906
v -0.00655901 0.02914786 0.00063906
v -0.00648364 0.03130213 -0.00060389
v -0.00643567 0.03248184 -0.00023799
v -0.00643567 0.03248184 -0.00010369
v -0.00666179 -0.06093388 -0.00099308
v -0.00662068 -0.06307532 -0.00099308
v -0.00650008 -0.06428068 -0.00099308
v -0.00558055 -0.06485772 -0.00099308
v -0.00561892 -0.06461409 -0.00248134
v -0.00508172 -0.06452433 -0.00391203
v -0.00401281 -0.06481926 -0.00437797
v -0.00050596 -0.06439609 -0.00685154
v 0.00118512 -0.06439609 -0.00684743
v 0.00218003 -0.06425504 -0.00676657
v 0.00420000 -0.06452433 -0.00542495
v 0.00575129 -0.06451150 -0.00390107
v 0.00629260 -0.06461409 -0.00247585
v -0.00212714 -0.06467820 -0.00594296
v 0.00717513 -0.06426786 -0.00099308
v 0.00729436 -0.06307532 -0.00099308
v 0.00733821 -0.06093388 -0.00099308
v 0.00733410 -0.06093388 0.00063906
v 0.00724913 0.01628637 0.00063906
v 0.00722995 0.02271070 0.00063906
v 0.00723680 0.02056926 0.00063906
v 0.00721898 0.02486497 0.00063906
v 0.00718473 0.02714747 0.00079666
v 0.00718473 0.02914786 0.00054177
v 0.00715184 0.03080203 0.00024713
v 0.00580747 0.06133365 -0.00099308
v 0.00591025 0.05917938 -0.00099308
v 0.00546898 0.06260313 -0.00192084
v 0.00484819 0.06338533 -0.00252930
v 0.00378750 0.06462916 -0.00350914
v 0.00405473 0.06485998 -0.00262660
v 0.00437130 0.06507797 -0.00099308
v 0.00287619 0.06565501 -0.00099308
v -0.00050596 0.06571912 -0.00099308
v 0.00118512 0.06570630 -0.00099308
v -0.00219703 0.06565501 -0.00099308
v -0.00219703 0.06541137 -0.00262660
v -0.00337146 0.06485998 -0.00262660
v -0.00414026 0.06337251 -0.00251148
v -0.00477886 0.06257748 -0.00189206
v -0.00309190 0.06460351 -0.00348995
v -0.00485697 0.06133365 -0.00203459
v -0.00492549 0.05917938 -0.00215655
v -0.00642197 0.03005829 -0.00177284
v -0.00652886 0.02926327 -0.00113423
v -0.00659464 0.02700641 -0.00099308
v -0.00661657 0.02486497 -0.00099308
v -0.00663301 0.02271070 -0.00099308
v -0.00664398 0.02056926 -0.00099308
v -0.00664672 0.01842781 -0.00099308
v -0.00664946 0.01413210 -0.00099308
v -0.00648912 -0.06093388 -0.00197977
v -0.00646719 -0.06307532 -0.00191947
v -0.00649597 0.01842781 -0.00200033
v -0.00649597 0.01628637 -0.00200170
v -0.00643841 -0.06417810 -0.00183999
v -0.00353043 -0.06452433 -0.00543318
v -0.00528728 -0.06307532 -0.00419022
v -0.00466512 -0.06307532 -0.00500698
v -0.00151594 -0.06426786 -0.00677206
v -0.00050596 -0.06307532 -0.00704477
v 0.00118512 -0.06307532 -0.00704065
v 0.00232666 -0.06307532 -0.00682276
v 0.00317357 -0.06307532 -0.00645686
v 0.00448641 -0.06307532 -0.00564011
v 0.00533332 -0.06307532 -0.00499465
v 0.00596096 -0.06307532 -0.00417789
v 0.00711483 -0.06416527 -0.00183177
v 0.00714498 -0.06307532 -0.00191673
v 0.00716828 -0.06093388 -0.00198525
v 0.00715184 0.01413210 -0.00194003
v 0.00727243 0.01413210 -0.00099308
v 0.00726695 0.01628637 -0.00099308
v 0.00726147 0.01842781 -0.00099308
v 0.00725325 0.02056926 -0.00099308
v 0.00722858 0.02486497 -0.00099308
v 0.00724228 0.02271070 -0.00099308
v 0.00718473 0.02914786 -0.00087249
v 0.00715184 0.03080203 -0.00056415
v 0.00554299 0.06133365 -0.00206885
v 0.00709154 0.02914786 -0.00168925
v 0.00507842 0.06133365 -0.00288560
v 0.00400129 0.06347509 -0.00372155
v 0.00287619 0.06487281 -0.00381199
v 0.00287619 0.06542419 -0.00262660
v 0.00281452 0.06348791 -0.00457394
v 0.00118512 0.06429577 -0.00498506
v 0.00118512 0.06568065 -0.00262660
v -0.00050596 0.06568065 -0.00262660
v -0.00050596 0.06509079 -0.00414911
v -0.00219703 0.06485998 -0.00377773
v -0.00327690 0.06347509 -0.00367907
v -0.00434582 0.06133365 -0.00285134
v -0.00050596 0.06423165 -0.00496587
v -0.00211755 0.06343662 -0.00452460
v -0.00441708 0.05917938 -0.00297331
v -0.00526261 0.02914786 -0.00417241
v -0.00616982 0.02926327 -0.00248956
v -0.00644253 0.02863494 -0.00185369
v -0.00645897 0.02700641 -0.00190166
v -0.00647405 0.02486497 -0.00194140
v -0.00648364 0.02271070 -0.00197018
v -0.00649186 0.02056926 -0.00199073
v -0.00616570 -0.06093388 -0.00279653
v -0.00617667 0.01628637 -0.00281845
v -0.00613282 -0.06307532 -0.00273623
v -0.00617393 0.01842781 -0.00281708
v -0.00381958 -0.06307532 -0.00565107
v -0.00532017 -0.06093388 -0.00423134
v -0.00470760 -0.06093388 -0.00504809
v -0.00250948 -0.06307532 -0.00646783
v -0.00166394 -0.06307532 -0.00682824
v -0.00050596 -0.06093388 -0.00709547
v 0.00118512 -0.06093388 -0.00709821
v 0.00240477 -0.06093388 -0.00685291
v 0.00325168 -0.06093388 -0.00649935
v 0.00453437 -0.06093388 -0.00568259
v 0.00537991 -0.06093388 -0.00504124
v 0.00680649 -0.06307532 -0.00273349
v 0.00599933 -0.06093388 -0.00422585
v 0.00684624 -0.06093388 -0.00280201
v 0.00683253 0.01199065 -0.00275542
v 0.00683116 0.01413210 -0.00275542
v 0.00683390 0.01628637 -0.00274445
v 0.00682979 0.01842781 -0.00273897
v 0.00714498 0.01842781 -0.00192221
v 0.00714087 0.02056926 -0.00190714
v 0.00713402 0.02271070 -0.00188795
v 0.00712580 0.02486497 -0.00186740
v 0.00711621 0.02662172 -0.00184136
v 0.00718884 0.02719876 -0.00115342
v 0.00710524 0.02804508 -0.00180436
v 0.00674620 0.02914786 -0.00262660
v 0.00559369 0.05917938 -0.00217026
v 0.00513598 0.05917938 -0.00298701
v 0.00423289 0.06133365 -0.00394903
v 0.00321879 0.06133365 -0.00476579
v 0.00118512 0.06510361 -0.00416830
v 0.00221018 0.06278265 -0.00516458
v 0.00118512 0.06321863 -0.00529065
v -0.00050596 0.06316734 -0.00528106
v -0.00150087 0.06270571 -0.00515224
v -0.00249989 0.06133365 -0.00471509
v -0.00350028 0.06133365 -0.00389833
v -0.00465415 0.02914786 -0.00498917
v -0.00469664 0.02700641 -0.00503439
v -0.00529413 0.02700641 -0.00421763
v -0.00613967 0.02700641 -0.00271704
v -0.00615748 0.02486497 -0.00275816
v -0.00616708 0.02271070 -0.00278693
v -0.00616845 0.02056926 -0.00280749
v -0.00534073 0.01628637 -0.00425874
v -0.00532017 0.02271070 -0.00425189
v -0.00533387 0.01842781 -0.00425874
v -0.00386206 -0.06093388 -0.00568807
v -0.00257252 -0.06093388 -0.00650483
v -0.00474186 0.00125778 -0.00508372
v -0.00172698 -0.06093388 -0.00685154
v -0.00050596 -0.05235527 -0.00710506
v -0.00050596 0.02486497 -0.00717769
v 0.00118512 -0.05235527 -0.00710506
v 0.00240614 -0.05879243 -0.00685428
v 0.00241025 -0.05235527 -0.00685565
v 0.00325579 -0.05235527 -0.00650072
v 0.00327224 0.02271070 -0.00649935
v 0.00452889 0.01842781 -0.00568396
v 0.00537443 0.01842781 -0.00503576
v 0.00598837 0.01628637 -0.00421626
v 0.00598426 0.01842781 -0.00421900
v 0.00597329 0.02271070 -0.00420119
v 0.00596507 0.02486497 -0.00418885
v 0.00681883 0.02271070 -0.00270471
v 0.00681061 0.02486497 -0.00268415
v 0.00685583 0.02719876 -0.00248134
v 0.00591436 0.02914786 -0.00412719
v 0.00594725 0.02700641 -0.00416830
v 0.00528809 0.02914786 -0.00494394
v 0.00330649 0.05917938 -0.00482335
v 0.00444256 0.02914786 -0.00563737
v 0.00318179 0.02914786 -0.00645412
v 0.00237325 0.06133365 -0.00524269
v 0.00118512 0.06133365 -0.00556336
v -0.00050596 0.06133365 -0.00555240
v -0.00165298 0.06133365 -0.00523310
v -0.00255333 0.02914786 -0.00648427
v -0.00380725 0.02914786 -0.00566751
v -0.00385110 0.02700641 -0.00570040
v -0.00471719 0.02486497 -0.00505769
v -0.00531058 0.02486497 -0.00424093
v -0.00474597 0.01628637 -0.00508646
v -0.00472816 0.02271070 -0.00506865
v -0.00473364 0.02104371 -0.00507413
v -0.00474186 0.01842781 -0.00508235
v -0.00388947 -0.00087084 -0.00572233
v -0.00263419 -0.00087084 -0.00653498
v -0.00180784 0.02486497 -0.00688991
v -0.00178180 0.02700641 -0.00688032
v -0.00050596 0.02700641 -0.00715851
v 0.00118512 0.02700641 -0.00713932
v 0.00118512 0.02486497 -0.00715714
v 0.00118512 0.02271070 -0.00715577
v 0.00242670 0.02271070 -0.00686935
v 0.00242396 0.02486497 -0.00686935
v 0.00327086 0.02486497 -0.00649524
v 0.00452478 0.02056926 -0.00568396
v 0.00537032 0.02056926 -0.00503165
v 0.00597603 0.02056926 -0.00421489
v 0.00534565 0.02486497 -0.00500561
v 0.00532646 0.02700641 -0.00498506
v 0.00448093 0.02700641 -0.00566751
v 0.00324894 0.02700641 -0.00648290
v 0.00233488 0.02914786 -0.00683235
v 0.00118512 0.02914786 -0.00708314
v -0.00050596 0.02914786 -0.00710232
v -0.00170780 0.02914786 -0.00685154
v -0.00262733 0.02700641 -0.00651716
v -0.00265337 0.02486497 -0.00652950
v -0.00387166 0.02486497 -0.00571411
v -0.00388125 0.02271070 -0.00571548
v -0.00388947 0.01628637 -0.00572507
v -0.00264789 0.02271070 -0.00653224
v 0.00240203 0.02700641 -0.00686113
v 0.00450011 0.02486497 -0.00567848
v 0.00451108 0.02271070 -0.00568259
f 1 2 12
f 1 12 3
f 1 3 4
f 1 4 5
f 1 5 6
f 1 6 7
f 1 7 8
f 1 8 9
f 1 9 2
f 2 10 11
f 2 11 12
f 2 9 13
f 2 13 10
f 3 12 14
f 3 14 15
f 3 15 4
f 4 16 17
f 4 17 5
f 4 15 16
f 5 17 18
f 5 18 19
f 5 19 7
f 5 7 6
f 7 19 20
f 7 20 8
f 8 20 21
f 8 21 22
f 8 22 9
f 9 22 23
f 9 23 13
f 10 24 25
f 10 25 11
f 10 13 26
f 10 26 24
f 11 25 27
f 11 27 28
f 11 28 12
f 12 28 29
f 12 29 14
f 13 23 26
f 14 30 15
f 14 29 31
f 14 31 30
f 15 32 16
f 15 30 31
f 15 31 33
f 15 33 32
f 16 34 35
f 16 35 17
f 16 32 36
f 16 36 34
f 17 35 37
f 17 37 38
f 17 38 18
f 18 38 39
f 18 39 19
f 19 39 40
f 19 40 41
f 19 41 20
f 20 41 42
f 20 42 21
f 21 42 43
f 21 43 22
f 22 43 44
f 22 44 45
f 22 45 23
f 23 45 46
f 23 46 26
f 24 47 25
f 24 26 48
f 24 48 47
f 25 49 50
f 25 50 27
f 25 47 49
f 26 46 51
f 26 51 48
f 27 50 52
f 27 52 53
f 27 53 28
f 28 53 54
f 28 54 55
f 28 55 29
f 29 55 56
f 29 56 31
f 31 56 57
f 31 57 58
f 31 58 59
f 31 59 33
f 32 33 60
f 32 60 61
f 32 61 36
f 33 59 62
f 33 62 61
f 33 61 60
f 34 63 64
f 34 64 35
f 34 36 63
f 35 64 65
f 35 65 37
f 36 66 63
f 36 61 66
f 37 65 38
f 38 65 67
f 38 67 39
f 39 67 68
f 39 68 40
f 40 68 69
f 40 69 41
f 41 69 42
f 42 69 70
f 42 70 43
f 43 70 71
f 43 71 72
f 43 72 44
f 44 73 45
f 44 72 73
f 45 73 74
f 45 74 46
f 46 74 51
f 47 75 49
f 47 48 76
f 47 76 75
f 48 51 77
f 48 77 76
f 49 78 50
f 49 75 79
f 49 79 78
f 50 78 80
f 50 80 52
f 51 74 77
f 52 80 81
f 52 81 82
f 52 82 83
f 52 83 53
f 53 83 54
f 54 83 84
f 54 84 85
f 54 85 56
f 54 56 55
f 56 85 57
f 57 86 58
f 57 85 86
f 58 86 87
f 58 87 59
f 59 87 88
f 59 88 89
f 59 89 62
f 61 62 90
f 61 90 66
f 62 89 90
f 63 91 92
f 63 92 64
f 63 66 93
f 63 93 91
f 64 92 94
f 64 94 95
f 64 95 65
f 65 95 96
f 65 96 67
f 66 90 97
f 66 97 93
f 67 98 99
f 67 99 68
f 67 96 98
f 68 99 100
f 68 100 69
f 69 100 101
f 69 101 70
f 70 101 102
f 70 102 71
f 71 102 72
f 72 102 103
f 72 103 73
f 73 104 74
f 73 103 104
f 74 105 77
f 74 104 105
f 75 106 107
f 75 107 79
f 75 76 106
f 76 77 108
f 76 108 106
f 77 105 109
f 77 109 108
f 78 110 111
f 78 111 80
f 78 79 107
f 78 107 110
f 80 111 112
f 80 112 81
f 81 112 113
f 81 113 82
f 82 113 114
f 82 114 115
f 82 115 84
f 82 84 83
f 84 115 85
f 85 115 116
f 85 116 86
f 86 117 118
f 86 118 119
f 86 119 87
f 86 116 117
f 87 120 88
f 87 119 121
f 87 121 122
f 87 122 120
f 88 120 89
f 89 120 123
f 89 123 124
f 89 124 125
f 89 125 90
f 90 125 97
f 91 126 127
f 91 127 128
f 91 128 92
f 91 93 126
f 92 128 129
f 92 129 94
f 93 130 126
f 93 97 131
f 93 131 130
f 94 129 95
f 95 129 96
f 96 129 132
f 96 132 133
f 96 133 98
f 97 125 134
f 97 134 131
f 98 133 99
f 99 135 136
f 99 136 100
f 99 133 135
f 100 137 138
f 100 138 101
f 100 136 137
f 101 138 102
f 102 138 139
f 102 139 103
f 103 139 140
f 103 140 104
f 104 140 105
f 105 140 141
f 105 141 142
f 105 142 109
f 106 143 107
f 106 108 144
f 106 144 143
f 107 143 145
f 107 145 110
f 108 109 144
f 109 142 146
f 109 146 144
f 110 147 148
f 110 148 111
f 110 145 147
f 111 148 149
f 111 149 150
f 111 150 112
f 112 150 151
f 112 151 113
f 113 151 152
f 113 152 114
f 114 152 153
f 114 153 115
f 115 154 117
f 115 117 116
f 115 153 154
f 117 154 155
f 117 155 156
f 117 156 157
f 117 157 118
f 118 157 119
f 119 157 158
f 119 158 162
f 119 162 121
f 120 159 123
f 120 122 160
f 120 160 161
f 120 161 159
f 121 162 160
f 121 160 122
f 123 159 124
f 124 159 163
f 124 163 164
f 124 164 134
f 124 134 125
f 126 165 127
f 126 130 166
f 126 166 165
f 127 165 167
f 127 167 168
f 127 168 128
f 128 168 129
f 129 169 132
f 129 168 169
f 130 170 166
f 130 131 170
f 131 134 170
f 132 169 171
f 132 171 133
f 133 171 172
f 133 172 135
f 134 164 173
f 134 173 170
f 135 172 136
f 136 172 174
f 136 174 175
f 136 175 137
f 137 175 176
f 137 176 138
f 138 177 139
f 138 176 225
f 138 225 177
f 139 178 179
f 139 179 180
f 139 180 181
f 139 181 140
f 139 177 182
f 139 182 183
f 139 183 178
f 140 181 184
f 140 184 185
f 140 185 141
f 141 185 186
f 141 186 142
f 142 186 187
f 142 187 188
f 142 188 146
f 143 189 191
f 143 191 145
f 143 144 190
f 143 190 189
f 144 146 188
f 144 188 190
f 145 191 147
f 147 191 148
f 148 191 192
f 148 192 149
f 149 192 193
f 149 193 194
f 149 194 150
f 150 194 195
f 150 195 196
f 150 196 151
f 151 196 152
f 152 197 153
f 152 196 198
f 152 198 197
f 153 197 199
f 153 199 155
f 153 155 154
f 155 200 201
f 155 201 156
f 155 199 202
f 155 202 200
f 156 201 157
f 157 203 158
f 157 201 203
f 158 204 209
f 158 209 162
f 158 203 204
f 159 161 205
f 159 205 206
f 159 206 207
f 159 207 163
f 160 162 208
f 160 208 205
f 160 205 161
f 162 209 208
f 163 210 164
f 163 207 210
f 164 211 212
f 164 212 173
f 164 210 211
f 165 213 214
f 165 214 167
f 165 166 213
f 166 170 213
f 167 214 215
f 167 215 168
f 168 215 169
f 169 215 216
f 169 216 217
f 169 217 171
f 170 218 213
f 170 173 218
f 171 217 172
f 172 217 174
f 173 212 219
f 173 219 220
f 173 220 221
f 173 221 218
f 174 217 222
f 174 222 223
f 174 223 224
f 174 224 175
f 175 224 225
f 175 225 176
f 177 225 226
f 177 226 227
f 177 227 228
f 177 228 182
f 178 229 230
f 178 230 179
f 178 183 229
f 179 230 231
f 179 231 232
f 179 232 180
f 180 232 233
f 180 233 181
f 181 233 234
f 181 234 184
f 182 228 235
f 182 235 183
f 183 235 229
f 184 234 236
f 184 236 186
f 184 186 185
f 186 236 237
f 186 237 187
f 187 237 238
f 187 238 239
f 187 239 188
f 188 239 190
f 189 240 191
f 189 190 239
f 189 239 240
f 191 241 192
f 191 240 242
f 191 242 241
f 192 241 193
f 193 241 243
f 193 243 195
f 193 195 194
f 195 243 244
f 195 244 245
f 195 245 196
f 196 245 246
f 196 246 198
f 197 247 199
f 197 198 247
f 198 248 247
f 198 246 248
f 199 247 202
f 200 202 249
f 200 249 250
f 200 250 251
f 200 251 252
f 200 252 253
f 200 253 201
f 201 253 203
f 202 247 249
f 203 253 254
f 203 254 256
f 203 256 204
f 204 255 209
f 204 256 255
f 205 208 257
f 205 257 206
f 206 257 258
f 206 258 259
f 206 259 207
f 207 260 261
f 207 261 210
f 207 259 262
f 207 262 260
f 208 209 255
f 208 255 257
f 210 261 211
f 211 261 263
f 211 263 212
f 212 263 264
f 212 264 265
f 212 265 266
f 212 266 219
f 213 267 268
f 213 268 214
f 213 218 267
f 214 268 269
f 214 269 215
f 215 269 270
f 215 270 216
f 216 270 271
f 216 271 272
f 216 272 217
f 217 272 222
f 218 221 219
f 218 219 267
f 219 266 267
f 219 221 220
f 222 273 274
f 222 274 223
f 222 272 275
f 222 275 276
f 222 276 273
f 223 274 277
f 223 277 224
f 224 226 225
f 224 277 226
f 226 277 227
f 227 278 228
f 227 277 279
f 227 279 280
f 227 280 278
f 228 278 235
f 229 235 281
f 229 281 282
f 229 282 283
f 229 283 230
f 230 283 231
f 231 283 284
f 231 284 285
f 231 285 286
f 231 286 232
f 232 286 287
f 232 287 233
f 233 287 288
f 233 288 289
f 233 289 234
f 234 289 236
f 235 278 281
f 236 289 237
f 237 289 290
f 237 290 238
f 238 290 291
f 238 291 292
f 238 292 293
f 238 293 239
f 239 293 240
f 240 293 294
f 240 294 295
f 240 295 242
f 241 242 295
f 241 295 296
f 241 296 243
f 243 297 245
f 243 245 244
f 243 296 298
f 243 298 297
f 245 297 299
f 245 299 300
f 245 300 246
f 246 300 248
f 247 248 301
f 247 301 249
f 248 300 302
f 248 302 301
f 249 301 303
f 249 303 304
f 249 304 250
f 250 304 251
f 251 305 306
f 251 306 252
f 251 304 307
f 251 307 308
f 251 308 305
f 252 306 253
f 253 306 254
f 254 306 309
f 254 309 256
f 255 256 309
f 255 309 310
f 255 310 257
f 257 310 258
f 258 310 311
f 258 311 312
f 258 312 262
f 258 262 259
f 260 262 313
f 260 313 261
f 261 314 263
f 261 313 314
f 262 312 315
f 262 315 316
f 262 316 313
f 263 314 317
f 263 317 264
f 264 317 318
f 264 318 319
f 264 319 265
f 265 319 320
f 265 320 266
f 266 320 267
f 267 320 321
f 267 321 268
f 268 321 322
f 268 322 269
f 269 322 323
f 269 323 324
f 269 324 270
f 270 324 275
f 270 275 271
f 271 275 272
f 273 325 274
f 273 276 326
f 273 326 325
f 274 327 277
f 274 325 327
f 275 324 328
f 275 328 326
f 275 326 276
f 277 327 279
f 278 280 329
f 278 329 281
f 279 327 325
f 279 325 330
f 279 330 331
f 279 331 280
f 280 331 329
f 281 329 332
f 281 332 333
f 281 333 282
f 282 333 334
f 282 334 335
f 282 335 283
f 283 335 284
f 284 335 336
f 284 336 337
f 284 337 285
f 285 337 286
f 286 337 338
f 286 338 339
f 286 339 287
f 287 339 288
f 288 340 289
f 288 339 341
f 288 341 342
f 288 342 340
f 289 340 290
f 290 340 342
f 290 342 291
f 291 342 343
f 291 343 292
f 292 343 344
f 292 344 345
f 292 345 346
f 292 346 347
f 292 347 293
f 293 347 294
f 294 347 295
f 295 347 348
f 295 348 296
f 296 348 349
f 296 349 350
f 296 350 298
f 297 298 350
f 297 350 351
f 297 351 352
f 297 352 299
f 299 302 300
f 299 352 353
f 299 353 302
f 301 302 353
f 301 353 354
f 301 354 355
f 301 355 356
f 301 356 303
f 303 357 304
f 303 356 357
f 304 357 358
f 304 358 307
f 305 308 359
f 305 359 306
f 306 359 309
f 307 358 360
f 307 360 308
f 308 360 361
f 308 361 362
f 308 362 315
f 308 315 311
f 308 311 359
f 309 359 310
f 310 359 311
f 311 315 312
f 313 316 363
f 313 363 364
f 313 364 365
f 313 365 314
f 314 365 317
f 315 362 363
f 315 363 316
f 317 365 366
f 317 366 318
f 318 366 367
f 318 367 368
f 318 368 369
f 318 369 319
f 319 369 320
f 320 369 321
f 321 369 370
f 321 370 322
f 322 370 371
f 322 371 323
f 323 371 324
f 324 371 372
f 324 372 328
f 325 326 373
f 325 373 330
f 326 328 373
f 328 372 374
f 328 374 375
f 328 375 373
f 329 331 376
f 329 376 377
f 329 377 332
f 330 373 378
f 330 378 331
f 331 378 376
f 332 377 333
f 333 377 379
f 333 379 334
f 334 379 380
f 334 380 335
f 335 380 381
f 335 381 382
f 335 382 336
f 336 382 383
f 336 383 337
f 337 383 384
f 337 384 385
f 337 385 338
f 338 385 386
f 338 386 387
f 338 387 339
f 339 387 388
f 339 388 341
f 341 388 389
f 341 389 342
f 342 389 343
f 343 389 344
f 344 389 390
f 344 390 345
f 345 390 346
f 346 348 347
f 346 390 391
f 346 391 392
f 346 392 393
f 346 393 348
f 348 393 349
f 349 393 394
f 349 394 350
f 350 394 351
f 351 394 395
f 351 395 353
f 351 353 352
f 353 395 354
f 354 396 355
f 354 395 394
f 354 394 397
f 354 397 396
f 355 396 356
f 356 396 398
f 356 398 357
f 357 399 358
f 357 398 400
f 357 400 399
f 358 399 401
f 358 401 402
f 358 402 360
f 360 402 403
f 360 403 361
f 361 403 404
f 361 404 362
f 362 404 363
f 363 404 405
f 363 405 364
f 364 366 365
f 364 405 406
f 364 406 407
f 364 407 366
f 366 407 367
f 367 407 408
f 367 408 409
f 367 409 368
f 368 409 410
f 368 410 370
f 368 370 369
f 370 410 371
f 371 410 374
f 371 374 372
f 373 375 411
f 373 411 378
f 374 410 412
f 374 412 413
f 374 413 414
f 374 414 375
f 375 414 411
f 376 378 415
f 376 415 416
f 376 416 377
f 377 416 379
f 378 411 415
f 379 416 417
f 379 417 381
f 379 381 380
f 381 417 418
f 381 418 419
f 381 419 420
f 381 420 421
f 381 421 422
f 381 422 382
f 382 422 383
f 383 422 421
f 383 421 384
f 384 421 423
f 384 423 385
f 385 423 386
f 386 423 424
f 386 424 425
f 386 425 426
f 386 426 387
f 387 426 388
f 388 426 427
f 388 427 390
f 388 390 389
f 390 427 428
f 390 428 391
f 391 428 427
f 391 427 392
f 392 429 397
f 392 397 394
f 392 394 393
f 392 427 429
f 396 397 430
f 396 430 398
f 397 429 430
f 398 430 400
f 399 400 401
f 400 430 431
f 400 431 432
f 400 432 401
f 401 433 402
f 401 432 443
f 401 443 433
f 402 433 403
f 403 433 434
f 403 434 435
f 403 435 404
f 404 435 436
f 404 436 405
f 405 436 406
f 406 436 437
f 406 437 407
f 407 437 408
f 408 437 438
f 408 438 439
f 408 439 409
f 409 439 412
f 409 412 410
f 411 414 440
f 411 440 441
f 411 441 415
f 412 439 413
f 413 439 414
f 414 439 440
f 415 441 438
f 415 438 416
f 416 438 442
f 416 442 417
f 417 442 438
f 417 438 418
f 418 437 436
f 418 436 419
f 418 438 437
f 419 436 435
f 419 435 434
f 419 434 420
f 420 434 433
f 420 433 443
f 420 443 421
f 421 443 424
f 421 424 423
f 424 443 425
f 425 443 432
f 425 432 431
f 425 431 444
f 425 444 445
f 425 445 426
f 426 445 427
f 427 445 444
f 427 444 429
f 429 444 431
f 429 431 430
f 438 441 440
f 438 440 439

