# https://github.com/mikedh/trimesh

o geometry_0
v -0.10962707 -0.15476558 -0.01871380
v -0.10962707 -0.15476558 -0.01840983
v -0.10979470 -0.15470787 -0.01840983
v -0.10962707 -0.15439271 -0.18693965
v -0.10962707 -0.15476114 -0.01107112
v -0.10978825 -0.15470343 -0.01107112
v -0.12824328 -0.14247863 -0.19427836
v -0.12816914 -0.14245200 -0.20157364
v -0.10962707 -0.15426842 -0.19427836
v -0.10962707 -0.15472119 -0.00373241
v -0.12800473 -0.14229663 -0.09166667
v -0.12822394 -0.14247863 -0.18693965
v -0.10973345 -0.15468124 -0.00373241
v -0.13190205 -0.13950454 -0.19427836
v -0.13183113 -0.13944240 -0.20157364
v -0.12802730 -0.14235877 -0.20891236
v -0.10962707 -0.15426398 -0.19436520
v -0.10962707 -0.15464129 0.00608149
v -0.13166350 -0.13916718 -0.09166667
v -0.13169574 -0.13922046 -0.09900539
v -0.13179889 -0.13940245 -0.14295080
v -0.13181179 -0.13942464 -0.15028951
v -0.12803375 -0.14230107 -0.09900539
v -0.11421101 -0.15129433 0.01085816
v -0.11421101 -0.15121887 0.01819688
v -0.11307631 -0.14970520 0.20136070
v -0.12732456 -0.14201254 -0.04038254
v -0.10962707 -0.15459246 0.01085816
v -0.13386199 -0.13585575 -0.19427836
v -0.13385232 -0.13578916 -0.20157364
v -0.13381041 -0.13574921 -0.14295080
v -0.13382008 -0.13577141 -0.15028951
v -0.13382331 -0.13564267 -0.20891236
v -0.13168930 -0.13929148 -0.20891236
v -0.12702477 -0.14163523 -0.21425355
v -0.11767315 -0.14757451 -0.21169151
v -0.12102244 -0.14626947 -0.20912948
v -0.10962707 -0.15343389 -0.20278953
v -0.10962707 -0.15357595 -0.20157364
v -0.13368148 -0.13551395 -0.09166667
v -0.12664116 -0.14155533 0.01819688
v -0.12456195 -0.13988185 0.18672669
v -0.12780809 -0.13611321 0.19406540
v -0.13251776 -0.13309917 0.07317207
v -0.13371048 -0.13557165 -0.09900539
v -0.10962707 -0.15450813 0.01819688
v -0.10962707 -0.15184920 0.19406540
v -0.10962707 -0.15168497 0.20127384
v -0.11284744 -0.14943886 0.20869940
v -0.11673508 -0.14656244 0.20136070
v -0.13657624 -0.12945481 -0.19427836
v -0.13658592 -0.12945481 -0.20157364
v -0.13382975 -0.13578029 -0.15762823
v -0.13653756 -0.12945481 -0.20891236
v -0.13638606 -0.12945481 -0.12097810
v -0.13641185 -0.12945481 -0.12831680
v -0.13337523 -0.13474602 -0.21486149
v -0.11278940 -0.14890176 -0.21451409
v -0.13214382 -0.13288167 -0.21972502
v -0.12287601 -0.13892305 -0.21911708
v -0.11482349 -0.14583889 -0.21668531
v -0.11482349 -0.14962974 -0.20912948
v -0.10962707 -0.15204007 -0.20878208
v -0.13620231 -0.12945481 -0.09166667
v -0.13626034 -0.12945481 -0.09900539
v -0.12442656 -0.13976644 0.19406540
v -0.12773717 -0.13596672 0.20136070
v -0.13205679 -0.13188291 0.12810385
v -0.13336878 -0.12822967 0.12810385
v -0.13609915 -0.12945481 -0.08432796
v -0.13634737 -0.12945481 -0.11363938
v -0.10962707 -0.15112566 0.20869940
v -0.11194160 -0.14870200 0.21382347
v -0.11650943 -0.14628722 0.20869940
v -0.12395269 -0.13946459 0.20869940
v -0.12426538 -0.13961996 0.20136070
v -0.13891012 -0.12262774 -0.20157364
v -0.13889078 -0.12259223 -0.20891236
v -0.13991588 -0.11876588 -0.21290740
v -0.13879408 -0.12216166 -0.12831680
v -0.13874250 -0.12214833 -0.11363938
v -0.13464210 -0.13004963 -0.21685901
v -0.10962707 -0.14944330 -0.21520888
v -0.10962707 -0.15121443 -0.21151782
v -0.10962707 -0.14670449 -0.21850913
v -0.13984496 -0.11122414 -0.21989870
v -0.13340746 -0.12801660 -0.22055006
v -0.12936508 -0.13004963 -0.22076719
v -0.12726330 -0.13405354 -0.22024609
v -0.11421101 -0.14181723 -0.22059351
v -0.10962707 -0.14516418 -0.21989870
v -0.13851040 -0.12214833 -0.08432796
v -0.13859422 -0.12214833 -0.09166667
v -0.13870060 -0.12214833 -0.10634409
v -0.13865224 -0.12214833 -0.09900539
v -0.12757278 -0.13581580 0.20869940
v -0.13139917 -0.12975666 0.20136070
v -0.13147008 -0.12996972 0.19406540
v -0.13199553 -0.13170091 0.13544256
v -0.13329786 -0.12804767 0.13544256
v -0.13526747 -0.12214833 0.12810385
v -0.10962707 -0.14920361 0.21443141
v -0.10962707 -0.14767217 0.21612496
v -0.12544198 -0.13336995 0.21985947
v -0.12651544 -0.13461729 0.21603811
v -0.13997714 -0.11897451 -0.20157364
v -0.13996746 -0.11893900 -0.20891236
v -0.13898749 -0.12142035 -0.12149918
v -0.14225299 -0.10942193 -0.21086645
v -0.14140519 -0.10942193 -0.21607738
v -0.14032851 -0.11413607 -0.21572998
v -0.13801397 -0.12158016 -0.21572998
v -0.14107960 -0.11484630 -0.20891236
v -0.14252055 -0.10942193 -0.20891236
v -0.13983208 -0.11847290 -0.11941481
v -0.14081848 -0.10942193 -0.21811831
v -0.14004805 -0.10942193 -0.22007240
v -0.13438099 -0.12214833 -0.22107117
v -0.10962707 -0.13700099 -0.22176596
v -0.10962707 -0.14287813 -0.22107117
v -0.13965155 -0.11778487 -0.07703267
v -0.13970635 -0.11798019 -0.08432796
v -0.13976438 -0.11821100 -0.09900539
v -0.13981596 -0.11841076 -0.11363938
v -0.13979016 -0.11831311 -0.10634409
v -0.13141206 -0.12876678 0.20817830
v -0.12929094 -0.12945481 0.21603811
v -0.13253710 -0.12587704 0.20539915
v -0.13260802 -0.12610343 0.20136070
v -0.13725643 -0.11484630 0.12810385
v -0.13740149 -0.11484630 0.12076514
v -0.10962707 -0.14555480 0.21790536
v -0.11168694 -0.14147543 0.22020684
v -0.12641874 -0.12945481 0.22046742
v -0.13240170 -0.11824653 0.21946863
v -0.14108604 -0.11484630 -0.19427836
v -0.14110861 -0.11484630 -0.20157364
v -0.13984174 -0.11849954 -0.12427834
v -0.14255600 -0.10942193 -0.20157364
v -0.14060251 -0.11556097 -0.12149918
v -0.14231745 -0.10942193 -0.14295080
v -0.14246897 -0.10942193 -0.17417290
v -0.14252699 -0.10942193 -0.18880689
v -0.13915511 -0.10942193 -0.22046322
v -0.13624099 -0.10942193 -0.22128830
v -0.12885575 -0.12214833 -0.22141854
v -0.13437132 -0.10942193 -0.22133170
v -0.13009685 -0.10942193 -0.22107117
v -0.10962707 -0.13431100 -0.22124485
v -0.14059928 -0.11413163 -0.07703267
v -0.14064442 -0.11432694 -0.08432796
v -0.14067342 -0.11444680 -0.09166667
v -0.14073468 -0.11466430 -0.10634409
v -0.14076690 -0.11475753 -0.11363938
v -0.13238558 -0.12529997 0.21026267
v -0.13173765 -0.12257892 0.21664605
v -0.13681802 -0.10942193 0.20683215
v -0.13701465 -0.10942193 0.20136070
v -0.13673420 -0.10942193 0.20869940
v -0.13878118 -0.10942193 0.12076514
v -0.13890046 -0.10942193 0.11346986
v -0.10962707 -0.14204362 0.22038052
v -0.10962707 -0.13944684 0.22081479
v -0.10962707 -0.13661036 0.22116216
v -0.12797895 -0.12214833 0.22107532
v -0.13305609 -0.11337702 0.22020684
v -0.13555438 -0.10942193 0.21616839
v -0.13384910 -0.11542781 0.21664605
v -0.13302385 -0.12043048 0.21456168
v -0.14254633 -0.10942193 -0.19427836
v -0.14255278 -0.10942193 -0.19614561
v -0.14226587 -0.10942193 -0.13565552
v -0.10962707 -0.13224246 -0.22063690
v -0.12894925 -0.10942193 -0.21942104
v -0.14172754 -0.10942193 -0.07703267
v -0.14175332 -0.10942193 -0.07903019
v -0.14182102 -0.10942193 -0.08432796
v -0.14210470 -0.10942193 -0.11363938
v -0.14216273 -0.10942193 -0.12110836
v -0.12901371 -0.10942193 0.22185695
v -0.10962707 -0.13108390 0.22055426
v -0.12331442 -0.10942193 0.22103192
v -0.12951660 -0.11542781 0.22120561
v -0.13355898 -0.10942193 0.22055426
v -0.12691839 -0.10942193 -0.21625106
v -0.10962707 -0.13020943 -0.21625106
v -0.10962707 -0.12844274 0.21603811
v -0.12034872 -0.10942193 0.21608154
v -0.12612538 -0.10942193 -0.20891236
v -0.10962707 -0.12870020 -0.20891236
v -0.10962707 -0.12954803 -0.21351533
v -0.10962707 -0.12770144 0.21212992
v -0.10962707 -0.12726198 0.20869940
v -0.11992320 -0.10942193 0.20852570
v -0.10962707 -0.12851819 -0.20157364
v -0.10962707 -0.12642747 -0.01563068
v -0.10962707 -0.12670267 -0.05228081
v -0.10962707 -0.12820748 -0.17960093
f 1 2 3
f 1 3 4
f 1 4 9
f 1 9 17
f 1 17 39
f 1 39 38
f 1 38 63
f 1 63 84
f 1 84 83
f 1 83 85
f 1 85 91
f 1 91 120
f 1 120 119
f 1 119 149
f 1 149 173
f 1 173 186
f 1 186 191
f 1 191 190
f 1 190 195
f 1 195 198
f 1 198 197
f 1 197 196
f 1 196 193
f 1 193 192
f 1 192 187
f 1 187 181
f 1 181 164
f 1 164 163
f 1 163 162
f 1 162 132
f 1 132 103
f 1 103 102
f 1 102 72
f 1 72 48
f 1 48 47
f 1 47 46
f 1 46 28
f 1 28 18
f 1 18 10
f 1 10 5
f 1 5 2
f 2 5 3
f 3 5 6
f 3 6 7
f 3 7 4
f 4 7 8
f 4 8 9
f 5 10 6
f 6 11 12
f 6 12 7
f 6 10 13
f 6 13 11
f 7 12 14
f 7 14 8
f 8 14 15
f 8 15 16
f 8 16 9
f 9 16 17
f 10 18 13
f 11 19 20
f 11 20 21
f 11 21 22
f 11 22 23
f 11 23 12
f 11 13 24
f 11 24 25
f 11 25 26
f 11 26 27
f 11 27 19
f 12 22 14
f 12 23 22
f 13 18 28
f 13 28 25
f 13 25 24
f 14 29 30
f 14 30 15
f 14 22 31
f 14 31 32
f 14 32 29
f 15 30 33
f 15 33 34
f 15 34 16
f 16 34 35
f 16 35 36
f 16 36 37
f 16 37 38
f 16 38 39
f 16 39 17
f 19 40 20
f 19 27 41
f 19 41 42
f 19 42 43
f 19 43 44
f 19 44 40
f 20 40 45
f 20 45 21
f 21 31 22
f 21 45 31
f 25 28 46
f 25 46 26
f 26 46 47
f 26 47 48
f 26 48 49
f 26 49 50
f 26 50 41
f 26 41 27
f 29 51 52
f 29 52 30
f 29 32 53
f 29 53 51
f 30 52 54
f 30 54 33
f 31 55 56
f 31 56 32
f 31 45 55
f 32 56 51
f 32 51 53
f 33 54 57
f 33 57 34
f 34 57 35
f 35 58 36
f 35 57 59
f 35 59 60
f 35 60 61
f 35 61 58
f 36 62 37
f 36 58 62
f 37 62 38
f 38 62 63
f 40 64 65
f 40 65 45
f 40 44 64
f 41 50 42
f 42 50 66
f 42 66 67
f 42 67 43
f 43 67 44
f 44 67 68
f 44 68 69
f 44 69 70
f 44 70 64
f 45 65 71
f 45 71 55
f 48 72 49
f 49 72 73
f 49 73 74
f 49 74 50
f 50 74 75
f 50 75 76
f 50 76 66
f 51 77 52
f 51 56 77
f 52 77 78
f 52 78 54
f 54 78 79
f 54 79 57
f 55 80 77
f 55 77 56
f 55 71 81
f 55 81 80
f 57 79 82
f 57 82 59
f 58 83 84
f 58 84 62
f 58 61 85
f 58 85 83
f 59 82 86
f 59 86 87
f 59 87 88
f 59 88 89
f 59 89 90
f 59 90 60
f 60 90 91
f 60 91 85
f 60 85 61
f 62 84 63
f 64 70 92
f 64 92 93
f 64 93 95
f 64 95 65
f 65 94 71
f 65 95 94
f 66 76 67
f 67 96 97
f 67 97 98
f 67 98 99
f 67 99 68
f 67 76 96
f 68 99 69
f 69 99 100
f 69 100 101
f 69 101 92
f 69 92 70
f 71 94 81
f 72 102 73
f 73 102 103
f 73 103 104
f 73 104 105
f 73 105 74
f 74 105 75
f 75 105 96
f 75 96 76
f 77 106 107
f 77 107 78
f 77 80 108
f 77 108 106
f 78 107 79
f 79 109 110
f 79 110 111
f 79 111 86
f 79 86 112
f 79 112 82
f 79 107 113
f 79 113 114
f 79 114 109
f 80 81 108
f 81 115 108
f 81 94 115
f 82 112 86
f 86 116 117
f 86 117 118
f 86 118 87
f 86 111 116
f 87 118 88
f 88 118 119
f 88 119 120
f 88 120 89
f 89 120 90
f 90 120 91
f 92 121 122
f 92 122 93
f 92 101 121
f 93 122 123
f 93 123 95
f 94 95 124
f 94 124 115
f 95 123 125
f 95 125 124
f 96 126 97
f 96 105 127
f 96 127 126
f 97 126 128
f 97 128 129
f 97 129 100
f 97 100 98
f 98 100 99
f 100 129 101
f 101 129 130
f 101 130 131
f 101 131 121
f 103 132 104
f 104 132 133
f 104 133 134
f 104 134 135
f 104 135 127
f 104 127 105
f 106 136 137
f 106 137 107
f 106 108 138
f 106 138 136
f 107 137 113
f 108 115 138
f 109 114 139
f 109 139 171
f 109 171 170
f 109 170 143
f 109 143 142
f 109 142 141
f 109 141 172
f 109 172 179
f 109 179 178
f 109 178 177
f 109 177 176
f 109 176 175
f 109 175 161
f 109 161 160
f 109 160 158
f 109 158 157
f 109 157 159
f 109 159 167
f 109 167 184
f 109 184 180
f 109 180 182
f 109 182 188
f 109 188 194
f 109 194 189
f 109 189 185
f 109 185 174
f 109 174 148
f 109 148 147
f 109 147 145
f 109 145 144
f 109 144 117
f 109 117 116
f 109 116 110
f 110 116 111
f 113 137 139
f 113 139 114
f 115 124 140
f 115 140 141
f 115 141 142
f 115 142 143
f 115 143 136
f 115 136 138
f 117 144 118
f 118 145 146
f 118 146 119
f 118 144 145
f 119 146 147
f 119 147 148
f 119 148 149
f 121 150 122
f 121 131 150
f 122 150 151
f 122 151 152
f 122 152 123
f 123 153 154
f 123 154 125
f 123 152 153
f 124 154 140
f 124 125 154
f 126 127 155
f 126 155 128
f 127 135 156
f 127 156 155
f 128 157 158
f 128 158 129
f 128 155 159
f 128 159 157
f 129 158 130
f 130 160 131
f 130 158 160
f 131 160 161
f 131 161 150
f 132 162 133
f 133 162 134
f 134 162 163
f 134 163 164
f 134 164 165
f 134 165 166
f 134 166 135
f 135 167 168
f 135 168 169
f 135 169 156
f 135 166 167
f 136 143 170
f 136 170 171
f 136 171 137
f 137 171 139
f 140 154 141
f 141 154 172
f 145 147 146
f 148 173 149
f 148 174 173
f 150 175 176
f 150 176 177
f 150 177 151
f 150 161 175
f 151 177 178
f 151 178 152
f 152 178 153
f 153 178 179
f 153 179 154
f 154 179 172
f 155 169 159
f 155 156 169
f 159 169 167
f 164 180 165
f 164 181 182
f 164 182 180
f 165 180 183
f 165 183 184
f 165 184 166
f 166 184 167
f 167 169 168
f 173 174 185
f 173 185 186
f 180 184 183
f 181 187 188
f 181 188 182
f 185 189 190
f 185 190 191
f 185 191 186
f 187 192 188
f 188 192 193
f 188 193 194
f 189 195 190
f 189 194 195
f 193 196 194
f 194 196 197
f 194 197 198
f 194 198 195

o geometry_1
v 0.00297002 -0.13675810 -0.22356243
v 0.00297002 -0.14405895 -0.22204098
v -0.02632984 -0.14405895 -0.22199083
v -0.07756671 -0.14405895 -0.22188215
v -0.00436252 -0.13675810 -0.22353735
v -0.00436252 -0.12988384 -0.22178184
v 0.00297002 -0.12983915 -0.22178184
v 0.01760479 -0.12985539 -0.22176512
v 0.04687435 -0.13012761 -0.22179020
v 0.07617421 -0.13031043 -0.22176512
v 0.05420689 -0.13675810 -0.22343704
v 0.00297002 -0.14810142 -0.22026039
v -0.03363208 -0.14817049 -0.22032727
v 0.16404347 -0.14405895 -0.22153106
v 0.17137601 -0.14774796 -0.21995110
v -0.08489924 -0.14806486 -0.22024367
v -0.08489924 -0.14405895 -0.22184872
v -0.01166476 -0.12992853 -0.22176512
v -0.07756671 -0.13675810 -0.22310267
v 0.00297002 -0.12619076 -0.21909842
v 0.01030256 -0.12618262 -0.21911514
v 0.01030256 -0.12983509 -0.22176512
v 0.17867825 -0.13109049 -0.22146419
v 0.17867825 -0.13675810 -0.22301905
v 0.16404347 -0.15132728 -0.21625617
v 0.16404347 -0.15493099 -0.21250272
v -0.01166476 -0.15177013 -0.21629797
v -0.01166476 -0.15504068 -0.21263648
v 0.17137601 -0.14405895 -0.22150599
v 0.17613307 -0.14773171 -0.21994274
v -0.08489924 -0.15125822 -0.21625617
v -0.09223179 -0.14797548 -0.22016008
v -0.09223179 -0.14405895 -0.22176512
v -0.01899730 -0.15502850 -0.21261976
v -0.02278477 -0.15501630 -0.21260304
v -0.09223179 -0.13675810 -0.22296053
v -0.01899730 -0.12998541 -0.22173169
v -0.07026447 -0.13061515 -0.22149763
v -0.04829715 -0.13037138 -0.22161466
v -0.01166476 -0.12627607 -0.21890616
v -0.01899730 -0.12510599 -0.21513598
v 0.00297002 -0.12504505 -0.21543693
v 0.01030256 -0.12504099 -0.21545365
v 0.01760479 -0.12620295 -0.21905662
v 0.06884166 -0.12658078 -0.21827918
v 0.17137601 -0.12742178 -0.21674938
v 0.17867825 -0.12743803 -0.21656547
v 0.18601079 -0.13135457 -0.22129700
v 0.18601079 -0.13675810 -0.22267632
v 0.18601079 -0.14334796 -0.22130534
v 0.17861764 -0.14476181 -0.22117995
v 0.17137601 -0.15488630 -0.21241912
v 0.16404347 -0.15814467 -0.20884123
v 0.16404347 -0.16179711 -0.20460292
v 0.18101132 -0.14766264 -0.21989258
v -0.07756671 -0.15465065 -0.21180888
v -0.08489924 -0.15455314 -0.21164168
v -0.09223179 -0.16326378 -0.19911068
v -0.09223179 -0.15101851 -0.21625617
v -0.09741304 -0.14782922 -0.22002633
v -0.09974612 -0.14471712 -0.22127190
v -0.10686657 -0.14351047 -0.22135549
v -0.09956432 -0.13675810 -0.22284350
v -0.08489924 -0.13090360 -0.22142239
v -0.07756671 -0.13072890 -0.22145583
v -0.01899730 -0.12633295 -0.21879747
v -0.02632984 -0.12514256 -0.21492699
v -0.01899730 -0.12436656 -0.20893318
v -0.01166476 -0.12433406 -0.20893318
v 0.00297002 -0.12428125 -0.20893318
v 0.01030256 -0.12428937 -0.20893318
v 0.07617421 -0.12455751 -0.20893318
v 0.17137601 -0.12497597 -0.20893318
v 0.06884166 -0.12519943 -0.21461769
v 0.01760479 -0.12506942 -0.21539513
v 0.17137601 -0.12561384 -0.21308788
v 0.17867825 -0.12568696 -0.21290398
v 0.18258692 -0.12576416 -0.21269499
v 0.18543509 -0.12753148 -0.21558740
v 0.19119205 -0.13210213 -0.22073690
v 0.19204044 -0.13675810 -0.22112979
v 0.19128293 -0.14194223 -0.22072018
v 0.18601079 -0.14699634 -0.21926561
v 0.17861764 -0.15033596 -0.21697509
v 0.17867825 -0.15462628 -0.21170019
v 0.17137601 -0.16130553 -0.20383384
v 0.17137601 -0.16365788 -0.20017234
v 0.16404347 -0.16405197 -0.20093307
v 0.18601079 -0.14999469 -0.21560412
v -0.09223179 -0.16440949 -0.19427885
v -0.09689794 -0.16296313 -0.19873450
v -0.09974612 -0.15001094 -0.21694165
v 0.16404347 -0.16578272 -0.19427885
v -0.10232160 -0.14758951 -0.21983407
v -0.10686657 -0.14715885 -0.21948296
v -0.10962383 -0.14516403 -0.21990094
v -0.10962383 -0.14288073 -0.22107127
v -0.10686657 -0.13675810 -0.22236702
v -0.09956432 -0.13142771 -0.22124682
v -0.09223179 -0.13114331 -0.22135549
v -0.10686657 -0.13189086 -0.22092917
v -0.05559939 -0.12679612 -0.21778597
v -0.04829715 -0.12671892 -0.21802004
v -0.05559939 -0.12536194 -0.21412448
v -0.04829715 -0.12528476 -0.21435018
v -0.01899730 -0.12433406 -0.20160184
v -0.02632984 -0.12443969 -0.20893318
v -0.02632984 -0.12439094 -0.20160184
v -0.01166476 -0.12430562 -0.20160184
v 0.00297002 -0.12430155 -0.20160184
v -0.00436252 -0.12429749 -0.20160184
v 0.17137601 -0.12452094 -0.20160184
v 0.17867825 -0.12513443 -0.20893318
v 0.07617421 -0.12521974 -0.21446722
v 0.18364740 -0.12554071 -0.20893318
v 0.18731367 -0.12621919 -0.20893318
v 0.19352512 -0.13081421 -0.21633976
v 0.19761559 -0.13237433 -0.21394892
v 0.19570670 -0.13675810 -0.21852161
v 0.19785799 -0.14166595 -0.21425823
v 0.19355542 -0.14423770 -0.21666578
v 0.19094965 -0.14872303 -0.21419135
v 0.17564828 -0.16291032 -0.19879301
v 0.17137601 -0.16507173 -0.19427885
v -0.09223179 -0.16451513 -0.18694751
v -0.09786753 -0.16338161 -0.19427885
v -0.10153381 -0.16100488 -0.19427885
v -0.10962383 -0.15203827 -0.20878271
v -0.10962383 -0.15121353 -0.21151629
v -0.10962383 -0.14944215 -0.21521957
v -0.10686657 -0.14991343 -0.21582146
v 0.16404347 -0.16516924 -0.18694751
v -0.10962383 -0.14670382 -0.21852161
v -0.10962383 -0.13700593 -0.22176512
v -0.10962383 -0.13431635 -0.22125518
v -0.10962383 -0.13224433 -0.22064495
v -0.09956432 -0.12855531 -0.21625617
v -0.09223179 -0.12799871 -0.21625617
v -0.08489924 -0.12747866 -0.21625617
v -0.07026447 -0.12696269 -0.21705033
v -0.06293193 -0.12688143 -0.21746830
v -0.10686657 -0.12946538 -0.21625617
v -0.06293193 -0.12546758 -0.21380681
v -0.04829715 -0.12472816 -0.20893318
v -0.03363208 -0.12453314 -0.20893318
v -0.03363208 -0.12458595 -0.15031585
v -0.03363208 -0.12447625 -0.20160184
v -0.04096461 -0.12464689 -0.15031585
v -0.01899730 -0.12441937 -0.17962451
v -0.01166476 -0.12439906 -0.17962451
v 0.17137601 -0.12481346 -0.13816104
v 0.17867825 -0.12491910 -0.13816104
v 0.17867825 -0.12468752 -0.20160184
v 0.18467759 -0.12532537 -0.20160184
v 0.18834387 -0.12608919 -0.20160184
v 0.19334332 -0.12862843 -0.20893318
v 0.19807009 -0.13186242 -0.20893318
v 0.19952447 -0.13675810 -0.20893318
v 0.19810039 -0.13675810 -0.21485175
v 0.19846398 -0.14253132 -0.20893318
v 0.19552491 -0.14617972 -0.20893318
v 0.19185864 -0.14956403 -0.20893318
v 0.17604217 -0.16328410 -0.19427885
v 0.17576946 -0.16301189 -0.18906247
v 0.18385950 -0.15578418 -0.13816104
v 0.17867825 -0.15723866 -0.13816104
v -0.08489924 -0.15800653 -0.13816104
v -0.08741412 -0.15794559 -0.13816104
v -0.09223179 -0.15782370 -0.13816104
v -0.09471637 -0.15755962 -0.13816104
v -0.09956432 -0.15703958 -0.13816104
v -0.09701914 -0.16300377 -0.18214075
v -0.09795844 -0.16341004 -0.18694751
v -0.10162471 -0.16110239 -0.18694751
v -0.10962383 -0.15426876 -0.19427885
v -0.10962383 -0.15426470 -0.19439588
v -0.10962383 -0.15357808 -0.20160184
v -0.10962383 -0.15343182 -0.20283069
v 0.17619367 -0.15749056 -0.13816104
v 0.17137601 -0.15793747 -0.13816104
v 0.16886112 -0.15794153 -0.13816104
v -0.10962383 -0.13020886 -0.21625617
v -0.09956432 -0.12727958 -0.20893318
v -0.07541542 -0.12571541 -0.21295413
v -0.10686657 -0.12811246 -0.20893318
v -0.07774850 -0.12685300 -0.21573787
v -0.07026447 -0.12559759 -0.21338047
v -0.10962383 -0.12954662 -0.21352259
v -0.05559939 -0.12489473 -0.20893318
v -0.04829715 -0.12469565 -0.20160184
v -0.04096461 -0.12457783 -0.20160184
v -0.03363208 -0.12463065 -0.14299287
v -0.02632984 -0.12461033 -0.14299287
v -0.01899730 -0.12459002 -0.14299287
v -0.02632984 -0.12456969 -0.15031585
v -0.04829715 -0.12477690 -0.15031585
v -0.04096461 -0.12469565 -0.14299287
v -0.01166476 -0.12459408 -0.14299287
v -0.01899730 -0.12455345 -0.15031585
v -0.01166476 -0.12463065 -0.13816104
v 0.18431400 -0.12541070 -0.13816104
v 0.18467759 -0.12534163 -0.19427885
v 0.18834387 -0.12608106 -0.19427885
v 0.19334332 -0.12832373 -0.19427885
v 0.19334332 -0.12834403 -0.20160184
v 0.19822158 -0.13170397 -0.20160184
v 0.19985776 -0.13675810 -0.20160184
v 0.19864578 -0.14277103 -0.20160184
v 0.19582790 -0.14641943 -0.20160184
v 0.19216163 -0.14992562 -0.20160184
v 0.19210103 -0.15001094 -0.13816104
v 0.18749547 -0.15366340 -0.13816104
v 0.18510180 -0.15507319 -0.13816104
v -0.10529097 -0.15572730 -0.13816104
v -0.10895724 -0.15440282 -0.13816104
v -0.10962383 -0.15401280 -0.13816104
v -0.10962383 -0.15439064 -0.18694751
v -0.10962383 -0.15439064 -0.18698094
v -0.10686657 -0.12790932 -0.20160184
v -0.10686657 -0.12779557 -0.19427885
v -0.10686657 -0.12758023 -0.17962451
v -0.09956432 -0.12717801 -0.20160184
v -0.09223179 -0.12677173 -0.20893318
v -0.07593053 -0.12568291 -0.20893318
v -0.07026447 -0.12539851 -0.20893318
v -0.06293193 -0.12511411 -0.20893318
v -0.07959679 -0.12589824 -0.20893318
v -0.10962383 -0.12870156 -0.20893318
v -0.05559939 -0.12486222 -0.20160184
v -0.03363208 -0.12467534 -0.13816104
v -0.02632984 -0.12465096 -0.13816104
v -0.02381496 -0.12464283 -0.13816104
v -0.01899730 -0.12463065 -0.13816104
v -0.05559939 -0.12495566 -0.15031585
v -0.05559939 -0.12500036 -0.14299287
v -0.04829715 -0.12482565 -0.14299287
v -0.04578228 -0.12482565 -0.13816104
v -0.04096461 -0.12474440 -0.13816104
v 0.18673798 -0.12589824 -0.13816104
v 0.18798026 -0.12615419 -0.13816104
v 0.18982855 -0.12693831 -0.13816104
v 0.19334332 -0.12843748 -0.13816104
v 0.19819128 -0.13173648 -0.13816104
v 0.19822158 -0.13169585 -0.19427885
v 0.19991836 -0.13675810 -0.19427885
v 0.19867608 -0.14272634 -0.19427885
v 0.19867608 -0.14272634 -0.13816104
v 0.19576730 -0.14637474 -0.13816104
v 0.19337362 -0.14877584 -0.13816104
v -0.10962383 -0.12842936 -0.13816104
v -0.10962383 -0.12851468 -0.20160184
v -0.10962383 -0.12820591 -0.17962451
v -0.10962383 -0.12818965 -0.17689094
v -0.10686657 -0.12755992 -0.17230153
v -0.09956432 -0.12711707 -0.18694751
v -0.09956432 -0.12714146 -0.19427885
v -0.07605171 -0.12567071 -0.15764720
v -0.07026447 -0.12540664 -0.15764720
v -0.06293193 -0.12509787 -0.20160184
v -0.09956432 -0.12710895 -0.17962451
v -0.09956432 -0.12710489 -0.17230153
v -0.06293193 -0.12516693 -0.15031585
v -0.06293193 -0.12521568 -0.14299287
v -0.06044736 -0.12519131 -0.13816104
v -0.05559939 -0.12504911 -0.13816104
v -0.04829715 -0.12487034 -0.13816104
v 0.19931237 -0.13504766 -0.13816104
v 0.19822158 -0.13171616 -0.17962451
v 0.19822158 -0.13170397 -0.18694751
v 0.19988806 -0.13675810 -0.13816104
v 0.19910027 -0.14069088 -0.13816104
v -0.10962383 -0.12840905 -0.14025093
v -0.10686657 -0.12781588 -0.13816104
v -0.10686657 -0.12776712 -0.14299287
v -0.10962383 -0.12817746 -0.17230153
v -0.09956432 -0.12720240 -0.13816104
v -0.09956432 -0.12716989 -0.14299287
v -0.09956432 -0.12713738 -0.15031585
v -0.09956432 -0.12711301 -0.16497018
v -0.07971799 -0.12589418 -0.15764720
v -0.07599111 -0.12567478 -0.15031585
v -0.07026447 -0.12541476 -0.15031585
v -0.07965739 -0.12589824 -0.15031585
v -0.07026447 -0.12546351 -0.14299287
v -0.06774959 -0.12541882 -0.13816104
v -0.06293193 -0.12526850 -0.13816104
v -0.10962383 -0.12838873 -0.14299287
v -0.08489924 -0.12624764 -0.13816104
v -0.08302066 -0.12612981 -0.13816104
v -0.07923320 -0.12590636 -0.13816104
v -0.07574872 -0.12569916 -0.14299287
v -0.07556692 -0.12571541 -0.13816104
v -0.07368834 -0.12563415 -0.13816104
v -0.07026447 -0.12550414 -0.13816104
f 199 200 201
f 199 201 202
f 199 202 203
f 199 203 204
f 199 204 205
f 199 205 206
f 199 206 207
f 199 207 208
f 199 208 209
f 199 209 200
f 200 210 211
f 200 211 201
f 200 209 212
f 200 212 213
f 200 213 210
f 201 211 202
f 202 214 215
f 202 215 203
f 202 211 214
f 203 216 204
f 203 215 217
f 203 217 216
f 204 216 218
f 204 218 205
f 205 218 219
f 205 219 220
f 205 220 206
f 206 220 219
f 206 219 208
f 206 208 207
f 208 221 222
f 208 222 209
f 208 219 221
f 209 222 212
f 210 213 223
f 210 223 224
f 210 224 211
f 211 225 226
f 211 226 214
f 211 224 225
f 212 222 227
f 212 227 228
f 212 228 213
f 213 228 224
f 213 224 223
f 214 229 230
f 214 230 231
f 214 231 215
f 214 226 232
f 214 232 233
f 214 233 229
f 215 231 234
f 215 234 217
f 216 217 235
f 216 235 218
f 217 234 236
f 217 236 237
f 217 237 235
f 218 238 239
f 218 239 240
f 218 240 219
f 218 235 236
f 218 236 238
f 219 240 241
f 219 241 242
f 219 242 221
f 221 243 244
f 221 244 245
f 221 245 246
f 221 246 222
f 221 242 243
f 222 246 247
f 222 247 248
f 222 248 249
f 222 249 227
f 224 228 250
f 224 250 251
f 224 251 226
f 224 226 225
f 226 251 252
f 226 252 232
f 227 249 228
f 228 249 253
f 228 253 250
f 229 254 255
f 229 255 256
f 229 256 257
f 229 257 230
f 229 233 254
f 230 257 258
f 230 258 259
f 230 259 231
f 231 259 260
f 231 260 261
f 231 261 234
f 232 252 233
f 233 252 256
f 233 256 254
f 234 261 262
f 234 262 263
f 234 263 236
f 235 237 236
f 236 263 238
f 238 264 239
f 238 263 264
f 239 264 265
f 239 265 266
f 239 266 267
f 239 267 240
f 240 268 241
f 240 267 268
f 241 269 270
f 241 270 271
f 241 271 272
f 241 272 273
f 241 273 242
f 241 268 269
f 242 273 272
f 242 272 274
f 242 274 243
f 243 274 245
f 243 245 244
f 245 275 276
f 245 276 277
f 245 277 246
f 245 274 275
f 246 277 278
f 246 278 247
f 247 278 279
f 247 279 280
f 247 280 248
f 248 281 253
f 248 253 249
f 248 280 281
f 250 252 251
f 250 253 282
f 250 282 283
f 250 283 252
f 252 283 284
f 252 284 285
f 252 285 286
f 252 286 256
f 253 281 287
f 253 287 283
f 253 283 282
f 254 256 255
f 256 288 289
f 256 289 290
f 256 290 257
f 256 286 291
f 256 291 288
f 257 290 258
f 258 290 292
f 258 292 259
f 259 292 260
f 260 293 294
f 260 294 295
f 260 295 296
f 260 296 261
f 260 292 293
f 261 297 298
f 261 298 262
f 261 296 299
f 261 299 297
f 262 298 300
f 262 300 301
f 262 301 264
f 262 264 263
f 264 301 300
f 264 300 302
f 264 302 303
f 264 303 265
f 265 303 266
f 266 304 267
f 266 303 305
f 266 305 306
f 266 306 304
f 267 304 307
f 267 307 268
f 268 308 269
f 268 307 309
f 268 309 308
f 269 308 310
f 269 310 270
f 270 310 271
f 271 310 311
f 271 311 275
f 271 275 274
f 271 274 312
f 271 312 272
f 272 312 274
f 275 311 276
f 276 313 314
f 276 314 277
f 276 311 313
f 277 314 315
f 277 315 278
f 278 315 316
f 278 316 317
f 278 317 279
f 279 317 280
f 280 317 318
f 280 318 319
f 280 319 320
f 280 320 281
f 281 320 287
f 283 287 285
f 283 285 284
f 285 287 321
f 285 321 322
f 285 322 291
f 285 291 286
f 287 320 321
f 288 323 324
f 288 324 289
f 288 291 323
f 289 324 325
f 289 325 326
f 289 326 327
f 289 327 328
f 289 328 329
f 289 329 290
f 290 329 292
f 291 322 330
f 291 330 323
f 292 329 293
f 293 329 328
f 293 328 331
f 293 331 294
f 294 331 328
f 294 328 327
f 294 327 326
f 294 326 376
f 294 376 375
f 294 375 374
f 294 374 373
f 294 373 416
f 294 416 415
f 294 415 414
f 294 414 448
f 294 448 470
f 294 470 485
f 294 485 473
f 294 473 451
f 294 451 450
f 294 450 449
f 294 449 426
f 294 426 386
f 294 386 380
f 294 380 334
f 294 334 333
f 294 333 332
f 294 332 295
f 295 332 296
f 296 332 333
f 296 333 334
f 296 334 299
f 297 335 336
f 297 336 337
f 297 337 338
f 297 338 339
f 297 339 298
f 297 299 335
f 298 339 300
f 299 334 340
f 299 340 335
f 300 339 302
f 302 339 341
f 302 341 342
f 302 342 303
f 303 342 343
f 303 343 305
f 304 306 344
f 304 344 307
f 305 343 345
f 305 345 306
f 306 345 346
f 306 346 344
f 307 344 347
f 307 347 348
f 307 348 309
f 308 309 348
f 308 348 349
f 308 349 310
f 310 349 350
f 310 350 351
f 310 351 311
f 311 351 313
f 313 352 314
f 313 351 352
f 314 352 353
f 314 353 354
f 314 354 315
f 315 354 316
f 316 355 356
f 316 356 357
f 316 357 317
f 316 354 355
f 317 357 318
f 318 357 356
f 318 356 358
f 318 358 359
f 318 359 320
f 318 320 319
f 320 359 360
f 320 360 321
f 321 360 361
f 321 361 322
f 322 361 362
f 322 362 363
f 322 363 364
f 322 364 330
f 323 365 366
f 323 366 367
f 323 367 368
f 323 368 369
f 323 369 370
f 323 370 371
f 323 371 324
f 323 330 365
f 324 371 372
f 324 372 325
f 325 372 373
f 325 373 374
f 325 374 375
f 325 375 376
f 325 376 326
f 330 364 377
f 330 377 378
f 330 378 379
f 330 379 365
f 334 380 340
f 335 381 382
f 335 382 336
f 335 340 383
f 335 383 381
f 336 382 337
f 337 382 384
f 337 384 338
f 338 384 385
f 338 385 341
f 338 341 339
f 340 380 386
f 340 386 383
f 341 385 342
f 342 385 387
f 342 387 427
f 342 427 388
f 342 388 389
f 342 389 345
f 342 345 343
f 344 390 391
f 344 391 392
f 344 392 393
f 344 393 348
f 344 348 347
f 344 346 390
f 345 389 346
f 346 389 388
f 346 388 394
f 346 394 434
f 346 434 395
f 346 395 390
f 348 396 349
f 348 393 397
f 348 397 392
f 348 392 396
f 349 396 398
f 349 398 431
f 349 431 430
f 349 430 429
f 349 429 428
f 349 428 436
f 349 436 435
f 349 435 464
f 349 464 463
f 349 463 462
f 349 462 484
f 349 484 483
f 349 483 492
f 349 492 491
f 349 491 490
f 349 490 488
f 349 488 487
f 349 487 486
f 349 486 474
f 349 474 471
f 349 471 448
f 349 448 414
f 349 414 413
f 349 413 412
f 349 412 369
f 349 369 368
f 349 368 367
f 349 367 366
f 349 366 365
f 349 365 379
f 349 379 378
f 349 378 377
f 349 377 364
f 349 364 363
f 349 363 411
f 349 411 410
f 349 410 409
f 349 409 447
f 349 447 446
f 349 446 445
f 349 445 469
f 349 469 468
f 349 468 465
f 349 465 441
f 349 441 440
f 349 440 439
f 349 439 438
f 349 438 437
f 349 437 399
f 349 399 350
f 350 399 351
f 351 399 352
f 352 399 400
f 352 400 401
f 352 401 353
f 353 401 402
f 353 402 403
f 353 403 354
f 354 403 355
f 355 404 405
f 355 405 356
f 355 403 404
f 356 405 358
f 358 405 406
f 358 406 407
f 358 407 359
f 359 408 360
f 359 407 408
f 360 408 361
f 361 408 409
f 361 409 410
f 361 410 411
f 361 411 363
f 361 363 362
f 369 412 371
f 369 371 370
f 371 412 413
f 371 413 414
f 371 414 372
f 372 414 415
f 372 415 416
f 372 416 373
f 381 383 417
f 381 417 418
f 381 418 419
f 381 419 420
f 381 420 421
f 381 421 382
f 382 422 423
f 382 423 424
f 382 424 387
f 382 387 385
f 382 385 384
f 382 421 425
f 382 425 422
f 383 386 426
f 383 426 417
f 387 424 427
f 388 427 394
f 390 395 428
f 390 428 429
f 390 429 430
f 390 430 391
f 391 430 392
f 392 397 393
f 392 430 431
f 392 431 398
f 392 398 396
f 394 427 432
f 394 432 433
f 394 433 434
f 395 434 435
f 395 435 436
f 395 436 428
f 399 437 400
f 400 437 401
f 401 438 439
f 401 439 440
f 401 440 402
f 401 437 438
f 402 440 441
f 402 441 442
f 402 442 404
f 402 404 403
f 404 442 443
f 404 443 405
f 405 443 406
f 406 444 445
f 406 445 407
f 406 443 444
f 407 445 446
f 407 446 447
f 407 447 409
f 407 409 408
f 417 426 449
f 417 449 418
f 418 449 419
f 419 449 450
f 419 450 451
f 419 451 452
f 419 452 453
f 419 453 454
f 419 454 420
f 420 454 425
f 420 425 421
f 422 425 455
f 422 455 423
f 423 455 456
f 423 456 457
f 423 457 424
f 424 457 427
f 425 454 453
f 425 453 458
f 425 458 459
f 425 459 455
f 427 457 460
f 427 460 432
f 432 460 433
f 433 460 461
f 433 461 462
f 433 462 463
f 433 463 464
f 433 464 434
f 434 464 435
f 441 465 466
f 441 466 467
f 441 467 442
f 442 467 443
f 443 468 469
f 443 469 444
f 443 467 468
f 444 469 445
f 448 471 472
f 448 472 470
f 451 473 452
f 452 473 472
f 452 472 474
f 452 474 475
f 452 475 476
f 452 476 477
f 452 477 459
f 452 459 458
f 452 458 453
f 455 459 478
f 455 478 481
f 455 481 479
f 455 479 456
f 456 479 480
f 456 480 457
f 457 480 460
f 459 477 481
f 459 481 478
f 460 480 482
f 460 482 461
f 461 482 483
f 461 483 484
f 461 484 462
f 465 468 466
f 466 468 467
f 470 472 485
f 471 474 472
f 472 473 485
f 474 486 475
f 475 486 476
f 476 486 487
f 476 487 481
f 476 481 477
f 479 481 487
f 479 487 488
f 479 488 489
f 479 489 480
f 480 489 490
f 480 490 491
f 480 491 482
f 482 491 492
f 482 492 483
f 488 490 489

o geometry_2
v -0.18743557 0.12616025 0.22273906
v -0.18743557 0.13346859 0.22264535
v -0.19476107 0.14808528 0.22206237
v -0.18743557 0.11887827 0.22232264
v -0.15083243 -0.02718319 0.22219769
v -0.15083243 -0.01987484 0.22253083
v -0.18170362 0.12616025 0.22134405
v -0.18254106 0.13346859 0.22090679
v -0.18675261 0.14138377 0.22160429
v -0.18838683 0.14808528 0.22142732
v -0.13618141 -0.07100691 0.22234344
v -0.15240159 0.00933217 0.22123993
v -0.19901328 0.14808528 0.22034462
v -0.19524077 0.14075055 0.22145856
v -0.19366347 0.13346859 0.22145856
v -0.18983404 0.15304546 0.22068817
v -0.19476107 0.15328292 0.22081311
v -0.19890759 0.15251780 0.22020927
v -0.15709285 -0.01256649 0.22136485
v -0.14984864 -0.04179989 0.22130241
v -0.14350691 -0.05639021 0.22215605
v -0.13618141 -0.07831526 0.22238508
v -0.17603672 0.11156992 0.22012599
v -0.18322401 0.13932583 0.22030298
v -0.13138446 -0.07100691 0.22075064
v -0.15327155 0.01664052 0.22079228
v -0.13203489 -0.06525521 0.22020927
v -0.18385818 0.14420685 0.21892878
v -0.12886403 -0.10752228 0.22205197
v -0.12886403 -0.10021392 0.22194786
v -0.12331909 -0.10942192 0.22105254
v -0.12353861 -0.10752228 0.22100047
v -0.13065272 -0.07831526 0.22114623
v -0.14514113 -0.01987484 0.22120870
v -0.20056620 0.14808528 0.21604504
v -0.19872872 0.14315150 0.22006355
v -0.19276913 0.12616025 0.22111499
v -0.18923239 0.15544641 0.21538919
v -0.19104547 0.15908738 0.21249504
v -0.19476107 0.15695030 0.21641983
v -0.19863116 0.15919293 0.21276573
v -0.19958241 0.15512980 0.21554535
v -0.15616598 -0.01987484 0.22103171
v -0.14884047 -0.04910824 0.22099007
v -0.14232801 -0.07100691 0.22131281
v -0.13481549 -0.10021392 0.22115666
v -0.13618141 -0.08562360 0.22193743
v -0.17644324 0.11523729 0.21971998
v -0.12433539 -0.10021392 0.22050078
v -0.12489638 -0.09522737 0.22002188
v -0.13265281 -0.06037418 0.21928274
v -0.14725504 -0.00185461 0.21945972
v -0.18292319 0.14138377 0.21631573
v -0.18366305 0.14478730 0.21404622
v -0.18493141 0.14755762 0.21631573
v -0.17624811 0.11597603 0.21604504
v -0.12901852 -0.10942192 0.22185415
v -0.12035148 -0.10942192 0.21608670
v -0.20163127 0.14808528 0.20872642
v -0.19926533 0.14075055 0.21607628
v -0.20087516 0.15539365 0.20872642
v -0.16999581 0.03123084 0.22051118
v -0.19801324 0.13827046 0.21853318
v -0.15422280 -0.03731463 0.21881426
v -0.15481633 -0.03245998 0.22004272
v -0.15536106 -0.02718319 0.22051118
v -0.18829739 0.15539365 0.20872642
v -0.19086661 0.15921931 0.20872642
v -0.19476107 0.15961506 0.20872642
v -0.19476107 0.15919293 0.21275531
v -0.19894011 0.15943039 0.20872642
v -0.14801930 -0.05639021 0.22049037
v -0.14138488 -0.07831526 0.22094843
v -0.13379919 -0.10752228 0.22076104
v -0.16880878 0.08732308 0.21465003
v -0.14677534 -0.00008689 0.21457716
v -0.12494517 -0.08815647 0.21372350
v -0.13149016 -0.06317088 0.21652394
v -0.13221376 -0.05876476 0.21440018
v -0.18366305 0.14478730 0.21145399
v -0.18476066 0.14755762 0.20889299
v -0.17618307 0.11621349 0.21098552
v -0.13356342 -0.10942192 0.22058405
v -0.11992057 -0.10942192 0.20853902
v -0.20117598 0.15539365 0.20139737
v -0.20230610 0.14808528 0.18673929
v -0.20094833 0.14077693 0.18673929
v -0.20016780 0.14077693 0.20872642
v -0.19869620 0.13600145 0.21365062
v -0.16941857 0.01914700 0.21378596
v -0.15473502 -0.03908235 0.21393171
v -0.14000271 -0.09710063 0.21320297
v -0.14053931 -0.09272089 0.21580561
v -0.13929535 -0.09504267 0.21809594
v -0.14005148 -0.09018804 0.21992820
v -0.14747456 -0.06129762 0.22003231
v -0.19093165 0.15919293 0.11640543
v -0.19075278 0.15929846 0.20139737
v -0.19476107 0.15985253 0.20139737
v -0.19913524 0.15958868 0.20139737
v -0.14056371 -0.08562360 0.22037586
v -0.16880878 0.08732308 0.21074607
v -0.14677534 -0.00008689 0.21026718
v -0.12494517 -0.08815647 0.21101674
v -0.13221376 -0.05876476 0.21081895
v -0.18709409 0.14808528 0.11640543
v -0.18843561 0.15246501 0.11640543
v -0.18934621 0.15539365 0.11640543
v -0.19028934 0.15768904 0.11640543
v -0.13556349 -0.10942192 0.21619080
v -0.12276623 -0.10942192 0.11640543
v -0.20137923 0.15539365 0.18673929
v -0.20243619 0.14808528 0.17941024
v -0.20113533 0.14077693 0.17941024
v -0.19951737 0.13346859 0.17941024
v -0.19915150 0.13283538 0.18683298
v -0.19888320 0.13518353 0.20872642
v -0.19800512 0.13151618 0.20872642
v -0.19667985 0.12616025 0.20872642
v -0.16863804 0.01495195 0.20872642
v -0.15486512 -0.03958364 0.20872642
v -0.14135235 -0.09290558 0.20872642
v -0.14013279 -0.09757554 0.20872642
v -0.13674241 -0.10942192 0.20872642
v -0.19476107 0.16011637 0.11640543
v -0.19948485 0.15993167 0.11640543
v -0.19931411 0.15977338 0.15744392
v -0.19934663 0.15979976 0.15011488
v -0.20163942 0.15539365 0.15744392
v -0.13885632 -0.10942192 0.11640543
v -0.20285085 0.14808528 0.13545679
v -0.20208659 0.14077693 0.11640543
v -0.20197276 0.14077693 0.12812775
v -0.20186706 0.14077693 0.13545679
v -0.20027350 0.13346859 0.13545679
v -0.19847667 0.12959015 0.18445937
v -0.19860676 0.12903609 0.17208120
v -0.19767177 0.12568532 0.17941024
v -0.19769616 0.12676707 0.18683298
v -0.19576112 0.11887827 0.18673929
v -0.19108612 0.10064697 0.19008108
v -0.14150684 -0.09290558 0.20139737
v -0.14022222 -0.09791853 0.20139737
v -0.19191543 0.10354921 0.18728063
v -0.19116744 0.10035675 0.18518811
v -0.19416755 0.11156992 0.17941024
v -0.19230570 0.10426157 0.17941024
v -0.13701885 -0.10942192 0.20139737
v -0.13682371 -0.10942192 0.20683169
v -0.20188332 0.15539365 0.11640543
v -0.20298093 0.14808528 0.11640543
v -0.20290776 0.14808528 0.12812775
v -0.13879128 -0.10942192 0.12079871
v -0.13914088 -0.10831379 0.11640543
v -0.20244432 0.14367916 0.11640543
v -0.20115972 0.13639720 0.11640543
v -0.20053367 0.13346859 0.11640543
v -0.20039546 0.13346859 0.12812775
v -0.19773681 0.12536872 0.17208120
v -0.19599690 0.11887827 0.17941024
v -0.19614324 0.11887827 0.17208120
v -0.19393990 0.11156992 0.18673929
v -0.19430577 0.11156992 0.17208120
v -0.19441147 0.11156992 0.16477297
v -0.19806203 0.12397038 0.12812775
v -0.19811080 0.12378568 0.12079871
v -0.19813520 0.12368015 0.11640543
v -0.19962307 0.12972207 0.11640543
v -0.19903767 0.12732112 0.11640543
v -0.19867994 0.12587002 0.11640543
f 493 494 495
f 493 495 496
f 493 496 497
f 493 497 498
f 493 498 494
f 494 499 500
f 494 500 501
f 494 501 502
f 494 502 495
f 494 498 503
f 494 503 504
f 494 504 499
f 495 505 506
f 495 506 507
f 495 507 496
f 495 502 508
f 495 508 509
f 495 509 510
f 495 510 505
f 496 507 511
f 496 511 497
f 497 511 512
f 497 512 513
f 497 513 498
f 498 513 514
f 498 514 503
f 499 504 500
f 500 515 516
f 500 516 502
f 500 502 501
f 500 504 517
f 500 517 518
f 500 518 519
f 500 519 515
f 502 516 520
f 502 520 508
f 503 514 521
f 503 521 522
f 503 522 523
f 503 523 524
f 503 524 525
f 503 525 526
f 503 526 504
f 504 526 517
f 505 510 527
f 505 527 528
f 505 528 506
f 506 528 507
f 507 528 529
f 507 529 511
f 508 520 530
f 508 530 531
f 508 531 532
f 508 532 509
f 509 532 533
f 509 533 510
f 510 533 534
f 510 534 527
f 511 535 512
f 511 529 535
f 512 535 536
f 512 536 537
f 512 537 513
f 513 537 538
f 513 538 539
f 513 539 514
f 514 539 521
f 515 540 516
f 515 519 540
f 516 540 520
f 517 525 524
f 517 524 541
f 517 541 519
f 517 519 518
f 517 526 525
f 519 541 542
f 519 542 543
f 519 543 544
f 519 544 540
f 520 545 546
f 520 546 547
f 520 547 530
f 520 540 548
f 520 548 545
f 521 538 549
f 521 549 523
f 521 523 522
f 521 539 538
f 523 549 575
f 523 575 602
f 523 602 616
f 523 616 641
f 523 641 640
f 523 640 645
f 523 645 622
f 523 622 603
f 523 603 576
f 523 576 550
f 523 550 524
f 524 550 541
f 527 551 552
f 527 552 528
f 527 534 553
f 527 553 551
f 528 554 529
f 528 552 555
f 528 555 556
f 528 556 557
f 528 557 554
f 529 554 558
f 529 558 535
f 530 559 531
f 530 547 559
f 531 559 560
f 531 560 561
f 531 561 562
f 531 562 532
f 532 562 533
f 533 562 561
f 533 561 563
f 533 563 553
f 533 553 534
f 535 558 564
f 535 564 536
f 536 564 565
f 536 565 537
f 537 565 538
f 538 566 549
f 538 565 566
f 540 567 548
f 540 544 543
f 540 543 568
f 540 568 567
f 541 550 542
f 542 550 543
f 543 550 569
f 543 569 570
f 543 570 571
f 543 571 568
f 545 548 546
f 546 572 573
f 546 573 547
f 546 548 574
f 546 574 572
f 547 573 559
f 548 567 574
f 549 566 575
f 550 576 569
f 551 577 578
f 551 578 579
f 551 579 580
f 551 580 581
f 551 581 552
f 551 553 577
f 552 581 556
f 552 556 555
f 553 563 577
f 554 557 558
f 556 582 583
f 556 583 584
f 556 584 585
f 556 585 586
f 556 586 587
f 556 587 588
f 556 588 557
f 556 581 582
f 557 588 564
f 557 564 558
f 559 589 590
f 559 590 560
f 559 573 589
f 560 590 591
f 560 591 561
f 561 591 563
f 563 591 592
f 563 592 577
f 564 588 593
f 564 593 565
f 565 593 566
f 566 593 587
f 566 587 575
f 567 594 574
f 567 568 595
f 567 595 594
f 568 571 597
f 568 597 595
f 569 576 596
f 569 596 597
f 569 597 571
f 569 571 570
f 572 598 599
f 572 599 600
f 572 600 573
f 572 574 598
f 573 600 601
f 573 601 589
f 574 594 598
f 575 587 602
f 576 603 596
f 577 604 605
f 577 605 578
f 577 592 604
f 578 605 606
f 578 606 579
f 579 606 607
f 579 607 608
f 579 608 580
f 580 608 609
f 580 609 581
f 581 609 610
f 581 610 611
f 581 611 582
f 582 611 583
f 583 611 612
f 583 612 613
f 583 613 614
f 583 614 584
f 584 614 615
f 584 615 616
f 584 616 602
f 584 602 586
f 584 586 585
f 586 602 587
f 587 593 588
f 589 617 590
f 589 601 600
f 589 600 599
f 589 599 598
f 589 598 603
f 589 603 622
f 589 622 646
f 589 646 659
f 589 659 662
f 589 662 661
f 589 661 660
f 589 660 649
f 589 649 648
f 589 648 624
f 589 624 647
f 589 647 643
f 589 643 642
f 589 642 618
f 589 618 617
f 590 617 591
f 591 617 618
f 591 618 619
f 591 619 592
f 592 619 620
f 592 620 621
f 592 621 604
f 594 595 598
f 595 597 603
f 595 603 598
f 596 603 597
f 604 621 623
f 604 623 605
f 605 623 624
f 605 624 625
f 605 625 626
f 605 626 606
f 606 626 627
f 606 627 607
f 607 628 608
f 607 627 629
f 607 629 630
f 607 630 628
f 608 628 609
f 609 628 610
f 610 628 631
f 610 631 632
f 610 632 611
f 611 632 633
f 611 633 612
f 612 633 613
f 613 633 614
f 614 634 635
f 614 635 615
f 614 633 636
f 614 636 637
f 614 637 638
f 614 638 639
f 614 639 634
f 615 635 640
f 615 640 641
f 615 641 616
f 618 620 619
f 618 642 621
f 618 621 620
f 621 642 643
f 621 643 644
f 621 644 623
f 622 645 646
f 623 644 624
f 624 644 647
f 624 648 625
f 625 648 649
f 625 649 650
f 625 650 626
f 626 650 627
f 627 650 651
f 627 651 629
f 628 630 652
f 628 652 632
f 628 632 631
f 629 651 630
f 630 651 653
f 630 653 652
f 632 652 654
f 632 654 633
f 633 654 636
f 634 645 635
f 634 639 645
f 635 645 640
f 636 654 638
f 636 638 637
f 638 655 639
f 638 654 652
f 638 652 653
f 638 653 655
f 639 655 645
f 643 647 644
f 645 655 646
f 646 655 656
f 646 656 657
f 646 657 658
f 646 658 659
f 649 660 650
f 650 660 661
f 650 661 657
f 650 657 653
f 650 653 651
f 653 657 655
f 655 657 656
f 657 661 658
f 658 661 662
f 658 662 659

o geometry_3
v -0.10962386 -0.15173322 0.16459470
v -0.10962386 -0.12734033 0.16459470
v -0.10622239 -0.15367433 0.16459470
v -0.09629632 -0.16270903 0.18921824
v -0.10962386 -0.15180071 0.16896385
v -0.10962386 -0.12725696 0.20139597
v -0.06293111 -0.12478789 0.20139597
v -0.07025970 -0.12526821 0.16459470
v -0.10551117 -0.15399191 0.16459470
v -0.09246195 -0.16344341 0.18676557
v -0.09221457 -0.16379669 0.19407221
v -0.09620355 -0.16261377 0.19407221
v -0.10962386 -0.15168559 0.20130470
v -0.10962386 -0.15184834 0.19407221
v -0.10962386 -0.15184834 0.18371401
v -0.10093468 -0.15563926 0.16459470
v -0.10962386 -0.12725696 0.20540577
v -0.07025970 -0.12535157 0.20872542
v -0.06293111 -0.12503401 0.20872542
v -0.05560251 -0.12453384 0.20139597
v -0.06293111 -0.12500622 0.16459470
v -0.07007417 -0.12526028 0.16459470
v -0.10962386 -0.12726093 0.20872542
v -0.09017369 -0.16300676 0.18218538
v -0.08491689 -0.16438023 0.18674846
v -0.08491689 -0.16453107 0.19407221
v -0.09221457 -0.16290355 0.19883493
v -0.09589433 -0.16232399 0.19774550
v -0.10962386 -0.15112588 0.20872542
v -0.10022346 -0.15583377 0.16459470
v -0.07477436 -0.12575250 0.21259833
v -0.05560251 -0.12482760 0.20872542
v -0.07025970 -0.12564930 0.21300331
v -0.04827391 -0.12435919 0.20139597
v -0.05560251 -0.12457752 0.19407221
v -0.06277649 -0.12500225 0.16459470
v -0.10962386 -0.12770155 0.21214203
v -0.08491689 -0.15801306 0.16459470
v -0.08491689 -0.16320920 0.18190020
v -0.09982147 -0.15592110 0.16459470
v -0.09447190 -0.15697700 0.16459470
v -0.09221457 -0.15742160 0.16459470
v 0.17869612 -0.16334814 0.18099327
v 0.17869612 -0.16439214 0.18674846
v -0.08491689 -0.16336005 0.19950799
v 0.17869612 -0.16387609 0.19407221
v -0.09221457 -0.15478978 0.21193099
v -0.10687176 -0.14980006 0.21519359
v -0.10962386 -0.14920463 0.21446919
v -0.10962386 -0.12844385 0.21604916
v -0.06293111 -0.12552624 0.21344250
v -0.04827391 -0.12468072 0.20872542
v -0.07025970 -0.12694733 0.21666518
v -0.04827391 -0.12440285 0.19407221
v -0.04097624 -0.12423614 0.20139597
v -0.04097624 -0.12427186 0.19407221
v -0.05544790 -0.12483554 0.16459470
v -0.07774291 -0.15829093 0.16459470
v -0.07758830 -0.15829490 0.16459470
v -0.07044523 -0.15844971 0.16459470
v -0.07025970 -0.15845369 0.16459470
v -0.06293111 -0.15852512 0.16459470
v -0.05578804 -0.15858071 0.16459470
v -0.04845944 -0.15862834 0.16459470
v -0.04113085 -0.15866406 0.16459470
v -0.03380225 -0.15869185 0.16459470
v 0.06867441 -0.15899751 0.16459470
v 0.07600301 -0.15901735 0.16459470
v 0.08333160 -0.15902529 0.16459470
v 0.17118199 -0.15910469 0.16459470
v 0.17136753 -0.15910469 0.16459470
v 0.17869612 -0.15906498 0.16459470
v 0.18583919 -0.15835047 0.16459470
v 0.18602472 -0.15833062 0.16459470
v 0.18345816 -0.16299484 0.18183745
v 0.18410753 -0.16334814 0.18674846
v 0.18367462 -0.16309409 0.19407221
v -0.01166185 -0.15498429 0.21234737
v -0.07025970 -0.15510337 0.21252418
v -0.07758830 -0.15507559 0.21247855
v -0.08201020 -0.15503589 0.21242151
v -0.08689593 -0.15495253 0.21230743
v 0.17869612 -0.16283210 0.19844708
v 0.18287065 -0.16266140 0.19820180
v -0.09895564 -0.15011365 0.21668229
v -0.10102744 -0.14739450 0.21955134
v -0.10687176 -0.14645372 0.21885546
v -0.10962386 -0.14766840 0.21614613
v -0.10962386 -0.13108361 0.22056092
v -0.06293111 -0.12688383 0.21710437
v -0.05560251 -0.12543891 0.21370488
v -0.04827391 -0.12537540 0.21388741
v -0.04097624 -0.12459736 0.20872542
v -0.03364764 -0.12414880 0.20139597
v -0.04811930 -0.12469660 0.16459470
v -0.03364764 -0.12415277 0.19407221
v -0.02613351 -0.12431553 0.16459470
v 0.19211643 -0.15632997 0.16459470
v 0.19576526 -0.15407923 0.16459470
v 0.18775638 -0.16083541 0.18674846
v 0.18735438 -0.16062502 0.19407221
v 0.19539419 -0.15390060 0.20139597
v -0.06515752 -0.14791055 0.21988216
v 0.07615762 -0.15463894 0.21188535
v -0.07025970 -0.15151490 0.21618605
v -0.09614171 -0.14772795 0.21972815
v 0.18602472 -0.15355128 0.21051073
v 0.17869612 -0.15645302 0.20726524
v 0.08348622 -0.15459131 0.21182262
v 0.19075584 -0.15553209 0.20602179
v 0.18602472 -0.15608783 0.20684884
v -0.10687176 -0.14280569 0.22068070
v -0.09895564 -0.14459994 0.22069210
v -0.10962386 -0.14205149 0.22041262
v -0.10962386 -0.14555263 0.21790291
v -0.10962386 -0.13661319 0.22119974
v -0.10687176 -0.13675610 0.22167886
v -0.09954317 -0.13675610 0.22227777
v -0.09954317 -0.13124239 0.22106855
v -0.09221457 -0.13098835 0.22117694
v -0.08491689 -0.13079384 0.22125107
v -0.05560251 -0.12682825 0.21736676
v -0.04827391 -0.12676870 0.21755498
v -0.04097624 -0.12670916 0.21767476
v -0.03364764 -0.12664962 0.21777173
v -0.04097624 -0.12533966 0.21401289
v -0.03364764 -0.12454576 0.20872542
v -0.02631904 -0.12412101 0.20139597
v -0.00436418 -0.12399796 0.19407221
v -0.02631904 -0.12408529 0.19407221
v -0.01166185 -0.12414086 0.16459470
v -0.01883583 -0.12420834 0.16459470
v 0.19925948 -0.15042724 0.16459470
v 0.19598172 -0.15408717 0.18674846
v 0.19233287 -0.15718342 0.18674846
v 0.19591987 -0.15407923 0.19407221
v 0.19227103 -0.15697304 0.19407221
v 0.19916672 -0.15024861 0.20139597
v 0.19830089 -0.14912523 0.20872542
v -0.07025970 -0.14406008 0.22142790
v 0.17869612 -0.15006999 0.21418971
v 0.18602472 -0.14488575 0.21780024
v 0.18602472 -0.14123773 0.22021868
v 0.18602472 -0.14989929 0.21413267
v 0.17869612 -0.15372198 0.21093281
v 0.19332240 -0.14895850 0.21345962
v 0.19731138 -0.14801375 0.21268960
v -0.10962386 -0.13945143 0.22084042
v -0.07025970 -0.13675610 0.22285957
v -0.07758830 -0.13067077 0.22126818
v -0.04097624 -0.13036115 0.22143930
v -0.03364764 -0.13030161 0.22147352
v -0.02631904 -0.12660993 0.21781165
v -0.03364764 -0.12532775 0.21410415
v -0.02631904 -0.12452987 0.20872542
v -0.00436418 -0.12407338 0.20139597
v 0.00296442 -0.12408132 0.16459470
v -0.00436418 -0.12410117 0.16459470
v 0.00296442 -0.12398207 0.19407221
v 0.19935226 -0.15031609 0.16459470
v 0.19925948 -0.15043518 0.18674846
v 0.19925948 -0.15042724 0.19407221
v 0.20284648 -0.14581065 0.20139597
v 0.20504196 -0.14146796 0.20872542
v 0.20194973 -0.14511598 0.20872542
v 0.20451628 -0.14067008 0.21266678
v -0.00436418 -0.13675610 0.22262570
v 0.05420275 -0.13675610 0.22222073
v 0.04690508 -0.13675610 0.22227206
v 0.19202365 -0.14094795 0.22004756
v 0.18602472 -0.13675610 0.22036129
v 0.08348622 -0.13675610 0.22190132
v 0.07615762 -0.13675610 0.22199259
v 0.06153135 -0.13675610 0.22216371
v 0.19400269 -0.14365519 0.21762914
v 0.20012532 -0.14348449 0.21418971
v 0.03957648 -0.13042069 0.22145641
v 0.02495021 -0.13034130 0.22147924
v 0.01762162 -0.13030955 0.22148495
v -0.01166185 -0.13025001 0.22151917
v -0.01899044 -0.13025001 0.22153057
v -0.02631904 -0.13026191 0.22151346
v -0.02631904 -0.12532379 0.21414978
v -0.01899044 -0.12659802 0.21780595
v 0.00296442 -0.12449415 0.20872542
v 0.00296442 -0.12405750 0.20139597
v 0.01762162 -0.12405750 0.16459470
v 0.01029302 -0.12406147 0.20139597
v 0.01029302 -0.12399001 0.19407221
v 0.03976202 -0.12405750 0.16459470
v 0.02510482 -0.12404957 0.16459470
v 0.02495021 -0.12404957 0.16459470
v 0.20293924 -0.14578683 0.16459470
v 0.20293924 -0.14581462 0.17209527
v 0.20293924 -0.14582653 0.17941901
v 0.20293924 -0.14582653 0.18674846
v 0.20290833 -0.14583051 0.19407221
v 0.20547488 -0.14216263 0.20139597
v 0.20627887 -0.13675610 0.20139597
v 0.20550580 -0.13675610 0.20872542
v 0.20451628 -0.13675610 0.21268960
v 0.20065099 -0.13675610 0.21621458
v 0.19601263 -0.13675610 0.21957985
v 0.05420275 -0.13046039 0.22139368
v 0.04690508 -0.13044849 0.22143361
v 0.07615762 -0.13060329 0.22124538
v 0.06153135 -0.13049215 0.22134234
v 0.19236380 -0.13675610 0.22004756
v 0.19091045 -0.13294931 0.21983082
v 0.08348622 -0.13069062 0.22118262
v 0.01029302 -0.12664962 0.21781165
v 0.00296442 -0.12662977 0.21782307
v -0.00436418 -0.12660993 0.21781165
v 0.01029302 -0.12530791 0.21414978
v 0.01029302 -0.12448621 0.20872542
v -0.01166185 -0.12659802 0.21780024
v 0.01762162 -0.12453781 0.20872542
v 0.17869612 -0.12535157 0.20139597
v 0.17869612 -0.12519676 0.19407221
v 0.06885995 -0.12437110 0.19407221
v 0.06885995 -0.12426391 0.18674846
v 0.05420275 -0.12414483 0.17941901
v 0.05420275 -0.12412101 0.17209527
v 0.04709061 -0.12407338 0.16459470
v 0.20538212 -0.14213881 0.16459470
v 0.20541303 -0.14216660 0.17209527
v 0.20547488 -0.14218248 0.19407221
v 0.20541303 -0.14201179 0.16459470
v 0.20606240 -0.13675610 0.16476582
v 0.20498012 -0.13228638 0.16459470
v 0.20510381 -0.13215142 0.20139597
v 0.20476366 -0.13254838 0.20872542
v 0.20439259 -0.13301679 0.21250707
v 0.20065099 -0.13184974 0.21418971
v 0.01762162 -0.12665756 0.21774321
v 0.06153135 -0.12684016 0.21706445
v 0.19335331 -0.13090101 0.21668799
v 0.18602472 -0.12998405 0.21604916
v 0.07615762 -0.12695130 0.21680777
v 0.06885995 -0.12689970 0.21694467
v 0.01762162 -0.12533172 0.21408134
v 0.06885995 -0.12557784 0.21328280
v 0.07615762 -0.12561753 0.21314590
v 0.17869612 -0.12564533 0.20577082
v 0.18602472 -0.12572075 0.20543999
v 0.18976633 -0.12578426 0.20514340
v 0.18602472 -0.12551433 0.20139597
v 0.18602472 -0.12537143 0.19407221
v 0.17869612 -0.12517692 0.18674846
v 0.06885995 -0.12420040 0.17209527
v 0.06885995 -0.12422422 0.17941901
v 0.05438828 -0.12410911 0.16459470
v 0.20603149 -0.13675610 0.16459470
v 0.20603149 -0.13665290 0.16459470
v 0.20065099 -0.12924967 0.16459470
v 0.20065099 -0.12915044 0.19407221
v 0.20065099 -0.12913853 0.20139597
v 0.20065099 -0.12987289 0.20872542
v 0.19267303 -0.12688383 0.20804095
v 0.18602472 -0.12653451 0.20910758
v 0.08348622 -0.12703863 0.21658532
v 0.08348622 -0.12567310 0.21292345
v 0.19010648 -0.12572075 0.20139597
v 0.19375531 -0.12643923 0.20139597
v 0.18602472 -0.12535951 0.18674846
v 0.19041570 -0.12566121 0.19407221
v 0.17869612 -0.12517692 0.17941901
v 0.06901456 -0.12418849 0.16459470
v 0.19409546 -0.12641541 0.16459470
v 0.19409546 -0.12640747 0.17941901
v 0.19406453 -0.12639954 0.19407221
v 0.19041570 -0.12565724 0.18674846
v 0.18602472 -0.12535951 0.17209527
v 0.18602472 -0.12536348 0.16459470
v 0.17869612 -0.12518089 0.17209527
v 0.17869612 -0.12518883 0.16459470
v 0.19041570 -0.12565724 0.16459470
f 663 664 670
f 663 670 684
f 663 684 683
f 663 683 698
f 663 698 719
f 663 719 757
f 663 757 759
f 663 759 794
f 663 794 793
f 663 793 820
f 663 820 819
f 663 819 849
f 663 849 854
f 663 854 853
f 663 853 852
f 663 852 886
f 663 886 914
f 663 914 930
f 663 930 938
f 663 938 936
f 663 936 939
f 663 939 931
f 663 931 917
f 663 917 892
f 663 892 916
f 663 916 915
f 663 915 890
f 663 890 887
f 663 887 855
f 663 855 822
f 663 822 795
f 663 795 761
f 663 761 760
f 663 760 736
f 663 736 735
f 663 735 734
f 663 734 733
f 663 733 732
f 663 732 731
f 663 731 730
f 663 730 729
f 663 729 728
f 663 728 727
f 663 727 726
f 663 726 725
f 663 725 724
f 663 724 723
f 663 723 722
f 663 722 721
f 663 721 720
f 663 720 700
f 663 700 704
f 663 704 703
f 663 703 702
f 663 702 692
f 663 692 678
f 663 678 671
f 663 671 665
f 663 665 666
f 663 666 667
f 663 667 677
f 663 677 676
f 663 676 675
f 663 675 691
f 663 691 711
f 663 711 750
f 663 750 777
f 663 777 776
f 663 776 810
f 663 810 778
f 663 778 751
f 663 751 712
f 663 712 699
f 663 699 685
f 663 685 679
f 663 679 668
f 663 668 664
f 664 668 669
f 664 669 670
f 665 671 666
f 666 672 673
f 666 673 674
f 666 674 675
f 666 675 676
f 666 676 677
f 666 677 667
f 666 671 678
f 666 678 672
f 668 679 669
f 669 680 681
f 669 681 682
f 669 682 683
f 669 683 684
f 669 684 670
f 669 679 685
f 669 685 680
f 672 686 687
f 672 687 673
f 672 678 686
f 673 687 688
f 673 688 689
f 673 689 690
f 673 690 674
f 674 690 691
f 674 691 675
f 678 692 686
f 680 693 681
f 680 685 693
f 681 694 682
f 681 693 695
f 681 695 694
f 682 694 696
f 682 696 716
f 682 716 697
f 682 697 683
f 683 697 698
f 685 699 693
f 686 700 701
f 686 701 687
f 686 692 702
f 686 702 703
f 686 703 704
f 686 704 700
f 687 701 705
f 687 705 706
f 687 706 688
f 688 707 689
f 688 706 708
f 688 708 707
f 689 707 709
f 689 709 710
f 689 710 690
f 690 710 711
f 690 711 691
f 693 699 712
f 693 712 695
f 694 695 713
f 694 713 714
f 694 714 696
f 695 715 713
f 695 712 715
f 696 714 717
f 696 717 718
f 696 718 716
f 697 716 698
f 698 716 719
f 700 720 701
f 701 720 721
f 701 721 722
f 701 722 723
f 701 723 724
f 701 724 725
f 701 725 726
f 701 726 727
f 701 727 728
f 701 728 729
f 701 729 730
f 701 730 705
f 705 730 731
f 705 731 732
f 705 732 733
f 705 733 734
f 705 734 735
f 705 735 736
f 705 736 737
f 705 737 706
f 706 737 738
f 706 738 739
f 706 739 708
f 707 740 741
f 707 741 742
f 707 742 743
f 707 743 744
f 707 744 709
f 707 708 745
f 707 745 740
f 708 739 746
f 708 746 745
f 709 744 747
f 709 747 710
f 710 748 749
f 710 749 711
f 710 747 748
f 711 749 750
f 712 751 715
f 713 752 753
f 713 753 714
f 713 715 752
f 714 753 754
f 714 754 755
f 714 755 756
f 714 756 717
f 715 751 752
f 716 757 719
f 716 718 757
f 717 756 758
f 717 758 718
f 718 758 759
f 718 759 757
f 736 760 737
f 737 760 738
f 738 760 761
f 738 761 762
f 738 762 763
f 738 763 739
f 739 763 764
f 739 764 746
f 740 765 741
f 740 745 766
f 740 766 765
f 741 765 767
f 741 767 742
f 742 767 768
f 742 768 743
f 743 768 744
f 744 768 747
f 745 746 769
f 745 769 770
f 745 770 771
f 745 771 766
f 746 772 773
f 746 773 769
f 746 764 772
f 747 768 748
f 748 774 749
f 748 768 775
f 748 775 774
f 749 774 776
f 749 776 777
f 749 777 750
f 751 778 779
f 751 779 780
f 751 780 781
f 751 781 782
f 751 782 783
f 751 783 784
f 751 784 752
f 752 784 753
f 753 784 754
f 754 784 785
f 754 785 786
f 754 786 787
f 754 787 788
f 754 788 755
f 755 788 789
f 755 789 756
f 756 789 790
f 756 790 791
f 756 791 792
f 756 792 758
f 758 792 793
f 758 793 794
f 758 794 759
f 761 795 796
f 761 796 797
f 761 797 762
f 762 797 798
f 762 798 799
f 762 799 763
f 763 799 764
f 764 798 800
f 764 800 801
f 764 801 772
f 764 799 798
f 765 802 768
f 765 768 767
f 765 766 771
f 765 771 803
f 765 803 804
f 765 804 805
f 765 805 802
f 768 802 775
f 769 806 807
f 769 807 770
f 769 773 772
f 769 772 808
f 769 808 806
f 770 807 771
f 771 807 803
f 772 801 809
f 772 809 808
f 774 775 780
f 774 780 779
f 774 779 776
f 775 802 780
f 776 779 810
f 778 810 779
f 780 782 781
f 780 802 811
f 780 811 782
f 782 811 783
f 783 812 787
f 783 787 786
f 783 786 785
f 783 785 784
f 783 811 813
f 783 813 812
f 787 814 844
f 787 844 815
f 787 815 788
f 787 812 813
f 787 813 814
f 788 815 816
f 788 816 789
f 789 816 817
f 789 817 848
f 789 848 818
f 789 818 790
f 790 818 791
f 791 819 820
f 791 820 792
f 791 818 848
f 791 848 821
f 791 821 819
f 792 820 793
f 795 822 823
f 795 823 796
f 796 823 824
f 796 824 798
f 796 798 797
f 798 824 800
f 800 824 825
f 800 825 826
f 800 826 827
f 800 827 801
f 801 827 828
f 801 828 809
f 802 829 811
f 802 805 830
f 802 830 831
f 802 831 829
f 803 807 806
f 803 806 804
f 804 806 832
f 804 832 805
f 805 832 833
f 805 833 834
f 805 834 835
f 805 835 836
f 805 836 830
f 806 808 837
f 806 837 832
f 808 809 837
f 809 828 838
f 809 838 837
f 811 829 839
f 811 839 840
f 811 840 841
f 811 841 842
f 811 842 843
f 811 843 844
f 811 844 813
f 813 844 814
f 815 845 816
f 815 844 843
f 815 843 846
f 815 846 845
f 816 845 817
f 817 845 847
f 817 847 848
f 819 821 849
f 821 848 850
f 821 850 851
f 821 851 852
f 821 852 853
f 821 853 854
f 821 854 849
f 822 855 856
f 822 856 857
f 822 857 823
f 823 857 858
f 823 858 824
f 824 858 859
f 824 859 825
f 825 859 860
f 825 860 826
f 826 860 861
f 826 861 862
f 826 862 828
f 826 828 827
f 828 863 864
f 828 864 865
f 828 865 838
f 828 862 863
f 829 831 866
f 829 866 867
f 829 867 839
f 830 836 868
f 830 868 869
f 830 869 866
f 830 866 831
f 832 870 833
f 832 837 838
f 832 838 865
f 832 865 870
f 833 870 871
f 833 871 872
f 833 872 834
f 834 872 835
f 835 872 836
f 836 872 868
f 839 867 840
f 840 867 873
f 840 873 841
f 841 873 874
f 841 874 842
f 842 874 843
f 843 874 875
f 843 875 846
f 845 846 876
f 845 876 877
f 845 877 847
f 846 875 878
f 846 878 876
f 847 877 848
f 848 877 850
f 850 877 879
f 850 879 880
f 850 880 881
f 850 881 882
f 850 882 883
f 850 883 851
f 851 883 884
f 851 884 885
f 851 885 886
f 851 886 852
f 855 887 888
f 855 888 889
f 855 889 856
f 856 889 857
f 857 889 858
f 858 889 860
f 858 860 859
f 860 889 861
f 861 889 888
f 861 888 890
f 861 890 891
f 861 891 892
f 861 892 893
f 861 893 894
f 861 894 862
f 862 894 895
f 862 895 863
f 863 895 864
f 864 895 865
f 865 895 896
f 865 896 871
f 865 871 870
f 866 869 897
f 866 897 873
f 866 873 867
f 868 872 898
f 868 898 897
f 868 897 869
f 871 896 899
f 871 899 900
f 871 900 901
f 871 901 872
f 872 901 902
f 872 902 898
f 873 897 876
f 873 876 874
f 874 876 875
f 875 876 878
f 876 897 903
f 876 903 877
f 877 903 879
f 879 903 904
f 879 904 905
f 879 905 906
f 879 906 880
f 880 906 907
f 880 907 908
f 880 908 909
f 880 909 881
f 881 909 910
f 881 910 911
f 881 911 912
f 881 912 913
f 881 913 883
f 881 883 882
f 883 913 884
f 884 913 912
f 884 912 885
f 885 912 914
f 885 914 886
f 887 890 888
f 890 915 891
f 891 915 916
f 891 916 892
f 892 917 893
f 893 917 918
f 893 918 919
f 893 919 894
f 894 919 920
f 894 920 895
f 895 920 896
f 896 920 921
f 896 921 899
f 897 898 903
f 898 902 901
f 898 901 905
f 898 905 904
f 898 904 903
f 899 921 922
f 899 922 900
f 900 922 923
f 900 923 901
f 901 923 922
f 901 922 924
f 901 924 905
f 905 924 906
f 906 924 922
f 906 922 907
f 907 922 908
f 908 925 909
f 908 922 921
f 908 921 926
f 908 926 925
f 909 925 910
f 910 927 911
f 910 925 928
f 910 928 927
f 911 927 935
f 911 935 929
f 911 929 930
f 911 930 912
f 912 930 914
f 917 931 918
f 918 931 919
f 919 931 932
f 919 932 933
f 919 933 926
f 919 926 920
f 920 926 921
f 925 926 928
f 926 933 928
f 927 928 934
f 927 934 939
f 927 939 935
f 928 933 934
f 929 935 936
f 929 936 937
f 929 937 930
f 930 937 938
f 931 939 932
f 932 939 933
f 933 939 934
f 935 939 936
f 936 938 937

o geometry_4
v -0.10962386 -0.15401121 -0.13816101
v -0.10962386 -0.12842979 -0.13816101
v -0.10919124 -0.15426518 -0.13816101
v -0.10962386 -0.15451914 -0.06988224
v -0.10962386 -0.12717027 -0.08161766
v -0.10687366 -0.12781547 -0.13816101
v -0.10894403 -0.15440246 -0.13816101
v -0.10946934 -0.15460493 -0.06970443
v -0.10962386 -0.15476966 -0.01840644
v -0.10962386 -0.12670010 -0.05230875
v -0.10687366 -0.12681679 -0.08434406
v -0.09955010 -0.12720116 -0.13816101
v -0.10770799 -0.15485203 -0.13816101
v -0.10529770 -0.15572717 -0.13816101
v -0.10582301 -0.15590219 -0.06970443
v -0.10610112 -0.15599485 -0.01840644
v -0.10610112 -0.15600172 -0.01108662
v -0.10962386 -0.15475937 -0.01108662
v -0.10962386 -0.12642555 -0.01562076
v -0.10687366 -0.12655939 -0.05503516
v -0.10687366 -0.12668637 -0.06970443
v -0.07557085 -0.12571171 -0.13816101
v -0.07924808 -0.12590389 -0.13816101
v -0.08301801 -0.12613041 -0.13816101
v -0.08490299 -0.12624709 -0.13816101
v -0.09955010 -0.15704158 -0.13816101
v -0.09955010 -0.15730928 -0.06970443
v -0.09955010 -0.15732986 -0.06238462
v -0.09955010 -0.15743969 -0.01840644
v -0.09955010 -0.15745341 -0.01108662
v -0.10607024 -0.15599142 -0.00376681
v -0.09955010 -0.15743969 -0.00376681
v -0.10962386 -0.15472162 -0.00397425
v -0.10962386 -0.12733843 0.16458899
v -0.07025586 -0.12526899 0.16458899
v -0.07007046 -0.12526214 0.16458899
v -0.06293230 -0.12500817 0.16458899
v -0.06293230 -0.12500131 0.15741734
v -0.06293230 -0.12494983 -0.01840644
v -0.06775287 -0.12541657 -0.13816101
v -0.07025586 -0.12550237 -0.13816101
v -0.07371679 -0.12563277 -0.13816101
v -0.09472953 -0.15755980 -0.13816101
v -0.09222654 -0.15783435 -0.13564205
v -0.09222654 -0.15803684 -0.06970443
v -0.09222654 -0.15805400 -0.06238462
v -0.09222654 -0.15805744 -0.05503516
v -0.09222654 -0.15807458 -0.01108662
v -0.09222654 -0.15807458 -0.00376681
v -0.10591572 -0.15593995 0.01090246
v -0.09955010 -0.15736075 0.01090246
v -0.09222654 -0.15805744 0.00358264
v -0.09222654 -0.15802997 0.01090246
v -0.09222654 -0.15742252 0.16458899
v -0.10582301 -0.15591592 0.01819264
v -0.10950025 -0.15459120 0.01819264
v -0.10956205 -0.15462552 0.01090246
v -0.10962386 -0.15463925 0.00613124
v -0.10962386 -0.15173586 0.16458899
v -0.05560874 -0.12484000 0.16458899
v -0.05560874 -0.12482286 0.15741734
v -0.04828519 -0.12468558 0.15741734
v -0.05560874 -0.12481942 -0.01840644
v -0.04578220 -0.12482628 -0.13816101
v -0.04828519 -0.12487089 -0.13816101
v -0.05560874 -0.12504936 -0.13816101
v -0.06293230 -0.12526556 -0.13816101
v -0.09222654 -0.15782406 -0.13816101
v -0.08740598 -0.15794761 -0.13816101
v -0.08490299 -0.15805057 -0.12832224
v -0.08490299 -0.15823589 -0.06970443
v -0.08490299 -0.15824618 -0.06238462
v -0.08490299 -0.15824618 -0.05503516
v -0.07044127 -0.15845209 0.16458899
v -0.07757943 -0.15829767 0.16458899
v -0.07776483 -0.15829080 0.16458899
v -0.08490299 -0.15801281 0.16458899
v -0.09955010 -0.15731270 0.01819264
v -0.08508839 -0.15799908 0.16458899
v -0.09244284 -0.15738135 0.16458899
v -0.10022993 -0.15583356 0.16458899
v -0.10094065 -0.15564137 0.16458899
v -0.10319643 -0.15500990 0.16126989
v -0.10622473 -0.15367488 0.16458899
v -0.10848052 -0.15421026 0.06949063
v -0.10962386 -0.15450884 0.01819264
v -0.10962386 -0.15459464 0.01090246
v -0.10551402 -0.15399063 0.16458899
v -0.04828519 -0.12469930 0.16458899
v -0.02616000 -0.12431493 0.16458899
v -0.04096162 -0.12474392 -0.13816101
v -0.02631450 -0.12431836 0.15741734
v -0.01899095 -0.12420510 0.15741734
v -0.08490299 -0.15800595 -0.13816101
v 0.17135978 -0.15795447 -0.13564205
v 0.17135978 -0.15798536 -0.12832224
v 0.17135978 -0.15910416 0.16458899
v 0.17120528 -0.15910416 0.16458899
v 0.08332257 -0.15902523 0.16458899
v 0.07599901 -0.15901836 0.16458899
v 0.06867545 -0.15899778 0.16458899
v -0.03382347 -0.15869234 0.16458899
v -0.04114703 -0.15866488 0.16458899
v -0.04828519 -0.15863056 0.16458899
v -0.05579415 -0.15858251 0.16458899
v -0.06311772 -0.15852417 0.16458899
v -0.07025586 -0.15845553 0.16458899
v -0.09982821 -0.15591935 0.16458899
v -0.01883644 -0.12420854 0.16458899
v -0.01166739 -0.12413304 0.15741734
v -0.03363807 -0.12467527 -0.13816101
v 0.16885679 -0.15794074 -0.13816101
v 0.17135978 -0.15793731 -0.13816101
v 0.17868334 -0.15736075 -0.12832224
v 0.17868334 -0.15874381 0.10611936
v 0.17868334 -0.15906641 0.16458899
v -0.01151288 -0.12413989 0.16458899
v -0.00434383 -0.12410215 0.16458899
v -0.00434383 -0.12410215 0.15741734
v -0.02631450 -0.12465126 -0.13816101
v 0.17618035 -0.15749117 -0.13816101
v 0.17868334 -0.15727496 -0.13564205
v 0.18600690 -0.15763874 0.04750155
v 0.18600690 -0.15770395 0.05485100
v 0.18600690 -0.15800595 0.09147972
v 0.18600690 -0.15806086 0.09879954
v 0.18600690 -0.15809862 0.10611936
v 0.18585239 -0.15834914 0.16458899
v 0.00297973 -0.12408155 0.16458899
v 0.00297973 -0.12408155 0.15741734
v -0.01899095 -0.12463066 -0.13816101
v 0.17868334 -0.15724063 -0.13816101
v 0.18211336 -0.15627628 -0.13816101
v 0.18384383 -0.15578551 -0.13816101
v 0.19153819 -0.15605663 0.05485100
v 0.19184721 -0.15614586 0.07681045
v 0.19200171 -0.15621450 0.09147972
v 0.19209441 -0.15625568 0.10611936
v 0.18600690 -0.15833198 0.16458899
v 0.01762685 -0.12405754 0.16458899
v 0.01030329 -0.12406439 0.15741734
v -0.01166739 -0.12463066 -0.13816101
v 0.01762685 -0.12405754 0.15741734
v 0.01762685 -0.12407126 0.15009753
v 0.18511077 -0.15507168 -0.13816101
v 0.19138368 -0.15600172 0.04750155
v 0.19530812 -0.15374009 0.06217082
v 0.19540083 -0.15382932 0.06949063
v 0.19549354 -0.15391169 0.07681045
v 0.19558623 -0.15398032 0.08415990
v 0.19564804 -0.15403180 0.09147972
v 0.19570984 -0.15407298 0.09879954
v 0.19574074 -0.15411418 0.10611936
v 0.19212532 -0.15625568 0.11346881
v 0.19577165 -0.15413819 0.11346881
v 0.19197080 -0.15637580 0.16458899
v 0.02495041 -0.12404724 0.16458899
v 0.02495041 -0.12407470 0.15009753
v 0.03242847 -0.12405067 0.16458899
v 0.03975203 -0.12405754 0.16458899
v 0.17135978 -0.12481255 -0.13816101
v 0.18752105 -0.15366459 -0.13816101
v 0.19521543 -0.15361998 0.05485100
v 0.19892355 -0.15008854 0.06217082
v 0.19901626 -0.15017777 0.06949063
v 0.19907806 -0.15025671 0.07681045
v 0.19913987 -0.15032877 0.08415990
v 0.19917077 -0.15038026 0.09147972
v 0.19920166 -0.15042144 0.09879954
v 0.19923256 -0.15045919 0.10611936
v 0.19926346 -0.15048665 0.11346881
v 0.19218712 -0.15627628 0.16458899
v 0.19209441 -0.15632775 0.16458899
v 0.19577165 -0.15414505 0.12078863
v 0.19929437 -0.15049350 0.12078863
v 0.04707559 -0.12407470 0.16458899
v 0.05421374 -0.12410902 0.15741734
v 0.06886086 -0.12417765 0.15741734
v 0.17135978 -0.12481255 -0.12832224
v 0.17868334 -0.12491894 -0.13816101
v 0.19212532 -0.15001304 -0.13816101
v 0.19577165 -0.14637179 -0.13816101
v 0.19883085 -0.14996499 0.05485100
v 0.20281709 -0.14544517 0.08415990
v 0.20284799 -0.14556529 0.09147972
v 0.20294070 -0.14569570 0.11346881
v 0.20297160 -0.14573689 0.12078863
v 0.19577165 -0.15414505 0.12810844
v 0.19577165 -0.15407985 0.16458899
v 0.20297160 -0.14576091 0.12810844
v 0.19929437 -0.15049350 0.12810844
v 0.05436824 -0.12410902 0.16458899
v 0.06901536 -0.12418794 0.16458899
v 0.17868334 -0.12518664 0.16458899
v 0.17135978 -0.12481599 -0.12100243
v 0.17868334 -0.12491894 -0.12832224
v 0.18613050 -0.12537195 0.16458899
v 0.18600690 -0.12536509 0.10611936
v 0.19045666 -0.12565337 0.07681045
v 0.18433824 -0.12540971 -0.13816101
v 0.19768751 -0.14396946 -0.13816101
v 0.19867634 -0.14272024 -0.13816101
v 0.20513467 -0.14179019 0.08415990
v 0.20522738 -0.14191374 0.09147972
v 0.20525828 -0.14195492 0.09879954
v 0.20532007 -0.14208534 0.12078863
v 0.20535098 -0.14211623 0.13542825
v 0.19926346 -0.15042831 0.16458899
v 0.20538188 -0.14210936 0.15009753
v 0.20538188 -0.14213338 0.16458899
v 0.20290979 -0.14578494 0.16458899
v 0.19935617 -0.15031848 0.16458899
v 0.18600690 -0.12536509 0.16458899
v 0.17868334 -0.12492237 -0.12100243
v 0.19042576 -0.12565681 0.16458899
v 0.19045666 -0.12565681 0.13542825
v 0.19413389 -0.12638093 0.12810844
v 0.19410299 -0.12638093 0.09879954
v 0.19410299 -0.12638437 0.09147972
v 0.19410299 -0.12639466 0.08415990
v 0.19039485 -0.12566024 0.06949063
v 0.18968413 -0.12579750 -0.00026989
v 0.18674852 -0.12589704 -0.13816101
v 0.19988149 -0.13675559 -0.13816101
v 0.20448575 -0.14074003 0.05485100
v 0.20559818 -0.13675559 0.08415990
v 0.20575270 -0.13675559 0.09147972
v 0.20587629 -0.13675559 0.11346881
v 0.20596900 -0.13675559 0.13542825
v 0.20606171 -0.13675559 0.16458899
v 0.20541278 -0.14200641 0.16458899
v 0.19401028 -0.12639809 0.16458899
v 0.19407209 -0.12641525 0.16458899
v 0.20065401 -0.12925001 0.16458899
v 0.20065401 -0.12925343 0.12810844
v 0.19410299 -0.12641525 0.07681045
v 0.18798457 -0.12615099 -0.13816101
v 0.19407209 -0.12644271 0.06949063
v 0.20470206 -0.13259955 0.07681045
v 0.19818193 -0.13173814 -0.13816101
v 0.20479476 -0.13249316 0.08415990
v 0.20482566 -0.13243482 0.09147972
v 0.20485656 -0.13241079 0.09879954
v 0.20488747 -0.13239020 0.10611936
v 0.20494927 -0.13232500 0.12810844
v 0.20498017 -0.13228724 0.16458899
v 0.20065401 -0.12927403 0.12078863
v 0.20065401 -0.12931864 0.10611936
v 0.20065401 -0.12936669 0.09147972
v 0.19333045 -0.12843664 -0.13816101
v 0.19367037 -0.12658685 0.04018173
v 0.20065401 -0.12943534 0.08415990
v 0.19499912 -0.12956231 -0.13816101
v 0.20065401 -0.12956574 0.07681045
f 940 941 945
f 940 945 951
f 940 951 964
f 940 964 963
f 940 963 962
f 940 962 961
f 940 961 981
f 940 981 980
f 940 980 979
f 940 979 1006
f 940 1006 1005
f 940 1005 1004
f 940 1004 1003
f 940 1003 1030
f 940 1030 1050
f 940 1050 1059
f 940 1059 1070
f 940 1070 1081
f 940 1081 1100
f 940 1100 1119
f 940 1119 1139
f 940 1139 1162
f 940 1162 1176
f 940 1176 1189
f 940 1189 1192
f 940 1192 1179
f 940 1179 1163
f 940 1163 1141
f 940 1141 1140
f 940 1140 1121
f 940 1121 1120
f 940 1120 1101
f 940 1101 1084
f 940 1084 1073
f 940 1073 1072
f 940 1072 1071
f 940 1071 1060
f 940 1060 1052
f 940 1052 1051
f 940 1051 1033
f 940 1033 1008
f 940 1008 1007
f 940 1007 982
f 940 982 965
f 940 965 953
f 940 953 952
f 940 952 946
f 940 946 942
f 940 942 943
f 940 943 948
f 940 948 957
f 940 957 972
f 940 972 997
f 940 997 1026
f 940 1026 1025
f 940 1025 998
f 940 998 973
f 940 973 958
f 940 958 949
f 940 949 944
f 940 944 941
f 941 944 945
f 942 946 943
f 943 946 947
f 943 947 948
f 944 949 950
f 944 950 945
f 945 950 951
f 946 952 947
f 947 952 953
f 947 953 954
f 947 954 948
f 948 955 956
f 948 956 957
f 948 954 955
f 949 958 959
f 949 959 960
f 949 960 950
f 950 960 961
f 950 961 962
f 950 962 963
f 950 963 964
f 950 964 951
f 953 965 954
f 954 965 966
f 954 966 955
f 955 966 967
f 955 967 968
f 955 968 969
f 955 969 956
f 956 970 957
f 956 969 971
f 956 971 970
f 957 970 972
f 958 973 974
f 958 974 975
f 958 975 976
f 958 976 977
f 958 977 978
f 958 978 979
f 958 979 980
f 958 980 981
f 958 981 961
f 958 961 959
f 959 961 960
f 965 982 966
f 966 982 983
f 966 983 984
f 966 984 967
f 967 984 968
f 968 984 985
f 968 985 969
f 969 985 986
f 969 986 987
f 969 987 988
f 969 988 971
f 970 989 972
f 970 971 990
f 970 990 989
f 971 988 991
f 971 991 992
f 971 992 993
f 971 993 990
f 972 989 994
f 972 994 995
f 972 995 996
f 972 996 997
f 973 998 1023
f 973 1023 1027
f 973 1027 1021
f 973 1021 1020
f 973 1020 1047
f 973 1047 1019
f 973 1019 993
f 973 993 1018
f 973 1018 1016
f 973 1016 1015
f 973 1015 1014
f 973 1014 1013
f 973 1013 1046
f 973 1046 1045
f 973 1045 1044
f 973 1044 1043
f 973 1043 1042
f 973 1042 1041
f 973 1041 1040
f 973 1040 1039
f 973 1039 1038
f 973 1038 1037
f 973 1037 1036
f 973 1036 1055
f 973 1055 1067
f 973 1067 1078
f 973 1078 1095
f 973 1095 1112
f 973 1112 1111
f 973 1111 1128
f 973 1128 1147
f 973 1147 1151
f 973 1151 1150
f 973 1150 1149
f 973 1149 1170
f 973 1170 1169
f 973 1169 1185
f 973 1185 1173
f 973 1173 1172
f 973 1172 1171
f 973 1171 1154
f 973 1154 1136
f 973 1136 1152
f 973 1152 1133
f 973 1133 1132
f 973 1132 1131
f 973 1131 1115
f 973 1115 1099
f 973 1099 1098
f 973 1098 1096
f 973 1096 1079
f 973 1079 1068
f 973 1068 1057
f 973 1057 1056
f 973 1056 1048
f 973 1048 1029
f 973 1029 1028
f 973 1028 999
f 973 999 976
f 973 976 975
f 973 975 974
f 976 999 1000
f 976 1000 977
f 977 1000 978
f 978 1000 1001
f 978 1001 1002
f 978 1002 1003
f 978 1003 1004
f 978 1004 1005
f 978 1005 1006
f 978 1006 979
f 982 1007 983
f 983 1007 1008
f 983 1008 1009
f 983 1009 1010
f 983 1010 984
f 984 1010 985
f 985 1010 1011
f 985 1011 986
f 986 1011 987
f 987 1011 1012
f 987 1012 988
f 988 1012 1013
f 988 1013 1014
f 988 1014 1015
f 988 1015 1016
f 988 1016 991
f 989 990 994
f 990 1017 994
f 990 993 1017
f 991 1016 1018
f 991 1018 992
f 992 1018 993
f 993 1019 1017
f 994 1017 1020
f 994 1020 1021
f 994 1021 1022
f 994 1022 995
f 995 1023 1024
f 995 1024 998
f 995 998 1025
f 995 1025 1026
f 995 1026 997
f 995 997 996
f 995 1022 1027
f 995 1027 1023
f 998 1024 1023
f 999 1028 1000
f 1000 1028 1001
f 1001 1028 1029
f 1001 1029 1002
f 1002 1030 1003
f 1002 1029 1031
f 1002 1031 1032
f 1002 1032 1030
f 1008 1033 1009
f 1009 1033 1034
f 1009 1034 1035
f 1009 1035 1036
f 1009 1036 1037
f 1009 1037 1010
f 1010 1037 1038
f 1010 1038 1039
f 1010 1039 1040
f 1010 1040 1011
f 1011 1040 1041
f 1011 1041 1042
f 1011 1042 1043
f 1011 1043 1044
f 1011 1044 1045
f 1011 1045 1046
f 1011 1046 1012
f 1012 1046 1013
f 1017 1019 1047
f 1017 1047 1020
f 1021 1027 1022
f 1029 1048 1032
f 1029 1032 1031
f 1030 1032 1049
f 1030 1049 1050
f 1032 1048 1049
f 1033 1051 1034
f 1034 1051 1052
f 1034 1052 1053
f 1034 1053 1054
f 1034 1054 1055
f 1034 1055 1035
f 1035 1055 1036
f 1048 1056 1049
f 1049 1056 1057
f 1049 1057 1058
f 1049 1058 1050
f 1050 1058 1059
f 1052 1060 1053
f 1053 1060 1061
f 1053 1061 1062
f 1053 1062 1063
f 1053 1063 1064
f 1053 1064 1065
f 1053 1065 1054
f 1054 1065 1055
f 1055 1065 1066
f 1055 1066 1067
f 1057 1068 1069
f 1057 1069 1058
f 1058 1069 1070
f 1058 1070 1059
f 1060 1071 1061
f 1061 1071 1072
f 1061 1072 1062
f 1062 1072 1073
f 1062 1073 1074
f 1062 1074 1063
f 1063 1074 1075
f 1063 1075 1064
f 1064 1075 1076
f 1064 1076 1065
f 1065 1076 1066
f 1066 1076 1077
f 1066 1077 1078
f 1066 1078 1067
f 1068 1079 1080
f 1068 1080 1069
f 1069 1080 1070
f 1070 1080 1082
f 1070 1082 1083
f 1070 1083 1081
f 1073 1084 1085
f 1073 1085 1074
f 1074 1085 1086
f 1074 1086 1087
f 1074 1087 1088
f 1074 1088 1089
f 1074 1089 1075
f 1075 1089 1090
f 1075 1090 1076
f 1076 1090 1091
f 1076 1091 1092
f 1076 1092 1077
f 1077 1093 1078
f 1077 1092 1094
f 1077 1094 1093
f 1078 1093 1095
f 1079 1096 1080
f 1080 1096 1082
f 1081 1083 1097
f 1081 1097 1098
f 1081 1098 1099
f 1081 1099 1100
f 1082 1096 1083
f 1083 1096 1098
f 1083 1098 1097
f 1084 1101 1085
f 1085 1101 1102
f 1085 1102 1086
f 1086 1102 1103
f 1086 1103 1104
f 1086 1104 1087
f 1087 1104 1088
f 1088 1104 1089
f 1089 1104 1105
f 1089 1105 1106
f 1089 1106 1090
f 1090 1106 1091
f 1091 1106 1107
f 1091 1107 1108
f 1091 1108 1092
f 1092 1108 1109
f 1092 1109 1110
f 1092 1110 1094
f 1093 1111 1112
f 1093 1112 1095
f 1093 1094 1111
f 1094 1113 1111
f 1094 1110 1114
f 1094 1114 1113
f 1099 1115 1100
f 1100 1115 1116
f 1100 1116 1117
f 1100 1117 1118
f 1100 1118 1135
f 1100 1135 1119
f 1101 1120 1102
f 1102 1121 1122
f 1102 1122 1103
f 1102 1120 1121
f 1103 1122 1123
f 1103 1123 1104
f 1104 1123 1124
f 1104 1124 1105
f 1105 1124 1106
f 1106 1124 1107
f 1107 1124 1125
f 1107 1125 1126
f 1107 1126 1108
f 1108 1126 1109
f 1109 1126 1110
f 1110 1126 1114
f 1111 1113 1127
f 1111 1127 1128
f 1113 1114 1130
f 1113 1130 1127
f 1114 1126 1129
f 1114 1129 1130
f 1115 1131 1117
f 1115 1117 1116
f 1117 1131 1132
f 1117 1132 1133
f 1117 1133 1134
f 1117 1134 1118
f 1118 1134 1153
f 1118 1153 1135
f 1119 1135 1136
f 1119 1136 1137
f 1119 1137 1138
f 1119 1138 1139
f 1121 1140 1122
f 1122 1140 1141
f 1122 1141 1123
f 1123 1142 1143
f 1123 1143 1124
f 1123 1141 1142
f 1124 1143 1125
f 1125 1143 1144
f 1125 1144 1126
f 1126 1144 1145
f 1126 1145 1146
f 1126 1146 1129
f 1127 1130 1128
f 1128 1130 1147
f 1129 1146 1148
f 1129 1148 1149
f 1129 1149 1150
f 1129 1150 1130
f 1130 1150 1151
f 1130 1151 1147
f 1133 1152 1153
f 1133 1153 1134
f 1135 1153 1152
f 1135 1152 1136
f 1136 1154 1155
f 1136 1155 1138
f 1136 1138 1137
f 1138 1155 1156
f 1138 1156 1157
f 1138 1157 1158
f 1138 1158 1159
f 1138 1159 1160
f 1138 1160 1139
f 1139 1160 1161
f 1139 1161 1162
f 1141 1163 1142
f 1142 1163 1164
f 1142 1164 1165
f 1142 1165 1166
f 1142 1166 1143
f 1143 1166 1167
f 1143 1167 1144
f 1144 1167 1168
f 1144 1168 1145
f 1145 1168 1169
f 1145 1169 1146
f 1146 1169 1148
f 1148 1169 1170
f 1148 1170 1149
f 1154 1171 1156
f 1154 1156 1155
f 1156 1171 1172
f 1156 1172 1173
f 1156 1173 1174
f 1156 1174 1157
f 1157 1174 1158
f 1158 1174 1159
f 1159 1174 1175
f 1159 1175 1160
f 1160 1175 1161
f 1161 1176 1162
f 1161 1175 1177
f 1161 1177 1176
f 1163 1178 1165
f 1163 1165 1164
f 1163 1179 1178
f 1165 1178 1166
f 1166 1178 1180
f 1166 1180 1181
f 1166 1181 1167
f 1167 1181 1182
f 1167 1182 1183
f 1167 1183 1168
f 1168 1183 1184
f 1168 1184 1169
f 1169 1184 1185
f 1173 1185 1174
f 1174 1185 1184
f 1174 1184 1186
f 1174 1186 1175
f 1175 1186 1187
f 1175 1187 1188
f 1175 1188 1177
f 1176 1177 1190
f 1176 1190 1189
f 1177 1188 1191
f 1177 1191 1189
f 1177 1189 1190
f 1178 1179 1180
f 1179 1192 1193
f 1179 1193 1180
f 1180 1193 1191
f 1180 1191 1181
f 1181 1191 1188
f 1181 1188 1182
f 1182 1188 1183
f 1183 1188 1184
f 1184 1188 1187
f 1184 1187 1186
f 1189 1191 1192
f 1191 1193 1192

o geometry_5
v -0.13438185 -0.10942193 -0.22133406
v -0.13010379 -0.10942193 -0.22106876
v -0.13624986 -0.10942193 -0.22130091
v -0.13618314 -0.10751716 -0.22143356
v -0.13618314 -0.10021559 -0.22173200
v -0.13057079 -0.10751716 -0.22110193
v -0.13141306 -0.10021559 -0.22080346
v -0.13203017 -0.09434258 -0.22037234
v -0.12895297 -0.10942193 -0.21944379
v -0.14112002 -0.10021559 -0.22083664
v -0.14196228 -0.09291401 -0.22113511
v -0.13916027 -0.10942193 -0.22043869
v -0.19475847 0.12615970 -0.22222947
v -0.19475847 0.13346128 -0.22239527
v -0.19475847 0.14078931 -0.22206365
v -0.18980492 0.13346128 -0.22096928
v -0.15398758 -0.00526865 -0.22033919
v -0.15438786 -0.00124750 -0.22000757
v -0.14711598 -0.03061253 -0.21997439
v -0.13983577 -0.06000401 -0.21990807
v -0.13263059 -0.08947486 -0.21974226
v -0.12692651 -0.10942193 -0.21626017
v -0.19966199 0.12615970 -0.22090293
v -0.20055429 0.13346128 -0.22130091
v -0.14026107 -0.10751716 -0.22023969
v -0.14769139 -0.07831087 -0.22033919
v -0.14005258 -0.10942193 -0.22007387
v -0.20237227 0.14137132 -0.22126776
v -0.20208038 0.14809089 -0.22159935
v -0.19695171 0.15303797 -0.22083664
v -0.19460837 0.14756179 -0.22123458
v -0.19055546 0.14078931 -0.22043869
v -0.19098076 0.14478402 -0.22004072
v -0.15399592 0.00026044 -0.21626017
v -0.13945216 -0.05836381 -0.21626017
v -0.13201348 -0.08727910 -0.21483417
v -0.12613428 -0.10942193 -0.20893121
v -0.14724941 -0.08233202 -0.21997439
v -0.20579138 0.14422846 -0.21997439
v -0.14082813 -0.10942193 -0.21811729
v -0.20583308 0.14809089 -0.22000757
v -0.20581639 0.15184750 -0.21997439
v -0.20208038 0.15279988 -0.22067081
v -0.19940347 0.15930781 -0.21320920
v -0.19801914 0.15930781 -0.21320920
v -0.19608442 0.15544538 -0.21589538
v -0.19214826 0.14917555 -0.21626017
v -0.19076395 0.14549830 -0.21626017
v -0.17601170 0.08772061 -0.21626017
v -0.16129281 0.02967838 -0.21480101
v -0.15592230 0.00933450 -0.20893121
v -0.18987998 0.15539247 0.01820023
v -0.12345736 -0.10942193 0.01820023
v -0.14779147 -0.08510979 -0.21596171
v -0.14733280 -0.08995105 -0.21330870
v -0.20580807 0.13684752 -0.21291074
v -0.20614997 0.14137132 -0.21569641
v -0.20690051 0.14809089 -0.21626017
v -0.14141189 -0.10942193 -0.21609436
v -0.20644186 0.15309089 -0.21626017
v -0.20424861 0.15819669 -0.20893121
v -0.20193862 0.15650357 -0.21589538
v -0.20058766 0.15965171 -0.20893121
v -0.19756048 0.15965171 -0.20893121
v -0.19460003 0.15539247 -0.20893121
v -0.19179802 0.14920199 -0.20893121
v -0.17680393 0.09187405 -0.20893121
v -0.19102245 0.15195332 -0.13401664
v -0.19097242 0.15213850 -0.12831265
v -0.16115939 0.03012812 -0.20893121
v -0.15959160 0.02393765 -0.20893121
v -0.19050543 0.15367289 -0.06968097
v -0.19117257 0.15888452 -0.01111561
v -0.19103080 0.15912261 0.01087127
v -0.19098910 0.15917553 0.01820023
v -0.18709464 0.14809089 0.11639503
v -0.12344067 -0.10942193 0.02009050
v -0.14226251 -0.10942193 -0.21085464
v -0.14252936 -0.10942193 -0.20893121
v -0.14302972 -0.10751716 -0.20893121
v -0.14492275 -0.10021559 -0.20893121
v -0.20330627 0.12615970 -0.20893121
v -0.20498247 0.13306445 -0.20893121
v -0.20584142 0.13671524 -0.20893121
v -0.20669204 0.14078931 -0.20893121
v -0.20792625 0.14809089 -0.20893121
v -0.20707563 0.15454590 -0.20893121
v -0.20492410 0.15848770 -0.20160224
v -0.20126314 0.15988981 -0.20160224
v -0.19728529 0.15988981 -0.20160224
v -0.19123928 0.15877870 -0.01844457
v -0.19251519 0.15578929 -0.12831265
v -0.19240678 0.15594802 -0.12098369
v -0.19617616 0.16060409 -0.12831265
v -0.19598436 0.16073637 -0.11365473
v -0.19590930 0.16078929 -0.10632577
v -0.19585093 0.16081573 -0.09899680
v -0.19543395 0.16084219 -0.04776041
v -0.19475847 0.16070992 0.01087127
v -0.19093907 0.15920198 0.09145667
v -0.19028860 0.15769404 0.11639503
v -0.18934625 0.15539247 0.11639503
v -0.18842893 0.15248242 0.11639503
v -0.12276519 -0.10942193 0.11639503
v -0.12338230 -0.10942193 0.02741947
v -0.14255438 -0.10942193 -0.20349253
v -0.14306308 -0.10751716 -0.20160224
v -0.20145494 0.11885813 -0.20160224
v -0.20333128 0.12615970 -0.20160224
v -0.20499915 0.13306445 -0.20160224
v -0.20583308 0.13671524 -0.20160224
v -0.20668368 0.14078931 -0.20160224
v -0.20795960 0.14809089 -0.20160224
v -0.20710900 0.15483691 -0.20160224
v -0.20117140 0.16081573 -0.09899680
v -0.20117974 0.16078929 -0.10632577
v -0.20115472 0.16073637 -0.11365473
v -0.20483236 0.15690040 -0.09899680
v -0.20030411 0.16060409 0.04751607
v -0.20036249 0.16063055 0.04018711
v -0.20076278 0.16068346 -0.00378665
v -0.20089621 0.16084219 -0.04776041
v -0.20119642 0.16018082 -0.17228641
v -0.19695171 0.16018082 -0.17228641
v -0.20107967 0.16060409 -0.12831265
v -0.19475847 0.16068346 0.01820023
v -0.19093073 0.15920198 0.11639503
v -0.19093073 0.15920198 0.11344355
v -0.19488356 0.16063055 0.04018711
v -0.19486689 0.16060409 0.04751607
v -0.13886006 -0.10942193 0.11639503
v -0.14256272 -0.10942193 -0.20160224
v -0.14494776 -0.10021559 -0.19427329
v -0.14305474 -0.10751716 -0.19427329
v -0.14494776 -0.10021559 -0.17961537
v -0.20141324 0.11885813 -0.19427329
v -0.14493942 -0.10021559 -0.17228641
v -0.14490606 -0.10021559 -0.16495745
v -0.20328125 0.12615970 -0.19427329
v -0.20497413 0.13314382 -0.19427329
v -0.20581639 0.13679461 -0.19427329
v -0.20660864 0.14078931 -0.19427329
v -0.20575802 0.14436074 -0.07193603
v -0.20573301 0.14457238 -0.06702795
v -0.20564127 0.14547185 -0.04776041
v -0.20559124 0.14592158 -0.04043145
v -0.20594982 0.14957237 -0.04043145
v -0.20594982 0.15242950 -0.04043145
v -0.20453214 0.15608029 -0.04043145
v -0.20456549 0.15621256 -0.04776041
v -0.19965364 0.16007499 0.10611459
v -0.19475847 0.16023373 0.10611459
v -0.19475847 0.16028664 0.09878564
v -0.19475847 0.16015436 0.11344355
v -0.19475847 0.16010145 0.11639503
v -0.13914360 -0.10831081 0.11639503
v -0.20001224 0.12615970 0.05484503
v -0.20025408 0.12615970 0.04018711
v -0.14173713 -0.10942193 -0.07700993
v -0.14255438 -0.10942193 -0.19427329
v -0.14480600 -0.10021559 -0.15029954
v -0.14474762 -0.10021559 -0.14297057
v -0.14211240 -0.10942193 -0.11365473
v -0.14182885 -0.10942193 -0.08433888
v -0.20133820 0.11885813 -0.18694434
v -0.14298803 -0.10751716 -0.17228641
v -0.14232088 -0.10942193 -0.14297057
v -0.14282957 -0.10751716 -0.14297057
v -0.20319785 0.12615970 -0.18694434
v -0.20203869 0.13346128 0.04018711
v -0.20477398 0.14078931 -0.04776041
v -0.20467392 0.14078931 -0.04043145
v -0.20193028 0.13346128 0.04751607
v -0.20324789 0.14078931 0.04751607
v -0.20208038 0.14078931 0.11639503
v -0.20244732 0.14369936 0.11639503
v -0.20297269 0.14809089 0.11639503
v -0.20584142 0.15076284 -0.03310249
v -0.20584142 0.15205914 -0.03310249
v -0.20188025 0.15539247 0.11639503
v -0.20193862 0.15539247 0.11344355
v -0.20386500 0.15539247 0.01087127
v -0.19948686 0.15994272 0.11639503
v -0.19661815 0.16004855 0.11639503
v -0.19813589 0.12367295 0.11639503
v -0.19975372 0.12615970 0.06950296
v -0.19988715 0.12615970 0.06217399
v -0.20124646 0.11885813 -0.17961537
v -0.14250433 -0.10942193 -0.18150565
v -0.14217077 -0.10942193 -0.12111634
v -0.14249601 -0.10942193 -0.17961537
v -0.14246264 -0.10942193 -0.17228641
v -0.14243763 -0.10942193 -0.16684773
v -0.14227084 -0.10942193 -0.13564160
v -0.20180519 0.13346128 0.05484503
v -0.20116306 0.13639779 0.11639503
v -0.20167176 0.13346128 0.06217399
v -0.20153000 0.13346128 0.06950296
v -0.20137989 0.13346128 0.07683191
v -0.19867794 0.12586870 0.11639503
v -0.19903653 0.12732373 0.11639503
v -0.20053761 0.13346128 0.11639503
f 1194 1195 1202
f 1194 1202 1215
f 1194 1215 1230
f 1194 1230 1246
f 1194 1246 1270
f 1194 1270 1298
f 1194 1298 1297
f 1194 1297 1324
f 1194 1324 1352
f 1194 1352 1357
f 1194 1357 1356
f 1194 1356 1383
f 1194 1383 1387
f 1194 1387 1360
f 1194 1360 1386
f 1194 1386 1385
f 1194 1385 1384
f 1194 1384 1382
f 1194 1382 1353
f 1194 1353 1325
f 1194 1325 1299
f 1194 1299 1272
f 1194 1272 1271
f 1194 1271 1252
f 1194 1252 1233
f 1194 1233 1220
f 1194 1220 1205
f 1194 1205 1196
f 1194 1196 1197
f 1194 1197 1198
f 1194 1198 1195
f 1195 1198 1199
f 1195 1199 1200
f 1195 1200 1201
f 1195 1201 1202
f 1196 1203 1204
f 1196 1204 1197
f 1196 1205 1203
f 1197 1206 1198
f 1197 1204 1206
f 1198 1206 1207
f 1198 1207 1199
f 1199 1207 1208
f 1199 1208 1200
f 1200 1208 1209
f 1200 1209 1210
f 1200 1210 1201
f 1201 1210 1211
f 1201 1211 1212
f 1201 1212 1213
f 1201 1213 1214
f 1201 1214 1215
f 1201 1215 1202
f 1203 1216 1217
f 1203 1217 1204
f 1203 1205 1218
f 1203 1218 1219
f 1203 1219 1216
f 1204 1217 1206
f 1205 1220 1218
f 1206 1217 1221
f 1206 1221 1222
f 1206 1222 1207
f 1207 1222 1208
f 1208 1222 1223
f 1208 1223 1224
f 1208 1224 1225
f 1208 1225 1209
f 1209 1225 1210
f 1210 1225 1211
f 1211 1225 1226
f 1211 1226 1227
f 1211 1227 1228
f 1211 1228 1212
f 1212 1228 1213
f 1213 1215 1214
f 1213 1228 1229
f 1213 1229 1215
f 1215 1229 1230
f 1216 1219 1231
f 1216 1231 1232
f 1216 1232 1217
f 1217 1232 1221
f 1218 1220 1219
f 1219 1220 1231
f 1220 1233 1231
f 1221 1232 1222
f 1222 1232 1234
f 1222 1234 1235
f 1222 1235 1236
f 1222 1236 1223
f 1223 1226 1224
f 1223 1236 1237
f 1223 1237 1238
f 1223 1238 1239
f 1223 1239 1226
f 1224 1226 1225
f 1226 1239 1240
f 1226 1240 1241
f 1226 1241 1242
f 1226 1242 1227
f 1227 1242 1243
f 1227 1243 1230
f 1227 1230 1229
f 1227 1229 1228
f 1230 1243 1244
f 1230 1244 1245
f 1230 1245 1246
f 1231 1233 1247
f 1231 1247 1232
f 1232 1247 1248
f 1232 1248 1249
f 1232 1249 1250
f 1232 1250 1251
f 1232 1251 1234
f 1233 1252 1248
f 1233 1248 1247
f 1234 1251 1235
f 1235 1251 1253
f 1235 1253 1254
f 1235 1254 1255
f 1235 1255 1236
f 1236 1255 1237
f 1237 1255 1254
f 1237 1254 1256
f 1237 1256 1257
f 1237 1257 1238
f 1238 1257 1258
f 1238 1258 1239
f 1239 1258 1240
f 1240 1258 1259
f 1240 1259 1241
f 1241 1260 1242
f 1241 1259 1261
f 1241 1261 1262
f 1241 1262 1260
f 1242 1263 1264
f 1242 1264 1243
f 1242 1260 1263
f 1243 1264 1244
f 1244 1264 1265
f 1244 1265 1245
f 1245 1266 1267
f 1245 1267 1268
f 1245 1268 1269
f 1245 1269 1246
f 1245 1265 1266
f 1246 1269 1270
f 1248 1252 1271
f 1248 1271 1272
f 1248 1272 1273
f 1248 1273 1274
f 1248 1274 1275
f 1248 1275 1249
f 1249 1275 1276
f 1249 1276 1277
f 1249 1277 1278
f 1249 1278 1279
f 1249 1279 1250
f 1250 1279 1251
f 1251 1279 1253
f 1253 1279 1280
f 1253 1280 1254
f 1254 1280 1281
f 1254 1281 1256
f 1256 1281 1282
f 1256 1282 1283
f 1256 1283 1257
f 1257 1283 1258
f 1258 1283 1284
f 1258 1284 1285
f 1258 1285 1259
f 1259 1285 1261
f 1260 1262 1265
f 1260 1265 1263
f 1261 1285 1286
f 1261 1286 1284
f 1261 1284 1262
f 1262 1284 1265
f 1263 1265 1264
f 1265 1284 1266
f 1266 1284 1287
f 1266 1287 1288
f 1266 1288 1267
f 1267 1288 1289
f 1267 1289 1268
f 1268 1289 1290
f 1268 1290 1291
f 1268 1291 1292
f 1268 1292 1293
f 1268 1293 1294
f 1268 1294 1295
f 1268 1295 1296
f 1268 1296 1269
f 1269 1296 1295
f 1269 1295 1294
f 1269 1294 1320
f 1269 1320 1348
f 1269 1348 1377
f 1269 1377 1376
f 1269 1376 1373
f 1269 1373 1370
f 1269 1370 1369
f 1269 1369 1368
f 1269 1368 1389
f 1269 1389 1395
f 1269 1395 1394
f 1269 1394 1393
f 1269 1393 1378
f 1269 1378 1349
f 1269 1349 1324
f 1269 1324 1297
f 1269 1297 1298
f 1269 1298 1270
f 1272 1299 1273
f 1273 1299 1300
f 1273 1300 1274
f 1274 1300 1301
f 1274 1301 1275
f 1275 1301 1302
f 1275 1302 1276
f 1276 1302 1303
f 1276 1303 1277
f 1277 1303 1304
f 1277 1304 1305
f 1277 1305 1278
f 1278 1305 1306
f 1278 1306 1279
f 1279 1306 1307
f 1279 1307 1280
f 1280 1307 1281
f 1281 1308 1309
f 1281 1309 1310
f 1281 1310 1282
f 1281 1307 1311
f 1281 1311 1312
f 1281 1312 1313
f 1281 1313 1314
f 1281 1314 1315
f 1281 1315 1308
f 1282 1310 1316
f 1282 1316 1317
f 1282 1317 1283
f 1283 1317 1287
f 1283 1287 1284
f 1284 1286 1285
f 1287 1317 1316
f 1287 1316 1318
f 1287 1318 1310
f 1287 1310 1288
f 1288 1310 1309
f 1288 1309 1289
f 1289 1309 1308
f 1289 1308 1290
f 1290 1308 1315
f 1290 1315 1291
f 1291 1315 1292
f 1292 1319 1320
f 1292 1320 1321
f 1292 1321 1293
f 1292 1315 1313
f 1292 1313 1322
f 1292 1322 1323
f 1292 1323 1319
f 1293 1321 1294
f 1294 1321 1320
f 1299 1325 1300
f 1300 1326 1301
f 1300 1325 1353
f 1300 1353 1327
f 1300 1327 1330
f 1300 1330 1328
f 1300 1328 1326
f 1301 1329 1302
f 1301 1326 1328
f 1301 1328 1330
f 1301 1330 1331
f 1301 1331 1329
f 1302 1329 1332
f 1302 1332 1333
f 1302 1333 1303
f 1303 1333 1334
f 1303 1334 1304
f 1304 1334 1305
f 1305 1334 1335
f 1305 1335 1306
f 1306 1335 1336
f 1306 1336 1337
f 1306 1337 1338
f 1306 1338 1339
f 1306 1339 1340
f 1306 1340 1341
f 1306 1341 1307
f 1307 1341 1342
f 1307 1342 1343
f 1307 1343 1311
f 1310 1318 1316
f 1311 1343 1312
f 1312 1344 1345
f 1312 1345 1346
f 1312 1346 1323
f 1312 1323 1322
f 1312 1322 1313
f 1312 1343 1342
f 1312 1342 1344
f 1313 1315 1314
f 1319 1323 1320
f 1320 1323 1346
f 1320 1346 1345
f 1320 1345 1347
f 1320 1347 1348
f 1324 1349 1350
f 1324 1350 1351
f 1324 1351 1352
f 1327 1353 1330
f 1329 1331 1354
f 1329 1354 1355
f 1329 1355 1356
f 1329 1356 1357
f 1329 1357 1358
f 1329 1358 1332
f 1330 1359 1331
f 1330 1353 1359
f 1331 1359 1360
f 1331 1360 1361
f 1331 1361 1354
f 1332 1358 1362
f 1332 1362 1333
f 1333 1362 1363
f 1333 1363 1334
f 1334 1363 1364
f 1334 1364 1335
f 1335 1364 1336
f 1336 1364 1337
f 1337 1364 1338
f 1338 1364 1365
f 1338 1365 1366
f 1338 1366 1367
f 1338 1367 1368
f 1338 1368 1339
f 1339 1368 1369
f 1339 1369 1370
f 1339 1370 1340
f 1340 1370 1371
f 1340 1371 1372
f 1340 1372 1341
f 1341 1372 1373
f 1341 1373 1374
f 1341 1374 1375
f 1341 1375 1342
f 1342 1375 1374
f 1342 1374 1344
f 1344 1374 1373
f 1344 1373 1376
f 1344 1376 1377
f 1344 1377 1347
f 1344 1347 1345
f 1347 1377 1348
f 1349 1378 1379
f 1349 1379 1380
f 1349 1380 1350
f 1350 1380 1388
f 1350 1388 1366
f 1350 1366 1351
f 1351 1366 1363
f 1351 1363 1362
f 1351 1362 1381
f 1351 1381 1352
f 1352 1381 1358
f 1352 1358 1357
f 1353 1382 1359
f 1354 1361 1383
f 1354 1383 1356
f 1354 1356 1355
f 1358 1381 1362
f 1359 1382 1384
f 1359 1384 1385
f 1359 1385 1386
f 1359 1386 1360
f 1360 1387 1361
f 1361 1387 1383
f 1363 1366 1365
f 1363 1365 1364
f 1366 1388 1368
f 1366 1368 1367
f 1368 1388 1390
f 1368 1390 1391
f 1368 1391 1392
f 1368 1392 1389
f 1370 1373 1372
f 1370 1372 1371
f 1378 1393 1379
f 1379 1392 1391
f 1379 1391 1390
f 1379 1390 1388
f 1379 1388 1380
f 1379 1393 1394
f 1379 1394 1395
f 1379 1395 1392
f 1389 1392 1395

