# https://github.com/mikedh/trimesh

o geometry_0
v 0.06567981 -0.00119596 -0.01219343
v 0.06567981 0.00184973 -0.01177558
v 0.06904637 -0.00119596 -0.01215004
v 0.06904637 -0.00424588 -0.01175503
v 0.06567981 -0.00424588 -0.01178471
v 0.06229310 -0.00119596 -0.01218658
v 0.06229310 0.00184973 -0.01178699
v 0.06567981 0.00489965 -0.01057683
v 0.06904637 0.00184973 -0.01172078
v 0.06229310 0.00489965 -0.01060423
v 0.07241293 -0.00119596 -0.01206328
v 0.07241293 -0.00424588 -0.01167739
v 0.07241293 -0.00704622 -0.01045124
v 0.06904637 -0.00709275 -0.01048549
v 0.06567981 -0.00711390 -0.01049691
v 0.06229310 -0.00712448 -0.01049006
v 0.06229310 -0.00424588 -0.01177329
v 0.05892653 -0.00119596 -0.01215004
v 0.05892653 0.00184973 -0.01176416
v 0.05892653 0.00489965 -0.01058824
v 0.06567981 0.00665726 -0.00970688
v 0.06904637 0.00661919 -0.00968404
v 0.07241293 0.00657266 -0.00965436
v 0.06904637 0.00489965 -0.01052203
v 0.07241293 0.00489965 -0.01044896
v 0.07241293 0.00184973 -0.01163173
v 0.06229310 0.00667630 -0.00971829
v 0.07579965 0.00184973 -0.01149244
v 0.07579965 -0.00119596 -0.01191943
v 0.07579965 -0.00424588 -0.01154039
v 0.07579965 -0.00696162 -0.01038731
v 0.07241293 -0.00857118 -0.00931871
v 0.06904637 -0.00861771 -0.00936438
v 0.06567981 -0.00863886 -0.00938949
v 0.06229310 -0.00864944 -0.00939634
v 0.05892653 -0.00710333 -0.01047179
v 0.05892653 -0.00424588 -0.01173448
v 0.05555998 -0.00119596 -0.01209524
v 0.05555998 0.00184973 -0.01171849
v 0.05892653 0.00665726 -0.00970916
v 0.05555998 0.00489965 -0.01053573
v 0.06567981 0.00818222 -0.00872504
v 0.06904637 0.00814415 -0.00870221
v 0.07241293 0.00809551 -0.00866111
v 0.07503361 0.00650498 -0.00961326
v 0.07602140 0.00519153 -0.01017496
v 0.06229310 0.00819914 -0.00872733
v 0.07916621 0.00470506 -0.01018181
v 0.07916621 0.00184973 -0.01126639
v 0.07916621 -0.00119596 -0.01168196
v 0.07916621 -0.00424588 -0.01130521
v 0.07916621 -0.00680722 -0.01027314
v 0.07579965 -0.00848658 -0.00923651
v 0.07579965 -0.00968159 -0.00772951
v 0.07241293 -0.00971331 -0.00781171
v 0.06904637 -0.00973235 -0.00785738
v 0.06567981 -0.00974081 -0.00788249
v 0.06229310 -0.00972177 -0.00788934
v 0.05892653 -0.00862829 -0.00936666
v 0.05555998 -0.00704411 -0.01043983
v 0.05555998 -0.00424588 -0.01167283
v 0.05217326 -0.00119596 -0.01202446
v 0.05217326 0.00184973 -0.01164771
v 0.05555998 0.00660016 -0.00967948
v 0.05892653 0.00818011 -0.00868623
v 0.05217326 0.00489965 -0.01044896
v 0.06567981 0.01011539 -0.00721804
v 0.06904637 0.01010058 -0.00719521
v 0.07241293 0.01007309 -0.00715411
v 0.07579965 0.00999695 -0.00707191
v 0.07602140 0.00769153 -0.00876843
v 0.07729142 0.00640346 -0.00955389
v 0.06229310 0.01011327 -0.00722033
v 0.07916621 0.00622791 -0.00946028
v 0.08253277 0.00433281 -0.01002426
v 0.08253277 0.00184973 -0.01095129
v 0.08253277 -0.00119596 -0.01136001
v 0.08253277 -0.00424588 -0.01097184
v 0.08591948 -0.00629537 -0.00990553
v 0.08253277 -0.00658091 -0.01010646
v 0.07916621 -0.00833218 -0.00909266
v 0.07916621 -0.00959276 -0.00758566
v 0.07579965 -0.01050858 -0.00504431
v 0.07241293 -0.01057626 -0.00504431
v 0.06904637 -0.01062491 -0.00504431
v 0.06567981 -0.01066509 -0.00504431
v 0.06229310 -0.01065663 -0.00504431
v 0.05892653 -0.01063548 -0.00504431
v 0.05555998 -0.01059741 -0.00504431
v 0.05892653 -0.00968793 -0.00785966
v 0.05555998 -0.00964986 -0.00779801
v 0.05555998 -0.00856907 -0.00930501
v 0.05217326 -0.00697008 -0.01039873
v 0.05217326 -0.00424588 -0.01159519
v 0.04880670 -0.00119596 -0.01190116
v -0.07597774 0.00184973 -0.00707191
v 0.04880670 0.00184973 -0.01153126
v -0.07597774 0.00360946 -0.00666319
v 0.05217326 0.00651978 -0.00962924
v 0.05892653 0.01007309 -0.00717923
v 0.05555998 0.00812512 -0.00860631
v 0.05007672 0.00645845 -0.00958814
v 0.06904637 0.01046649 -0.00504431
v 0.07241293 0.01046649 -0.00504431
v 0.07579965 0.01043053 -0.00504431
v 0.07916621 0.01030363 -0.00504431
v 0.07916621 0.00982140 -0.00689381
v 0.07916621 0.00794957 -0.00829578
v 0.06229310 0.01045168 -0.00504431
v 0.06567981 0.01046437 -0.00504431
v -0.07261118 0.01012173 0.00098141
v 0.08253277 0.00585777 -0.00922966
v 0.08591948 0.00389922 -0.00982333
v 0.08591948 0.00184973 -0.01056541
v 0.08591948 -0.00119596 -0.01097641
v 0.08591948 -0.00424588 -0.01057683
v 0.08860064 -0.00601407 -0.00972058
v 0.08591948 -0.00781822 -0.00867709
v 0.08253277 -0.00810587 -0.00889173
v 0.08928605 -0.00912321 -0.00692806
v 0.08591948 -0.00929876 -0.00717009
v 0.08253277 -0.00944893 -0.00738473
v 0.07916621 -0.01036475 -0.00504431
v 0.08253277 -0.01008345 0.00098141
v 0.07916621 -0.01021458 0.00098141
v 0.07241293 -0.01023362 0.00399541
v 0.06904637 -0.01021247 0.00399541
v 0.04880670 -0.01039436 -0.00203031
v -0.05573807 -0.00937913 0.00098141
v 0.05217326 -0.01052127 -0.00504431
v -0.05910462 -0.00933683 0.00098141
v -0.06585790 -0.00895612 -0.00086581
v 0.05217326 -0.00958429 -0.00771353
v 0.05217326 -0.00849504 -0.00922053
v 0.04880670 -0.00685164 -0.01032794
v 0.04880670 -0.00424588 -0.01146048
v -0.07597774 -0.00316720 -0.00676366
v -0.07597774 -0.00119596 -0.00717466
v -0.09958397 -0.00119596 -0.00562884
v -0.09958397 0.00184973 -0.00551696
v -0.07789285 0.00350582 -0.00661296
v -0.07597774 0.00513442 -0.00578411
v -0.07597774 0.00715430 -0.00427711
v -0.07597774 0.00867926 -0.00224038
v -0.07261118 0.00963527 -0.00083156
v 0.06567981 0.01094238 0.00399541
v 0.06904637 0.01090219 0.00399541
v 0.07241293 0.01076894 0.00399541
v 0.09118099 0.00950837 -0.00360353
v 0.08257308 0.00994618 -0.00518816
v 0.08146434 0.00962469 -0.00669744
v 0.08257308 0.00815684 -0.00757653
v -0.07597774 0.00958239 -0.00073338
v -0.07597774 0.00999695 0.00098141
v -0.07261118 0.01009635 0.00399541
v 0.08591948 0.00542418 -0.00890771
v 0.08825794 0.00357350 -0.00966578
v 0.08934652 0.00203162 -0.01004024
v 0.09265260 0.00109254 -0.00981419
v 0.09468867 0.00053627 -0.00963153
v 0.08928605 -0.00119596 -0.01052888
v 0.09450724 -0.00285417 -0.00959499
v 0.09265260 -0.00352253 -0.00974798
v 0.08954811 -0.00450180 -0.01001284
v 0.09083829 -0.00569047 -0.00954248
v 0.09603932 -0.00700604 -0.00752629
v 0.09283404 -0.00756864 -0.00769983
v 0.08954811 -0.00713717 -0.00864741
v 0.09182609 -0.00895401 -0.00671114
v 0.09283404 -0.00924800 -0.00527721
v 0.08928605 -0.00960756 -0.00504431
v 0.08591948 -0.00988886 -0.00504431
v 0.08253277 -0.01014902 -0.00504431
v 0.09603932 -0.00938971 -0.00203031
v 0.08591948 -0.00986771 0.00098141
v 0.07916621 -0.01000096 0.00399541
v 0.07579965 -0.01015748 0.00399541
v 0.07241293 -0.00938125 0.00617599
v 0.06904637 -0.00942355 0.00625591
v 0.06567981 -0.00945105 0.00630842
v 0.06229310 -0.00947220 0.00634496
v 0.05892653 -0.00947008 0.00634952
v -0.05237151 -0.00877634 0.00535171
v -0.05237151 -0.00917186 0.00384471
v -0.05573807 -0.00915917 0.00376479
v -0.05910462 -0.00913802 0.00366889
v -0.06249135 -0.00910418 0.00353189
v -0.06585790 -0.00905976 0.00337662
v -0.06249135 -0.00927338 0.00098141
v -0.06922447 -0.00890113 -0.00073109
v -0.06922447 -0.00821797 -0.00223809
v -0.07261118 -0.00663167 -0.00446206
v -0.07261118 -0.00482329 -0.00596906
v -0.07597774 -0.00469216 -0.00586403
v -0.09958397 -0.00403437 -0.00446891
v -0.10182164 -0.00353310 -0.00411271
v -0.10212402 -0.00119596 -0.00449631
v -0.10212402 0.00184973 -0.00444379
v -0.10180147 0.00413822 -0.00404193
v -0.09958397 0.00462892 -0.00435703
v -0.09958397 0.00615388 -0.00327473
v -0.09958397 0.00730236 -0.00176773
v 0.06229310 0.01031421 0.00647282
v 0.06567981 0.01030575 0.00645227
v 0.06904637 0.01026133 0.00638606
v 0.07241293 0.01015558 0.00626047
v 0.07579965 0.00998214 0.00606867
v 0.07579965 0.01053629 0.00399541
v 0.09118099 0.00950837 -0.00347794
v 0.09603932 0.00804897 -0.00203031
v 0.09898254 0.00709085 -0.00203031
v 0.09857936 0.00698087 -0.00416523
v 0.09603932 0.00747791 -0.00466528
v 0.09603932 0.00603332 -0.00617228
v 0.09603932 0.00451048 -0.00748748
v -0.07785253 0.00951471 -0.00060323
v -0.07597774 0.00996945 0.00399541
v -0.09621742 0.00873848 0.00098141
v -0.09621742 0.00874271 0.00399541
v -0.07597774 0.00955278 0.00564169
v -0.07261118 0.00960777 0.00573531
v 0.09051574 0.00316953 -0.00949224
v 0.09265260 0.00261538 -0.00930729
v 0.09589821 0.00167206 -0.00901503
v 0.09640219 -0.00119596 -0.00930729
v 0.09470883 -0.00119596 -0.00963838
v 0.09265260 -0.00119596 -0.00999914
v 0.09265260 -0.00504537 -0.00937351
v 0.09577725 -0.00401957 -0.00902644
v 0.09603932 -0.00853099 -0.00602614
v 0.09408389 -0.00876788 -0.00643714
v 0.09870032 -0.00645400 -0.00707876
v 0.09603932 -0.00915282 -0.00451914
v 0.09807538 -0.00898150 -0.00395288
v 0.09827698 -0.00905976 -0.00203031
v 0.09809554 -0.00897727 0.00008406
v 0.09609980 -0.00910206 0.00104534
v 0.09265260 -0.00936856 0.00098141
v 0.09265260 -0.00915282 0.00308664
v 0.07916621 -0.00913590 0.00586546
v 0.07579965 -0.00928819 0.00604584
v 0.08928605 -0.00933895 0.00351134
v 0.08253277 -0.00974293 0.00399541
v 0.07241293 -0.00792186 0.00768299
v 0.06904637 -0.00802761 0.00776291
v 0.06567981 -0.00809318 0.00781542
v 0.06229310 -0.00812702 0.00785196
v 0.05892653 -0.00813548 0.00785652
v 0.05555998 -0.00812490 0.00783369
v -0.07597774 -0.00604580 0.00879041
v -0.05910462 -0.00752423 0.00700941
v -0.07261118 -0.00729368 0.00700941
v -0.07597774 -0.00721966 0.00700941
v -0.05573807 -0.00875096 0.00527179
v -0.05910462 -0.00872135 0.00517589
v -0.06249135 -0.00867905 0.00503889
v -0.06585790 -0.00863463 0.00488362
v -0.06922447 -0.00859022 0.00469639
v -0.07261118 -0.00854791 0.00446577
v -0.06922447 -0.00900265 0.00318939
v -0.06585790 -0.00919724 0.00098141
v -0.07148227 -0.00885037 -0.00059866
v -0.07261118 -0.00827296 -0.00177458
v -0.07597774 -0.00650477 -0.00435703
v -0.09958397 -0.00555933 -0.00327929
v -0.10224497 -0.00442777 -0.00218786
v -0.10305133 -0.00119596 -0.00203031
v -0.10174098 -0.00618539 -0.00128823
v -0.10303116 0.00184973 -0.00203031
v -0.10180147 0.00694491 -0.00127681
v -0.10226514 0.00505193 -0.00218101
v -0.09958397 0.00848256 0.00098141
v 0.05892653 0.00867292 0.00795927
v 0.06229310 0.00866023 0.00797982
v -0.07261118 0.00849948 0.00724231
v -0.07261118 0.00697452 0.00898221
v 0.06567981 0.00858831 0.00795927
v 0.06904637 0.00844449 0.00789306
v 0.07241293 0.00823298 0.00776747
v 0.07581981 0.00770845 0.00773551
v 0.07916621 0.00794957 0.00714184
v 0.07916621 0.00973891 0.00579696
v 0.07916621 0.01018942 0.00399541
v 0.08759269 0.00947453 0.00248841
v 0.09603932 0.00768518 0.00098141
v 0.09872048 0.00689204 0.00098141
v 0.10041384 0.00580912 0.00098141
v 0.10065574 0.00600159 -0.00203031
v 0.10146211 0.00408958 -0.00447804
v 0.10103876 0.00327316 -0.00648738
v 0.09880111 0.00401344 -0.00706734
v -0.07773158 0.00948933 0.00552752
v -0.09958397 0.00848045 0.00399541
v -0.09958397 0.00730024 0.00678792
v -0.07597774 0.00845084 0.00714869
v -0.09621742 0.00741446 0.00691351
v -0.09621742 0.00632097 0.00842051
v 0.09970827 0.00209296 -0.00753314
v 0.09940588 -0.00119596 -0.00819759
v 0.09964779 -0.00438547 -0.00751259
v 0.10093797 -0.00549377 -0.00635038
v 0.09950668 -0.00736137 -0.00515163
v 0.10142179 -0.00623615 -0.00434104
v 0.09995018 -0.00804665 -0.00203031
v 0.09928493 -0.00796627 0.00104534
v 0.09724887 -0.00868751 0.00209339
v 0.09501121 -0.00897304 0.00273501
v 0.08928605 -0.00844005 0.00501834
v 0.08662506 -0.00867270 0.00531289
v 0.07579965 -0.00775688 0.00755284
v 0.08253277 -0.00894766 0.00564854
v 0.08436724 -0.00883768 0.00552067
v 0.08565742 -0.00936433 0.00418264
v 0.07241293 -0.00639690 0.00895709
v 0.06904637 -0.00650265 0.00904386
v 0.07579965 -0.00623192 0.00883379
v 0.06567981 -0.00656822 0.00910094
v 0.06229310 -0.00660206 0.00913519
v 0.05892653 -0.00661052 0.00915346
v 0.05555998 -0.00659994 0.00915574
v -0.07597774 -0.00424588 0.00995034
v -0.09621742 -0.00396458 0.00936809
v -0.09958397 -0.00385248 0.00930644
v -0.09621742 -0.00548742 0.00818304
v -0.09958397 -0.00639478 0.00655959
v -0.07261118 -0.00893497 0.00295877
v -0.09958397 -0.00729157 0.00399541
v -0.07486900 -0.00887363 0.00271902
v -0.06922447 -0.00908303 0.00098141
v -0.07374009 -0.00879115 -0.00017853
v -0.09958397 -0.00732118 0.00098141
v -0.09958397 -0.00642439 -0.00177229
v -0.10297070 -0.00424588 0.00098141
v -0.10309165 -0.00119596 0.00098141
v -0.10309165 0.00184973 0.00098141
v -0.10206353 -0.00650054 0.00098141
v -0.10303116 0.00489965 0.00098141
v -0.10212402 0.00734043 0.00098141
v 0.05892653 0.00714796 0.00892056
v 0.06229310 0.00713527 0.00889772
v -0.07597774 0.00692588 0.00895024
v -0.07597774 0.00489965 0.01013529
v -0.07261118 0.00489965 0.01018781
v 0.06567981 0.00706336 0.00884521
v 0.06904637 0.00691953 0.00876529
v 0.07241293 0.00670803 0.00865797
v 0.07471106 0.00653247 0.00857121
v 0.07694871 0.00629136 0.00846846
v 0.07916621 0.00596987 0.00835429
v 0.08591948 0.00748002 0.00633811
v 0.08243197 0.00815050 0.00645912
v 0.08124259 0.00955278 0.00559374
v 0.09603932 0.00711412 0.00346111
v 0.09823666 0.00671649 0.00290169
v 0.10138147 0.00383366 0.00291311
v 0.10162337 0.00428416 0.00098141
v 0.10168386 0.00447663 -0.00203031
v 0.10255068 0.00184973 -0.00203031
v 0.10180480 0.00209296 -0.00530689
v 0.10132099 0.00124059 -0.00682074
v -0.10212402 0.00733831 0.00399541
v -0.10180147 0.00694280 0.00628331
v -0.09958397 0.00619406 0.00829492
v -0.09958397 0.00466911 0.00933612
v 0.10144194 -0.00119596 -0.00694861
v 0.10132099 -0.00346119 -0.00680933
v 0.10176449 -0.00438547 -0.00522469
v 0.10251037 -0.00424588 -0.00203031
v 0.10164354 -0.00652169 -0.00203031
v 0.10152259 -0.00632710 0.00098141
v 0.10128067 -0.00597600 0.00272587
v 0.09763188 -0.00570950 0.00547501
v 0.09632155 -0.00741001 0.00410501
v 0.09940588 -0.00658725 0.00339946
v 0.09265260 -0.00805934 0.00459364
v 0.08928605 -0.00691509 0.00638606
v 0.09265260 -0.00653438 0.00608466
v 0.08565742 -0.00751154 0.00644999
v 0.07916621 -0.00752634 0.00737246
v 0.07916621 -0.00600138 0.00867167
v 0.08118211 -0.00583852 0.00855979
v 0.06904637 -0.00424588 0.01003711
v 0.06567981 -0.00424588 0.01016726
v 0.07241293 -0.00424588 0.00983846
v 0.06229310 -0.00424588 0.01025174
v 0.05892653 -0.00424588 0.01030197
v 0.05555998 -0.00424588 0.01032024
v -0.07597774 -0.00119596 0.01108287
v -0.09621742 -0.00119596 0.01057369
v -0.09958397 -0.00537744 0.00806659
v -0.09958397 -0.00119596 0.01042299
v -0.10180147 -0.00341678 0.00900961
v -0.10174098 -0.00615578 0.00614402
v -0.10206353 -0.00647938 0.00399541
v -0.07486900 -0.00887363 0.00183081
v -0.07261118 -0.00892863 0.00088779
v -0.10297070 -0.00424588 0.00399541
v -0.10309165 -0.00119596 0.00399541
v -0.10309165 0.00184973 0.00399541
v -0.10303116 0.00489965 0.00399541
v 0.05892653 0.00489965 0.00987727
v 0.06229310 0.00489965 0.00981562
v -0.09621742 0.00479601 0.00939777
v -0.07597774 0.00184973 0.01110799
v -0.09621742 0.00184973 0.01060109
v -0.07261118 0.00184973 0.01113311
v 0.06567981 0.00489965 0.00970146
v 0.06904637 0.00489965 0.00953477
v 0.07241293 0.00489965 0.00931329
v 0.07581981 0.00512384 0.00896622
v 0.07916621 0.00444491 0.00887717
v 0.08253277 0.00385269 0.00867624
v 0.08253277 0.00537765 0.00813965
v 0.08928605 0.00701894 0.00597734
v 0.09174545 0.00665515 0.00569192
v 0.09279372 0.00744407 0.00422374
v 0.09398310 0.00624483 0.00538139
v 0.09795443 0.00357139 0.00559602
v 0.09922445 0.00471987 0.00391321
v 0.09603932 0.00567376 0.00496811
v 0.10172417 0.00184973 0.00346339
v 0.10249022 0.00184973 0.00098141
v 0.10029288 0.00184973 0.00497039
v 0.10281275 -0.00119596 0.00098141
v 0.10281275 -0.00119596 -0.00203031
v 0.10228862 -0.00119596 -0.00504431
v -0.10180147 0.00416149 0.00901874
v -0.10228528 0.00506674 0.00717609
v -0.09958397 0.00184973 0.01045039
v 0.10238942 -0.00424588 0.00098141
v 0.10164354 -0.00424588 0.00328072
v 0.09956715 -0.00451449 0.00491559
v 0.09632155 -0.00451449 0.00621024
v 0.09265260 -0.00424588 0.00713271
v 0.09539423 -0.00613251 0.00577869
v 0.09853904 -0.00367693 0.00581751
v 0.08343993 -0.00540705 0.00839539
v 0.07579965 -0.00424588 0.00957587
v 0.08239166 -0.00433260 0.00884977
v 0.07916621 -0.00424588 0.00925392
v 0.06904637 -0.00119596 0.01062620
v 0.06567981 -0.00119596 0.01077690
v 0.06229310 -0.00119596 0.01087737
v 0.07241293 -0.00119596 0.01040244
v 0.05892653 -0.00119596 0.01094587
v 0.05555998 -0.00119596 0.01098697
v 0.05217326 -0.00119596 0.01099154
v -0.07261118 -0.00119596 0.01109201
v -0.10212402 -0.00119596 0.00940006
v -0.10305133 -0.00119596 0.00700941
v -0.10222480 -0.00436009 0.00709389
v -0.10305133 0.00184973 0.00700941
v 0.05217326 0.00184973 0.01080887
v 0.05555998 0.00184973 0.01079517
v 0.05892653 0.00184973 0.01075407
v 0.06229310 0.00184973 0.01067872
v 0.06567981 0.00184973 0.01056684
v 0.06904637 0.00184973 0.01040016
v 0.07241293 0.00184973 0.01017411
v 0.07579965 0.00184973 0.00990924
v 0.07916621 0.00184973 0.00959185
v 0.08253277 0.00184973 0.00919684
v 0.08440756 0.00346987 0.00854837
v 0.08567758 0.00465219 0.00787936
v 0.08928605 0.00489965 0.00705964
v 0.09279372 0.00509635 0.00620111
v 0.09603932 0.00414880 0.00584947
v 0.09859952 0.00184973 0.00585861
v 0.09603932 0.00184973 0.00661211
v 0.10192575 -0.00119596 0.00376022
v 0.10071622 -0.00119596 0.00526722
v -0.10214416 0.00184973 0.00940919
v 0.09603932 -0.00119596 0.00694319
v 0.08759269 -0.00271034 0.00851641
v 0.08928605 -0.00424588 0.00774464
v 0.09904302 -0.00119596 0.00602757
v 0.08624203 -0.00433260 0.00824697
v 0.08535503 -0.00337236 0.00869679
v 0.07916621 -0.00119596 0.00981562
v 0.07579965 -0.00119596 0.01013072
v 0.08253277 -0.00119596 0.00942061
v 0.08801603 0.00066106 0.00859632
v 0.08567758 0.00174609 0.00874931
v 0.08666537 0.00269364 0.00834744
v 0.09265260 0.00184973 0.00736332
v 0.09265260 -0.00119596 0.00767842
v 0.08920541 -0.00149630 0.00832004
v 0.08801603 -0.00067777 0.00859632
v 0.08624203 -0.00149630 0.00883836
v 0.08920541 0.00174609 0.00809627
f 1 2 3
f 1 3 4
f 1 4 5
f 1 5 6
f 1 6 7
f 1 7 2
f 2 8 24
f 2 24 9
f 2 9 3
f 2 7 10
f 2 10 8
f 3 9 11
f 3 11 12
f 3 12 4
f 4 12 13
f 4 13 14
f 4 14 5
f 5 14 15
f 5 15 16
f 5 16 17
f 5 17 6
f 6 17 18
f 6 18 19
f 6 19 7
f 7 19 20
f 7 20 10
f 8 21 22
f 8 22 23
f 8 23 24
f 8 10 21
f 9 24 25
f 9 25 26
f 9 26 11
f 10 27 21
f 10 20 27
f 11 26 28
f 11 28 29
f 11 29 30
f 11 30 12
f 12 30 31
f 12 31 13
f 13 31 32
f 13 32 33
f 13 33 14
f 14 33 34
f 14 34 15
f 15 34 35
f 15 35 16
f 16 35 36
f 16 36 17
f 17 36 37
f 17 37 18
f 18 37 38
f 18 38 39
f 18 39 19
f 19 39 20
f 20 40 27
f 20 39 41
f 20 41 40
f 21 42 43
f 21 43 22
f 21 27 42
f 22 43 23
f 23 44 45
f 23 45 25
f 23 25 24
f 23 43 44
f 25 45 46
f 25 46 28
f 25 28 26
f 27 47 42
f 27 40 47
f 28 46 48
f 28 48 49
f 28 49 29
f 29 49 50
f 29 50 51
f 29 51 30
f 30 51 52
f 30 52 31
f 31 52 53
f 31 53 32
f 32 53 54
f 32 54 55
f 32 55 33
f 33 55 56
f 33 56 34
f 34 56 57
f 34 57 35
f 35 57 58
f 35 58 59
f 35 59 36
f 36 59 60
f 36 60 37
f 37 60 61
f 37 61 38
f 38 61 62
f 38 62 63
f 38 63 39
f 39 63 41
f 40 41 64
f 40 64 65
f 40 65 47
f 41 63 66
f 41 66 64
f 42 67 68
f 42 68 43
f 42 47 67
f 43 68 69
f 43 69 44
f 44 69 70
f 44 70 71
f 44 71 45
f 45 71 72
f 45 72 46
f 46 72 48
f 47 65 73
f 47 73 67
f 48 74 75
f 48 75 49
f 48 72 74
f 49 75 76
f 49 76 50
f 50 76 77
f 50 77 51
f 51 77 78
f 51 78 79
f 51 79 80
f 51 80 52
f 52 80 81
f 52 81 53
f 53 81 82
f 53 82 54
f 54 82 83
f 54 83 84
f 54 84 55
f 55 84 85
f 55 85 86
f 55 86 56
f 56 86 57
f 57 86 87
f 57 87 58
f 58 87 88
f 58 88 89
f 58 89 90
f 58 90 59
f 59 91 92
f 59 92 93
f 59 93 60
f 59 90 91
f 60 93 61
f 61 93 94
f 61 94 62
f 62 94 95
f 62 95 96
f 62 96 97
f 62 97 63
f 63 97 98
f 63 98 66
f 64 66 99
f 64 99 65
f 65 100 73
f 65 99 101
f 65 101 100
f 66 102 99
f 66 98 102
f 67 103 104
f 67 104 68
f 67 73 103
f 68 104 69
f 69 104 105
f 69 105 70
f 70 105 106
f 70 106 107
f 70 107 108
f 70 108 71
f 71 108 72
f 72 108 74
f 73 109 110
f 73 110 103
f 73 100 111
f 73 111 109
f 74 108 112
f 74 112 75
f 75 112 113
f 75 113 76
f 76 113 114
f 76 114 115
f 76 115 77
f 77 115 78
f 78 115 116
f 78 116 117
f 78 117 79
f 79 118 119
f 79 119 80
f 79 117 118
f 80 119 81
f 81 119 120
f 81 120 121
f 81 121 122
f 81 122 82
f 82 122 123
f 82 123 83
f 83 123 124
f 83 124 125
f 83 125 84
f 84 125 126
f 84 126 85
f 85 126 86
f 86 126 87
f 87 126 127
f 87 127 88
f 88 127 128
f 88 128 129
f 88 129 89
f 89 130 91
f 89 91 90
f 89 129 131
f 89 131 132
f 89 132 130
f 91 130 132
f 91 132 133
f 91 133 92
f 92 133 134
f 92 134 93
f 93 134 135
f 93 135 94
f 94 135 136
f 94 136 137
f 94 137 138
f 94 138 95
f 95 138 96
f 96 138 139
f 96 139 140
f 96 140 141
f 96 141 98
f 96 98 97
f 98 141 142
f 98 142 99
f 98 99 102
f 99 142 101
f 100 101 143
f 100 143 144
f 100 144 145
f 100 145 111
f 101 142 143
f 103 110 146
f 103 146 104
f 104 146 105
f 105 146 147
f 105 147 106
f 106 147 148
f 106 148 149
f 106 149 150
f 106 150 107
f 107 150 149
f 107 149 151
f 107 151 108
f 108 151 152
f 108 152 112
f 109 146 110
f 109 111 146
f 111 145 153
f 111 153 154
f 111 154 155
f 111 155 146
f 112 152 156
f 112 156 157
f 112 157 113
f 113 157 114
f 114 157 158
f 114 158 159
f 114 159 160
f 114 160 115
f 115 160 161
f 115 161 116
f 116 161 162
f 116 162 163
f 116 163 164
f 116 164 165
f 116 165 117
f 117 165 166
f 117 166 167
f 117 167 168
f 117 168 118
f 118 168 169
f 118 169 120
f 118 120 119
f 120 169 170
f 120 170 171
f 120 171 172
f 120 172 173
f 120 173 121
f 121 173 123
f 121 123 122
f 123 173 174
f 123 174 124
f 124 174 175
f 124 175 176
f 124 176 177
f 124 177 125
f 125 177 126
f 126 178 179
f 126 179 180
f 126 180 181
f 126 181 182
f 126 182 127
f 126 177 178
f 127 182 183
f 127 183 184
f 127 184 185
f 127 185 186
f 127 186 129
f 127 129 128
f 129 186 131
f 131 186 187
f 131 187 188
f 131 188 189
f 131 189 132
f 132 189 190
f 132 190 191
f 132 191 133
f 133 191 192
f 133 192 134
f 134 192 193
f 134 193 135
f 135 193 137
f 135 137 136
f 137 193 194
f 137 194 195
f 137 195 139
f 137 139 138
f 139 195 196
f 139 196 197
f 139 197 198
f 139 198 140
f 140 198 199
f 140 199 200
f 140 200 141
f 141 200 142
f 142 200 201
f 142 201 143
f 143 201 202
f 143 202 144
f 144 202 153
f 144 153 145
f 146 203 204
f 146 204 147
f 146 155 203
f 147 205 148
f 147 204 205
f 148 205 206
f 148 206 207
f 148 207 208
f 148 208 209
f 148 209 149
f 149 209 210
f 149 210 211
f 149 211 212
f 149 212 213
f 149 213 151
f 151 213 214
f 151 214 215
f 151 215 152
f 152 215 156
f 153 202 216
f 153 216 154
f 154 217 155
f 154 216 218
f 154 218 219
f 154 219 217
f 155 217 220
f 155 220 221
f 155 221 203
f 156 222 157
f 156 215 222
f 157 222 158
f 158 222 159
f 159 223 160
f 159 222 223
f 160 224 225
f 160 225 226
f 160 226 227
f 160 227 161
f 160 223 224
f 161 227 162
f 162 228 165
f 162 165 163
f 162 227 226
f 162 226 225
f 162 225 229
f 162 229 228
f 163 165 164
f 165 228 166
f 166 230 231
f 166 231 167
f 166 228 232
f 166 232 230
f 167 231 169
f 167 169 168
f 169 231 233
f 169 233 170
f 170 233 171
f 171 233 172
f 172 233 174
f 172 174 173
f 174 233 234
f 174 234 235
f 174 235 236
f 174 236 237
f 174 237 238
f 174 238 175
f 175 238 239
f 175 239 176
f 176 240 241
f 176 241 177
f 176 239 242
f 176 242 243
f 176 243 240
f 177 241 178
f 178 244 245
f 178 245 179
f 178 241 244
f 179 245 246
f 179 246 180
f 180 246 247
f 180 247 181
f 181 247 248
f 181 248 182
f 182 248 249
f 182 249 250
f 182 250 251
f 182 251 183
f 183 251 250
f 183 250 252
f 183 252 253
f 183 253 254
f 183 254 185
f 183 185 184
f 185 254 186
f 186 254 255
f 186 255 187
f 187 256 257
f 187 257 188
f 187 255 256
f 188 257 258
f 188 258 259
f 188 259 260
f 188 260 189
f 189 260 261
f 189 261 190
f 190 262 263
f 190 263 191
f 190 261 262
f 191 263 264
f 191 264 192
f 192 264 193
f 193 264 194
f 194 264 265
f 194 265 195
f 195 265 196
f 196 266 267
f 196 267 197
f 196 265 268
f 196 268 266
f 197 267 198
f 198 267 269
f 198 269 199
f 199 270 201
f 199 201 200
f 199 269 271
f 199 271 270
f 201 270 202
f 202 270 272
f 202 272 216
f 203 273 274
f 203 274 204
f 203 221 275
f 203 275 276
f 203 276 273
f 204 274 277
f 204 277 205
f 205 277 278
f 205 278 206
f 206 278 279
f 206 279 207
f 207 280 281
f 207 281 282
f 207 282 208
f 207 279 280
f 208 282 283
f 208 283 284
f 208 284 209
f 209 284 285
f 209 285 210
f 210 285 286
f 210 286 211
f 211 286 287
f 211 287 288
f 211 288 212
f 212 288 289
f 212 289 290
f 212 290 291
f 212 291 214
f 212 214 213
f 214 291 215
f 215 291 224
f 215 224 223
f 215 223 222
f 216 272 218
f 217 292 220
f 217 219 292
f 218 272 219
f 219 272 293
f 219 293 294
f 219 294 292
f 220 295 221
f 220 292 294
f 220 294 296
f 220 296 297
f 220 297 295
f 221 295 275
f 224 291 298
f 224 298 299
f 224 299 225
f 225 299 229
f 228 229 232
f 229 299 300
f 229 300 232
f 230 232 234
f 230 234 231
f 231 234 233
f 232 300 301
f 232 301 302
f 232 302 234
f 234 302 303
f 234 303 304
f 234 304 235
f 235 304 236
f 236 304 305
f 236 305 306
f 236 306 307
f 236 307 237
f 237 307 239
f 237 239 238
f 239 307 308
f 239 308 309
f 239 309 242
f 240 310 241
f 240 243 311
f 240 311 310
f 241 310 244
f 242 309 312
f 242 312 313
f 242 313 243
f 243 313 311
f 244 314 315
f 244 315 245
f 244 310 316
f 244 316 314
f 245 315 317
f 245 317 246
f 246 317 247
f 247 317 318
f 247 318 319
f 247 319 248
f 248 319 320
f 248 320 250
f 248 250 249
f 250 321 322
f 250 322 323
f 250 323 324
f 250 324 253
f 250 253 252
f 250 320 321
f 253 324 325
f 253 325 258
f 253 258 257
f 253 257 256
f 253 256 255
f 253 255 254
f 258 325 259
f 259 326 260
f 259 325 327
f 259 327 326
f 260 326 261
f 261 326 328
f 261 328 329
f 261 329 262
f 262 329 330
f 262 330 331
f 262 331 332
f 262 332 263
f 263 332 265
f 263 265 264
f 265 332 268
f 266 333 267
f 266 268 333
f 267 334 335
f 267 335 269
f 267 333 334
f 268 332 331
f 268 331 336
f 268 336 333
f 269 335 337
f 269 337 271
f 270 271 337
f 270 337 338
f 270 338 272
f 272 338 361
f 272 361 293
f 273 276 274
f 274 276 339
f 274 339 340
f 274 340 277
f 275 295 341
f 275 341 276
f 276 341 342
f 276 342 343
f 276 343 339
f 277 340 344
f 277 344 278
f 278 344 345
f 278 345 346
f 278 346 279
f 279 346 347
f 279 347 280
f 280 348 281
f 280 347 348
f 281 348 349
f 281 349 350
f 281 350 351
f 281 351 282
f 282 351 352
f 282 352 283
f 283 352 284
f 284 352 353
f 284 353 354
f 284 354 285
f 285 354 286
f 286 354 287
f 287 354 355
f 287 355 356
f 287 356 288
f 288 356 357
f 288 357 289
f 289 357 358
f 289 358 359
f 289 359 290
f 290 359 360
f 290 360 298
f 290 298 291
f 293 361 362
f 293 362 294
f 294 363 297
f 294 297 296
f 294 362 363
f 295 297 341
f 297 363 364
f 297 364 341
f 298 360 299
f 299 360 365
f 299 365 366
f 299 366 300
f 300 366 301
f 301 366 367
f 301 367 303
f 301 303 302
f 303 367 368
f 303 368 369
f 303 369 304
f 304 369 370
f 304 370 305
f 305 370 371
f 305 371 306
f 306 372 373
f 306 373 307
f 306 371 374
f 306 374 372
f 307 373 375
f 307 375 308
f 308 376 309
f 308 375 377
f 308 377 376
f 309 376 378
f 309 378 312
f 310 311 379
f 310 379 380
f 310 380 316
f 311 313 312
f 311 312 379
f 312 378 381
f 312 381 379
f 314 382 315
f 314 316 382
f 315 382 383
f 315 383 317
f 316 380 384
f 316 384 382
f 317 383 385
f 317 385 386
f 317 386 318
f 318 386 319
f 319 386 387
f 319 387 320
f 320 387 321
f 321 388 389
f 321 389 323
f 321 323 322
f 321 387 388
f 323 390 324
f 323 389 391
f 323 391 392
f 323 392 390
f 324 390 325
f 325 390 393
f 325 393 327
f 326 327 328
f 327 393 394
f 327 394 331
f 327 331 328
f 328 395 329
f 328 331 395
f 329 395 396
f 329 396 330
f 330 396 395
f 330 395 331
f 331 394 336
f 333 397 398
f 333 398 334
f 333 336 397
f 334 398 399
f 334 399 335
f 335 399 400
f 335 400 337
f 336 394 397
f 337 400 338
f 338 400 361
f 339 401 340
f 339 343 401
f 340 402 344
f 340 401 402
f 341 364 403
f 341 403 342
f 342 404 343
f 342 403 364
f 342 364 405
f 342 405 404
f 343 404 406
f 343 406 401
f 344 402 407
f 344 407 345
f 345 407 408
f 345 408 346
f 346 408 347
f 347 408 409
f 347 409 410
f 347 410 348
f 348 410 411
f 348 411 349
f 349 411 412
f 349 412 413
f 349 413 350
f 350 414 352
f 350 352 351
f 350 413 414
f 352 414 415
f 352 415 416
f 352 416 353
f 353 416 415
f 353 415 417
f 353 417 354
f 354 418 419
f 354 419 355
f 354 417 420
f 354 420 418
f 355 421 422
f 355 422 356
f 355 419 418
f 355 418 423
f 355 423 421
f 356 422 357
f 357 422 358
f 358 424 425
f 358 425 426
f 358 426 359
f 358 422 424
f 359 426 360
f 360 426 365
f 361 400 362
f 362 427 363
f 362 400 428
f 362 428 427
f 363 427 364
f 364 427 429
f 364 429 405
f 365 426 366
f 366 426 367
f 367 426 368
f 368 425 424
f 368 424 430
f 368 430 369
f 368 426 425
f 369 430 370
f 370 430 371
f 371 430 431
f 371 431 432
f 371 432 372
f 371 372 374
f 372 433 434
f 372 434 435
f 372 435 373
f 372 432 436
f 372 436 433
f 373 435 375
f 375 435 377
f 376 381 378
f 376 377 381
f 377 435 437
f 377 437 381
f 379 381 380
f 380 438 384
f 380 381 438
f 381 437 439
f 381 439 440
f 381 440 438
f 382 441 442
f 382 442 383
f 382 384 441
f 383 442 443
f 383 443 385
f 384 444 441
f 384 438 444
f 385 445 386
f 385 443 445
f 386 445 446
f 386 446 387
f 387 446 447
f 387 447 448
f 387 448 388
f 388 448 406
f 388 406 404
f 388 404 405
f 388 405 389
f 389 405 429
f 389 429 391
f 390 392 393
f 391 449 392
f 391 429 449
f 392 449 450
f 392 450 451
f 392 451 393
f 393 451 397
f 393 397 394
f 397 450 398
f 397 451 450
f 398 450 452
f 398 452 399
f 399 452 400
f 400 452 428
f 401 453 454
f 401 454 455
f 401 455 402
f 401 406 453
f 402 455 456
f 402 456 457
f 402 457 407
f 406 448 447
f 406 447 446
f 406 446 453
f 407 457 458
f 407 458 408
f 408 458 409
f 409 459 460
f 409 460 410
f 409 458 459
f 410 460 411
f 411 461 412
f 411 460 461
f 412 462 463
f 412 463 413
f 412 461 462
f 413 463 464
f 413 464 465
f 413 465 415
f 413 415 414
f 415 465 466
f 415 466 417
f 417 466 467
f 417 467 418
f 417 418 420
f 418 468 423
f 418 467 469
f 418 469 468
f 421 470 424
f 421 424 422
f 421 423 471
f 421 471 470
f 423 468 471
f 424 470 430
f 427 428 452
f 427 452 472
f 427 472 429
f 429 472 449
f 430 470 431
f 431 470 471
f 431 471 432
f 432 471 436
f 433 436 473
f 433 473 434
f 434 473 474
f 434 474 475
f 434 475 437
f 434 437 435
f 436 471 476
f 436 476 473
f 437 475 477
f 437 477 478
f 437 478 439
f 438 440 479
f 438 479 480
f 438 480 444
f 439 478 440
f 440 478 479
f 441 458 457
f 441 457 442
f 441 444 458
f 442 457 456
f 442 456 443
f 443 456 455
f 443 455 445
f 444 459 458
f 444 480 460
f 444 460 459
f 445 455 454
f 445 454 446
f 446 454 453
f 449 472 450
f 450 472 452
f 460 480 479
f 460 479 461
f 461 479 481
f 461 481 462
f 462 481 482
f 462 482 483
f 462 483 463
f 463 483 484
f 463 484 465
f 463 465 464
f 465 484 485
f 465 485 467
f 465 467 466
f 467 485 469
f 468 476 471
f 468 469 473
f 468 473 476
f 469 485 482
f 469 482 473
f 473 486 474
f 473 482 486
f 474 487 488
f 474 488 489
f 474 489 481
f 474 481 478
f 474 478 477
f 474 477 475
f 474 486 487
f 478 481 479
f 481 489 488
f 481 488 482
f 482 490 484
f 482 484 483
f 482 488 486
f 482 485 490
f 484 490 485
f 486 488 487

