# https://github.com/mikedh/trimesh

o geometry_0
v 0.03432880 -0.00365777 0.18549664
v -0.00685960 -0.00365777 0.18546033
v 0.03432880 -0.00764312 0.18542402
v 0.03432880 0.00191141 0.18527883
v 0.03265142 0.00191141 0.18527883
v -0.00685960 -0.00922695 0.18527883
v 0.00318045 -0.00922695 0.18531514
v 0.02675642 -0.00922695 0.18538771
v -0.00685960 0.00191141 0.18524252
v 0.03432880 -0.00922695 0.18538771
v 0.03432880 0.00672818 0.18364526
v 0.02675642 0.00719543 0.18360895
v -0.00685960 -0.01200983 0.18411718
v -0.00271456 -0.01321230 0.18364526
v 0.02086142 -0.01331881 0.18371783
v 0.02675642 -0.01337721 0.18371783
v 0.03265142 -0.01340126 0.18371783
v 0.02086142 0.00707175 0.18360895
v -0.00685960 0.00320665 0.18477060
v 0.03432880 -0.01340126 0.18371783
v 0.03432880 0.01295357 0.17863562
v 0.03091357 0.01688051 0.17761916
v 0.02675642 0.01751954 0.17841780
v 0.02675642 0.01304633 0.18132194
v -0.00685960 -0.01319169 0.18360895
v 0.02675642 -0.01477552 0.17918013
v 0.03265142 -0.01482018 0.17918013
v 0.03432880 -0.01482706 0.17918013
v 0.01496642 0.00689653 0.18360895
v -0.00685960 0.00621627 0.18360895
v 0.03432880 0.01435188 0.17308146
v 0.03148210 0.01738899 0.17308146
v 0.02675642 0.01918239 0.17308146
v 0.02086142 0.01763292 0.17845411
v 0.02086142 0.01942289 0.17308146
v 0.02086142 0.01304633 0.18124933
v -0.00685960 -0.01440791 0.17918013
v 0.03432880 -0.01502632 0.16701907
v -0.00271456 0.01722751 0.17754656
v -0.00685960 0.01705916 0.17732875
v 0.03432880 0.01520392 0.12450977
v 0.03165548 0.01754016 0.12450977
v 0.02675642 0.01934043 0.13667084
v -0.00271456 0.01906902 0.17308146
v -0.00685960 0.01951222 0.16701907
v 0.02675642 0.01936448 0.13057216
v 0.02086142 0.01955001 0.11238500
v -0.00685960 -0.01445257 0.17489654
v 0.03432880 -0.01508129 0.16095669
v -0.00685960 0.01891441 0.17308146
v 0.03432880 0.01520392 0.12392894
v 0.03166355 0.01754703 0.11844739
v 0.02086142 0.01936792 0.03949119
v -0.00685960 0.01887662 -0.06974063
v 0.02675642 0.01936792 0.11238500
v -0.00685960 -0.01446631 0.17308146
v -0.00685960 -0.01449380 0.16883415
v -0.00685960 -0.01450410 0.16701907
v -0.00685960 -0.01452128 0.16273546
v -0.00685960 -0.01493700 0.05771464
v -0.00685960 -0.01508816 0.01520535
v 0.03432880 -0.01552106 0.02141294
v 0.03432880 0.01519361 0.11844739
v 0.03432880 0.01404267 -0.16692029
v 0.03141355 0.01725500 0.01520535
v 0.02086142 0.01908276 -0.04545479
v 0.02086142 0.01884227 -0.08796409
v -0.00685960 0.01851588 -0.09402648
v 0.02675642 0.01903123 0.03342880
v -0.00685960 -0.01509847 0.00914296
v 0.03432880 -0.01552793 0.01698413
v 0.03432880 0.01383653 -0.16851756
v 0.02991359 0.01593571 -0.17062306
v 0.03002649 0.01598724 -0.16692029
v 0.03074422 0.01657817 -0.09402648
v 0.02675642 0.01893503 0.01520535
v 0.02675642 0.01795930 -0.09402648
v 0.02675642 0.01632737 -0.16692029
v 0.02086142 0.01653008 -0.16692029
v 0.01496642 0.01653351 -0.16692029
v -0.00685960 0.01836815 -0.10012515
v -0.00685960 -0.01533209 -0.17298268
v 0.03432880 -0.01553823 -0.02567037
v 0.03432880 0.01319750 -0.17323679
v 0.02675642 0.01607314 -0.17145800
v 0.02675642 0.01540318 -0.17447104
v 0.02086142 0.01617277 -0.17189363
v 0.01496642 0.01617277 -0.17182102
v 0.00907545 0.01613841 -0.17156691
v 0.00907545 0.01644075 -0.16692029
v -0.00685960 0.01582577 -0.16692029
v -0.00685960 -0.01522559 -0.17726628
v 0.03432880 -0.01550731 -0.17127649
v 0.03432880 -0.01554854 -0.16528671
v 0.03432880 0.00593455 -0.18340128
v 0.03151032 0.01176484 -0.17704846
v 0.02675642 0.01261688 -0.17762930
v 0.02086142 0.01548220 -0.17494296
v 0.01496642 0.01544098 -0.17483406
v -0.00685960 0.01543067 -0.16909839
v -0.00685960 0.01572614 -0.16779154
v 0.00907545 0.01534134 -0.17457995
v -0.00685960 0.01434844 -0.17327309
v -0.00685960 -0.01518093 -0.17904506
v -0.00271456 -0.01518093 -0.17904506
v 0.02675642 -0.01517062 -0.17904506
v 0.03265142 -0.01515001 -0.17904506
v 0.03432880 -0.01514313 -0.17904506
v 0.02086142 0.01269933 -0.17766560
v 0.03432880 0.00479048 -0.18387320
v 0.02675642 0.00605136 -0.18340128
v 0.01496642 0.01265810 -0.17766560
v 0.00907545 0.01255847 -0.17762930
v -0.00685960 0.01128728 -0.17781080
v -0.00685960 0.01184042 -0.17712107
v -0.00685960 0.01373002 -0.17461625
v -0.00685960 -0.01400594 -0.18223962
v 0.00318045 -0.01351464 -0.18358277
v 0.03432880 -0.01351464 -0.18358277
v 0.03432880 -0.01397502 -0.18231220
v 0.02086142 0.00607541 -0.18340128
v 0.01496642 0.00608228 -0.18340128
v 0.00907545 0.00607884 -0.18340128
v -0.00685960 0.00598952 -0.18340128
v 0.03432880 0.00191141 -0.18499854
v -0.00685960 -0.01351120 -0.18358277
v 0.03432880 -0.01044661 -0.18478074
v -0.00685960 0.00191141 -0.18499854
v 0.00318045 0.00596890 -0.18343758
v -0.00685960 0.00480078 -0.18387320
v 0.03432880 0.00032757 -0.18510742
v -0.00685960 -0.01049814 -0.18470812
v 0.00318045 -0.00922695 -0.18521635
v 0.03265142 -0.00922695 -0.18525266
v 0.03432880 -0.00922695 -0.18525266
v 0.03432880 -0.00365777 -0.18536154
v -0.00685960 -0.00365777 -0.18528897
v -0.00685960 -0.00922695 -0.18518004
f 1 2 3
f 1 3 10
f 1 10 20
f 1 20 28
f 1 28 38
f 1 38 49
f 1 49 62
f 1 62 71
f 1 71 83
f 1 83 94
f 1 94 93
f 1 93 108
f 1 108 120
f 1 120 119
f 1 119 127
f 1 127 135
f 1 135 136
f 1 136 131
f 1 131 125
f 1 125 110
f 1 110 95
f 1 95 84
f 1 84 72
f 1 72 64
f 1 64 63
f 1 63 51
f 1 51 41
f 1 41 31
f 1 31 21
f 1 21 11
f 1 11 4
f 1 4 5
f 1 5 2
f 2 6 7
f 2 7 8
f 2 8 3
f 2 5 9
f 2 9 19
f 2 19 30
f 2 30 40
f 2 40 50
f 2 50 45
f 2 45 54
f 2 54 68
f 2 68 81
f 2 81 91
f 2 91 101
f 2 101 100
f 2 100 103
f 2 103 116
f 2 116 115
f 2 115 114
f 2 114 124
f 2 124 130
f 2 130 128
f 2 128 137
f 2 137 138
f 2 138 132
f 2 132 126
f 2 126 117
f 2 117 104
f 2 104 92
f 2 92 82
f 2 82 70
f 2 70 61
f 2 61 60
f 2 60 59
f 2 59 58
f 2 58 57
f 2 57 56
f 2 56 48
f 2 48 37
f 2 37 25
f 2 25 13
f 2 13 6
f 3 8 10
f 4 11 12
f 4 12 5
f 5 12 9
f 6 13 14
f 6 14 15
f 6 15 16
f 6 16 7
f 7 16 8
f 8 16 17
f 8 17 20
f 8 20 10
f 9 12 18
f 9 18 19
f 11 21 22
f 11 22 23
f 11 23 24
f 11 24 12
f 12 24 18
f 13 25 14
f 14 16 15
f 14 25 26
f 14 26 27
f 14 27 16
f 16 27 28
f 16 28 17
f 17 28 20
f 18 24 29
f 18 29 19
f 19 29 30
f 21 31 22
f 22 31 32
f 22 32 33
f 22 33 23
f 23 34 24
f 23 33 35
f 23 35 34
f 24 34 36
f 24 36 29
f 25 37 26
f 26 37 38
f 26 38 27
f 27 38 28
f 29 36 30
f 30 36 39
f 30 39 40
f 31 41 32
f 32 41 42
f 32 42 33
f 33 42 43
f 33 43 35
f 34 39 36
f 34 35 44
f 34 44 39
f 35 45 44
f 35 43 46
f 35 46 47
f 35 47 45
f 37 48 38
f 38 48 49
f 39 44 50
f 39 50 40
f 41 51 52
f 41 52 42
f 42 52 46
f 42 46 43
f 44 45 50
f 45 47 53
f 45 53 54
f 46 52 55
f 46 55 47
f 47 55 53
f 48 56 49
f 49 56 57
f 49 57 58
f 49 58 59
f 49 59 60
f 49 60 61
f 49 61 62
f 51 63 52
f 52 63 64
f 52 64 65
f 52 65 55
f 53 55 66
f 53 66 54
f 54 66 67
f 54 67 68
f 55 65 69
f 55 69 66
f 61 70 62
f 62 70 71
f 64 72 73
f 64 73 74
f 64 74 75
f 64 75 65
f 65 76 69
f 65 75 76
f 66 69 76
f 66 76 67
f 67 77 73
f 67 73 78
f 67 78 79
f 67 79 80
f 67 80 81
f 67 81 68
f 67 76 77
f 70 82 71
f 71 82 83
f 72 84 73
f 73 85 78
f 73 77 74
f 73 84 86
f 73 86 85
f 74 77 75
f 75 77 76
f 78 85 79
f 79 85 87
f 79 87 80
f 80 87 88
f 80 88 89
f 80 89 90
f 80 90 81
f 81 90 91
f 82 92 93
f 82 93 94
f 82 94 83
f 84 95 96
f 84 96 86
f 85 86 87
f 86 96 95
f 86 95 97
f 86 97 98
f 86 98 87
f 87 98 88
f 88 98 99
f 88 99 89
f 89 100 101
f 89 101 91
f 89 91 90
f 89 99 102
f 89 102 103
f 89 103 100
f 92 104 93
f 93 104 105
f 93 105 106
f 93 106 107
f 93 107 108
f 95 109 97
f 95 110 111
f 95 111 109
f 97 109 98
f 98 109 112
f 98 112 113
f 98 113 99
f 99 113 102
f 102 113 114
f 102 114 115
f 102 115 116
f 102 116 103
f 104 117 118
f 104 118 119
f 104 119 105
f 105 119 106
f 106 119 120
f 106 120 107
f 107 120 108
f 109 111 121
f 109 121 122
f 109 122 123
f 109 123 124
f 109 124 112
f 110 125 111
f 111 125 121
f 112 124 113
f 113 124 114
f 117 126 118
f 118 126 127
f 118 127 119
f 121 125 122
f 122 125 128
f 122 128 123
f 123 129 124
f 123 128 129
f 124 129 130
f 125 131 128
f 126 132 133
f 126 133 134
f 126 134 127
f 127 134 135
f 128 130 129
f 128 131 136
f 128 136 137
f 132 138 133
f 133 138 137
f 133 137 136
f 133 136 134
f 134 136 135

o geometry_1
v 0.05033845 -0.02544503 -0.16084553
v 0.04574562 -0.02431740 -0.16084553
v 0.04612727 -0.02405718 -0.16576604
v 0.05033845 -0.02449915 -0.16658786
v 0.05445830 -0.02404066 -0.16561000
v 0.05473230 -0.02427197 -0.16084553
v 0.06212714 -0.01478009 -0.07911085
v 0.05623279 -0.01518075 -0.07911085
v 0.03537914 -0.01511879 -0.07911085
v 0.03432880 -0.01511466 -0.07911085
v 0.03432880 -0.01553597 -0.16084553
v 0.03432880 -0.01554836 -0.16530832
v 0.03432880 -0.01550706 -0.17127951
v 0.03432880 -0.01514357 -0.17906080
v 0.03432880 -0.01351616 -0.18360681
v 0.05033845 -0.02271477 -0.16962548
v 0.06212714 -0.01308659 -0.18316990
v 0.06539235 -0.01242571 -0.18247291
v 0.06588164 -0.01296680 -0.17906080
v 0.06622089 -0.01332203 -0.17299598
v 0.06624046 -0.01334268 -0.16692075
v 0.06624046 -0.01334268 -0.16084553
v 0.06617522 -0.01328072 -0.12442538
v 0.06605453 -0.01318572 -0.07911085
v 0.03432880 0.01058941 -0.07911085
v 0.03432880 -0.00922457 -0.18525046
v 0.05623279 -0.00922457 -0.18532328
v 0.05623279 -0.01354094 -0.18365882
v 0.06212714 -0.00922457 -0.18441824
v 0.06567614 -0.00922457 -0.18280579
v 0.06688633 -0.00922457 -0.17906080
v 0.06749305 -0.00922457 -0.17299598
v 0.06750284 -0.00922457 -0.16692075
v 0.06749305 -0.00922457 -0.16084553
v 0.06741477 -0.00922457 -0.13655502
v 0.06661885 -0.01105438 -0.07911085
v 0.06739193 -0.00922457 -0.13050060
v 0.06735931 -0.00922457 -0.12442538
v 0.03895751 0.01253901 -0.07911085
v 0.03432880 0.01259683 -0.08237732
v 0.03432880 -0.00366080 -0.18535448
v 0.03854976 -0.00366080 -0.18536488
v 0.05033845 -0.00366080 -0.18537529
v 0.05623279 -0.00366080 -0.18537529
v 0.06212714 -0.00366080 -0.18460549
v 0.06582619 -0.00366080 -0.18296184
v 0.06712445 -0.00366080 -0.17906080
v 0.06765289 -0.00366080 -0.17299598
v 0.06760722 -0.00366080 -0.14263025
v 0.06759091 -0.00366080 -0.13655502
v 0.06710162 -0.00922457 -0.07911085
v 0.06755829 -0.00366080 -0.13050060
v 0.04444410 0.01429447 -0.07911085
v 0.04109082 0.01607884 -0.08441627
v 0.03432880 0.01284466 -0.08364646
v 0.03432880 0.00190711 -0.18502160
v 0.03854976 0.00190711 -0.18503201
v 0.05623279 0.00190711 -0.18506321
v 0.06212714 0.00190711 -0.18427259
v 0.06567941 0.00190711 -0.18278499
v 0.06683087 0.00190711 -0.17906080
v 0.06734300 0.00190711 -0.17299598
v 0.06724840 0.00190711 -0.14263025
v 0.06714728 -0.00622997 -0.07911085
v 0.06712445 0.00190711 -0.12442538
v 0.06679499 0.00190711 -0.07911085
v 0.06697440 -0.00066619 -0.07911085
v 0.06718317 -0.00366080 -0.07911085
v 0.05033845 0.01457534 -0.07911085
v 0.04444410 0.01624819 -0.08405217
v 0.04444410 0.01669428 -0.08799482
v 0.04082986 0.01622754 -0.08799482
v 0.03432880 0.01363772 -0.08799482
v 0.03432880 0.00479020 -0.18387728
v 0.04444410 0.00605826 -0.18342998
v 0.05033845 0.00606652 -0.18344036
v 0.05623279 0.00604174 -0.18344036
v 0.06212714 0.00557086 -0.18301387
v 0.06536300 0.00498433 -0.18243131
v 0.06578379 0.00552956 -0.17906080
v 0.06603822 0.00596739 -0.17299598
v 0.06594688 0.00595500 -0.14263025
v 0.06575443 0.00569064 -0.08799482
v 0.06573486 0.00557086 -0.07911085
v 0.05658509 0.01437295 -0.07911085
v 0.05033845 0.01629363 -0.08394814
v 0.05033845 0.01675211 -0.08799482
v 0.04444410 0.01671494 -0.09407005
v 0.04075810 0.01625645 -0.09407005
v 0.03432880 0.01396816 -0.09407005
v 0.03432880 0.01370381 -0.08915994
v 0.03432880 0.00593434 -0.18341956
v 0.05033845 0.01267531 -0.17764602
v 0.05623279 0.01248944 -0.17755240
v 0.06017650 0.01160138 -0.17698024
v 0.05914246 0.01582688 -0.16945903
v 0.05919791 0.01584340 -0.16541235
v 0.05924032 0.01587645 -0.13655502
v 0.06116161 0.01304706 -0.13655502
v 0.06113224 0.01304706 -0.13050060
v 0.05921096 0.01585579 -0.12625627
v 0.06093327 0.01291488 -0.09407005
v 0.06091369 0.01285292 -0.08799482
v 0.06029719 0.01183269 -0.07911085
v 0.05860750 0.01563688 -0.08799482
v 0.05864664 0.01297684 -0.07911085
v 0.05477144 0.01613667 -0.08428103
v 0.05033845 0.01650841 -0.16084553
v 0.05566195 0.01628537 -0.08799482
v 0.05623279 0.01625232 -0.13655502
v 0.05623279 0.01618623 -0.16084553
v 0.04444410 0.01645472 -0.16084553
v 0.04094729 0.01611602 -0.16692075
v 0.03432880 0.01404251 -0.16692075
v 0.03432880 0.01406316 -0.13691912
v 0.04444410 0.01260509 -0.17762522
v 0.03432880 0.01319989 -0.17324564
v 0.04444410 0.01538905 -0.17462922
v 0.05033845 0.01545927 -0.17478525
v 0.05680037 0.01538079 -0.17314162
v 0.05521181 0.01603341 -0.17121710
v 0.05680037 0.01609123 -0.16723284
v 0.05923053 0.01587232 -0.13050060
v 0.05874450 0.01569884 -0.09407005
v 0.05033845 0.01644645 -0.16692075
v 0.04444410 0.01641341 -0.16692075
v 0.04113323 0.01602101 -0.17099864
v 0.03432880 0.01383598 -0.16851237
v 0.04444410 0.01611602 -0.17159160
v 0.05033845 0.01612428 -0.17175805
f 139 140 141
f 139 141 142
f 139 142 143
f 139 143 144
f 139 144 145
f 139 145 146
f 139 146 147
f 139 147 148
f 139 148 140
f 140 149 150
f 140 150 151
f 140 151 152
f 140 152 141
f 140 148 149
f 141 152 153
f 141 153 142
f 142 153 154
f 142 154 155
f 142 155 143
f 143 155 156
f 143 156 157
f 143 157 158
f 143 158 144
f 144 158 159
f 144 159 160
f 144 160 161
f 144 161 162
f 144 162 145
f 145 162 174
f 145 174 189
f 145 189 202
f 145 202 206
f 145 206 205
f 145 205 204
f 145 204 222
f 145 222 242
f 145 242 244
f 145 244 223
f 145 223 207
f 145 207 191
f 145 191 177
f 145 177 163
f 145 163 148
f 145 148 147
f 145 147 146
f 148 163 178
f 148 178 193
f 148 193 211
f 148 211 229
f 148 229 228
f 148 228 253
f 148 253 252
f 148 252 266
f 148 266 255
f 148 255 230
f 148 230 212
f 148 212 194
f 148 194 179
f 148 179 164
f 148 164 153
f 148 153 152
f 148 152 151
f 148 151 150
f 148 150 149
f 153 164 165
f 153 165 166
f 153 166 154
f 154 166 155
f 155 166 165
f 155 165 167
f 155 167 156
f 156 167 168
f 156 168 169
f 156 169 157
f 157 169 170
f 157 170 158
f 158 170 159
f 159 170 171
f 159 171 160
f 160 171 172
f 160 172 161
f 161 172 173
f 161 173 162
f 162 173 175
f 162 175 176
f 162 176 174
f 163 177 178
f 164 179 165
f 165 179 180
f 165 180 181
f 165 181 182
f 165 182 183
f 165 183 167
f 167 183 184
f 167 184 168
f 168 184 185
f 168 185 169
f 169 185 170
f 170 186 171
f 170 185 186
f 171 186 187
f 171 187 172
f 172 187 188
f 172 188 173
f 173 188 175
f 174 176 189
f 175 188 176
f 176 188 190
f 176 190 189
f 177 191 192
f 177 192 178
f 178 192 193
f 179 194 195
f 179 195 180
f 180 195 196
f 180 196 181
f 181 196 182
f 182 196 183
f 183 197 198
f 183 198 184
f 183 196 197
f 184 198 185
f 185 198 199
f 185 199 186
f 186 199 200
f 186 200 187
f 187 200 188
f 188 200 201
f 188 201 190
f 189 190 202
f 190 203 204
f 190 204 205
f 190 205 206
f 190 206 202
f 190 201 203
f 191 207 208
f 191 208 192
f 192 208 209
f 192 209 210
f 192 210 211
f 192 211 193
f 194 212 213
f 194 213 195
f 195 213 214
f 195 214 196
f 196 214 215
f 196 215 216
f 196 216 197
f 197 216 217
f 197 217 198
f 198 217 199
f 199 217 218
f 199 218 200
f 200 218 219
f 200 219 201
f 201 219 220
f 201 220 221
f 201 221 222
f 201 222 203
f 203 222 204
f 207 223 224
f 207 224 208
f 208 225 209
f 208 224 225
f 209 225 226
f 209 226 227
f 209 227 210
f 210 227 228
f 210 228 229
f 210 229 211
f 212 230 213
f 213 230 231
f 213 231 214
f 214 231 215
f 215 231 232
f 215 232 216
f 216 232 217
f 217 232 233
f 217 233 234
f 217 234 218
f 218 234 219
f 219 234 235
f 219 235 236
f 219 236 237
f 219 237 220
f 220 237 238
f 220 238 221
f 221 238 239
f 221 239 240
f 221 240 241
f 221 241 222
f 222 241 243
f 222 243 242
f 223 244 243
f 223 243 245
f 223 245 224
f 224 245 225
f 225 246 226
f 225 245 247
f 225 247 248
f 225 248 249
f 225 249 246
f 226 246 250
f 226 250 251
f 226 251 227
f 227 251 252
f 227 252 253
f 227 253 228
f 230 254 231
f 230 255 256
f 230 256 254
f 231 254 257
f 231 257 232
f 232 257 258
f 232 258 233
f 233 258 234
f 234 258 259
f 234 259 260
f 234 260 235
f 235 260 249
f 235 249 248
f 235 248 236
f 236 248 247
f 236 247 261
f 236 261 237
f 237 261 238
f 238 261 239
f 239 261 247
f 239 247 262
f 239 262 241
f 239 241 240
f 241 262 243
f 242 243 244
f 243 247 245
f 243 262 247
f 246 249 260
f 246 260 263
f 246 263 264
f 246 264 250
f 250 264 251
f 251 264 265
f 251 265 252
f 252 265 266
f 254 256 257
f 255 266 265
f 255 265 256
f 256 265 267
f 256 267 257
f 257 267 268
f 257 268 259
f 257 259 258
f 259 268 263
f 259 263 260
f 263 268 267
f 263 267 264
f 264 267 265

o geometry_2
v -0.02741987 -0.01533563 -0.17298194
v -0.03272381 -0.01524403 -0.01506744
v -0.03272381 -0.01531801 -0.17298194
v -0.03272381 -0.01518062 -0.17904301
v -0.02741987 -0.01530745 -0.17414334
v -0.02741987 -0.01508902 0.00914055
v -0.03272381 -0.01522994 -0.00951449
v -0.02741987 -0.01508197 0.01407651
v -0.02741987 -0.01486354 -0.17991407
v -0.02741987 -0.01518414 -0.17904301
v -0.03272381 -0.01350365 -0.18354345
v -0.02741987 -0.01350718 -0.18357973
v -0.02741987 -0.01507845 0.01520162
v -0.02741987 -0.01506083 0.02013758
v -0.02741987 -0.01491287 0.05773800
v -0.03272381 -0.01510663 0.02129898
v -0.03272381 -0.00922670 -0.18517668
v -0.02741987 -0.00922670 -0.18517668
v -0.02741987 -0.01470148 0.10023808
v -0.02741987 -0.01467682 0.10513775
v -0.03272381 -0.01466625 0.10629916
v -0.03272381 -0.00365679 -0.18528556
v -0.02741987 -0.00365679 -0.18524925
v -0.02741987 -0.01451124 0.13551570
v -0.03272381 -0.01437737 0.16095767
v -0.02741987 -0.00259636 -0.18521296
v -0.03272381 0.00191312 -0.18499520
v -0.03219264 0.00191312 -0.18499520
v -0.02741987 -0.01447601 0.14157677
v -0.02741987 -0.01435623 0.15979627
v -0.02741987 -0.01430691 0.16585735
v -0.02741987 -0.01424349 0.17195471
v -0.03272381 -0.01431043 0.16647434
v -0.02741987 -0.01446897 0.14273817
v -0.02741987 -0.01443726 0.14763784
v -0.02741987 0.00191312 -0.18495891
v -0.03272381 0.00603154 -0.18339828
v -0.02741987 0.00607734 -0.18339828
v -0.02741987 0.00269523 -0.18466855
v -0.02741987 -0.01415189 0.17801579
v -0.03272381 -0.01420826 0.17253542
v -0.02741987 -0.01413428 0.17917719
v -0.03272381 0.01619900 -0.17621210
v -0.03272381 0.01644914 -0.17603062
v -0.02741987 0.01602990 -0.17617580
v -0.03272381 -0.01406382 0.17863278
v -0.03219264 -0.01404972 0.17917719
v -0.02741987 -0.01304214 0.18349616
v -0.03272381 -0.01299634 0.18345985
v -0.02741987 0.01651608 -0.17555881
v -0.03272381 0.01896810 -0.17258271
v -0.03272381 -0.01403916 0.17917719
v -0.02741987 -0.00922670 0.18512939
v -0.03272381 -0.00922670 0.18509308
v -0.03272381 0.01904561 -0.17247383
v -0.02741987 0.01763992 -0.17290935
v -0.02741987 -0.00365679 0.18545601
v -0.03272381 -0.00365679 0.18549232
v -0.03272381 0.02058165 -0.16804598
v -0.02741987 0.01793233 -0.17171165
v -0.03219264 0.00191312 0.18531084
v -0.02741987 0.00085269 0.18531084
v -0.03272381 0.00191312 0.18531084
v -0.03272381 0.02065563 -0.16692087
v -0.02741987 0.01891174 -0.16692087
v -0.02741987 0.00191312 0.18527455
v -0.03272381 0.00629225 0.18367761
v -0.02741987 0.01890469 -0.16082351
v -0.03272381 0.02059222 -0.12442078
v -0.02741987 0.00611962 0.18367761
v -0.03272381 0.01477218 0.17739878
v -0.02741987 0.01884127 -0.13048185
v -0.02741987 0.01883775 -0.12921157
v -0.03272381 0.01883775 0.16658322
v -0.02741987 0.01751662 0.16643804
v -0.02741987 0.01328193 0.17761655
v -0.02741987 0.01564589 0.17558410
v -0.03272381 0.01730171 0.17464046
v -0.03272381 0.01815781 0.17307982
v -0.02741987 0.01718897 0.17307982
f 269 270 271
f 269 271 272
f 269 272 273
f 269 273 278
f 269 278 277
f 269 277 280
f 269 280 286
f 269 286 291
f 269 291 294
f 269 294 304
f 269 304 307
f 269 307 306
f 269 306 313
f 269 313 318
f 269 318 324
f 269 324 328
f 269 328 333
f 269 333 336
f 269 336 340
f 269 340 341
f 269 341 343
f 269 343 348
f 269 348 345
f 269 345 344
f 269 344 338
f 269 338 334
f 269 334 330
f 269 330 325
f 269 325 321
f 269 321 316
f 269 316 310
f 269 310 308
f 269 308 300
f 269 300 299
f 269 299 298
f 269 298 303
f 269 303 302
f 269 302 297
f 269 297 292
f 269 292 288
f 269 288 287
f 269 287 283
f 269 283 282
f 269 282 281
f 269 281 276
f 269 276 274
f 269 274 270
f 270 275 284
f 270 284 289
f 270 289 293
f 270 293 301
f 270 301 309
f 270 309 314
f 270 314 320
f 270 320 317
f 270 317 322
f 270 322 326
f 270 326 331
f 270 331 335
f 270 335 339
f 270 339 346
f 270 346 347
f 270 347 342
f 270 342 337
f 270 337 332
f 270 332 327
f 270 327 323
f 270 323 319
f 270 319 312
f 270 312 311
f 270 311 305
f 270 305 295
f 270 295 290
f 270 290 285
f 270 285 279
f 270 279 272
f 270 272 271
f 270 274 276
f 270 276 275
f 272 277 278
f 272 278 273
f 272 279 280
f 272 280 277
f 275 276 281
f 275 281 282
f 275 282 283
f 275 283 284
f 279 285 280
f 280 285 286
f 283 287 284
f 284 287 288
f 284 288 289
f 285 290 286
f 286 290 291
f 288 292 293
f 288 293 289
f 290 294 291
f 290 295 296
f 290 296 294
f 292 297 293
f 293 298 299
f 293 299 300
f 293 300 301
f 293 297 302
f 293 302 303
f 293 303 298
f 294 296 304
f 295 305 306
f 295 306 296
f 296 306 307
f 296 307 304
f 300 308 301
f 301 308 310
f 301 310 309
f 305 311 306
f 306 311 312
f 306 312 313
f 309 310 314
f 310 315 314
f 310 316 317
f 310 317 315
f 312 318 313
f 312 319 318
f 314 315 320
f 315 317 320
f 316 321 322
f 316 322 317
f 318 319 323
f 318 323 324
f 321 325 326
f 321 326 322
f 323 327 324
f 324 327 328
f 325 329 326
f 325 330 329
f 326 329 331
f 327 332 333
f 327 333 328
f 329 330 334
f 329 334 335
f 329 335 331
f 332 336 333
f 332 337 336
f 334 338 335
f 335 338 339
f 336 337 340
f 337 341 340
f 337 342 343
f 337 343 341
f 338 344 339
f 339 344 345
f 339 345 346
f 342 347 348
f 342 348 343
f 345 348 346
f 346 348 347

o geometry_3
v -0.04987730 -0.01535797 -0.14665714
v -0.05577279 -0.01530350 -0.14665714
v -0.04789424 -0.01535408 -0.14665714
v -0.05577279 -0.01519844 -0.06131682
v -0.05577279 -0.01520233 -0.06370618
v -0.06166493 -0.01489882 -0.11834403
v -0.06166493 -0.01491828 -0.13656500
v -0.06166493 -0.01491050 -0.14665714
v -0.03272433 -0.01520233 -0.14665714
v -0.03272433 -0.01520233 -0.14263031
v -0.03272433 -0.01514396 -0.06370618
v -0.03272433 -0.01514007 -0.06131682
v -0.03577442 -0.01514785 -0.06131682
v -0.05935304 -0.01493773 -0.06131682
v -0.06166493 -0.01482489 -0.07584514
v -0.06166493 -0.01485991 -0.09406612
v -0.06166493 -0.01489104 -0.11227038
v -0.06570823 -0.01327625 -0.11834403
v -0.06571829 -0.01329571 -0.14665714
v -0.06571159 -0.01328014 -0.12441769
v -0.03272433 0.00910128 -0.14665714
v -0.03272433 0.01416356 -0.06131682
v -0.06166493 -0.01476264 -0.06131682
v -0.06166493 -0.01480155 -0.06977984
v -0.06564112 -0.01321399 -0.07584514
v -0.06569816 -0.01326847 -0.11227038
v -0.06688263 -0.00922565 -0.11834403
v -0.06688934 -0.00922565 -0.12441769
v -0.06571829 -0.01329181 -0.14263031
v -0.06689941 -0.00922565 -0.14665714
v -0.05062221 0.00905070 -0.14665714
v -0.04398516 0.02273559 -0.13532856
v -0.03808967 0.02219862 -0.13462678
v -0.03272433 0.01828421 -0.13668197
v -0.03661999 0.01814023 -0.06131682
v -0.03272433 0.01699626 -0.06977984
v -0.03543552 0.02105075 -0.06977984
v -0.06404729 -0.01378987 -0.06131682
v -0.06562098 -0.01319454 -0.06977984
v -0.06675177 -0.00922565 -0.07584514
v -0.06699336 -0.00365753 -0.11834403
v -0.06700342 -0.00365753 -0.12441769
v -0.06693296 -0.00735015 -0.14665714
v -0.05577279 0.00902735 -0.14665714
v -0.04987730 0.02270446 -0.13527843
v -0.04987730 0.02420252 -0.13049135
v -0.04398516 0.02414415 -0.13049135
v -0.03490201 0.02156048 -0.13377464
v -0.03808967 0.02310135 -0.13049135
v -0.03272433 0.01831533 -0.13664020
v -0.03754273 0.01880172 -0.06131682
v -0.03926071 0.02232702 -0.06516820
v -0.03272433 0.02059550 -0.12441769
v -0.03838495 0.02283286 -0.06977984
v -0.03463357 0.02177449 -0.12441769
v -0.06558072 -0.01316341 -0.06131682
v -0.06671150 -0.00922565 -0.06977984
v -0.06681216 -0.00365753 -0.06977984
v -0.06684572 -0.00365753 -0.07584514
v -0.06686921 0.00191059 -0.11834403
v -0.06687592 0.00191059 -0.12441769
v -0.06687592 0.00191059 -0.14665714
v -0.06699336 -0.00365753 -0.14665714
v -0.06170184 0.00851373 -0.14665714
v -0.05577279 0.02231146 -0.13476881
v -0.05577279 0.02346322 -0.13049135
v -0.04987730 0.02429980 -0.12441769
v -0.04398516 0.02420641 -0.12441769
v -0.03808967 0.02317528 -0.12441769
v -0.03470068 0.02171613 -0.13049135
v -0.03272433 0.02047098 -0.13150223
v -0.03272433 0.01832701 -0.13661513
v -0.03935802 0.01954880 -0.06131682
v -0.04398516 0.02429201 -0.06977984
v -0.04398516 0.02281341 -0.06435783
v -0.04398516 0.02095737 -0.06131682
v -0.03272433 0.02055270 -0.13049135
v -0.04398516 0.02438151 -0.07584514
v -0.06664104 -0.00922565 -0.06131682
v -0.06675512 -0.00365753 -0.06131682
v -0.06671150 -0.00147075 -0.06131682
v -0.06664104 0.00191059 -0.06131682
v -0.06665446 0.00191059 -0.06370618
v -0.06668802 0.00191059 -0.06977984
v -0.06671486 0.00191059 -0.07584514
v -0.06566461 0.00638532 -0.12441769
v -0.06559079 0.00625691 -0.07584514
v -0.06566797 0.00639310 -0.13049135
v -0.06567468 0.00592617 -0.14665714
v -0.06307086 0.00764213 -0.14665714
v -0.05904098 0.02175115 -0.13403362
v -0.05924567 0.02201574 -0.13049135
v -0.05577279 0.02351769 -0.12441769
v -0.04987730 0.02438540 -0.07584514
v -0.04987730 0.02430369 -0.06977984
v -0.04987730 0.02282508 -0.06432441
v -0.04981690 0.02102741 -0.06131682
v -0.06622161 0.00349425 -0.06131682
v -0.06558072 0.00619077 -0.06977984
v -0.06075897 0.01861495 -0.07584514
v -0.06074890 0.01861495 -0.12441769
v -0.06074554 0.01861495 -0.13049135
v -0.05925909 0.02202352 -0.12441769
v -0.05929600 0.02205854 -0.07584514
v -0.05577279 0.02355271 -0.07584514
v -0.05577279 0.02343598 -0.06977984
v -0.05577279 0.02236983 -0.06505960
v -0.04987730 0.02102741 -0.06131682
v -0.06556059 0.00596119 -0.06131682
v -0.06065495 0.01861495 -0.06977984
v -0.05924902 0.02199239 -0.06977984
v -0.05902757 0.02174726 -0.06611225
v -0.05577279 0.01960717 -0.06131682
v -0.05925573 0.01732311 -0.06131682
f 349 350 356
f 349 356 367
f 349 367 378
f 349 378 391
f 349 391 411
f 349 411 410
f 349 410 437
f 349 437 438
f 349 438 412
f 349 412 392
f 349 392 379
f 349 379 369
f 349 369 357
f 349 357 351
f 349 351 352
f 349 352 353
f 349 353 350
f 350 354 355
f 350 355 356
f 350 353 354
f 351 357 358
f 351 358 359
f 351 359 360
f 351 360 361
f 351 361 352
f 352 361 360
f 352 360 370
f 352 370 383
f 352 383 399
f 352 399 421
f 352 421 424
f 352 424 445
f 352 445 456
f 352 456 461
f 352 461 462
f 352 462 457
f 352 457 446
f 352 446 430
f 352 430 429
f 352 429 428
f 352 428 427
f 352 427 404
f 352 404 386
f 352 386 371
f 352 371 362
f 352 362 363
f 352 363 364
f 352 364 365
f 352 365 353
f 353 365 354
f 354 365 366
f 354 366 355
f 355 367 356
f 355 366 368
f 355 368 367
f 357 369 382
f 357 382 398
f 357 398 420
f 357 420 419
f 357 419 425
f 357 425 401
f 357 401 384
f 357 384 370
f 357 370 360
f 357 360 359
f 357 359 358
f 362 371 372
f 362 372 363
f 363 372 373
f 363 373 374
f 363 374 366
f 363 366 364
f 364 366 365
f 366 374 373
f 366 373 375
f 366 375 376
f 366 376 368
f 367 377 378
f 367 368 377
f 368 376 377
f 369 379 380
f 369 380 381
f 369 381 382
f 370 384 385
f 370 385 383
f 371 386 387
f 371 387 372
f 372 387 373
f 373 387 388
f 373 388 375
f 375 389 390
f 375 390 376
f 375 388 389
f 376 390 378
f 376 378 377
f 378 390 391
f 379 392 380
f 380 392 393
f 380 393 394
f 380 394 395
f 380 395 381
f 381 396 382
f 381 395 397
f 381 397 396
f 382 396 398
f 383 385 400
f 383 400 399
f 384 401 385
f 385 402 400
f 385 401 403
f 385 403 402
f 386 404 387
f 387 404 388
f 388 404 405
f 388 405 406
f 388 406 407
f 388 407 389
f 389 408 390
f 389 407 408
f 390 408 409
f 390 409 410
f 390 410 411
f 390 411 391
f 392 412 393
f 393 412 413
f 393 413 394
f 394 413 414
f 394 414 415
f 394 415 395
f 395 415 416
f 395 416 417
f 395 417 397
f 396 397 418
f 396 418 419
f 396 419 420
f 396 420 398
f 397 417 403
f 397 403 418
f 399 400 421
f 400 402 422
f 400 422 423
f 400 423 424
f 400 424 421
f 401 425 403
f 402 426 422
f 402 403 417
f 402 417 426
f 403 425 418
f 404 427 405
f 405 427 428
f 405 428 406
f 406 428 429
f 406 429 430
f 406 430 431
f 406 431 407
f 407 431 432
f 407 432 433
f 407 433 408
f 408 434 409
f 408 433 435
f 408 435 434
f 409 434 436
f 409 436 410
f 410 436 437
f 412 438 439
f 412 439 413
f 413 439 414
f 414 439 440
f 414 440 441
f 414 441 415
f 415 441 442
f 415 442 426
f 415 426 416
f 416 426 417
f 418 425 419
f 422 443 444
f 422 444 423
f 422 426 443
f 423 444 445
f 423 445 424
f 426 442 443
f 430 446 447
f 430 447 431
f 431 447 432
f 432 447 435
f 432 435 433
f 434 435 448
f 434 448 436
f 435 447 448
f 436 448 449
f 436 449 450
f 436 450 437
f 437 439 438
f 437 450 440
f 437 440 439
f 440 450 451
f 440 451 441
f 441 451 452
f 441 452 453
f 441 453 442
f 442 453 443
f 443 453 454
f 443 454 455
f 443 455 444
f 444 455 456
f 444 456 445
f 446 457 447
f 447 457 448
f 448 457 458
f 448 458 459
f 448 459 452
f 448 452 449
f 449 452 450
f 450 452 451
f 452 459 453
f 453 459 454
f 454 459 460
f 454 460 455
f 455 460 461
f 455 461 456
f 457 462 460
f 457 460 459
f 457 459 458
f 460 462 461

o geometry_4
v -0.03272769 0.00909905 -0.14666927
v -0.03272769 0.01626834 -0.15144026
v -0.04398307 0.01986263 -0.15265759
v -0.05062327 0.00905080 -0.14666927
v -0.03272769 -0.01520223 -0.14666927
v -0.03272769 0.01905693 -0.15528882
v -0.03487718 0.02156570 -0.15747773
v -0.03808964 0.02219771 -0.15649480
v -0.03808964 0.01940430 -0.15345905
v -0.04398307 0.02273807 -0.15569334
v -0.04987986 0.01987228 -0.15267271
v -0.05576993 0.00902668 -0.14666927
v -0.04789520 -0.01535662 -0.14666927
v -0.04987986 -0.02395880 -0.15689931
v -0.04644875 -0.02356801 -0.15733408
v -0.04599127 -0.02397327 -0.16085373
v -0.03272769 -0.01531802 -0.17299672
v -0.03272769 0.02061044 -0.16085373
v -0.03467871 0.02169114 -0.16085373
v -0.03808964 0.02304684 -0.16085373
v -0.04398307 0.02410824 -0.16085373
v -0.04987986 0.02411789 -0.16085373
v -0.04987986 0.02272359 -0.15570845
v -0.05576993 0.01944290 -0.15329649
v -0.06170036 0.00851528 -0.14666927
v -0.04987986 -0.01536144 -0.14666927
v -0.05433021 -0.02381406 -0.15707700
v -0.04987986 -0.02516976 -0.16085373
v -0.05576993 -0.01530355 -0.14666927
v -0.04616283 -0.02382853 -0.16535631
v -0.03272769 -0.01517811 -0.17906820
v -0.03272769 0.02065386 -0.16692522
v -0.03464508 0.02171044 -0.16692522
v -0.03808964 0.02305166 -0.16692522
v -0.04398307 0.02409859 -0.16692522
v -0.04987986 0.02410342 -0.16692522
v -0.05576993 0.02331219 -0.16692522
v -0.05576993 0.02327359 -0.16085373
v -0.05576993 0.02229421 -0.15633224
v -0.05901266 0.02171044 -0.15724334
v -0.05886128 0.01608500 -0.15162551
v -0.06306944 0.00764203 -0.14666927
v -0.05826252 -0.02260792 -0.15951543
v -0.05608613 -0.02413248 -0.16126580
v -0.06166672 -0.01490793 -0.14666927
v -0.06571677 -0.01329653 -0.14666927
v -0.04987986 -0.02435441 -0.16646778
v -0.05576993 -0.02388160 -0.16546594
v -0.03272769 -0.01350399 -0.18357457
v -0.03272769 -0.01502855 -0.17947272
v -0.03272769 0.02058149 -0.16805181
v -0.03483345 0.02159464 -0.17036926
v -0.03808964 0.02220736 -0.17134463
v -0.04398307 0.02272359 -0.17211207
v -0.04987986 0.02271394 -0.17210451
v -0.05576993 0.02233763 -0.17162061
v -0.05910011 0.02178280 -0.17073975
v -0.05927167 0.02196614 -0.16692522
v -0.05920439 0.02191307 -0.16085373
v -0.06567640 0.00592449 -0.14666927
v -0.05876037 -0.02319652 -0.16356056
v -0.05876037 -0.02319652 -0.16401801
v -0.06690084 -0.00922461 -0.14666927
v -0.06697820 -0.00922461 -0.17299672
v -0.06575041 -0.01333995 -0.17299672
v -0.05576993 -0.02221713 -0.16849791
v -0.06166672 -0.01304083 -0.18307554
v -0.04987986 -0.02261275 -0.16950353
v -0.06492963 -0.01240399 -0.18244798
v -0.05576993 -0.01348469 -0.18353676
v -0.03272769 -0.00922461 -0.18517750
v -0.03272769 0.01904728 -0.17250525
v -0.03272769 0.01644685 -0.17604758
v -0.03808964 0.01951526 -0.17438038
v -0.04398307 0.01995912 -0.17514782
v -0.04987986 0.01997842 -0.17514026
v -0.05576993 0.01972754 -0.17465635
v -0.06084595 0.01861790 -0.16692522
v -0.05903957 0.01639378 -0.17628953
v -0.06489599 0.00498371 -0.18241018
v -0.06539720 0.00566879 -0.17906820
v -0.06571341 0.00633458 -0.17299672
v -0.06073157 0.01861790 -0.16085373
v -0.06566631 0.00625256 -0.15478223
v -0.06687393 0.00190564 -0.14666927
v -0.06542748 -0.01297811 -0.17906820
v -0.06699503 -0.00365707 -0.14666927
v -0.06708921 -0.00365707 -0.17299672
v -0.06654091 -0.00365707 -0.17906820
v -0.06638617 -0.00922461 -0.17906820
v -0.06166672 -0.00922461 -0.18424371
v -0.05576993 -0.00922461 -0.18512458
v -0.06518528 -0.00922461 -0.18273908
v -0.04987986 -0.00922461 -0.18514347
v -0.03272769 -0.00872285 -0.18518884
v -0.04987986 -0.00365707 -0.18527581
v -0.03272769 0.01619597 -0.17623282
v -0.03272769 0.00603063 -0.18341578
v -0.04398307 0.00608853 -0.18341578
v -0.04987986 0.00609818 -0.18341578
v -0.05576993 0.01694378 -0.17652014
v -0.05576993 0.00606923 -0.18340822
v -0.06166672 0.00558677 -0.18298104
v -0.06166672 0.00190564 -0.18412653
v -0.06515501 0.00190564 -0.18269750
v -0.06636262 0.00190564 -0.17906820
v -0.06696139 0.00190564 -0.17299672
v -0.06695466 -0.00178032 -0.14666927
v -0.06527947 -0.00365707 -0.18284492
v -0.06166672 -0.00365707 -0.18441383
v -0.05576993 -0.00365707 -0.18525689
v -0.04398307 -0.00365707 -0.18528336
v -0.03808964 -0.00365707 -0.18528714
v -0.03272769 -0.00365707 -0.18528336
v -0.05576993 0.00190564 -0.18497335
v -0.04987986 0.00190564 -0.18498847
v -0.03272769 0.00227713 -0.18485237
v -0.03808964 0.00190564 -0.18499605
v -0.03272769 0.00190564 -0.18499227
f 463 464 465
f 463 465 466
f 463 466 474
f 463 474 487
f 463 487 504
f 463 504 522
f 463 522 547
f 463 547 570
f 463 570 549
f 463 549 525
f 463 525 508
f 463 508 507
f 463 507 491
f 463 491 488
f 463 488 475
f 463 475 467
f 463 467 479
f 463 479 493
f 463 493 512
f 463 512 511
f 463 511 533
f 463 533 557
f 463 557 576
f 463 576 581
f 463 581 579
f 463 579 560
f 463 560 559
f 463 559 535
f 463 535 534
f 463 534 513
f 463 513 494
f 463 494 480
f 463 480 468
f 463 468 464
f 464 468 469
f 464 469 470
f 464 470 471
f 464 471 465
f 465 471 472
f 465 472 473
f 465 473 466
f 466 473 474
f 467 475 476
f 467 476 477
f 467 477 478
f 467 478 479
f 468 480 469
f 469 480 481
f 469 481 482
f 469 482 470
f 470 482 483
f 470 483 472
f 470 472 471
f 472 483 484
f 472 484 485
f 472 485 473
f 473 485 501
f 473 501 486
f 473 486 487
f 473 487 474
f 475 488 476
f 476 489 490
f 476 490 477
f 476 488 491
f 476 491 489
f 477 490 478
f 478 490 492
f 478 492 493
f 478 493 479
f 480 494 481
f 481 494 495
f 481 495 482
f 482 496 483
f 482 495 496
f 483 497 484
f 483 496 497
f 484 497 498
f 484 498 499
f 484 499 500
f 484 500 501
f 484 501 485
f 486 501 502
f 486 502 503
f 486 503 487
f 487 503 504
f 489 505 506
f 489 506 490
f 489 491 507
f 489 507 508
f 489 508 505
f 490 509 492
f 490 506 510
f 490 510 509
f 492 509 511
f 492 511 512
f 492 512 493
f 494 513 514
f 494 514 495
f 495 514 496
f 496 514 515
f 496 515 497
f 497 515 516
f 497 516 498
f 498 516 517
f 498 517 518
f 498 518 499
f 499 518 519
f 499 519 520
f 499 520 500
f 500 520 521
f 500 521 502
f 500 502 501
f 502 521 522
f 502 522 503
f 503 522 504
f 505 523 506
f 505 508 523
f 506 523 524
f 506 524 510
f 508 525 526
f 508 526 527
f 508 527 523
f 509 510 528
f 509 528 529
f 509 529 530
f 509 530 511
f 510 524 531
f 510 531 529
f 510 529 528
f 511 532 533
f 511 530 532
f 513 534 514
f 514 534 535
f 514 535 515
f 515 535 536
f 515 536 516
f 516 536 537
f 516 537 538
f 516 538 517
f 517 538 539
f 517 539 518
f 518 539 519
f 519 540 520
f 519 539 541
f 519 541 542
f 519 542 543
f 519 543 544
f 519 544 540
f 520 540 521
f 521 540 545
f 521 545 522
f 522 546 547
f 522 545 540
f 522 540 546
f 523 527 524
f 524 527 548
f 524 548 531
f 525 549 550
f 525 550 526
f 526 550 551
f 526 551 552
f 526 552 548
f 526 548 527
f 529 531 553
f 529 553 554
f 529 554 532
f 529 532 530
f 531 548 552
f 531 552 555
f 531 555 553
f 532 554 556
f 532 556 533
f 533 556 558
f 533 558 557
f 535 559 537
f 535 537 536
f 537 559 560
f 537 560 561
f 537 561 562
f 537 562 538
f 538 563 539
f 538 562 564
f 538 564 563
f 539 563 541
f 540 544 546
f 541 563 565
f 541 565 542
f 542 565 566
f 542 566 567
f 542 567 568
f 542 568 543
f 543 568 569
f 543 569 544
f 544 547 546
f 544 569 547
f 547 569 550
f 547 550 570
f 549 570 550
f 550 569 551
f 551 569 568
f 551 568 567
f 551 567 571
f 551 571 555
f 551 555 552
f 553 555 572
f 553 572 554
f 554 572 573
f 554 573 558
f 554 558 556
f 555 571 572
f 557 558 574
f 557 574 575
f 557 575 576
f 558 573 577
f 558 577 578
f 558 578 574
f 560 579 561
f 561 579 562
f 562 579 580
f 562 580 578
f 562 578 577
f 562 577 564
f 563 564 565
f 564 577 565
f 565 577 566
f 566 577 572
f 566 572 567
f 567 572 571
f 572 577 573
f 574 578 575
f 575 578 580
f 575 580 581
f 575 581 576
f 579 581 580

o geometry_5
v -0.02741786 -0.01513436 -0.07699126
v -0.02741786 -0.01513097 -0.11018779
v -0.00686364 -0.01510722 -0.03331770
v -0.00861422 -0.01511061 -0.02119098
v -0.00686364 -0.01510722 -0.00116309
v -0.02741786 -0.01512757 -0.02723987
v -0.02741786 0.01463764 -0.11018779
v -0.00686364 -0.01508009 -0.11018779
v -0.00686364 -0.01510383 0.00491474
v -0.00686364 -0.01510044 0.00916922
v -0.02741786 -0.01509704 0.00312033
v -0.02473565 0.01681533 -0.10460196
v -0.02040145 0.01732414 -0.10532552
v -0.02040145 0.01523803 -0.11018779
v -0.02741786 0.01600463 -0.10011596
v -0.02552039 0.01737502 -0.10011596
v -0.00686364 0.01435270 -0.11018779
v -0.02741786 -0.01509026 0.00916922
v -0.00686364 -0.01509704 0.01099257
v -0.02741786 -0.01508009 0.01524705
v -0.02040145 0.01893197 -0.10011596
v -0.01450784 0.01733770 -0.10538339
v -0.01450784 0.01542798 -0.11018779
v -0.01475734 0.01542120 -0.11018779
v -0.02741786 0.01612335 -0.09403812
v -0.02560088 0.01741233 -0.09403812
v -0.02040145 0.01902694 -0.09403812
v -0.00861422 0.01506164 -0.11018779
v -0.00686364 0.01705956 -0.10492033
v -0.00686364 -0.01508687 0.01524705
v -0.00861422 -0.01508687 0.01524705
v -0.00686364 -0.01506652 0.02132488
v -0.00861422 -0.01493423 0.05773398
v -0.02741786 -0.01491387 0.05773398
v -0.01450784 0.01894554 -0.10011596
v -0.01450784 0.01904730 -0.09403812
v -0.00861422 0.01728343 -0.10526763
v -0.00861422 0.01891161 -0.10011596
v -0.02741786 0.01751748 0.16644031
v -0.02040145 0.01912531 -0.07583358
v -0.01450784 0.01916263 -0.08191140
v -0.00686364 0.01799576 -0.10196825
v -0.00686364 -0.01493423 0.05773398
v -0.00686364 -0.01492744 0.05952839
v -0.00686364 -0.01450683 0.16701914
v -0.02741786 -0.01489013 0.06265413
v -0.00861422 0.01903034 -0.09403812
v -0.00861422 0.01917280 -0.08191140
v -0.00686364 0.01836889 -0.10011596
v -0.00686364 0.01851474 -0.09403812
v -0.02741786 0.01719185 0.17309698
v -0.02040145 0.01949165 0.16701914
v -0.01450784 0.01919994 -0.06975575
v -0.01450784 0.01918976 -0.07583358
v -0.00686364 -0.01449665 0.16881356
v -0.02741786 -0.01447630 0.14157909
v -0.02741786 -0.01451022 0.13550127
v -0.02741786 -0.01467643 0.10514106
v -0.00686364 0.01887430 -0.06975575
v -0.00861422 0.01951879 0.16701914
v -0.00686364 0.01951201 0.16701914
v -0.02741786 0.01564507 0.17558600
v -0.02468937 0.01644560 0.17665686
v -0.02040145 0.01863007 0.17309698
v -0.00686364 0.01891501 0.17309698
v -0.01450784 0.01951540 0.16701914
v -0.00686364 -0.01446952 0.17309698
v -0.01450784 -0.01443899 0.16701914
v -0.02741786 -0.01442881 0.14881461
v -0.02040145 -0.01438132 0.16701914
v -0.02741786 0.01328082 0.17761193
v -0.02040145 0.01678480 0.17697521
v -0.02741786 0.00612021 0.18366083
v -0.00686364 0.01705956 0.17732253
v -0.01450784 -0.01439828 0.17309698
v -0.00686364 -0.01445255 0.17489138
v -0.02741786 -0.01434740 0.16094132
v -0.02040145 -0.01433383 0.17309698
v -0.02741786 0.00191068 0.18528159
v -0.00686364 0.00621518 0.18363188
v -0.00686364 -0.01440846 0.17917480
v -0.00861422 -0.01439150 0.17917480
v -0.01450784 -0.01433383 0.17917480
v -0.02741786 -0.01430670 0.16586146
v -0.02629709 -0.01424564 0.17309698
v -0.02741786 -0.01424225 0.17193930
v -0.02040145 -0.01425582 0.17917480
v -0.02741786 -0.00365567 0.18548417
v -0.02629709 0.00191068 0.18528159
v -0.00686364 0.00320644 0.18476063
v -0.00686364 -0.01319071 0.18363188
v -0.01450784 -0.01315001 0.18357401
v -0.02040145 -0.01310591 0.18354506
v -0.02741786 -0.01304147 0.18348717
v -0.02741786 -0.01422529 0.17309698
v -0.02629709 -0.01415406 0.17917480
v -0.00686364 -0.00922541 0.18525264
v -0.00686364 -0.00365567 0.18545523
v -0.00686364 -0.00200374 0.18539736
v -0.02741786 -0.00922541 0.18513688
v -0.02040145 -0.00922541 0.18519475
v -0.00861422 -0.00922541 0.18525264
v -0.00686364 0.00191068 0.18522370
v -0.00686364 -0.01200689 0.18412391
v -0.02741786 -0.01413370 0.17917480
f 582 583 584
f 582 584 585
f 582 585 586
f 582 586 587
f 582 587 592
f 582 592 599
f 582 599 601
f 582 601 615
f 582 615 627
f 582 627 639
f 582 639 638
f 582 638 637
f 582 637 650
f 582 650 658
f 582 658 665
f 582 665 667
f 582 667 676
f 582 676 686
f 582 686 675
f 582 675 681
f 582 681 669
f 582 669 660
f 582 660 654
f 582 654 652
f 582 652 643
f 582 643 632
f 582 632 620
f 582 620 606
f 582 606 596
f 582 596 588
f 582 588 583
f 583 588 595
f 583 595 605
f 583 605 604
f 583 604 609
f 583 609 598
f 583 598 589
f 583 589 584
f 584 586 585
f 584 589 598
f 584 598 610
f 584 610 623
f 584 623 630
f 584 630 631
f 584 631 640
f 584 640 642
f 584 642 646
f 584 646 655
f 584 655 661
f 584 661 671
f 584 671 684
f 584 684 680
f 584 680 679
f 584 679 678
f 584 678 685
f 584 685 672
f 584 672 662
f 584 662 657
f 584 657 648
f 584 648 636
f 584 636 626
f 584 626 625
f 584 625 624
f 584 624 613
f 584 613 611
f 584 611 600
f 584 600 591
f 584 591 590
f 584 590 586
f 586 590 587
f 587 590 591
f 587 591 592
f 588 593 594
f 588 594 595
f 588 596 597
f 588 597 593
f 591 599 592
f 591 600 601
f 591 601 599
f 593 597 602
f 593 602 594
f 594 603 604
f 594 604 605
f 594 605 595
f 594 602 603
f 596 606 597
f 597 606 607
f 597 607 608
f 597 608 602
f 598 609 610
f 600 611 612
f 600 612 601
f 601 612 613
f 601 613 614
f 601 614 615
f 602 616 603
f 602 608 617
f 602 617 616
f 603 618 604
f 603 616 619
f 603 619 618
f 604 618 609
f 606 620 607
f 607 621 608
f 607 620 621
f 608 621 622
f 608 622 617
f 609 618 610
f 610 618 623
f 611 613 612
f 613 624 614
f 614 624 625
f 614 625 626
f 614 626 615
f 615 626 627
f 616 617 628
f 616 628 619
f 617 622 629
f 617 629 628
f 618 619 623
f 619 630 623
f 619 628 631
f 619 631 630
f 620 632 633
f 620 633 621
f 621 634 635
f 621 635 622
f 621 633 634
f 622 635 629
f 626 636 637
f 626 637 638
f 626 638 639
f 626 639 627
f 628 629 640
f 628 640 631
f 629 635 634
f 629 634 641
f 629 641 642
f 629 642 640
f 632 643 644
f 632 644 645
f 632 645 633
f 633 645 646
f 633 646 647
f 633 647 634
f 634 647 641
f 636 648 649
f 636 649 637
f 637 649 651
f 637 651 650
f 641 647 646
f 641 646 642
f 643 652 644
f 644 653 645
f 644 652 654
f 644 654 653
f 645 653 655
f 645 655 646
f 648 656 649
f 648 657 656
f 649 656 651
f 650 651 658
f 651 656 659
f 651 659 658
f 653 654 655
f 654 660 661
f 654 661 655
f 656 657 662
f 656 662 663
f 656 663 664
f 656 664 659
f 658 659 665
f 659 666 667
f 659 667 665
f 659 664 668
f 659 668 666
f 660 669 670
f 660 670 661
f 661 670 671
f 662 672 673
f 662 673 674
f 662 674 663
f 663 674 664
f 664 674 675
f 664 675 668
f 666 676 667
f 666 668 677
f 666 677 686
f 666 686 676
f 668 675 677
f 669 678 679
f 669 679 680
f 669 680 670
f 669 681 682
f 669 682 683
f 669 683 678
f 670 680 684
f 670 684 671
f 672 685 682
f 672 682 681
f 672 681 674
f 672 674 673
f 674 681 675
f 675 686 677
f 678 683 685
f 682 685 683

o geometry_6
v 0.05040877 -0.01713997 -0.02798024
v 0.05547718 -0.01713997 -0.02647792
v 0.04434662 -0.01713997 -0.02686645
v 0.03433201 -0.01511584 -0.07911085
v 0.05623293 -0.01518044 -0.07911085
v 0.05588560 -0.01713997 -0.02601168
v 0.04126569 -0.01713997 -0.02422445
v 0.03433201 0.01059135 -0.07911085
v 0.03954192 -0.01713997 -0.02142703
v 0.03923962 -0.01713997 -0.01686827
v 0.03433201 -0.01553574 -0.02567496
v 0.06212785 -0.01478207 -0.07911085
v 0.05742607 -0.01713997 -0.02127161
v 0.03433201 0.01255447 -0.07530325
v 0.03895661 0.01253653 -0.07911085
v 0.03951941 -0.01713997 0.01486172
v 0.03433201 -0.01552139 0.02144083
v 0.03433201 -0.01552856 0.01701159
v 0.06605458 -0.01318502 -0.07911085
v 0.05781199 -0.01713997 -0.01510693
v 0.05753220 -0.01713997 -0.02020963
v 0.04113062 0.01606440 -0.07330880
v 0.03433201 0.01334044 -0.06976021
v 0.04444631 0.01429508 -0.07911085
v 0.03960624 -0.01713997 0.02120771
v 0.03433201 -0.01508354 0.16094916
v 0.06662059 -0.01105322 -0.07911085
v 0.06605458 -0.01318502 -0.07582129
v 0.06107300 -0.01713997 0.16638859
v 0.06106014 -0.01713997 0.16170033
v 0.04444631 0.01627973 -0.07372323
v 0.04089264 0.01621513 -0.06976021
v 0.04444631 0.01676065 -0.06976021
v 0.03433201 0.01381776 -0.04546411
v 0.03962232 0.01746407 0.00310219
v 0.05034123 0.01457501 -0.07911085
v 0.04205361 -0.01713997 0.16094916
v 0.03433201 -0.01502612 0.16703614
v 0.06710299 -0.00922648 -0.07911085
v 0.06593237 -0.01304864 0.15488809
v 0.06602242 -0.01317067 -0.03331606
v 0.06592272 -0.01304147 0.16094916
v 0.06590664 -0.01301993 0.16703614
v 0.06589056 -0.01299122 0.17309722
v 0.06573620 -0.01281178 0.17918418
v 0.06541781 -0.01243853 0.18265507
v 0.06079000 -0.01713997 0.16716566
v 0.05034123 0.01638740 -0.07393044
v 0.05034123 0.01692215 -0.06976021
v 0.04444631 0.01921544 0.00310219
v 0.03433201 0.01390748 -0.03940304
v 0.04444631 0.01932311 0.04560743
v 0.03433201 0.01439198 0.00310219
v 0.03433201 0.01519230 0.11844393
v 0.03433201 0.01520307 0.12396107
v 0.03967378 0.01749637 0.17309722
v 0.05658669 0.01437404 -0.07911085
v 0.04248777 -0.01713997 0.16675121
v 0.03433201 -0.01482514 0.17918418
v 0.06714802 -0.00622976 -0.07911085
v 0.06709978 -0.00922648 -0.07582129
v 0.06687144 -0.00922648 0.15488809
v 0.06685858 -0.00922648 0.16094916
v 0.06683928 -0.00922648 0.16703614
v 0.06681677 -0.00922648 0.17309722
v 0.06651447 -0.00922648 0.17918418
v 0.06212785 -0.01426169 0.17918418
v 0.06564936 -0.00922648 0.18293998
v 0.06212785 -0.00922648 0.18454591
v 0.06212785 -0.01304147 0.18332851
v 0.05604962 -0.01713997 0.17257917
v 0.05495297 0.01620437 -0.07356781
v 0.05578913 0.01637663 -0.06976021
v 0.05034123 0.01931593 0.00310219
v 0.05034123 0.01949538 0.04560743
v 0.04444631 0.01932670 0.17309722
v 0.05034123 0.01952409 0.16703614
v 0.03433201 0.01520307 0.12453091
v 0.03433201 0.01435250 0.17309722
v 0.04025909 0.01695086 0.17755237
v 0.05873498 0.01565886 -0.06976021
v 0.05864814 0.01297796 -0.07911085
v 0.04253601 -0.01713997 0.16706205
v 0.03433201 -0.01340394 0.18374295
v 0.04467465 -0.01713997 0.17177622
v 0.04520529 -0.01713997 0.17224245
v 0.05033480 -0.01713997 0.17371887
v 0.06718340 -0.00365653 -0.07911085
v 0.06694541 -0.00365653 0.15488809
v 0.06693898 -0.00365653 0.16094916
v 0.06692933 -0.00365653 0.16703614
v 0.06691968 -0.00365653 0.17309722
v 0.06661738 -0.00365653 0.17918418
v 0.06569761 -0.00365653 0.18299179
v 0.06212785 -0.00365653 0.18462361
v 0.05623293 -0.00922648 0.18542658
v 0.05623293 -0.01342548 0.18376886
v 0.05623293 0.01848690 0.00310219
v 0.05623293 0.01897499 0.16703614
v 0.04444631 0.01758968 0.17835532
v 0.05034123 0.01950973 0.17309722
v 0.03433201 0.01295643 0.17864025
v 0.03433201 0.00672612 0.18363935
v 0.06088648 0.01287388 -0.06976021
v 0.06573298 0.00557050 -0.07911085
v 0.06029795 0.01183311 -0.07911085
v 0.06016288 0.01675347 0.00310219
v 0.05034123 -0.01341830 0.18376886
v 0.03433201 -0.00922648 0.18540068
v 0.06697435 -0.00065981 -0.07911085
v 0.06682320 0.00190983 0.11238285
v 0.06682320 0.00190983 0.13059199
v 0.06677818 0.00190983 0.17309722
v 0.06645015 0.00190983 0.17918418
v 0.06559148 0.00190983 0.18283637
v 0.05623293 0.00190983 0.18527117
v 0.05623293 -0.00365653 0.18550428
v 0.06212785 0.00190983 0.18433870
v 0.05034123 -0.00922648 0.18542658
v 0.05623293 0.01895346 0.17309722
v 0.06030438 0.01710877 0.17309722
v 0.06030117 0.01711953 0.16703614
v 0.06017896 0.01676423 0.00918917
v 0.04444631 0.01304615 0.18128225
v 0.05034123 0.01767222 0.17848483
v 0.05623293 0.01737793 0.17812220
v 0.03433201 0.00190983 0.18527117
v 0.04444631 0.00728958 0.18366523
v 0.05034123 0.01304615 0.18146358
v 0.06573620 0.00566381 -0.06976021
v 0.06679426 0.00190983 -0.07911085
v 0.06223398 0.01304615 0.00918917
v 0.03433201 -0.00764378 0.18542658
v 0.06587127 0.00594015 0.11238285
v 0.06586162 0.00599040 0.17309722
v 0.06568474 0.00558485 0.17918418
v 0.06535671 0.00501781 0.18252556
v 0.05034123 0.00190983 0.18529707
v 0.06212785 0.00610883 0.18314721
v 0.05623293 0.00721780 0.18363935
v 0.05034123 0.00738647 0.18366523
v 0.03433201 -0.00207383 0.18542658
v 0.03433201 -0.00365653 0.18547838
v 0.03854818 0.00190983 0.18529707
v 0.05991525 0.01666375 0.17721564
v 0.06234332 0.01304615 0.17309722
v 0.06234332 0.01304615 0.16703614
v 0.06224041 0.01304615 0.01525025
v 0.05623293 0.01304615 0.18097144
v 0.06577157 0.00589709 0.00918917
f 687 688 692
f 687 692 699
f 687 699 707
f 687 707 706
f 687 706 716
f 687 716 715
f 687 715 733
f 687 733 757
f 687 757 773
f 687 773 772
f 687 772 771
f 687 771 769
f 687 769 744
f 687 744 723
f 687 723 711
f 687 711 702
f 687 702 696
f 687 696 695
f 687 695 693
f 687 693 689
f 687 689 690
f 687 690 691
f 687 691 688
f 688 691 692
f 689 693 690
f 690 694 701
f 690 701 710
f 690 710 722
f 690 722 743
f 690 743 768
f 690 768 792
f 690 792 791
f 690 791 817
f 690 817 796
f 690 796 774
f 690 774 746
f 690 746 725
f 690 725 713
f 690 713 705
f 690 705 698
f 690 698 691
f 690 693 695
f 690 695 696
f 690 696 697
f 690 697 704
f 690 704 703
f 690 703 712
f 690 712 724
f 690 724 745
f 690 745 770
f 690 770 795
f 690 795 819
f 690 819 829
f 690 829 828
f 690 828 813
f 690 813 789
f 690 789 788
f 690 788 765
f 690 765 764
f 690 764 741
f 690 741 740
f 690 740 739
f 690 739 737
f 690 737 720
f 690 720 709
f 690 709 700
f 690 700 694
f 691 698 692
f 692 698 699
f 694 700 701
f 696 702 703
f 696 703 704
f 696 704 697
f 698 705 706
f 698 706 707
f 698 707 699
f 700 708 701
f 700 709 708
f 701 708 710
f 702 711 712
f 702 712 703
f 705 713 714
f 705 714 715
f 705 715 716
f 705 716 706
f 708 717 710
f 708 709 718
f 708 718 719
f 708 719 717
f 709 720 721
f 709 721 718
f 710 717 722
f 711 723 712
f 712 723 724
f 713 725 726
f 713 726 714
f 714 726 727
f 714 727 715
f 715 726 728
f 715 728 729
f 715 729 730
f 715 730 731
f 715 731 732
f 715 732 733
f 715 727 726
f 717 734 722
f 717 719 735
f 717 735 734
f 718 721 736
f 718 736 719
f 719 736 735
f 720 737 721
f 721 738 736
f 721 737 739
f 721 739 740
f 721 740 741
f 721 741 742
f 721 742 738
f 722 734 743
f 723 744 745
f 723 745 724
f 725 746 747
f 725 747 726
f 726 748 728
f 726 747 748
f 728 748 749
f 728 749 750
f 728 750 729
f 729 750 751
f 729 751 730
f 730 751 731
f 731 752 732
f 731 751 752
f 732 753 733
f 732 752 754
f 732 754 755
f 732 755 756
f 732 756 753
f 733 753 757
f 734 735 758
f 734 758 743
f 735 759 758
f 735 736 760
f 735 760 759
f 736 738 761
f 736 761 760
f 738 742 762
f 738 762 763
f 738 763 761
f 741 764 742
f 742 764 765
f 742 765 766
f 742 766 762
f 743 758 767
f 743 767 768
f 744 769 745
f 745 769 771
f 745 771 772
f 745 772 773
f 745 773 770
f 746 774 748
f 746 748 747
f 748 775 776
f 748 776 777
f 748 777 778
f 748 778 749
f 748 774 775
f 749 778 750
f 750 778 751
f 751 778 779
f 751 779 752
f 752 779 754
f 753 756 757
f 754 780 781
f 754 781 755
f 754 779 780
f 755 781 803
f 755 803 782
f 755 782 756
f 756 782 783
f 756 783 757
f 757 783 773
f 758 759 767
f 759 760 784
f 759 784 767
f 760 761 784
f 761 763 785
f 761 785 784
f 762 766 786
f 762 786 787
f 762 787 763
f 763 787 785
f 765 788 766
f 766 788 789
f 766 789 786
f 767 790 791
f 767 791 792
f 767 792 768
f 767 784 793
f 767 793 790
f 770 794 795
f 770 773 794
f 773 783 794
f 774 796 797
f 774 797 798
f 774 798 775
f 775 798 799
f 775 799 776
f 776 799 777
f 777 799 778
f 778 799 779
f 779 800 801
f 779 801 780
f 779 799 800
f 780 801 781
f 781 802 803
f 781 801 804
f 781 804 802
f 782 803 805
f 782 805 783
f 783 805 794
f 784 785 793
f 785 787 806
f 785 806 807
f 785 807 808
f 785 808 809
f 785 809 793
f 786 789 810
f 786 810 811
f 786 811 787
f 787 811 812
f 787 812 806
f 789 813 814
f 789 814 815
f 789 815 810
f 790 793 791
f 791 816 817
f 791 793 818
f 791 818 816
f 793 809 818
f 794 805 795
f 795 805 819
f 796 817 797
f 797 820 821
f 797 821 798
f 797 817 820
f 798 821 799
f 799 821 822
f 799 822 800
f 800 822 823
f 800 823 801
f 801 823 804
f 802 824 803
f 802 804 825
f 802 825 826
f 802 826 827
f 802 827 824
f 803 828 829
f 803 829 805
f 803 824 830
f 803 830 828
f 804 823 825
f 805 829 819
f 806 812 831
f 806 831 807
f 807 832 808
f 807 831 822
f 807 822 832
f 808 832 833
f 808 833 820
f 808 820 834
f 808 834 818
f 808 818 809
f 810 815 811
f 811 815 835
f 811 835 812
f 812 835 831
f 813 828 830
f 813 830 814
f 814 830 827
f 814 827 815
f 815 827 826
f 815 826 835
f 816 818 836
f 816 836 817
f 817 836 820
f 818 834 820
f 818 820 836
f 820 833 821
f 821 833 832
f 821 832 822
f 822 831 823
f 823 831 825
f 824 827 830
f 825 831 835
f 825 835 826

o geometry_7
v -0.01450784 0.01542910 -0.11018778
v -0.02040145 0.01523916 -0.11018778
v -0.00861422 0.01506254 -0.11018778
v -0.01450784 0.01679538 -0.11330466
v -0.02040145 0.01699866 -0.11324452
v -0.02741786 0.01710196 -0.11333806
v -0.02741786 0.01463600 -0.11018778
v -0.00686364 0.01435274 -0.11018778
v -0.00686364 0.01615223 -0.11447725
v -0.00861422 0.01637217 -0.11399284
v -0.01450784 0.01779177 -0.11834911
v -0.02040145 0.01820831 -0.11834911
v -0.02741786 0.01860487 -0.11833909
v -0.02741786 -0.01512887 -0.11018778
v -0.00686364 -0.01507889 -0.11018778
v -0.00686364 0.01639216 -0.11834911
v -0.00861422 0.01687536 -0.11834911
v -0.01450784 0.01783509 -0.12442251
v -0.02741786 0.01883813 -0.12922644
v -0.02741786 0.01879815 -0.12442251
v -0.02741786 0.01876482 -0.12332675
v -0.02741786 -0.01519885 -0.14379190
v -0.02629709 -0.01520219 -0.14431638
v -0.02703354 -0.01512887 -0.11018778
v -0.00686364 -0.01518552 -0.14431638
v -0.00861422 0.01682537 -0.13049257
v -0.00686364 0.01630552 -0.13049257
v -0.01450784 0.01786508 -0.13049257
v -0.02741786 0.01884147 -0.13049257
v -0.02741786 -0.01519885 -0.14431638
v -0.00686364 0.00909757 -0.14431638
v -0.00686364 0.01627886 -0.13240344
v -0.00877318 0.01632552 -0.13612164
v -0.01450784 0.01715195 -0.13656261
v -0.02741786 0.01820165 -0.13531320
v -0.02741786 0.00926086 -0.14431638
v -0.02059865 0.00928085 -0.14431638
v -0.02629709 0.01636217 -0.14011713
v -0.02040145 0.01627553 -0.14008372
v -0.01450784 0.01612891 -0.13994675
v -0.01084570 0.01598895 -0.13978640
v -0.00686364 0.01199008 -0.14168391
v -0.00686364 0.01605559 -0.13473526
v -0.00691595 0.01525915 -0.13785213
v -0.02040145 0.01751518 -0.13656261
v -0.02741786 0.01784508 -0.13657264
v -0.02741786 0.01631552 -0.14006702
v -0.02629709 0.00934084 -0.14431638
v -0.02741786 0.01670208 -0.13950911
v -0.00686364 0.01521250 -0.13788554
v -0.00686364 0.01523583 -0.13782874
f 837 838 843
f 837 843 850
f 837 850 860
f 837 860 851
f 837 851 844
f 837 844 839
f 837 839 840
f 837 840 841
f 837 841 842
f 837 842 838
f 838 842 843
f 839 844 845
f 839 845 846
f 839 846 840
f 840 846 847
f 840 847 848
f 840 848 849
f 840 849 841
f 841 849 842
f 842 849 857
f 842 857 856
f 842 856 855
f 842 855 865
f 842 865 871
f 842 871 882
f 842 882 885
f 842 885 883
f 842 883 872
f 842 872 866
f 842 866 858
f 842 858 850
f 842 850 843
f 844 851 861
f 844 861 867
f 844 867 878
f 844 878 886
f 844 886 887
f 844 887 879
f 844 879 868
f 844 868 863
f 844 863 852
f 844 852 845
f 845 852 853
f 845 853 846
f 846 853 847
f 847 854 855
f 847 855 856
f 847 856 848
f 847 853 854
f 848 856 857
f 848 857 849
f 850 858 859
f 850 859 860
f 851 860 861
f 852 862 853
f 852 863 862
f 853 862 864
f 853 864 854
f 854 864 855
f 855 864 865
f 858 866 859
f 859 866 872
f 859 872 884
f 859 884 873
f 859 873 867
f 859 867 861
f 859 861 860
f 862 863 868
f 862 868 869
f 862 869 864
f 864 869 870
f 864 870 865
f 865 870 871
f 867 873 874
f 867 874 875
f 867 875 876
f 867 876 877
f 867 877 878
f 868 879 869
f 869 879 880
f 869 880 877
f 869 877 870
f 870 881 871
f 870 877 881
f 871 881 882
f 872 883 874
f 872 874 884
f 873 884 874
f 874 883 885
f 874 885 875
f 875 885 882
f 875 882 876
f 876 882 881
f 876 881 877
f 877 880 886
f 877 886 878
f 879 887 880
f 880 887 886

o geometry_8
v 0.06107426 -0.01714073 0.16640770
v 0.06079119 -0.01714073 0.16719042
v 0.05454500 -0.02381334 0.16703899
v 0.05983024 -0.01884596 0.16526703
v 0.05983024 -0.01884596 0.16286572
v 0.06106123 -0.01714073 0.16170736
v 0.05604975 -0.01714073 0.17257909
v 0.05339782 -0.02321628 0.17013452
v 0.05031569 -0.02414343 0.16757786
v 0.05033991 -0.02491010 0.16096986
v 0.05486532 -0.02404532 0.16096986
v 0.05382615 -0.02352508 0.15752229
v 0.05671460 -0.01714073 0.15597846
v 0.05033432 -0.01714073 0.17372566
v 0.05226553 -0.02321628 0.17013452
v 0.04631732 -0.02392134 0.16591406
v 0.04833606 -0.02298658 0.16996146
v 0.04618695 -0.02401489 0.16096986
v 0.04685738 -0.02353268 0.15749279
v 0.05033991 -0.02371827 0.15729416
v 0.05033991 -0.01714073 0.15363420
v 0.05614286 -0.01714073 0.15524489
v 0.04520365 -0.01714073 0.17226443
v 0.04467290 -0.01714073 0.17178652
v 0.04253496 -0.01714073 0.16706063
v 0.04248841 -0.01714073 0.16676169
v 0.04378457 -0.02036713 0.16096986
v 0.04460585 -0.01714073 0.15518786
v 0.04205076 -0.01714073 0.16096986
f 888 889 890
f 888 890 891
f 888 891 892
f 888 892 893
f 888 893 900
f 888 900 909
f 888 909 908
f 888 908 915
f 888 915 916
f 888 916 913
f 888 913 912
f 888 912 911
f 888 911 910
f 888 910 901
f 888 901 894
f 888 894 889
f 889 894 895
f 889 895 890
f 890 895 896
f 890 896 897
f 890 897 898
f 890 898 891
f 891 898 892
f 892 898 893
f 893 898 899
f 893 899 900
f 894 901 895
f 895 901 902
f 895 902 896
f 896 903 897
f 896 902 904
f 896 904 903
f 897 905 906
f 897 906 907
f 897 907 899
f 897 899 898
f 897 903 905
f 899 907 908
f 899 908 909
f 899 909 900
f 901 910 904
f 901 904 902
f 903 904 911
f 903 911 912
f 903 912 913
f 903 913 914
f 903 914 905
f 904 910 911
f 905 914 906
f 906 915 908
f 906 908 907
f 906 914 916
f 906 916 915
f 913 916 914

o geometry_9
v -0.04987459 -0.00365798 0.18551594
v -0.05577249 -0.00365798 0.18550563
v -0.03272433 -0.00922808 0.18511727
v -0.04398336 -0.00365798 0.18551251
v -0.04987459 0.00190723 0.18534066
v -0.06166705 -0.00365798 0.18490763
v -0.05577249 -0.00922808 0.18490763
v -0.04987459 -0.00922808 0.18497981
v -0.04398336 -0.00922808 0.18504511
v -0.03808879 -0.00922808 0.18508291
v -0.05577249 0.00190723 0.18533036
v -0.03272433 -0.00365798 0.18549188
v -0.03808879 -0.00365798 0.18550220
v -0.03272433 -0.01299365 0.18347103
v -0.03272433 0.00140353 0.18533036
v -0.04398336 0.00190723 0.18533379
v -0.04987459 0.00662153 0.18369442
v -0.06550119 -0.00365798 0.18326825
v -0.06525114 -0.00922808 0.18296925
v -0.06166705 -0.00922808 0.18429588
v -0.06166705 0.00190723 0.18463268
v -0.06535116 0.00190723 0.18308610
v -0.06166705 -0.01253885 0.18294176
v -0.05577249 -0.01276380 0.18326482
v -0.04987459 -0.01283227 0.18333355
v -0.04398336 -0.01290073 0.18339199
v -0.03808879 -0.01294964 0.18343666
v -0.05577249 0.00659707 0.18368411
v -0.06166705 0.00598578 0.18329920
v -0.03272433 -0.01403529 0.17918186
v -0.05331864 -0.02342965 0.17032858
v -0.05093481 -0.02342965 0.17032858
v -0.04700732 -0.02312155 0.17005707
v -0.04576706 -0.02412897 0.16601193
v -0.03272433 0.00190723 0.18531316
v -0.03808879 0.00190723 0.18532348
v -0.04398336 0.00661174 0.18368756
v -0.04398336 0.01861754 0.17820924
v -0.06645472 0.00190723 0.17918186
v -0.06659475 -0.00365798 0.17918186
v -0.06610464 -0.00922808 0.17918186
v -0.06486105 -0.01223076 0.18250528
v -0.06501442 0.00516420 0.18269088
v -0.04987459 0.01861754 0.17817831
v -0.05420549 0.02169846 0.17643240
v -0.05813298 0.02116052 0.17575534
v -0.04558369 -0.02428546 0.16097010
v -0.03272433 -0.01406464 0.17863541
v -0.05461558 -0.02416320 0.16704297
v -0.04933447 -0.02454954 0.16763755
v -0.04987459 -0.02561074 0.16097010
v -0.03272433 0.00629387 0.18368756
v -0.03808879 0.00654817 0.18368756
v -0.04398336 0.02187451 0.17659737
v -0.04987459 0.02185495 0.17658362
v -0.06546785 0.00596133 0.17918186
v -0.06567789 0.00657751 0.17311242
v -0.06677479 0.00190723 0.17311242
v -0.06678479 -0.00365798 0.17311242
v -0.06634136 -0.00922808 0.17311242
v -0.06511111 -0.01246060 0.17918186
v -0.05921321 0.02191363 0.17170675
v -0.06024675 0.01902833 0.17348360
v -0.04987459 0.02331716 0.17311242
v -0.05600920 0.02247114 0.17348360
v -0.04629717 -0.02368395 0.15735111
v -0.03272433 -0.01437273 0.15040527
v -0.03272433 -0.01437762 0.16097010
v -0.03272433 -0.01430915 0.16649308
v -0.03272433 -0.01420646 0.17256253
v -0.05497565 -0.02447129 0.16097010
v -0.05380208 -0.02384044 0.15721364
v -0.04987459 -0.02407028 0.15695932
v -0.03272433 0.01476884 0.17741533
v -0.03378456 0.01685702 0.17681388
v -0.04026591 0.02172291 0.17645302
v -0.04398336 0.02335140 0.17311242
v -0.06121029 0.01861754 0.16704297
v -0.06561121 0.00657262 0.16097010
v -0.06664142 0.00190723 0.15040527
v -0.06670144 -0.00220555 0.15040527
v -0.06671477 -0.00365798 0.15040527
v -0.06652473 -0.00777565 0.15040527
v -0.06644806 -0.00922808 0.15040527
v -0.06644138 -0.00922808 0.15489722
v -0.06643138 -0.00922808 0.16097010
v -0.06639804 -0.00922808 0.16704297
v -0.06538116 -0.01279804 0.16097010
v -0.06533782 -0.01274913 0.16704297
v -0.06526781 -0.01263176 0.17311242
v -0.05577249 0.02362037 0.16704297
v -0.05944659 0.02216304 0.16704297
v -0.04987459 0.02432947 0.16704297
v -0.03272433 0.01326750 0.15040527
v -0.04987459 -0.01539970 0.15040527
v -0.06540784 -0.01279315 0.15040527
v -0.06021008 -0.01451455 0.15040527
v -0.06443763 -0.01325284 0.15040527
v -0.05358870 -0.01518942 0.15040527
v -0.03272433 0.01730204 0.17465212
v -0.03272433 0.01815785 0.17310898
v -0.03621506 0.02063725 0.17311242
v -0.03916235 0.02237822 0.17311242
v -0.04398336 0.02434903 0.16704297
v -0.06111027 0.01861754 0.16097010
v -0.06558121 0.00613738 0.15040527
v -0.06636470 0.00303201 0.15040527
v -0.06568123 -0.01186887 0.15040527
v -0.05577249 0.02343453 0.16097010
v -0.05937657 0.02208480 0.16097010
v -0.04987459 0.02411429 0.16097010
v -0.03819881 0.01837791 0.15040527
v -0.03272433 0.01801114 0.16097010
v -0.03272433 0.01883761 0.16661338
v -0.03555492 0.02106271 0.16704297
v -0.03850221 0.02287214 0.16704297
v -0.03875226 0.02274499 0.16097010
v -0.04398336 0.02410451 0.16097010
v -0.05911652 0.02180605 0.15739236
v -0.06077020 0.01334086 0.15040527
v -0.05577249 0.02232931 0.15677372
v -0.04987459 0.02264719 0.15644035
v -0.04398336 0.01920927 0.15040527
v -0.04398336 0.02263252 0.15644722
v -0.03964245 0.02221195 0.15693869
v -0.03580498 0.02073017 0.16097010
v -0.05592585 0.01837303 0.15040527
v -0.04987459 0.01935598 0.15040527
f 917 918 919
f 917 919 920
f 917 920 921
f 917 921 927
f 917 927 918
f 918 922 923
f 918 923 924
f 918 924 925
f 918 925 926
f 918 926 919
f 918 927 922
f 919 928 929
f 919 929 920
f 919 926 930
f 919 930 946
f 919 946 964
f 919 964 986
f 919 986 985
f 919 985 984
f 919 984 983
f 919 983 1010
f 919 1010 1029
f 919 1029 1030
f 919 1030 1017
f 919 1017 1016
f 919 1016 990
f 919 990 968
f 919 968 951
f 919 951 931
f 919 931 928
f 920 929 931
f 920 931 932
f 920 932 921
f 921 932 933
f 921 933 927
f 922 934 935
f 922 935 936
f 922 936 923
f 922 927 937
f 922 937 938
f 922 938 934
f 923 936 939
f 923 939 940
f 923 940 941
f 923 941 942
f 923 942 924
f 924 942 943
f 924 943 925
f 925 943 930
f 925 930 926
f 927 933 944
f 927 944 945
f 927 945 937
f 928 931 929
f 930 943 947
f 930 947 948
f 930 948 949
f 930 949 950
f 930 950 946
f 931 951 952
f 931 952 932
f 932 952 953
f 932 953 933
f 933 953 954
f 933 954 944
f 934 938 955
f 934 955 956
f 934 956 935
f 935 957 958
f 935 958 936
f 935 956 957
f 936 958 939
f 937 945 959
f 937 959 938
f 938 959 955
f 939 958 947
f 939 947 940
f 940 947 941
f 941 947 942
f 942 947 943
f 944 954 960
f 944 960 961
f 944 961 945
f 945 961 962
f 945 962 959
f 946 950 963
f 946 963 964
f 947 965 966
f 947 966 948
f 947 958 965
f 948 966 949
f 949 966 950
f 950 966 967
f 950 967 963
f 951 968 969
f 951 969 953
f 951 953 952
f 953 969 954
f 954 970 971
f 954 971 960
f 954 969 968
f 954 968 970
f 955 959 972
f 955 972 973
f 955 973 974
f 955 974 956
f 956 974 975
f 956 975 976
f 956 976 957
f 957 976 977
f 957 977 958
f 958 977 965
f 959 962 978
f 959 978 979
f 959 979 972
f 960 971 961
f 961 971 980
f 961 980 981
f 961 981 962
f 962 981 978
f 963 967 982
f 963 982 983
f 963 983 984
f 963 984 985
f 963 985 986
f 963 986 964
f 965 987 967
f 965 967 966
f 965 977 987
f 967 987 988
f 967 988 989
f 967 989 982
f 968 990 991
f 968 991 992
f 968 992 970
f 970 992 993
f 970 993 971
f 971 993 980
f 972 979 978
f 972 978 994
f 972 994 973
f 973 994 995
f 973 995 974
f 974 995 996
f 974 996 997
f 974 997 998
f 974 998 975
f 975 998 999
f 975 999 1000
f 975 1000 1001
f 975 1001 1002
f 975 1002 1003
f 975 1003 976
f 976 1003 1004
f 976 1004 1005
f 976 1005 1006
f 976 1006 977
f 977 1006 987
f 978 981 1007
f 978 1007 1008
f 978 1008 994
f 980 993 1009
f 980 1009 1007
f 980 1007 981
f 982 989 983
f 983 989 1011
f 983 1011 1015
f 983 1015 1013
f 983 1013 1014
f 983 1014 1012
f 983 1012 1024
f 983 1024 1000
f 983 1000 999
f 983 999 998
f 983 998 997
f 983 997 996
f 983 996 1023
f 983 1023 1022
f 983 1022 1036
f 983 1036 1043
f 983 1043 1044
f 983 1044 1039
f 983 1039 1028
f 983 1028 1010
f 987 1006 1005
f 987 1005 1004
f 987 1004 1012
f 987 1012 988
f 988 1013 989
f 988 1012 1014
f 988 1014 1013
f 989 1013 1015
f 989 1015 1011
f 990 1016 991
f 991 1016 992
f 992 1016 1017
f 992 1017 1018
f 992 1018 1019
f 992 1019 993
f 993 1019 1020
f 993 1020 1009
f 994 1008 1021
f 994 1021 995
f 995 1022 1023
f 995 1023 996
f 995 1021 1022
f 1000 1024 1001
f 1001 1024 1002
f 1002 1024 1004
f 1002 1004 1003
f 1004 1024 1012
f 1007 1009 1025
f 1007 1025 1026
f 1007 1026 1008
f 1008 1026 1021
f 1009 1027 1025
f 1009 1020 1027
f 1010 1028 1029
f 1017 1030 1031
f 1017 1031 1018
f 1018 1031 1032
f 1018 1032 1019
f 1019 1032 1020
f 1020 1032 1033
f 1020 1033 1034
f 1020 1034 1027
f 1021 1026 1035
f 1021 1035 1022
f 1022 1035 1036
f 1025 1027 1037
f 1025 1037 1035
f 1025 1035 1026
f 1027 1034 1038
f 1027 1038 1037
f 1028 1039 1040
f 1028 1040 1041
f 1028 1041 1042
f 1028 1042 1029
f 1029 1042 1030
f 1030 1042 1031
f 1031 1042 1033
f 1031 1033 1032
f 1033 1042 1041
f 1033 1041 1034
f 1034 1041 1040
f 1034 1040 1038
f 1035 1037 1043
f 1035 1043 1036
f 1037 1038 1044
f 1037 1044 1043
f 1038 1040 1044
f 1039 1044 1040

o geometry_10
v -0.05318603 -0.01575663 -0.03120403
v -0.04987512 -0.01575663 -0.03118331
v -0.05569087 -0.01575663 -0.02996056
v -0.05576748 -0.01519843 -0.06131682
v -0.04394946 -0.01575663 -0.03031288
v -0.03809374 -0.01515519 -0.06131682
v -0.05747623 -0.01575663 -0.02900723
v -0.05935152 -0.01493898 -0.06131682
v -0.05904175 -0.01575663 -0.02370174
v -0.04025882 -0.01575663 -0.02722492
v -0.03272433 -0.01513946 -0.06131682
v -0.06166317 -0.01476208 -0.06131682
v -0.05915833 -0.01575663 -0.01765017
v -0.03826361 -0.01575663 -0.02477942
v -0.03272433 0.01416246 -0.06131682
v -0.03272433 -0.01523381 -0.02115262
v -0.03495270 -0.01575663 -0.01495598
v -0.03551229 -0.01575663 -0.02098683
v -0.06404476 -0.01379112 -0.06131682
v -0.06166317 -0.01477781 -0.02117335
v -0.05916166 -0.01575663 0.01884577
v -0.03662148 0.01813673 -0.06131682
v -0.03578543 0.02057397 -0.04546253
v -0.03272433 0.01614763 -0.04546253
v -0.03272433 -0.01524167 -0.01508033
v -0.03272433 -0.01522988 -0.00950542
v -0.03498601 -0.01575663 -0.01155715
v -0.06557697 -0.01316215 -0.06131682
v -0.06166317 -0.01475815 0.01523970
v -0.05913169 -0.01575663 0.02131200
v -0.06443780 -0.01324864 0.15040527
v -0.06549370 -0.01291450 0.12452029
v -0.06551035 -0.01296167 0.10632414
v -0.03754414 0.01880107 -0.06131682
v -0.03872994 0.02273997 -0.04546253
v -0.03550896 0.02090811 0.01523970
v -0.03272766 0.01654859 0.07594193
v -0.03272433 0.01623804 0.01523970
v -0.03272433 -0.01510408 0.02131200
v -0.03856006 -0.01575663 0.02131200
v -0.03272766 -0.01466381 0.10632414
v -0.03272766 -0.01447512 0.13612605
v -0.03272766 -0.01443581 0.14219835
v -0.03272766 -0.01443188 0.14273718
v -0.06663619 -0.00922326 -0.06131682
v -0.06556364 -0.01314643 -0.03331794
v -0.06654626 -0.00922326 0.11844800
v -0.06654959 -0.00922326 0.11237571
v -0.06552035 -0.01298133 0.09417955
v -0.05770939 -0.01575663 0.02750864
v -0.04987512 -0.01539891 0.15040527
v -0.05358907 -0.01519057 0.15040527
v -0.06020756 -0.01451443 0.15040527
v -0.06540709 -0.01278870 0.15040527
v -0.06548037 -0.01289484 0.13059260
v -0.06651961 -0.00922326 0.13059260
v -0.06653627 -0.00922326 0.12452029
v -0.06550702 -0.01294201 0.11237571
v -0.03935948 0.01954797 -0.06131682
v -0.03951936 0.02228790 -0.04985614
v -0.04398610 0.02413549 -0.04546253
v -0.04398610 0.02434776 -0.00902876
v -0.03863668 0.02286969 -0.00902876
v -0.03845681 0.02286183 0.01523970
v -0.03877324 0.02291294 0.13666490
v -0.03571215 0.02068797 0.11237571
v -0.03272766 0.01645818 0.11237571
v -0.03272433 0.01614763 0.05409825
v -0.03272433 -0.01488001 0.06325850
v -0.03917961 -0.01575663 0.02566415
v -0.03272766 -0.01437291 0.15040527
v -0.03272433 -0.01486429 0.06599415
v -0.06668283 -0.00703760 -0.06131682
v -0.06671281 -0.00365692 0.15040527
v -0.05580412 -0.01575663 0.03059660
v -0.04987512 -0.01575663 0.03268978
v -0.04585473 -0.01575663 0.03215094
v -0.04099162 -0.01575663 0.03047225
v -0.06567689 -0.01186884 0.15040527
v -0.06644633 -0.00922326 0.15040527
v -0.06652295 -0.00777664 0.15040527
v -0.04398610 0.02095135 -0.06131682
v -0.04987512 0.02419838 -0.04546253
v -0.04981184 0.02102604 -0.06131682
v -0.04987512 0.02436348 -0.00902876
v -0.04987512 0.02439100 0.01523970
v -0.04398610 0.02440280 0.13666490
v -0.03894978 0.02273997 0.14273718
v -0.03582873 0.02048749 0.13666490
v -0.03272766 0.01621445 0.13666490
v -0.03272433 0.01612797 0.06019127
v -0.03272766 0.01326618 0.15040527
v -0.03272433 0.01604149 0.06599415
v -0.06674944 -0.00365299 -0.06131682
v -0.06669948 -0.00220637 0.15040527
v -0.04987512 0.02102604 -0.06131682
v -0.05576748 0.02334142 -0.04546253
v -0.05576748 0.02362052 -0.00902876
v -0.05576748 0.02380135 0.13666490
v -0.04987512 0.02437135 0.13666490
v -0.04987512 0.02406080 0.14273718
v -0.04398610 0.02408438 0.14273718
v -0.03599861 0.02027128 0.14273718
v -0.03974919 0.02218176 0.14673702
v -0.03272766 0.01588818 0.14273718
v -0.03272766 0.01614370 0.13904820
v -0.03820033 0.01837652 0.15040527
v -0.03272766 0.01411135 0.14827063
v -0.03272766 0.01464990 0.14661267
v -0.06663953 0.00191729 -0.06131682
v -0.06663953 0.00191729 0.15040527
v -0.05576748 0.01960694 -0.06131682
v -0.05576748 0.02234294 -0.04998049
v -0.05901177 0.02173362 -0.04908933
v -0.05918498 0.02193411 -0.04546253
v -0.05934819 0.02212673 -0.00902876
v -0.05960801 0.02231935 0.13666490
v -0.05947476 0.02216997 0.14273718
v -0.05576748 0.02349866 0.14273718
v -0.05576748 0.02229969 0.14690281
v -0.04987512 0.02258273 0.14719296
v -0.04398610 0.02258273 0.14719296
v -0.04398610 0.01920597 0.15040527
v -0.06553700 0.00632398 0.01523970
v -0.06552701 0.00635936 0.00916741
v -0.06553034 0.00613136 -0.05153483
v -0.06555698 0.00595839 -0.06131682
v -0.06636306 0.00303763 0.15040527
v -0.06555698 0.00626894 0.13059260
v -0.05925160 0.01732301 -0.06131682
v -0.06058062 0.01861631 -0.04546253
v -0.06085709 0.01861631 -0.00902876
v -0.06127678 0.01861238 0.13666490
v -0.06112689 0.01861238 0.14273718
v -0.05913169 0.02181618 0.14632253
v -0.05592403 0.01837259 0.15040527
v -0.04987512 0.01935535 0.15040527
v -0.04427255 0.01921383 0.15040527
v -0.06554699 0.00630039 0.14273718
v -0.06554033 0.00632005 0.13666490
v -0.06558030 0.00613529 0.15040527
v -0.06076716 0.01334087 0.15040527
f 1045 1046 1049
f 1045 1049 1054
f 1045 1054 1058
f 1045 1058 1062
f 1045 1062 1061
f 1045 1061 1071
f 1045 1071 1084
f 1045 1084 1114
f 1045 1114 1122
f 1045 1122 1121
f 1045 1121 1120
f 1045 1120 1119
f 1045 1119 1094
f 1045 1094 1074
f 1045 1074 1065
f 1045 1065 1057
f 1045 1057 1053
f 1045 1053 1051
f 1045 1051 1047
f 1045 1047 1048
f 1045 1048 1046
f 1046 1048 1050
f 1046 1050 1049
f 1047 1051 1048
f 1048 1052 1056
f 1048 1056 1063
f 1048 1063 1072
f 1048 1072 1089
f 1048 1089 1117
f 1048 1117 1138
f 1048 1138 1154
f 1048 1154 1171
f 1048 1171 1174
f 1048 1174 1156
f 1048 1156 1140
f 1048 1140 1128
f 1048 1128 1126
f 1048 1126 1103
f 1048 1103 1078
f 1048 1078 1066
f 1048 1066 1059
f 1048 1059 1055
f 1048 1055 1050
f 1048 1051 1053
f 1048 1053 1052
f 1049 1050 1055
f 1049 1055 1054
f 1052 1053 1056
f 1053 1057 1056
f 1054 1055 1058
f 1055 1059 1068
f 1055 1068 1082
f 1055 1082 1112
f 1055 1112 1135
f 1055 1135 1137
f 1055 1137 1116
f 1055 1116 1113
f 1055 1113 1083
f 1055 1083 1070
f 1055 1070 1069
f 1055 1069 1060
f 1055 1060 1061
f 1055 1061 1062
f 1055 1062 1058
f 1056 1057 1064
f 1056 1064 1063
f 1057 1065 1064
f 1059 1066 1067
f 1059 1067 1068
f 1060 1069 1061
f 1061 1069 1070
f 1061 1070 1071
f 1063 1064 1072
f 1064 1065 1073
f 1064 1073 1072
f 1065 1074 1075
f 1065 1075 1076
f 1065 1076 1077
f 1065 1077 1073
f 1066 1078 1079
f 1066 1079 1067
f 1067 1079 1080
f 1067 1080 1068
f 1068 1080 1081
f 1068 1081 1082
f 1070 1083 1071
f 1071 1083 1085
f 1071 1085 1086
f 1071 1086 1087
f 1071 1087 1088
f 1071 1088 1084
f 1072 1073 1090
f 1072 1090 1091
f 1072 1091 1092
f 1072 1092 1089
f 1073 1077 1093
f 1073 1093 1090
f 1074 1094 1095
f 1074 1095 1096
f 1074 1096 1097
f 1074 1097 1075
f 1075 1097 1096
f 1075 1096 1095
f 1075 1095 1115
f 1075 1115 1136
f 1075 1136 1151
f 1075 1151 1167
f 1075 1167 1182
f 1075 1182 1181
f 1075 1181 1180
f 1075 1180 1186
f 1075 1186 1185
f 1075 1185 1172
f 1075 1172 1155
f 1075 1155 1139
f 1075 1139 1118
f 1075 1118 1125
f 1075 1125 1124
f 1075 1124 1123
f 1075 1123 1098
f 1075 1098 1099
f 1075 1099 1076
f 1076 1099 1100
f 1076 1100 1101
f 1076 1101 1102
f 1076 1102 1077
f 1077 1102 1091
f 1077 1091 1093
f 1078 1103 1104
f 1078 1104 1079
f 1079 1104 1105
f 1079 1105 1106
f 1079 1106 1107
f 1079 1107 1080
f 1080 1107 1108
f 1080 1108 1109
f 1080 1109 1110
f 1080 1110 1111
f 1080 1111 1081
f 1081 1111 1112
f 1081 1112 1082
f 1083 1113 1085
f 1084 1088 1115
f 1084 1115 1095
f 1084 1095 1114
f 1085 1113 1116
f 1085 1116 1086
f 1086 1116 1087
f 1087 1116 1088
f 1088 1116 1115
f 1089 1092 1118
f 1089 1118 1117
f 1090 1093 1091
f 1091 1101 1118
f 1091 1118 1092
f 1091 1102 1101
f 1094 1119 1095
f 1095 1119 1120
f 1095 1120 1121
f 1095 1121 1122
f 1095 1122 1114
f 1098 1123 1099
f 1099 1123 1124
f 1099 1124 1100
f 1100 1124 1125
f 1100 1125 1118
f 1100 1118 1101
f 1103 1126 1104
f 1104 1126 1105
f 1105 1127 1106
f 1105 1126 1128
f 1105 1128 1127
f 1106 1108 1107
f 1106 1127 1129
f 1106 1129 1130
f 1106 1130 1131
f 1106 1131 1108
f 1108 1131 1109
f 1109 1131 1132
f 1109 1132 1133
f 1109 1133 1110
f 1110 1133 1134
f 1110 1134 1111
f 1111 1134 1135
f 1111 1135 1112
f 1115 1116 1137
f 1115 1137 1136
f 1117 1118 1138
f 1118 1139 1138
f 1127 1128 1140
f 1127 1140 1141
f 1127 1141 1142
f 1127 1142 1129
f 1129 1142 1143
f 1129 1143 1130
f 1130 1143 1144
f 1130 1144 1131
f 1131 1144 1145
f 1131 1145 1146
f 1131 1146 1132
f 1132 1147 1133
f 1132 1146 1148
f 1132 1148 1147
f 1133 1147 1149
f 1133 1149 1150
f 1133 1150 1134
f 1134 1150 1137
f 1134 1137 1135
f 1136 1137 1152
f 1136 1152 1147
f 1136 1147 1148
f 1136 1148 1151
f 1137 1150 1149
f 1137 1149 1153
f 1137 1153 1152
f 1138 1139 1155
f 1138 1155 1154
f 1140 1156 1157
f 1140 1157 1141
f 1141 1157 1158
f 1141 1158 1159
f 1141 1159 1142
f 1142 1159 1160
f 1142 1160 1161
f 1142 1161 1143
f 1143 1161 1162
f 1143 1162 1163
f 1143 1163 1144
f 1144 1163 1145
f 1145 1164 1165
f 1145 1165 1146
f 1145 1163 1164
f 1146 1165 1166
f 1146 1166 1148
f 1147 1152 1153
f 1147 1153 1149
f 1148 1166 1151
f 1151 1166 1167
f 1154 1168 1169
f 1154 1169 1170
f 1154 1170 1171
f 1154 1155 1172
f 1154 1172 1173
f 1154 1173 1168
f 1156 1174 1158
f 1156 1158 1157
f 1158 1174 1171
f 1158 1171 1159
f 1159 1171 1175
f 1159 1175 1176
f 1159 1176 1160
f 1160 1176 1177
f 1160 1177 1161
f 1161 1177 1178
f 1161 1178 1162
f 1162 1178 1179
f 1162 1179 1163
f 1163 1179 1164
f 1164 1179 1180
f 1164 1180 1181
f 1164 1181 1165
f 1165 1181 1166
f 1166 1181 1182
f 1166 1182 1167
f 1168 1173 1169
f 1169 1173 1183
f 1169 1183 1184
f 1169 1184 1177
f 1169 1177 1170
f 1170 1177 1176
f 1170 1176 1171
f 1171 1176 1175
f 1172 1185 1183
f 1172 1183 1173
f 1177 1184 1183
f 1177 1183 1185
f 1177 1185 1178
f 1178 1185 1179
f 1179 1185 1186
f 1179 1186 1180

o geometry_11
v -0.03855659 -0.01575663 0.02130962
v -0.03917603 -0.01575663 0.02565122
v -0.04511416 -0.02456108 0.02130962
v -0.03888144 -0.01575663 0.01523783
v -0.04574571 -0.02405038 0.02539061
v -0.04098793 -0.01575663 0.03045223
v -0.04987596 -0.02584722 0.02130962
v -0.04569526 -0.02413138 0.01638502
v -0.04096574 -0.01575663 0.00921171
v -0.04585264 -0.01575663 0.03214750
v -0.04987596 -0.02443365 0.02584734
v -0.05366119 -0.02396147 0.02530196
v -0.05411921 -0.02443760 0.02130962
v -0.05371365 -0.02405532 0.01632860
v -0.04987596 -0.02456503 0.01539634
v -0.04987596 -0.02291932 0.01236044
v -0.04398827 -0.01575663 0.00646059
v -0.04987596 -0.01575663 0.03268214
v -0.05913525 -0.01575663 0.02130962
v -0.05580602 -0.01575663 0.03059194
v -0.05771074 -0.01575663 0.02750231
v -0.05916753 -0.01575663 0.01884329
v -0.05904445 -0.01575663 0.01278224
v -0.05743634 -0.01575663 0.00745465
v -0.05572532 -0.01575663 0.00650089
v -0.05313053 -0.01575663 0.00523549
v -0.04987596 -0.01575663 0.00525429
f 1187 1188 1189
f 1187 1189 1190
f 1187 1190 1195
f 1187 1195 1203
f 1187 1203 1213
f 1187 1213 1212
f 1187 1212 1211
f 1187 1211 1210
f 1187 1210 1209
f 1187 1209 1208
f 1187 1208 1205
f 1187 1205 1207
f 1187 1207 1206
f 1187 1206 1204
f 1187 1204 1196
f 1187 1196 1192
f 1187 1192 1188
f 1188 1191 1189
f 1188 1192 1191
f 1189 1193 1194
f 1189 1194 1190
f 1189 1191 1193
f 1190 1194 1195
f 1191 1192 1196
f 1191 1196 1197
f 1191 1197 1193
f 1193 1197 1198
f 1193 1198 1199
f 1193 1199 1200
f 1193 1200 1201
f 1193 1201 1194
f 1194 1201 1202
f 1194 1202 1203
f 1194 1203 1195
f 1196 1204 1197
f 1197 1204 1198
f 1198 1205 1199
f 1198 1204 1206
f 1198 1206 1207
f 1198 1207 1205
f 1199 1205 1208
f 1199 1208 1209
f 1199 1209 1200
f 1200 1209 1210
f 1200 1210 1202
f 1200 1202 1201
f 1202 1210 1211
f 1202 1211 1212
f 1202 1212 1213
f 1202 1213 1203

o geometry_12
v -0.02040145 -0.01534170 -0.17299784
v -0.02629709 -0.01533834 -0.17299784
v -0.02741786 -0.01518410 -0.17906623
v -0.01450784 -0.01518410 -0.17906623
v -0.00686364 -0.01518074 -0.17906623
v -0.00861422 -0.01533499 -0.17299784
v -0.02629709 -0.01520086 -0.14431640
v -0.02741786 -0.01520086 -0.14431640
v -0.02741786 -0.01533499 -0.17299784
v -0.02741786 -0.01530816 -0.17415296
v -0.02741786 -0.01486555 -0.17992455
v -0.02629709 -0.01350752 -0.18358642
v -0.02040145 -0.01351087 -0.18359044
v -0.00861422 -0.01351087 -0.18360247
v -0.00686364 -0.01351087 -0.18360247
v -0.00686364 -0.01400714 -0.18225485
v -0.00686364 -0.01533164 -0.17299784
v -0.00686364 -0.01518410 -0.14431640
v -0.01024407 -0.01518745 -0.14431640
v -0.02203131 -0.01519751 -0.14431640
v -0.02741786 0.00926044 -0.14431640
v -0.02741786 -0.01350752 -0.18358243
v -0.02741786 -0.00922553 -0.18518675
v -0.01450784 -0.00922553 -0.18520280
v -0.00686364 -0.00922553 -0.18521081
v -0.00686364 0.00909614 -0.14431640
v -0.02629709 0.00934092 -0.14431640
v -0.02629709 0.01649321 -0.15109870
v -0.02741786 0.01644291 -0.15116288
v -0.02741786 -0.00816593 -0.18520682
v -0.02741786 -0.00365593 -0.18528302
v -0.00686364 -0.00530904 -0.18526697
v -0.02059865 0.00928056 -0.14431640
v -0.00686364 0.01534643 -0.15478466
v -0.01071894 0.01605395 -0.15147573
v -0.01450784 0.01627861 -0.15121903
v -0.02040145 0.01653680 -0.15099843
v -0.02741786 0.01804908 -0.15485285
v -0.00861422 -0.00365593 -0.18528703
v -0.02741786 0.00191031 -0.18499023
v -0.00686364 0.00191031 -0.18500627
v -0.00686364 -0.00365593 -0.18528703
v -0.00686364 0.01588629 -0.16085706
v -0.00965450 0.01637920 -0.15478466
v -0.01450784 0.01715713 -0.15478466
v -0.02040145 0.01769699 -0.15478466
v -0.02741786 0.01890413 -0.16085706
v -0.02741786 0.00607829 -0.18341396
v -0.00686364 0.00480074 -0.18389526
v -0.02629709 0.00608835 -0.18340996
v -0.00686364 0.01587623 -0.16240925
v -0.00911927 0.01658375 -0.16692544
v -0.00903677 0.01659380 -0.16085706
v -0.01450784 0.01759975 -0.16085706
v -0.02741786 0.01891419 -0.16692544
v -0.02741786 0.01603047 -0.17619848
v -0.00861422 0.00602129 -0.18342199
v -0.00686364 0.00599111 -0.18342599
v -0.02040145 0.00608835 -0.18340193
v -0.01450784 0.00607159 -0.18340594
v -0.00686364 0.01582593 -0.16692544
v -0.01450784 0.01757293 -0.16692544
v -0.00686364 0.01572869 -0.16779579
v -0.00997242 0.01632220 -0.17171036
v -0.02741786 0.01793507 -0.17173443
v -0.01488813 0.01652674 -0.17343903
v -0.02741786 0.01651668 -0.17555675
v -0.02040145 0.01593659 -0.17613431
v -0.01710755 0.01585276 -0.17605409
v -0.01317780 0.01568175 -0.17575729
v -0.00686364 0.01128910 -0.17782287
v -0.00686364 0.01543026 -0.16909530
v -0.00825001 0.01510165 -0.17343903
v -0.02741786 0.01763999 -0.17292966
v -0.00686364 0.01373021 -0.17461420
v -0.00686364 0.01184238 -0.17713301
v -0.00686364 0.01434719 -0.17328662
f 1214 1215 1216
f 1214 1216 1217
f 1214 1217 1218
f 1214 1218 1219
f 1214 1219 1220
f 1214 1220 1221
f 1214 1221 1215
f 1215 1222 1223
f 1215 1223 1216
f 1215 1221 1222
f 1216 1224 1225
f 1216 1225 1226
f 1216 1226 1227
f 1216 1227 1228
f 1216 1228 1217
f 1216 1223 1222
f 1216 1222 1221
f 1216 1221 1234
f 1216 1234 1242
f 1216 1242 1251
f 1216 1251 1260
f 1216 1260 1268
f 1216 1268 1278
f 1216 1278 1287
f 1216 1287 1280
f 1216 1280 1269
f 1216 1269 1261
f 1216 1261 1253
f 1216 1253 1244
f 1216 1244 1243
f 1216 1243 1236
f 1216 1236 1235
f 1216 1235 1224
f 1217 1228 1229
f 1217 1229 1218
f 1218 1230 1219
f 1218 1229 1228
f 1218 1228 1238
f 1218 1238 1245
f 1218 1245 1255
f 1218 1255 1254
f 1218 1254 1262
f 1218 1262 1271
f 1218 1271 1284
f 1218 1284 1289
f 1218 1289 1288
f 1218 1288 1290
f 1218 1290 1285
f 1218 1285 1276
f 1218 1276 1274
f 1218 1274 1264
f 1218 1264 1256
f 1218 1256 1247
f 1218 1247 1239
f 1218 1239 1231
f 1218 1231 1230
f 1219 1230 1231
f 1219 1231 1232
f 1219 1232 1233
f 1219 1233 1220
f 1220 1233 1232
f 1220 1232 1231
f 1220 1231 1239
f 1220 1239 1246
f 1220 1246 1240
f 1220 1240 1234
f 1220 1234 1221
f 1224 1235 1225
f 1225 1227 1226
f 1225 1235 1236
f 1225 1236 1237
f 1225 1237 1238
f 1225 1238 1227
f 1227 1238 1228
f 1234 1240 1241
f 1234 1241 1242
f 1236 1243 1237
f 1237 1243 1244
f 1237 1244 1238
f 1238 1244 1245
f 1239 1247 1248
f 1239 1248 1249
f 1239 1249 1250
f 1239 1250 1246
f 1240 1250 1241
f 1240 1246 1250
f 1241 1250 1251
f 1241 1251 1242
f 1244 1252 1245
f 1244 1253 1254
f 1244 1254 1252
f 1245 1252 1255
f 1247 1256 1257
f 1247 1257 1248
f 1248 1257 1258
f 1248 1258 1259
f 1248 1259 1249
f 1249 1259 1250
f 1250 1259 1251
f 1251 1259 1260
f 1252 1254 1255
f 1253 1261 1254
f 1254 1261 1263
f 1254 1263 1262
f 1256 1264 1265
f 1256 1265 1266
f 1256 1266 1257
f 1257 1266 1267
f 1257 1267 1258
f 1258 1267 1260
f 1258 1260 1259
f 1260 1267 1268
f 1261 1269 1263
f 1262 1263 1270
f 1262 1270 1271
f 1263 1272 1273
f 1263 1273 1270
f 1263 1269 1272
f 1264 1274 1265
f 1265 1275 1267
f 1265 1267 1266
f 1265 1274 1276
f 1265 1276 1277
f 1265 1277 1275
f 1267 1275 1268
f 1268 1275 1277
f 1268 1277 1279
f 1268 1279 1278
f 1269 1280 1281
f 1269 1281 1271
f 1269 1271 1270
f 1269 1270 1273
f 1269 1273 1272
f 1271 1281 1282
f 1271 1282 1283
f 1271 1283 1284
f 1276 1285 1286
f 1276 1286 1277
f 1277 1286 1283
f 1277 1283 1279
f 1278 1279 1287
f 1279 1283 1287
f 1280 1282 1281
f 1280 1287 1282
f 1282 1287 1283
f 1283 1286 1288
f 1283 1288 1289
f 1283 1289 1284
f 1285 1290 1286
f 1286 1290 1288

o geometry_13
v 0.05767342 -0.01713997 0.02130812
v 0.05583928 -0.01713997 0.02693022
v 0.05358747 -0.02337022 0.02455407
v 0.05419530 -0.02386078 0.02130812
v 0.05756145 -0.01713997 0.01622371
v 0.05033683 -0.01713997 0.02846820
v 0.05033683 -0.02347648 0.02465489
v 0.05033683 -0.02457478 0.02130812
v 0.05408866 -0.02377853 0.01523925
v 0.05752413 -0.01713997 0.01523925
v 0.04949085 -0.01713997 0.02829621
v 0.04695646 -0.02336585 0.02454814
v 0.04614247 -0.02386515 0.02130812
v 0.04625799 -0.02379746 0.01523925
v 0.05033683 -0.02442485 0.01523925
v 0.05344529 -0.02326032 0.01209213
v 0.05607921 -0.01713997 0.01058974
v 0.04414304 -0.01713997 0.02710418
v 0.04156777 -0.01754610 0.02411917
v 0.04042676 -0.01713997 0.02312878
v 0.03960566 -0.01713997 0.02120334
v 0.04257726 -0.01713997 0.02554249
v 0.03951857 -0.01713997 0.01485376
v 0.04711108 -0.02327560 0.01207434
v 0.05033683 -0.02332655 0.01202294
v 0.05033683 -0.01713997 0.00827487
v 0.05100331 -0.01713997 0.00842116
v 0.05570776 -0.01713997 0.00973575
v 0.04099015 -0.01713997 0.01185887
v 0.04420346 -0.01713997 0.00949853
f 1291 1292 1293
f 1291 1293 1294
f 1291 1294 1295
f 1291 1295 1300
f 1291 1300 1307
f 1291 1307 1318
f 1291 1318 1317
f 1291 1317 1316
f 1291 1316 1320
f 1291 1320 1319
f 1291 1319 1313
f 1291 1313 1311
f 1291 1311 1310
f 1291 1310 1312
f 1291 1312 1308
f 1291 1308 1301
f 1291 1301 1296
f 1291 1296 1292
f 1292 1296 1293
f 1293 1296 1297
f 1293 1297 1298
f 1293 1298 1294
f 1294 1298 1299
f 1294 1299 1295
f 1295 1299 1300
f 1296 1301 1302
f 1296 1302 1297
f 1297 1302 1298
f 1298 1302 1303
f 1298 1303 1304
f 1298 1304 1305
f 1298 1305 1299
f 1299 1305 1306
f 1299 1306 1300
f 1300 1306 1307
f 1301 1308 1302
f 1302 1309 1310
f 1302 1310 1311
f 1302 1311 1303
f 1302 1308 1312
f 1302 1312 1309
f 1303 1311 1313
f 1303 1313 1304
f 1304 1313 1314
f 1304 1314 1305
f 1305 1314 1315
f 1305 1315 1306
f 1306 1315 1316
f 1306 1316 1317
f 1306 1317 1318
f 1306 1318 1307
f 1309 1312 1310
f 1313 1319 1314
f 1314 1319 1320
f 1314 1320 1316
f 1314 1316 1315

o geometry_14
v -0.03494870 -0.01575755 -0.01496995
v -0.03498425 -0.01575755 -0.01156401
v -0.04520308 -0.02429316 -0.01512394
v -0.04548515 -0.02414159 -0.02119406
v -0.03551048 -0.01575755 -0.02099899
v -0.04605642 -0.02366852 -0.01162304
v -0.04040300 -0.01575755 -0.00559400
v -0.04987752 -0.02514103 -0.01512394
v -0.04987752 -0.02496098 -0.02119406
v -0.04643095 -0.02346642 -0.02448193
v -0.03570485 -0.01575755 -0.02127106
v -0.04987752 -0.02374568 -0.01154348
v -0.04675569 -0.01575755 -0.00510633
v -0.05311786 -0.02342692 -0.01182837
v -0.05366543 -0.02399737 -0.01512394
v -0.05362276 -0.02396982 -0.02119406
v -0.05306097 -0.02339018 -0.02441776
v -0.04987752 -0.02356655 -0.02455893
v -0.03826253 -0.01575755 -0.02480276
v -0.04987752 -0.01575755 -0.03120140
v -0.04394676 -0.01575755 -0.03032104
v -0.04025367 -0.01575755 -0.02723337
v -0.04987752 -0.01575755 -0.00499597
v -0.05576798 -0.01575755 -0.00634859
v -0.05752444 -0.01575755 -0.00905896
v -0.05914818 -0.01575755 -0.01512394
v -0.05916003 -0.01575755 -0.01767519
v -0.05904388 -0.01575755 -0.02371963
v -0.05747941 -0.01575755 -0.02902232
v -0.05569449 -0.01575755 -0.02996941
v -0.05318898 -0.01575755 -0.03121680
f 1321 1322 1323
f 1321 1323 1324
f 1321 1324 1325
f 1321 1325 1331
f 1321 1331 1339
f 1321 1339 1342
f 1321 1342 1341
f 1321 1341 1340
f 1321 1340 1351
f 1321 1351 1350
f 1321 1350 1349
f 1321 1349 1348
f 1321 1348 1347
f 1321 1347 1346
f 1321 1346 1345
f 1321 1345 1344
f 1321 1344 1343
f 1321 1343 1333
f 1321 1333 1327
f 1321 1327 1322
f 1322 1326 1323
f 1322 1327 1326
f 1323 1326 1328
f 1323 1328 1329
f 1323 1329 1324
f 1324 1329 1330
f 1324 1330 1325
f 1325 1330 1331
f 1326 1332 1328
f 1326 1327 1333
f 1326 1333 1332
f 1328 1332 1334
f 1328 1334 1335
f 1328 1335 1336
f 1328 1336 1329
f 1329 1336 1337
f 1329 1337 1338
f 1329 1338 1330
f 1330 1339 1331
f 1330 1338 1340
f 1330 1340 1341
f 1330 1341 1342
f 1330 1342 1339
f 1332 1333 1343
f 1332 1343 1334
f 1334 1343 1344
f 1334 1344 1345
f 1334 1345 1335
f 1335 1345 1346
f 1335 1346 1347
f 1335 1347 1336
f 1336 1348 1349
f 1336 1349 1337
f 1336 1347 1348
f 1337 1349 1350
f 1337 1350 1351
f 1337 1351 1338
f 1338 1351 1340

o geometry_15
v 0.05781200 -0.01714070 -0.01512440
v 0.05590836 -0.01714070 -0.00946130
v 0.05364109 -0.02339725 -0.01183222
v 0.05422472 -0.02386603 -0.01512440
v 0.05418109 -0.02385802 -0.02015303
v 0.05753200 -0.01714070 -0.02023160
v 0.05033746 -0.01714070 -0.00793503
v 0.05033746 -0.02457649 -0.01512440
v 0.05033746 -0.02352026 -0.01170257
v 0.05077746 -0.02404947 -0.02178341
v 0.05303745 -0.02311044 -0.02420147
v 0.05588654 -0.01714070 -0.02603025
v 0.05742654 -0.01714070 -0.02127662
v 0.04450291 -0.01714070 -0.00884254
v 0.04687200 -0.02339725 -0.01183025
v 0.04609928 -0.02386093 -0.01512440
v 0.04634473 -0.02374374 -0.02119412
v 0.04719928 -0.02324001 -0.02431147
v 0.04910655 -0.02324001 -0.02431147
v 0.05040655 -0.01714070 -0.02800241
v 0.05547745 -0.01714070 -0.02648007
v 0.04059019 -0.01714070 -0.01115257
v 0.04004110 -0.01714070 -0.01229579
v 0.04315201 -0.02098999 -0.01512440
v 0.03923928 -0.01714070 -0.01689031
v 0.03954110 -0.01714070 -0.02143966
v 0.04126655 -0.01714070 -0.02424665
v 0.04434655 -0.01714070 -0.02686704
v 0.03932656 -0.01714070 -0.01512440
f 1352 1353 1354
f 1352 1354 1355
f 1352 1355 1356
f 1352 1356 1357
f 1352 1357 1364
f 1352 1364 1363
f 1352 1363 1372
f 1352 1372 1371
f 1352 1371 1379
f 1352 1379 1378
f 1352 1378 1377
f 1352 1377 1376
f 1352 1376 1380
f 1352 1380 1374
f 1352 1374 1373
f 1352 1373 1365
f 1352 1365 1358
f 1352 1358 1353
f 1353 1358 1354
f 1354 1359 1355
f 1354 1358 1360
f 1354 1360 1359
f 1355 1359 1356
f 1356 1361 1362
f 1356 1362 1363
f 1356 1363 1364
f 1356 1364 1357
f 1356 1359 1361
f 1358 1365 1366
f 1358 1366 1360
f 1359 1360 1366
f 1359 1366 1367
f 1359 1367 1368
f 1359 1368 1361
f 1361 1368 1369
f 1361 1369 1370
f 1361 1370 1362
f 1362 1370 1371
f 1362 1371 1372
f 1362 1372 1363
f 1365 1373 1366
f 1366 1373 1374
f 1366 1374 1367
f 1367 1374 1375
f 1367 1375 1376
f 1367 1376 1368
f 1368 1377 1369
f 1368 1376 1377
f 1369 1377 1378
f 1369 1378 1379
f 1369 1379 1371
f 1369 1371 1370
f 1374 1380 1375
f 1375 1380 1376

