# https://github.com/mikedh/trimesh

o geometry_0
v 0.06921200 -0.00312903 -0.04052312
v 0.06823391 -0.00887283 -0.03466175
v 0.06823391 -0.00887283 -0.04052312
v 0.06846485 0.00222570 -0.04052312
v 0.06811165 0.00264945 0.14777821
v 0.06895390 -0.00312903 0.11052713
v 0.06815241 -0.00851842 0.08527529
v 0.06725583 -0.01173896 0.01584194
v 0.06726941 -0.01176207 -0.02835800
v 0.06726941 -0.01176592 -0.03466175
v 0.06726941 -0.01176592 -0.04052312
v 0.06839693 0.00265716 -0.04052312
v 0.06729658 0.00553869 0.14777821
v 0.06887239 -0.00312903 0.14777821
v 0.06889956 -0.00312903 0.13577897
v 0.06891314 -0.00312903 0.12947523
v 0.06894031 -0.00312903 0.11684930
v 0.06812524 -0.00832965 0.11684930
v 0.06812524 -0.00838744 0.11052713
v 0.06419930 -0.01307186 0.01584194
v 0.06701131 -0.01138069 0.09157903
v 0.06365591 -0.01306030 0.13577897
v 0.06377818 -0.01306030 0.12315305
v 0.06387327 -0.01306801 0.11052713
v 0.06390044 -0.01307571 0.10422339
v 0.06392761 -0.01307571 0.09790121
v 0.06406345 -0.01308727 0.05370127
v 0.06421288 -0.01308341 -0.04052312
v 0.06750035 0.00544238 -0.04052312
v 0.05198677 0.01353225 0.14210114
v 0.05530141 0.01157912 0.14602716
v 0.05464935 0.01133643 0.14777821
v 0.06741884 0.00566196 -0.04052312
v 0.05198677 0.01456082 -0.02203582
v 0.05198677 0.01446451 0.00951976
v 0.05198677 0.01442599 0.01584194
v 0.06805732 -0.00792131 0.14777821
v 0.06807090 -0.00799450 0.14210114
v 0.06809807 -0.00817171 0.12947523
v 0.06811165 -0.00825261 0.12315305
v 0.06697055 -0.01131905 0.10422339
v 0.06407704 -0.01308727 0.04741596
v 0.05811342 -0.01434698 0.09790121
v 0.06358799 -0.01304874 0.14210114
v 0.05811342 -0.01429689 0.14777821
v 0.05811342 -0.01430845 0.14210114
v 0.05811342 -0.01431616 0.13577897
v 0.05811342 -0.01434312 0.10422339
v 0.05856170 -0.01425067 -0.04052312
v 0.05811342 -0.01435468 0.04741596
v 0.04586013 0.01507703 0.14210114
v 0.05181018 0.01246516 0.14777821
v 0.05254374 0.01220705 0.14777821
v 0.04649861 0.01683754 0.00321602
v 0.04638993 0.01682598 0.00951976
v 0.04624051 0.01680287 0.01584194
v 0.04586013 0.01656788 0.04109378
v 0.05198677 0.01442213 -0.04052312
v 0.04659370 0.01684139 -0.02203582
v 0.04653937 0.01683754 -0.00310616
v 0.06792147 -0.00821409 0.14777821
v 0.06688905 -0.01121889 0.11684930
v 0.06692980 -0.01128053 0.11052713
v 0.06352007 -0.01303719 0.14777821
v 0.05198677 -0.01432386 0.14777821
v 0.05136189 -0.01432386 0.14777821
v -0.05212533 -0.01429304 0.14777821
v 0.05748852 -0.01430075 0.14777821
v 0.05811342 -0.01434312 -0.04052312
v -0.05212533 -0.01431230 0.01584194
v -0.05212533 -0.01431230 0.00951976
v 0.02136717 0.01891779 0.12947523
v 0.02136717 0.01834765 0.13577897
v 0.02542895 0.01728055 0.13918890
v 0.04586013 0.01369019 0.14777821
v 0.04344208 0.01718039 0.00321602
v 0.04352359 0.01719195 -0.02203582
v 0.04346925 0.01718425 -0.00310616
v 0.04333341 0.01716884 0.00951976
v 0.04318398 0.01715343 0.01584194
v 0.05153849 0.01458393 -0.04052312
v 0.04586013 0.01640993 -0.04052312
v 0.04334699 0.01717269 -0.02575909
v 0.06659018 -0.01081440 0.14777821
v 0.06678037 -0.01106095 0.12947523
v 0.06683471 -0.01114570 0.12315305
v 0.06383251 -0.01281760 0.14777821
v -0.05825197 -0.01419288 0.14777821
v -0.05825197 -0.01428149 0.00951976
v -0.05212533 -0.01429689 -0.04052312
v -0.04795487 0.02327476 0.11052713
v -0.04851183 0.02308214 0.11399235
v 0.01524053 0.01917975 0.12947523
v 0.02136717 0.01948408 0.03479003
v -0.04599869 0.02498134 0.04741596
v 0.01524053 0.01855567 0.13577897
v 0.02136717 0.01742309 0.13939164
v -0.04599869 0.01692229 0.14777821
v 0.02136717 0.01948408 -0.02835800
v 0.02136717 0.01953801 -0.02203582
v 0.02136717 0.01877140 -0.04052312
v -0.05876818 -0.01406961 0.14777821
v -0.06338693 -0.01301407 0.00951976
v -0.05825197 -0.01424681 -0.04052312
v -0.05779009 -0.01425067 -0.04052312
v -0.06340052 -0.01294473 0.14777821
v -0.04961219 0.02327476 0.11052713
v -0.04934049 0.02308214 0.11399235
v -0.04599869 0.01914893 0.13577897
v -0.04599869 0.02500060 -0.02835800
v -0.05012840 0.02392580 0.04741596
v -0.04730281 0.01677975 0.14777821
v -0.04599869 0.02108664 -0.04052312
v -0.04599869 0.02384490 -0.03265266
v -0.06337335 -0.01300252 -0.00310616
v -0.06327825 -0.01299481 -0.04052312
v -0.06341410 -0.01294088 0.14210114
v -0.06647063 -0.01079899 0.14210114
v -0.06647063 -0.01079899 0.13577897
v -0.06647063 -0.01079514 0.12947523
v -0.06647063 -0.01078743 0.12315305
v -0.06647063 -0.01079129 0.14777821
v -0.06792418 0.00604334 0.14777821
v -0.05457055 0.01642149 0.13577897
v -0.05151403 0.01817429 0.13577897
v -0.05067178 0.01780832 0.14031325
v -0.04973445 0.02352516 -0.03228402
v -0.05012840 0.02390269 -0.02835800
v -0.06795135 0.00606260 0.12315305
v -0.06795135 0.00606260 0.12947523
v -0.05230193 0.01543144 0.14777821
v -0.04605303 0.02107509 -0.04052312
v -0.06333259 -0.01299481 -0.02203582
v -0.06644346 -0.01055244 0.00321602
v -0.06642987 -0.01053703 -0.00310616
v -0.06350919 -0.01280220 -0.04052312
v -0.06846756 -0.00790975 0.14210114
v -0.06846756 -0.00790975 0.13577897
v -0.06846756 -0.00789820 0.14777821
v -0.06793777 0.00604334 0.14210114
v -0.06901095 0.00265716 0.14777821
v -0.05124233 0.01986161 -0.04052312
v -0.06770683 0.00583917 -0.04052312
v -0.06777475 0.00589310 -0.02203582
v -0.06778833 0.00590851 -0.01573208
v -0.06788343 0.00599712 0.02846786
v -0.06789701 0.00600482 0.03479003
v -0.06902453 0.00265716 0.12947523
v -0.06902453 0.00265716 0.14210114
v -0.06823663 -0.00766320 0.00321602
v -0.06845398 -0.00789820 0.12315305
v -0.06838605 -0.00780189 0.07895311
v -0.06819587 -0.00757460 -0.02203582
v -0.06816870 -0.00750141 -0.04052312
v -0.06638912 -0.01046384 -0.02203582
v -0.06633479 -0.01039450 -0.04052312
v -0.06956791 -0.00312903 0.14210114
v -0.06944565 -0.00361442 0.14777821
v -0.06955433 -0.00312903 0.14777821
v -0.06850831 0.00265716 -0.04052312
v -0.06868491 0.00265716 -0.01573208
v -0.06884793 0.00265716 0.03479003
v -0.06894302 0.00265716 0.08527529
v -0.06829096 -0.00769787 0.02846786
v -0.06955433 -0.00312903 0.13577897
v -0.06954074 -0.00312903 0.12947523
v -0.06909245 -0.00312903 -0.01573208
v -0.06895661 -0.00312903 -0.04052312
v -0.06803285 -0.00771714 -0.04052312
v -0.06941848 -0.00312903 0.08527529
v -0.06892944 -0.00270142 -0.04052312
f 1 2 3
f 1 3 11
f 1 11 28
f 1 28 49
f 1 49 69
f 1 69 90
f 1 90 105
f 1 105 104
f 1 104 116
f 1 116 136
f 1 136 156
f 1 156 169
f 1 169 154
f 1 154 168
f 1 168 171
f 1 171 160
f 1 160 143
f 1 143 142
f 1 142 132
f 1 132 113
f 1 113 101
f 1 101 82
f 1 82 81
f 1 81 58
f 1 58 33
f 1 33 29
f 1 29 12
f 1 12 4
f 1 4 5
f 1 5 6
f 1 6 7
f 1 7 2
f 2 8 9
f 2 9 10
f 2 10 11
f 2 11 3
f 2 7 8
f 4 12 5
f 5 13 32
f 5 32 53
f 5 53 52
f 5 52 75
f 5 75 98
f 5 98 112
f 5 112 131
f 5 131 123
f 5 123 141
f 5 141 159
f 5 159 158
f 5 158 139
f 5 139 122
f 5 122 106
f 5 106 102
f 5 102 88
f 5 88 67
f 5 67 66
f 5 66 65
f 5 65 68
f 5 68 45
f 5 45 64
f 5 64 87
f 5 87 84
f 5 84 61
f 5 61 37
f 5 37 14
f 5 14 15
f 5 15 16
f 5 16 17
f 5 17 6
f 5 12 13
f 6 17 18
f 6 18 7
f 7 18 19
f 7 19 8
f 8 20 9
f 8 19 18
f 8 18 21
f 8 21 22
f 8 22 23
f 8 23 24
f 8 24 25
f 8 25 26
f 8 26 27
f 8 27 20
f 9 20 10
f 10 20 28
f 10 28 11
f 12 29 13
f 13 30 31
f 13 31 32
f 13 29 33
f 13 33 34
f 13 34 35
f 13 35 36
f 13 36 30
f 14 37 38
f 14 38 39
f 14 39 40
f 14 40 18
f 14 18 15
f 15 18 16
f 16 18 17
f 18 40 41
f 18 41 21
f 20 27 42
f 20 42 43
f 20 43 28
f 21 41 22
f 22 41 44
f 22 44 45
f 22 45 24
f 22 24 23
f 24 45 25
f 25 45 46
f 25 46 47
f 25 47 26
f 26 47 27
f 27 47 48
f 27 48 43
f 27 43 42
f 28 43 50
f 28 50 49
f 30 51 52
f 30 52 53
f 30 53 31
f 30 36 54
f 30 54 55
f 30 55 56
f 30 56 57
f 30 57 51
f 31 53 32
f 33 58 34
f 34 58 59
f 34 59 60
f 34 60 54
f 34 54 35
f 35 54 36
f 37 61 62
f 37 62 63
f 37 63 41
f 37 41 39
f 37 39 38
f 39 41 40
f 41 63 64
f 41 64 44
f 43 48 65
f 43 65 66
f 43 66 67
f 43 67 50
f 44 64 45
f 45 68 46
f 46 68 65
f 46 65 47
f 47 65 48
f 49 50 69
f 50 70 71
f 50 71 69
f 50 67 70
f 51 72 73
f 51 73 74
f 51 74 75
f 51 75 52
f 51 57 72
f 54 76 79
f 54 79 55
f 54 60 77
f 54 77 78
f 54 78 76
f 55 79 80
f 55 80 56
f 56 80 72
f 56 72 57
f 58 81 59
f 59 81 82
f 59 82 83
f 59 83 77
f 59 77 60
f 61 84 85
f 61 85 86
f 61 86 62
f 62 86 64
f 62 64 63
f 64 86 87
f 67 88 89
f 67 89 70
f 69 71 90
f 70 89 71
f 71 89 90
f 72 91 92
f 72 92 93
f 72 93 73
f 72 80 94
f 72 94 95
f 72 95 91
f 73 96 97
f 73 97 74
f 73 93 92
f 73 92 96
f 74 97 75
f 75 97 98
f 76 94 79
f 76 78 94
f 77 83 99
f 77 99 100
f 77 100 78
f 78 100 94
f 79 94 80
f 82 101 99
f 82 99 83
f 84 87 85
f 85 87 86
f 88 102 89
f 89 103 104
f 89 104 105
f 89 105 90
f 89 102 106
f 89 106 103
f 91 107 108
f 91 108 92
f 91 95 107
f 92 108 109
f 92 109 96
f 94 100 95
f 95 100 110
f 95 110 111
f 95 111 107
f 96 109 98
f 96 98 97
f 98 109 108
f 98 108 112
f 99 101 110
f 99 110 100
f 101 113 114
f 101 114 110
f 103 115 116
f 103 116 104
f 103 106 117
f 103 117 118
f 103 118 119
f 103 119 120
f 103 120 121
f 103 121 115
f 106 122 118
f 106 118 117
f 107 123 108
f 107 111 123
f 108 124 125
f 108 125 126
f 108 126 112
f 108 123 124
f 110 114 127
f 110 127 128
f 110 128 111
f 111 128 129
f 111 129 130
f 111 130 123
f 112 126 131
f 113 132 127
f 113 127 114
f 115 133 116
f 115 121 133
f 116 133 134
f 116 134 135
f 116 135 136
f 118 122 137
f 118 137 138
f 118 138 119
f 119 138 120
f 120 138 121
f 121 138 134
f 121 134 133
f 122 139 137
f 123 130 140
f 123 140 149
f 123 149 141
f 123 131 124
f 124 131 126
f 124 126 125
f 127 132 142
f 127 142 143
f 127 143 128
f 128 143 144
f 128 144 145
f 128 145 146
f 128 146 147
f 128 147 129
f 129 148 149
f 129 149 130
f 129 147 148
f 130 149 140
f 134 150 135
f 134 138 151
f 134 151 152
f 134 152 150
f 135 150 153
f 135 153 154
f 135 154 155
f 135 155 136
f 136 155 156
f 137 139 157
f 137 157 138
f 138 157 151
f 139 158 157
f 141 149 157
f 141 157 159
f 143 160 161
f 143 161 144
f 144 161 162
f 144 162 145
f 145 162 146
f 146 162 147
f 147 162 163
f 147 163 148
f 148 163 157
f 148 157 149
f 150 154 153
f 150 152 164
f 150 164 154
f 151 157 152
f 152 157 165
f 152 165 166
f 152 166 164
f 154 167 168
f 154 169 155
f 154 164 166
f 154 166 170
f 154 170 167
f 155 169 156
f 157 158 159
f 157 163 162
f 157 162 165
f 160 171 161
f 161 171 167
f 161 167 170
f 161 170 162
f 162 170 166
f 162 166 165
f 167 171 168

o geometry_1
v -0.04600451 0.01967938 0.16105141
v -0.04600451 0.01928797 0.15473608
v -0.05120290 0.01829872 0.15473608
v -0.05139309 0.01852237 0.16105141
v -0.05136592 0.01850517 0.16736235
v -0.04600451 0.01963636 0.16736235
v 0.00911304 0.01654386 0.16736235
v 0.00911304 0.01646214 0.16105141
v -0.04600451 0.01799334 0.14985985
v -0.05035160 0.01774817 0.15029994
v 0.02286073 0.01562342 0.16105141
v 0.02286073 0.01544277 0.15951109
v 0.02286073 0.01487503 0.15473608
v -0.06793017 0.00604052 0.14777821
v -0.06793923 0.00604912 0.16736235
v -0.06793923 0.00605343 0.17367329
v -0.05125725 0.01845356 0.17367329
v -0.04600451 0.01958475 0.17367329
v -0.06789394 0.00600611 0.17998863
v 0.00911304 0.01648794 0.17367329
v 0.02286073 0.01560621 0.17367329
v 0.02286073 0.01564063 0.16736235
v -0.04600451 0.01692236 0.14777821
v 0.02286073 0.01273307 0.14900606
v -0.04730863 0.01678042 0.14777821
v -0.05229874 0.01543417 0.14777821
v -0.06901694 0.00265124 0.14777821
v -0.06907128 0.00265124 0.17367329
v -0.06901694 0.00265124 0.17998863
v -0.05046028 0.01798043 0.17822825
v -0.06771281 0.00582117 0.18436755
v -0.04600451 0.01832882 0.17888839
v -0.01195226 0.01720623 0.17702680
v 0.02286073 0.01398899 0.17816223
v 0.02286073 0.01202768 0.14777821
v -0.06956033 -0.00312947 0.14777821
v -0.06965995 -0.00312947 0.17367329
v -0.06964184 -0.00312947 0.17998863
v -0.06898977 -0.00312947 0.18629956
v -0.06825620 0.00281038 0.18640519
v -0.06681623 0.00484051 0.18857924
v -0.06273176 0.00596740 0.18992593
v -0.04600451 0.01559331 0.18204386
v 0.02286073 0.00622547 0.19025159
v 0.02286073 0.00689214 0.18929220
v 0.02286073 0.01344275 0.17965415
v 0.02286073 -0.01427367 0.14777821
v -0.06945165 -0.00361549 0.14777821
v -0.06847356 -0.00789941 0.14777821
v -0.06852789 -0.00790801 0.17367329
v -0.06851884 -0.00779188 0.17998863
v -0.06817469 -0.00717682 0.18629956
v -0.06771281 -0.00643273 0.18977629
v -0.06790300 -0.00312947 0.18998755
v -0.06778527 0.00098671 0.18984672
v -0.06461551 0.00281038 0.19059047
v -0.05824883 0.00265124 0.19173471
v -0.05824883 0.00620827 0.19018999
v -0.05212666 0.00628138 0.19023400
v -0.04600451 0.00632870 0.19026040
v -0.03987329 0.00633730 0.19027801
v 0.01523520 0.00623837 0.19026040
v 0.02136641 0.00622977 0.19025599
v 0.02286073 0.00265124 0.19189315
v 0.02286073 -0.01427367 0.16105141
v -0.05175535 -0.02408023 0.17305716
v -0.05212666 -0.02391679 0.16916674
v -0.05708960 -0.02409743 0.16871784
v -0.05212666 -0.01429088 0.14777821
v -0.06850978 -0.00792522 0.16736235
v -0.06647208 -0.01078976 0.14777821
v -0.06267743 -0.02000276 0.17367329
v -0.06438004 -0.00738758 0.19048484
v -0.06438004 -0.00312947 0.19154547
v -0.06213404 -0.01898770 0.17809622
v -0.05643753 -0.02382646 0.17755491
v -0.05824883 -0.00312947 0.19259289
v -0.05212666 0.00265124 0.19178752
v -0.04600451 0.00265124 0.19182713
v -0.03987329 0.00265124 0.19185795
v -0.03375113 0.00265124 0.19187554
v 0.02286073 -0.00312947 0.19273812
v 0.02286073 -0.01426077 0.16736235
v 0.02286073 -0.01423496 0.17367329
v 0.02286073 -0.01416184 0.17520921
v 0.02286073 -0.01391238 0.17998863
v -0.05355759 -0.02382646 0.17755491
v -0.05755148 -0.02426088 0.17367329
v -0.06061256 -0.02289312 0.17367329
v -0.06340194 -0.01294463 0.14777821
v -0.05824883 -0.01419625 0.14777821
v -0.05275156 -0.01428227 0.14777821
v -0.05566774 -0.01787801 0.18332893
v -0.05824883 -0.01107794 0.18861885
v -0.05824883 -0.00818759 0.19104815
v -0.05212666 -0.00825640 0.19107017
v -0.04600451 -0.00312947 0.19265451
v -0.03987329 -0.00312947 0.19267650
v -0.03375113 -0.00312947 0.19268971
v -0.02762897 -0.00312947 0.19269852
v 0.02286073 -0.00700478 0.19150146
v -0.03987329 -0.00827361 0.19109656
v -0.02762897 -0.00826070 0.19110097
v 0.02286073 -0.01361990 0.18128689
v -0.05434549 -0.01787801 0.18332893
v 0.02286073 -0.01270806 0.18526974
v 0.02286073 -0.01233387 0.18603550
v 0.02286073 -0.01115106 0.18842521
v -0.05212666 -0.01115106 0.18884770
v -0.04600451 -0.00827791 0.19108778
v 0.02286073 -0.00826070 0.19109656
f 172 173 174
f 172 174 175
f 172 175 176
f 172 176 177
f 172 177 178
f 172 178 179
f 172 179 173
f 173 180 181
f 173 181 174
f 173 179 182
f 173 182 183
f 173 183 184
f 173 184 180
f 174 181 185
f 174 185 175
f 175 185 186
f 175 186 187
f 175 187 176
f 176 188 189
f 176 189 177
f 176 187 190
f 176 190 188
f 177 189 178
f 178 191 192
f 178 192 193
f 178 193 182
f 178 182 179
f 178 189 191
f 180 194 181
f 180 184 195
f 180 195 194
f 181 194 196
f 181 196 197
f 181 197 185
f 182 193 192
f 182 192 205
f 182 205 217
f 182 217 216
f 182 216 215
f 182 215 235
f 182 235 253
f 182 253 272
f 182 272 282
f 182 282 279
f 182 279 278
f 182 278 277
f 182 277 275
f 182 275 257
f 182 257 256
f 182 256 255
f 182 255 254
f 182 254 236
f 182 236 218
f 182 218 206
f 182 206 195
f 182 195 184
f 182 184 183
f 185 197 196
f 185 196 194
f 185 194 206
f 185 206 218
f 185 218 240
f 185 240 263
f 185 263 262
f 185 262 261
f 185 261 242
f 185 242 220
f 185 220 219
f 185 219 207
f 185 207 198
f 185 198 199
f 185 199 186
f 186 199 187
f 187 199 200
f 187 200 190
f 188 201 189
f 188 190 202
f 188 202 201
f 189 201 203
f 189 203 204
f 189 204 191
f 190 200 202
f 191 204 192
f 192 204 205
f 194 195 206
f 198 207 208
f 198 208 199
f 199 208 209
f 199 209 200
f 200 209 210
f 200 210 211
f 200 211 202
f 201 202 212
f 201 212 213
f 201 213 203
f 202 211 212
f 203 213 214
f 203 214 215
f 203 215 216
f 203 216 217
f 203 217 204
f 204 217 205
f 207 219 208
f 208 219 220
f 208 220 221
f 208 221 209
f 209 221 222
f 209 222 223
f 209 223 210
f 210 223 224
f 210 224 225
f 210 225 226
f 210 226 211
f 211 226 212
f 212 226 227
f 212 227 213
f 213 227 228
f 213 228 229
f 213 229 214
f 214 229 230
f 214 230 231
f 214 231 232
f 214 232 233
f 214 233 234
f 214 234 215
f 215 234 235
f 218 236 237
f 218 237 238
f 218 238 239
f 218 239 240
f 220 241 221
f 220 242 243
f 220 243 241
f 221 243 222
f 221 241 243
f 222 243 223
f 223 243 224
f 224 244 245
f 224 245 225
f 224 243 246
f 224 246 247
f 224 247 244
f 225 245 226
f 226 245 227
f 227 245 228
f 228 245 248
f 228 248 249
f 228 249 230
f 228 230 229
f 230 249 231
f 231 249 250
f 231 250 251
f 231 251 232
f 232 251 252
f 232 252 235
f 232 235 233
f 233 235 234
f 235 252 253
f 236 254 237
f 237 254 255
f 237 255 256
f 237 256 257
f 237 257 258
f 237 258 259
f 237 259 239
f 237 239 238
f 239 259 260
f 239 260 242
f 239 242 261
f 239 261 262
f 239 262 263
f 239 263 240
f 242 260 243
f 243 260 246
f 244 247 264
f 244 264 265
f 244 265 266
f 244 266 248
f 244 248 245
f 246 260 247
f 247 260 259
f 247 259 258
f 247 258 276
f 247 276 264
f 248 266 267
f 248 267 268
f 248 268 250
f 248 250 249
f 250 268 251
f 251 268 269
f 251 269 252
f 252 269 270
f 252 270 271
f 252 271 253
f 253 271 273
f 253 273 274
f 253 274 272
f 257 275 258
f 258 275 277
f 258 277 278
f 258 278 279
f 258 279 276
f 264 276 280
f 264 280 266
f 264 266 265
f 266 280 267
f 267 280 281
f 267 281 268
f 268 281 269
f 269 281 270
f 270 281 271
f 271 281 273
f 272 274 282
f 273 281 280
f 273 280 282
f 273 282 274
f 276 279 282
f 276 282 280

o geometry_2
v -0.00313836 0.01746768 -0.15463763
v -0.00313836 0.01746363 -0.15463017
v 0.00045383 0.01728545 -0.15463763
v 0.00046160 0.01728950 -0.16095278
v 0.00046160 0.01728950 -0.16726793
v -0.00313836 0.01745958 -0.16726793
v -0.02151138 0.01738264 -0.16095278
v -0.02151138 0.01735430 -0.15463017
v 0.00045383 0.01728140 -0.15463017
v 0.00351729 0.01512710 -0.15463017
v 0.00352507 0.01519189 -0.16095278
v 0.00027500 0.01722876 -0.17088351
v 0.00351729 0.01517569 -0.16726793
v -0.00313836 0.01728140 -0.17107342
v -0.02151138 0.01723281 -0.17103246
v -0.02151138 0.01737454 -0.16726793
v -0.04600356 0.01720851 -0.16095278
v -0.04601133 0.01718827 -0.15463017
v 0.00967533 0.00942142 -0.15463017
v 0.01023515 0.00921895 -0.15463763
v 0.01023515 0.00922300 -0.15527062
v 0.01023515 0.00924324 -0.16095278
v 0.01023515 0.00924729 -0.16726793
v 0.01023515 0.00924729 -0.16785626
v -0.00313836 0.01571427 -0.17422727
v 0.01023515 0.00920275 -0.17522890
v 0.01023515 0.00808915 -0.18104138
v 0.01023515 0.00693101 -0.18620223
v 0.01023515 0.00676093 -0.18687993
v 0.01023515 0.00597129 -0.18991463
v -0.02151138 0.01611111 -0.17418259
v -0.03987663 0.01641077 -0.17382885
v -0.04600356 0.01642292 -0.17362777
v -0.03987663 0.01714777 -0.17067499
v -0.04906703 0.01711133 -0.17043668
v -0.04910590 0.01712348 -0.16726793
v -0.04916033 0.01713967 -0.16095278
v -0.04914478 0.01713563 -0.15463017
v 0.01023515 -0.01032776 -0.15463017
v 0.01023515 0.00536792 -0.19022740
v 0.00298857 0.00597534 -0.18992581
v -0.05824965 0.00603608 -0.18999655
v -0.06309366 0.00587815 -0.18979175
v -0.06717569 0.00535172 -0.18887948
v -0.06761888 0.00572022 -0.18467186
v -0.05216159 0.01547130 -0.16726793
v -0.05222380 0.01547130 -0.16095278
v -0.05221602 0.01544700 -0.15463017
v 0.00911551 -0.01429217 -0.15463017
v 0.01023515 -0.01429217 -0.15463763
v 0.01023515 0.00265074 -0.19162375
v -0.05213050 0.00265074 -0.19169821
v -0.05824965 0.00265074 -0.19170194
v 0.00298857 0.00265074 -0.19163490
v -0.06483532 0.00311642 -0.19062954
v -0.06787546 0.00149664 -0.18991463
v -0.06815538 0.00311642 -0.18654481
v -0.06862189 0.00265074 -0.17989080
v -0.06773551 0.00583361 -0.17989080
v -0.06775883 0.00585385 -0.17357936
v -0.06775106 0.00584980 -0.16726793
v -0.06773551 0.00583765 -0.15463017
v -0.05213050 -0.01440555 -0.15463017
v -0.05213050 -0.02365855 -0.16976272
v 0.01023515 -0.01434076 -0.17357936
v -0.04887265 -0.02348037 -0.17015369
v -0.04885709 -0.02349252 -0.17357936
v 0.01023515 -0.00313188 -0.19267006
v -0.05213050 -0.00313188 -0.19265516
v -0.05824965 -0.00313188 -0.19264400
v -0.06437658 -0.00313188 -0.19164980
v -0.06795322 -0.00313188 -0.19001143
v -0.06879295 -0.00313188 -0.18620223
v -0.06915839 -0.00313188 -0.17989080
v -0.06919727 -0.00313188 -0.17357936
v -0.06865300 0.00265074 -0.17357936
v -0.06862967 0.00265074 -0.16726793
v -0.06857524 0.00265074 -0.15463017
v -0.05824965 -0.01423548 -0.15463017
v -0.05583931 -0.02364235 -0.16981113
v -0.05213050 -0.02390152 -0.17357936
v 0.01023515 -0.01361996 -0.17989080
v -0.04897372 -0.02341963 -0.17683004
v 0.01023515 -0.00780900 -0.19096094
v -0.02151138 -0.00783329 -0.19095722
v -0.02763831 -0.00784544 -0.19095349
v -0.05213050 -0.00782115 -0.19094604
v -0.05824965 -0.00778875 -0.19093861
v -0.06437658 -0.00712464 -0.19038379
v -0.06768886 -0.00633905 -0.18967633
v -0.06802320 -0.00682903 -0.18620223
v -0.06827200 -0.00725422 -0.17989080
v -0.06829533 -0.00735951 -0.17357936
v -0.06907286 -0.00313188 -0.15463017
v -0.06823313 -0.00742430 -0.15463763
v -0.06309366 -0.01293155 -0.15463017
v -0.05619697 -0.02377598 -0.17357936
v -0.06191959 -0.01851170 -0.16924142
v -0.05926044 -0.02194563 -0.17357936
v -0.05213050 -0.02360996 -0.17722846
v -0.05588596 -0.02364235 -0.17729920
v 0.01023515 -0.01257520 -0.18339095
v 0.01023515 -0.01234033 -0.18417662
v 0.01023515 -0.00833947 -0.19030187
v -0.05213050 -0.02095352 -0.18038604
v -0.05613477 -0.01818369 -0.18343935
v -0.05805527 -0.02032585 -0.17976048
v -0.06199734 -0.01861293 -0.17801413
v -0.06227726 -0.01905432 -0.17357936
v -0.06823313 -0.00741620 -0.15463017
v -0.06614935 -0.01031561 -0.15463017
v 0.01023515 -0.01070030 -0.18733420
f 283 284 291
f 283 291 285
f 283 285 286
f 283 286 287
f 283 287 288
f 283 288 289
f 283 289 290
f 283 290 284
f 284 290 300
f 284 300 320
f 284 320 330
f 284 330 344
f 284 344 360
f 284 360 376
f 284 376 392
f 284 392 393
f 284 393 378
f 284 378 361
f 284 361 345
f 284 345 331
f 284 331 321
f 284 321 301
f 284 301 292
f 284 292 291
f 285 291 292
f 285 292 293
f 285 293 286
f 286 293 287
f 287 294 288
f 287 293 295
f 287 295 294
f 288 296 297
f 288 297 298
f 288 298 289
f 288 294 296
f 289 298 299
f 289 299 300
f 289 300 290
f 292 301 302
f 292 302 293
f 293 302 303
f 293 303 304
f 293 304 305
f 293 305 306
f 293 306 295
f 294 307 296
f 294 295 308
f 294 308 309
f 294 309 310
f 294 310 311
f 294 311 312
f 294 312 307
f 295 306 308
f 296 307 313
f 296 313 314
f 296 314 297
f 297 314 315
f 297 315 316
f 297 316 317
f 297 317 298
f 298 317 299
f 299 317 318
f 299 318 319
f 299 319 320
f 299 320 300
f 301 321 302
f 302 321 332
f 302 332 347
f 302 347 364
f 302 364 384
f 302 384 385
f 302 385 394
f 302 394 386
f 302 386 366
f 302 366 350
f 302 350 333
f 302 333 322
f 302 322 312
f 302 312 311
f 302 311 310
f 302 310 309
f 302 309 308
f 302 308 306
f 302 306 305
f 302 305 304
f 302 304 303
f 307 312 313
f 312 322 323
f 312 323 324
f 312 324 314
f 312 314 313
f 314 324 315
f 315 317 316
f 315 324 325
f 315 325 317
f 317 325 326
f 317 326 327
f 317 327 328
f 317 328 318
f 318 328 319
f 319 328 329
f 319 329 320
f 320 329 330
f 321 331 332
f 322 333 324
f 322 324 323
f 324 334 335
f 324 335 325
f 324 333 336
f 324 336 334
f 325 335 337
f 325 337 326
f 326 337 338
f 326 338 339
f 326 339 327
f 327 339 340
f 327 340 341
f 327 341 328
f 328 341 329
f 329 341 342
f 329 342 343
f 329 343 344
f 329 344 330
f 331 345 346
f 331 346 332
f 332 346 348
f 332 348 349
f 332 349 347
f 333 350 336
f 334 336 350
f 334 350 335
f 335 351 352
f 335 352 337
f 335 350 351
f 337 353 338
f 337 352 353
f 338 354 355
f 338 355 339
f 338 353 354
f 339 355 340
f 340 355 356
f 340 356 357
f 340 357 358
f 340 358 341
f 341 358 342
f 342 358 343
f 343 358 344
f 344 358 359
f 344 359 360
f 345 361 362
f 345 362 346
f 346 362 363
f 346 363 348
f 347 349 365
f 347 365 364
f 348 363 349
f 349 363 365
f 350 366 367
f 350 367 368
f 350 368 351
f 351 369 352
f 351 368 369
f 352 370 371
f 352 371 353
f 352 369 370
f 353 371 372
f 353 372 354
f 354 372 355
f 355 372 373
f 355 373 356
f 356 373 374
f 356 374 375
f 356 375 357
f 357 376 360
f 357 360 359
f 357 359 358
f 357 375 377
f 357 377 376
f 361 378 362
f 362 379 363
f 362 378 380
f 362 380 381
f 362 381 379
f 363 382 365
f 363 379 383
f 363 383 382
f 364 365 384
f 365 382 385
f 365 385 384
f 366 368 367
f 366 386 382
f 366 382 387
f 366 387 388
f 366 388 368
f 368 388 369
f 369 388 370
f 370 388 371
f 371 388 372
f 372 388 389
f 372 389 383
f 372 383 390
f 372 390 373
f 373 390 391
f 373 391 374
f 374 391 375
f 375 391 377
f 376 377 392
f 377 393 392
f 377 391 393
f 378 393 380
f 379 381 383
f 380 393 391
f 380 391 381
f 381 391 390
f 381 390 383
f 382 383 387
f 382 386 394
f 382 394 385
f 383 389 388
f 383 388 387

o geometry_3
v 0.02286523 -0.01427449 0.14777821
v 0.02286523 -0.01427449 0.15627516
v 0.02286523 0.01202920 0.14777821
v 0.04524638 -0.01431462 0.14777821
v 0.05199095 -0.02439469 0.16832426
v 0.04790812 -0.02394928 0.16912195
v 0.04764194 -0.02412183 0.17367452
v 0.02286523 -0.01427048 0.16259058
v 0.02286523 0.01273143 0.14900780
v 0.04036953 0.01333736 0.14777821
v 0.05136837 -0.01432265 0.14777821
v 0.05199095 -0.02524941 0.17367452
v 0.05199095 -0.01432265 0.14777821
v 0.05811745 -0.01429857 0.14777821
v 0.05650688 -0.02415794 0.16899415
v 0.04823294 -0.02378876 0.17754840
v 0.02286523 -0.01391335 0.17998553
v 0.02286523 -0.01416214 0.17521261
v 0.02286523 -0.01423437 0.17367452
v 0.02286523 -0.01426246 0.16736351
v 0.02286523 0.01487425 0.15473707
v 0.04586895 0.01369048 0.14777821
v 0.05728284 -0.02449501 0.17367452
v 0.05657455 -0.02408571 0.17801114
v 0.05199095 -0.02422214 0.17825353
v 0.06352664 -0.01303856 0.14777821
v 0.06383793 -0.01281786 0.14777821
v 0.06658989 -0.01081148 0.14777821
v 0.06034158 -0.02227996 0.17367452
v 0.02286523 -0.01115256 0.18842520
v 0.02286523 -0.01233231 0.18603653
v 0.02286523 -0.01270550 0.18526969
v 0.02286523 -0.01362041 0.18128564
v 0.02286523 0.01544406 0.15951000
v 0.02749394 0.01494246 0.15473707
v 0.02749394 0.01568081 0.16104808
v 0.02749394 0.01573699 0.16736351
v 0.02749394 0.01574502 0.17367452
v 0.03362045 0.01501871 0.17367452
v 0.05181951 0.01246659 0.14777821
v 0.05602867 -0.01838357 0.18359938
v 0.05199095 -0.02132493 0.18140904
v 0.06172208 -0.01888115 0.17796266
v 0.06767264 -0.00657399 0.18994126
v 0.06423945 -0.00753706 0.19064640
v 0.06193863 -0.01938676 0.17367452
v 0.06792528 -0.00821522 0.14777821
v 0.06810573 -0.00762534 0.17367452
v 0.06794783 -0.00713177 0.18630096
v 0.02286523 -0.00825936 0.19109591
v 0.02286523 0.01562463 0.16104808
v 0.02286523 0.01564069 0.16736351
v 0.02286523 0.01560457 0.17367452
v 0.02286523 0.01398743 0.17816539
v 0.02286523 0.01344570 0.17965500
v 0.02749394 0.01351793 0.17978722
v 0.03362045 0.01315277 0.17939498
v 0.06281835 0.00595387 0.18998974
v 0.06461390 0.00615852 0.18586025
v 0.06732526 0.00556463 0.18346276
v 0.05255036 0.01220576 0.14777821
v 0.05811745 -0.00827139 0.19110914
v 0.05199095 -0.01843172 0.18363464
v 0.06873282 -0.00313104 0.18630096
v 0.06795235 -0.00313104 0.19029382
v 0.06423945 -0.00313104 0.19197735
v 0.05811745 -0.00313104 0.19280148
v 0.06807866 -0.00750897 0.17998553
v 0.06806964 -0.00792228 0.14777821
v 0.06894937 -0.00313104 0.17367452
v 0.06891328 -0.00313104 0.17998553
v 0.02749394 -0.00829146 0.19110034
v 0.02286523 -0.00700336 0.19150137
v 0.02286523 0.00688884 0.18929341
v 0.02286523 0.00622673 0.19025417
v 0.05811745 0.00615049 0.19023653
v 0.05811745 0.00265136 0.19192887
v 0.06461390 0.00303257 0.19084031
v 0.06780347 0.00135925 0.19009110
v 0.06690119 0.00521552 0.18767158
v 0.06794332 0.00303257 0.18586025
v 0.06815987 0.00265136 0.17998553
v 0.06732977 0.00556864 0.17998553
v 0.05465269 0.01133499 0.14777821
v 0.05199095 -0.00834764 0.19110034
v 0.05199095 -0.01123683 0.18898050
v 0.03974696 -0.00835566 0.19110474
v 0.03362045 -0.00833158 0.19110474
v 0.03362045 -0.00313104 0.19277064
v 0.04586895 -0.00837171 0.19110034
v 0.02749394 0.00265136 0.19190243
v 0.06887268 -0.00313104 0.14777821
v 0.06879598 -0.00254517 0.14777821
v 0.06811024 0.00264735 0.14777821
v 0.06815987 0.00265136 0.17367452
v 0.02286523 -0.00313104 0.19273537
v 0.02749394 -0.00313104 0.19275740
v 0.02286523 0.00265136 0.19189360
v 0.06729819 0.00553654 0.14777821
f 395 396 402
f 395 402 414
f 395 414 413
f 395 413 412
f 395 412 411
f 395 411 427
f 395 427 426
f 395 426 425
f 395 425 424
f 395 424 444
f 395 444 467
f 395 467 490
f 395 490 492
f 395 492 469
f 395 469 468
f 395 468 449
f 395 449 448
f 395 448 447
f 395 447 446
f 395 446 445
f 395 445 428
f 395 428 415
f 395 415 403
f 395 403 397
f 395 397 404
f 395 404 416
f 395 416 434
f 395 434 455
f 395 455 478
f 395 478 493
f 395 493 488
f 395 488 487
f 395 487 486
f 395 486 463
f 395 463 441
f 395 441 422
f 395 422 421
f 395 421 420
f 395 420 408
f 395 408 407
f 395 407 405
f 395 405 398
f 395 398 399
f 395 399 400
f 395 400 401
f 395 401 396
f 396 401 402
f 397 403 404
f 398 405 399
f 399 406 400
f 399 405 407
f 399 407 408
f 399 408 409
f 399 409 406
f 400 406 401
f 401 406 410
f 401 410 411
f 401 411 412
f 401 412 413
f 401 413 414
f 401 414 402
f 403 415 416
f 403 416 404
f 406 409 417
f 406 417 418
f 406 418 419
f 406 419 410
f 408 420 409
f 409 420 421
f 409 421 422
f 409 422 423
f 409 423 417
f 410 419 424
f 410 424 425
f 410 425 426
f 410 426 427
f 410 427 411
f 415 428 429
f 415 429 416
f 416 429 430
f 416 430 431
f 416 431 432
f 416 432 433
f 416 433 434
f 417 423 418
f 418 435 436
f 418 436 419
f 418 423 437
f 418 437 438
f 418 438 439
f 418 439 435
f 419 436 424
f 422 440 423
f 422 441 442
f 422 442 440
f 423 440 443
f 423 443 438
f 423 438 437
f 424 436 444
f 428 445 429
f 429 445 430
f 430 445 431
f 431 445 446
f 431 446 432
f 432 446 447
f 432 447 448
f 432 448 449
f 432 449 450
f 432 450 451
f 432 451 433
f 433 451 452
f 433 452 453
f 433 453 434
f 434 453 454
f 434 454 455
f 435 456 457
f 435 457 436
f 435 439 456
f 436 457 444
f 438 443 458
f 438 458 459
f 438 459 460
f 438 460 439
f 439 460 461
f 439 461 456
f 440 442 462
f 440 462 443
f 441 463 442
f 442 464 465
f 442 465 462
f 442 463 464
f 443 462 458
f 444 466 467
f 444 457 466
f 449 468 450
f 450 468 469
f 450 469 470
f 450 470 452
f 450 452 451
f 452 470 471
f 452 471 472
f 452 472 473
f 452 473 474
f 452 474 453
f 453 474 454
f 454 474 475
f 454 475 476
f 454 476 477
f 454 477 478
f 454 478 455
f 456 461 479
f 456 479 480
f 456 480 457
f 457 480 481
f 457 481 482
f 457 482 466
f 458 462 465
f 458 465 475
f 458 475 473
f 458 473 459
f 459 473 460
f 460 473 472
f 460 472 471
f 460 471 461
f 461 483 482
f 461 482 481
f 461 481 484
f 461 484 479
f 461 471 485
f 461 485 483
f 463 486 464
f 464 486 487
f 464 487 488
f 464 488 489
f 464 489 476
f 464 476 465
f 465 476 475
f 466 482 467
f 467 482 491
f 467 491 490
f 469 492 485
f 469 485 471
f 469 471 470
f 473 475 474
f 476 489 477
f 477 489 493
f 477 493 478
f 479 484 480
f 480 484 481
f 482 483 491
f 483 485 492
f 483 492 491
f 488 493 489
f 490 491 492

o geometry_4
v 0.04586752 0.01731869 -0.16095460
v 0.04586752 0.01731066 -0.17358110
v 0.04152027 0.01719424 -0.17358110
v 0.04157838 0.01718621 -0.16726784
v 0.04178180 0.01718219 -0.16095460
v 0.04214213 0.01716212 -0.15751474
v 0.04586752 0.01721832 -0.15716441
v 0.04925582 0.01720227 -0.15723522
v 0.04941274 0.01724241 -0.16095460
v 0.04586752 0.01721029 -0.17699487
v 0.04202589 0.01717015 -0.17688680
v 0.04935462 0.01722635 -0.17358110
v 0.04920351 0.01718621 -0.17692779
v 0.03846324 0.01690921 -0.17358110
v 0.03852136 0.01691724 -0.16726784
v 0.03872477 0.01686505 -0.16095460
v 0.03992201 0.01625484 -0.15463017
v 0.04586752 0.01677271 -0.15463017
v 0.04651844 0.01676870 -0.15463017
v 0.05158055 0.01545193 -0.15463017
v 0.06754567 0.00576490 -0.15463763
v 0.05247558 0.01565668 -0.16095460
v 0.05245233 0.01566872 -0.16726784
v 0.04586752 0.00607402 -0.19000149
v 0.03974766 0.00607402 -0.19000524
v 0.03362198 0.00605394 -0.19000897
v 0.01023515 0.00597365 -0.18991578
v 0.05811306 0.00603387 -0.18998287
v 0.01023515 0.00676050 -0.18688215
v 0.01023515 0.00692911 -0.18620387
v 0.01023515 0.00808931 -0.18104220
v 0.05241746 0.01563259 -0.17358110
v 0.06747593 0.00570067 -0.18417647
v 0.06672039 0.00512258 -0.18838406
v 0.06263467 0.00586526 -0.18977416
v 0.01023515 0.00920133 -0.17522836
v 0.01023515 0.00924950 -0.16785669
v 0.01023515 0.00924950 -0.16726784
v 0.01023515 0.00924147 -0.16095460
v 0.01023515 0.00922140 -0.15463763
v 0.01523914 0.00742289 -0.15463017
v 0.06754567 0.00576088 -0.15463017
v 0.06871966 0.00264562 -0.15463017
v 0.06756892 0.00578096 -0.16095460
v 0.06760379 0.00581307 -0.17358110
v 0.06758635 0.00580103 -0.17989061
v 0.05199320 0.00264963 -0.19170840
v 0.04586752 0.00264963 -0.19172330
v 0.03974766 0.00264963 -0.19173448
v 0.05811306 0.00264963 -0.19168977
v 0.03362198 0.00264963 -0.19173820
v 0.02749630 0.00264963 -0.19171585
v 0.02749630 0.00602584 -0.18999032
v 0.01023515 0.00536746 -0.19022885
v 0.06874291 0.00264963 -0.17989061
v 0.06816172 0.00297882 -0.18624859
v 0.06778977 0.00126864 -0.18993443
v 0.06450027 0.00297882 -0.19063508
v 0.01023515 -0.01032931 -0.15463017
v 0.06960306 -0.00313931 -0.15463017
v 0.06960306 -0.00313128 -0.15463763
v 0.06874291 0.00264963 -0.16095460
v 0.06876034 0.00264963 -0.16726784
v 0.06877197 0.00264963 -0.17358110
v 0.05199320 -0.00313128 -0.19269973
v 0.05811306 -0.00313128 -0.19268110
v 0.06423873 -0.00313128 -0.19176430
v 0.03362198 -0.00313128 -0.19270346
v 0.02749630 -0.00313128 -0.19269973
v 0.01023515 -0.00313128 -0.19266990
v 0.01023515 0.00264963 -0.19162268
v 0.06952751 -0.00313128 -0.17989061
v 0.06903931 -0.00313128 -0.18620387
v 0.06793506 -0.00313128 -0.19011331
v 0.01023515 -0.01429164 -0.15463763
v 0.01524495 -0.01429566 -0.15463017
v 0.06960887 -0.00313128 -0.16095460
v 0.06843488 -0.00885598 -0.15463017
v 0.05811306 -0.00786440 -0.19097420
v 0.05199320 -0.00788848 -0.19098165
v 0.06423873 -0.00729434 -0.19048226
v 0.06766190 -0.00651150 -0.18978907
v 0.02137063 -0.00783630 -0.19097047
v 0.01023515 -0.00781221 -0.19096302
v 0.06842907 -0.00878774 -0.16095460
v 0.06840001 -0.00871548 -0.16726784
v 0.06838257 -0.00856292 -0.17358110
v 0.06837095 -0.00810928 -0.17989061
v 0.06809779 -0.00728229 -0.18620387
v 0.01023515 -0.01434383 -0.17358110
v 0.05379487 -0.02369365 -0.17358110
v 0.05424819 -0.02357322 -0.16998098
v 0.05199320 -0.01437193 -0.15463017
v 0.06843488 -0.00885598 -0.15463763
v 0.06724927 -0.01175045 -0.15463017
v 0.05595686 -0.01802515 -0.18334539
v 0.05392272 -0.01802515 -0.18334539
v 0.02749630 -0.00785235 -0.19097047
v 0.06225109 -0.01889630 -0.17828436
v 0.06003678 -0.01697334 -0.18249195
v 0.01023515 -0.00833811 -0.19030338
v 0.05417845 -0.02359329 -0.17717003
v 0.06719696 -0.01160593 -0.16726784
v 0.06573238 -0.01469310 -0.17358110
v 0.06284389 -0.01962293 -0.17358110
v 0.01023515 -0.01361720 -0.17989061
v 0.05614285 -0.02369365 -0.17358110
v 0.05579414 -0.02357322 -0.16998098
v 0.05811306 -0.01436391 -0.15463017
v 0.05919987 -0.02251338 -0.17358110
v 0.06232664 -0.01899265 -0.16868405
v 0.06419224 -0.01306721 -0.15463017
v 0.05790383 -0.02038569 -0.17983099
v 0.05576508 -0.02359329 -0.17717003
v 0.01023515 -0.01070266 -0.18733310
v 0.01023515 -0.01234059 -0.18417647
f 494 495 496
f 494 496 497
f 494 497 498
f 494 498 499
f 494 499 500
f 494 500 501
f 494 501 502
f 494 502 495
f 495 503 504
f 495 504 496
f 495 502 505
f 495 505 506
f 495 506 503
f 496 504 507
f 496 507 508
f 496 508 497
f 497 508 498
f 498 508 509
f 498 509 499
f 499 509 510
f 499 510 511
f 499 511 500
f 500 511 512
f 500 512 501
f 501 513 514
f 501 514 515
f 501 515 502
f 501 512 513
f 502 515 516
f 502 516 505
f 503 517 518
f 503 518 519
f 503 519 520
f 503 520 504
f 503 506 521
f 503 521 517
f 504 520 522
f 504 522 523
f 504 523 524
f 504 524 507
f 505 516 525
f 505 525 506
f 506 525 526
f 506 526 527
f 506 527 528
f 506 528 521
f 507 524 529
f 507 529 530
f 507 530 531
f 507 531 508
f 508 531 532
f 508 532 533
f 508 533 509
f 509 533 510
f 510 533 534
f 510 534 552
f 510 552 569
f 510 569 586
f 510 586 602
f 510 602 605
f 510 605 588
f 510 588 571
f 510 571 553
f 510 553 536
f 510 536 535
f 510 535 513
f 510 513 512
f 510 512 511
f 513 535 514
f 514 535 536
f 514 536 537
f 514 537 515
f 515 537 538
f 515 538 516
f 516 538 539
f 516 539 525
f 517 540 541
f 517 541 542
f 517 542 518
f 517 521 543
f 517 543 540
f 518 542 544
f 518 544 519
f 519 544 545
f 519 545 546
f 519 546 520
f 520 547 564
f 520 564 563
f 520 563 577
f 520 577 594
f 520 594 608
f 520 608 609
f 520 609 599
f 520 599 583
f 520 583 568
f 520 568 552
f 520 552 533
f 520 533 532
f 520 532 531
f 520 531 530
f 520 530 529
f 520 529 524
f 520 524 523
f 520 523 522
f 520 546 547
f 521 528 543
f 525 539 526
f 526 539 548
f 526 548 549
f 526 549 527
f 527 549 550
f 527 550 551
f 527 551 528
f 528 551 543
f 533 552 534
f 536 553 554
f 536 554 555
f 536 555 537
f 537 555 538
f 538 555 556
f 538 556 557
f 538 557 539
f 539 557 548
f 540 558 541
f 540 543 559
f 540 559 558
f 541 558 542
f 542 558 544
f 543 551 560
f 543 560 559
f 544 561 562
f 544 562 563
f 544 563 545
f 544 558 561
f 545 563 564
f 545 564 546
f 546 564 547
f 548 557 565
f 548 565 566
f 548 566 549
f 549 566 550
f 550 566 567
f 550 567 560
f 550 560 551
f 552 568 569
f 553 570 554
f 553 571 570
f 554 570 557
f 554 557 556
f 554 556 555
f 557 570 565
f 558 559 572
f 558 572 573
f 558 573 561
f 559 560 574
f 559 574 572
f 560 567 575
f 560 575 574
f 561 573 562
f 562 576 577
f 562 577 563
f 562 573 576
f 565 570 578
f 565 578 579
f 565 579 580
f 565 580 581
f 565 581 582
f 565 582 566
f 566 582 575
f 566 575 567
f 568 583 584
f 568 584 585
f 568 585 586
f 568 586 569
f 570 571 587
f 570 587 578
f 571 588 587
f 572 589 573
f 572 574 589
f 573 589 590
f 573 590 591
f 573 591 576
f 574 575 589
f 575 582 592
f 575 592 593
f 575 593 589
f 576 591 590
f 576 590 577
f 577 590 595
f 577 595 594
f 578 587 588
f 578 588 596
f 578 596 579
f 579 596 580
f 580 596 597
f 580 597 581
f 581 597 582
f 582 597 598
f 582 598 592
f 583 599 595
f 583 595 584
f 584 595 607
f 584 607 600
f 584 600 601
f 584 601 585
f 585 601 586
f 586 601 602
f 588 603 604
f 588 604 598
f 588 598 597
f 588 597 596
f 588 605 601
f 588 601 603
f 589 606 607
f 589 607 595
f 589 595 590
f 589 593 606
f 592 598 603
f 592 603 607
f 592 607 606
f 592 606 593
f 594 595 608
f 595 599 609
f 595 609 608
f 598 604 603
f 600 603 601
f 600 607 603
f 601 605 602

o geometry_5
v -0.06895313 -0.00312720 -0.11016656
v -0.06899376 -0.00312720 -0.06625084
v -0.06851976 0.00265526 -0.05993821
v -0.06850622 0.00265526 -0.06625084
v -0.06838434 0.00265526 -0.11016656
v -0.06819474 -0.00722170 -0.11016656
v -0.06819474 -0.00752486 -0.06625084
v -0.06818120 -0.00752486 -0.05361877
v -0.06816765 -0.00750240 -0.04052994
v -0.06896668 -0.00312720 -0.04730614
v -0.06892605 -0.00270053 -0.04052994
v -0.06850622 0.00265526 -0.04052994
v -0.06772074 0.00584029 -0.04730614
v -0.06772074 0.00584404 -0.05361877
v -0.06772074 0.00584778 -0.05993821
v -0.06835725 0.00279000 -0.11016656
v -0.06815411 -0.00740509 -0.11016656
v -0.06807285 -0.00753235 -0.11016656
v -0.06635292 -0.01042545 -0.05993821
v -0.06635292 -0.01041796 -0.05361877
v -0.06635292 -0.01040673 -0.04730614
v -0.06895313 -0.00312720 -0.04052994
v -0.06633938 -0.01039176 -0.04052994
v -0.06770720 0.00584029 -0.04052994
v -0.04943798 0.02327001 -0.04730614
v -0.06759885 0.00571678 -0.11016656
v -0.06770720 0.00582907 -0.06625084
v -0.06620395 -0.01029819 -0.11016656
v -0.06632583 -0.01041796 -0.06625084
v -0.06327870 -0.01281328 -0.11016656
v -0.06326516 -0.01297422 -0.06625084
v -0.06329225 -0.01298545 -0.05361877
v -0.06350893 -0.01280206 -0.04052994
v -0.05123917 0.01986042 -0.04052994
v -0.04922129 0.02305668 -0.04391122
v -0.04599811 0.02375282 -0.04730614
v -0.04486052 0.02388756 -0.07256347
v -0.04935672 0.02319890 -0.05361877
v -0.04728468 0.02178042 -0.08518191
v -0.04422400 0.02357691 -0.08518191
v -0.04350623 0.02319516 -0.08880860
v -0.05225488 0.01313106 -0.11016656
v -0.06314328 -0.01292556 -0.11016656
v -0.06292659 -0.01298170 -0.11016656
v -0.05825433 -0.01416814 -0.11016656
v -0.06327870 -0.01299293 -0.04099350
v -0.06327870 -0.01299293 -0.04052994
v -0.05825433 -0.01420182 -0.08518191
v -0.05825433 -0.01424299 -0.04730614
v -0.05825433 -0.01424673 -0.04099350
v -0.04599811 0.02108802 -0.04052994
v -0.04599811 0.02318019 -0.04374761
v -0.04154253 0.02388756 -0.07256347
v -0.04268013 0.02310908 -0.04384987
v 0.02136372 0.01877130 -0.04052994
v 0.02136372 0.01941878 -0.04730614
v 0.02748506 0.02002135 -0.07256347
v -0.04472509 0.02382393 -0.07886928
v -0.04196236 0.02357691 -0.08518191
v -0.04599811 0.01477784 -0.11016656
v -0.04621479 0.01473667 -0.11016656
v -0.04249053 0.02319516 -0.08880860
v 0.02748506 0.01999890 -0.10412662
v 0.02136372 0.01846439 -0.10919171
v 0.00354141 0.01748755 -0.11016656
v -0.05211945 -0.01428416 -0.11016656
v -0.05825433 -0.01424673 -0.04052994
v -0.05211945 -0.01429913 -0.04730614
v -0.04163733 0.02382393 -0.07886928
v 0.02748506 0.02005504 -0.09780717
v 0.04586262 0.01640966 -0.04052994
v 0.04586262 0.01642463 -0.04099350
v 0.04586262 0.01649574 -0.04730614
v 0.03328137 0.01852053 -0.10412662
v 0.03236046 0.01803024 -0.10863271
v 0.02748506 0.01852053 -0.10929397
v 0.02748506 0.01759609 -0.11016656
v 0.05810530 -0.01432533 -0.11016656
v 0.05810530 -0.01434404 -0.09149454
v -0.05211945 -0.01429913 -0.04052994
v 0.05810530 -0.01434779 -0.04730614
v 0.05153705 0.01458322 -0.04052994
v 0.05198396 0.01445223 -0.04099350
v 0.05198396 0.01460942 -0.04730614
v 0.05198396 0.01441854 -0.05361877
v 0.06731440 0.00555959 -0.11016656
v 0.05837615 -0.01427293 -0.11016656
v 0.06421310 -0.01307901 -0.09149454
v 0.06422664 -0.01307901 -0.08518191
v 0.06422664 -0.01308276 -0.07256347
v 0.05810530 -0.01434404 -0.04052994
v 0.06421310 -0.01308276 -0.04052994
v 0.05856576 -0.01425048 -0.04052994
v 0.05198396 0.01442229 -0.04052994
v 0.06742274 0.00566439 -0.04052994
v 0.06743628 0.00567187 -0.04730614
v 0.06744982 0.00568310 -0.05993821
v 0.06835719 0.00265526 -0.11016656
v 0.06414539 -0.01306779 -0.11016656
v 0.06728731 -0.01179153 -0.08518191
v 0.06728731 -0.01178779 -0.07886928
v 0.06728731 -0.01178404 -0.07256347
v 0.06727377 -0.01176533 -0.04052994
v 0.06839782 0.00265526 -0.04052994
v 0.06841136 0.00265526 -0.04730614
v 0.06841136 0.00265526 -0.05993821
v 0.06935936 -0.00312720 -0.11016656
v 0.06707063 -0.01175036 -0.11016656
v 0.06727377 -0.01177282 -0.09149454
v 0.06831656 -0.00879737 -0.11016656
v 0.06830302 -0.00888346 -0.09149454
v 0.06828948 -0.00889843 -0.07886928
v 0.06823531 -0.00887223 -0.04052994
v 0.06846554 0.00222860 -0.04052994
v 0.06921039 -0.00312720 -0.04052994
v 0.06720605 -0.01168673 -0.11016656
v 0.06726023 -0.01156323 -0.11016656
f 610 611 612
f 610 612 613
f 610 613 614
f 610 614 625
f 610 625 635
f 610 635 651
f 610 651 670
f 610 670 669
f 610 669 674
f 610 674 686
f 610 686 695
f 610 695 707
f 610 707 716
f 610 716 719
f 610 719 726
f 610 726 725
f 610 725 717
f 610 717 708
f 610 708 696
f 610 696 687
f 610 687 675
f 610 675 654
f 610 654 653
f 610 653 652
f 610 652 639
f 610 639 637
f 610 637 627
f 610 627 626
f 610 626 615
f 610 615 616
f 610 616 611
f 611 616 617
f 611 617 618
f 611 618 619
f 611 619 620
f 611 620 621
f 611 621 612
f 612 621 622
f 612 622 623
f 612 623 624
f 612 624 613
f 613 624 625
f 613 625 614
f 615 626 616
f 616 626 627
f 616 627 628
f 616 628 629
f 616 629 617
f 617 629 630
f 617 630 618
f 618 631 619
f 618 630 632
f 618 632 642
f 618 642 656
f 618 656 676
f 618 676 689
f 618 689 700
f 618 700 702
f 618 702 701
f 618 701 712
f 618 712 722
f 618 722 724
f 618 724 723
f 618 723 713
f 618 713 704
f 618 704 703
f 618 703 691
f 618 691 680
f 618 680 664
f 618 664 660
f 618 660 643
f 618 643 633
f 618 633 621
f 618 621 620
f 618 620 631
f 619 631 620
f 621 633 622
f 622 633 634
f 622 634 623
f 623 634 624
f 624 635 636
f 624 636 625
f 624 634 635
f 625 636 635
f 627 637 628
f 628 637 638
f 628 638 639
f 628 639 640
f 628 640 641
f 628 641 642
f 628 642 629
f 629 642 630
f 630 642 632
f 633 643 644
f 633 644 634
f 634 644 645
f 634 645 646
f 634 646 647
f 634 647 635
f 635 647 648
f 635 648 649
f 635 649 650
f 635 650 651
f 637 639 638
f 639 652 640
f 640 652 653
f 640 653 654
f 640 654 641
f 641 655 656
f 641 656 642
f 641 654 657
f 641 657 658
f 641 658 659
f 641 659 655
f 643 660 644
f 644 660 661
f 644 661 645
f 645 662 646
f 645 661 663
f 645 663 664
f 645 664 665
f 645 665 666
f 645 666 662
f 646 667 647
f 646 662 678
f 646 678 667
f 647 667 648
f 648 667 649
f 649 667 678
f 649 678 668
f 649 668 671
f 649 671 650
f 650 669 670
f 650 670 651
f 650 671 672
f 650 672 673
f 650 673 674
f 650 674 669
f 654 675 657
f 655 659 676
f 655 676 656
f 657 675 658
f 658 675 659
f 659 675 677
f 659 677 689
f 659 689 676
f 660 664 661
f 661 664 663
f 662 666 679
f 662 679 672
f 662 672 678
f 664 680 665
f 665 680 666
f 666 680 681
f 666 681 682
f 666 682 679
f 668 678 672
f 668 672 671
f 672 679 682
f 672 682 683
f 672 683 684
f 672 684 685
f 672 685 673
f 673 685 674
f 674 685 686
f 675 687 688
f 675 688 677
f 677 688 690
f 677 690 689
f 680 691 681
f 681 691 692
f 681 692 693
f 681 693 682
f 682 693 694
f 682 694 683
f 683 694 695
f 683 695 684
f 684 686 685
f 684 695 686
f 687 696 688
f 688 696 697
f 688 697 698
f 688 698 699
f 688 699 690
f 689 690 700
f 690 699 701
f 690 701 702
f 690 702 700
f 691 703 692
f 692 703 704
f 692 704 693
f 693 704 705
f 693 705 706
f 693 706 695
f 693 695 694
f 695 706 707
f 696 708 697
f 697 708 709
f 697 709 698
f 698 709 699
f 699 709 701
f 701 709 710
f 701 710 711
f 701 711 712
f 704 713 705
f 705 713 714
f 705 714 706
f 706 714 715
f 706 715 707
f 707 715 716
f 708 717 718
f 708 718 709
f 709 718 719
f 709 719 720
f 709 720 710
f 710 720 711
f 711 720 712
f 712 720 721
f 712 721 722
f 713 723 714
f 714 723 716
f 714 716 715
f 716 724 722
f 716 722 721
f 716 721 720
f 716 720 719
f 716 723 724
f 717 725 718
f 718 725 726
f 718 726 719

o geometry_6
v -0.06907746 -0.00312780 -0.15463017
v -0.06906969 -0.00312780 -0.13569310
v -0.06858029 0.00265244 -0.12938653
v -0.06858029 0.00265244 -0.15463017
v -0.06823071 -0.00741757 -0.15463017
v -0.06823071 -0.00745828 -0.13569310
v -0.06823071 -0.00745515 -0.12938653
v -0.06906192 -0.00312780 -0.12938653
v -0.06903862 -0.00312780 -0.12307128
v -0.06854921 0.00265244 -0.12307128
v -0.06772576 0.00583063 -0.12307128
v -0.06774130 0.00584315 -0.12938653
v -0.06773353 0.00583689 -0.15463017
v -0.06614878 -0.01031395 -0.15463017
v -0.06619539 -0.01033587 -0.14200835
v -0.06620316 -0.01034839 -0.13569310
v -0.06620316 -0.01034839 -0.12938653
v -0.06620316 -0.01033587 -0.12307128
v -0.06621093 -0.01029830 -0.11016656
v -0.06821517 -0.00744575 -0.12307128
v -0.06819186 -0.00742697 -0.11675602
v -0.06819963 -0.00722030 -0.11016656
v -0.06899977 -0.00312780 -0.11675602
v -0.06839385 0.00265244 -0.11016656
v -0.06836277 0.00278395 -0.11016656
v -0.06760924 0.00571790 -0.11016656
v -0.06895317 -0.00312780 -0.11016656
v -0.05218901 0.01546227 -0.12938653
v -0.05221232 0.01544661 -0.15463017
v -0.06309581 -0.01293165 -0.15463017
v -0.06313465 -0.01294731 -0.14200835
v -0.06314242 -0.01295357 -0.13569310
v -0.06314242 -0.01295044 -0.12938653
v -0.06328225 -0.01281267 -0.11016656
v -0.06807534 -0.00753343 -0.11016656
v -0.06816079 -0.00740818 -0.11044511
v -0.06816079 -0.00740505 -0.11016656
v -0.05226670 0.01312950 -0.11016656
v -0.05212687 0.01521490 -0.11675602
v -0.05152094 0.01574721 -0.12348476
v -0.04908166 0.01711555 -0.12586984
v -0.04912827 0.01712808 -0.12938653
v -0.04913604 0.01713121 -0.13265951
v -0.04915158 0.01713747 -0.15463017
v -0.05824834 -0.01423737 -0.15463017
v -0.06314242 -0.01292539 -0.11016656
v -0.06293267 -0.01298175 -0.11016656
v -0.04621513 0.01473895 -0.11016656
v -0.04561697 0.01698717 -0.11729571
v -0.04740369 0.01708424 -0.12165677
v -0.04600539 0.01718444 -0.12938653
v -0.02151171 0.01750069 -0.11675602
v -0.04600539 0.01719070 -0.15463017
v -0.05824834 -0.01416848 -0.11016656
v -0.05212687 -0.01440646 -0.15463017
v -0.04600539 0.01477966 -0.11016656
v -0.04331753 0.01711555 -0.11975914
v -0.02488318 0.01720949 -0.11342212
v -0.02151171 0.01728151 -0.11330460
v -0.02151171 0.01753200 -0.12307128
v 0.00354130 0.01748817 -0.11016656
v -0.01538246 0.01752261 -0.11675602
v -0.02151171 0.01750069 -0.12938653
v -0.02151171 0.01735352 -0.15463017
v -0.05212687 -0.01428434 -0.11016656
v -0.05186274 -0.01428434 -0.11016656
v 0.01028425 -0.01429373 -0.15463017
v 0.01028425 -0.01426555 -0.11016656
v -0.00313173 0.01758210 -0.12307128
v -0.00313173 0.01756018 -0.12938653
v -0.00313950 0.01746625 -0.15463017
v 0.01028425 0.01662395 -0.11016656
v 0.00045726 0.01728464 -0.15463017
v 0.01028425 0.00920295 -0.15463017
v 0.00351800 0.01512722 -0.15463017
f 727 728 729
f 727 729 730
f 727 730 739
f 727 739 755
f 727 755 770
f 727 770 779
f 727 779 790
f 727 790 797
f 727 797 799
f 727 799 801
f 727 801 800
f 727 800 793
f 727 793 781
f 727 781 771
f 727 771 756
f 727 756 740
f 727 740 731
f 727 731 732
f 727 732 733
f 727 733 728
f 728 733 734
f 728 734 729
f 729 734 735
f 729 735 736
f 729 736 737
f 729 737 738
f 729 738 730
f 730 738 739
f 731 740 741
f 731 741 742
f 731 742 732
f 732 742 743
f 732 743 733
f 733 743 744
f 733 744 745
f 733 745 746
f 733 746 734
f 734 746 735
f 735 746 747
f 735 747 748
f 735 748 749
f 735 749 736
f 736 750 751
f 736 751 752
f 736 752 737
f 736 749 753
f 736 753 750
f 737 752 754
f 737 754 738
f 738 754 755
f 738 755 739
f 740 756 741
f 741 756 757
f 741 757 742
f 742 757 758
f 742 758 743
f 743 758 759
f 743 759 760
f 743 760 744
f 744 760 745
f 745 761 747
f 745 747 746
f 745 760 772
f 745 772 773
f 745 773 780
f 745 780 791
f 745 791 792
f 745 792 794
f 745 794 798
f 745 798 787
f 745 787 782
f 745 782 774
f 745 774 764
f 745 764 752
f 745 752 751
f 745 751 750
f 745 750 753
f 745 753 748
f 745 748 763
f 745 763 761
f 747 761 762
f 747 762 763
f 747 763 748
f 748 753 749
f 752 764 765
f 752 765 766
f 752 766 754
f 754 766 767
f 754 767 768
f 754 768 769
f 754 769 770
f 754 770 755
f 756 771 757
f 757 771 758
f 758 771 759
f 759 772 760
f 759 771 773
f 759 773 772
f 761 763 762
f 764 774 765
f 765 774 775
f 765 775 776
f 765 776 767
f 765 767 766
f 767 777 768
f 767 776 778
f 767 778 777
f 768 777 769
f 769 777 770
f 770 777 779
f 771 780 773
f 771 781 780
f 774 782 775
f 775 783 776
f 775 782 784
f 775 784 785
f 775 785 778
f 775 778 783
f 776 783 778
f 777 778 786
f 777 786 779
f 778 785 787
f 778 787 788
f 778 788 786
f 779 786 789
f 779 789 790
f 780 781 791
f 781 792 791
f 781 793 794
f 781 794 792
f 782 787 784
f 784 787 785
f 786 788 795
f 786 795 796
f 786 796 797
f 786 797 789
f 787 798 799
f 787 799 797
f 787 797 796
f 787 796 795
f 787 795 788
f 789 797 790
f 793 800 798
f 793 798 794
f 798 800 801
f 798 801 799

o geometry_7
v 0.02749425 0.01759544 -0.11016656
v 0.03560431 0.00995435 -0.11784531
v 0.01028425 0.01179196 -0.11640517
v 0.02319899 0.01748606 -0.11016656
v 0.06732096 0.00556033 -0.11016656
v 0.06739043 0.00562596 -0.11784531
v 0.06424133 0.00650726 -0.11784531
v 0.05806473 0.00777296 -0.11784531
v 0.05199231 0.00837300 -0.11784531
v 0.01028425 0.01037312 -0.11784531
v 0.01028425 0.01662350 -0.11016656
v 0.02136973 0.01741418 -0.11016656
v 0.06736727 0.00543532 -0.11016656
v 0.06846714 0.00265078 -0.11784531
v 0.01028425 -0.01426901 -0.11784531
v 0.01028425 -0.01426588 -0.11016656
v 0.06835715 0.00265078 -0.11016656
v 0.06935861 -0.00312770 -0.11016656
v 0.06926020 -0.00213077 -0.11784531
v 0.01028425 -0.01426901 -0.11555280
v 0.05705748 -0.01432213 -0.11784531
v 0.05811682 -0.01432526 -0.11675468
v 0.05225859 -0.01431901 -0.11016656
v 0.06942228 -0.00312770 -0.11784531
v 0.06832242 -0.00879680 -0.11016656
v 0.05811682 -0.01432213 -0.11784531
v 0.06313568 -0.01328457 -0.11784531
v 0.05837732 -0.01427213 -0.11016656
v 0.05811682 -0.01432526 -0.11016656
v 0.06853661 -0.00785924 -0.11784531
v 0.06834558 -0.00885305 -0.11784531
v 0.06721098 -0.01168760 -0.11016656
v 0.06725150 -0.01173760 -0.11675468
v 0.06418923 -0.01306581 -0.11784531
v 0.06418923 -0.01306581 -0.11675468
v 0.06414872 -0.01306581 -0.11016656
v 0.06725150 -0.01174385 -0.11784531
v 0.06707783 -0.01175010 -0.11016656
v 0.06721098 -0.01169072 -0.11044166
v 0.06472181 -0.01284392 -0.11784531
f 802 803 804
f 802 804 805
f 802 805 813
f 802 813 812
f 802 812 817
f 802 817 824
f 802 824 830
f 802 830 829
f 802 829 837
f 802 837 839
f 802 839 833
f 802 833 826
f 802 826 819
f 802 819 818
f 802 818 814
f 802 814 806
f 802 806 807
f 802 807 808
f 802 808 809
f 802 809 810
f 802 810 803
f 803 811 804
f 803 810 809
f 803 809 808
f 803 808 807
f 803 807 815
f 803 815 820
f 803 820 825
f 803 825 831
f 803 831 832
f 803 832 838
f 803 838 841
f 803 841 835
f 803 835 828
f 803 828 827
f 803 827 822
f 803 822 816
f 803 816 811
f 804 811 816
f 804 816 821
f 804 821 817
f 804 817 812
f 804 812 813
f 804 813 805
f 806 814 807
f 807 814 815
f 814 818 815
f 815 819 820
f 815 818 819
f 816 822 823
f 816 823 824
f 816 824 821
f 817 821 824
f 819 825 820
f 819 826 825
f 822 827 823
f 823 827 828
f 823 828 829
f 823 829 830
f 823 830 824
f 825 826 831
f 826 832 831
f 826 833 834
f 826 834 832
f 828 835 836
f 828 836 829
f 829 836 837
f 832 834 838
f 833 839 840
f 833 840 834
f 834 840 839
f 834 839 837
f 834 837 838
f 835 841 836
f 836 841 837
f 837 841 838

o geometry_8
v 0.01028425 -0.01429436 -0.15463017
v 0.01028425 -0.01426940 -0.11784531
v 0.01028425 0.00920444 -0.15463017
v 0.05198770 -0.01437547 -0.15463017
v 0.01028425 0.01037439 -0.11784531
v 0.05705692 -0.01432244 -0.11784531
v 0.03668134 0.01711329 -0.13897428
v 0.03708780 0.01705401 -0.14318351
v 0.03992145 0.01625533 -0.15463017
v 0.05811373 -0.01436611 -0.15463017
v 0.05811373 -0.01432244 -0.11784531
v 0.03560710 0.00995633 -0.11784531
v 0.04586748 0.01715697 -0.12615215
v 0.04217444 0.01715697 -0.12615575
v 0.03809816 0.01692610 -0.12776527
v 0.03662908 0.01714761 -0.13197449
v 0.03664069 0.01713825 -0.13569764
v 0.03974726 0.01733792 -0.13569764
v 0.03937563 0.01725368 -0.14145156
v 0.04116408 0.01723808 -0.14574001
v 0.04586748 0.01677322 -0.15463017
v 0.06418750 -0.01306825 -0.15463017
v 0.06421072 -0.01306513 -0.12306994
v 0.06419330 -0.01306825 -0.11784531
v 0.05198770 0.00837456 -0.11784531
v 0.04897985 0.01712577 -0.12620256
v 0.04586748 0.01737536 -0.12938559
v 0.03997372 0.01725056 -0.12967725
v 0.04586748 0.01749703 -0.13569764
v 0.04586748 0.01745959 -0.14200968
v 0.04586748 0.01729424 -0.14609649
v 0.04652363 0.01676699 -0.15463017
v 0.06724761 -0.01174855 -0.15463017
v 0.06725922 -0.01175479 -0.14832173
v 0.06727665 -0.01177663 -0.12938559
v 0.06421653 -0.01306201 -0.12938559
v 0.06727665 -0.01177039 -0.12306994
v 0.06472171 -0.01284362 -0.11784531
v 0.05806727 0.00777554 -0.11784531
v 0.06423976 0.00650888 -0.11784531
v 0.06739277 0.00562596 -0.11784531
v 0.05238255 0.01556584 -0.12938559
v 0.04932244 0.01722561 -0.12938559
v 0.04958955 0.01729736 -0.13569764
v 0.04956052 0.01728176 -0.14200968
v 0.04936309 0.01722873 -0.14583364
v 0.05157543 0.01545040 -0.15463017
v 0.06843216 -0.00885644 -0.15463017
v 0.06725342 -0.01174543 -0.11784531
v 0.06840894 -0.00887204 -0.14200968
v 0.06839733 -0.00887828 -0.13569764
v 0.06837991 -0.00888452 -0.12938559
v 0.06836249 -0.00887828 -0.12306994
v 0.06815926 -0.00935250 -0.11784531
v 0.06828120 0.00317687 -0.11784531
v 0.06745665 0.00568524 -0.12306994
v 0.05264966 0.01573743 -0.13569764
v 0.05262062 0.01573743 -0.14200968
v 0.06754955 0.00576011 -0.15463017
v 0.06960511 -0.00313461 -0.15463017
v 0.06834507 -0.00885332 -0.11784531
v 0.06958189 -0.00312837 -0.14832173
v 0.06846701 0.00265273 -0.11784531
v 0.06854830 0.00265273 -0.12306994
v 0.06860056 0.00265273 -0.12938559
v 0.06749149 0.00571644 -0.12938559
v 0.06750891 0.00573204 -0.13569764
v 0.06752052 0.00574452 -0.14200968
v 0.06871669 0.00264649 -0.15463017
v 0.06853669 -0.00785808 -0.11784531
v 0.06949479 -0.00312837 -0.12938559
v 0.06869346 0.00265273 -0.14832173
v 0.06926252 -0.00213002 -0.11784531
v 0.06866443 0.00265273 -0.14200968
v 0.06945995 -0.00312837 -0.12306994
v 0.06941930 -0.00312837 -0.11784531
f 842 843 846
f 842 846 844
f 842 844 850
f 842 850 862
f 842 862 873
f 842 873 888
f 842 888 900
f 842 900 910
f 842 910 901
f 842 901 889
f 842 889 874
f 842 874 863
f 842 863 851
f 842 851 845
f 842 845 843
f 843 845 847
f 843 847 852
f 843 852 865
f 843 865 879
f 843 879 890
f 843 890 895
f 843 895 902
f 843 902 911
f 843 911 917
f 843 917 914
f 843 914 904
f 843 904 896
f 843 896 882
f 843 882 881
f 843 881 880
f 843 880 866
f 843 866 853
f 843 853 846
f 844 846 848
f 844 848 849
f 844 849 850
f 845 851 852
f 845 852 847
f 846 853 854
f 846 854 855
f 846 855 856
f 846 856 857
f 846 857 858
f 846 858 848
f 848 858 859
f 848 859 860
f 848 860 849
f 849 860 861
f 849 861 850
f 850 861 862
f 851 863 864
f 851 864 865
f 851 865 852
f 853 866 867
f 853 867 854
f 854 867 868
f 854 868 855
f 855 868 869
f 855 869 857
f 855 857 856
f 857 869 859
f 857 859 858
f 859 869 870
f 859 870 871
f 859 871 860
f 860 871 861
f 861 871 872
f 861 872 862
f 862 872 873
f 863 874 875
f 863 875 876
f 863 876 877
f 863 877 864
f 864 877 876
f 864 876 865
f 865 876 878
f 865 878 879
f 866 880 867
f 867 880 881
f 867 881 882
f 867 882 883
f 867 883 884
f 867 884 868
f 868 884 870
f 868 870 869
f 870 884 885
f 870 885 886
f 870 886 871
f 871 886 887
f 871 887 872
f 872 887 873
f 873 887 888
f 874 889 875
f 875 889 876
f 876 889 878
f 878 890 879
f 878 889 891
f 878 891 892
f 878 892 893
f 878 893 894
f 878 894 895
f 878 895 890
f 882 896 897
f 882 897 898
f 882 898 883
f 883 898 884
f 884 898 885
f 885 898 899
f 885 899 886
f 886 899 887
f 887 899 888
f 888 899 900
f 889 901 891
f 891 901 892
f 892 901 893
f 893 901 894
f 894 902 895
f 894 901 903
f 894 903 902
f 896 904 905
f 896 905 897
f 897 905 906
f 897 906 907
f 897 907 898
f 898 907 908
f 898 908 909
f 898 909 900
f 898 900 899
f 900 909 908
f 900 908 910
f 901 910 913
f 901 913 903
f 902 903 911
f 903 912 911
f 903 913 915
f 903 915 912
f 904 914 905
f 905 914 906
f 906 915 907
f 906 914 916
f 906 916 912
f 906 912 915
f 907 915 913
f 907 913 908
f 908 913 910
f 911 912 916
f 911 916 917
f 914 917 916

