# https://github.com/mikedh/trimesh

o geometry_0
v -0.00533320 0.06562408 0.00107039
v -0.00496344 0.06562408 0.00301704
v -0.00476769 0.06708665 0.00272134
v -0.00487393 0.06720853 0.00107039
v -0.00466479 0.06701353 -0.00030951
v -0.00477020 0.06562408 -0.00042872
v -0.00529221 0.06339975 0.00107039
v -0.00496010 0.06339975 0.00302303
v -0.00395121 0.06562408 0.00410924
v -0.00396626 0.06339975 0.00411523
v -0.00261773 0.06691601 0.00447819
v -0.00333048 0.06728166 0.00337067
v -0.00330036 0.06779356 0.00107039
v -0.00330036 0.06723900 -0.00058456
v -0.00330036 0.06562408 -0.00117128
v -0.00470746 0.06117543 -0.00037078
v -0.00330036 0.06339975 -0.00118594
v -0.00330036 0.06117543 -0.00116130
v -0.00005954 0.00553678 -0.00223085
v -0.00118722 0.01003419 -0.00164746
v -0.00118220 0.00780986 -0.00161149
v -0.00115961 0.00553678 -0.00158352
v -0.00466981 0.05895110 -0.00033748
v -0.00522947 0.06117543 0.00107039
v -0.00492329 0.06117543 0.00298507
v -0.00286535 0.06339975 0.00456676
v -0.00285113 0.06562408 0.00455611
v -0.00391607 0.06117543 0.00407661
v -0.00281516 0.06117543 0.00455544
v -0.00181966 0.06691601 0.00447819
v -0.00109101 0.06723900 0.00331739
v -0.00109854 0.06758636 0.00107039
v -0.00109854 0.06709275 -0.00042539
v -0.00109854 0.06562408 -0.00092088
v -0.00109854 0.06339975 -0.00104275
v 0.00000404 0.01562243 -0.00220621
v -0.00000098 0.01562243 -0.00220621
v -0.00003193 0.01448284 -0.00221620
v -0.00007125 0.01225851 -0.00222952
v -0.00008714 0.01003419 -0.00223685
v -0.00008212 0.00780986 -0.00223551
v 0.00009857 0.00553678 -0.00223085
v -0.00113619 0.00553678 -0.00159818
v -0.00252906 0.00553678 -0.00049399
v -0.00461711 0.05672677 -0.00028487
v -0.00442888 0.04824995 -0.00006044
v -0.00486975 0.05895110 0.00291315
v -0.00439877 0.04676301 -0.00000516
v -0.00513828 0.05895110 0.00107039
v -0.00443474 0.04391099 0.00222186
v -0.00248472 0.00553678 0.00249891
v -0.00153857 0.06339975 0.00456676
v -0.00159462 0.06562408 0.00455611
v -0.00272063 0.05895110 0.00452947
v -0.00114121 0.00553678 0.00337400
v -0.00153774 0.06117543 0.00455544
v -0.00049455 0.06562408 0.00399469
v 0.00023326 0.06701353 0.00263210
v 0.00022322 0.06700743 0.00107039
v 0.00006511 0.06681851 -0.00009773
v 0.00013120 0.06562408 -0.00017831
v 0.00019561 0.06339975 -0.00025024
v 0.00119530 0.01225851 -0.00178998
v 0.00123044 0.01003419 -0.00184392
v 0.00004085 0.01448284 -0.00221620
v 0.00009439 0.01225851 -0.00222952
v 0.00013036 0.01003419 -0.00223685
v 0.00013287 0.00780986 -0.00223551
v 0.00119948 0.00553678 -0.00187522
v -0.00280428 0.00553678 0.00107039
v 0.00110244 0.00553678 0.00355781
v -0.00043766 0.06117543 0.00408926
v -0.00043850 0.06339975 0.00405862
v -0.00158877 0.05895110 0.00452947
v -0.00222790 0.04857294 0.00435831
v -0.00228562 0.05005988 0.00438295
v -0.00109687 0.00553678 0.00338532
v 0.00037715 0.06562408 0.00290249
v 0.00050765 0.06562408 0.00107039
v 0.00225522 0.02520836 -0.00010772
v 0.00231294 0.02337405 -0.00020429
v 0.00258148 0.01448284 -0.00061719
v 0.00264255 0.01225851 -0.00069778
v 0.00269525 0.01003419 -0.00075239
v 0.00273290 0.00780986 -0.00078369
v 0.00123295 0.00780986 -0.00187589
v 0.00123713 0.00553678 -0.00185324
v 0.00266764 0.00553678 0.00266873
v -0.00203047 0.05005988 0.00438295
v -0.00213922 0.04857294 0.00435831
v 0.00042650 0.06339975 0.00296642
v 0.00061975 0.06339975 0.00107039
v 0.00256726 0.01003419 0.00258948
v 0.00250954 0.01225851 0.00253287
v 0.00223263 0.02294747 0.00220388
v 0.00220001 0.02443442 0.00212996
v 0.00305915 0.01003419 0.00107039
v 0.00321308 0.00553678 0.00107039
v 0.00277389 0.00553678 -0.00073640
v 0.00275716 0.00553678 -0.00078302
v 0.00319886 0.00553678 0.00111901
f 1 2 3
f 1 3 4
f 1 4 5
f 1 5 6
f 1 6 7
f 1 7 8
f 1 8 2
f 2 9 3
f 2 8 10
f 2 10 9
f 3 11 12
f 3 12 13
f 3 13 4
f 3 9 11
f 4 13 5
f 5 13 14
f 5 14 15
f 5 15 6
f 6 16 7
f 6 15 17
f 6 17 18
f 6 18 19
f 6 19 20
f 6 20 21
f 6 21 22
f 6 22 16
f 7 16 23
f 7 23 24
f 7 24 25
f 7 25 8
f 8 25 10
f 9 10 26
f 9 26 27
f 9 27 11
f 10 25 28
f 10 28 29
f 10 29 26
f 11 27 53
f 11 53 30
f 11 30 12
f 12 31 13
f 12 30 31
f 13 32 33
f 13 33 14
f 13 31 32
f 14 33 15
f 15 33 34
f 15 34 35
f 15 35 36
f 15 36 37
f 15 37 38
f 15 38 39
f 15 39 17
f 16 22 23
f 17 39 40
f 17 40 41
f 17 41 19
f 17 19 18
f 19 41 68
f 19 68 42
f 19 42 69
f 19 69 87
f 19 87 100
f 19 100 99
f 19 99 98
f 19 98 101
f 19 101 88
f 19 88 71
f 19 71 77
f 19 77 55
f 19 55 51
f 19 51 70
f 19 70 44
f 19 44 22
f 19 22 43
f 19 43 21
f 19 21 20
f 21 43 22
f 22 44 23
f 23 45 46
f 23 46 24
f 23 44 45
f 24 47 25
f 24 46 48
f 24 48 49
f 24 49 50
f 24 50 47
f 25 47 51
f 25 51 28
f 26 52 53
f 26 53 27
f 26 29 56
f 26 56 52
f 28 54 29
f 28 51 55
f 28 55 54
f 29 54 74
f 29 74 56
f 30 53 57
f 30 57 58
f 30 58 31
f 31 58 32
f 32 58 59
f 32 59 60
f 32 60 33
f 33 60 34
f 34 60 61
f 34 61 35
f 35 61 62
f 35 62 63
f 35 63 36
f 36 63 64
f 36 64 65
f 36 65 38
f 36 38 37
f 38 65 66
f 38 66 39
f 39 66 67
f 39 67 40
f 40 67 68
f 40 68 41
f 42 68 69
f 44 70 49
f 44 49 48
f 44 48 46
f 44 46 45
f 47 50 51
f 49 70 50
f 50 70 51
f 52 56 71
f 52 71 72
f 52 72 73
f 52 73 53
f 53 73 57
f 54 55 75
f 54 75 76
f 54 76 89
f 54 89 74
f 55 77 75
f 56 74 71
f 57 73 78
f 57 78 58
f 58 79 59
f 58 78 79
f 59 79 60
f 60 79 61
f 61 79 80
f 61 80 81
f 61 81 82
f 61 82 83
f 61 83 62
f 62 83 63
f 63 83 84
f 63 84 64
f 64 84 85
f 64 85 86
f 64 86 66
f 64 66 65
f 66 86 67
f 67 86 68
f 68 86 69
f 69 86 87
f 71 88 72
f 71 74 89
f 71 89 90
f 71 90 75
f 71 75 77
f 72 88 73
f 73 91 78
f 73 88 91
f 75 90 89
f 75 89 76
f 78 92 79
f 78 91 93
f 78 93 94
f 78 94 95
f 78 95 96
f 78 96 97
f 78 97 92
f 79 92 80
f 80 97 81
f 80 92 97
f 81 97 82
f 82 97 83
f 83 97 98
f 83 98 84
f 84 98 85
f 85 98 99
f 85 99 100
f 85 100 86
f 86 100 87
f 88 101 93
f 88 93 91
f 93 101 94
f 94 101 97
f 94 97 95
f 95 97 96
f 97 101 98

o geometry_1
v -0.02405518 -0.00996081 0.00106718
v -0.02381038 -0.00996081 0.00324969
v -0.02404106 -0.00996081 -0.00111077
v -0.01818928 -0.06335098 -0.00111077
v -0.01819869 -0.06335098 0.00106718
v -0.02380567 -0.00996081 0.00328172
v -0.01774204 -0.06557936 0.00283332
v -0.02378684 -0.00996081 -0.00329786
v -0.01773262 -0.06557936 -0.00286776
v -0.01793976 -0.06557936 -0.00111077
v -0.01794918 -0.06557936 0.00106718
v -0.02330664 -0.00996081 0.00545966
v -0.01786444 -0.06355511 0.00346017
v -0.01760551 -0.06443399 0.00432494
v -0.01765259 -0.06675308 0.00234374
v -0.02327840 -0.00996081 -0.00548038
v -0.01760551 -0.06442832 -0.00436853
v -0.01785032 -0.06354944 -0.00350376
v -0.01764788 -0.06674741 -0.00238276
v -0.01770908 -0.06683246 -0.00111077
v -0.01770908 -0.06683246 0.00106718
v -0.02260518 -0.00996081 0.00761930
v -0.01748311 -0.06557936 0.00392229
v -0.01699350 -0.06557936 0.00543679
v -0.01735129 -0.06355511 0.00535900
v -0.01663100 -0.06720669 0.00314446
v -0.01608960 -0.06725205 0.00543679
v -0.01574594 -0.06703659 0.00718463
v -0.02256752 -0.00996081 -0.00766289
v -0.01734188 -0.06354944 -0.00537971
v -0.01699350 -0.06557936 -0.00548038
v -0.01748782 -0.06557936 -0.00396131
v -0.01574594 -0.06703659 -0.00720992
v -0.01609431 -0.06724638 -0.00548038
v -0.01663100 -0.06720102 -0.00318347
v -0.01650860 -0.06743350 -0.00111077
v -0.01650860 -0.06743917 0.00106718
v -0.02203083 -0.01121958 0.00874945
v -0.02210616 -0.00996081 0.00888672
v -0.01741720 -0.06112828 0.00595839
v -0.01535048 -0.06649225 0.00863964
v -0.01595779 -0.06568142 0.00779775
v -0.01641444 -0.06335098 0.00761930
v -0.01430535 -0.06784742 0.00543679
v -0.01449366 -0.06737679 0.00779775
v -0.01383457 -0.06712164 0.00980182
v -0.01336850 -0.06686648 0.01107381
v -0.02209674 -0.00996081 -0.00888455
v -0.02201671 -0.01111185 -0.00876101
v -0.01759139 -0.05760712 -0.00650987
v -0.01639090 -0.06335098 -0.00766289
v -0.01595308 -0.06564740 -0.00782761
v -0.01533636 -0.06644122 -0.00866950
v -0.01333555 -0.06682679 -0.01108537
v -0.01380162 -0.06708762 -0.00984999
v -0.01448425 -0.06737113 -0.00782761
v -0.01430535 -0.06783608 -0.00548038
v -0.01430535 -0.06787010 -0.00329786
v -0.01430535 -0.06788144 0.00324969
v -0.02156005 -0.00996081 0.00999857
v -0.01759610 -0.05766382 0.00648915
v -0.01668278 -0.06112828 0.00761930
v -0.01356623 -0.06557936 0.01130259
v -0.01478084 -0.06568142 0.00968286
v -0.01551055 -0.06500667 0.00887299
v -0.01563766 -0.06335098 0.00907431
v -0.01210681 -0.06787010 0.00761930
v -0.01210681 -0.06771701 0.00980182
v -0.01198441 -0.06712731 0.01187910
v -0.01116997 -0.06684380 0.01321972
v -0.01249285 -0.06557936 0.01239156
v -0.02156947 -0.00996081 -0.00998268
v -0.01561883 -0.06335098 -0.00908130
v -0.01550113 -0.06495564 -0.00889828
v -0.02031720 -0.01221186 -0.01178543
v -0.01474318 -0.06564740 -0.00971730
v -0.01352857 -0.06557936 -0.01130500
v -0.01114172 -0.06682112 -0.01323586
v -0.01196558 -0.06708762 -0.01189981
v -0.01245519 -0.06557936 -0.01239854
v -0.01210681 -0.06767731 -0.00984999
v -0.01210681 -0.06785876 -0.00766289
v 0.00330178 -0.06787010 -0.01421502
v -0.00329854 -0.06785876 -0.01421502
v 0.01430859 -0.06787577 -0.00329786
v 0.00330178 -0.06788144 0.01417143
v -0.00329854 -0.06788144 0.01417143
v -0.02033132 -0.01221186 0.01176929
v -0.02035015 -0.00996081 0.01217193
v -0.01274237 -0.06335098 0.01263406
v -0.01377808 -0.06335098 0.01154051
v -0.01487970 -0.06335098 0.01016329
v -0.01504448 -0.06112828 0.01038748
v -0.01519513 -0.05890558 0.01059338
v -0.01577418 -0.06112828 0.00929851
v -0.01977580 -0.01068659 0.01302298
v -0.00770033 -0.06787010 0.01198891
v -0.00990357 -0.06770000 0.01198891
v -0.00990357 -0.06710463 0.01364525
v -0.00717305 -0.06699690 0.01553951
v -0.00863718 -0.06623710 0.01515059
v -0.00973409 -0.06552833 0.01458323
v -0.01139123 -0.06557936 0.01340732
v -0.02033603 -0.00996081 -0.01218349
v -0.01531753 -0.05668288 -0.01081084
v -0.01516688 -0.05890558 -0.01060037
v -0.01501152 -0.06112828 -0.01038990
v -0.01484675 -0.06335098 -0.01017485
v -0.01964869 -0.01221186 -0.01287897
v -0.01975697 -0.01048246 -0.01304369
v -0.01374513 -0.06335098 -0.01154750
v -0.01270000 -0.06335098 -0.01264104
v -0.00712127 -0.06696854 -0.01556479
v -0.00990357 -0.06708195 -0.01364766
v -0.01135357 -0.06557936 -0.01341431
v -0.00971526 -0.06545461 -0.01458106
v -0.00859010 -0.06611802 -0.01516215
v -0.00990357 -0.06766597 -0.01203250
v -0.00770033 -0.06785308 -0.01203250
v 0.00770356 -0.06786443 -0.01203250
v -0.00109530 -0.06729174 -0.01631518
v 0.00109853 -0.06729174 -0.01630603
v 0.00330178 -0.06729174 -0.01613673
v 0.00550502 -0.06779639 -0.01421502
v -0.00550179 -0.06777938 -0.01421502
v -0.00329854 -0.06728607 -0.01615046
v 0.01430859 -0.06787010 0.00324969
v 0.01211005 -0.06786443 -0.00766289
v 0.01430859 -0.06783608 -0.00548038
v 0.01651183 -0.06739947 -0.00111077
v 0.01651183 -0.06740514 0.00106718
v 0.00770356 -0.06787010 0.01198891
v 0.00550502 -0.06781340 0.01417143
v 0.00330178 -0.06729741 0.01612060
v 0.00098084 -0.06718401 0.01652782
v -0.00098231 -0.06718401 0.01653239
v -0.00329854 -0.06729741 0.01612975
v -0.00550179 -0.06781907 0.01417143
v -0.01906022 -0.00996081 0.01397468
v -0.01164074 -0.06335098 0.01361322
v -0.01294480 -0.06112828 0.01282623
v -0.01309545 -0.05930817 0.01297265
v -0.01394756 -0.06112828 0.01173268
v -0.01533636 -0.05668288 0.01079013
v -0.01769967 -0.01163350 0.01536106
v -0.01780324 -0.00996081 0.01547545
v -0.01892369 -0.00996081 0.01413940
v -0.00782273 -0.06735412 0.01432242
v -0.00550179 -0.06722370 0.01584149
v -0.00164140 -0.06642988 0.01737886
v -0.00550179 -0.06557936 0.01663305
v -0.00782273 -0.06552833 0.01570422
v -0.00889140 -0.06475151 0.01531531
v -0.01016250 -0.06335098 0.01470676
v -0.02022304 -0.00996081 -0.01236652
v -0.01406525 -0.05890558 -0.01192727
v -0.01390990 -0.06112828 -0.01173510
v -0.01840584 -0.01227423 -0.01440262
v -0.01769025 -0.01157680 -0.01539550
v -0.01978051 -0.00996081 -0.01307572
v -0.01917791 -0.00996081 -0.01382153
v -0.01319902 -0.05774320 -0.01311690
v -0.01159837 -0.06335098 -0.01361563
v -0.00550179 -0.06719535 -0.01586220
v -0.00779448 -0.06732576 -0.01434771
v -0.00779448 -0.06545461 -0.01571121
v -0.00550179 -0.06557936 -0.01662631
v -0.00323263 -0.06556234 -0.01723943
v -0.00109530 -0.06632782 -0.01740872
v -0.01010600 -0.06335098 -0.01470460
v -0.00885373 -0.06463244 -0.01534059
v 0.00990680 -0.06767164 -0.01203250
v 0.01211005 -0.06770567 -0.00984999
v 0.00109853 -0.06626544 -0.01739500
v 0.00550502 -0.06720669 -0.01586220
v 0.00779771 -0.06733710 -0.01434771
v 0.01211005 -0.06786443 0.00761930
v 0.01430859 -0.06781907 0.00543679
v 0.01450160 -0.06737113 -0.00784591
v 0.01607872 -0.06724638 -0.00548038
v 0.01662482 -0.06718401 -0.00311484
v 0.01768878 -0.06679276 -0.00111077
v 0.01769349 -0.06680411 0.00106718
v 0.01662482 -0.06718968 0.00308955
v 0.01605988 -0.06722937 0.00543679
v 0.01211005 -0.06768298 0.00980182
v 0.00990680 -0.06767731 0.01198891
v 0.00780242 -0.06734845 0.01430412
v 0.00550502 -0.06721803 0.01582776
v 0.00016639 -0.06670771 0.01746122
v -0.00017257 -0.06670771 0.01746122
v -0.01041201 -0.06112828 0.01487148
v -0.01063799 -0.05890558 0.01502247
v -0.01184318 -0.06112828 0.01377794
v -0.01550584 -0.01163917 0.01753443
v -0.01320844 -0.05782259 0.01308246
v -0.01671103 -0.00996081 0.01656442
v -0.00098231 -0.06564173 0.01757561
v -0.00256884 -0.06494430 0.01752528
v -0.00329854 -0.06564173 0.01721872
v -0.00403296 -0.06377625 0.01736971
v -0.00528994 -0.06316387 0.01706773
v -0.00770033 -0.06335098 0.01609314
v -0.00906088 -0.06335098 0.01541597
v -0.01779853 -0.00996081 -0.01548701
v -0.01670632 -0.00996081 -0.01659428
v -0.01549642 -0.01158247 -0.01756887
v -0.01199383 -0.05890558 -0.01394049
v -0.01081217 -0.05668288 -0.01518503
v -0.01058149 -0.05890558 -0.01502946
v -0.01034610 -0.06112828 -0.01486932
v -0.00770033 -0.06335098 -0.01606810
v -0.00550179 -0.06335098 -0.01695575
v -0.00396705 -0.06335098 -0.01740872
v -0.00245114 -0.06480822 -0.01754141
v -0.00109530 -0.06521079 -0.01759632
v 0.00109853 -0.06515410 -0.01758717
v -0.00900438 -0.06335098 -0.01542753
v 0.00990680 -0.06708195 -0.01364308
v 0.01196882 -0.06710463 -0.01191811
v 0.01384722 -0.06711597 -0.00984999
v 0.00240730 -0.06472883 -0.01752769
v 0.00320291 -0.06551131 -0.01722113
v 0.00550502 -0.06557936 -0.01662174
v 0.00712450 -0.06697421 -0.01556479
v 0.01448277 -0.06735412 0.00777029
v 0.01574446 -0.06703091 -0.00724195
v 0.01762758 -0.06670771 -0.00226837
v 0.01792417 -0.06557936 -0.00111077
v 0.01793829 -0.06557936 0.00106718
v 0.01763228 -0.06671906 0.00225681
v 0.01572563 -0.06701391 0.00714345
v 0.01380015 -0.06709329 0.00980182
v 0.01197352 -0.06709329 0.01186080
v 0.00990680 -0.06708762 0.01360864
v 0.00712921 -0.06698556 0.01552578
v 0.00163522 -0.06640153 0.01737429
v 0.00098084 -0.06563039 0.01757103
v 0.00109853 -0.06335098 0.01784099
v -0.00109530 -0.06335098 0.01784556
v -0.00931039 -0.06112828 0.01556238
v -0.01085454 -0.05668288 0.01516432
v -0.01299188 -0.01221186 0.01949732
v -0.01097695 -0.05539576 0.01524210
v -0.01450308 -0.01231392 0.01826193
v -0.01314724 -0.01042576 0.01959341
v -0.01559529 -0.00996081 0.01763966
v -0.00329854 -0.06316387 0.01758476
v -0.00329854 -0.01221186 0.02300216
v -0.00550179 -0.01221186 0.02264527
v -0.00441900 -0.06229633 0.01745207
v -0.00570893 -0.06112828 0.01716839
v -0.00770033 -0.06112828 0.01637225
v -0.01561412 -0.00996081 -0.01766038
v -0.01560470 -0.00996081 -0.01766953
v -0.01411704 -0.00996081 -0.01888204
v -0.01311899 -0.01051081 -0.01961869
v -0.01449837 -0.01227990 -0.01828265
v -0.01094870 -0.05525967 -0.01527196
v -0.00924448 -0.06112828 -0.01556937
v -0.01294480 -0.01221186 -0.01951346
v -0.00990357 -0.01221186 -0.02111946
v -0.00770033 -0.06112828 -0.01633348
v -0.00430130 -0.06205819 -0.01747278
v -0.00655162 -0.05541277 -0.01747736
v -0.00871250 -0.01077731 -0.02182866
v -0.00786510 -0.00996081 -0.02219928
v -0.00550179 -0.00996081 -0.02284443
v -0.00109530 -0.06335098 -0.01779307
v -0.00329854 -0.01221186 -0.02298169
v -0.00329854 -0.00998916 -0.02321504
v -0.00109530 -0.01221186 -0.02316014
v 0.00109853 -0.06335098 -0.01778392
v -0.01184318 -0.01221186 -0.02014945
v 0.01114024 -0.06681545 -0.01323129
v 0.01337174 -0.06685514 -0.01111283
v 0.00284041 -0.06335098 -0.01760090
v 0.00394204 -0.06335098 -0.01740872
v 0.00330178 -0.00996081 -0.02323792
v 0.00550502 -0.00996081 -0.02288103
v 0.00779771 -0.06542626 -0.01570206
v 0.00550502 -0.06335098 -0.01695575
v 0.00858862 -0.06606132 -0.01516673
v 0.01536784 -0.06653194 -0.00869696
v 0.01697320 -0.06557936 -0.00548038
v 0.01746751 -0.06557936 -0.00382404
v 0.01759462 -0.06427522 -0.00429989
v 0.01772173 -0.06557936 -0.00273050
v 0.01818780 -0.06335098 -0.00111077
v 0.01820664 -0.06335098 0.00106718
v 0.01773586 -0.06557936 0.00273266
v 0.01759933 -0.06433759 0.00428376
v 0.01746751 -0.06557936 0.00382621
v 0.01695436 -0.06557936 0.00543679
v 0.01533018 -0.06641287 0.00859846
v 0.01334820 -0.06683246 0.01105093
v 0.01114966 -0.06682112 0.01319685
v 0.00859804 -0.06614070 0.01512314
v 0.00780242 -0.06547162 0.01568592
v 0.00550502 -0.06557936 0.01661018
v 0.00329236 -0.06563039 0.01720957
v 0.00254853 -0.06492162 0.01752070
v 0.00330178 -0.01221186 0.02298843
v 0.00109853 -0.01221186 0.02315773
v -0.00109530 -0.01221186 0.02315773
v -0.00973409 -0.00996081 0.02151970
v -0.01189026 -0.01221186 0.02012417
v -0.01251169 -0.00996081 0.01998232
v -0.01384870 -0.00996081 0.01906265
v -0.00329854 -0.00996081 0.02318976
v -0.00550179 -0.00996081 0.02285574
v -0.00789805 -0.00996081 0.02224720
v -0.00879724 -0.01106649 0.02181253
v -0.00607614 -0.05890558 0.01729193
v -0.00637744 -0.05709681 0.01738344
v -0.01315665 -0.00996081 -0.01964615
v -0.01241282 -0.00996081 -0.02007625
v -0.01225276 -0.00996081 -0.02016776
v -0.00979058 -0.00996081 -0.02143975
v -0.00734253 -0.01221186 -0.02209862
v -0.00552062 -0.00996081 -0.02283985
v -0.00881136 -0.00996081 -0.02186984
v -0.00332208 -0.00996081 -0.02321504
v 0.00109853 -0.00996081 -0.02339349
v -0.00109530 -0.00998916 -0.02338434
v 0.00970908 -0.06542626 -0.01457191
v 0.01135680 -0.06557936 -0.01340516
v 0.01245372 -0.06557936 -0.01243057
v 0.01356946 -0.06557936 -0.01133703
v 0.01479349 -0.06570410 -0.00973560
v 0.00431866 -0.06208654 -0.01747736
v 0.00788716 -0.00996081 -0.02225876
v 0.00770356 -0.06335098 -0.01604980
v 0.00883814 -0.06458141 -0.01532687
v 0.00657369 -0.05545813 -0.01748193
v 0.00770356 -0.06112828 -0.01632433
v 0.00876281 -0.01093040 -0.02184239
v 0.01552320 -0.06505203 -0.00893031
v 0.01596573 -0.06570410 -0.00784591
v 0.01641297 -0.06335098 -0.00766289
v 0.01734040 -0.06345872 -0.00536599
v 0.01783943 -0.06345872 -0.00346258
v 0.02258017 -0.00996081 -0.00768119
v 0.02324868 -0.00996081 -0.00550325
v 0.02376182 -0.00996081 -0.00332074
v 0.02376653 -0.00996081 -0.00329786
v 0.02403958 -0.00996081 -0.00111077
v 0.02403488 -0.00998916 0.00106718
v 0.02378066 -0.00996081 0.00324969
v 0.01786297 -0.06349841 0.00343271
v 0.01734040 -0.06349841 0.00533612
v 0.02327692 -0.00996081 0.00543679
v 0.02258959 -0.00996081 0.00761930
v 0.01593748 -0.06563039 0.00777029
v 0.01639414 -0.06335098 0.00761930
v 0.01550907 -0.06492729 0.00886384
v 0.01475112 -0.06563039 0.00967371
v 0.01355063 -0.06557936 0.01127971
v 0.01247255 -0.06557936 0.01236868
v 0.01137093 -0.06557936 0.01337987
v 0.00972791 -0.06547162 0.01454662
v 0.00887109 -0.06466079 0.01530158
v 0.00770356 -0.06335098 0.01607942
v 0.00528376 -0.06313552 0.01706773
v 0.00401736 -0.06373089 0.01736513
v 0.00329236 -0.06313552 0.01757561
v 0.00550502 -0.01221186 0.02263154
v 0.00550502 -0.00996081 0.02286032
v 0.00330648 -0.00996081 0.02320348
v 0.00109853 -0.00996081 0.02334990
v -0.00107176 -0.00996081 0.02333617
v -0.00111884 -0.00996081 -0.02338434
v 0.01008099 -0.06335098 -0.01469545
v 0.01160632 -0.06335098 -0.01360648
v 0.01270794 -0.06335098 -0.01265477
v 0.01376719 -0.06335098 -0.01156123
v 0.01486881 -0.06335098 -0.01020230
v 0.00976086 -0.00996081 -0.02152668
v 0.00897937 -0.06335098 -0.01540923
v 0.01082482 -0.05668288 -0.01518960
v 0.01057531 -0.05890558 -0.01502946
v 0.01032580 -0.06112828 -0.01486474
v 0.00770356 -0.05890558 -0.01658971
v 0.01564560 -0.06335098 -0.00911333
v 0.01758521 -0.05753908 -0.00648699
v 0.02039576 -0.00996081 -0.01232991
v 0.02160095 -0.00998916 -0.01004216
v 0.02211410 -0.00996081 -0.00895319
v 0.02403488 -0.00996081 0.00106718
v 0.01740631 -0.06112828 0.00590349
v 0.02211410 -0.00996081 0.00890045
v 0.02203407 -0.01121391 0.00875403
v 0.01562206 -0.06335098 0.00904686
v 0.01752401 -0.05890558 0.00624665
v 0.01758992 -0.05756743 0.00645712
v 0.02160095 -0.00996081 0.00998484
v 0.02035339 -0.01221186 0.01179217
v 0.01487352 -0.06335098 0.01014041
v 0.01377190 -0.06335098 0.01152679
v 0.01272677 -0.06335098 0.01261576
v 0.01162515 -0.06335098 0.01359492
v 0.01014219 -0.06335098 0.01468846
v 0.00904057 -0.06335098 0.01540224
v 0.00770356 -0.06112828 0.01636767
v 0.00569333 -0.06112828 0.01716839
v 0.00440340 -0.06224531 0.01744749
v 0.00807547 -0.00996081 0.02219230
v 0.00790129 -0.00996081 0.02223805
v 0.00552856 -0.00996081 0.02285574
v 0.01096606 -0.05531637 -0.01528111
v 0.01180404 -0.06112828 -0.01377120
v 0.01319755 -0.05772052 -0.01311232
v 0.01309868 -0.05890558 -0.01301624
v 0.01290567 -0.06112828 -0.01283322
v 0.01539608 -0.05541844 -0.01091608
v 0.01783472 -0.00996081 -0.01554192
v 0.01903050 -0.00996081 -0.01417842
v 0.01910582 -0.00996081 -0.01409148
v 0.01979787 -0.01096443 -0.01309860
v 0.01228895 -0.00996081 -0.02024096
v 0.00972320 -0.05668288 -0.01583475
v 0.01929884 -0.00996081 -0.01383525
v 0.02160095 -0.00996081 -0.01004673
v 0.01503359 -0.06112828 0.01035546
v 0.01978845 -0.01078865 0.01303670
v 0.02040046 -0.00996081 0.01217651
v 0.01540550 -0.05552050 0.01088622
v 0.01393196 -0.06112828 0.01171438
v 0.01310339 -0.05890558 0.01297722
v 0.01292450 -0.06112828 0.01280335
v 0.01182287 -0.06112828 0.01376421
v 0.01063180 -0.05890558 0.01501332
v 0.01039641 -0.06112828 0.01485776
v 0.00929479 -0.06112828 0.01555323
v 0.00606996 -0.05890558 0.01729193
v 0.00994917 -0.00996081 0.02143276
v 0.00879577 -0.01104381 0.02181253
v 0.01232190 -0.05685866 -0.01395422
v 0.01199706 -0.05890558 -0.01393591
v 0.01316459 -0.01082834 -0.01964615
v 0.01411557 -0.00996081 -0.01899185
v 0.01564089 -0.00996081 -0.01770156
v 0.01674251 -0.00996081 -0.01663546
v 0.01982611 -0.00996081 0.01309161
v 0.01909641 -0.00996081 0.01397011
v 0.01770290 -0.01163350 0.01536106
v 0.01319755 -0.05770918 0.01306873
v 0.01085307 -0.05668288 0.01515974
v 0.01550907 -0.01161649 0.01753443
v 0.01317401 -0.01074329 0.01960713
v 0.01190761 -0.01221186 0.02014704
v 0.01230307 -0.00996081 0.02017907
v 0.01781118 -0.00996081 0.01545257
v 0.01671427 -0.00996081 0.01655527
v 0.01562677 -0.00996081 0.01762136
v 0.01561264 -0.00996081 0.01763509
v 0.01412027 -0.00996081 0.01889335
v 0.01321167 -0.00996081 0.01963459
v 0.01232661 -0.00996081 0.02016534
f 102 103 107
f 102 107 113
f 102 113 123
f 102 123 140
f 102 140 161
f 102 161 190
f 102 190 240
f 102 240 248
f 102 248 247
f 102 247 298
f 102 298 348
f 102 348 410
f 102 410 409
f 102 409 407
f 102 407 413
f 102 413 412
f 102 412 411
f 102 411 472
f 102 472 471
f 102 471 470
f 102 470 469
f 102 469 510
f 102 510 509
f 102 509 508
f 102 508 537
f 102 537 553
f 102 553 560
f 102 560 559
f 102 559 558
f 102 558 557
f 102 557 556
f 102 556 555
f 102 555 554
f 102 554 546
f 102 546 545
f 102 545 527
f 102 527 497
f 102 497 492
f 102 492 454
f 102 454 453
f 102 453 450
f 102 450 490
f 102 490 448
f 102 448 447
f 102 447 446
f 102 446 445
f 102 445 444
f 102 444 489
f 102 489 524
f 102 524 487
f 102 487 523
f 102 523 519
f 102 519 518
f 102 518 517
f 102 517 544
f 102 544 543
f 102 543 542
f 102 542 521
f 102 521 479
f 102 479 433
f 102 433 381
f 102 381 380
f 102 380 425
f 102 425 473
f 102 473 424
f 102 424 369
f 102 369 422
f 102 422 368
f 102 368 423
f 102 423 420
f 102 420 419
f 102 419 418
f 102 418 417
f 102 417 357
f 102 357 356
f 102 356 355
f 102 355 307
f 102 307 306
f 102 306 262
f 102 262 261
f 102 261 256
f 102 256 205
f 102 205 173
f 102 173 149
f 102 149 130
f 102 130 117
f 102 117 109
f 102 109 104
f 102 104 105
f 102 105 106
f 102 106 103
f 103 106 108
f 103 108 107
f 104 109 105
f 105 110 111
f 105 111 112
f 105 112 106
f 105 109 110
f 106 112 108
f 107 108 114
f 107 114 115
f 107 115 113
f 108 112 116
f 108 116 115
f 108 115 114
f 109 117 118
f 109 118 119
f 109 119 110
f 110 120 111
f 110 119 118
f 110 118 120
f 111 120 121
f 111 121 112
f 112 121 122
f 112 122 116
f 113 115 123
f 115 116 124
f 115 124 125
f 115 125 126
f 115 126 123
f 116 122 127
f 116 127 128
f 116 128 129
f 116 129 125
f 116 125 124
f 117 130 118
f 118 131 132
f 118 132 133
f 118 133 120
f 118 130 131
f 120 134 135
f 120 135 136
f 120 136 121
f 120 133 132
f 120 132 134
f 121 136 137
f 121 137 138
f 121 138 122
f 122 138 127
f 123 139 140
f 123 126 141
f 123 141 139
f 125 129 142
f 125 142 143
f 125 143 144
f 125 144 126
f 126 144 141
f 127 138 128
f 128 138 145
f 128 145 146
f 128 146 129
f 129 147 148
f 129 148 142
f 129 146 147
f 130 149 150
f 130 150 151
f 130 151 131
f 131 152 132
f 131 151 152
f 132 153 154
f 132 154 134
f 132 152 153
f 134 154 155
f 134 155 156
f 134 156 157
f 134 157 135
f 135 157 158
f 135 158 137
f 135 137 136
f 137 158 159
f 137 159 138
f 138 159 160
f 138 160 145
f 139 161 140
f 139 141 162
f 139 162 163
f 139 163 161
f 141 144 163
f 141 163 162
f 142 164 165
f 142 165 166
f 142 166 143
f 142 148 164
f 143 166 144
f 144 167 163
f 144 166 167
f 145 160 168
f 145 168 169
f 145 169 146
f 146 169 147
f 147 170 148
f 147 169 170
f 148 170 171
f 148 171 172
f 148 172 164
f 149 173 152
f 149 152 151
f 149 151 150
f 152 174 175
f 152 175 153
f 152 173 176
f 152 176 174
f 153 175 154
f 154 175 177
f 154 177 178
f 154 178 155
f 155 179 180
f 155 180 156
f 155 178 181
f 155 181 179
f 156 180 182
f 156 182 157
f 157 182 158
f 158 182 183
f 158 183 159
f 159 184 160
f 159 183 185
f 159 185 184
f 160 184 186
f 160 186 187
f 160 187 188
f 160 188 168
f 161 189 190
f 161 163 167
f 161 167 189
f 164 172 191
f 164 191 192
f 164 192 193
f 164 193 165
f 165 193 166
f 166 193 167
f 167 193 194
f 167 194 195
f 167 195 196
f 167 196 197
f 167 197 189
f 168 188 198
f 168 198 169
f 169 198 199
f 169 199 170
f 170 200 171
f 170 199 200
f 171 200 201
f 171 201 202
f 171 202 203
f 171 203 204
f 171 204 172
f 172 204 191
f 173 205 176
f 174 206 207
f 174 207 208
f 174 208 209
f 174 209 175
f 174 176 210
f 174 210 206
f 175 209 177
f 176 205 211
f 176 211 210
f 177 209 178
f 178 209 212
f 178 212 213
f 178 213 181
f 179 214 215
f 179 215 180
f 179 181 216
f 179 216 217
f 179 217 218
f 179 218 214
f 180 215 219
f 180 219 182
f 181 213 216
f 182 219 220
f 182 220 183
f 183 220 185
f 184 221 186
f 184 185 222
f 184 222 223
f 184 223 224
f 184 224 225
f 184 225 221
f 185 220 226
f 185 226 227
f 185 227 222
f 186 228 187
f 186 221 229
f 186 229 230
f 186 230 231
f 186 231 232
f 186 232 228
f 187 228 233
f 187 233 234
f 187 234 235
f 187 235 236
f 187 236 237
f 187 237 188
f 188 237 238
f 188 238 239
f 188 239 198
f 189 197 190
f 190 197 240
f 191 241 242
f 191 242 192
f 191 204 241
f 192 242 243
f 192 243 244
f 192 244 194
f 192 194 193
f 194 244 195
f 195 245 197
f 195 197 196
f 195 244 245
f 197 246 247
f 197 247 248
f 197 248 240
f 197 245 244
f 197 244 246
f 198 239 199
f 199 239 249
f 199 249 200
f 200 249 201
f 201 249 250
f 201 250 251
f 201 251 252
f 201 252 253
f 201 253 202
f 202 253 254
f 202 254 203
f 203 254 255
f 203 255 204
f 204 255 241
f 205 256 211
f 206 257 258
f 206 258 212
f 206 212 207
f 206 210 211
f 206 211 259
f 206 259 260
f 206 260 257
f 207 212 208
f 208 212 209
f 211 256 261
f 211 261 262
f 211 262 260
f 211 260 259
f 212 258 263
f 212 263 213
f 213 263 264
f 213 264 216
f 214 265 266
f 214 266 215
f 214 218 267
f 214 267 268
f 214 268 269
f 214 269 270
f 214 270 265
f 215 266 219
f 216 264 271
f 216 271 272
f 216 272 217
f 217 272 218
f 218 272 267
f 219 226 220
f 219 266 226
f 221 225 273
f 221 273 274
f 221 274 229
f 222 227 270
f 222 270 223
f 223 270 275
f 223 275 224
f 224 275 276
f 224 276 225
f 225 276 277
f 225 277 273
f 226 266 265
f 226 265 227
f 227 265 270
f 228 278 233
f 228 232 279
f 228 279 278
f 229 274 230
f 230 274 280
f 230 280 281
f 230 281 231
f 231 281 282
f 231 282 283
f 231 283 284
f 231 284 232
f 232 284 285
f 232 285 286
f 232 286 279
f 233 278 287
f 233 287 288
f 233 288 234
f 234 288 289
f 234 289 290
f 234 290 235
f 235 290 291
f 235 291 236
f 236 291 237
f 237 291 292
f 237 292 238
f 238 292 250
f 238 250 239
f 239 250 249
f 241 255 293
f 241 293 294
f 241 294 295
f 241 295 242
f 242 295 243
f 243 295 296
f 243 296 297
f 243 297 244
f 244 297 246
f 246 296 298
f 246 298 247
f 246 297 296
f 250 292 251
f 251 299 300
f 251 300 301
f 251 301 252
f 251 292 299
f 252 301 302
f 252 302 303
f 252 303 304
f 252 304 253
f 253 304 254
f 254 304 305
f 254 305 255
f 255 305 293
f 257 263 258
f 257 260 263
f 260 262 306
f 260 306 307
f 260 307 308
f 260 308 263
f 263 309 264
f 263 308 309
f 264 309 310
f 264 310 311
f 264 311 312
f 264 312 271
f 267 272 313
f 267 313 268
f 268 313 314
f 268 314 315
f 268 315 269
f 269 316 270
f 269 315 316
f 270 316 317
f 270 317 318
f 270 318 275
f 271 312 272
f 272 312 319
f 272 319 313
f 273 277 320
f 273 320 321
f 273 321 274
f 274 321 322
f 274 322 280
f 275 318 323
f 275 323 324
f 275 324 325
f 275 325 276
f 276 325 326
f 276 326 277
f 277 326 320
f 278 279 287
f 279 286 327
f 279 327 287
f 280 322 328
f 280 328 281
f 281 328 329
f 281 329 282
f 282 329 283
f 283 329 330
f 283 330 331
f 283 331 284
f 284 331 332
f 284 332 285
f 285 332 286
f 286 332 333
f 286 333 327
f 287 327 334
f 287 334 335
f 287 335 288
f 288 335 336
f 288 336 289
f 289 336 337
f 289 337 290
f 290 337 338
f 290 338 291
f 291 338 339
f 291 339 340
f 291 340 341
f 291 341 292
f 292 341 299
f 293 305 342
f 293 342 294
f 294 343 295
f 294 342 344
f 294 344 343
f 295 343 345
f 295 345 344
f 295 344 346
f 295 346 296
f 296 346 344
f 296 344 347
f 296 347 348
f 296 348 298
f 299 341 300
f 300 349 302
f 300 302 301
f 300 341 350
f 300 350 351
f 300 351 349
f 302 349 352
f 302 352 303
f 303 352 353
f 303 353 304
f 304 353 354
f 304 354 305
f 305 354 342
f 307 355 308
f 308 355 356
f 308 356 357
f 308 357 358
f 308 358 359
f 308 359 309
f 309 360 310
f 309 359 360
f 310 361 319
f 310 319 311
f 310 360 358
f 310 358 362
f 310 362 361
f 311 319 312
f 313 319 363
f 313 363 364
f 313 364 314
f 314 365 315
f 314 364 366
f 314 366 367
f 314 367 368
f 314 368 365
f 315 365 369
f 315 369 316
f 316 370 317
f 316 369 371
f 316 371 372
f 316 372 373
f 316 373 370
f 317 370 374
f 317 374 318
f 318 374 323
f 319 361 375
f 319 375 363
f 320 326 376
f 320 376 321
f 321 376 377
f 321 377 322
f 322 377 328
f 323 378 379
f 323 379 324
f 323 374 380
f 323 380 381
f 323 381 378
f 324 379 325
f 325 382 326
f 325 379 383
f 325 383 382
f 326 382 384
f 326 384 376
f 327 333 334
f 328 377 385
f 328 385 386
f 328 386 329
f 329 386 387
f 329 387 388
f 329 388 389
f 329 389 330
f 330 389 390
f 330 390 391
f 330 391 331
f 331 392 332
f 331 391 392
f 332 392 393
f 332 393 394
f 332 394 395
f 332 395 333
f 333 395 396
f 333 396 397
f 333 397 334
f 334 397 335
f 335 397 398
f 335 398 336
f 336 398 337
f 337 398 399
f 337 399 400
f 337 400 401
f 337 401 338
f 338 401 402
f 338 402 403
f 338 403 339
f 339 403 340
f 340 403 404
f 340 404 405
f 340 405 341
f 341 405 406
f 341 406 350
f 342 354 407
f 342 407 408
f 342 408 344
f 343 344 345
f 344 408 347
f 347 408 407
f 347 407 409
f 347 409 410
f 347 410 348
f 349 351 352
f 350 406 411
f 350 411 412
f 350 412 351
f 351 412 413
f 351 413 352
f 352 413 353
f 353 413 414
f 353 414 415
f 353 415 354
f 354 415 416
f 354 416 414
f 354 414 407
f 357 417 358
f 358 375 362
f 358 360 359
f 358 417 418
f 358 418 419
f 358 419 375
f 361 362 375
f 363 375 420
f 363 420 364
f 364 420 367
f 364 367 366
f 365 368 421
f 365 421 422
f 365 422 369
f 367 420 423
f 367 423 368
f 368 422 421
f 369 424 371
f 370 373 425
f 370 425 374
f 371 424 372
f 372 426 373
f 372 424 473
f 372 473 426
f 373 426 425
f 374 425 380
f 375 419 420
f 376 384 427
f 376 427 428
f 376 428 429
f 376 429 377
f 377 429 430
f 377 430 431
f 377 431 385
f 378 381 379
f 379 381 432
f 379 432 383
f 381 433 432
f 382 383 434
f 382 434 435
f 382 435 384
f 383 436 437
f 383 437 434
f 383 432 433
f 383 433 438
f 383 438 436
f 384 435 427
f 385 431 439
f 385 439 440
f 385 440 386
f 386 440 441
f 386 441 442
f 386 442 388
f 386 388 387
f 388 443 389
f 388 442 444
f 388 444 445
f 388 445 446
f 388 446 447
f 388 447 443
f 389 443 447
f 389 447 390
f 390 447 448
f 390 448 391
f 391 448 449
f 391 449 450
f 391 450 392
f 392 450 451
f 392 451 393
f 393 452 395
f 393 395 394
f 393 451 450
f 393 450 453
f 393 453 454
f 393 454 452
f 395 455 396
f 395 452 456
f 395 456 455
f 396 455 457
f 396 457 458
f 396 458 397
f 397 458 459
f 397 459 460
f 397 460 398
f 398 460 461
f 398 461 462
f 398 462 399
f 399 462 463
f 399 463 400
f 400 463 464
f 400 464 401
f 401 464 465
f 401 465 466
f 401 466 402
f 402 466 403
f 403 466 467
f 403 467 468
f 403 468 404
f 404 468 469
f 404 469 470
f 404 470 405
f 405 470 471
f 405 471 406
f 406 471 472
f 406 472 411
f 407 414 413
f 414 416 415
f 425 426 473
f 427 435 474
f 427 474 428
f 428 474 475
f 428 475 476
f 428 476 429
f 429 476 430
f 430 476 477
f 430 477 478
f 430 478 431
f 431 478 439
f 433 479 438
f 434 480 435
f 434 437 480
f 435 480 481
f 435 481 482
f 435 482 483
f 435 483 474
f 436 484 437
f 436 438 484
f 437 484 479
f 437 479 480
f 438 479 484
f 439 478 485
f 439 485 441
f 439 441 440
f 441 486 442
f 441 485 487
f 441 487 488
f 441 488 489
f 441 489 486
f 442 486 489
f 442 489 444
f 448 490 449
f 449 490 450
f 452 491 456
f 452 454 491
f 454 492 493
f 454 493 491
f 455 456 457
f 456 494 457
f 456 491 495
f 456 495 496
f 456 496 493
f 456 493 492
f 456 492 497
f 456 497 498
f 456 498 494
f 457 459 458
f 457 494 499
f 457 499 459
f 459 499 500
f 459 500 501
f 459 501 460
f 460 501 461
f 461 501 502
f 461 502 503
f 461 503 462
f 462 503 463
f 463 503 504
f 463 504 464
f 464 504 505
f 464 505 506
f 464 506 465
f 465 506 507
f 465 507 466
f 466 507 468
f 466 468 467
f 468 508 509
f 468 509 510
f 468 510 469
f 468 507 508
f 474 483 475
f 475 483 482
f 475 482 481
f 475 481 511
f 475 511 512
f 475 512 513
f 475 513 514
f 475 514 476
f 476 514 515
f 476 515 477
f 477 516 478
f 477 515 514
f 477 514 513
f 477 513 517
f 477 517 518
f 477 518 519
f 477 519 520
f 477 520 516
f 478 516 520
f 478 520 485
f 479 521 480
f 480 521 522
f 480 522 481
f 481 522 511
f 485 520 487
f 487 520 523
f 487 524 488
f 488 524 489
f 491 493 495
f 493 496 495
f 494 525 499
f 494 498 526
f 494 526 525
f 497 527 498
f 498 527 526
f 499 525 500
f 500 525 528
f 500 528 529
f 500 529 530
f 500 530 531
f 500 531 501
f 501 531 502
f 502 531 532
f 502 532 533
f 502 533 534
f 502 534 503
f 503 534 504
f 504 534 535
f 504 535 505
f 505 536 506
f 505 535 537
f 505 537 538
f 505 538 536
f 506 536 508
f 506 508 507
f 508 538 537
f 508 536 538
f 511 539 540
f 511 540 512
f 511 522 541
f 511 541 542
f 511 542 539
f 512 540 513
f 513 540 539
f 513 539 542
f 513 542 543
f 513 543 544
f 513 544 517
f 519 523 520
f 521 542 541
f 521 541 522
f 525 526 528
f 526 527 545
f 526 545 546
f 526 546 547
f 526 547 529
f 526 529 528
f 529 548 530
f 529 547 548
f 530 548 532
f 530 532 531
f 532 549 533
f 532 548 550
f 532 550 551
f 532 551 549
f 533 549 551
f 533 551 535
f 533 535 534
f 535 551 552
f 535 552 537
f 537 552 553
f 546 554 547
f 547 554 555
f 547 555 550
f 547 550 548
f 550 555 556
f 550 556 557
f 550 557 551
f 551 557 558
f 551 558 559
f 551 559 560
f 551 560 553
f 551 553 552

o geometry_2
v -0.02714740 -0.00335184 0.00809844
v -0.02692239 0.00340318 0.00809844
v -0.02692775 -0.00555142 0.00809844
v -0.02669203 -0.00498035 0.00980646
v -0.02643488 -0.00448230 0.01093382
v -0.02672418 -0.00349497 0.00979137
v -0.02668132 0.00291097 0.00936154
v -0.02671346 0.00388954 0.00809844
v -0.02632774 0.00439343 0.00857917
v -0.02241694 -0.00995935 0.00809844
v -0.02210622 -0.00995935 0.00889212
v -0.02155978 -0.00995935 0.00999875
v -0.02459199 -0.00511472 0.01367495
v -0.02643488 -0.00435962 0.01093382
v -0.02209015 -0.00462836 0.01753967
v -0.02393305 -0.00331095 0.01484002
v -0.02463485 -0.00331095 0.01374847
v -0.02452234 0.00292266 0.01355807
v -0.02499914 0.00354193 0.01215357
v -0.02608130 0.00353463 0.00997613
v -0.02582951 0.00462127 0.00809844
v -0.02413126 0.00440511 0.01299061
v -0.02451163 0.00464610 0.01153521
v -0.02491878 0.00475272 0.00980646
v -0.02539022 0.00477609 0.00809844
v 0.02241258 -0.00995935 0.00809844
v -0.02048297 -0.00995935 0.01193677
v -0.02034904 -0.00995935 0.01217431
v -0.01905794 -0.00995935 0.01398036
v -0.02255087 -0.00510449 0.01635952
v -0.02209015 -0.00407335 0.01753967
v -0.01780434 -0.00995935 0.01547723
v -0.02076155 -0.00511034 0.01837671
v -0.01992582 -0.00468240 0.01974162
v -0.02269016 0.00113495 0.01616157
v -0.02184907 0.00113495 0.01725312
v -0.01984546 0.00232676 0.01966810
v -0.02252944 0.00335790 0.01594100
v -0.02369732 0.00354193 0.01424052
v -0.02215444 0.00455847 0.01545272
v -0.02260980 0.00467969 0.01417454
v -0.02328482 0.00479216 0.01215357
v -0.02311338 0.00495866 0.00980646
v -0.02311338 0.00490608 0.00809844
v 0.02651088 -0.00668627 0.00809844
v 0.02645731 -0.00666874 0.00884310
v 0.02211258 -0.00995935 0.00890532
v -0.01892401 -0.00995935 0.01414060
v -0.01992582 -0.00384258 0.01974162
v -0.01779363 -0.00995935 0.01548854
v -0.01671146 -0.00995935 0.01656878
v -0.01559715 -0.00995935 0.01764148
v -0.01384533 -0.00995935 0.01906106
v -0.01870972 -0.00512786 0.02025252
v -0.01612752 -0.00510449 0.02229800
v -0.01747219 -0.00331095 0.02171734
v -0.01733826 0.00113495 0.02161554
v -0.01342746 0.00256775 0.02412102
v -0.01597216 0.00335790 0.02219431
v -0.01707576 0.00335790 0.02136481
v -0.01861865 0.00318410 0.02016580
v -0.01928830 0.00380921 0.01914400
v -0.02040261 0.00318410 0.01846532
v -0.02162407 0.00335790 0.01703255
v -0.02004368 0.00458330 0.01768861
v -0.02083119 0.00469576 0.01625206
v -0.02091155 0.00490024 0.01417454
v -0.00990239 0.00490316 0.02290881
v -0.00770056 0.00491776 0.02290881
v 0.02311974 0.00487687 0.00980646
v 0.02311974 0.00485350 0.00809844
v 0.02697161 -0.00597644 0.00809844
v 0.02672517 -0.00550176 0.00966506
v 0.02650017 -0.00473790 0.01107333
v 0.02422869 -0.00665413 0.01310750
v 0.02160364 -0.00995935 0.00998744
v -0.01251137 -0.00995935 0.01998105
v -0.01349175 -0.00481239 0.02414741
v -0.01637396 -0.00331095 0.02245824
v -0.01623467 0.00113495 0.02235832
v -0.01461678 -0.00331095 0.02354979
v -0.01351318 -0.00331095 0.02416249
v -0.01210422 -0.00331095 0.02478462
v -0.00990239 -0.00331095 0.02562354
v -0.00720769 0.00272841 0.02637010
v -0.01202922 0.00332869 0.02439626
v -0.01270959 0.00405020 0.02368553
v -0.01550608 0.00451465 0.02188136
v -0.01782041 0.00456577 0.01981892
v -0.01861865 0.00469284 0.01846532
v -0.01430605 0.00486810 0.02072571
v -0.01202922 0.00474104 0.02293709
v -0.00990239 0.00465925 0.02430388
v -0.00770056 0.00474688 0.02459044
v -0.00109506 0.00482867 0.02509379
v 0.00110142 0.00483159 0.02509379
v 0.00770691 0.00488709 0.02290881
v 0.00990875 0.00484328 0.02290881
v 0.02091791 0.00479946 0.01417454
v 0.02319474 0.00472205 0.01204611
v 0.02469478 0.00468992 0.00980646
v 0.02481263 0.00475126 0.00809844
v 0.02716447 -0.00552805 0.00809844
v 0.02750733 -0.00382068 0.00809844
v 0.02757162 -0.00330072 0.00809844
v 0.02690196 -0.00325545 0.00997047
v 0.02650017 -0.00396089 0.01107333
v 0.02478585 -0.00331095 0.01398978
v 0.02410012 -0.00331095 0.01508322
v 0.02218758 -0.00485766 0.01765090
v 0.02457691 -0.00553536 0.01364290
v 0.02082684 -0.00537031 0.01844270
v 0.01781070 -0.00995935 0.01545461
v 0.01909644 -0.00995935 0.01397470
v 0.01982503 -0.00995935 0.01309241
v 0.02039825 -0.00995935 0.01217808
v -0.00973096 -0.00995935 0.02152128
v -0.01210422 -0.00523302 0.02445470
v -0.00727198 -0.00485474 0.02636444
v -0.00847200 -0.00331095 0.02609485
v -0.00736841 -0.00331095 0.02639272
v -0.00549872 -0.00331095 0.02681689
v -0.00329689 -0.00331095 0.02716943
v -0.00329689 0.00113495 0.02696771
v -0.00549872 0.00314174 0.02656427
v -0.00549872 0.00425322 0.02596289
v -0.01124170 0.00454532 0.02410028
v -0.00990239 0.00335790 0.02514658
v -0.01634717 0.00466217 0.02061826
v -0.01430605 0.00464172 0.02217357
v -0.00422905 0.00444016 0.02613633
v -0.00276117 0.00451903 0.02624190
v -0.00549872 0.00475564 0.02487134
v -0.00341475 0.00472351 0.02528232
v -0.00109506 0.00455409 0.02628526
v 0.00110142 0.00455555 0.02628526
v 0.00336754 0.00472789 0.02526346
v 0.00550508 0.00474834 0.02479404
v 0.00770691 0.00471329 0.02449052
v 0.00990875 0.00461835 0.02423224
v 0.01197665 0.00468992 0.02288619
v 0.01431241 0.00477755 0.02072571
v 0.01651424 0.00478631 0.01854073
v 0.01858214 0.00463734 0.01842196
v 0.02078933 0.00463150 0.01621059
v 0.02245008 0.00462127 0.01417454
v 0.02441084 0.00459352 0.01135423
v 0.02519836 0.00470452 0.00809844
v 0.02676268 0.00318702 0.00809844
v 0.02662339 0.00271964 0.00921072
v 0.02449120 0.00281604 0.01351659
v 0.02202150 0.00226249 0.01745861
v 0.02313046 -0.00331095 0.01635952
v 0.02003932 -0.00488103 0.01983777
v 0.02111077 -0.00331095 0.01869343
v 0.02001253 -0.00331095 0.01981326
v 0.01561422 -0.00995935 0.01763771
v 0.01671246 -0.00995935 0.01655747
v 0.01779998 -0.00995935 0.01546592
v -0.00789878 -0.00995935 0.02224709
v -0.00549872 -0.00519505 0.02656616
v -0.00329689 -0.00536301 0.02674714
v -0.00109506 -0.00331095 0.02735607
v -0.00109506 0.00113495 0.02713550
v -0.00109506 0.00335790 0.02690927
v -0.00341475 0.00356384 0.02664911
v 0.00110142 0.00335790 0.02690362
v 0.00268181 0.00451903 0.02624190
v 0.01115699 0.00452050 0.02406634
v 0.00414969 0.00441680 0.02610616
v 0.01431241 0.00458622 0.02206611
v 0.01629995 0.00459644 0.02058055
v 0.01776248 0.00453802 0.01975670
v 0.01997503 0.00454678 0.01761697
v 0.02210186 0.00452488 0.01538485
v 0.02397690 0.00429849 0.01281151
v 0.02613052 0.00420210 0.00821344
v 0.02615731 0.00422839 0.00809844
v 0.02487156 0.00347767 0.01204611
v 0.02238580 0.00314466 0.01621059
v 0.02144292 0.00374495 0.01684025
v 0.02065005 0.00303658 0.01826360
v 0.01985717 0.00232822 0.01967375
v 0.01770355 -0.00408650 0.02188325
v 0.01770355 -0.00461229 0.02188325
v 0.01854464 -0.00522718 0.02062957
v 0.01320882 -0.00995935 0.01963605
v 0.01414098 -0.00995935 0.01887819
v -0.00549872 -0.00995935 0.02285791
v -0.00329689 -0.00995935 0.02319160
v -0.00109506 -0.00542435 0.02684517
v 0.00110142 -0.00542143 0.02684894
v 0.00110142 -0.00331095 0.02733722
v 0.00110142 0.00113495 0.02709591
v 0.00330325 0.00113495 0.02689796
v 0.00550508 0.00304096 0.02651903
v 0.00336754 0.00354923 0.02663591
v 0.01197665 0.00328780 0.02436421
v 0.01340703 0.00249910 0.02410405
v 0.01542136 0.00447522 0.02182480
v 0.00550508 0.00415244 0.02588559
v 0.00712833 0.00261887 0.02632862
v 0.00990875 0.00335790 0.02505986
v 0.01923037 0.00381067 0.01907048
v 0.01858214 0.00318556 0.02012433
v 0.01699104 0.00335790 0.02130825
v 0.01589280 0.00335790 0.02213964
v 0.01470885 -0.00331095 0.02362897
v 0.01361061 -0.00490732 0.02419454
v 0.01651424 -0.00508843 0.02228291
v 0.01230344 -0.00995935 0.02018088
v -0.00107363 -0.00995935 0.02333676
v 0.00109606 -0.00995935 0.02334807
v 0.00112820 -0.00995935 0.02334807
v 0.00330325 -0.00995935 0.02320479
v 0.00330325 -0.00535425 0.02674903
v 0.00550508 -0.00516876 0.02656616
v 0.00330325 -0.00331095 0.02711853
v 0.00990875 -0.00331095 0.02563485
v 0.01211058 -0.00331095 0.02483740
v 0.01361061 -0.00331095 0.02419642
v 0.00550508 -0.00331095 0.02676411
v 0.00733726 -0.00331095 0.02637198
v 0.00843550 -0.00331095 0.02608542
v 0.00730512 -0.00482845 0.02636632
v 0.01211058 -0.00530459 0.02450937
v 0.00994625 -0.00995935 0.02143645
v 0.00550508 -0.00995935 0.02285979
v 0.00552651 -0.00995935 0.02285602
v 0.00789977 -0.00995935 0.02223955
v 0.00807121 -0.00995935 0.02219431
f 561 562 568
f 561 568 581
f 561 581 585
f 561 585 604
f 561 604 631
f 561 631 662
f 561 662 708
f 561 708 738
f 561 738 709
f 561 709 665
f 561 665 664
f 561 664 663
f 561 663 632
f 561 632 605
f 561 605 586
f 561 586 570
f 561 570 563
f 561 563 564
f 561 564 565
f 561 565 566
f 561 566 567
f 561 567 562
f 562 567 569
f 562 569 568
f 563 570 571
f 563 571 564
f 564 571 572
f 564 572 573
f 564 573 565
f 565 574 566
f 565 573 575
f 565 575 576
f 565 576 577
f 565 577 574
f 566 574 567
f 567 574 578
f 567 578 579
f 567 579 580
f 567 580 569
f 568 569 581
f 569 580 579
f 569 579 582
f 569 582 583
f 569 583 584
f 569 584 585
f 569 585 581
f 570 586 607
f 570 607 636
f 570 636 676
f 570 676 675
f 570 675 674
f 570 674 673
f 570 673 719
f 570 719 718
f 570 718 717
f 570 717 748
f 570 748 747
f 570 747 771
f 570 771 787
f 570 787 791
f 570 791 790
f 570 790 789
f 570 789 788
f 570 788 775
f 570 775 774
f 570 774 773
f 570 773 772
f 570 772 750
f 570 750 749
f 570 749 720
f 570 720 677
f 570 677 637
f 570 637 613
f 570 613 612
f 570 612 611
f 570 611 610
f 570 610 592
f 570 592 608
f 570 608 589
f 570 589 588
f 570 588 587
f 570 587 572
f 570 572 571
f 572 587 573
f 573 587 588
f 573 588 589
f 573 589 590
f 573 590 575
f 574 577 578
f 575 591 576
f 575 590 592
f 575 592 593
f 575 593 594
f 575 594 609
f 575 609 591
f 576 591 578
f 576 578 577
f 578 591 595
f 578 595 596
f 578 596 597
f 578 597 598
f 578 598 599
f 578 599 582
f 578 582 579
f 582 599 598
f 582 598 600
f 582 600 583
f 583 600 601
f 583 601 602
f 583 602 584
f 584 602 603
f 584 603 585
f 585 603 604
f 586 605 606
f 586 606 607
f 589 608 590
f 590 608 592
f 591 596 595
f 591 609 597
f 591 597 596
f 592 610 593
f 593 610 594
f 594 610 611
f 594 611 612
f 594 612 613
f 594 613 614
f 594 614 615
f 594 615 616
f 594 616 609
f 597 609 616
f 597 616 617
f 597 617 618
f 597 618 619
f 597 619 620
f 597 620 621
f 597 621 622
f 597 622 623
f 597 623 624
f 597 624 598
f 598 624 600
f 600 624 625
f 600 625 626
f 600 626 601
f 601 626 627
f 601 627 602
f 602 627 603
f 603 627 628
f 603 628 629
f 603 629 630
f 603 630 631
f 603 631 604
f 605 632 606
f 606 632 633
f 606 633 634
f 606 634 635
f 606 635 636
f 606 636 607
f 613 637 615
f 613 615 614
f 615 637 638
f 615 638 616
f 616 638 639
f 616 639 617
f 617 639 640
f 617 640 618
f 618 641 642
f 618 642 643
f 618 643 644
f 618 644 645
f 618 645 646
f 618 646 647
f 618 647 648
f 618 648 619
f 618 640 639
f 618 639 641
f 619 648 620
f 620 648 622
f 620 622 621
f 622 625 624
f 622 624 623
f 622 648 649
f 622 649 625
f 625 649 650
f 625 650 626
f 626 650 627
f 627 650 651
f 627 651 628
f 628 651 652
f 628 652 653
f 628 653 654
f 628 654 655
f 628 655 629
f 629 655 656
f 629 656 657
f 629 657 630
f 630 657 658
f 630 658 659
f 630 659 660
f 630 660 661
f 630 661 662
f 630 662 631
f 632 663 633
f 633 663 634
f 634 663 664
f 634 664 665
f 634 665 666
f 634 666 667
f 634 667 668
f 634 668 669
f 634 669 670
f 634 670 671
f 634 671 635
f 635 671 670
f 635 670 672
f 635 672 673
f 635 673 674
f 635 674 675
f 635 675 676
f 635 676 636
f 637 677 638
f 638 677 678
f 638 678 679
f 638 679 644
f 638 644 643
f 638 643 642
f 638 642 641
f 638 641 639
f 644 679 680
f 644 680 645
f 645 681 682
f 645 682 683
f 645 683 684
f 645 684 685
f 645 685 686
f 645 686 687
f 645 687 688
f 645 688 646
f 645 680 681
f 646 688 687
f 646 687 647
f 647 687 648
f 648 689 649
f 648 687 690
f 648 690 689
f 649 689 650
f 650 689 651
f 651 690 652
f 651 689 690
f 652 687 653
f 652 690 687
f 653 687 691
f 653 691 654
f 654 691 692
f 654 692 693
f 654 693 655
f 655 693 694
f 655 694 695
f 655 695 656
f 656 696 697
f 656 697 698
f 656 698 658
f 656 658 657
f 656 695 696
f 658 698 699
f 658 699 700
f 658 700 701
f 658 701 702
f 658 702 703
f 658 703 659
f 659 703 704
f 659 704 705
f 659 705 706
f 659 706 660
f 660 707 661
f 660 706 707
f 661 707 708
f 661 708 662
f 665 709 710
f 665 710 666
f 666 710 667
f 667 710 711
f 667 711 668
f 668 711 669
f 669 711 712
f 669 712 713
f 669 713 670
f 670 714 672
f 670 713 712
f 670 712 715
f 670 715 716
f 670 716 714
f 672 714 717
f 672 717 718
f 672 718 719
f 672 719 673
f 677 720 678
f 678 720 679
f 679 721 683
f 679 683 682
f 679 682 681
f 679 681 680
f 679 720 721
f 683 721 722
f 683 722 723
f 683 723 684
f 684 723 724
f 684 724 725
f 684 725 685
f 685 726 691
f 685 691 686
f 685 725 726
f 686 691 687
f 691 726 692
f 692 725 695
f 692 695 694
f 692 694 693
f 692 726 725
f 695 725 696
f 696 727 728
f 696 728 697
f 696 725 727
f 697 728 698
f 698 728 699
f 699 728 700
f 700 729 701
f 700 728 730
f 700 730 729
f 701 729 731
f 701 731 702
f 702 731 732
f 702 732 704
f 702 704 703
f 704 732 733
f 704 733 734
f 704 734 705
f 705 734 735
f 705 735 706
f 706 735 707
f 707 735 736
f 707 736 737
f 707 737 738
f 707 738 708
f 709 738 737
f 709 737 710
f 710 737 739
f 710 739 711
f 711 736 735
f 711 735 740
f 711 740 712
f 711 739 736
f 712 740 735
f 712 735 741
f 712 741 742
f 712 742 743
f 712 743 715
f 714 716 744
f 714 744 745
f 714 745 746
f 714 746 747
f 714 747 748
f 714 748 717
f 715 743 716
f 716 743 744
f 720 749 721
f 721 749 750
f 721 750 722
f 722 750 751
f 722 751 723
f 723 751 752
f 723 752 753
f 723 753 724
f 724 753 754
f 724 754 727
f 724 727 725
f 727 754 755
f 727 755 756
f 727 756 757
f 727 757 728
f 728 757 730
f 729 758 759
f 729 759 760
f 729 760 731
f 729 730 761
f 729 761 762
f 729 762 763
f 729 763 758
f 730 757 756
f 730 756 762
f 730 762 761
f 731 760 732
f 732 760 733
f 733 764 734
f 733 760 764
f 734 764 741
f 734 741 735
f 736 739 737
f 741 764 742
f 742 764 743
f 743 764 765
f 743 765 760
f 743 760 766
f 743 766 767
f 743 767 759
f 743 759 744
f 744 759 768
f 744 768 745
f 745 768 769
f 745 769 770
f 745 770 746
f 746 770 747
f 747 770 771
f 750 772 751
f 751 772 773
f 751 773 752
f 752 774 775
f 752 775 776
f 752 776 753
f 752 773 774
f 753 776 777
f 753 777 778
f 753 778 755
f 753 755 754
f 755 778 756
f 756 778 762
f 758 763 762
f 758 762 759
f 759 767 760
f 759 762 779
f 759 779 780
f 759 780 781
f 759 781 768
f 760 767 766
f 760 765 764
f 762 778 782
f 762 782 783
f 762 783 784
f 762 784 779
f 768 781 769
f 769 781 780
f 769 780 779
f 769 779 785
f 769 785 786
f 769 786 787
f 769 787 771
f 769 771 770
f 775 788 777
f 775 777 776
f 777 788 789
f 777 789 785
f 777 785 778
f 778 785 782
f 779 784 785
f 782 785 783
f 783 785 784
f 785 789 790
f 785 790 791
f 785 791 786
f 786 791 787

o geometry_3
v 0.00242067 0.00553678 -0.00101888
v 0.00455925 0.00249369 -0.00101888
v 0.00455925 0.00135747 -0.00354989
v 0.00123513 0.00553678 -0.00185346
v -0.00186630 0.00553678 -0.00101888
v 0.00455925 -0.00996081 -0.00101888
v 0.00009870 0.00553678 -0.00223136
v 0.00119910 0.00553678 -0.00187577
v 0.00455925 -0.00996081 -0.00354989
v -0.00770561 0.00330225 -0.00354989
v -0.00116217 0.00553678 -0.00158361
v -0.02531526 0.00505589 -0.00354989
v -0.02531526 0.00505741 -0.00329788
v -0.02531526 0.00503920 -0.00101888
v -0.02404129 -0.00996081 -0.00101888
v -0.00006177 0.00553678 -0.00223136
v -0.02506309 0.00503465 -0.00354989
v -0.02372689 -0.00996081 -0.00354989
v -0.00113925 0.00553678 -0.00159897
v -0.02680866 0.00483441 -0.00354989
v -0.02708048 0.00481469 -0.00111428
v -0.02708048 0.00481469 -0.00101888
v -0.02539386 0.00503010 -0.00101888
v -0.02889483 -0.00535219 -0.00101888
v -0.02889811 -0.00535370 -0.00111428
v -0.02404129 -0.00996081 -0.00111428
v -0.02378584 -0.00996081 -0.00329788
v -0.02877038 -0.00500631 -0.00329788
v -0.02874746 -0.00492591 -0.00354989
v -0.02698551 0.00480104 -0.00354989
v -0.02700516 0.00480710 -0.00329788
v -0.02818416 0.00369515 -0.00111428
v -0.02818416 0.00369515 -0.00101888
v -0.02889483 -0.00374721 -0.00101888
v -0.02889811 -0.00374721 -0.00111428
v -0.02877038 -0.00419624 -0.00329788
v -0.02874746 -0.00423113 -0.00354989
v -0.02812521 0.00325826 -0.00354989
v -0.02817433 0.00324612 -0.00330953
v -0.02867213 0.00242998 -0.00258943
v -0.02871798 0.00258320 -0.00111428
v -0.02871798 0.00258320 -0.00101888
f 792 793 794
f 792 794 795
f 792 795 799
f 792 799 798
f 792 798 807
f 792 807 810
f 792 810 802
f 792 802 796
f 792 796 805
f 792 805 814
f 792 814 813
f 792 813 824
f 792 824 833
f 792 833 825
f 792 825 815
f 792 815 806
f 792 806 797
f 792 797 793
f 793 797 800
f 793 800 794
f 794 798 799
f 794 799 795
f 794 800 809
f 794 809 820
f 794 820 828
f 794 828 829
f 794 829 821
f 794 821 811
f 794 811 803
f 794 803 808
f 794 808 801
f 794 801 798
f 796 802 803
f 796 803 804
f 796 804 805
f 797 806 817
f 797 817 818
f 797 818 809
f 797 809 800
f 798 801 808
f 798 808 803
f 798 803 807
f 802 810 803
f 803 810 807
f 803 811 812
f 803 812 804
f 804 812 813
f 804 813 814
f 804 814 805
f 806 815 816
f 806 816 817
f 809 818 819
f 809 819 820
f 811 821 822
f 811 822 812
f 812 822 823
f 812 823 824
f 812 824 813
f 815 825 826
f 815 826 816
f 816 826 827
f 816 827 819
f 816 819 818
f 816 818 817
f 819 827 828
f 819 828 820
f 821 829 830
f 821 830 823
f 821 823 822
f 823 830 831
f 823 831 832
f 823 832 833
f 823 833 824
f 825 833 826
f 826 833 832
f 826 832 831
f 826 831 827
f 827 831 828
f 828 831 829
f 829 831 830

o geometry_4
v 0.02531961 0.00500375 -0.00111367
v 0.02531961 0.00499203 -0.00329681
v 0.02311732 0.00485141 0.00809655
v 0.02531961 0.00499203 0.00107061
v 0.02687867 0.00475912 0.00107061
v 0.02682367 0.00477817 -0.00101791
v 0.02689062 0.00476791 -0.00111367
v 0.02531961 0.00498470 -0.00354989
v 0.02311732 0.00476352 -0.00354989
v 0.00545594 0.00304968 0.00107061
v 0.00771084 0.00337194 0.00809655
v 0.02682367 0.00474301 -0.00329681
v 0.02481267 0.00475033 0.00809655
v 0.02531961 0.00487045 0.00543689
v 0.02531961 0.00495394 0.00325375
v 0.02791884 0.00335729 0.00107061
v 0.02793797 0.00335729 -0.00101791
v 0.02689062 0.00476791 -0.00101791
v 0.02678541 0.00471957 0.00325375
v 0.02793797 0.00335729 -0.00111367
v 0.02680693 0.00473276 -0.00354989
v 0.01211303 0.00337194 -0.00354989
v 0.00456403 0.00249305 -0.00101791
v 0.00545594 0.00304089 0.00325375
v 0.00723260 0.00329577 0.00809655
v 0.02761755 0.00350817 -0.00354989
v 0.02520244 0.00470346 0.00809655
v 0.02662042 0.00462143 0.00543689
v 0.02768689 0.00335729 0.00325375
v 0.02884423 -0.00170071 0.00043790
v 0.02773950 0.00335729 -0.00329681
v 0.02884423 -0.00170071 -0.00040230
v 0.00976488 0.00285193 -0.00354989
v 0.00456403 0.00135782 -0.00354989
v 0.00456403 -0.00996081 -0.00101791
v 0.00545594 0.00269080 0.00809655
v 0.02769885 0.00335729 -0.00354989
v 0.02615652 0.00422740 0.00809655
v 0.02648651 0.00452475 0.00675589
v 0.02733299 0.00335729 0.00543689
v 0.02869358 -0.00433152 0.00464799
v 0.02898770 -0.00328564 0.00112761
v 0.02896379 -0.00309522 -0.00101791
v 0.02876293 -0.00416893 -0.00354989
v 0.02898531 -0.00333252 -0.00101791
v 0.00456403 -0.00996081 -0.00354989
v 0.00545594 -0.00996081 0.00809655
v 0.02676150 0.00318591 0.00809655
v 0.02683084 0.00341882 0.00753794
v 0.02774428 -0.00331054 0.00762116
v 0.02869358 -0.00483688 0.00464799
v 0.02898531 -0.00333398 -0.00101791
v 0.02895183 -0.00553560 0.00107061
v 0.02898292 -0.00333691 -0.00112393
v 0.02894705 -0.00553560 -0.00111367
v 0.02874141 -0.00530416 -0.00354989
v 0.02370794 -0.00996081 -0.00354989
v 0.02241430 -0.00996081 0.00809655
v 0.02757450 -0.00330029 0.00809655
v 0.02864576 -0.00666644 0.00234743
v 0.02878206 -0.00556050 0.00314658
v 0.02750755 -0.00382030 0.00809655
v 0.02716322 -0.00552681 0.00809655
v 0.02697192 -0.00597651 0.00809655
v 0.02893510 -0.00558540 -0.00101791
v 0.02866011 -0.00667815 0.00107061
v 0.02866011 -0.00667962 -0.00101791
v 0.02866011 -0.00667962 -0.00111367
v 0.02864576 -0.00666790 -0.00237453
v 0.02876532 -0.00550191 -0.00318053
v 0.02832295 -0.00630756 -0.00354989
v 0.02376055 -0.00996081 -0.00332189
v 0.02259125 -0.00996081 0.00762116
v 0.02651281 -0.00668694 0.00809655
v 0.02327753 -0.00996081 0.00543917
v 0.02377968 -0.00996081 0.00325375
v 0.02403554 -0.00996081 0.00107061
v 0.02403793 -0.00996081 -0.00101791
v 0.02403793 -0.00996081 -0.00111367
v 0.02376533 -0.00996081 -0.00329681
f 834 835 836
f 834 836 837
f 834 837 838
f 834 838 839
f 834 839 840
f 834 840 835
f 835 841 842
f 835 842 843
f 835 843 844
f 835 844 836
f 835 840 845
f 835 845 841
f 836 844 858
f 836 858 869
f 836 869 880
f 836 880 891
f 836 891 907
f 836 907 897
f 836 897 896
f 836 896 895
f 836 895 892
f 836 892 881
f 836 881 871
f 836 871 860
f 836 860 846
f 836 846 847
f 836 847 848
f 836 848 837
f 837 848 838
f 838 849 850
f 838 850 851
f 838 851 839
f 838 848 852
f 838 852 849
f 839 851 840
f 840 851 850
f 840 850 853
f 840 853 845
f 841 845 854
f 841 854 859
f 841 859 870
f 841 870 877
f 841 877 889
f 841 889 904
f 841 904 890
f 841 890 879
f 841 879 867
f 841 867 866
f 841 866 855
f 841 855 842
f 842 855 843
f 843 856 857
f 843 857 844
f 843 855 856
f 844 857 858
f 845 853 859
f 845 859 854
f 846 860 847
f 847 860 861
f 847 861 852
f 847 852 848
f 849 852 861
f 849 861 862
f 849 862 863
f 849 863 850
f 850 863 865
f 850 865 853
f 853 864 859
f 853 865 864
f 855 866 856
f 856 867 879
f 856 879 868
f 856 868 880
f 856 880 869
f 856 869 857
f 856 866 867
f 857 869 858
f 859 864 870
f 860 871 872
f 860 872 861
f 861 872 862
f 862 873 874
f 862 874 863
f 862 872 873
f 863 875 865
f 863 874 875
f 864 865 876
f 864 876 877
f 864 877 870
f 865 875 878
f 865 878 876
f 868 879 890
f 868 890 905
f 868 905 913
f 868 913 912
f 868 912 911
f 868 911 910
f 868 910 909
f 868 909 908
f 868 908 906
f 868 906 891
f 868 891 880
f 871 881 872
f 872 881 882
f 872 882 873
f 873 882 881
f 873 881 874
f 874 883 884
f 874 884 875
f 874 881 883
f 875 885 878
f 875 884 886
f 875 886 885
f 876 878 887
f 876 887 877
f 877 887 888
f 877 888 889
f 878 885 887
f 881 892 883
f 883 892 884
f 884 893 894
f 884 894 886
f 884 892 895
f 884 895 896
f 884 896 897
f 884 897 893
f 885 886 888
f 885 888 887
f 886 898 888
f 886 894 893
f 886 893 899
f 886 899 900
f 886 900 901
f 886 901 898
f 888 898 901
f 888 901 902
f 888 902 903
f 888 903 889
f 889 903 902
f 889 902 904
f 890 904 902
f 890 902 905
f 891 906 907
f 893 897 907
f 893 907 906
f 893 906 908
f 893 908 909
f 893 909 910
f 893 910 899
f 899 910 911
f 899 911 900
f 900 911 912
f 900 912 901
f 901 912 902
f 902 912 913
f 902 913 905

o geometry_5
v 0.00133041 -0.00331151 -0.02734750
v 0.00133041 -0.00352842 -0.02730557
v 0.00133041 0.00335830 -0.02697247
v 0.00330690 0.00335830 -0.02683503
v 0.00330690 -0.00331151 -0.02720308
v 0.00330690 -0.00541461 -0.02680242
v 0.00133041 -0.00546150 -0.02687929
v 0.00133041 0.00460990 -0.02639011
v 0.00330690 0.00455421 -0.02632489
v 0.00454758 0.00449558 -0.02625734
v 0.00537201 0.00342572 -0.02652988
v 0.00731091 0.00272957 -0.02640642
v 0.00550629 -0.00331151 -0.02686065
v 0.00724914 -0.00489140 -0.02640875
v 0.00550629 -0.00525486 -0.02662538
v 0.00330690 -0.00996081 -0.02323841
v 0.00133041 -0.00996081 -0.02337584
v 0.00133041 0.00493232 -0.02513688
v 0.00330690 0.00487810 -0.02513688
v 0.00770836 0.00477844 -0.02467100
v 0.00601652 0.00421273 -0.02601042
v 0.00991043 0.00467292 -0.02436119
v 0.01123972 0.00454541 -0.02413989
v 0.00790976 0.00342572 -0.02585202
v 0.00991043 0.00335830 -0.02521608
v 0.01338808 0.00250973 -0.02413756
v 0.00991043 -0.00331151 -0.02560976
v 0.00840389 -0.00331151 -0.02611058
v 0.00730285 -0.00331151 -0.02642505
v 0.01351698 -0.00485769 -0.02419813
v 0.01211249 -0.00527245 -0.02449396
v 0.00789097 -0.00996081 -0.02226238
v 0.00550629 -0.00996081 -0.02287968
v 0.00548480 -0.00996081 -0.02288433
v 0.00133041 -0.00996081 -0.00355247
v 0.00133041 0.00493672 -0.02295189
v 0.00330690 0.00496310 -0.02295189
v 0.00550629 0.00498948 -0.02295189
v 0.00770836 0.00501146 -0.02295189
v 0.00991043 0.00494991 -0.02295189
v 0.01202925 0.00475059 -0.02297984
v 0.01431456 0.00464214 -0.02220414
v 0.01548542 0.00450584 -0.02190831
v 0.01270866 0.00399143 -0.02372526
v 0.01202925 0.00329382 -0.02441010
v 0.01211249 -0.00331151 -0.02476651
v 0.01594463 0.00335830 -0.02220414
v 0.01987882 0.00236757 -0.01973729
v 0.01763646 -0.00434181 -0.02187570
v 0.01228973 -0.00996081 -0.02024510
v 0.00976273 -0.00996081 -0.02152628
v 0.01763646 -0.00447664 -0.02187570
v 0.01651395 -0.00499545 -0.02223442
v 0.00133041 0.00164798 -0.00355247
v 0.02370827 -0.00996081 -0.00355247
v 0.00133041 0.00320588 -0.01203622
v 0.01211249 0.00337296 -0.00355247
v 0.02311747 0.00476378 -0.00355247
v 0.02531954 0.00498508 -0.00355247
v 0.01211249 0.00497189 -0.02076922
v 0.02311747 0.00495870 -0.00985122
v 0.01431456 0.00490155 -0.02076922
v 0.01633671 0.00467145 -0.02067138
v 0.01785667 0.00458645 -0.01987705
v 0.01864082 0.00320881 -0.02022647
v 0.01704566 0.00335830 -0.02141214
v 0.01932293 0.00385073 -0.01918987
v 0.02069519 0.00305493 -0.01834429
v 0.02202181 0.00225766 -0.01749871
v 0.02214265 -0.00389188 -0.01763615
v 0.01998086 -0.00376584 -0.01982813
v 0.01412121 -0.00996081 -0.01899420
v 0.01998086 -0.00481519 -0.01982813
v 0.01850655 -0.00510830 -0.02064110
v 0.02325711 -0.00996081 -0.00548356
v 0.02832456 -0.00630714 -0.00355247
v 0.02680728 0.00473301 -0.00355247
v 0.02531954 0.00492939 -0.00548356
v 0.01651395 0.00491913 -0.01858422
v 0.02479856 0.00473154 -0.00985122
v 0.02325711 0.00478577 -0.01215968
v 0.02091808 0.00491327 -0.01421889
v 0.01864082 0.00471395 -0.01851201
v 0.02004531 0.00458791 -0.01773398
v 0.02151157 0.00374081 -0.01693499
v 0.02241388 0.00314286 -0.01628508
v 0.02449779 0.00287759 -0.01357597
v 0.02400098 -0.00331151 -0.01496430
v 0.02214265 -0.00476389 -0.01763615
v 0.01562775 -0.00996081 -0.01771302
v 0.02079455 -0.00527538 -0.01845145
v 0.01674221 -0.00996081 -0.01663450
v 0.01564117 -0.00996081 -0.01770137
v 0.02325174 -0.00996081 -0.00550452
v 0.02258038 -0.00996081 -0.00768486
v 0.02654142 -0.00668819 -0.00726557
v 0.02707314 -0.00575462 -0.00786190
v 0.02675088 -0.00516546 -0.00985122
v 0.02867366 -0.00473898 -0.00461003
v 0.02874349 -0.00530469 -0.00355247
v 0.02761828 0.00350779 -0.00355247
v 0.02667032 0.00465680 -0.00548356
v 0.02446556 0.00462895 -0.01151210
v 0.02651993 0.00455274 -0.00693945
v 0.02256158 0.00467585 -0.01421889
v 0.02083484 0.00469637 -0.01628508
v 0.02214265 0.00455274 -0.01547910
v 0.02408423 0.00436075 -0.01296799
v 0.02365187 0.00351512 -0.01427014
v 0.02490329 0.00351512 -0.01215968
v 0.02662198 0.00277940 -0.00924557
v 0.02649039 -0.00418353 -0.01108349
v 0.02649039 -0.00467596 -0.01108349
v 0.01910809 -0.00996081 -0.01409543
v 0.01903021 -0.00996081 -0.01418395
v 0.01783519 -0.00996081 -0.01554200
v 0.02464549 -0.00513761 -0.01378562
v 0.02262603 -0.00520503 -0.01640156
v 0.01782444 -0.00996081 -0.01555365
v 0.02211580 -0.00996081 -0.00895673
v 0.02159482 -0.00996081 -0.01006553
v 0.02039979 -0.00996081 -0.01233206
v 0.02767468 -0.00331151 -0.00766623
v 0.02867366 -0.00435646 -0.00461003
v 0.02876497 -0.00417034 -0.00355247
v 0.02770153 0.00335830 -0.00355247
v 0.02621379 0.00426109 -0.00839534
v 0.02738465 0.00335830 -0.00548356
v 0.02683950 0.00345503 -0.00766856
v 0.02685830 -0.00338919 -0.00992344
v 0.01929876 -0.00996081 -0.01384152
f 914 915 920
f 914 920 930
f 914 930 948
f 914 948 967
f 914 967 969
f 914 969 949
f 914 949 931
f 914 931 921
f 914 921 916
f 914 916 917
f 914 917 918
f 914 918 919
f 914 919 915
f 915 919 920
f 916 921 922
f 916 922 917
f 917 922 923
f 917 923 924
f 917 924 925
f 917 925 918
f 918 926 927
f 918 927 928
f 918 928 919
f 918 925 926
f 919 928 929
f 919 929 930
f 919 930 920
f 921 931 932
f 921 932 922
f 922 932 933
f 922 933 923
f 923 934 925
f 923 925 924
f 923 933 935
f 923 935 936
f 923 936 934
f 925 937 938
f 925 938 939
f 925 939 940
f 925 940 941
f 925 941 942
f 925 942 926
f 925 934 937
f 926 942 927
f 927 942 941
f 927 941 940
f 927 940 943
f 927 943 944
f 927 944 945
f 927 945 928
f 928 946 947
f 928 947 929
f 928 945 946
f 929 947 946
f 929 946 945
f 929 945 964
f 929 964 963
f 929 963 985
f 929 985 1003
f 929 1003 1006
f 929 1006 1005
f 929 1005 1032
f 929 1032 1029
f 929 1029 1028
f 929 1028 1027
f 929 1027 1044
f 929 1044 1035
f 929 1035 1034
f 929 1034 1033
f 929 1033 1008
f 929 1008 1007
f 929 1007 988
f 929 988 968
f 929 968 948
f 929 948 930
f 931 949 950
f 931 950 951
f 931 951 952
f 931 952 932
f 932 952 953
f 932 953 933
f 933 953 935
f 934 936 937
f 935 953 954
f 935 954 955
f 935 955 936
f 936 955 956
f 936 956 957
f 936 957 958
f 936 958 938
f 936 938 937
f 938 958 939
f 939 943 959
f 939 959 940
f 939 958 957
f 939 957 956
f 939 956 960
f 939 960 961
f 939 961 962
f 939 962 943
f 940 959 943
f 943 963 964
f 943 964 944
f 943 962 965
f 943 965 966
f 943 966 963
f 944 964 945
f 948 968 989
f 948 989 1013
f 948 1013 1038
f 948 1038 1039
f 948 1039 1014
f 948 1014 990
f 948 990 972
f 948 972 971
f 948 971 970
f 948 970 967
f 949 969 970
f 949 970 971
f 949 971 972
f 949 972 950
f 950 972 951
f 951 972 952
f 952 973 953
f 952 972 974
f 952 974 973
f 953 973 975
f 953 975 954
f 954 975 955
f 955 975 976
f 955 976 956
f 956 976 977
f 956 977 978
f 956 978 979
f 956 979 960
f 960 979 961
f 961 979 978
f 961 978 980
f 961 980 981
f 961 981 982
f 961 982 983
f 961 983 984
f 961 984 962
f 962 984 986
f 962 986 965
f 963 966 985
f 965 986 966
f 966 986 987
f 966 987 985
f 967 970 969
f 968 988 989
f 972 990 991
f 972 991 974
f 973 974 992
f 973 992 975
f 974 991 993
f 974 993 994
f 974 994 995
f 974 995 992
f 975 992 996
f 975 996 976
f 976 996 977
f 977 996 997
f 977 997 980
f 977 980 978
f 980 997 998
f 980 998 981
f 981 998 982
f 982 998 999
f 982 999 1000
f 982 1000 1001
f 982 1001 983
f 983 1001 1002
f 983 1002 986
f 983 986 984
f 985 987 986
f 985 986 1003
f 986 1002 1004
f 986 1004 1005
f 986 1005 1006
f 986 1006 1003
f 988 1007 989
f 989 1007 1008
f 989 1008 1009
f 989 1009 1010
f 989 1010 1011
f 989 1011 1012
f 989 1012 1013
f 990 1014 1015
f 990 1015 991
f 991 1015 993
f 992 995 996
f 993 1016 994
f 993 1015 1017
f 993 1017 1016
f 994 1018 995
f 994 1016 1018
f 995 1019 996
f 995 1018 1019
f 996 1019 997
f 997 1019 1020
f 997 1020 998
f 998 1020 999
f 999 1020 1021
f 999 1021 1022
f 999 1022 1000
f 1000 1022 1021
f 1000 1021 1023
f 1000 1023 1024
f 1000 1024 1025
f 1000 1025 1001
f 1001 1025 1026
f 1001 1026 1002
f 1002 1027 1028
f 1002 1028 1029
f 1002 1029 1004
f 1002 1026 1030
f 1002 1030 1031
f 1002 1031 1027
f 1004 1029 1032
f 1004 1032 1005
f 1008 1033 1009
f 1009 1011 1010
f 1009 1033 1034
f 1009 1034 1035
f 1009 1035 1011
f 1011 1035 1030
f 1011 1030 1026
f 1011 1026 1012
f 1012 1036 1037
f 1012 1037 1038
f 1012 1038 1013
f 1012 1026 1036
f 1014 1039 1017
f 1014 1017 1015
f 1016 1021 1020
f 1016 1020 1018
f 1016 1017 1040
f 1016 1040 1021
f 1017 1039 1041
f 1017 1041 1042
f 1017 1042 1040
f 1018 1020 1019
f 1021 1040 1024
f 1021 1024 1023
f 1024 1040 1042
f 1024 1042 1041
f 1024 1041 1037
f 1024 1037 1036
f 1024 1036 1043
f 1024 1043 1025
f 1025 1043 1036
f 1025 1036 1026
f 1027 1031 1044
f 1030 1035 1044
f 1030 1044 1031
f 1037 1039 1038
f 1037 1041 1039

o geometry_6
v 0.00321268 0.00553678 0.00107012
v 0.00545559 0.00269242 0.00809655
v 0.00545559 0.00304133 0.00325433
v 0.00545559 0.00305043 0.00107012
v 0.00277217 0.00553678 -0.00073579
v 0.00266793 0.00553678 0.00266991
v 0.00545559 -0.00996081 0.00809655
v 0.00110092 0.00553678 0.00355770
v -0.02311372 0.00490571 0.00809655
v 0.00545559 0.00247246 -0.00031822
v 0.00275536 0.00553678 -0.00078219
v 0.00545559 -0.00996081 -0.00101863
v -0.02241765 -0.00996081 0.00809655
v -0.00109827 0.00553678 0.00338639
v -0.02531628 0.00498914 0.00543766
v -0.02539026 0.00477677 0.00809655
v -0.00114199 0.00553678 0.00337479
v 0.00545559 0.00207500 -0.00101149
v 0.00242245 0.00553678 -0.00101863
v 0.00545559 0.00206590 -0.00101863
v -0.02404182 -0.00996081 -0.00101863
v -0.02693036 -0.00555243 0.00809655
v -0.02646631 -0.00666742 0.00683224
v -0.02260596 -0.00996081 0.00762277
v -0.00248706 0.00553678 0.00249949
v -0.02531628 0.00503465 0.00325433
v -0.02698417 0.00479345 0.00325433
v -0.02679922 0.00472215 0.00543766
v -0.02659746 0.00460079 0.00712133
v -0.02583077 0.00462052 0.00809655
v -0.00186496 0.00553678 -0.00101863
v -0.02405191 -0.00996081 0.00107012
v -0.02889753 -0.00535219 -0.00101863
v -0.02715230 -0.00335127 0.00809655
v -0.02864197 -0.00454515 0.00445351
v -0.02700098 -0.00572385 0.00758440
v -0.02788873 -0.00602876 0.00325433
v -0.02380644 -0.00996081 0.00328378
v -0.02330876 -0.00996081 0.00545997
v -0.00280651 0.00553678 0.00107012
v -0.02531628 0.00503920 -0.00101863
v -0.02539362 0.00503010 -0.00101863
v -0.02708168 0.00481469 -0.00101863
v -0.02707496 0.00481014 0.00107012
v -0.02817792 0.00370425 0.00107012
v -0.02814765 0.00325371 0.00324452
v -0.02671515 0.00388933 0.00809655
v -0.02767352 0.00335838 0.00543766
v -0.02699089 0.00353435 0.00775839
v -0.00253077 0.00553678 -0.00049399
v -0.02405191 -0.00996081 0.00110938
v -0.02888408 -0.00530971 0.00107012
v -0.02889753 -0.00374721 -0.00101863
v -0.02692700 0.00340237 0.00809655
v -0.02864197 -0.00439193 0.00445351
v -0.02874621 -0.00491681 0.00325433
v -0.02380980 -0.00996081 0.00325433
v -0.02813420 0.00374369 -0.00101863
v -0.02818128 0.00369515 -0.00101863
v -0.02871931 0.00259230 0.00107012
v -0.02867559 0.00244212 0.00251020
v -0.02888408 -0.00375783 0.00107012
v -0.02871595 0.00258320 -0.00101863
v -0.02874621 -0.00422051 0.00325433
v -0.02820482 0.00364661 -0.00101863
f 1045 1046 1047
f 1045 1047 1048
f 1045 1048 1049
f 1045 1049 1055
f 1045 1055 1063
f 1045 1063 1075
f 1045 1075 1094
f 1045 1094 1084
f 1045 1084 1069
f 1045 1069 1061
f 1045 1061 1058
f 1045 1058 1052
f 1045 1052 1050
f 1045 1050 1046
f 1046 1051 1056
f 1046 1056 1064
f 1046 1064 1062
f 1046 1062 1054
f 1046 1054 1048
f 1046 1048 1047
f 1046 1050 1052
f 1046 1052 1053
f 1046 1053 1060
f 1046 1060 1074
f 1046 1074 1091
f 1046 1091 1098
f 1046 1098 1078
f 1046 1078 1066
f 1046 1066 1057
f 1046 1057 1051
f 1048 1054 1049
f 1049 1054 1055
f 1051 1057 1068
f 1051 1068 1083
f 1051 1083 1082
f 1051 1082 1101
f 1051 1101 1095
f 1051 1095 1076
f 1051 1076 1065
f 1051 1065 1056
f 1052 1058 1053
f 1053 1059 1060
f 1053 1058 1061
f 1053 1061 1059
f 1054 1062 1055
f 1055 1062 1064
f 1055 1064 1063
f 1056 1065 1077
f 1056 1077 1097
f 1056 1097 1107
f 1056 1107 1109
f 1056 1109 1103
f 1056 1103 1102
f 1056 1102 1087
f 1056 1087 1086
f 1056 1086 1085
f 1056 1085 1075
f 1056 1075 1063
f 1056 1063 1064
f 1057 1066 1067
f 1057 1067 1068
f 1059 1061 1069
f 1059 1069 1070
f 1059 1070 1071
f 1059 1071 1072
f 1059 1072 1060
f 1060 1072 1073
f 1060 1073 1074
f 1065 1076 1077
f 1066 1078 1079
f 1066 1079 1080
f 1066 1080 1067
f 1067 1080 1081
f 1067 1081 1082
f 1067 1082 1083
f 1067 1083 1068
f 1069 1084 1070
f 1070 1085 1086
f 1070 1086 1087
f 1070 1087 1088
f 1070 1088 1071
f 1070 1084 1085
f 1071 1088 1089
f 1071 1089 1072
f 1072 1089 1090
f 1072 1090 1073
f 1073 1091 1074
f 1073 1090 1092
f 1073 1092 1093
f 1073 1093 1091
f 1075 1085 1094
f 1076 1095 1077
f 1077 1095 1096
f 1077 1096 1106
f 1077 1106 1097
f 1078 1098 1099
f 1078 1099 1079
f 1079 1099 1108
f 1079 1108 1100
f 1079 1100 1080
f 1080 1100 1081
f 1081 1100 1096
f 1081 1096 1101
f 1081 1101 1082
f 1084 1094 1085
f 1087 1102 1089
f 1087 1089 1088
f 1089 1102 1103
f 1089 1103 1104
f 1089 1104 1105
f 1089 1105 1090
f 1090 1105 1092
f 1091 1093 1098
f 1092 1105 1098
f 1092 1098 1093
f 1095 1101 1096
f 1096 1100 1108
f 1096 1108 1106
f 1097 1106 1104
f 1097 1104 1107
f 1098 1105 1099
f 1099 1105 1108
f 1103 1109 1104
f 1104 1106 1105
f 1104 1109 1107
f 1105 1106 1108

o geometry_7
v -0.00110152 -0.00331206 -0.02737099
v -0.00110152 0.00335874 -0.02698160
v 0.00110076 0.00335874 -0.02698859
v 0.00110076 -0.00331206 -0.02736167
v -0.00110152 -0.00549646 -0.02690465
v -0.00330086 -0.00544354 -0.02681604
v -0.00330086 -0.00331206 -0.02718212
v -0.00330086 0.00335874 -0.02682071
v -0.00110152 0.00461116 -0.02639400
v -0.00330086 0.00454207 -0.02631239
v 0.00110076 0.00461557 -0.02639867
v 0.00133041 0.00460969 -0.02639167
v 0.00133041 0.00335874 -0.02697227
v 0.00133041 -0.00331206 -0.02734534
v 0.00133041 -0.00352815 -0.02730571
v 0.00133041 -0.00546118 -0.02688133
v 0.00110076 -0.00546706 -0.02688833
v -0.00112213 -0.00996081 -0.02338375
v 0.00110076 -0.00996081 -0.02339308
v -0.00332442 -0.00996081 -0.02321587
v -0.00550315 -0.00522304 -0.02662018
v -0.00719020 -0.00484820 -0.02640333
v -0.00550315 -0.00331206 -0.02678573
v -0.00720197 0.00270606 -0.02640799
v -0.00533238 0.00341166 -0.02652691
v -0.00448445 0.00448474 -0.02624477
v -0.00110152 0.00493603 -0.02513721
v -0.00330086 0.00486988 -0.02513721
v -0.00770544 0.00477139 -0.02463588
v 0.00110076 0.00493897 -0.02513721
v 0.00133041 0.00493309 -0.02513721
v 0.00133041 -0.00996081 -0.02337676
v -0.00552670 -0.00996081 -0.02284279
v -0.00786737 -0.00996081 -0.02219924
v -0.00720197 0.00182701 -0.02640799
v -0.01211001 -0.00518776 -0.02446800
v -0.01346730 -0.00476294 -0.02417187
v -0.00595067 0.00418928 -0.02598829
v -0.01346730 -0.00406028 -0.02417187
v -0.01337897 0.00249732 -0.02413690
v -0.01201285 0.00328671 -0.02440505
v -0.00990772 0.00335874 -0.02516519
v -0.01121790 0.00454207 -0.02413223
v -0.00990772 0.00466555 -0.02433743
v -0.00990772 0.00495073 -0.02295238
v -0.00770544 0.00499483 -0.02295238
v 0.00133041 0.00493750 -0.02295238
v 0.00133041 -0.00996081 -0.00355247
v -0.00881541 -0.00996081 -0.02187047
v -0.00979584 -0.00996081 -0.02144143
v -0.01225722 -0.00996081 -0.02016831
v -0.01241621 -0.00996081 -0.02007970
v -0.01316110 -0.00996081 -0.01964834
v -0.01650869 -0.00494668 -0.02222722
v -0.01762750 -0.00446012 -0.02187513
v -0.01762750 -0.00437486 -0.02187513
v -0.01268413 0.00398054 -0.02371719
v -0.01986512 0.00235621 -0.01972761
v -0.01595812 0.00335874 -0.02220157
v -0.01548410 0.00450533 -0.02190777
v -0.01430640 0.00464497 -0.02219691
v -0.01201285 0.00475816 -0.02297570
v -0.01430640 0.00489781 -0.02076990
v -0.01211001 0.00496837 -0.02076990
v -0.02311555 0.00501982 -0.00985045
v -0.02531489 0.00504481 -0.00548314
v -0.02531489 0.00505657 -0.00355247
v -0.00770544 0.00330288 -0.00355247
v 0.00133041 0.00320586 -0.01203527
v -0.02506168 0.00503452 -0.00355247
v -0.02372795 -0.00996081 -0.00355247
v 0.00133041 0.00164914 -0.00355247
v -0.01393837 -0.00996081 -0.01902577
v -0.01999466 -0.00476000 -0.01984187
v -0.01999466 -0.00395297 -0.01984187
v -0.02070128 0.00309267 -0.01837056
v -0.01931160 0.00383942 -0.01920065
v -0.01863148 0.00320145 -0.02022894
v -0.01705926 0.00335874 -0.02142044
v -0.02217339 -0.00395738 -0.01767104
v -0.02205562 0.00234445 -0.01754046
v -0.01784243 0.00457882 -0.01987451
v -0.01633498 0.00466555 -0.02066963
v -0.01863148 0.00471112 -0.01851745
v -0.02091326 0.00493897 -0.01422009
v -0.02311555 0.00493456 -0.01203527
v -0.02531489 0.00492721 -0.00766796
v -0.02684000 0.00475375 -0.00548314
v -0.02681056 0.00483460 -0.00355247
v -0.02874786 -0.00492610 -0.00355247
v -0.02648669 -0.00667392 -0.00688450
v -0.02327748 -0.00996081 -0.00548314
v -0.01411797 -0.00996081 -0.01888120
v -0.01560481 -0.00996081 -0.01767104
v -0.02080433 -0.00523186 -0.01847315
v -0.02217339 -0.00476588 -0.01767104
v -0.02153449 0.00382766 -0.01701349
v -0.02006827 0.00459205 -0.01774565
v -0.02653380 -0.00414848 -0.01117253
v -0.02398409 -0.00331206 -0.01496391
v -0.02643370 0.00229741 -0.01097667
v -0.02451406 0.00335874 -0.01359985
v -0.02373089 0.00335874 -0.01469110
v -0.02253259 0.00319557 -0.01633263
v -0.02084554 0.00472141 -0.01633263
v -0.02301839 0.00468319 -0.01403822
v -0.02451994 0.00464938 -0.01203527
v -0.02531783 0.00474052 -0.00966624
v -0.02812663 0.00325878 -0.00355247
v -0.02698427 0.00480079 -0.00355247
v -0.02659268 0.00460381 -0.00766796
v -0.02874786 -0.00423227 -0.00355247
v -0.02865659 -0.00460565 -0.00455278
v -0.02680172 -0.00515248 -0.00985045
v -0.02704315 -0.00571990 -0.00763531
v -0.02209979 -0.00996081 -0.00888978
v -0.02256792 -0.00996081 -0.00766796
v -0.01670595 -0.00996081 -0.01659378
v -0.01778649 -0.00996081 -0.01550254
v -0.02267980 -0.00518776 -0.01640025
v -0.02467893 -0.00508339 -0.01384469
v -0.02653380 -0.00471737 -0.01117253
v -0.01779826 -0.00996081 -0.01548855
v -0.01917911 -0.00996081 -0.01382370
v -0.01978267 -0.00996081 -0.01308221
v -0.02222050 0.00459058 -0.01555850
v -0.02865659 -0.00437339 -0.00455278
v -0.02721686 0.00335874 -0.00766796
v -0.02662507 0.00316617 -0.00966624
v -0.02643664 0.00448915 -0.00881283
v -0.02425202 0.00449944 -0.01318714
v -0.02773799 0.00335874 -0.00548314
v -0.02156982 -0.00996081 -0.00998569
v -0.02022431 -0.00996081 -0.01236871
v -0.02030086 -0.00996081 -0.01224279
v -0.02033619 -0.00996081 -0.01218450
f 1110 1111 1112
f 1110 1112 1113
f 1110 1113 1114
f 1110 1114 1115
f 1110 1115 1116
f 1110 1116 1117
f 1110 1117 1111
f 1111 1118 1112
f 1111 1117 1119
f 1111 1119 1118
f 1112 1120 1121
f 1112 1121 1122
f 1112 1122 1123
f 1112 1123 1113
f 1112 1118 1120
f 1113 1123 1124
f 1113 1124 1125
f 1113 1125 1126
f 1113 1126 1114
f 1114 1127 1115
f 1114 1126 1128
f 1114 1128 1127
f 1115 1127 1129
f 1115 1129 1130
f 1115 1130 1116
f 1116 1130 1131
f 1116 1131 1132
f 1116 1132 1133
f 1116 1133 1117
f 1117 1133 1134
f 1117 1134 1135
f 1117 1135 1119
f 1118 1136 1120
f 1118 1119 1137
f 1118 1137 1136
f 1119 1135 1138
f 1119 1138 1137
f 1120 1139 1140
f 1120 1140 1121
f 1120 1136 1139
f 1121 1140 1156
f 1121 1156 1178
f 1121 1178 1181
f 1121 1181 1157
f 1121 1157 1141
f 1121 1141 1125
f 1121 1125 1124
f 1121 1124 1123
f 1121 1123 1122
f 1125 1141 1128
f 1125 1128 1126
f 1127 1128 1141
f 1127 1141 1157
f 1127 1157 1180
f 1127 1180 1201
f 1127 1201 1226
f 1127 1226 1225
f 1127 1225 1242
f 1127 1242 1245
f 1127 1245 1244
f 1127 1244 1243
f 1127 1243 1234
f 1127 1234 1233
f 1127 1233 1232
f 1127 1232 1228
f 1127 1228 1227
f 1127 1227 1203
f 1127 1203 1202
f 1127 1202 1182
f 1127 1182 1162
f 1127 1162 1161
f 1127 1161 1160
f 1127 1160 1159
f 1127 1159 1158
f 1127 1158 1143
f 1127 1143 1142
f 1127 1142 1129
f 1129 1142 1130
f 1130 1142 1143
f 1130 1143 1131
f 1131 1144 1132
f 1131 1143 1145
f 1131 1145 1146
f 1131 1146 1144
f 1132 1144 1133
f 1133 1147 1135
f 1133 1135 1134
f 1133 1144 1146
f 1133 1146 1148
f 1133 1148 1149
f 1133 1149 1150
f 1133 1150 1151
f 1133 1151 1152
f 1133 1152 1147
f 1135 1147 1152
f 1135 1152 1153
f 1135 1153 1138
f 1136 1137 1154
f 1136 1154 1155
f 1136 1155 1139
f 1137 1138 1154
f 1138 1153 1154
f 1139 1156 1140
f 1139 1155 1156
f 1143 1158 1145
f 1145 1158 1159
f 1145 1159 1146
f 1146 1159 1160
f 1146 1160 1161
f 1146 1161 1162
f 1146 1162 1163
f 1146 1163 1164
f 1146 1164 1165
f 1146 1165 1148
f 1148 1165 1149
f 1149 1166 1150
f 1149 1165 1167
f 1149 1167 1168
f 1149 1168 1169
f 1149 1169 1166
f 1150 1166 1152
f 1150 1152 1151
f 1152 1166 1169
f 1152 1169 1170
f 1152 1170 1171
f 1152 1171 1153
f 1153 1171 1154
f 1154 1171 1172
f 1154 1172 1173
f 1154 1173 1155
f 1155 1173 1174
f 1155 1174 1175
f 1155 1175 1176
f 1155 1176 1156
f 1156 1177 1178
f 1156 1176 1179
f 1156 1179 1177
f 1157 1181 1177
f 1157 1177 1179
f 1157 1179 1176
f 1157 1176 1198
f 1157 1198 1219
f 1157 1219 1218
f 1157 1218 1221
f 1157 1221 1199
f 1157 1199 1180
f 1162 1182 1183
f 1162 1183 1163
f 1163 1183 1164
f 1164 1183 1184
f 1164 1184 1165
f 1165 1184 1167
f 1167 1185 1186
f 1167 1186 1187
f 1167 1187 1188
f 1167 1188 1168
f 1167 1184 1189
f 1167 1189 1190
f 1167 1190 1185
f 1168 1188 1169
f 1169 1188 1187
f 1169 1187 1186
f 1169 1186 1191
f 1169 1191 1192
f 1169 1192 1170
f 1170 1192 1172
f 1170 1172 1171
f 1172 1192 1193
f 1172 1193 1194
f 1172 1194 1173
f 1173 1194 1174
f 1174 1194 1195
f 1174 1195 1175
f 1175 1196 1197
f 1175 1197 1198
f 1175 1198 1176
f 1175 1195 1196
f 1177 1181 1178
f 1180 1199 1200
f 1180 1200 1201
f 1182 1202 1183
f 1183 1202 1203
f 1183 1203 1204
f 1183 1204 1205
f 1183 1205 1189
f 1183 1189 1184
f 1185 1206 1186
f 1185 1190 1206
f 1186 1206 1207
f 1186 1207 1191
f 1189 1205 1231
f 1189 1231 1208
f 1189 1208 1209
f 1189 1209 1190
f 1190 1209 1210
f 1190 1210 1211
f 1190 1211 1212
f 1190 1212 1213
f 1190 1213 1206
f 1191 1207 1193
f 1191 1193 1192
f 1193 1207 1214
f 1193 1214 1194
f 1194 1214 1195
f 1195 1215 1216
f 1195 1216 1217
f 1195 1217 1196
f 1195 1214 1215
f 1196 1217 1197
f 1197 1218 1219
f 1197 1219 1198
f 1197 1217 1220
f 1197 1220 1218
f 1199 1221 1236
f 1199 1236 1222
f 1199 1222 1223
f 1199 1223 1224
f 1199 1224 1200
f 1200 1224 1223
f 1200 1223 1225
f 1200 1225 1226
f 1200 1226 1201
f 1203 1227 1204
f 1204 1227 1228
f 1204 1228 1205
f 1205 1229 1230
f 1205 1230 1231
f 1205 1228 1232
f 1205 1232 1233
f 1205 1233 1234
f 1205 1234 1229
f 1206 1213 1235
f 1206 1235 1207
f 1207 1235 1214
f 1208 1231 1222
f 1208 1222 1236
f 1208 1236 1210
f 1208 1210 1209
f 1210 1236 1237
f 1210 1237 1238
f 1210 1238 1239
f 1210 1239 1240
f 1210 1240 1211
f 1211 1240 1212
f 1212 1240 1213
f 1213 1240 1235
f 1214 1235 1215
f 1215 1235 1240
f 1215 1240 1216
f 1216 1240 1239
f 1216 1239 1217
f 1217 1239 1220
f 1218 1241 1236
f 1218 1236 1221
f 1218 1220 1241
f 1220 1239 1241
f 1222 1231 1223
f 1223 1231 1230
f 1223 1230 1242
f 1223 1242 1225
f 1229 1234 1230
f 1230 1234 1243
f 1230 1243 1244
f 1230 1244 1245
f 1230 1245 1242
f 1236 1241 1237
f 1237 1241 1239
f 1237 1239 1238

