# https://github.com/mikedh/trimesh

o geometry_0
v 0.00076444 0.00163031 -0.22464388
v 0.00076444 0.00407103 -0.22411679
v 0.00076444 -0.00262702 -0.22371034
v -0.06886218 0.00163031 -0.22387547
v -0.06886218 0.00845653 -0.22365319
v -0.06162442 0.00845653 -0.22361509
v 0.00076444 0.00806089 -0.22320230
v 0.00076444 -0.00542438 -0.22303719
v -0.07609995 0.00163031 -0.22377385
v -0.07609995 0.00845653 -0.22352619
v -0.07609995 0.01240738 -0.22213541
v -0.06886218 0.01246310 -0.22220526
v -0.05439533 0.00845653 -0.22355158
v 0.00076444 0.00934254 -0.22252278
v -0.06162442 0.01239066 -0.22214811
v -0.05439533 0.01230707 -0.22207189
v 0.00076444 -0.00880127 -0.22169722
v -0.07609995 -0.00353533 -0.22238944
v -0.08060403 -0.00286107 -0.22209731
v -0.08159337 0.00163031 -0.22264345
v -0.08133301 0.00845653 -0.22249103
v -0.08025689 0.01216776 -0.22189408
v -0.06886218 0.02141241 -0.20924379
v -0.02546162 0.01854262 -0.21400035
v -0.00374831 0.01851475 -0.21397495
v 0.00076444 0.01147121 -0.22130984
v -0.04715756 0.01220677 -0.22197664
v -0.03992847 0.01211204 -0.22186869
v -0.00374831 0.01510443 -0.21765827
v 0.00076444 -0.01197755 -0.21979841
v -0.06359441 -0.03024396 -0.20770061
v -0.06886218 -0.01201656 -0.21847750
v -0.06886218 -0.00710168 -0.22091611
v -0.07609995 -0.00694565 -0.22072559
v -0.08093380 -0.01201656 -0.21562609
v -0.08259138 -0.00515133 -0.21821077
v -0.08555938 0.00096162 -0.21782973
v -0.07609995 -0.01201656 -0.21775353
v -0.07984033 -0.01555505 -0.21433059
v -0.08527300 0.00891904 -0.21782973
v -0.08681775 0.01150464 -0.21270485
v -0.08183636 0.01303149 -0.21788689
v -0.08021350 0.01937291 -0.20749740
v -0.07609995 0.02067128 -0.20860239
v -0.06886218 0.02436580 -0.20305201
v -0.02546162 0.02104463 -0.21029163
v -0.00374831 0.02102792 -0.21026624
v 0.00076444 0.01844788 -0.21382888
v 0.00076444 0.01631922 -0.21621035
v 0.00076444 0.01281416 -0.21991272
v 0.00076444 0.01503199 -0.21759476
v 0.00076444 -0.01669182 -0.21594363
v -0.06226662 -0.03123585 -0.20305201
v -0.06886218 -0.03210515 -0.20305201
v -0.06886218 -0.03012694 -0.20761805
v 0.00076444 -0.01833012 -0.21046945
v -0.08694792 -0.00176330 -0.21401305
v -0.08731242 0.00278937 -0.21531492
v -0.08731242 0.00695755 -0.21531492
v -0.08025689 -0.01605100 -0.21046945
v -0.08260874 -0.01201656 -0.21046945
v -0.07267199 -0.02931337 -0.20696395
v -0.07314062 -0.02994305 -0.20305201
v -0.08743391 0.00891904 -0.21032974
v -0.08699999 0.01193372 -0.20775776
v -0.08061270 0.01990229 -0.20305201
v -0.07609995 0.02292254 -0.20305201
v -0.07609995 0.02324574 -0.19563457
v -0.06886218 0.02465557 -0.19563457
v -0.00374831 0.02351879 -0.20305201
v -0.01822385 0.02105021 -0.21025988
v 0.00076444 0.02077159 -0.21012017
v 0.00076444 0.01938962 -0.21243178
v -0.06265714 -0.03086807 -0.19563457
v 0.00076444 -0.01870347 -0.20305201
v 0.00076444 -0.01870347 -0.19563457
v 0.00076444 -0.01863103 -0.15977300
v -0.06917460 -0.03105753 -0.19522177
v -0.07317533 -0.02999320 -0.19742542
v -0.08594123 -0.00458295 -0.21111085
v -0.08582841 -0.00542995 -0.20305201
v -0.08699999 -0.00190818 -0.20906597
v -0.08743391 0.00096162 -0.21111085
v -0.08765087 0.00845653 -0.20305201
v -0.08060403 -0.01655808 -0.20305201
v -0.08310340 -0.01201656 -0.20305201
v -0.08704338 0.01198945 -0.20305201
v -0.08077760 0.02011404 -0.19563457
v -0.07609995 0.02333490 -0.18822347
v -0.06886218 0.02475030 -0.18822347
v -0.00374831 0.02369154 -0.19563457
v 0.00076444 0.02322345 -0.19563457
v 0.00076444 0.02302842 -0.20305201
v 0.00076444 0.02170775 -0.20740214
v 0.00076444 0.02138455 -0.15977300
v -0.00374831 -0.01863660 -0.15977300
v -0.06412379 -0.02974801 -0.19140509
v -0.06697030 -0.02974801 -0.19140509
v -0.06886218 -0.01868675 -0.15977300
v -0.07609995 -0.01797905 -0.15977300
v -0.07684629 -0.01771158 -0.15977300
v -0.08060403 -0.01634633 -0.15977300
v -0.08276494 -0.01272983 -0.15977300
v -0.08319018 -0.01201656 -0.15977300
v -0.08320755 -0.01201656 -0.16596479
v -0.08322490 -0.01201656 -0.17338223
v -0.08322490 -0.01201656 -0.18080603
v -0.08587180 -0.00550240 -0.19563457
v -0.08703471 -0.00202520 -0.20305201
v -0.08763352 0.00163031 -0.20305201
v -0.08786783 0.00845653 -0.16596479
v -0.08707809 0.01202845 -0.19563457
v -0.08079495 0.02015305 -0.18822347
v -0.07609995 0.02339620 -0.18080603
v -0.08719092 0.01217333 -0.16596479
v -0.06886218 0.02480045 -0.18080603
v -0.00374831 0.02368039 -0.18822347
v 0.00076444 0.02322345 -0.18822347
v -0.06886218 0.02482274 -0.17338223
v -0.00199528 0.02177462 -0.15977300
v -0.08592388 -0.00556369 -0.15977300
v -0.08593255 -0.00556369 -0.17338223
v -0.08592388 -0.00555255 -0.18080603
v -0.08589784 -0.00553026 -0.18822347
v -0.08706074 -0.00209207 -0.19563457
v -0.08766823 0.00163031 -0.19563457
v -0.08789387 0.00845653 -0.15977300
v -0.08083835 0.02021434 -0.17338223
v -0.07609995 0.02343521 -0.17338223
v -0.08719960 0.01216776 -0.15977300
v -0.00374831 0.02188607 -0.15977300
v -0.00268087 0.02181920 -0.15977300
v -0.06886218 0.02479488 -0.16596479
v -0.08707809 -0.00215894 -0.15977300
v -0.08707809 -0.00215894 -0.17338223
v -0.08706942 -0.00211993 -0.18822347
v -0.08776369 0.00163031 -0.15977300
v -0.08773766 0.00163031 -0.17338223
v -0.08077760 0.02011961 -0.16596479
v -0.07609995 0.02334047 -0.16596479
v -0.08673964 0.01273058 -0.15977300
v -0.06886218 0.02346307 -0.15977300
v -0.08765087 0.00100620 -0.15977300
v -0.08037839 0.01957909 -0.16021120
v -0.07646444 0.02157402 -0.15977300
v -0.08091645 0.01886582 -0.15977300
v -0.07958866 0.01989114 -0.15977300
f 1 2 7
f 1 7 14
f 1 14 26
f 1 26 50
f 1 50 51
f 1 51 49
f 1 49 48
f 1 48 73
f 1 73 72
f 1 72 94
f 1 94 93
f 1 93 92
f 1 92 118
f 1 118 95
f 1 95 77
f 1 77 76
f 1 76 75
f 1 75 56
f 1 56 52
f 1 52 30
f 1 30 17
f 1 17 8
f 1 8 3
f 1 3 4
f 1 4 5
f 1 5 6
f 1 6 2
f 2 6 7
f 3 8 4
f 4 9 5
f 4 8 9
f 5 9 10
f 5 10 11
f 5 11 12
f 5 12 6
f 6 12 13
f 6 13 7
f 7 13 12
f 7 12 15
f 7 15 16
f 7 16 14
f 8 17 18
f 8 18 9
f 9 18 19
f 9 19 20
f 9 20 21
f 9 21 10
f 10 21 22
f 10 22 11
f 11 22 23
f 11 23 12
f 12 23 24
f 12 24 25
f 12 25 15
f 14 16 27
f 14 27 28
f 14 28 26
f 15 25 16
f 16 25 29
f 16 29 27
f 17 30 31
f 17 31 32
f 17 32 33
f 17 33 18
f 18 33 34
f 18 34 19
f 19 35 36
f 19 36 37
f 19 37 20
f 19 34 38
f 19 38 39
f 19 39 35
f 20 37 40
f 20 40 21
f 21 40 22
f 22 40 41
f 22 41 42
f 22 42 43
f 22 43 44
f 22 44 23
f 23 44 45
f 23 45 46
f 23 46 24
f 24 46 47
f 24 47 25
f 25 47 48
f 25 48 49
f 25 49 29
f 26 28 50
f 27 29 28
f 28 29 50
f 29 49 51
f 29 51 50
f 30 52 31
f 31 53 54
f 31 54 55
f 31 55 32
f 31 52 56
f 31 56 53
f 32 55 38
f 32 38 34
f 32 34 33
f 35 39 57
f 35 57 36
f 36 57 37
f 37 57 58
f 37 58 59
f 37 59 40
f 38 55 39
f 39 60 61
f 39 61 57
f 39 55 62
f 39 62 63
f 39 63 60
f 40 59 41
f 41 59 64
f 41 64 65
f 41 65 66
f 41 66 43
f 41 43 42
f 43 66 67
f 43 67 44
f 44 67 45
f 45 67 68
f 45 68 69
f 45 69 70
f 45 70 47
f 45 47 71
f 45 71 46
f 46 71 47
f 47 70 72
f 47 72 73
f 47 73 48
f 53 74 54
f 53 56 75
f 53 75 76
f 53 76 77
f 53 77 74
f 54 78 79
f 54 79 63
f 54 63 62
f 54 62 55
f 54 74 78
f 57 61 80
f 57 80 81
f 57 81 82
f 57 82 83
f 57 83 58
f 58 83 59
f 59 83 84
f 59 84 64
f 60 63 61
f 61 63 85
f 61 85 86
f 61 86 80
f 63 79 85
f 64 84 65
f 65 84 87
f 65 87 88
f 65 88 66
f 66 88 68
f 66 68 67
f 68 88 89
f 68 89 90
f 68 90 69
f 69 90 91
f 69 91 70
f 70 91 92
f 70 92 93
f 70 93 94
f 70 94 72
f 74 77 78
f 77 95 120
f 77 120 132
f 77 132 131
f 77 131 142
f 77 142 145
f 77 145 147
f 77 147 146
f 77 146 141
f 77 141 130
f 77 130 127
f 77 127 137
f 77 137 143
f 77 143 134
f 77 134 121
f 77 121 104
f 77 104 103
f 77 103 102
f 77 102 101
f 77 101 100
f 77 100 99
f 77 99 96
f 77 96 97
f 77 97 78
f 78 97 98
f 78 98 99
f 78 99 100
f 78 100 101
f 78 101 102
f 78 102 79
f 79 102 103
f 79 103 104
f 79 104 105
f 79 105 106
f 79 106 107
f 79 107 85
f 80 86 81
f 81 108 109
f 81 109 82
f 81 86 108
f 82 109 110
f 82 110 83
f 83 110 84
f 84 110 111
f 84 111 87
f 85 107 86
f 86 107 108
f 87 111 112
f 87 112 88
f 88 113 114
f 88 114 89
f 88 112 115
f 88 115 113
f 89 114 90
f 90 114 116
f 90 116 91
f 91 117 118
f 91 118 92
f 91 116 119
f 91 119 117
f 95 118 120
f 96 99 97
f 97 99 98
f 104 121 105
f 105 121 106
f 106 121 122
f 106 122 107
f 107 122 123
f 107 123 124
f 107 124 108
f 108 124 125
f 108 125 109
f 109 125 110
f 110 126 111
f 110 125 126
f 111 127 115
f 111 115 112
f 111 126 127
f 113 115 128
f 113 128 114
f 114 128 129
f 114 129 116
f 115 127 130
f 115 130 128
f 116 129 119
f 117 131 132
f 117 132 120
f 117 120 118
f 117 119 133
f 117 133 131
f 119 129 133
f 121 134 122
f 122 134 135
f 122 135 136
f 122 136 123
f 123 125 124
f 123 136 125
f 125 136 137
f 125 137 138
f 125 138 126
f 126 138 127
f 127 138 137
f 128 139 140
f 128 140 129
f 128 130 141
f 128 141 139
f 129 140 133
f 131 133 142
f 133 140 142
f 134 143 135
f 135 143 137
f 135 137 136
f 139 144 140
f 139 141 144
f 140 144 145
f 140 145 142
f 141 146 144
f 144 146 147
f 144 147 145

o geometry_1
v 0.04565953 -0.02019362 0.20447386
v 0.00076444 -0.01910553 0.20496023
v 0.00076444 -0.01870443 -0.20301257
v 0.04565953 -0.02018935 0.20270525
v 0.04565953 -0.01897752 0.21234415
v 0.00076444 -0.01873857 0.21234415
v 0.00076444 -0.01887938 0.20955859
v 0.00076444 -0.01832894 -0.21044072
v 0.00348909 -0.01834174 -0.21044072
v 0.04565953 -0.01850815 -0.21044072
v 0.04565953 -0.01870443 -0.20301257
v 0.04565953 -0.01690802 0.21795947
v 0.00076444 -0.01689949 0.21787103
v 0.00076444 -0.01759501 0.21579292
v 0.00076444 -0.01669467 -0.21592339
v 0.00348909 -0.01671174 -0.21596760
v 0.01072697 -0.01674161 -0.21605603
v 0.04565953 -0.01687815 -0.21645397
v 0.04565953 -0.01823506 -0.21145766
v 0.04565953 -0.01223992 0.22167353
v 0.03242743 -0.01221431 0.22162932
v 0.00076444 -0.01206924 0.22158510
v 0.00076444 -0.01197963 -0.21977010
v 0.00348909 -0.01229112 -0.21968167
v 0.03242743 -0.01298664 -0.22003538
v 0.03966531 -0.01311892 -0.22012383
v 0.03966531 -0.01684402 -0.21640975
v 0.04565953 -0.01316586 -0.22016804
v 0.04565953 -0.00882631 0.22361901
v 0.03966531 -0.00881351 0.22361901
v 0.01796045 -0.00874097 0.22357478
v 0.00076444 -0.00865563 0.22353058
v 0.00076444 -0.00880071 -0.22167135
v 0.00348909 -0.00887751 -0.22171555
v 0.01072697 -0.00903966 -0.22180401
v 0.03242743 -0.00957730 -0.22202506
v 0.03966531 -0.00970531 -0.22211349
v 0.04565953 -0.00975225 -0.22211349
v 0.04565953 -0.00581380 0.22476859
v 0.01796045 -0.00519082 0.22503388
v 0.01072697 -0.00519082 0.22503388
v 0.00076444 -0.00648799 0.22445908
v 0.00076444 -0.00781503 -0.22206929
v 0.00348909 -0.00519082 -0.22317465
v 0.03242743 -0.00519082 -0.22374947
v 0.03966531 -0.00519082 -0.22388210
v 0.04565953 -0.00519082 -0.22397053
v 0.04565953 -0.00519082 0.22498968
v 0.00076444 0.00163213 0.22671406
v 0.00076444 -0.00519082 0.22498968
v 0.00076444 -0.00542550 -0.22299780
v 0.00076444 -0.00262208 -0.22370524
v 0.00076444 0.00163213 -0.22463375
v 0.00348909 0.00163213 -0.22467798
v 0.01796045 0.00163213 -0.22485483
v 0.03242743 0.00163213 -0.22494326
v 0.03966531 0.00163213 -0.22498749
v 0.04565953 -0.00401739 -0.22414738
v 0.04565953 0.00163213 0.22596241
v 0.02519394 0.00163213 0.22644878
v 0.01796045 0.00163213 0.22658140
v 0.00348909 0.00764434 0.22521073
v 0.00076444 0.00769981 0.22521073
v 0.00076444 0.00407286 -0.22410318
v 0.00348909 0.00802411 -0.22321888
v 0.04565953 0.00163213 -0.22494326
v 0.01796045 0.00775528 -0.22326310
v 0.02519394 0.00759314 -0.22326310
v 0.02519394 0.00709816 0.22498968
v 0.01796045 0.00729871 0.22512231
v 0.04565953 0.00638131 0.22459174
v 0.03966531 0.00659466 0.22472437
v 0.03242743 0.00685068 0.22485702
v 0.00076444 0.01110915 0.22269048
v 0.00076444 0.00805824 -0.22317465
v 0.00076444 0.00934261 -0.22251143
v 0.04565953 0.00257940 -0.22463375
v 0.00348909 0.01143771 -0.22127341
v 0.03242743 0.00737979 -0.22321888
v 0.03609251 0.01872576 0.21610243
v 0.03242743 0.01880684 0.21614665
v 0.04565953 0.00979491 0.22101031
v 0.02519394 0.01885377 0.21619086
v 0.01931399 0.01878123 0.21614665
v 0.01449313 0.01868736 0.21605822
v 0.00076444 0.01460383 0.21902063
v 0.00076444 0.01147185 -0.22127341
v 0.03966531 0.00714510 -0.22317465
v 0.04565953 0.00695735 -0.22308622
v 0.00076444 0.01281596 -0.21990274
v 0.00348909 0.01499213 -0.21755934
v 0.02519394 0.01470624 -0.21707297
v 0.01072697 0.01130970 -0.22109656
v 0.02519394 0.01100674 -0.22078705
v 0.04565953 0.01333226 0.21725202
v 0.04565953 0.01612715 0.21296315
v 0.04565953 0.01654105 0.21199042
v 0.03725268 0.01960050 0.21234415
v 0.03242743 0.02086780 0.21234415
v 0.02519394 0.02124330 0.21234415
v 0.00076444 0.01801317 0.21490862
v 0.01732764 0.02048804 0.21309580
v 0.00076444 0.02040696 0.21119456
v 0.03242743 0.01079339 -0.22043332
v 0.03242743 0.01444595 -0.21676348
v 0.03242743 0.01785529 -0.21273989
v 0.04565953 0.00763581 -0.22215772
v 0.00076444 0.01503480 -0.21755934
v 0.00076444 0.01631917 -0.21618867
v 0.00076444 0.01844841 -0.21380105
v 0.02519394 0.01811985 -0.21309362
v 0.04565953 0.01761207 0.20593296
v 0.03242743 0.02277089 0.20496023
v 0.02519394 0.02339813 0.20496023
v 0.00076444 0.02226738 0.20496023
v 0.04565953 0.01547857 -0.21097130
v 0.03242743 0.01950662 -0.20902583
v 0.03686157 0.01917806 -0.20809732
v 0.00076444 0.01939141 -0.21243040
v 0.00076444 0.02076966 -0.21008699
v 0.04565953 0.01773155 0.20496023
v 0.03242743 0.02260447 0.01947785
v 0.02519394 0.02331706 0.06400246
v 0.00076444 0.02322746 -0.19562865
v 0.00076444 0.02322319 -0.18820051
v 0.04565953 0.01572606 -0.20955641
v 0.00076444 0.02170840 -0.20738987
v 0.00076444 0.02303117 -0.20301257
v 0.03242743 0.02040270 -0.20301257
v 0.03730542 0.01944262 -0.20301257
v 0.04565953 0.01681841 -0.20301257
v 0.04565953 0.01696349 -0.18820051
v 0.03816236 0.02032589 -0.05467089
v 0.03242743 0.02250633 -0.05467089
v 0.02519394 0.02316345 -0.03238647
v 0.03242743 0.02140971 -0.15110404
v 0.03242743 0.02079526 -0.18820051
v 0.03242743 0.02060324 -0.19562865
v 0.02519394 0.02303544 -0.05467089
v 0.03751636 0.01964317 -0.18820051
v 0.04565953 0.01691655 -0.19562865
v 0.03777564 0.01993332 -0.15110404
f 148 149 150
f 148 150 151
f 148 151 158
f 148 158 157
f 148 157 166
f 148 166 165
f 148 165 175
f 148 175 185
f 148 185 194
f 148 194 205
f 148 205 213
f 148 213 224
f 148 224 236
f 148 236 254
f 148 254 263
f 148 263 273
f 148 273 278
f 148 278 288
f 148 288 279
f 148 279 268
f 148 268 259
f 148 259 244
f 148 244 243
f 148 243 242
f 148 242 229
f 148 229 218
f 148 218 206
f 148 206 195
f 148 195 186
f 148 186 176
f 148 176 167
f 148 167 159
f 148 159 152
f 148 152 153
f 148 153 154
f 148 154 149
f 149 154 153
f 149 153 161
f 149 161 160
f 149 160 169
f 149 169 179
f 149 179 189
f 149 189 197
f 149 197 196
f 149 196 210
f 149 210 221
f 149 221 233
f 149 233 248
f 149 248 250
f 149 250 262
f 149 262 272
f 149 272 271
f 149 271 275
f 149 275 274
f 149 274 267
f 149 267 266
f 149 266 257
f 149 257 256
f 149 256 255
f 149 255 237
f 149 237 234
f 149 234 223
f 149 223 222
f 149 222 211
f 149 211 200
f 149 200 199
f 149 199 198
f 149 198 190
f 149 190 180
f 149 180 170
f 149 170 162
f 149 162 155
f 149 155 150
f 150 155 156
f 150 156 157
f 150 157 158
f 150 158 151
f 152 159 160
f 152 160 161
f 152 161 153
f 155 162 163
f 155 163 164
f 155 164 165
f 155 165 156
f 156 165 166
f 156 166 157
f 159 167 160
f 160 168 169
f 160 167 168
f 162 170 171
f 162 171 172
f 162 172 173
f 162 173 163
f 163 173 164
f 164 173 174
f 164 174 165
f 165 174 175
f 167 176 177
f 167 177 178
f 167 178 169
f 167 169 168
f 169 178 179
f 170 180 171
f 171 180 181
f 171 181 172
f 172 181 182
f 172 182 183
f 172 183 173
f 173 175 174
f 173 183 184
f 173 184 175
f 175 184 185
f 176 186 187
f 176 187 188
f 176 188 177
f 177 189 178
f 177 188 189
f 178 189 179
f 180 190 181
f 181 190 191
f 181 191 182
f 182 191 183
f 183 191 192
f 183 192 184
f 184 192 193
f 184 193 194
f 184 194 185
f 186 195 187
f 187 195 196
f 187 196 188
f 188 197 189
f 188 196 197
f 190 198 191
f 191 198 199
f 191 199 192
f 192 199 200
f 192 200 193
f 193 200 201
f 193 201 194
f 194 201 202
f 194 202 203
f 194 203 204
f 194 204 205
f 195 206 207
f 195 207 208
f 195 208 196
f 196 208 209
f 196 209 210
f 200 211 201
f 201 211 202
f 202 211 212
f 202 212 203
f 203 212 204
f 204 213 205
f 204 212 214
f 204 214 215
f 204 215 213
f 206 216 217
f 206 217 207
f 206 218 219
f 206 219 220
f 206 220 216
f 207 217 208
f 208 217 209
f 209 217 221
f 209 221 210
f 211 222 212
f 212 222 223
f 212 223 214
f 213 215 224
f 214 223 225
f 214 225 215
f 215 226 224
f 215 225 226
f 216 220 227
f 216 227 217
f 217 227 228
f 217 228 221
f 218 229 227
f 218 227 219
f 219 227 220
f 221 230 231
f 221 231 232
f 221 232 233
f 221 228 230
f 223 234 225
f 224 226 235
f 224 235 236
f 225 234 237
f 225 237 238
f 225 238 239
f 225 239 240
f 225 240 241
f 225 241 235
f 225 235 226
f 227 229 242
f 227 242 243
f 227 243 244
f 227 244 245
f 227 245 246
f 227 246 247
f 227 247 228
f 228 247 230
f 230 247 231
f 231 247 232
f 232 248 233
f 232 247 249
f 232 249 250
f 232 250 248
f 235 241 236
f 236 241 251
f 236 251 252
f 236 252 253
f 236 253 254
f 237 255 238
f 238 255 256
f 238 256 239
f 239 256 257
f 239 257 258
f 239 258 252
f 239 252 251
f 239 251 241
f 239 241 240
f 244 259 260
f 244 260 245
f 245 260 246
f 246 260 261
f 246 261 247
f 247 261 262
f 247 262 250
f 247 250 249
f 252 258 253
f 253 263 254
f 253 258 264
f 253 264 265
f 253 265 263
f 257 266 258
f 258 266 267
f 258 267 264
f 259 268 260
f 260 268 269
f 260 269 270
f 260 270 261
f 261 270 271
f 261 271 272
f 261 272 262
f 263 265 273
f 264 267 274
f 264 274 275
f 264 275 276
f 264 276 265
f 265 276 277
f 265 277 278
f 265 278 273
f 268 279 280
f 268 280 269
f 269 280 281
f 269 281 270
f 270 281 282
f 270 282 271
f 271 283 284
f 271 284 285
f 271 285 275
f 271 282 286
f 271 286 281
f 271 281 283
f 275 285 276
f 276 285 277
f 277 285 284
f 277 284 287
f 277 287 278
f 278 287 288
f 279 288 281
f 279 281 280
f 281 288 289
f 281 289 287
f 281 287 283
f 281 286 282
f 283 287 284
f 287 289 288

o geometry_2
v -0.05439576 0.03129771 0.20496511
v -0.05439576 0.03101461 0.19755118
v -0.06044929 0.02819620 0.19755118
v -0.06056237 0.02834089 0.20496511
v -0.05977958 0.02736578 0.21238337
v -0.05439576 0.02908954 0.21238337
v -0.04715936 0.03112156 0.20496511
v -0.04715936 0.03086362 0.19755118
v -0.05439576 0.02818361 0.19048349
v -0.05961433 0.02725882 0.19158714
v -0.08719443 0.01216020 0.18267137
v -0.08716834 0.01210358 0.20496511
v -0.08707266 0.01199663 0.21238337
v -0.08696829 0.01188339 0.21613146
v -0.05861410 0.02604464 0.21642144
v -0.08309786 0.01278931 0.21908319
v -0.08052337 0.01229231 0.22397821
v -0.05439576 0.02614530 0.21646905
v -0.04715936 0.02860512 0.21238337
v -0.00374961 0.02365403 0.20496511
v -0.00374961 0.02367290 0.19755118
v -0.04715936 0.02810812 0.19079943
v -0.00374961 0.02199318 0.19013292
v -0.00415840 0.01947045 0.18267137
v -0.05433488 0.02296830 0.18267137
v -0.05439576 0.02296830 0.18267137
v -0.08333269 0.01384621 0.18267137
v -0.04715936 0.02285506 0.18267137
v -0.08722052 0.01212874 0.18267137
v -0.08721182 0.01214762 0.18271466
v -0.08809029 0.00845475 0.18267137
v -0.08804680 0.00845475 0.19013292
v -0.08794242 0.00845475 0.20496511
v -0.08780326 0.00845475 0.21238337
v -0.08732489 0.00845475 0.21721780
v -0.08535054 0.00845475 0.22092693
v -0.07609628 0.01260687 0.22433741
v -0.08173234 0.00845475 0.22479186
v -0.07609628 0.00845475 0.22628505
v -0.06885988 0.01270752 0.22445861
v -0.06162347 0.01275785 0.22441101
v -0.05439576 0.01267607 0.22425087
v 0.00076445 0.00769981 0.22524631
v -0.04715936 0.02575525 0.21622668
v -0.04353245 0.02552877 0.21610116
v -0.00374961 0.02112501 0.21212802
v 0.00076445 0.02040782 0.21120615
v 0.00076445 0.02226370 0.20496511
v 0.00076445 0.02203722 0.19733911
v 0.00076445 0.02109355 0.19198964
v -0.01098602 0.02018135 0.18267137
v 0.00076445 0.02067205 0.19013292
v 0.00076445 0.01852679 0.18267137
v -0.08804680 0.00161004 0.18267137
v -0.08804680 0.00162891 0.18271466
v -0.08801200 0.00162891 0.19013292
v -0.08795112 0.00162891 0.19755118
v -0.08788154 0.00162891 0.20496511
v -0.08780326 0.00162891 0.21238337
v -0.08735968 0.00162891 0.21730869
v -0.08562016 0.00162891 0.22101782
v -0.08200196 0.00162891 0.22506455
v -0.06885988 0.00845475 0.22648847
v -0.07609628 0.00162891 0.22675680
v -0.06162347 0.00845475 0.22642355
v -0.05439576 0.00845475 0.22625475
v 0.00076445 0.00162891 0.22671353
v 0.00076445 0.01110959 0.22273172
v -0.00374961 0.01848275 0.21583715
v 0.00076445 0.01801092 0.21491528
v 0.00076445 -0.01893039 0.18267137
v -0.08717703 -0.00240997 0.18271466
v -0.08715964 -0.00237223 0.19013292
v -0.08714224 -0.00231561 0.19755118
v -0.08717703 -0.00240997 0.18267137
v -0.08711615 -0.00223382 0.20496511
v -0.08706397 -0.00210171 0.21238337
v -0.08701178 -0.00193185 0.21625265
v -0.08350665 -0.00500190 0.21971508
v -0.08088866 -0.00352350 0.22434176
v -0.06885988 0.00162891 0.22688664
v -0.04715936 0.00162891 0.22684337
v -0.00374961 0.00162891 0.22673083
v -0.07609628 -0.00458669 0.22480486
v 0.00076445 -0.00519064 0.22500828
v 0.00076445 0.01460114 0.21902259
v 0.00076445 -0.01905621 0.19755118
v -0.06885988 -0.03297211 0.19755118
v -0.06364132 -0.03024177 0.19282063
v -0.06885988 -0.03061295 0.19251333
v -0.06885988 -0.01926382 0.18267137
v -0.08595937 -0.00581975 0.18271466
v -0.08595067 -0.00578200 0.19013292
v -0.08593327 -0.00572538 0.19755118
v -0.08590718 -0.00564989 0.20496511
v -0.08595937 -0.00581975 0.18267137
v -0.08581151 -0.00551148 0.21238337
v -0.08319353 -0.01201647 0.21238337
v -0.08019286 -0.01596099 0.21668113
v -0.08127136 -0.01201647 0.21813534
v -0.07609628 -0.01201647 0.22078843
v -0.07609628 -0.00799647 0.22316453
v -0.06885988 -0.00479430 0.22485246
v -0.01822243 -0.00517176 0.22494768
v -0.00374961 -0.00519064 0.22499528
v -0.06885988 -0.00820407 0.22332900
v 0.00076445 -0.00865703 0.22354106
v 0.00076445 -0.01908767 0.20217786
v 0.00076445 -0.01910654 0.20496511
v 0.00076445 -0.01888006 0.20959179
v 0.00076445 -0.01874165 0.21238337
v -0.06885988 -0.03205990 0.20496511
v -0.07359137 -0.03022920 0.20496511
v -0.07415672 -0.03082056 0.19755118
v -0.07333045 -0.02995238 0.19309330
v -0.07612238 -0.01849001 0.18267137
v -0.07609628 -0.01849630 0.18267137
v -0.08355883 -0.01201647 0.20496511
v -0.08344576 -0.01201647 0.18267137
v -0.08354144 -0.01201647 0.19755118
v -0.08098434 -0.01740794 0.20496511
v -0.08071472 -0.01664672 0.21238337
v -0.07609628 -0.01671592 0.21742555
v -0.07257376 -0.02917229 0.20874782
v -0.06885988 -0.02970074 0.20916332
v -0.06885988 -0.01722550 0.21790163
v -0.06885988 -0.01201647 0.22142898
v -0.02545883 -0.00853121 0.22348048
v -0.01822243 -0.00858154 0.22350211
v -0.01442157 -0.00860041 0.22351077
v -0.01159485 -0.00587008 0.22467934
v 0.00076445 -0.00994041 0.22280963
v -0.06162347 -0.01201647 0.22147659
v -0.05439576 -0.01201647 0.22149823
v 0.00076445 -0.01689836 0.21787998
v -0.06418057 -0.02981398 0.20924988
v -0.07690516 -0.02566186 0.19755118
v -0.08082778 -0.01660268 0.18267137
v -0.08094086 -0.01753376 0.19755118
v 0.00076445 -0.01206680 0.22158912
v 0.00076445 -0.01389122 0.22019549
f 290 291 292
f 290 292 293
f 290 293 294
f 290 294 295
f 290 295 296
f 290 296 297
f 290 297 291
f 291 298 299
f 291 299 292
f 291 297 298
f 292 299 300
f 292 300 293
f 293 300 301
f 293 301 302
f 293 302 303
f 293 303 294
f 294 304 295
f 294 303 305
f 294 305 306
f 294 306 304
f 295 304 307
f 295 307 308
f 295 308 296
f 296 308 309
f 296 309 310
f 296 310 297
f 297 311 298
f 297 310 312
f 297 312 313
f 297 313 311
f 298 314 315
f 298 315 316
f 298 316 299
f 298 311 317
f 298 317 314
f 299 316 300
f 300 316 315
f 300 315 314
f 300 314 317
f 300 317 340
f 300 340 313
f 300 313 342
f 300 342 360
f 300 360 380
f 300 380 406
f 300 406 405
f 300 405 427
f 300 427 408
f 300 408 385
f 300 385 364
f 300 364 343
f 300 343 320
f 300 320 318
f 300 318 319
f 300 319 301
f 301 319 318
f 301 318 320
f 301 320 321
f 301 321 322
f 301 322 302
f 302 322 323
f 302 323 303
f 303 323 324
f 303 324 325
f 303 325 306
f 303 306 305
f 304 306 326
f 304 326 307
f 306 325 327
f 306 327 328
f 306 328 326
f 307 326 329
f 307 329 330
f 307 330 331
f 307 331 332
f 307 332 333
f 307 333 308
f 308 333 334
f 308 334 335
f 308 335 309
f 309 335 336
f 309 336 337
f 309 337 310
f 310 337 338
f 310 338 339
f 310 339 312
f 311 313 340
f 311 340 317
f 312 339 341
f 312 341 342
f 312 342 313
f 320 343 344
f 320 344 345
f 320 345 321
f 321 345 322
f 322 345 346
f 322 346 347
f 322 347 348
f 322 348 323
f 323 348 349
f 323 349 324
f 324 349 350
f 324 350 325
f 325 350 351
f 325 351 327
f 326 328 352
f 326 352 329
f 327 351 353
f 327 353 328
f 328 353 352
f 329 352 330
f 330 352 354
f 330 354 355
f 330 355 332
f 330 332 331
f 332 356 374
f 332 374 396
f 332 396 421
f 332 421 429
f 332 429 430
f 332 430 424
f 332 424 400
f 332 400 399
f 332 399 398
f 332 398 397
f 332 397 376
f 332 376 360
f 332 360 342
f 332 342 341
f 332 341 339
f 332 339 338
f 332 338 337
f 332 337 336
f 332 336 359
f 332 359 375
f 332 375 357
f 332 357 334
f 332 334 333
f 332 355 354
f 332 354 356
f 334 357 358
f 334 358 335
f 335 358 359
f 335 359 336
f 343 361 362
f 343 362 363
f 343 363 345
f 343 345 344
f 343 364 361
f 345 363 365
f 345 365 346
f 346 365 347
f 347 365 348
f 348 365 366
f 348 366 367
f 348 367 349
f 349 367 350
f 350 367 368
f 350 368 369
f 350 369 351
f 351 369 353
f 352 353 370
f 352 370 371
f 352 371 372
f 352 372 356
f 352 356 354
f 353 369 373
f 353 373 370
f 356 372 374
f 357 375 358
f 358 375 359
f 360 376 377
f 360 377 378
f 360 378 379
f 360 379 380
f 361 364 385
f 361 385 381
f 361 381 382
f 361 382 362
f 362 382 383
f 362 383 363
f 363 383 384
f 363 384 365
f 365 384 366
f 366 384 386
f 366 386 367
f 367 386 387
f 367 387 388
f 367 388 389
f 367 389 368
f 368 389 369
f 369 389 388
f 369 388 390
f 369 390 391
f 369 391 373
f 370 373 392
f 370 392 393
f 370 393 394
f 370 394 374
f 370 374 371
f 371 374 372
f 373 391 395
f 373 395 392
f 374 394 396
f 376 397 377
f 377 398 399
f 377 399 400
f 377 400 401
f 377 401 402
f 377 402 403
f 377 403 404
f 377 404 379
f 377 379 378
f 377 397 398
f 379 404 405
f 379 405 406
f 379 406 380
f 381 385 407
f 381 407 382
f 382 407 383
f 383 407 384
f 384 407 386
f 385 408 409
f 385 409 407
f 386 407 387
f 387 410 411
f 387 411 388
f 387 407 410
f 388 412 390
f 388 411 402
f 388 402 413
f 388 413 412
f 390 412 414
f 390 414 415
f 390 415 416
f 390 416 391
f 391 416 395
f 392 395 417
f 392 417 418
f 392 418 393
f 393 418 419
f 393 419 420
f 393 420 394
f 394 420 396
f 395 416 417
f 396 420 419
f 396 419 422
f 396 422 423
f 396 423 421
f 400 424 401
f 401 425 414
f 401 414 413
f 401 413 402
f 401 424 425
f 402 411 403
f 403 411 410
f 403 410 426
f 403 426 408
f 403 408 427
f 403 427 404
f 404 427 405
f 407 428 410
f 407 409 428
f 408 426 428
f 408 428 409
f 410 428 426
f 412 413 414
f 414 425 415
f 415 423 422
f 415 422 416
f 415 425 429
f 415 429 423
f 416 422 417
f 417 422 418
f 418 422 419
f 421 423 429
f 424 430 425
f 425 430 429

o geometry_3
v 0.00076444 0.01852721 0.18267134
v -0.00416038 0.01946740 0.18267134
v 0.00076444 -0.01893012 0.18267134
v 0.00076444 0.02013620 0.16785562
v -0.01099073 0.02310700 0.16785562
v -0.01099073 0.02017981 0.18267134
v -0.04715247 0.02970287 0.16785562
v -0.04715247 0.02748324 0.17382215
v -0.06886169 -0.01926452 0.18267134
v 0.00076444 -0.01862965 -0.15976665
v 0.00076444 0.02114423 0.14097275
v -0.04715247 0.02980464 0.16044774
v 0.00076444 0.02121208 0.13819063
v -0.04715247 0.02285499 0.18267134
v -0.05439178 0.02985795 0.16044774
v -0.05439178 0.02968348 0.16785562
v -0.05439178 0.02744932 0.17375510
v -0.05433957 0.02297130 0.18267134
v -0.07610101 -0.01849880 0.18267134
v -0.07610101 -0.01798024 -0.15976665
v -0.07005374 -0.01857149 -0.15976665
v -0.06886169 -0.01868296 -0.15976665
v -0.00177628 -0.01863450 -0.15976665
v 0.00076444 0.02138655 -0.15976665
v -0.04715247 0.02993549 0.13819063
v 0.00076444 0.02283560 -0.15111855
v -0.00375143 0.02371764 -0.15111855
v -0.06023021 0.02762863 0.16044774
v -0.06016930 0.02749293 0.16785562
v -0.05439178 0.02997910 0.13819063
v -0.05936010 0.02670783 0.17295063
v -0.05439178 0.02296646 0.18267134
v -0.07612710 -0.01848911 0.18267134
v -0.08059947 -0.01634703 -0.15976665
v -0.00199381 0.02177426 -0.15976665
v -0.00375143 0.02246244 -0.15852640
v 0.00076444 0.02182757 -0.15852640
v -0.04715247 0.03024565 0.06401136
v 0.00076444 0.02230251 -0.15574429
v -0.04715247 0.02899530 -0.13626929
v -0.04715247 0.02973679 -0.12886142
v -0.04715247 0.03017780 -0.09175503
v -0.08719489 0.01215913 0.18267134
v -0.05439178 0.03017780 0.06401136
v -0.06036943 0.02776433 0.06401136
v -0.07646644 0.02157556 -0.15976665
v -0.07959014 0.01988903 -0.15976665
v -0.08333161 0.01384565 0.18267134
v -0.08082569 -0.01659904 0.18267134
v -0.08276604 -0.01273166 -0.15976665
v -0.00375143 0.02189057 -0.15976665
v -0.06886169 0.02346563 -0.15976665
v -0.05439178 0.03018750 -0.09175503
v -0.05439178 0.02911646 -0.13626929
v -0.05439178 0.02971256 -0.12886142
v -0.08722100 0.01213005 0.18267134
v -0.08091270 0.01886646 -0.15976665
v -0.08722100 0.01216397 0.17526349
v -0.08343602 -0.01203863 0.18267134
v -0.08319240 -0.01201440 -0.15976665
v -0.08808241 0.00845652 0.18267134
v -0.08809110 0.00845652 0.17526349
v -0.08674244 0.01273099 -0.15976665
v -0.08734281 0.01227544 -0.01757577
v -0.08735152 0.01227544 -0.01016790
v -0.08595934 -0.00582078 0.18267134
v -0.08595934 -0.00600979 0.13074922
v -0.08596804 -0.00600979 -0.01016790
v -0.08592454 -0.00556393 -0.15976665
v -0.08808241 0.00841775 0.18267134
v -0.08811721 0.00163773 0.11593349
v -0.08804760 0.00161350 0.18267134
v -0.08812591 0.00845652 -0.01016790
v -0.08720359 0.01216882 -0.15976665
v -0.08730801 0.01223667 -0.07693929
v -0.08809110 0.00845652 -0.09916290
v -0.08809981 0.00845652 -0.08434716
v -0.08717749 -0.00240896 0.18267134
v -0.08725580 -0.00259797 0.13074922
v -0.08725580 -0.00259797 -0.01016790
v -0.08713399 -0.00228780 -0.13626929
v -0.08711659 -0.00224903 -0.14367717
v -0.08708178 -0.00215211 -0.15852640
v -0.08707307 -0.00215211 -0.15976665
v -0.08811721 0.00163773 0.10849210
v -0.08789098 0.00845652 -0.15976665
v -0.08802149 0.00845652 -0.12886142
v -0.08807370 0.00845652 -0.11401215
v -0.08808241 0.00845652 -0.10660428
v -0.08796059 0.00163773 -0.12142003
v -0.08798669 0.00163773 -0.08434716
v -0.08793449 0.00163773 -0.12886142
v -0.08765606 0.00101255 -0.15976665
v -0.08786488 0.00163773 -0.14367717
v -0.08787358 0.00733217 -0.15976665
v -0.08776917 0.00163773 -0.15852640
v -0.08776047 0.00163773 -0.15976665
f 431 432 436
f 431 436 444
f 431 444 448
f 431 448 462
f 431 462 478
f 431 478 473
f 431 473 486
f 431 486 491
f 431 491 500
f 431 500 502
f 431 502 508
f 431 508 496
f 431 496 489
f 431 489 479
f 431 479 463
f 431 463 449
f 431 449 439
f 431 439 433
f 431 433 440
f 431 440 454
f 431 454 467
f 431 467 469
f 431 469 456
f 431 456 443
f 431 443 441
f 431 441 434
f 431 434 435
f 431 435 432
f 432 435 437
f 432 437 438
f 432 438 436
f 433 439 440
f 434 441 435
f 435 442 437
f 435 441 443
f 435 443 442
f 436 438 444
f 437 442 445
f 437 445 446
f 437 446 438
f 438 446 447
f 438 447 448
f 438 448 444
f 439 449 450
f 439 450 451
f 439 451 452
f 439 452 453
f 439 453 440
f 440 453 452
f 440 452 451
f 440 451 450
f 440 450 464
f 440 464 480
f 440 480 490
f 440 490 499
f 440 499 514
f 440 514 523
f 440 523 527
f 440 527 525
f 440 525 516
f 440 516 504
f 440 504 493
f 440 493 487
f 440 487 477
f 440 477 476
f 440 476 482
f 440 482 481
f 440 481 465
f 440 465 454
f 442 443 455
f 442 455 445
f 443 456 457
f 443 457 455
f 445 458 459
f 445 459 446
f 445 455 460
f 445 460 458
f 446 459 461
f 446 461 447
f 447 461 462
f 447 462 448
f 449 463 464
f 449 464 450
f 454 465 466
f 454 466 467
f 455 457 468
f 455 468 460
f 456 469 457
f 457 469 466
f 457 466 470
f 457 470 471
f 457 471 472
f 457 472 468
f 458 473 459
f 458 460 474
f 458 474 475
f 458 475 476
f 458 476 477
f 458 477 473
f 459 473 461
f 460 468 474
f 461 473 478
f 461 478 462
f 463 479 464
f 464 479 480
f 465 481 466
f 466 469 467
f 466 481 482
f 466 482 470
f 468 472 483
f 468 483 474
f 470 482 484
f 470 484 471
f 471 485 483
f 471 483 472
f 471 484 485
f 473 477 487
f 473 487 488
f 473 488 486
f 474 483 476
f 474 476 475
f 476 483 485
f 476 485 484
f 476 484 482
f 479 489 490
f 479 490 480
f 486 488 492
f 486 492 491
f 487 493 494
f 487 494 495
f 487 495 488
f 488 495 492
f 489 496 497
f 489 497 498
f 489 498 490
f 490 498 499
f 491 492 500
f 492 501 502
f 492 502 500
f 492 495 503
f 492 503 501
f 493 504 505
f 493 505 494
f 494 505 495
f 495 505 506
f 495 506 507
f 495 507 503
f 496 508 509
f 496 509 497
f 497 509 498
f 498 510 499
f 498 509 510
f 499 511 512
f 499 512 513
f 499 513 514
f 499 510 511
f 501 503 515
f 501 515 510
f 501 510 509
f 501 509 502
f 502 509 508
f 503 507 515
f 504 516 517
f 504 517 518
f 504 518 505
f 505 518 519
f 505 519 506
f 506 519 520
f 506 520 521
f 506 521 515
f 506 515 507
f 510 521 520
f 510 520 511
f 510 515 521
f 511 520 512
f 512 520 522
f 512 522 513
f 513 523 514
f 513 522 524
f 513 524 523
f 516 525 524
f 516 524 522
f 516 522 517
f 517 522 518
f 518 522 520
f 518 520 519
f 523 526 527
f 523 524 526
f 524 525 526
f 525 527 526

o geometry_4
v 0.06860737 -0.02094629 -0.21291414
v 0.07646735 -0.02094629 -0.21064814
v 0.07348881 -0.03030857 -0.20779960
v 0.06860737 -0.02566777 -0.21094583
v 0.06849980 -0.02094629 -0.21291158
v 0.08043191 -0.02094629 -0.20305461
v 0.07451580 -0.03136760 -0.20305461
v 0.06860737 -0.03402736 -0.20305461
v 0.06860737 -0.03117039 -0.20856434
v 0.07797327 -0.02566777 -0.20305461
v 0.06326493 -0.03063767 -0.20812808
v 0.06165657 -0.02094629 -0.21168748
v 0.08027825 -0.02094629 -0.20090409
v 0.07392675 -0.03080543 -0.19563815
v 0.06860737 -0.03283386 -0.19563815
v 0.06252734 -0.03110637 -0.19563815
v 0.06203049 -0.03173897 -0.20305461
v 0.05596839 -0.02094629 -0.20952926
v 0.07906430 -0.02094629 -0.19465528
v 0.07270255 -0.02955943 -0.19158091
v 0.06860737 -0.02997562 -0.19126270
v 0.06392825 -0.02979378 -0.19138844
v 0.05469041 -0.02094629 -0.19540976
v 0.05841167 -0.02680364 -0.20305461
v 0.05427039 -0.02094629 -0.20305461
v 0.07556841 -0.02094629 -0.18861432
v 0.06860737 -0.02094629 -0.18669990
v 0.06820527 -0.02094629 -0.18677176
v 0.06084470 -0.02094629 -0.18828842
v 0.06051177 -0.02094629 -0.18866565
v 0.05497213 -0.02094629 -0.19494527
f 528 529 530
f 528 530 531
f 528 531 532
f 528 532 539
f 528 539 545
f 528 545 552
f 528 552 550
f 528 550 558
f 528 558 557
f 528 557 556
f 528 556 555
f 528 555 554
f 528 554 553
f 528 553 546
f 528 546 540
f 528 540 533
f 528 533 529
f 529 533 530
f 530 534 535
f 530 535 536
f 530 536 531
f 530 533 537
f 530 537 534
f 531 536 538
f 531 538 532
f 532 538 539
f 533 540 537
f 534 541 535
f 534 537 541
f 535 541 542
f 535 542 543
f 535 543 544
f 535 544 538
f 535 538 536
f 537 540 541
f 538 544 545
f 538 545 539
f 540 546 541
f 541 547 542
f 541 546 547
f 542 548 549
f 542 549 543
f 542 547 548
f 543 549 550
f 543 550 544
f 544 550 551
f 544 551 545
f 545 551 552
f 546 553 547
f 547 554 548
f 547 553 554
f 548 554 549
f 549 555 556
f 549 556 557
f 549 557 558
f 549 558 550
f 549 554 555
f 550 552 551

o geometry_5
v 0.06849523 -0.02094629 -0.21287150
v 0.06860342 -0.02094629 -0.21287150
v 0.06165866 -0.02094629 -0.21166982
v 0.04566368 -0.01687544 -0.21644013
v 0.06860342 -0.01758380 -0.21662220
v 0.07646360 -0.02094629 -0.21061379
v 0.07583944 -0.01729521 -0.21658579
v 0.05597055 -0.02094629 -0.20952135
v 0.04566368 -0.01316315 -0.22015442
v 0.04566368 -0.01851078 -0.21046814
v 0.06860342 -0.01340364 -0.22033648
v 0.07583944 -0.01349983 -0.22030007
v 0.08224742 -0.01785927 -0.21046814
v 0.08042489 -0.02094629 -0.20303957
v 0.08112811 -0.01652127 -0.21578467
v 0.05427285 -0.02094629 -0.20303957
v 0.04566368 -0.00975255 -0.22212081
v 0.04566368 -0.01870317 -0.20303957
v 0.07583944 -0.01008487 -0.22233927
v 0.08042073 -0.00960826 -0.22212081
v 0.08586335 -0.01375344 -0.21046814
v 0.08260943 -0.01869443 -0.20303957
v 0.08027510 -0.02094629 -0.20089110
v 0.08669972 -0.01543687 -0.14051574
v 0.08671220 -0.01544999 -0.13629163
v 0.08675798 -0.01551121 -0.11400592
v 0.08677462 -0.01552870 -0.10657734
v 0.08678294 -0.01554181 -0.09918519
v 0.08677878 -0.01553744 -0.09175661
v 0.08673717 -0.01547623 -0.00275938
v 0.08672885 -0.01546748 0.00466920
v 0.08671636 -0.01544999 0.01206136
v 0.08669140 -0.01542813 0.02320422
v 0.08191454 -0.01707658 0.13816504
v 0.08179388 -0.01705909 0.14559361
v 0.07583944 -0.01875127 0.14705020
v 0.08318782 -0.01183826 -0.21782388
v 0.08703260 -0.00952518 -0.21494713
v 0.04566368 -0.01870754 -0.19688549
v 0.05469727 -0.02094629 -0.19539250
v 0.04566368 -0.01879499 0.14705020
v 0.04566368 -0.00518761 -0.22394153
v 0.06860342 -0.00518761 -0.22423284
v 0.07583944 -0.00518761 -0.22426927
v 0.08504364 -0.00518761 -0.21913480
v 0.08142770 -0.00518761 -0.22292192
v 0.08726146 -0.01034285 -0.21046814
v 0.08622952 -0.01430001 -0.20303957
v 0.08628778 -0.01453175 -0.19561098
v 0.07906008 -0.02094629 -0.19462780
v 0.08741542 -0.01112116 -0.19561098
v 0.08745703 -0.01138789 -0.18079026
v 0.08747367 -0.01148846 -0.17336168
v 0.08746951 -0.01201316 -0.09918519
v 0.08740293 -0.01201316 0.00466920
v 0.08739045 -0.01192571 0.03431067
v 0.08738213 -0.01187324 0.04173924
v 0.08661234 -0.01524011 0.04913140
v 0.08177307 -0.01705035 0.14705020
v 0.08658322 -0.01515703 0.05655997
v 0.06860342 -0.01882123 0.14705020
v 0.07556482 -0.02094629 -0.18858298
v 0.08716160 -0.00518761 -0.21542052
v 0.08769420 -0.00518761 -0.21046814
v 0.05497606 -0.02094629 -0.19491911
v 0.06137572 -0.01881686 0.14705020
v 0.04566368 0.01219767 0.14705020
v 0.06074740 -0.02094629 -0.18836448
v 0.06085143 -0.02094629 -0.18825524
v 0.04566368 -0.00401576 -0.22412358
v 0.04566368 0.00162921 -0.22496114
v 0.05414385 0.00162921 -0.22485191
v 0.06860342 0.00162921 -0.22459700
v 0.07583944 0.00162921 -0.22405078
v 0.08077858 0.00162921 -0.22259418
v 0.08697851 -0.00126980 -0.21501995
v 0.08736548 -0.01088504 -0.20303957
v 0.08806870 -0.00518761 -0.18818241
v 0.08812695 -0.00518761 -0.18079026
v 0.08815192 -0.00518761 -0.17336168
v 0.08816440 -0.00518761 -0.16593310
v 0.08806038 -0.00518761 0.02688209
v 0.08816440 -0.00518761 -0.15854094
v 0.08805206 -0.00518761 0.03431067
v 0.08803125 -0.00518761 0.04173924
v 0.08735301 -0.01182952 0.04913140
v 0.08440283 -0.01297950 0.14705020
v 0.08652912 -0.01500399 0.06398855
v 0.08646254 -0.01481160 0.07138070
v 0.08731972 -0.01174644 0.05655997
v 0.08728227 -0.01158903 0.06398855
v 0.06860342 -0.02094629 -0.18668942
v 0.08712415 -0.00103805 -0.21046814
v 0.08783152 -0.00518761 -0.20303957
v 0.06820396 -0.02094629 -0.18676225
v 0.04615468 0.01256059 0.14705020
v 0.04566368 0.01453699 0.13059081
v 0.04566368 0.00257368 -0.22463340
v 0.04566368 0.00695498 -0.22310400
v 0.05414385 0.00671011 -0.22295834
v 0.06137572 0.00654833 -0.22281269
v 0.06860342 0.00638217 -0.22263061
v 0.07583944 0.00572192 -0.22212081
v 0.07955524 0.00511413 -0.22164739
v 0.07848170 0.01064104 -0.21046814
v 0.08103657 0.00723045 -0.21046814
v 0.08465666 0.00236379 -0.21046814
v 0.08030423 0.00606735 -0.21786029
v 0.08796468 -0.00518761 -0.19561098
v 0.08732387 -0.00080631 -0.18818241
v 0.08736132 -0.00076695 -0.18079026
v 0.08736965 -0.00076258 -0.17336168
v 0.08737797 -0.00076258 -0.16593310
v 0.08737797 -0.00085441 0.01948993
v 0.08737381 -0.00086315 0.02688209
v 0.08736132 -0.00088064 0.03431067
v 0.08734468 -0.00089376 0.04173924
v 0.08732387 -0.00091999 0.04913140
v 0.08728643 -0.00096372 0.05655997
v 0.08798132 -0.00518761 0.04913140
v 0.08501451 -0.01201316 0.14705020
v 0.08722817 -0.01139663 0.07138070
v 0.08715744 -0.01103371 0.07880928
v 0.08689945 -0.00973506 0.10105859
v 0.08549718 -0.01201316 0.13077288
v 0.08528497 -0.01201316 0.13816504
v 0.08791058 -0.00518761 0.05655997
v 0.07881458 0.01085092 -0.20303957
v 0.07837351 0.01580503 -0.04722158
v 0.04832674 0.01414783 0.14705020
v 0.04993706 0.01915003 0.10659360
v 0.04955424 0.01937740 0.10105859
v 0.04566368 0.01708618 -0.03207312
v 0.04566368 0.00763272 -0.22215721
v 0.05414385 0.01810062 -0.21290791
v 0.06137572 0.01836734 -0.21338131
v 0.06137572 0.01495675 -0.21618522
v 0.06860342 0.01471189 -0.21618522
v 0.07374645 0.01356628 -0.21545693
v 0.07440389 0.01561701 -0.20999475
v 0.07234002 0.01877399 -0.20726366
v 0.07536925 0.01528032 -0.20303957
v 0.07839432 0.01559952 0.09366643
v 0.07839848 0.01556453 0.10105859
v 0.08724066 -0.00101619 0.06398855
v 0.08719488 -0.00107741 0.07138070
v 0.08576765 -0.00518761 0.14705020
v 0.08672885 -0.00881245 0.11387652
v 0.08783152 -0.00518761 0.06398855
v 0.08773166 -0.00518761 0.07138070
v 0.08679959 -0.00921473 0.10848716
v 0.07475342 0.02062358 -0.04722158
v 0.07479919 0.02077662 -0.03979301
v 0.07477838 0.02070666 0.09366643
v 0.07478255 0.02069354 0.10105859
v 0.05313273 0.01610236 0.14705020
v 0.05413969 0.01781203 0.13816504
v 0.05413969 0.02163801 0.10105859
v 0.05413969 0.02168174 0.09366643
v 0.04948351 0.01937740 0.09366643
v 0.04566368 0.01709056 -0.03243726
v 0.04566368 0.01547708 -0.21097794
v 0.04832674 0.01359689 -0.21545693
v 0.04988297 0.01904072 -0.20810119
v 0.05414385 0.01928995 -0.20923004
v 0.06137572 0.01931181 -0.20966702
v 0.06860342 0.01811811 -0.21228887
v 0.06860342 0.01903634 -0.20857458
v 0.06860342 0.01940364 -0.20303957
v 0.06860342 0.02324274 -0.03979301
v 0.08670388 -0.00175952 0.11245635
v 0.08676214 -0.00166770 0.10848716
v 0.08684952 -0.00153652 0.10105859
v 0.08711166 -0.00118672 0.07880928
v 0.07821955 0.00994580 0.14705020
v 0.07868975 0.01034808 0.13816504
v 0.08326272 0.00163358 0.14705020
v 0.08603396 -0.00518761 0.13816504
v 0.08376620 0.00032181 0.14705020
v 0.08625033 -0.00518761 0.13077288
v 0.08757770 -0.00518761 0.07880928
v 0.08705757 -0.00518761 0.10105859
v 0.08687449 -0.00518761 0.10848716
v 0.06860342 0.02341327 0.08623785
v 0.06860342 0.02341327 0.09366643
v 0.06860342 0.02337829 0.10105859
v 0.07402940 0.02002891 0.10848716
v 0.07459946 0.01398604 0.14705020
v 0.05413969 0.01641281 0.14705020
v 0.05991520 0.01670577 0.14705020
v 0.06137572 0.01811811 0.13816504
v 0.06137572 0.02363627 0.10105859
v 0.06137572 0.02370623 0.09366643
v 0.05413969 0.02197033 -0.01018795
v 0.04921304 0.01959166 0.01948993
v 0.04912150 0.01963538 -0.04722158
v 0.04566368 0.01696375 -0.18821883
v 0.04566368 0.01572632 -0.20959418
v 0.04566368 0.01681509 -0.20303957
v 0.04955841 0.01921124 -0.20303957
v 0.05414385 0.01990648 -0.20303957
v 0.06137572 0.01997207 -0.20303957
v 0.06137572 0.02357505 -0.03979301
v 0.06137572 0.02371498 0.07880928
v 0.06137572 0.02372372 0.08623785
v 0.06849523 0.01652212 0.14705020
v 0.06860342 0.01782952 0.13816504
v 0.07348430 0.01452387 0.14705020
v 0.06137572 0.01674512 0.14705020
v 0.05413969 0.02201843 -0.03979301
v 0.04566368 0.01691128 -0.19561098
f 559 560 564
f 559 564 572
f 559 572 581
f 559 581 608
f 559 608 620
f 559 620 650
f 559 650 653
f 559 653 627
f 559 627 626
f 559 626 623
f 559 623 598
f 559 598 574
f 559 574 566
f 559 566 561
f 559 561 562
f 559 562 563
f 559 563 560
f 560 563 565
f 560 565 564
f 561 566 562
f 562 567 563
f 562 566 568
f 562 568 576
f 562 576 597
f 562 597 599
f 562 599 625
f 562 625 655
f 562 655 691
f 562 691 719
f 562 719 755
f 562 755 769
f 562 769 757
f 562 757 756
f 562 756 720
f 562 720 692
f 562 692 657
f 562 657 656
f 562 656 629
f 562 629 628
f 562 628 600
f 562 600 575
f 562 575 567
f 563 567 569
f 563 569 570
f 563 570 565
f 564 571 572
f 564 565 573
f 564 573 571
f 565 570 573
f 566 574 568
f 567 575 569
f 568 574 576
f 569 575 577
f 569 577 570
f 570 578 573
f 570 577 578
f 571 579 580
f 571 580 572
f 571 573 579
f 572 580 582
f 572 582 583
f 572 583 584
f 572 584 585
f 572 585 586
f 572 586 587
f 572 587 588
f 572 588 589
f 572 589 590
f 572 590 591
f 572 591 592
f 572 592 593
f 572 593 594
f 572 594 581
f 573 578 595
f 573 595 596
f 573 596 579
f 574 597 576
f 574 598 599
f 574 599 597
f 575 600 601
f 575 601 577
f 577 601 602
f 577 602 578
f 578 603 596
f 578 596 595
f 578 602 604
f 578 604 603
f 579 605 606
f 579 606 580
f 579 596 605
f 580 606 607
f 580 607 582
f 581 594 608
f 582 607 609
f 582 609 610
f 582 610 611
f 582 611 583
f 583 611 585
f 583 585 584
f 585 611 586
f 586 611 612
f 586 612 588
f 586 588 587
f 588 612 613
f 588 613 614
f 588 614 589
f 589 614 590
f 590 614 615
f 590 615 591
f 591 615 616
f 591 616 592
f 592 616 593
f 593 617 594
f 593 616 618
f 593 618 617
f 594 617 645
f 594 645 679
f 594 679 705
f 594 705 737
f 594 737 735
f 594 735 733
f 594 733 746
f 594 746 766
f 594 766 764
f 594 764 767
f 594 767 748
f 594 748 747
f 594 747 714
f 594 714 688
f 594 688 654
f 594 654 625
f 594 625 599
f 594 599 624
f 594 624 619
f 594 619 620
f 594 620 608
f 596 621 622
f 596 622 605
f 596 603 621
f 598 623 599
f 599 623 626
f 599 626 627
f 599 627 624
f 600 628 601
f 601 628 629
f 601 629 602
f 602 629 630
f 602 630 631
f 602 631 632
f 602 632 604
f 603 604 633
f 603 633 634
f 603 634 621
f 604 632 633
f 605 622 635
f 605 635 606
f 606 635 607
f 607 635 609
f 609 636 637
f 609 637 610
f 609 635 636
f 610 637 611
f 611 637 638
f 611 638 639
f 611 639 612
f 612 640 613
f 612 639 641
f 612 641 640
f 613 640 614
f 614 640 642
f 614 642 615
f 615 642 643
f 615 643 644
f 615 644 616
f 616 644 618
f 617 618 646
f 617 646 647
f 617 647 645
f 618 644 648
f 618 648 649
f 618 649 646
f 619 624 650
f 619 650 620
f 621 634 622
f 622 651 652
f 622 652 635
f 622 634 651
f 624 627 653
f 624 653 650
f 625 654 655
f 629 656 630
f 630 656 657
f 630 657 631
f 631 657 658
f 631 658 659
f 631 659 660
f 631 660 632
f 632 660 661
f 632 661 662
f 632 662 633
f 633 662 634
f 634 663 664
f 634 664 665
f 634 665 651
f 634 662 666
f 634 666 663
f 635 652 667
f 635 667 636
f 636 668 637
f 636 667 651
f 636 651 668
f 637 668 669
f 637 669 638
f 638 669 639
f 639 669 670
f 639 670 671
f 639 671 641
f 640 672 673
f 640 673 642
f 640 641 672
f 641 671 672
f 642 674 675
f 642 675 643
f 642 673 674
f 643 675 676
f 643 676 677
f 643 677 678
f 643 678 648
f 643 648 644
f 645 647 679
f 646 649 680
f 646 680 647
f 647 680 681
f 647 681 682
f 647 682 683
f 647 683 684
f 647 684 679
f 648 678 649
f 649 678 685
f 649 685 680
f 651 665 686
f 651 686 687
f 651 687 668
f 651 667 652
f 654 688 655
f 655 688 689
f 655 689 690
f 655 690 691
f 657 692 693
f 657 693 694
f 657 694 695
f 657 695 696
f 657 696 659
f 657 659 658
f 659 696 660
f 660 696 661
f 661 696 662
f 662 696 697
f 662 697 698
f 662 698 666
f 663 698 699
f 663 699 700
f 663 700 686
f 663 686 664
f 663 666 698
f 664 686 665
f 668 687 669
f 669 687 670
f 670 687 671
f 671 687 672
f 672 687 701
f 672 701 673
f 673 701 702
f 673 702 674
f 674 702 675
f 675 702 676
f 676 702 677
f 677 702 703
f 677 703 678
f 678 703 704
f 678 704 685
f 679 684 706
f 679 706 705
f 680 685 707
f 680 707 681
f 681 707 708
f 681 708 682
f 682 709 684
f 682 684 683
f 682 708 706
f 682 706 709
f 684 709 706
f 685 704 707
f 686 700 710
f 686 710 711
f 686 711 687
f 687 711 712
f 687 712 713
f 687 713 701
f 688 714 715
f 688 715 689
f 689 716 690
f 689 715 716
f 690 716 717
f 690 717 718
f 690 718 719
f 690 719 691
f 692 720 721
f 692 721 693
f 693 721 720
f 693 720 722
f 693 722 723
f 693 723 694
f 694 723 724
f 694 724 725
f 694 725 696
f 694 696 695
f 696 725 697
f 697 725 699
f 697 699 698
f 699 725 726
f 699 726 727
f 699 727 728
f 699 728 711
f 699 711 710
f 699 710 700
f 701 713 702
f 702 729 730
f 702 730 731
f 702 731 732
f 702 732 704
f 702 704 703
f 702 713 733
f 702 733 734
f 702 734 735
f 702 735 729
f 704 732 707
f 705 706 736
f 705 736 729
f 705 729 737
f 706 738 736
f 706 708 739
f 706 739 740
f 706 740 741
f 706 741 738
f 707 732 708
f 708 732 731
f 708 731 730
f 708 730 729
f 708 729 739
f 711 728 742
f 711 742 743
f 711 743 712
f 712 743 713
f 713 744 745
f 713 745 746
f 713 746 733
f 713 743 744
f 714 747 715
f 715 747 748
f 715 748 749
f 715 749 750
f 715 750 716
f 716 750 751
f 716 751 717
f 717 751 752
f 717 752 753
f 717 753 718
f 718 753 719
f 719 753 754
f 719 754 755
f 720 756 722
f 722 756 757
f 722 757 758
f 722 758 759
f 722 759 723
f 723 759 760
f 723 760 724
f 724 726 725
f 724 760 726
f 726 760 727
f 727 760 728
f 728 761 742
f 728 760 761
f 729 741 740
f 729 740 739
f 729 735 737
f 729 736 738
f 729 738 741
f 733 735 734
f 742 762 763
f 742 763 743
f 742 761 762
f 743 763 751
f 743 751 744
f 744 751 750
f 744 750 749
f 744 749 764
f 744 764 765
f 744 765 766
f 744 766 745
f 745 766 746
f 748 767 749
f 749 767 764
f 751 763 752
f 752 768 753
f 752 763 768
f 753 768 754
f 754 768 758
f 754 758 755
f 755 758 769
f 757 769 758
f 758 768 761
f 758 761 759
f 759 761 760
f 761 768 762
f 762 768 763
f 764 766 765

o geometry_6
v 0.06137631 -0.03342495 0.19754329
v 0.06860846 -0.03220394 0.19754329
v 0.06137631 -0.03329560 0.20496080
v 0.05616225 -0.03080185 0.20496080
v 0.05615047 -0.03088463 0.19754329
v 0.04565953 -0.01879356 0.14705020
v 0.04690415 -0.01879873 0.14705020
v 0.06137631 -0.01881942 0.14705020
v 0.06860846 -0.01881942 0.14705020
v 0.07584062 -0.01875216 0.14705020
v 0.07260539 -0.02966880 0.19754329
v 0.07271140 -0.02982401 0.20307552
v 0.06913850 -0.03152101 0.20531622
v 0.08177711 -0.01705517 0.14705020
v 0.06707723 -0.03042417 0.20980536
v 0.06137631 -0.03061560 0.20995989
v 0.05710062 -0.02978262 0.20925677
v 0.04565953 -0.02019047 0.20450493
v 0.04565953 -0.01691031 0.21797234
v 0.04565953 -0.01897464 0.21237830
v 0.04565953 -0.02019047 0.20272782
v 0.04565953 -0.02008182 0.19625296
v 0.04565953 0.01220244 0.14705020
v 0.08112927 -0.01701378 0.20496080
v 0.08084659 -0.01668784 0.21237830
v 0.08023802 -0.01608768 0.21698334
v 0.07190259 -0.02847366 0.20802052
v 0.08136485 -0.01707587 0.19012580
v 0.08125492 -0.01709139 0.19754329
v 0.08440377 -0.01298342 0.14705020
v 0.07954700 -0.00869955 0.22356637
v 0.06860846 -0.01225392 0.22171199
v 0.06137631 -0.01223840 0.22176608
v 0.05414023 -0.01224358 0.22174289
v 0.04565953 -0.01223840 0.22168109
v 0.04565953 0.01229040 0.14773014
v 0.05041029 0.01875759 0.15660795
v 0.04832545 0.01414777 0.14705020
v 0.08390121 -0.01201593 0.20496080
v 0.08359889 -0.01201593 0.21237830
v 0.08107431 -0.01138991 0.21959492
v 0.08501627 -0.01201593 0.14705020
v 0.08423494 -0.01201593 0.19012580
v 0.08319056 -0.00519174 0.21980353
v 0.08025765 -0.00519174 0.22407632
v 0.07584062 -0.00519174 0.22481035
v 0.06860846 -0.00519174 0.22497259
v 0.07584062 -0.00880302 0.22361272
v 0.06860846 -0.00883924 0.22362819
v 0.04690415 -0.00882889 0.22362044
v 0.04565953 -0.00882372 0.22362044
v 0.04565953 -0.00941353 0.22328822
v 0.05013545 0.01892316 0.16045578
v 0.04565953 0.01701404 0.19055076
v 0.05414023 0.01921289 0.16045578
v 0.05414023 0.01883520 0.15643025
v 0.05991574 0.01670879 0.14705020
v 0.05414023 0.01641388 0.14705020
v 0.05313118 0.01610346 0.14705020
v 0.08531859 -0.00519174 0.21237830
v 0.08562483 -0.00651105 0.14705020
v 0.08174963 0.00204118 0.22018986
v 0.08043825 0.00004410 0.22420768
v 0.07606834 0.00204118 0.22467900
v 0.06860846 0.00163245 0.22545166
v 0.04690415 0.00163245 0.22595387
v 0.04565953 0.00163245 0.22597705
v 0.04690415 -0.00519174 0.22500350
v 0.04565953 -0.00581777 0.22477173
v 0.04996270 0.01903698 0.16788101
v 0.05414023 0.01943018 0.16788101
v 0.04565953 0.01765558 0.19754329
v 0.06137631 0.01914045 0.16045578
v 0.06137631 0.01880933 0.15647661
v 0.06137631 0.01937327 0.16788101
v 0.06137631 0.01674500 0.14705020
v 0.08364993 0.00163245 0.21237830
v 0.08576618 -0.00519174 0.14705020
v 0.08021839 0.00591632 0.21798006
v 0.07863218 0.00459184 0.22292506
v 0.07380682 0.00547138 0.22385999
v 0.06860846 0.00577146 0.22410723
v 0.04565953 0.00638196 0.22460172
v 0.04565953 -0.00519174 0.22500350
v 0.05414023 0.01940431 0.17529852
v 0.04565953 0.01767111 0.19902680
v 0.04565953 0.01772802 0.20496080
v 0.05000589 0.01885072 0.20496080
v 0.06137631 0.01939397 0.20496080
v 0.06137631 0.01942501 0.17529852
v 0.06617026 0.01885072 0.16045578
v 0.06517692 0.01872138 0.15667750
v 0.06849853 0.01652253 0.14705020
v 0.06712434 0.01898524 0.16788101
v 0.06731672 0.01902663 0.17529852
v 0.07864396 0.01028815 0.20496080
v 0.08054427 0.00663030 0.21237830
v 0.08376772 0.00031314 0.14705020
v 0.08326908 0.00163245 0.14705020
v 0.07796079 0.01004498 0.21237830
v 0.07434472 0.01416847 0.21237830
v 0.07319432 0.01277673 0.21682880
v 0.06860846 0.01352175 0.21733875
v 0.06137631 0.01365109 0.21742376
v 0.04565953 0.00979147 0.22101661
v 0.05414023 0.01922841 0.20496080
v 0.04565953 0.01761419 0.20594207
v 0.05012367 0.01881968 0.20901725
v 0.05414023 0.01897489 0.20943448
v 0.06137631 0.01904733 0.20971263
v 0.06675135 0.01891281 0.20938040
v 0.06778395 0.01901628 0.20496080
v 0.06978634 0.01814192 0.16045578
v 0.07074435 0.01839543 0.16788101
v 0.07348487 0.01452028 0.14705020
v 0.07140003 0.01855064 0.20496080
v 0.07136469 0.01854030 0.19754329
v 0.07502395 0.01514114 0.20496080
v 0.07849476 0.00995703 0.16788101
v 0.07487476 0.01498592 0.16788101
v 0.07821992 0.00994668 0.14705020
v 0.06894219 0.01721581 0.21206925
v 0.06137631 0.01706578 0.21342138
v 0.04565953 0.01333549 0.21725377
v 0.04565953 0.01654323 0.21198424
v 0.04565953 0.01612932 0.21297325
v 0.05414023 0.01682778 0.21314323
v 0.07460384 0.01398739 0.14705020
v 0.07468237 0.01472723 0.16045578
f 770 771 772
f 770 772 773
f 770 773 774
f 770 774 775
f 770 775 776
f 770 776 777
f 770 777 778
f 770 778 779
f 770 779 771
f 771 780 781
f 771 781 782
f 771 782 772
f 771 779 783
f 771 783 780
f 772 782 784
f 772 784 785
f 772 785 786
f 772 786 773
f 773 787 774
f 773 786 788
f 773 788 789
f 773 789 787
f 774 787 790
f 774 790 791
f 774 791 775
f 775 792 807
f 775 807 828
f 775 828 827
f 775 827 826
f 775 826 845
f 775 845 862
f 775 862 884
f 775 884 897
f 775 897 890
f 775 890 868
f 775 868 867
f 775 867 847
f 775 847 830
f 775 830 811
f 775 811 799
f 775 799 783
f 775 783 779
f 775 779 778
f 775 778 777
f 775 777 776
f 775 791 790
f 775 790 787
f 775 787 789
f 775 789 788
f 775 788 804
f 775 804 821
f 775 821 820
f 775 820 838
f 775 838 853
f 775 853 836
f 775 836 852
f 775 852 874
f 775 874 893
f 775 893 895
f 775 895 894
f 775 894 876
f 775 876 856
f 775 856 855
f 775 855 841
f 775 841 823
f 775 823 805
f 775 805 792
f 780 783 781
f 781 793 794
f 781 794 795
f 781 795 796
f 781 796 782
f 781 783 797
f 781 797 798
f 781 798 793
f 782 796 784
f 783 799 797
f 784 796 795
f 784 795 800
f 784 800 785
f 785 800 801
f 785 801 802
f 785 802 803
f 785 803 804
f 785 804 788
f 785 788 786
f 792 805 806
f 792 806 807
f 793 798 808
f 793 808 809
f 793 809 794
f 794 809 795
f 795 809 810
f 795 810 800
f 797 799 811
f 797 811 798
f 798 811 812
f 798 812 808
f 800 810 813
f 800 813 814
f 800 814 815
f 800 815 816
f 800 816 817
f 800 817 801
f 801 817 802
f 802 817 818
f 802 818 819
f 802 819 820
f 802 820 803
f 803 820 821
f 803 821 804
f 805 822 806
f 805 823 822
f 806 822 824
f 806 824 825
f 806 825 826
f 806 826 827
f 806 827 828
f 806 828 807
f 808 829 809
f 808 812 829
f 809 829 813
f 809 813 810
f 811 830 829
f 811 829 812
f 813 831 832
f 813 832 814
f 813 829 831
f 814 832 815
f 815 832 833
f 815 833 834
f 815 834 835
f 815 835 816
f 816 835 836
f 816 836 837
f 816 837 818
f 816 818 817
f 818 837 838
f 818 838 819
f 819 838 820
f 822 839 840
f 822 840 824
f 822 823 841
f 822 841 839
f 824 842 843
f 824 843 825
f 824 840 844
f 824 844 842
f 825 845 826
f 825 843 845
f 829 846 831
f 829 830 847
f 829 847 846
f 831 846 848
f 831 848 849
f 831 849 832
f 832 849 833
f 833 849 850
f 833 850 834
f 834 850 851
f 834 851 852
f 834 852 835
f 835 852 836
f 836 853 837
f 837 853 838
f 839 854 840
f 839 841 855
f 839 855 856
f 839 856 857
f 839 857 854
f 840 854 858
f 840 858 859
f 840 859 844
f 842 860 861
f 842 861 843
f 842 844 860
f 843 861 862
f 843 862 845
f 844 863 860
f 844 859 864
f 844 864 863
f 846 865 866
f 846 866 848
f 846 847 867
f 846 867 868
f 846 868 865
f 848 866 869
f 848 869 870
f 848 870 871
f 848 871 849
f 849 871 850
f 850 871 872
f 850 872 851
f 851 872 852
f 852 873 874
f 852 872 873
f 854 857 875
f 854 875 858
f 856 876 877
f 856 877 857
f 857 877 875
f 858 875 878
f 858 878 879
f 858 879 880
f 858 880 881
f 858 881 859
f 859 881 864
f 860 882 861
f 860 863 883
f 860 883 882
f 861 882 862
f 862 882 884
f 863 864 883
f 864 881 885
f 864 885 886
f 864 886 883
f 865 887 866
f 865 868 888
f 865 888 889
f 865 889 887
f 866 887 869
f 868 890 888
f 869 887 870
f 870 887 885
f 870 885 891
f 870 891 871
f 871 891 872
f 872 891 892
f 872 892 873
f 873 892 893
f 873 893 874
f 875 877 878
f 876 894 877
f 877 894 895
f 877 895 878
f 878 895 896
f 878 896 892
f 878 892 879
f 879 892 880
f 880 885 881
f 880 892 891
f 880 891 885
f 882 897 884
f 882 883 897
f 883 889 898
f 883 898 897
f 883 886 889
f 885 887 886
f 886 887 889
f 888 890 889
f 889 890 897
f 889 897 898
f 892 896 893
f 893 896 895

