# https://github.com/mikedh/trimesh

o geometry_0
v -0.08809153 0.02379635 -0.28044019
v -0.08809153 0.02363684 -0.29102349
v -0.09844618 0.02363134 -0.29102349
v -0.10882975 0.02376885 -0.28044019
v -0.09847510 0.02377435 -0.26984122
v -0.08809153 0.02377985 -0.26984122
v 0.01559955 0.02371385 -0.26984122
v 0.01559955 0.02371385 -0.26985689
v 0.01559955 0.02367534 -0.28044019
v -0.09844618 0.02220121 -0.31218487
v 0.02598312 0.02348832 -0.29102349
v -0.10882975 0.02357083 -0.29102349
v -0.11921332 0.02363134 -0.28044019
v -0.10885867 0.02375235 -0.26984122
v 0.03633776 0.02363684 -0.26984122
v 0.03633776 0.02363684 -0.26985689
v 0.03633776 0.02362584 -0.28044019
v 0.07784312 0.02335081 -0.29102349
v -0.08809153 0.02215721 -0.31218487
v -0.08809153 0.02014403 -0.31924738
v -0.09844618 0.02017153 -0.31928394
v -0.10882975 0.02013303 -0.31926827
v -0.10882975 0.02209120 -0.31218487
v -0.11921332 0.02337281 -0.29102349
v -0.11921332 0.02361484 -0.26984122
v -0.12838210 0.02066108 -0.29102349
v -0.12846886 0.02080959 -0.28044019
v -0.12861349 0.02080409 -0.26985689
v -0.12861349 0.02080409 -0.26984122
v 0.07781420 0.02344432 -0.26984122
v 0.07784312 0.02344982 -0.26985689
v 0.07784312 0.02231672 -0.30160157
v 0.08819777 0.02243773 -0.29102349
v 0.08819777 0.02152465 -0.30160157
v -0.08809153 0.01332343 -0.32194804
v 0.07784312 0.01969299 -0.30924912
v -0.07770796 0.01988001 -0.31904364
v 0.11931955 0.01085371 -0.31988465
v 0.10893598 0.01109574 -0.32002048
v -0.09844618 0.01332343 -0.32198460
v -0.10882975 0.01332343 -0.32196893
v -0.11921332 0.01332343 -0.32151968
v -0.11921332 0.01957748 -0.31879813
v -0.11921332 0.02102961 -0.31218487
v -0.12548974 0.01874691 -0.31806681
v -0.12641530 0.01909894 -0.31218487
v -0.12760116 0.01981950 -0.30160157
v -0.13995154 0.01434102 -0.30160157
v -0.13995154 0.01447853 -0.29102349
v -0.13995154 0.01467105 -0.26985689
v -0.13995154 0.01466555 -0.26984122
v 0.08819777 0.02247074 -0.26984122
v 0.08819777 0.02245973 -0.28044019
v 0.09858134 0.01880191 -0.30818870
v 0.08819777 0.01937396 -0.30891479
v 0.09858134 0.02093610 -0.29102349
v 0.09858134 0.02022654 -0.30160157
v 0.10491560 0.01836187 -0.30743648
v 0.11931955 0.00373609 -0.32276292
v 0.10893598 0.00373609 -0.32290920
v 0.09858134 0.01599117 -0.31348036
v 0.08819777 0.01604067 -0.31420645
v 0.12970312 0.01043018 -0.31956079
v 0.12970312 0.00373609 -0.32239206
v -0.05696975 0.00373609 -0.32311816
v -0.11921332 0.00373609 -0.32306071
v 0.02598312 0.00373609 -0.32314949
v 0.00521598 0.00373609 -0.32314949
v -0.12956797 0.00373609 -0.32286742
v -0.12919196 0.01347744 -0.31988465
v -0.13757980 0.01038617 -0.31908543
v -0.14058785 0.01189331 -0.31260276
v -0.14593872 0.00972612 -0.30935359
v -0.14637257 0.01039167 -0.30160157
v -0.14640149 0.01046318 -0.29102349
v -0.14640149 0.01052369 -0.26985689
v -0.14640149 0.01052369 -0.26984122
v 0.09855241 0.02083709 -0.26984122
v 0.09858134 0.02083709 -0.26985689
v 0.10832858 0.01914294 -0.29102349
v 0.10694025 0.01882942 -0.30160157
v 0.12970312 0.01302090 -0.31218487
v 0.13739680 0.00962711 -0.31871975
v 0.12970312 -0.00584025 -0.32308682
v 0.11931955 -0.00584025 -0.32315472
v 0.14054947 0.00384060 -0.31972796
v 0.14005777 -0.00584025 -0.32105999
v -0.00510974 -0.00584025 -0.32320172
v -0.11921332 -0.00584025 -0.32308160
v -0.12956797 -0.00584025 -0.32291965
v -0.01549331 -0.00584025 -0.32319128
v -0.06735332 -0.00584025 -0.32313905
v 0.00521598 -0.00584025 -0.32320172
v -0.13960445 -0.00584025 -0.32012494
v -0.13943091 0.00373609 -0.32006749
v -0.14460823 0.00373609 -0.31660415
v -0.14645934 0.00373609 -0.31131249
v -0.14778983 0.00373609 -0.30160157
v -0.14776090 0.00373609 -0.26984122
v 0.10806827 0.01906044 -0.26984122
v 0.10806827 0.01906594 -0.26985689
v 0.11324559 0.01791083 -0.26984122
v 0.11339022 0.01794384 -0.28044019
v 0.11350591 0.01796584 -0.29102349
v 0.12970312 0.01371947 -0.30160157
v 0.11211758 0.01768531 -0.30160157
v 0.14005777 0.01098023 -0.30160157
v 0.14054947 0.01016065 -0.31135429
v 0.14430954 0.00710238 -0.31432660
v 0.14575571 0.00071082 -0.31811904
v 0.14005777 -0.01272136 -0.31917944
v 0.12970312 -0.01402497 -0.32026077
v 0.11931955 -0.01411298 -0.32027644
v 0.14587140 -0.00584025 -0.31828621
v 0.14558218 -0.01119772 -0.31791008
v -0.00510974 -0.01396447 -0.32029733
v -0.11921332 -0.01399747 -0.32021899
v -0.12956797 -0.01388196 -0.32010405
v -0.13781118 -0.01271586 -0.31915855
v -0.14478178 -0.00584025 -0.31687055
v -0.14651719 -0.00584025 -0.31157891
v -0.14787659 -0.00584025 -0.30160157
v -0.14781875 -0.00584025 -0.26984122
v 0.12967420 0.01370846 -0.26984122
v 0.12970312 0.01370846 -0.26985689
v 0.12970312 0.01373047 -0.28044019
v 0.12970312 0.01373597 -0.29102349
v 0.14005777 0.01099123 -0.29102349
v 0.14532186 0.00862052 -0.30160157
v 0.14529294 0.00858752 -0.30726931
v 0.14607387 0.00384060 -0.31135429
v 0.14705728 -0.00584025 -0.31218487
v 0.12276146 -0.02936032 -0.30631337
v 0.11584872 -0.03010839 -0.30717530
v -0.12598144 -0.03052642 -0.30759319
v 0.14607387 -0.01200079 -0.31218487
v 0.12602982 -0.03108747 -0.29926132
v -0.13627824 -0.02199517 -0.30867973
v -0.14050108 -0.01555411 -0.31272290
v -0.14602549 -0.01200629 -0.30970881
v -0.14645934 -0.01269936 -0.30160157
v -0.14645934 -0.01266635 -0.29102349
v -0.14643042 -0.01260035 -0.26985689
v -0.14643042 -0.01258935 -0.26984122
v 0.14005777 0.01099123 -0.26984122
v 0.14535078 0.00862602 -0.26985689
v 0.14653665 0.00373609 -0.30160157
v 0.14760682 -0.00584025 -0.30160157
v 0.11931955 -0.03179703 -0.30231200
v -0.11921332 -0.03239659 -0.30160157
v -0.12817964 -0.03146701 -0.30160157
v -0.13335696 -0.02872227 -0.30160157
v 0.14639203 -0.01252334 -0.30160157
v 0.12602982 -0.03108747 -0.29313911
v 0.11969556 -0.03181354 -0.29017725
v -0.13729056 -0.02393134 -0.30160157
v -0.13995154 -0.01614816 -0.26984122
v -0.12783255 -0.03130199 -0.29288313
v 0.14535078 0.00862052 -0.26984122
v 0.14650773 0.00373609 -0.26985689
v 0.14653665 0.00373609 -0.28044019
v 0.14757790 -0.00584025 -0.26985689
v 0.14757790 -0.00585125 -0.26984122
v 0.14639203 -0.01250134 -0.26984122
v 0.14639203 -0.01251784 -0.29102349
v -0.11921332 -0.03178053 -0.29189063
v 0.14005777 -0.01625817 -0.26984122
v 0.12339778 -0.02953084 -0.28608182
v 0.11648504 -0.03013589 -0.28539751
v 0.11353483 -0.03013589 -0.28539751
v -0.11921332 -0.02903029 -0.28659897
v -0.12956797 -0.01772130 -0.26984122
v 0.14650773 0.00372509 -0.26984122
v 0.12970312 -0.01810633 -0.26984122
f 1 2 3
f 1 3 4
f 1 4 5
f 1 5 6
f 1 6 7
f 1 7 8
f 1 8 9
f 1 9 2
f 2 10 3
f 2 9 11
f 2 11 10
f 3 10 12
f 3 12 4
f 4 12 13
f 4 13 14
f 4 14 5
f 5 14 25
f 5 25 29
f 5 29 51
f 5 51 77
f 5 77 99
f 5 99 123
f 5 123 144
f 5 144 157
f 5 157 172
f 5 172 174
f 5 174 167
f 5 167 164
f 5 164 163
f 5 163 173
f 5 173 159
f 5 159 145
f 5 145 124
f 5 124 102
f 5 102 100
f 5 100 78
f 5 78 52
f 5 52 30
f 5 30 15
f 5 15 7
f 5 7 6
f 7 15 16
f 7 16 8
f 8 16 17
f 8 17 9
f 9 17 11
f 10 11 18
f 10 18 19
f 10 19 20
f 10 20 21
f 10 21 22
f 10 22 23
f 10 23 12
f 11 17 18
f 12 23 24
f 12 24 13
f 13 25 14
f 13 24 26
f 13 26 27
f 13 27 28
f 13 28 29
f 13 29 25
f 15 30 31
f 15 31 16
f 16 31 17
f 17 31 18
f 18 32 19
f 18 31 33
f 18 33 34
f 18 34 32
f 19 32 20
f 20 35 21
f 20 32 36
f 20 36 37
f 20 37 38
f 20 38 39
f 20 39 35
f 21 35 40
f 21 40 41
f 21 41 22
f 22 41 42
f 22 42 43
f 22 43 23
f 23 43 44
f 23 44 24
f 24 44 45
f 24 45 46
f 24 46 26
f 26 46 47
f 26 47 48
f 26 48 27
f 27 48 49
f 27 49 50
f 27 50 28
f 28 50 29
f 29 50 51
f 30 52 31
f 31 52 53
f 31 53 33
f 32 34 54
f 32 54 55
f 32 55 36
f 33 53 56
f 33 56 57
f 33 57 34
f 34 57 58
f 34 58 54
f 35 39 59
f 35 59 60
f 35 60 40
f 36 55 61
f 36 61 62
f 36 62 37
f 37 62 38
f 38 59 39
f 38 62 61
f 38 61 63
f 38 63 64
f 38 64 59
f 40 65 66
f 40 66 41
f 40 60 67
f 40 67 68
f 40 68 65
f 41 66 69
f 41 69 42
f 42 69 70
f 42 70 43
f 43 70 45
f 43 45 44
f 45 70 71
f 45 71 72
f 45 72 73
f 45 73 48
f 45 48 46
f 46 48 47
f 48 73 74
f 48 74 49
f 49 74 50
f 50 74 75
f 50 75 76
f 50 76 77
f 50 77 51
f 52 78 79
f 52 79 56
f 52 56 53
f 54 58 63
f 54 63 55
f 55 63 61
f 56 79 80
f 56 80 81
f 56 81 57
f 57 81 58
f 58 81 82
f 58 82 83
f 58 83 63
f 59 64 84
f 59 84 60
f 60 84 85
f 60 85 67
f 63 83 64
f 64 83 86
f 64 86 87
f 64 87 84
f 65 88 66
f 65 68 88
f 66 89 90
f 66 90 69
f 66 88 91
f 66 91 92
f 66 92 89
f 67 85 93
f 67 93 88
f 67 88 68
f 69 90 94
f 69 94 95
f 69 95 71
f 69 71 70
f 71 95 96
f 71 96 73
f 71 73 72
f 73 96 97
f 73 97 98
f 73 98 74
f 74 98 75
f 75 98 76
f 76 98 77
f 77 98 99
f 78 100 101
f 78 101 79
f 79 101 80
f 80 101 102
f 80 102 103
f 80 103 104
f 80 104 105
f 80 105 106
f 80 106 81
f 81 106 82
f 82 105 107
f 82 107 108
f 82 108 83
f 82 106 105
f 83 108 109
f 83 109 110
f 83 110 86
f 84 87 111
f 84 111 112
f 84 112 85
f 85 112 113
f 85 113 93
f 86 110 87
f 87 110 114
f 87 114 115
f 87 115 111
f 88 116 117
f 88 117 91
f 88 93 113
f 88 113 116
f 89 117 118
f 89 118 90
f 89 92 117
f 90 118 119
f 90 119 94
f 91 117 92
f 94 119 120
f 94 120 95
f 95 120 96
f 96 120 97
f 97 121 98
f 97 120 121
f 98 122 99
f 98 121 122
f 99 122 123
f 100 102 101
f 102 124 125
f 102 125 103
f 103 125 104
f 104 125 126
f 104 126 127
f 104 127 105
f 105 127 107
f 107 128 129
f 107 129 130
f 107 130 108
f 107 127 128
f 108 130 109
f 109 130 110
f 110 130 131
f 110 131 132
f 110 132 114
f 111 133 134
f 111 134 112
f 111 115 133
f 112 134 113
f 113 134 135
f 113 135 117
f 113 117 116
f 114 132 115
f 115 132 136
f 115 136 137
f 115 137 133
f 117 135 118
f 118 135 119
f 119 135 138
f 119 138 139
f 119 139 140
f 119 140 120
f 120 140 121
f 121 140 122
f 122 141 142
f 122 142 123
f 122 140 141
f 123 142 143
f 123 143 144
f 124 145 125
f 125 145 126
f 126 145 127
f 127 145 128
f 128 145 146
f 128 146 129
f 129 146 147
f 129 147 130
f 130 147 131
f 131 147 148
f 131 148 132
f 132 148 136
f 133 137 149
f 133 149 134
f 134 149 135
f 135 150 151
f 135 151 152
f 135 152 138
f 135 149 150
f 136 148 153
f 136 153 137
f 137 154 155
f 137 155 149
f 137 153 154
f 138 152 140
f 138 140 139
f 140 152 156
f 140 156 141
f 141 156 142
f 142 156 143
f 143 157 144
f 143 156 152
f 143 152 158
f 143 158 157
f 145 159 146
f 146 159 160
f 146 160 161
f 146 161 147
f 147 161 148
f 148 162 163
f 148 163 164
f 148 164 165
f 148 165 153
f 148 161 162
f 149 155 150
f 150 155 166
f 150 166 158
f 150 158 151
f 151 158 152
f 153 165 154
f 154 165 164
f 154 164 167
f 154 167 168
f 154 168 155
f 155 168 169
f 155 169 170
f 155 170 166
f 157 158 171
f 157 171 172
f 158 166 171
f 159 173 160
f 160 173 163
f 160 163 162
f 160 162 161
f 166 170 171
f 167 174 168
f 168 174 169
f 169 174 170
f 170 174 172
f 170 172 171

o geometry_1
v -0.08810150 0.02398273 0.28045309
v -0.08810150 0.02395010 0.26986042
v -0.09845739 0.02397185 0.28045309
v -0.09845739 0.02395010 0.29103531
v -0.08810150 0.02395010 0.29103531
v 0.08820951 0.02391746 0.29103531
v 0.08820951 0.02392834 0.28045309
v 0.02595821 0.02394466 0.26986042
v -0.09845739 0.02391746 0.26986042
v -0.10884229 0.02391203 0.28045309
v -0.10884229 0.02392290 0.29103531
v -0.10884229 0.02292759 0.30161231
v 0.09856540 0.02282969 0.30161231
v 0.09856540 0.02386851 0.29103531
v 0.09856540 0.02386851 0.28045309
v 0.09856540 0.02385220 0.26986042
v 0.08820951 0.02390659 0.26986042
v -0.10884229 0.02385764 0.26986042
v -0.11919816 0.02368359 0.26986042
v -0.11919816 0.02373254 0.28045309
v -0.11919816 0.02374886 0.29103531
v -0.11919816 0.02286233 0.30161231
v -0.11919816 0.02003956 0.31011670
v -0.10884229 0.02002868 0.31013759
v 0.09856540 0.01995253 0.31000185
v 0.10895028 0.01949023 0.30943280
v 0.10895028 0.02171473 0.30161231
v 0.10895028 0.02257407 0.29103531
v 0.10895028 0.02256863 0.28045309
v 0.10895028 0.02254143 0.26986042
v -0.12958306 0.02101311 0.26986042
v -0.12958306 0.02109470 0.28045309
v -0.12958306 0.02102399 0.29103531
v -0.13010519 0.02001780 0.30085531
v -0.12700133 0.01939233 0.30902560
v -0.11919816 0.01660220 0.31540520
v -0.10884229 0.01664571 0.31543131
v -0.09845739 0.01666746 0.31542087
v 0.09856540 0.01659676 0.31529557
v 0.10895028 0.01654237 0.31472130
v 0.11547710 0.01870704 0.30820074
v 0.12969105 0.01126667 0.32002547
v 0.12969105 0.01480737 0.31219451
v 0.14007595 0.01335520 0.30161231
v 0.14007595 0.01332800 0.28045309
v 0.14007595 0.01330081 0.26986042
v -0.13526862 0.01830456 0.26986042
v -0.13538466 0.01835895 0.28045309
v -0.13521061 0.01828824 0.29103531
v -0.13494953 0.01818490 0.29681976
v -0.13901067 0.01571022 0.30085531
v -0.13390525 0.01773892 0.30387282
v -0.13993893 0.01321922 0.31219451
v -0.13993893 0.01008644 0.31873598
v -0.13010519 0.01657500 0.31241378
v -0.12958306 0.01168003 0.32000458
v -0.11919816 0.01181056 0.32010377
v -0.10884229 0.01185407 0.32015597
v -0.09845739 0.01187583 0.32016641
v -0.00510943 0.01187583 0.32015597
v 0.00521744 0.01187583 0.32015074
v 0.01560233 0.01187039 0.32015074
v 0.06746875 0.01181056 0.32016641
v 0.07782463 0.01181056 0.32015597
v 0.09856540 0.01180512 0.32013511
v 0.10895028 0.01175073 0.32015074
v 0.11930617 0.01157669 0.32015074
v 0.12969105 0.00373929 0.32287593
v 0.13821943 0.01022241 0.31910139
v 0.14103321 0.01147879 0.31312379
v 0.14602260 0.00947729 0.31021067
v 0.14639970 0.00994503 0.30161231
v 0.14639970 0.00993415 0.29103531
v 0.14639970 0.00990696 0.26986042
v -0.14043207 0.01552530 0.26986042
v -0.14057710 0.01549811 0.28045309
v -0.14037404 0.01545460 0.29103531
v -0.14643674 0.01060313 0.30161231
v -0.14579857 0.00958607 0.31219451
v -0.14516037 0.00857988 0.31751957
v -0.13993893 0.00373929 0.32057883
v -0.12958306 0.00373929 0.32287593
v -0.11919816 0.00373929 0.32298557
v -0.10884229 0.00373929 0.32304821
v -0.09845739 0.00373929 0.32306388
v 0.06746875 0.00373929 0.32305865
v 0.10895028 0.00373929 0.32303776
v 0.11930617 0.00373929 0.32302732
v 0.12969105 -0.00583854 0.32305343
v 0.14007595 -0.00583854 0.32104870
v 0.14103321 0.00451705 0.31996802
v 0.14512335 0.00822635 0.31726376
v 0.14668978 0.00451705 0.31312379
v 0.14802417 0.00373929 0.30161231
v 0.14793713 0.00373929 0.26986042
v -0.14649475 0.01072823 0.26986042
v -0.14649475 0.01073367 0.26987087
v -0.14649475 0.01070647 0.28045309
v -0.14646575 0.01065752 0.29103531
v -0.14800317 0.00373929 0.29103531
v -0.14794516 0.00373929 0.30161231
v -0.14690086 0.00373929 0.31219451
v -0.14547946 0.00373929 0.31792154
v -0.13993893 -0.00583854 0.32078767
v -0.12958306 -0.00583854 0.32304299
v -0.10884229 -0.00583854 0.32312651
v -0.11919816 -0.00583854 0.32310040
v -0.01549432 -0.00583854 0.32318915
v 0.01560233 -0.00583854 0.32318915
v 0.11930617 -0.00583854 0.32308995
v 0.02595821 -0.00583854 0.32318393
v 0.12969105 -0.01365419 0.32019775
v 0.14007595 -0.01250115 0.31915884
v 0.11930617 -0.01374121 0.32021342
v 0.14561648 -0.01114687 0.31792677
v 0.14590656 -0.00583854 0.31828700
v 0.14576153 0.00184113 0.31811994
v 0.14744400 -0.00583854 0.31219451
v 0.14831423 -0.00583854 0.30161231
v 0.14822721 -0.00583854 0.26986042
v -0.14800317 0.00373385 0.26986042
v -0.14803218 0.00373929 0.26987087
v -0.14794516 -0.00583854 0.29103531
v -0.14791615 -0.00583854 0.30161231
v -0.14695887 -0.00583854 0.31219451
v -0.14556650 -0.00583854 0.31802596
v -0.14527641 -0.01085317 0.31766051
v -0.13993893 -0.01237062 0.31894478
v -0.12958306 -0.01383911 0.32017163
v -0.11919816 -0.01389350 0.32021864
v -0.01549432 -0.01379016 0.32029695
v 0.01560233 -0.01378472 0.32029172
v -0.12317226 -0.02998709 0.30708351
v 0.11930617 -0.02883405 0.30579402
v 0.12574595 -0.03084643 0.29889235
v 0.14625467 -0.01199533 0.31219451
v 0.14668978 -0.01257185 0.30161231
v 0.14666078 -0.01254466 0.26986042
v -0.14794516 -0.00584398 0.26986042
v -0.14643674 -0.01255554 0.29103531
v -0.14640773 -0.01255554 0.30161231
v -0.14588558 -0.01174515 0.31219451
v -0.12674025 -0.03111837 0.30161231
v -0.12470969 -0.02998709 0.30708351
v -0.11951725 -0.03156979 0.30226489
v 0.11930617 -0.03148821 0.30050030
v 0.12574595 -0.03084643 0.29295129
v 0.12368638 -0.02967707 0.28589820
v 0.14007595 -0.01597658 0.26986042
v -0.14643674 -0.01251203 0.26986042
v -0.13634193 -0.02254128 0.29903331
v -0.13634193 -0.02254128 0.29299825
v -0.12676926 -0.03112381 0.29103531
v -0.11969130 -0.03158067 0.29057066
v 0.11985733 -0.03125434 0.29006949
v 0.12969105 -0.01746683 0.26986042
v 0.11675345 -0.02997621 0.28556931
v -0.13993893 -0.01596026 0.26986042
v -0.12473869 -0.02999796 0.28555886
v -0.12346234 -0.02999796 0.28555886
v -0.12958306 -0.01751034 0.26986042
f 175 176 177
f 175 177 178
f 175 178 179
f 175 179 180
f 175 180 181
f 175 181 182
f 175 182 176
f 176 183 177
f 176 182 191
f 176 191 190
f 176 190 204
f 176 204 220
f 176 220 248
f 176 248 269
f 176 269 294
f 176 294 312
f 176 312 323
f 176 323 330
f 176 330 335
f 176 335 332
f 176 332 324
f 176 324 313
f 176 313 295
f 176 295 270
f 176 270 249
f 176 249 221
f 176 221 205
f 176 205 193
f 176 193 192
f 176 192 183
f 177 183 192
f 177 192 184
f 177 184 185
f 177 185 178
f 178 185 186
f 178 186 179
f 179 186 180
f 180 187 188
f 180 188 181
f 180 186 187
f 181 188 189
f 181 189 190
f 181 190 191
f 181 191 182
f 184 192 193
f 184 193 194
f 184 194 195
f 184 195 185
f 185 195 196
f 185 196 186
f 186 196 197
f 186 197 198
f 186 198 187
f 187 199 200
f 187 200 201
f 187 201 188
f 187 198 199
f 188 201 202
f 188 202 189
f 189 202 203
f 189 203 190
f 190 203 204
f 193 205 206
f 193 206 194
f 194 206 195
f 195 206 207
f 195 207 196
f 196 207 208
f 196 208 209
f 196 209 197
f 197 210 211
f 197 211 212
f 197 212 198
f 197 209 210
f 198 212 213
f 198 213 199
f 199 213 214
f 199 214 200
f 200 215 201
f 200 214 216
f 200 216 217
f 200 217 215
f 201 215 217
f 201 217 218
f 201 218 202
f 202 218 203
f 203 218 219
f 203 219 220
f 203 220 204
f 205 221 222
f 205 222 206
f 206 222 207
f 207 222 223
f 207 223 224
f 207 224 208
f 208 224 225
f 208 225 226
f 208 226 209
f 209 226 227
f 209 227 228
f 209 228 229
f 209 229 230
f 209 230 210
f 210 231 232
f 210 232 211
f 210 230 231
f 211 232 233
f 211 233 212
f 212 233 234
f 212 234 235
f 212 235 236
f 212 236 237
f 212 237 213
f 213 237 238
f 213 238 239
f 213 239 240
f 213 240 241
f 213 241 216
f 213 216 214
f 216 241 242
f 216 242 243
f 216 243 217
f 217 243 244
f 217 244 218
f 218 244 245
f 218 245 246
f 218 246 247
f 218 247 248
f 218 248 219
f 219 248 220
f 221 249 222
f 222 249 250
f 222 250 251
f 222 251 223
f 223 251 224
f 224 251 225
f 225 227 226
f 225 251 252
f 225 252 253
f 225 253 227
f 227 253 254
f 227 254 228
f 228 254 255
f 228 255 256
f 228 256 230
f 228 230 229
f 230 256 231
f 231 257 232
f 231 256 257
f 232 258 233
f 232 257 258
f 233 258 259
f 233 259 260
f 233 260 234
f 234 260 237
f 234 237 236
f 234 236 235
f 237 260 261
f 237 261 240
f 237 240 238
f 238 240 239
f 240 261 262
f 240 262 241
f 241 262 242
f 242 262 263
f 242 263 264
f 242 264 265
f 242 265 243
f 243 265 266
f 243 266 244
f 244 266 245
f 245 266 267
f 245 267 268
f 245 268 246
f 246 268 247
f 247 268 248
f 248 268 269
f 249 270 271
f 249 271 250
f 250 271 272
f 250 272 273
f 250 273 252
f 250 252 251
f 252 273 274
f 252 274 275
f 252 275 253
f 253 275 276
f 253 276 254
f 254 276 277
f 254 277 255
f 255 277 278
f 255 278 256
f 256 278 279
f 256 279 257
f 257 279 258
f 258 280 259
f 258 279 281
f 258 281 280
f 259 280 282
f 259 282 283
f 259 283 260
f 260 283 261
f 261 284 262
f 261 283 285
f 261 285 284
f 262 284 263
f 263 286 287
f 263 287 264
f 263 284 288
f 263 288 286
f 264 287 289
f 264 289 290
f 264 290 291
f 264 291 265
f 265 291 266
f 266 291 267
f 267 292 268
f 267 291 292
f 268 293 294
f 268 294 269
f 268 292 293
f 270 295 296
f 270 296 271
f 271 296 272
f 272 296 274
f 272 274 273
f 274 296 297
f 274 297 298
f 274 298 275
f 275 298 299
f 275 299 276
f 276 299 300
f 276 300 277
f 277 300 278
f 278 300 301
f 278 301 302
f 278 302 279
f 279 302 303
f 279 303 304
f 279 304 281
f 280 281 304
f 280 304 282
f 282 304 305
f 282 305 283
f 283 306 285
f 283 305 306
f 284 285 288
f 285 306 288
f 286 288 307
f 286 307 308
f 286 308 287
f 287 308 309
f 287 309 289
f 288 306 307
f 289 310 292
f 289 292 290
f 289 309 310
f 290 292 291
f 292 310 293
f 293 310 311
f 293 311 312
f 293 312 294
f 295 313 296
f 296 313 297
f 297 313 314
f 297 314 315
f 297 315 298
f 298 315 316
f 298 316 299
f 299 316 301
f 299 301 300
f 301 316 317
f 301 317 318
f 301 318 302
f 302 318 303
f 303 318 304
f 304 318 307
f 304 307 305
f 305 307 306
f 307 318 319
f 307 319 320
f 307 320 308
f 308 320 309
f 309 321 311
f 309 311 310
f 309 320 321
f 311 321 312
f 312 321 322
f 312 322 323
f 313 324 314
f 314 325 315
f 314 324 326
f 314 326 325
f 315 325 316
f 316 325 317
f 317 325 327
f 317 327 328
f 317 328 319
f 317 319 318
f 319 328 320
f 320 329 321
f 320 328 329
f 321 329 322
f 322 330 323
f 322 329 331
f 322 331 330
f 324 332 327
f 324 327 326
f 325 326 327
f 327 333 328
f 327 332 333
f 328 333 334
f 328 334 331
f 328 331 329
f 330 331 335
f 331 334 335
f 332 335 333
f 333 335 334

o geometry_2
v -0.14779720 -0.00583953 -0.26984120
v -0.14782617 -0.00583953 -0.25926879
v -0.14776823 0.00374273 -0.26984120
v -0.14643568 -0.01258779 -0.26984120
v -0.14808687 -0.00583953 -0.11112273
v -0.14826069 0.00374273 -0.05821656
v -0.14817378 0.00374273 -0.10055031
v -0.14637774 0.01052262 -0.26984120
v -0.13994679 -0.01614497 -0.26984120
v -0.14643568 -0.01259231 -0.25926879
v -0.14660950 -0.01256519 -0.05821656
v -0.14817378 -0.00583953 -0.05821656
v -0.14666742 0.01085710 -0.05821656
v -0.14666742 0.01084806 -0.07938344
v -0.14649362 0.01068082 -0.19576817
v -0.14823172 0.00374273 -0.04762212
v -0.14666742 0.01086162 -0.04484686
v -0.13994679 0.01476232 -0.25926879
v -0.13994679 0.01466740 -0.26984120
v -0.14640671 0.01057234 -0.24867434
v -0.13994679 0.01524143 -0.19576817
v -0.12957614 -0.01772243 -0.26984120
v -0.13994679 -0.01609977 -0.21693504
v -0.14658053 -0.01255615 -0.04762212
v -0.14658053 -0.01254259 -0.04484686
v -0.13994679 -0.01608169 -0.20634059
v -0.13994679 -0.01575174 -0.04762212
v -0.14814481 -0.00583953 -0.04762212
v -0.14814481 -0.00331289 -0.04484686
v -0.14820275 0.00374273 -0.04484686
v -0.13994679 0.01485272 -0.04484686
v -0.12862019 0.02080547 -0.26984120
v -0.12902574 0.02084615 -0.17460131
v -0.12922853 0.02077835 -0.19576817
v -0.12876502 0.02084163 -0.24867434
v -0.12870708 0.02081903 -0.25926879
v -0.12957614 -0.01763203 -0.21693504
v 0.12969003 -0.01811114 -0.26984120
v 0.12969003 -0.01787611 -0.06878899
v -0.14484243 -0.01338330 -0.04484686
v -0.14698608 -0.01078433 -0.04484686
v -0.12957614 -0.01760943 -0.20634059
v -0.13722376 -0.01607717 -0.04484686
v -0.13994679 -0.01573818 -0.04484686
v -0.14811584 -0.00583953 -0.04484686
v -0.12792495 0.02015008 -0.04484686
v -0.12824359 0.02085971 -0.07938344
v -0.12792495 0.02124842 -0.12171717
v -0.11404914 0.02770288 -0.11643096
v -0.11920548 0.02361235 -0.26984120
v -0.11819160 0.02585875 -0.12065993
v 0.14006068 -0.01625797 -0.26984120
v 0.14006068 -0.01612237 -0.14288404
v 0.14006068 -0.01599129 -0.05821656
v 0.12969003 -0.01784447 -0.05821656
v -0.12957614 -0.01700828 -0.04484686
v -0.11920548 0.02239196 -0.04484686
v -0.11404914 0.02770288 -0.11640894
v -0.10883485 0.02783396 -0.11704768
v -0.09846420 0.02799216 -0.11777454
v -0.10883485 0.02375246 -0.26984120
v 0.14637578 -0.01250191 -0.26984120
v 0.14637578 -0.01250191 -0.25926879
v 0.14637578 -0.01243411 -0.13228959
v 0.14637578 -0.01236179 -0.05821656
v 0.14637578 -0.01234823 -0.04762212
v 0.14006068 -0.01594610 -0.04762212
v 0.12969003 -0.01777667 -0.04762212
v 0.12969003 -0.01775407 -0.04484686
v -0.11155786 0.02259084 -0.04484686
v -0.10883485 0.02783396 -0.11616666
v -0.09846420 0.02799216 -0.11588032
v -0.08809355 0.02806448 -0.11803885
v -0.09846420 0.02377054 -0.26984120
v 0.14756348 -0.00585309 -0.26984120
v 0.14767934 -0.00583953 -0.11112273
v 0.14637578 -0.01233467 -0.04484686
v 0.14765037 -0.00583953 -0.04484686
v 0.14006068 -0.01592350 -0.04484686
v -0.10883485 0.02262700 -0.04484686
v -0.08809355 0.02806448 -0.11579222
v -0.08809355 0.02378410 -0.26984120
v -0.02586967 0.02787464 -0.11770846
v 0.01558395 0.02371178 -0.26984120
v 0.14652061 0.00372917 -0.26984120
v 0.14666545 0.00374273 -0.17460131
v 0.14669442 0.00374273 -0.12171717
v 0.14672339 0.00374273 -0.04762212
v 0.14672339 0.00374273 -0.04484686
v 0.07783680 0.02344963 -0.04484686
v -0.02586967 0.02787464 -0.11610058
v -0.01996014 0.02782040 -0.11726794
v 0.07780783 0.02344511 -0.26984120
v 0.03632524 0.02363495 -0.26984120
v 0.14533291 0.00861973 -0.26984120
v 0.14541981 0.00871465 -0.17460131
v 0.14544878 0.00874177 -0.04484686
v 0.08820746 0.02243716 -0.04484686
v 0.07783680 0.02346771 -0.06878899
v -0.01996014 0.02782040 -0.11618868
v 0.07783680 0.02351291 -0.24867434
v 0.07783680 0.02350387 -0.25926879
v 0.08817849 0.02246880 -0.26984120
v 0.14006068 0.01099270 -0.26984120
v 0.14006068 0.01115541 -0.04484686
v 0.14402933 0.00938812 -0.04484686
v 0.09582611 0.02121226 -0.04484686
v 0.09854912 0.02083711 -0.26984120
v 0.08820746 0.02248236 -0.22750746
v 0.08820746 0.02248688 -0.24867434
v 0.08820746 0.02248236 -0.25926879
v 0.12966106 0.01371370 -0.26984120
v 0.12969003 0.01367302 -0.04484686
v 0.11323605 0.01790819 -0.26984120
v 0.09857809 0.02076931 -0.04484686
v 0.10805072 0.01906077 -0.26984120
v 0.11291739 0.01783587 -0.13228959
v 0.10755826 0.01902010 -0.04484686
v 0.10518286 0.01948565 -0.04484686
f 336 337 338
f 336 338 343
f 336 343 354
f 336 354 367
f 336 367 385
f 336 385 396
f 336 396 409
f 336 409 417
f 336 417 419
f 336 419 429
f 336 429 428
f 336 428 438
f 336 438 443
f 336 443 451
f 336 451 449
f 336 449 447
f 336 447 439
f 336 439 430
f 336 430 420
f 336 420 410
f 336 410 397
f 336 397 387
f 336 387 373
f 336 373 357
f 336 357 344
f 336 344 339
f 336 339 337
f 337 340 341
f 337 341 342
f 337 342 338
f 337 339 340
f 338 342 343
f 339 344 345
f 339 345 346
f 339 346 347
f 339 347 340
f 340 347 341
f 341 348 349
f 341 349 350
f 341 350 343
f 341 343 342
f 341 347 363
f 341 363 351
f 341 351 352
f 341 352 348
f 343 353 354
f 343 350 355
f 343 355 356
f 343 356 353
f 344 346 345
f 344 357 358
f 344 358 346
f 346 359 360
f 346 360 347
f 346 358 361
f 346 361 362
f 346 362 359
f 347 360 363
f 348 352 356
f 348 356 349
f 349 356 350
f 350 356 355
f 351 363 364
f 351 364 365
f 351 365 352
f 352 365 364
f 352 364 380
f 352 380 376
f 352 376 360
f 352 360 375
f 352 375 379
f 352 379 378
f 352 378 391
f 352 391 404
f 352 404 414
f 352 414 412
f 352 412 413
f 352 413 424
f 352 424 432
f 352 432 441
f 352 441 440
f 352 440 448
f 352 448 453
f 352 453 454
f 352 454 450
f 352 450 442
f 352 442 433
f 352 433 425
f 352 425 415
f 352 415 405
f 352 405 392
f 352 392 381
f 352 381 366
f 352 366 356
f 353 356 367
f 353 367 354
f 356 366 368
f 356 368 369
f 356 369 370
f 356 370 371
f 356 371 367
f 357 372 361
f 357 361 358
f 357 373 374
f 357 374 372
f 359 362 375
f 359 375 360
f 360 376 363
f 361 372 362
f 362 372 377
f 362 377 378
f 362 378 379
f 362 379 375
f 363 376 380
f 363 380 364
f 366 381 382
f 366 382 383
f 366 383 368
f 367 371 384
f 367 384 385
f 368 383 386
f 368 386 369
f 369 386 384
f 369 384 370
f 370 384 371
f 372 374 377
f 373 387 388
f 373 388 374
f 374 388 389
f 374 389 390
f 374 390 377
f 377 391 378
f 377 390 391
f 381 392 393
f 381 393 382
f 382 393 386
f 382 386 383
f 384 386 393
f 384 393 406
f 384 406 394
f 384 394 385
f 385 394 395
f 385 395 396
f 387 397 398
f 387 398 399
f 387 399 400
f 387 400 388
f 388 400 401
f 388 401 389
f 389 401 402
f 389 402 390
f 390 402 403
f 390 403 391
f 391 403 404
f 392 405 406
f 392 406 393
f 394 406 407
f 394 407 395
f 395 407 416
f 395 416 408
f 395 408 396
f 396 408 409
f 397 410 411
f 397 411 398
f 398 411 399
f 399 411 400
f 400 411 401
f 401 412 402
f 401 411 413
f 401 413 412
f 402 414 404
f 402 404 403
f 402 412 414
f 405 415 407
f 405 407 406
f 407 415 416
f 408 417 409
f 408 416 426
f 408 426 418
f 408 418 419
f 408 419 417
f 410 420 421
f 410 421 411
f 411 421 422
f 411 422 423
f 411 423 424
f 411 424 413
f 415 425 416
f 416 425 426
f 418 426 435
f 418 435 427
f 418 427 428
f 418 428 429
f 418 429 419
f 420 430 421
f 421 430 431
f 421 431 422
f 422 431 423
f 423 431 432
f 423 432 424
f 425 433 434
f 425 434 435
f 425 435 426
f 427 435 436
f 427 436 437
f 427 437 428
f 428 437 438
f 430 439 431
f 431 439 440
f 431 440 441
f 431 441 432
f 433 442 443
f 433 443 444
f 433 444 436
f 433 436 434
f 434 436 435
f 436 444 445
f 436 445 446
f 436 446 437
f 437 446 438
f 438 446 443
f 439 447 440
f 440 447 449
f 440 449 448
f 442 450 443
f 443 446 445
f 443 445 444
f 443 450 451
f 448 449 452
f 448 452 453
f 449 451 453
f 449 453 452
f 450 454 451
f 451 454 453

o geometry_3
v 0.14824149 -0.00584027 0.23810235
v 0.14795120 0.00374524 0.26986042
v 0.14821247 -0.00584027 0.26986042
v 0.14667398 -0.01256799 0.24869865
v 0.14667398 -0.01256303 0.23810235
v 0.14664496 -0.01252334 0.20634428
v 0.14652886 -0.01243899 0.10056616
v 0.14649983 -0.01237945 0.06880809
v 0.14635469 -0.01233480 -0.04482483
v 0.14821247 -0.00584027 0.21694056
v 0.14795120 0.00374524 0.20634428
v 0.14638372 0.00990735 0.26986042
v 0.14638372 0.00991231 0.22750605
v 0.14664496 -0.01254318 0.26986042
v 0.14005569 -0.01599139 0.24869865
v 0.14005569 -0.01592193 -0.04482483
v 0.14005569 -0.01597650 0.26986042
v 0.14005569 -0.01598643 0.25926414
v 0.14171026 -0.01498421 -0.04482483
v 0.14766094 -0.00584027 -0.04482483
v 0.14798023 -0.00584027 0.08996987
v 0.14792218 0.00374524 0.19577878
v 0.14638372 0.00990735 0.20634428
v 0.14638372 0.00991231 0.21694056
v 0.14005569 0.01330098 0.26986042
v 0.12969281 -0.01775766 -0.04482483
v 0.12969281 -0.01746990 0.26986042
v 0.14673205 0.00374524 -0.04482483
v 0.14783511 0.00374524 0.17461701
v 0.14632567 0.00985774 0.18518248
v 0.14635469 0.00989247 0.19577878
v 0.14005569 0.01326129 0.20634428
v 0.14005569 0.01328113 0.21694056
v 0.14005569 0.01329106 0.22750605
v 0.14005569 0.01329602 0.23810235
v 0.10893806 0.02254415 0.26986042
v 0.10893806 0.02262849 0.16402071
v -0.12958209 -0.01700848 -0.04482483
v -0.12958209 -0.01750959 0.26986042
v 0.14545483 0.00874141 -0.04482483
v 0.14629662 0.00979820 0.17461701
v 0.14005569 0.01315710 0.18518248
v 0.14005569 0.01321663 0.19577878
v 0.09857518 0.02384901 0.26986042
v 0.09857518 0.02375970 0.16402071
v 0.09857518 0.02377955 0.17461701
v 0.09857518 0.02381924 0.20634428
v 0.14005569 0.01307275 0.17461701
v 0.14005569 0.01115764 -0.04482483
v 0.12969281 0.01367309 -0.04482483
v 0.10754472 0.01902153 -0.04482483
v 0.10519349 0.01948294 -0.04482483
v 0.09857518 0.02076795 -0.04482483
v 0.09584659 0.02120952 -0.04482483
v 0.08821231 0.02243500 -0.04482483
v -0.13721636 -0.01608069 -0.04482483
v -0.13994495 -0.01596162 0.26986042
v -0.13994495 -0.01592193 0.18518248
v -0.13994495 -0.01573835 -0.04482483
v -0.08810159 0.03106295 0.14285893
v -0.09846446 0.03119195 0.14285893
v 0.08821231 0.02390855 0.26986042
v -0.07770969 0.03243727 0.07940438
v -0.08810159 0.03286395 0.07940438
v 0.07782042 0.02344713 -0.04482483
v -0.14644714 -0.01251341 0.26986042
v -0.14653424 -0.01254318 0.18518248
v -0.14659229 -0.01254318 -0.04482483
v -0.14485063 -0.01338663 -0.04482483
v -0.10882732 0.03000616 0.14285893
v -0.11919020 0.02368528 0.26986042
v -0.10882732 0.02385893 0.26986042
v -0.09846446 0.02391847 0.26986042
v -0.08810159 0.02394824 0.26986042
v 0.02597705 0.02394328 0.26986042
v -0.09846446 0.03292845 0.07940438
v -0.10882732 0.03179725 0.07940438
v -0.08810159 0.03144498 0.03705001
v -0.10882732 0.02262849 -0.04482483
v -0.10882732 0.02367040 -0.03703163
v -0.09846446 0.03144994 0.03705001
v -0.14647619 -0.01251341 0.24869865
v -0.14795658 -0.00584523 0.26986042
v -0.14813075 -0.00584027 0.18518248
v -0.14815978 -0.00584027 0.14285893
v -0.14656326 -0.01253326 0.13226264
v -0.14813075 -0.00584027 -0.04482483
v -0.14815978 -0.00584027 0.12169714
v -0.11651966 0.02875588 0.12169714
v -0.11538758 0.02825973 0.14889635
v -0.12958209 0.02101602 0.26986042
v -0.10882732 0.03099349 0.03705001
v -0.11657771 0.02912799 0.03705001
v -0.11631647 0.02916768 0.07940438
v -0.11155593 0.02258880 -0.04482483
v -0.11919020 0.02353148 -0.03703163
v -0.14801465 0.00373532 0.26986042
v -0.14821784 0.00374524 0.18518248
v -0.14830492 0.00374524 0.08996987
v -0.14815978 -0.00331490 -0.04482483
v -0.12171560 0.02652323 0.12169714
v -0.12093186 0.02673161 0.13226264
v -0.13527151 0.01830211 0.26986042
v -0.14043843 0.01575689 0.06880809
v -0.12958209 0.02225639 0.13226264
v -0.12853710 0.02075803 -0.03703163
v -0.13994495 0.01485391 -0.04482483
v -0.13994495 0.01494322 -0.03703163
v -0.11919020 0.02239531 -0.04482483
v -0.12792751 0.02015273 -0.04482483
v -0.14650521 0.01072599 0.26986042
v -0.14670841 0.01098398 0.10056616
v -0.14670841 0.01099391 0.08996987
v -0.14670841 0.01098398 0.07940438
v -0.14781146 0.00562563 -0.04482483
v -0.14821784 0.00374524 -0.04482483
v -0.14043843 0.01552371 0.26986042
v -0.14665036 0.01085995 -0.04482483
v -0.14098996 0.01562790 0.17461701
v -0.14098996 0.01563782 0.18518248
v -0.13582304 0.01855019 0.18518248
v -0.14665036 0.01091452 -0.01583905
f 455 456 457
f 455 457 458
f 455 458 459
f 455 459 460
f 455 460 461
f 455 461 462
f 455 462 463
f 455 463 464
f 455 464 465
f 455 465 456
f 456 466 479
f 456 479 490
f 456 490 498
f 456 498 516
f 456 516 529
f 456 529 528
f 456 528 527
f 456 527 526
f 456 526 525
f 456 525 545
f 456 545 557
f 456 557 571
f 456 571 565
f 456 565 551
f 456 551 537
f 456 537 520
f 456 520 511
f 456 511 493
f 456 493 481
f 456 481 471
f 456 471 468
f 456 468 457
f 456 465 478
f 456 478 467
f 456 467 466
f 457 468 458
f 458 469 470
f 458 470 459
f 458 468 471
f 458 471 472
f 458 472 469
f 459 461 460
f 459 470 473
f 459 473 463
f 459 463 461
f 461 463 462
f 463 473 470
f 463 470 480
f 463 480 492
f 463 492 510
f 463 510 513
f 463 513 523
f 463 523 522
f 463 522 541
f 463 541 554
f 463 554 570
f 463 570 569
f 463 569 572
f 463 572 561
f 463 561 564
f 463 564 563
f 463 563 549
f 463 549 533
f 463 533 519
f 463 519 509
f 463 509 508
f 463 508 507
f 463 507 506
f 463 506 505
f 463 505 504
f 463 504 503
f 463 503 494
f 463 494 482
f 463 482 474
f 463 474 475
f 463 475 464
f 464 475 465
f 465 476 477
f 465 477 478
f 465 475 474
f 465 474 476
f 466 467 479
f 467 478 479
f 469 472 480
f 469 480 470
f 471 481 472
f 472 481 480
f 474 482 483
f 474 483 476
f 476 483 484
f 476 484 485
f 476 485 477
f 477 485 486
f 477 486 487
f 477 487 488
f 477 488 489
f 477 489 478
f 478 489 479
f 479 489 491
f 479 491 490
f 480 481 493
f 480 493 492
f 482 494 495
f 482 495 483
f 483 495 484
f 484 496 497
f 484 497 485
f 484 495 494
f 484 494 496
f 485 497 486
f 486 497 491
f 486 491 487
f 487 491 488
f 488 491 489
f 490 491 498
f 491 499 500
f 491 500 501
f 491 501 498
f 491 497 496
f 491 496 502
f 491 502 503
f 491 503 504
f 491 504 505
f 491 505 506
f 491 506 507
f 491 507 508
f 491 508 509
f 491 509 499
f 492 493 510
f 493 511 512
f 493 512 513
f 493 513 510
f 494 503 502
f 494 502 496
f 498 514 515
f 498 515 516
f 498 501 517
f 498 517 518
f 498 518 514
f 499 509 519
f 499 519 517
f 499 517 500
f 500 517 501
f 511 520 521
f 511 521 522
f 511 522 512
f 512 522 523
f 512 523 513
f 514 518 515
f 515 524 525
f 515 525 526
f 515 526 527
f 515 527 528
f 515 528 529
f 515 529 516
f 515 518 530
f 515 530 531
f 515 531 524
f 517 519 518
f 518 519 532
f 518 532 530
f 519 533 534
f 519 534 535
f 519 535 532
f 520 536 521
f 520 537 538
f 520 538 536
f 521 538 539
f 521 539 540
f 521 540 522
f 521 536 538
f 522 540 539
f 522 539 542
f 522 542 541
f 524 543 544
f 524 544 525
f 524 531 543
f 525 544 545
f 530 532 535
f 530 535 546
f 530 546 531
f 531 546 547
f 531 547 548
f 531 548 543
f 533 549 550
f 533 550 534
f 534 550 535
f 535 550 546
f 537 551 552
f 537 552 538
f 538 552 553
f 538 553 539
f 539 553 542
f 541 553 554
f 541 542 553
f 543 555 556
f 543 556 545
f 543 545 544
f 543 548 555
f 545 556 555
f 545 555 557
f 546 550 547
f 547 558 559
f 547 559 555
f 547 555 548
f 547 550 560
f 547 560 561
f 547 561 562
f 547 562 558
f 549 563 550
f 550 563 564
f 550 564 560
f 551 565 552
f 552 565 566
f 552 566 553
f 553 566 567
f 553 567 568
f 553 568 569
f 553 569 570
f 553 570 554
f 555 559 557
f 557 559 571
f 558 562 572
f 558 572 573
f 558 573 559
f 559 573 574
f 559 574 575
f 559 575 571
f 560 564 561
f 561 572 562
f 565 571 574
f 565 574 566
f 566 574 567
f 567 574 573
f 567 573 568
f 568 576 572
f 568 572 569
f 568 573 576
f 571 575 574
f 572 576 573

