# https://github.com/mikedh/trimesh

o geometry_0
v 0.13261125 -0.00239105 -0.08445713
v 0.13222281 -0.00607018 -0.08878852
v 0.13260128 -0.00239105 -0.08878852
v 0.13210331 0.00128441 -0.06719335
v 0.13211327 0.00128441 0.06666789
v 0.13211327 0.00128441 0.08395229
v 0.13260128 -0.00239105 0.08826307
v 0.13103762 -0.00862902 -0.08878852
v 0.13099778 -0.00860878 -0.09309932
v 0.13214315 -0.00607018 -0.09309932
v 0.13218298 -0.00607018 0.08826307
v 0.13250169 -0.00239105 -0.09309932
v 0.13201366 0.00128441 -0.08878852
v 0.13205351 0.00128441 -0.08445713
v 0.13099778 0.00379541 -0.06719335
v 0.13103762 0.00383956 -0.01967158
v 0.13104757 0.00385428 0.00621376
v 0.13104757 0.00385612 0.01052455
v 0.13104757 0.00385244 0.01485596
v 0.13100774 0.00384692 0.07099930
v 0.13099778 0.00384876 0.07962088
v 0.13210331 0.00128441 0.08826307
v 0.13248177 -0.00239105 0.09257385
v 0.12810948 -0.01003077 -0.08878852
v 0.12810948 -0.01002709 -0.09309932
v 0.13099778 -0.00856095 0.08826307
v 0.12810948 -0.00962606 -0.09741010
v 0.13064920 -0.00827950 -0.09741010
v 0.13144597 -0.00607018 -0.09741010
v 0.13182444 -0.00239105 -0.09741010
v 0.13205351 -0.00607018 0.09257385
v 0.13092806 -0.00851496 0.09257385
v 0.13186427 0.00128441 -0.09309932
v 0.13078863 0.00361697 -0.09309932
v 0.13087827 0.00370160 -0.08878852
v 0.13091811 0.00374023 -0.08445713
v 0.12810948 0.00521004 -0.08445713
v 0.12810948 0.00525971 -0.06719335
v 0.12810948 0.00530570 -0.04990895
v 0.12810948 0.00537192 -0.01105001
v 0.12810948 0.00539216 0.00621376
v 0.12810948 0.00539584 0.01052455
v 0.12810948 0.00542895 0.05802569
v 0.12810948 0.00543447 0.08395229
v 0.13098783 0.00384692 0.08395229
v 0.13097786 0.00383588 0.08826307
v 0.13089818 0.00375494 0.09257385
v 0.13197383 0.00128441 0.09257385
v 0.13172484 -0.00239105 0.09690526
v 0.12377703 -0.01093767 -0.08878852
v 0.12810948 -0.00974379 0.09257385
v 0.12377703 -0.01069669 -0.09741010
v 0.12377703 -0.00950281 -0.10174151
v 0.12770114 -0.00845610 -0.10134963
v 0.13033049 -0.00795758 -0.09963768
v 0.13055956 -0.00607018 -0.09998833
v 0.13076871 -0.00239105 -0.10029771
v 0.13060936 0.00037198 -0.10007082
v 0.13106750 0.00147204 -0.09761636
v 0.13110733 -0.00629093 0.09719403
v 0.13066912 -0.00827582 0.09595648
v 0.13056951 0.00341094 -0.09631694
v 0.12810948 0.00501688 -0.09309932
v 0.12810948 0.00515853 -0.08878852
v 0.12377703 0.00622732 -0.08878852
v 0.12377703 0.00625123 -0.08445713
v 0.12377703 0.00639104 -0.00671860
v 0.12377703 0.00646830 0.05802569
v 0.12377703 0.00647382 0.08395229
v 0.12377703 0.00645543 0.08826307
v 0.12810948 0.00541239 0.08826307
v 0.12810948 0.00529098 0.09257385
v 0.13063924 0.00349556 0.09597711
v 0.13105754 0.00151251 0.09721465
v 0.13053964 0.00043820 0.09942161
v 0.13067907 -0.00239105 0.09962787
v 0.13054959 -0.00521294 0.09944224
v 0.11943462 -0.01115290 -0.08878852
v 0.12377703 -0.01046306 0.08826307
v 0.12847799 -0.00903924 0.09719403
v 0.12377703 -0.01030486 0.09690526
v 0.12377703 -0.01041340 0.09257385
v 0.11943462 -0.01076475 -0.09741010
v 0.11943462 -0.00979346 -0.10174151
v 0.11943462 -0.00838803 -0.10436098
v 0.12377703 -0.00816361 -0.10413410
v 0.12597811 -0.00793182 -0.10390722
v 0.12844811 -0.00607018 -0.10215402
v 0.12873694 -0.00239105 -0.10246342
v 0.13012133 0.00282412 -0.09918392
v 0.12635658 0.00014571 -0.10413410
v 0.12823896 0.00148492 -0.10184464
v 0.13017113 -0.00766509 0.09884409
v 0.12844811 0.00426818 -0.09761636
v 0.12377703 0.00580054 -0.09741010
v 0.12377703 0.00612798 -0.09309932
v 0.11943462 0.00639288 -0.09309932
v 0.11943462 0.00648118 -0.08878852
v 0.11943462 0.00650326 -0.08445713
v 0.11943462 0.00663570 -0.00671860
v 0.11943462 0.00669089 0.06666789
v 0.11943462 0.00670193 0.08395229
v 0.11943462 0.00668905 0.08826307
v 0.11943462 0.00662467 0.09257385
v 0.12377703 0.00638184 0.09257385
v 0.12377703 0.00606728 0.09690526
v 0.12849791 0.00442822 0.09721465
v 0.13020101 0.00289035 0.09886471
v 0.12816923 0.00140766 0.10127793
v 0.12613747 -0.00007319 0.10348489
v 0.12843815 -0.00239105 0.10179358
v 0.12617731 -0.00477329 0.10350551
v 0.12816923 -0.00621919 0.10129855
v 0.03086335 -0.00861062 -0.08878852
v 0.03086335 -0.00857751 -0.09309932
v 0.11943462 -0.01065622 0.08826307
v 0.08904769 -0.01036189 0.08826307
v 0.08470528 -0.01029566 0.08826307
v 0.03086335 -0.00927655 0.07962088
v 0.03086335 -0.00927471 0.07531008
v 0.03086335 -0.00926919 0.07355690
v 0.03086335 -0.00925999 0.07099930
v 0.12728283 -0.00859407 0.10024664
v 0.11943462 -0.01044283 0.09690526
v 0.12375711 -0.00891599 0.10150481
v 0.11943462 -0.00944211 0.10121605
v 0.11509220 -0.01064702 -0.09741010
v 0.03086335 -0.00803484 -0.09986457
v 0.11509220 -0.00969413 -0.10174151
v 0.11509220 -0.00834204 -0.10431973
v 0.11509220 -0.00607018 -0.10514476
v 0.11943462 -0.00607018 -0.10516539
v 0.12377703 -0.00607018 -0.10471162
v 0.12627690 -0.00607018 -0.10409285
v 0.12656573 -0.00239105 -0.10425786
v 0.12506183 0.00259786 -0.10361846
v 0.12723303 0.00383588 -0.10075147
v 0.12377703 -0.00239105 -0.10506225
v 0.12367743 0.00133775 -0.10444349
v 0.12520126 -0.00722543 0.10313425
v 0.11943462 0.00610775 -0.09741010
v 0.12367743 0.00417252 -0.10200965
v 0.11943462 0.00474647 -0.10174151
v 0.11509220 0.00648854 -0.09309932
v 0.11509220 0.00657500 -0.08878852
v 0.11509220 0.00659891 -0.08445713
v 0.11509220 0.00670929 -0.00671860
v 0.11522167 0.00677551 0.06666789
v 0.11541091 0.00677735 0.07962088
v 0.11535115 0.00677919 0.08395229
v 0.11474361 0.00677551 0.08799494
v 0.11509220 0.00671113 0.09257385
v 0.11509220 0.00649774 0.09690526
v 0.11943462 0.00638552 0.09690526
v 0.11943462 0.00513830 0.10121605
v 0.12381687 0.00435832 0.10150481
v 0.12730275 0.00392234 0.10026727
v 0.12530086 0.00237895 0.10313425
v 0.12626694 -0.00239105 0.10356740
v 0.12381687 0.00120530 0.10387678
v 0.12377703 -0.00239105 0.10430992
v 0.12375711 -0.00602787 0.10385615
v 0.03086335 -0.00835492 -0.09741010
v 0.11509220 -0.01043363 0.09690526
v 0.09339010 -0.01036557 0.09257385
v 0.08904769 -0.01032878 0.09257385
v 0.08470528 -0.01025335 0.09257385
v 0.03086335 -0.00925815 0.08395229
v 0.12231296 -0.00807715 0.10354676
v 0.11509220 -0.00946418 0.10121605
v 0.11943462 -0.00819856 0.10367052
v 0.11509220 -0.00822983 0.10371177
v 0.03086335 -0.00823351 -0.09837951
v 0.03086335 -0.00741674 -0.10075147
v 0.03086335 -0.00466843 -0.10417535
v 0.03086335 -0.00650800 -0.10203028
v 0.03086335 -0.00575929 -0.10293780
v 0.11509220 -0.00239105 -0.10559853
v 0.03086335 -0.00239105 -0.10485601
v 0.11943462 -0.00239105 -0.10557790
v 0.12216356 0.00325642 -0.10401034
v 0.11943462 0.00128441 -0.10497977
v 0.11509220 0.00619973 -0.09741010
v 0.11943462 0.00336495 -0.10411348
v 0.11509220 0.00483293 -0.10174151
v 0.03086335 0.00757020 -0.09309932
v 0.03086335 0.00759780 -0.09134612
v 0.03086335 0.00763643 -0.08878852
v 0.11074979 0.00665594 -0.08445713
v 0.03086335 0.00763827 -0.08701472
v 0.11306043 0.00680494 0.06666789
v 0.11320982 0.00680678 0.07531008
v 0.11323971 0.00680678 0.07962088
v 0.11317995 0.00680678 0.08395229
v 0.11306043 0.00680494 0.08636550
v 0.11176568 0.00679575 0.08925311
v 0.10640738 0.00676263 0.09294512
v 0.11074979 0.00654189 0.09690526
v 0.10886742 0.00680494 0.09051128
v 0.11049084 0.00675895 0.09220260
v 0.03480737 0.00680310 0.09905035
v 0.11074979 0.00537560 0.10121605
v 0.11509220 0.00531489 0.10121605
v 0.11943462 0.00360410 0.10379428
v 0.12240259 0.00338887 0.10360865
v 0.11943462 0.00128441 0.10459867
v 0.11943462 -0.00239105 0.10499056
v 0.11943462 -0.00607018 0.10447493
v 0.09773252 -0.01021288 0.09690526
v 0.09339010 -0.01014850 0.09690526
v 0.08904769 -0.01007124 0.09690526
v 0.08470528 -0.00997926 0.09690526
v 0.03086335 -0.00910179 0.09257385
v 0.03086335 -0.00914778 0.09082067
v 0.03086335 -0.00920480 0.08826307
v 0.03086335 -0.00922872 0.08650989
v 0.11074979 -0.00820224 0.10369114
v 0.11074979 -0.00939612 0.10121605
v 0.11509220 -0.00607018 0.10457805
v 0.11074979 -0.00607018 0.10455742
v 0.03086335 -0.00089732 -0.10491788
v 0.03086335 0.00128441 -0.10495913
v 0.05433827 0.00128441 -0.10497977
v 0.11509220 0.00128441 -0.10502100
v 0.11509220 0.00340726 -0.10415474
v 0.11074979 0.00625123 -0.09741010
v 0.03086335 0.00679575 -0.09953455
v 0.03697858 0.00676447 -0.09932829
v 0.08038278 0.00512358 -0.10174151
v 0.03086335 0.00733842 -0.09559503
v 0.03086335 0.00764011 -0.08445713
v 0.11074979 0.00682702 0.08395229
v 0.10640738 0.00683622 0.08826307
v 0.11049084 0.00681230 0.08799494
v 0.10640738 0.00685829 0.08395229
v 0.10207493 0.00676999 0.09331638
v 0.03086335 0.00713975 0.09257385
v 0.09773252 0.00677735 0.09362578
v 0.03086335 0.00696315 0.09690526
v 0.10207493 0.00685645 0.08826307
v 0.03086335 0.00718205 0.08826307
v 0.03263616 0.00680862 0.09907097
v 0.03086335 0.00681230 0.09909159
v 0.10640738 0.00539584 0.10121605
v 0.11074979 0.00374758 0.10391803
v 0.11509220 0.00371263 0.10387678
v 0.11509220 0.00128441 0.10474306
v 0.11509220 -0.00239105 0.10511432
v 0.03086335 -0.00824087 0.09964849
v 0.03086335 -0.00880562 0.09690526
v 0.03086335 -0.00892887 0.09515208
v 0.03086335 -0.00463532 0.10367052
v 0.10640738 -0.00813785 0.10362927
v 0.11074979 -0.00239105 0.10509370
v 0.09773252 -0.00239105 0.10501119
v 0.04565344 -0.00239105 0.10453680
v 0.04131103 -0.00239105 0.10449555
v 0.03697858 -0.00239105 0.10445430
v 0.03086335 -0.00239105 0.10437179
v 0.03086335 0.00226673 -0.10469100
v 0.03086335 0.00368688 -0.10429911
v 0.05433827 0.00361146 -0.10427848
v 0.03263616 0.00550253 -0.10174151
v 0.07604037 0.00515853 -0.10174151
v 0.03086335 0.00693003 -0.09877140
v 0.03086335 0.00713239 -0.09753386
v 0.03263616 0.00714158 -0.09732760
v 0.03086335 0.00642599 -0.10017396
v 0.10207493 0.00688037 0.08395229
v 0.03086335 0.00566073 0.10125730
v 0.09773252 0.00543447 0.10121605
v 0.09773252 0.00377518 0.10393865
v 0.11074979 0.00128441 0.10476368
v 0.09339010 0.00128441 0.10476368
v 0.03263616 0.00128441 0.10461931
v 0.10207493 -0.00805875 0.10354676
v 0.09846953 -0.00798517 0.10346426
v 0.03086335 -0.00719783 0.10094791
v 0.03086335 -0.00647489 0.10181420
v 0.03086335 -0.00021116 0.10451618
v 0.03086335 0.00562578 -0.10155589
v 0.03086335 0.00382301 0.10389740
v 0.08904769 0.00378438 0.10393865
v 0.09339010 0.00378070 0.10393865
v 0.08470528 0.00378254 0.10393865
v 0.03086335 0.00278917 0.10418616
v 0.03086335 0.00128441 0.10459867
f 1 2 3
f 1 3 4
f 1 4 5
f 1 5 6
f 1 6 7
f 1 7 2
f 2 8 9
f 2 9 10
f 2 10 3
f 2 7 11
f 2 11 8
f 3 10 12
f 3 12 13
f 3 13 14
f 3 14 4
f 4 14 15
f 4 15 16
f 4 16 17
f 4 17 18
f 4 18 5
f 5 18 6
f 6 18 19
f 6 19 20
f 6 20 21
f 6 21 22
f 6 22 7
f 7 22 23
f 7 23 11
f 8 24 25
f 8 25 9
f 8 11 26
f 8 26 24
f 9 25 27
f 9 27 28
f 9 28 10
f 10 28 29
f 10 29 30
f 10 30 12
f 11 23 31
f 11 31 32
f 11 32 26
f 12 30 33
f 12 33 13
f 13 33 34
f 13 34 35
f 13 35 36
f 13 36 14
f 14 36 15
f 15 36 37
f 15 37 38
f 15 38 39
f 15 39 40
f 15 40 16
f 16 40 41
f 16 41 42
f 16 42 17
f 17 42 43
f 17 43 18
f 18 43 44
f 18 44 21
f 18 21 20
f 18 20 19
f 21 44 45
f 21 45 22
f 22 46 47
f 22 47 48
f 22 48 23
f 22 45 46
f 23 48 49
f 23 49 31
f 24 50 25
f 24 26 51
f 24 51 50
f 25 50 52
f 25 52 27
f 26 32 51
f 27 52 53
f 27 53 54
f 27 54 55
f 27 55 28
f 28 55 29
f 29 55 56
f 29 56 30
f 30 56 57
f 30 57 58
f 30 58 59
f 30 59 33
f 31 49 60
f 31 60 61
f 31 61 32
f 32 61 51
f 33 59 62
f 33 62 34
f 34 62 63
f 34 63 64
f 34 64 35
f 35 64 36
f 36 64 37
f 37 64 65
f 37 65 66
f 37 66 38
f 38 66 39
f 39 67 40
f 39 66 67
f 40 67 68
f 40 68 41
f 41 68 42
f 42 68 43
f 43 68 69
f 43 69 44
f 44 69 70
f 44 70 71
f 44 71 46
f 44 46 45
f 46 71 72
f 46 72 47
f 47 72 73
f 47 73 48
f 48 73 74
f 48 74 49
f 49 74 75
f 49 75 76
f 49 76 77
f 49 77 60
f 50 78 52
f 50 51 79
f 50 79 78
f 51 61 80
f 51 80 81
f 51 81 82
f 51 82 79
f 52 78 83
f 52 83 84
f 52 84 53
f 53 84 85
f 53 85 86
f 53 86 87
f 53 87 54
f 54 87 55
f 55 87 88
f 55 88 56
f 56 88 89
f 56 89 57
f 57 89 58
f 58 90 59
f 58 89 91
f 58 91 92
f 58 92 90
f 59 90 62
f 60 77 93
f 60 93 61
f 61 93 80
f 62 90 94
f 62 94 63
f 63 94 95
f 63 95 96
f 63 96 64
f 64 96 65
f 65 96 97
f 65 97 98
f 65 98 66
f 66 98 99
f 66 99 67
f 67 99 100
f 67 100 68
f 68 101 102
f 68 102 69
f 68 100 101
f 69 102 103
f 69 103 70
f 70 103 104
f 70 104 105
f 70 105 71
f 71 105 72
f 72 105 106
f 72 106 107
f 72 107 73
f 73 107 108
f 73 108 74
f 74 108 75
f 75 108 109
f 75 109 110
f 75 110 111
f 75 111 76
f 76 111 77
f 77 111 112
f 77 112 113
f 77 113 93
f 78 114 115
f 78 115 83
f 78 79 116
f 78 116 117
f 78 117 118
f 78 118 119
f 78 119 120
f 78 120 121
f 78 121 122
f 78 122 114
f 79 82 116
f 80 93 123
f 80 123 81
f 81 124 82
f 81 123 125
f 81 125 126
f 81 126 124
f 82 124 116
f 83 115 127
f 83 127 128
f 83 128 129
f 83 129 84
f 84 129 130
f 84 130 85
f 85 130 131
f 85 131 132
f 85 132 86
f 86 132 133
f 86 133 87
f 87 133 134
f 87 134 88
f 88 134 89
f 89 134 135
f 89 135 91
f 90 92 136
f 90 136 137
f 90 137 94
f 91 136 92
f 91 135 138
f 91 138 139
f 91 139 136
f 93 113 140
f 93 140 123
f 94 137 95
f 95 141 96
f 95 137 142
f 95 142 143
f 95 143 141
f 96 141 97
f 97 141 144
f 97 144 98
f 98 144 145
f 98 145 146
f 98 146 99
f 99 146 100
f 100 146 147
f 100 147 148
f 100 148 101
f 101 148 102
f 102 148 149
f 102 149 150
f 102 150 103
f 103 151 152
f 103 152 104
f 103 150 151
f 104 152 153
f 104 153 154
f 104 154 105
f 105 154 106
f 106 154 155
f 106 155 156
f 106 156 157
f 106 157 107
f 107 157 108
f 108 157 158
f 108 158 109
f 109 158 110
f 110 159 111
f 110 158 160
f 110 160 161
f 110 161 159
f 111 159 112
f 112 140 113
f 112 159 161
f 112 161 162
f 112 162 140
f 114 122 121
f 114 121 120
f 114 120 119
f 114 119 168
f 114 168 216
f 114 216 215
f 114 215 214
f 114 214 213
f 114 213 251
f 114 251 250
f 114 250 249
f 114 249 278
f 114 278 279
f 114 279 252
f 114 252 259
f 114 259 280
f 114 280 287
f 114 287 286
f 114 286 282
f 114 282 270
f 114 270 243
f 114 243 239
f 114 239 237
f 114 237 241
f 114 241 231
f 114 231 190
f 114 190 188
f 114 188 187
f 114 187 186
f 114 186 230
f 114 230 266
f 114 266 265
f 114 265 227
f 114 227 268
f 114 268 281
f 114 281 261
f 114 261 260
f 114 260 222
f 114 222 221
f 114 221 179
f 114 179 175
f 114 175 177
f 114 177 176
f 114 176 174
f 114 174 128
f 114 128 173
f 114 173 163
f 114 163 115
f 115 163 127
f 116 124 164
f 116 164 165
f 116 165 166
f 116 166 117
f 117 166 118
f 118 166 167
f 118 167 168
f 118 168 119
f 123 140 169
f 123 169 125
f 124 126 170
f 124 170 164
f 125 169 126
f 126 169 171
f 126 171 172
f 126 172 170
f 127 163 173
f 127 173 128
f 128 174 130
f 128 130 129
f 130 175 131
f 130 174 176
f 130 176 177
f 130 177 175
f 131 178 132
f 131 175 179
f 131 179 178
f 132 178 180
f 132 180 133
f 133 180 138
f 133 138 134
f 134 138 135
f 136 139 181
f 136 181 142
f 136 142 137
f 138 180 182
f 138 182 139
f 139 182 181
f 140 162 169
f 141 183 144
f 141 143 183
f 142 181 143
f 143 181 184
f 143 184 185
f 143 185 183
f 144 183 186
f 144 186 145
f 145 186 187
f 145 187 188
f 145 188 189
f 145 189 146
f 146 189 147
f 147 189 188
f 147 188 190
f 147 190 191
f 147 191 148
f 148 191 192
f 148 192 149
f 149 192 150
f 150 192 193
f 150 193 194
f 150 194 195
f 150 195 151
f 151 195 196
f 151 196 152
f 152 197 198
f 152 198 153
f 152 196 199
f 152 199 200
f 152 200 197
f 153 198 201
f 153 201 202
f 153 202 203
f 153 203 154
f 154 203 155
f 155 203 204
f 155 204 205
f 155 205 156
f 156 205 157
f 157 205 158
f 158 205 160
f 160 206 161
f 160 205 206
f 161 206 207
f 161 207 162
f 162 207 208
f 162 208 169
f 164 209 166
f 164 166 165
f 164 170 209
f 166 209 210
f 166 210 167
f 167 210 211
f 167 211 212
f 167 212 213
f 167 213 214
f 167 214 215
f 167 215 216
f 167 216 168
f 169 208 171
f 170 172 217
f 170 217 218
f 170 218 210
f 170 210 209
f 171 208 219
f 171 219 172
f 172 219 220
f 172 220 217
f 178 221 222
f 178 222 223
f 178 223 224
f 178 224 180
f 178 179 221
f 180 224 182
f 181 182 184
f 182 224 225
f 182 225 184
f 183 226 186
f 183 185 227
f 183 227 228
f 183 228 226
f 184 225 185
f 185 225 229
f 185 229 227
f 186 226 230
f 190 231 191
f 191 231 192
f 192 231 193
f 193 231 194
f 194 232 195
f 194 231 232
f 195 233 234
f 195 234 196
f 195 232 235
f 195 235 233
f 196 234 233
f 196 233 199
f 197 236 198
f 197 200 199
f 197 199 237
f 197 237 236
f 198 236 238
f 198 238 239
f 198 239 201
f 199 233 240
f 199 240 241
f 199 241 237
f 201 242 243
f 201 243 202
f 201 239 242
f 202 243 244
f 202 244 245
f 202 245 246
f 202 246 203
f 203 246 204
f 204 246 247
f 204 247 206
f 204 206 205
f 206 247 207
f 207 247 248
f 207 248 208
f 208 248 219
f 210 218 211
f 211 218 249
f 211 249 212
f 212 250 251
f 212 251 213
f 212 249 250
f 217 252 253
f 217 253 218
f 217 220 252
f 218 253 249
f 219 248 254
f 219 254 220
f 220 254 255
f 220 255 256
f 220 256 257
f 220 257 258
f 220 258 259
f 220 259 252
f 222 260 223
f 223 260 261
f 223 261 224
f 224 261 262
f 224 262 225
f 225 263 264
f 225 264 229
f 225 262 263
f 226 228 265
f 226 265 266
f 226 266 267
f 226 267 230
f 227 265 228
f 227 229 264
f 227 264 268
f 230 267 266
f 231 241 269
f 231 269 235
f 231 235 232
f 233 235 269
f 233 269 240
f 236 239 238
f 236 237 239
f 239 243 242
f 240 269 241
f 243 270 271
f 243 271 244
f 244 271 245
f 245 272 273
f 245 273 247
f 245 247 246
f 245 271 270
f 245 270 272
f 247 273 248
f 248 273 274
f 248 274 275
f 248 275 254
f 249 253 276
f 249 276 277
f 249 277 278
f 252 279 277
f 252 277 276
f 252 276 253
f 254 275 255
f 255 275 256
f 256 275 257
f 257 275 258
f 258 275 280
f 258 280 259
f 261 281 263
f 261 263 262
f 263 281 264
f 264 281 268
f 270 282 283
f 270 283 284
f 270 284 272
f 272 284 273
f 273 284 283
f 273 283 274
f 274 283 285
f 274 285 282
f 274 282 275
f 275 282 286
f 275 286 287
f 275 287 280
f 277 279 278
f 282 285 283

o geometry_1
v 0.03084737 0.00128419 0.10460721
v -0.06718758 0.00496355 0.10444274
v -0.10191028 0.00496355 0.10473057
v -0.11494328 0.00496355 0.10483336
v -0.01946382 0.00128419 0.10481280
v 0.03084737 -0.00239131 0.10438107
v 0.03084737 0.00382208 0.10388765
v -0.10191028 0.00745509 0.10396989
v -0.10625462 0.00749565 0.10399044
v -0.11059895 0.00753041 0.10401100
v -0.11494328 0.00755359 0.10403156
v -0.11927164 0.00496355 0.10479225
v -0.11927164 0.00128419 0.10489504
v -0.11494328 0.00128419 0.10491560
v -0.04116950 0.00128419 0.10489504
v -0.11494328 -0.00239131 0.10438107
v 0.03084737 -0.00328942 0.10409324
v -0.05851489 0.00697610 0.10355871
v -0.06285922 0.00703790 0.10362039
v -0.06718758 0.00708039 0.10366150
v 0.03084737 0.00566080 0.10125610
v -0.08454893 0.00728705 0.10380541
v -0.10191028 0.00899250 0.10121498
v -0.10625462 0.00905431 0.10121498
v -0.11059895 0.00910839 0.10121498
v -0.11494328 0.00914508 0.10121498
v -0.11927164 0.00910645 0.10121498
v -0.11927164 0.00752462 0.10399044
v -0.12361597 0.00718083 0.10370262
v -0.12361597 0.00496355 0.10419603
v -0.12361597 0.00128419 0.10431939
v -0.12353612 -0.00224452 0.10382597
v -0.11927164 -0.00239131 0.10436051
v -0.11927164 -0.00448497 0.10364094
v -0.11494328 -0.00450235 0.10364094
v 0.03084737 -0.00463562 0.10366150
v -0.06285922 0.00820641 0.10121498
v -0.08454893 0.00870279 0.10121498
v 0.03084737 0.00681192 0.09909741
v -0.08454893 0.00973031 0.09689760
v -0.08889326 0.00979984 0.09689760
v -0.09758193 0.00993310 0.09689760
v -0.10191028 0.00999491 0.09689760
v -0.11059895 0.01009534 0.09689760
v -0.11494328 0.01014170 0.09689760
v -0.11927164 0.01015329 0.09689760
v -0.12361597 0.00867382 0.10121498
v -0.12361597 0.01003547 0.09689760
v -0.12585203 0.00684862 0.10341480
v -0.12601175 0.00496355 0.10351759
v -0.12607563 0.00128419 0.10355871
v -0.12594786 -0.00091956 0.10347647
v -0.12205074 -0.00438647 0.10353814
v -0.12494163 -0.00337247 0.10304473
v -0.11927164 -0.00568245 0.10121498
v -0.11494328 -0.00573846 0.10121498
v 0.03084737 -0.00824159 0.09965250
v 0.03084737 -0.00719669 0.10094772
v 0.03084737 -0.00647433 0.10181119
v -0.06718758 0.00937879 0.09689760
v -0.08022057 0.00964918 0.09689760
v 0.03084737 0.00696451 0.09689760
v -0.06285922 0.00927256 0.09689760
v -0.07153191 0.00959317 0.09258021
v -0.08022057 0.00975348 0.09258021
v -0.08454893 0.00983267 0.09258021
v -0.09758193 0.01006251 0.09258021
v -0.10191028 0.01013204 0.09258021
v -0.11494328 0.01032518 0.09258021
v -0.11927164 0.01036574 0.09258021
v -0.12361597 0.01031939 0.09258021
v -0.12756101 0.00747440 0.10088604
v -0.12796030 0.00892490 0.09689760
v -0.12796030 0.00952751 0.09258021
v -0.12818391 0.00496355 0.10158505
v -0.13022830 0.00693167 0.09922076
v -0.12824780 0.00128419 0.10166728
v -0.12789642 -0.00227735 0.10117387
v -0.13030816 -0.00118030 0.09932356
v -0.12697005 -0.00483842 0.10016647
v -0.12353612 -0.00515710 0.10144113
v -0.12986095 -0.00363321 0.09843952
v -0.12361597 -0.00651296 0.09689760
v -0.11927164 -0.00674087 0.09689760
v -0.11494328 -0.00681620 0.09689760
v -0.00930575 -0.00793063 0.09909741
v 0.03084737 -0.00880556 0.09689760
v 0.03084737 0.00714027 0.09258021
v -0.06718758 0.00950626 0.09258021
v -0.09758193 0.01008376 0.08826283
v -0.07153191 0.00991765 -0.05854880
v -0.07587624 0.00999877 -0.05854880
v -0.10191028 0.01015908 0.08826283
v -0.10625462 0.01022668 0.08826283
v -0.11059895 0.01029235 0.08826283
v -0.11494328 0.01035415 0.08826283
v -0.11927164 0.01039471 0.08826283
v -0.12361597 0.01036188 0.08826283
v -0.12796030 0.00962214 0.08826283
v -0.13061163 0.00736431 0.09689760
v -0.13099495 0.00779888 0.09258021
v -0.13104286 0.00786648 0.08826283
v -0.13038802 0.00496355 0.09942635
v -0.13131438 0.00496355 0.09689760
v -0.13045191 0.00128419 0.09950858
v -0.13145813 0.00128419 0.09689760
v -0.13077134 -0.00240096 0.09695927
v -0.13037205 -0.00445213 0.09556127
v -0.12823182 -0.00520346 0.09695927
v -0.12796030 -0.00583503 0.09258021
v -0.12361597 -0.00673701 0.09258021
v -0.11494328 -0.00717544 0.08826283
v -0.11059895 -0.00727201 0.08826283
v -0.01079113 -0.00854096 0.09258021
v -0.00644679 -0.00860276 0.09258021
v 0.03084737 -0.00892917 0.09515009
v 0.03084737 0.00718083 0.08826283
v 0.03084737 0.00763857 -0.08445311
v -0.04116950 0.00932857 -0.08445311
v -0.04551384 0.00941741 -0.08013573
v -0.04984219 0.00950047 -0.07581834
v -0.06718758 0.00982688 -0.05854880
v -0.07153191 0.00992538 -0.06286619
v -0.07587624 0.01000263 -0.06286619
v -0.08022057 0.01007217 -0.05854880
v -0.08454893 0.01013977 -0.05854880
v -0.11494328 0.01035802 0.08394545
v -0.08889326 0.01019964 -0.05854880
v -0.09323759 0.01024793 -0.05854880
v -0.12361597 0.01043141 0.01052935
v -0.12361597 0.01036961 0.08394545
v -0.11927164 0.01045459 -0.00240225
v -0.12361597 0.01043334 0.00621196
v -0.12361597 0.01043141 0.00189458
v -0.12796030 0.00948308 -0.07150095
v -0.13208103 0.00496355 0.09258021
v -0.13214492 0.00496355 0.08826283
v -0.13094704 0.00774866 -0.07581834
v -0.13094704 0.00774287 -0.08013573
v -0.13094704 0.00773515 -0.08445311
v -0.13222477 0.00128419 0.09258021
v -0.13156994 -0.00239131 0.09258021
v -0.13054773 -0.00463176 0.09258021
v -0.13062760 -0.00471095 0.08826283
v -0.12796030 -0.00593354 0.08826283
v -0.12361597 -0.00677177 0.08826283
v -0.12361597 -0.00680847 0.07962806
v -0.12361597 -0.00682585 0.07531067
v -0.11494328 -0.00718124 0.08394545
v 0.02394755 -0.00912425 0.08826283
v -0.11059895 -0.00727588 0.08394545
v 0.01960322 -0.00913970 0.07962806
v 0.02394755 -0.00920150 0.07962806
v 0.02394755 -0.00918026 0.08394545
v 0.03084737 -0.00910300 0.09258021
v 0.03084737 0.00763857 -0.08702298
v -0.03682517 0.00923586 -0.08877049
v -0.04551384 0.00942321 -0.08445311
v -0.04984219 0.00950819 -0.08013573
v -0.07153191 0.00992538 -0.06718357
v -0.07587624 0.01000070 -0.06718357
v -0.08022057 0.01007410 -0.06286619
v -0.08454893 0.01013977 -0.06286619
v -0.08889326 0.01019771 -0.06286619
v -0.09323759 0.01024599 -0.06286619
v -0.09758193 0.01028269 -0.06286619
v -0.09758193 0.01028269 -0.05854880
v -0.11927164 0.01045266 -0.00671963
v -0.12361597 0.01042369 -0.00671963
v -0.12796030 0.00947729 -0.07581834
v -0.13222477 0.00128419 0.01916412
v -0.13228866 0.00128419 0.08826283
v -0.13094704 0.00771969 -0.08877049
v -0.13190535 0.00496355 -0.08445311
v -0.12796030 0.00946570 -0.08013573
v -0.13169772 -0.00239131 0.08826283
v -0.13064357 -0.00471288 0.08394545
v -0.12796030 -0.00594512 0.08394545
v -0.12361597 -0.00683165 0.07099329
v -0.12361597 -0.00682779 0.06667591
v -0.12361597 -0.00679688 0.03643366
v -0.11927164 -0.00693015 0.02348150
v 0.02827591 -0.00917640 0.08826283
v 0.03084737 -0.00914742 0.09083270
v 0.01960322 -0.00913970 0.07531067
v -0.10191028 -0.00700741 -0.08877049
v -0.08454893 -0.00740335 -0.06718357
v -0.07153191 -0.00767761 -0.04559665
v -0.06718758 -0.00775101 -0.04559665
v -0.06285922 -0.00781861 -0.04559665
v -0.05417055 -0.00795187 -0.04559665
v -0.04984219 -0.00801754 -0.04559665
v 0.02394755 -0.00920150 0.07531067
v 0.02827591 -0.00925172 0.07962806
v 0.02827591 -0.00923241 0.08394545
v 0.03084737 0.00763664 -0.08877049
v -0.04116950 0.00932857 -0.08877049
v 0.03084737 0.00759801 -0.09134037
v 0.03084737 0.00756904 -0.09308788
v -0.02380815 0.00884958 -0.09308788
v -0.02815248 0.00894615 -0.09308788
v -0.03248084 0.00904079 -0.09308788
v -0.04984219 0.00950240 -0.08445311
v -0.07153191 0.00991379 -0.07581834
v -0.07587624 0.00999491 -0.07150095
v -0.08022057 0.01006251 -0.07150095
v -0.08454893 0.01011659 -0.07581834
v -0.08889326 0.01015715 -0.08013573
v -0.09323759 0.01020350 -0.08013573
v -0.09758193 0.01025565 -0.07581834
v -0.10191028 0.01028462 -0.07581834
v -0.10191028 0.01029814 -0.06718357
v -0.10191028 0.01030394 -0.06286619
v -0.11927164 0.01044686 -0.01103701
v -0.12361597 0.01041789 -0.01103701
v -0.12361597 0.01029235 -0.07581834
v -0.12361597 0.01028269 -0.08013573
v -0.13163383 -0.00239131 0.05372375
v -0.13192131 0.00128419 -0.08013573
v -0.13187340 0.00496355 -0.08877049
v -0.12796030 0.00944639 -0.08445311
v -0.12796030 0.00941741 -0.08877049
v -0.12796030 0.00930539 -0.09308788
v -0.13086717 0.00763857 -0.09308788
v -0.13190535 0.00128419 -0.08445311
v -0.12361597 0.01026724 -0.08445311
v -0.13061163 -0.00467618 0.04940637
v -0.12796030 -0.00594126 0.06667591
v -0.12796030 -0.00594706 0.07099329
v -0.12796030 -0.00592002 0.05372375
v -0.12361597 -0.00677177 0.02348150
v -0.11927164 -0.00691470 0.01916412
v 0.03084737 -0.00922854 0.08651531
v 0.03084737 -0.00920537 0.08826283
v -0.10625462 -0.00686641 -0.09308788
v -0.10191028 -0.00697457 -0.09308788
v -0.08022057 -0.00744391 -0.07581834
v -0.08022057 -0.00746515 -0.07150095
v -0.08454893 -0.00738790 -0.07150095
v -0.06718758 -0.00774135 -0.04991404
v -0.07153191 -0.00766795 -0.04991404
v -0.06285922 -0.00780895 -0.04991404
v -0.05814753 -0.00788234 -0.04989347
v -0.05645452 -0.00791131 -0.04845435
v -0.05621495 -0.00790745 -0.05133260
v -0.05452194 -0.00793642 -0.04989347
v -0.05361154 -0.00793256 -0.05423142
v -0.04551384 -0.00807548 -0.04559665
v 0.02827591 -0.00924979 0.07531067
v 0.03084737 -0.00927683 0.07962806
v 0.03084737 -0.00925752 0.08394545
v -0.03682517 0.00912384 -0.09308788
v -0.04551384 0.00940389 -0.08877049
v 0.03084737 0.00733727 -0.09559607
v 0.03084737 0.00713254 -0.09754918
v -0.02380815 0.00836865 -0.09742582
v -0.02815248 0.00845557 -0.09742582
v -0.07153191 0.00990027 -0.08013573
v -0.07587624 0.00998718 -0.07581834
v -0.08022057 0.01005478 -0.07581834
v -0.08454893 0.01010500 -0.08013573
v -0.08889326 0.01013011 -0.08445311
v -0.09323759 0.01017840 -0.08445311
v -0.09758193 0.01024406 -0.08013573
v -0.10191028 0.01027304 -0.08013573
v -0.10625462 0.01029235 -0.08013573
v -0.10625462 0.01030007 -0.07581834
v -0.11927164 0.01043914 -0.01535440
v -0.11927164 0.01031359 -0.08013573
v -0.11927164 0.01030394 -0.08445311
v -0.11927164 0.01029235 -0.08877049
v -0.13161784 -0.00239131 0.04940637
v -0.13187340 0.00128419 -0.08877049
v -0.13171368 0.00496355 -0.09308788
v -0.12361597 0.01024793 -0.08877049
v -0.12361597 0.01020157 -0.09308788
v -0.12361597 0.00989448 -0.09742582
v -0.12796030 0.00869699 -0.09742582
v -0.13048386 0.00721752 -0.09742582
v -0.13101091 -0.00239131 -0.08877049
v -0.13150605 -0.00239131 0.02348150
v -0.13059565 -0.00466845 0.04506843
v -0.12796030 -0.00590070 0.04506843
v -0.13019635 -0.00429183 -0.08877049
v -0.12796030 -0.00583310 0.02779889
v -0.12361597 -0.00674860 0.01916412
v -0.12796030 -0.00585242 0.03211627
v -0.12361597 -0.00657670 -0.00671963
v -0.12361597 -0.00593740 -0.09742582
v -0.11927164 -0.00612861 -0.09742582
v -0.11059895 -0.00646854 -0.09742582
v -0.10625462 -0.00663078 -0.09742582
v 0.03084737 -0.00835554 -0.09742582
v 0.03084737 -0.00857766 -0.09308788
v -0.06718758 -0.00762739 -0.07581834
v -0.07153191 -0.00757138 -0.07581834
v -0.07587624 -0.00751151 -0.07581834
v -0.07587624 -0.00753469 -0.07150095
v -0.07153191 -0.00760229 -0.07150095
v -0.05578371 -0.00790166 -0.05423142
v -0.06718758 -0.00766216 -0.07150095
v -0.05492123 -0.00789200 -0.05854880
v -0.05274906 -0.00791904 -0.05854880
v -0.04984219 -0.00797698 -0.05423142
v -0.04551384 -0.00805038 -0.04991404
v 0.03084737 -0.00861049 -0.08877049
v -0.04116950 -0.00811991 -0.04559665
v 0.02827591 -0.00923434 0.07099329
v 0.03084737 -0.00926910 0.07354260
v 0.03084737 -0.00927490 0.07531067
v -0.09323759 0.00968974 -0.09742582
v -0.09758193 0.00976700 -0.09742582
v -0.08889326 0.00999298 -0.09308788
v -0.08454893 0.01001809 -0.08877049
v -0.08022057 0.01000843 -0.08445311
v -0.07153191 0.00987130 -0.08445311
v 0.03084737 0.00692974 -0.09876216
v 0.03084737 0.00679647 -0.09952284
v -0.07587624 0.00997173 -0.08013573
v -0.08022057 0.01004126 -0.08013573
v -0.08454893 0.01007410 -0.08445311
v -0.08889326 0.01008182 -0.08877049
v -0.09323759 0.01013397 -0.08877049
v -0.09758193 0.01017646 -0.08877049
v -0.09758193 0.01021895 -0.08445311
v -0.10191028 0.01025179 -0.08445311
v -0.10625462 0.01027304 -0.08445311
v -0.11059895 0.01030201 -0.08013573
v -0.11059895 0.01028655 -0.08445311
v -0.11494328 0.01027883 -0.08877049
v -0.11927164 0.01025951 -0.09308788
v -0.13171368 0.00128419 -0.09308788
v -0.13091509 -0.00239131 -0.09308788
v -0.13096301 0.00496355 -0.09742582
v -0.11927164 0.01002581 -0.09742582
v -0.11927164 0.00878004 -0.10174321
v -0.12375972 0.00810598 -0.10207215
v -0.12796030 0.00748985 -0.10057135
v -0.13016441 0.00684476 -0.09962563
v -0.13018039 -0.00427251 -0.09308788
v -0.12796030 -0.00509337 -0.09308788
v -0.12804017 -0.00484421 -0.09701464
v -0.12665061 -0.00467039 -0.10036576
v -0.12361597 -0.00503156 -0.10116756
v -0.11927164 -0.00519960 -0.10166097
v 0.03084737 -0.00823386 -0.09839209
v 0.03084737 -0.00803493 -0.09987234
v -0.04984219 -0.00787075 -0.07150095
v -0.04984219 -0.00783406 -0.07581834
v -0.06285922 -0.00767954 -0.07581834
v -0.05851489 -0.00777032 -0.07150095
v -0.06285922 -0.00771624 -0.07150095
v -0.05417055 -0.00785144 -0.06718357
v -0.05215811 -0.00791131 -0.06101588
v -0.04760614 -0.00790938 -0.06923947
v 0.03084737 -0.00925945 0.07099329
v -0.11494328 0.00877039 -0.10174321
v -0.11494328 0.00999684 -0.09742582
v -0.09323759 0.01006058 -0.09308788
v 0.03084737 0.00642757 -0.10018072
v -0.06910419 0.00680806 -0.10390190
v -0.02380815 0.00738169 -0.10085917
v -0.09758193 0.01011273 -0.09308788
v -0.10191028 0.01015135 -0.09308788
v -0.11059895 0.01021895 -0.09308788
v -0.10191028 0.01020930 -0.08877049
v -0.10625462 0.01023827 -0.08877049
v -0.11059895 0.01026145 -0.08877049
v -0.11494328 0.01024599 -0.09308788
v -0.13096301 0.00128419 -0.09742582
v -0.13041997 -0.00207455 -0.09701464
v -0.13013247 -0.00423968 -0.09528769
v -0.13024428 0.00496355 -0.09972843
v -0.11494328 0.00728705 -0.10431308
v -0.11927164 0.00727353 -0.10429252
v -0.12240212 0.00709198 -0.10412805
v -0.12534093 0.00496355 -0.10373742
v -0.12796030 0.00496355 -0.10174321
v -0.12804017 -0.00207455 -0.10087973
v -0.12385555 -0.00264625 -0.10338792
v -0.11927164 -0.00408130 -0.10381967
v -0.12954151 -0.00309048 -0.09816595
v -0.13014845 -0.00063757 -0.09960507
v -0.11654046 -0.00422036 -0.10388134
v -0.11503912 -0.00505281 -0.10215438
v -0.11364956 -0.00423582 -0.10390190
v 0.03084737 -0.00741687 -0.10075638
v -0.05417055 -0.00782247 -0.07150095
v 0.03084737 0.00562603 -0.10155818
v 0.03084737 0.00368688 -0.10429252
v -0.13022830 0.00128419 -0.09972843
v -0.12796030 0.00128419 -0.10178433
v 0.03084737 0.00226535 -0.10470370
v -0.11494328 0.00496355 -0.10495041
v -0.11927164 0.00496355 -0.10488873
v -0.12316876 0.00496355 -0.10435419
v -0.12545273 0.00128419 -0.10379910
v -0.12257781 -0.00158977 -0.10418972
v -0.11927164 -0.00224259 -0.10439531
v -0.11503912 -0.00275248 -0.10435419
v 0.03084737 -0.00575971 -0.10293563
v 0.03084737 -0.00650717 -0.10203103
v 0.03084737 -0.00375103 -0.10445699
v 0.03084737 -0.00466845 -0.10416917
v 0.03084737 0.00128419 -0.10497097
v -0.00210246 0.00128419 -0.10507376
v -0.06718758 0.00128419 -0.10511488
v -0.11494328 0.00128419 -0.10509432
v -0.11927164 0.00128419 -0.10501208
v -0.12329654 0.00128419 -0.10439531
v 0.02827591 -0.00239131 -0.10484761
v 0.03084737 -0.00239131 -0.10484761
v 0.03084737 -0.00089639 -0.10490929
f 288 289 290
f 288 290 291
f 288 291 292
f 288 292 293
f 288 293 304
f 288 304 323
f 288 323 346
f 288 346 345
f 288 345 344
f 288 344 374
f 288 374 403
f 288 403 442
f 288 442 471
f 288 471 521
f 288 521 520
f 288 520 538
f 288 538 537
f 288 537 597
f 288 597 596
f 288 596 643
f 288 643 593
f 288 593 581
f 288 581 580
f 288 580 633
f 288 633 634
f 288 634 674
f 288 674 689
f 288 689 688
f 288 688 691
f 288 691 690
f 288 690 699
f 288 699 700
f 288 700 692
f 288 692 680
f 288 680 677
f 288 677 676
f 288 676 647
f 288 647 605
f 288 605 604
f 288 604 542
f 288 542 541
f 288 541 486
f 288 486 485
f 288 485 483
f 288 483 443
f 288 443 405
f 288 405 404
f 288 404 375
f 288 375 349
f 288 349 326
f 288 326 308
f 288 308 294
f 288 294 289
f 289 294 295
f 289 295 290
f 290 295 291
f 291 295 296
f 291 296 297
f 291 297 298
f 291 298 299
f 291 299 300
f 291 300 301
f 291 301 302
f 291 302 292
f 292 302 293
f 293 302 301
f 293 301 303
f 293 303 304
f 294 305 306
f 294 306 307
f 294 307 295
f 294 308 305
f 295 307 309
f 295 309 310
f 295 310 311
f 295 311 312
f 295 312 296
f 296 312 297
f 297 312 313
f 297 313 298
f 298 313 314
f 298 314 315
f 298 315 299
f 299 315 316
f 299 316 317
f 299 317 318
f 299 318 300
f 300 318 319
f 300 319 320
f 300 320 303
f 300 303 301
f 303 320 321
f 303 321 322
f 303 322 323
f 303 323 304
f 305 324 325
f 305 325 306
f 305 308 326
f 305 326 324
f 306 325 310
f 306 310 309
f 306 309 307
f 310 325 327
f 310 327 328
f 310 328 329
f 310 329 330
f 310 330 311
f 311 330 312
f 312 330 331
f 312 331 332
f 312 332 313
f 313 332 333
f 313 333 314
f 314 334 315
f 314 333 335
f 314 335 334
f 315 334 316
f 316 334 336
f 316 336 317
f 317 336 337
f 317 337 318
f 318 337 338
f 318 338 339
f 318 339 319
f 319 340 320
f 319 339 341
f 319 341 340
f 320 340 321
f 321 340 342
f 321 342 343
f 321 343 344
f 321 344 322
f 322 344 345
f 322 345 346
f 322 346 323
f 324 326 325
f 325 326 347
f 325 347 348
f 325 348 327
f 326 349 350
f 326 350 347
f 327 348 351
f 327 351 352
f 327 352 353
f 327 353 354
f 327 354 355
f 327 355 328
f 328 355 329
f 329 355 356
f 329 356 330
f 330 356 331
f 331 356 332
f 332 356 357
f 332 357 333
f 333 357 358
f 333 358 335
f 334 359 336
f 334 335 360
f 334 360 359
f 335 358 361
f 335 361 360
f 336 362 337
f 336 359 363
f 336 363 362
f 337 362 364
f 337 364 338
f 338 364 339
f 339 365 341
f 339 364 366
f 339 366 365
f 340 341 367
f 340 367 368
f 340 368 342
f 341 365 369
f 341 369 367
f 342 344 343
f 342 368 370
f 342 370 371
f 342 371 372
f 342 372 373
f 342 373 344
f 344 373 374
f 347 350 375
f 347 375 376
f 347 376 348
f 348 376 351
f 349 375 350
f 351 377 352
f 351 376 378
f 351 378 379
f 351 379 377
f 352 377 353
f 353 377 354
f 354 377 380
f 354 380 355
f 355 380 381
f 355 381 382
f 355 382 356
f 356 382 383
f 356 383 384
f 356 384 357
f 357 384 385
f 357 385 358
f 358 385 386
f 358 386 361
f 359 360 363
f 360 387 363
f 360 361 388
f 360 388 387
f 361 386 389
f 361 389 388
f 362 363 390
f 362 390 392
f 362 392 364
f 363 387 391
f 363 391 390
f 364 392 366
f 365 366 369
f 366 393 394
f 366 394 369
f 366 392 393
f 367 369 395
f 367 395 396
f 367 396 370
f 367 370 368
f 369 394 395
f 370 396 397
f 370 397 398
f 370 398 371
f 371 398 399
f 371 399 400
f 371 400 372
f 372 400 401
f 372 401 402
f 372 402 374
f 372 374 373
f 374 402 403
f 375 404 376
f 376 404 405
f 376 405 406
f 376 406 407
f 376 407 408
f 376 408 409
f 376 409 378
f 377 379 380
f 378 409 408
f 378 408 446
f 378 446 410
f 378 410 379
f 379 410 411
f 379 411 412
f 379 412 380
f 380 412 413
f 380 413 381
f 381 413 382
f 382 413 383
f 383 414 384
f 383 413 415
f 383 415 416
f 383 416 414
f 384 417 418
f 384 418 385
f 384 414 419
f 384 419 417
f 385 418 386
f 386 418 417
f 386 417 420
f 386 420 421
f 386 421 422
f 386 422 389
f 387 388 423
f 387 423 391
f 388 389 423
f 389 424 423
f 389 422 425
f 389 425 426
f 389 426 427
f 389 427 424
f 390 391 393
f 390 393 392
f 391 423 428
f 391 428 393
f 393 428 429
f 393 429 394
f 394 429 395
f 395 429 430
f 395 430 397
f 395 397 396
f 397 430 431
f 397 431 432
f 397 432 398
f 398 432 433
f 398 433 399
f 399 433 434
f 399 434 435
f 399 435 466
f 399 466 436
f 399 436 400
f 400 437 402
f 400 402 401
f 400 436 438
f 400 438 439
f 400 439 440
f 400 440 441
f 400 441 437
f 402 437 442
f 402 442 403
f 405 443 444
f 405 444 406
f 406 444 445
f 406 445 407
f 407 445 446
f 407 446 408
f 410 447 411
f 410 446 447
f 411 447 448
f 411 448 449
f 411 449 412
f 412 449 413
f 413 449 450
f 413 450 415
f 414 416 419
f 415 450 451
f 415 451 452
f 415 452 416
f 416 452 453
f 416 453 454
f 416 454 419
f 417 419 420
f 419 454 453
f 419 453 455
f 419 455 421
f 419 421 420
f 421 455 456
f 421 456 422
f 422 456 502
f 422 502 457
f 422 457 426
f 422 426 425
f 423 424 459
f 423 459 428
f 424 458 459
f 424 427 460
f 424 460 461
f 424 461 458
f 426 457 427
f 427 457 462
f 427 462 460
f 428 459 463
f 428 463 429
f 429 463 430
f 430 463 431
f 431 463 464
f 431 464 465
f 431 465 432
f 432 465 435
f 432 435 434
f 432 434 433
f 435 465 466
f 436 466 467
f 436 467 468
f 436 468 469
f 436 469 438
f 437 470 471
f 437 471 442
f 437 441 482
f 437 482 470
f 438 472 439
f 438 469 473
f 438 473 474
f 438 474 475
f 438 475 476
f 438 476 477
f 438 477 478
f 438 478 479
f 438 479 472
f 439 472 480
f 439 480 440
f 440 480 481
f 440 481 482
f 440 482 441
f 443 483 444
f 444 484 445
f 444 483 485
f 444 485 486
f 444 486 487
f 444 487 488
f 444 488 489
f 444 489 484
f 445 484 490
f 445 490 491
f 445 491 447
f 445 447 446
f 447 491 492
f 447 492 448
f 448 492 493
f 448 493 449
f 449 493 450
f 450 493 547
f 450 547 494
f 450 494 451
f 451 494 495
f 451 495 452
f 452 495 496
f 452 496 497
f 452 497 453
f 453 497 498
f 453 498 499
f 453 499 500
f 453 500 455
f 455 500 499
f 455 499 501
f 455 501 502
f 455 502 456
f 457 503 504
f 457 504 462
f 457 502 503
f 458 505 463
f 458 463 459
f 458 461 506
f 458 506 505
f 460 507 461
f 460 462 508
f 460 508 509
f 460 509 510
f 460 510 511
f 460 511 507
f 461 507 560
f 461 560 512
f 461 512 506
f 462 504 513
f 462 513 562
f 462 562 508
f 463 505 514
f 463 514 464
f 464 515 516
f 464 516 465
f 464 514 515
f 465 516 466
f 466 516 467
f 467 516 468
f 468 517 518
f 468 518 469
f 468 516 515
f 468 515 517
f 469 518 519
f 469 519 473
f 470 482 520
f 470 520 521
f 470 521 471
f 472 479 480
f 473 522 523
f 473 523 524
f 473 524 525
f 473 525 526
f 473 526 474
f 473 519 522
f 474 526 525
f 474 525 527
f 474 527 528
f 474 528 475
f 475 528 527
f 475 527 476
f 476 527 529
f 476 529 477
f 477 529 530
f 477 530 531
f 477 531 478
f 478 531 479
f 479 531 530
f 479 530 532
f 479 532 533
f 479 533 534
f 479 534 535
f 479 535 480
f 480 536 481
f 480 535 536
f 481 536 597
f 481 597 537
f 481 537 538
f 481 538 482
f 482 538 520
f 484 489 539
f 484 539 540
f 484 540 490
f 486 541 487
f 487 541 542
f 487 542 543
f 487 543 488
f 488 543 489
f 489 543 544
f 489 544 539
f 490 545 491
f 490 540 545
f 491 545 546
f 491 546 492
f 492 546 547
f 492 547 493
f 494 547 548
f 494 548 495
f 495 548 549
f 495 549 550
f 495 550 496
f 496 550 612
f 496 612 551
f 496 551 497
f 497 551 552
f 497 552 498
f 498 552 553
f 498 553 554
f 498 554 499
f 499 554 501
f 501 555 502
f 501 554 553
f 501 553 555
f 502 555 556
f 502 556 503
f 503 556 557
f 503 557 504
f 504 557 558
f 504 558 513
f 505 506 512
f 505 512 559
f 505 559 514
f 507 511 561
f 507 561 619
f 507 619 560
f 508 562 509
f 509 562 563
f 509 563 510
f 510 563 564
f 510 564 565
f 510 565 511
f 511 565 566
f 511 566 561
f 512 560 567
f 512 567 568
f 512 568 559
f 513 558 562
f 514 569 570
f 514 570 517
f 514 517 515
f 514 559 571
f 514 571 569
f 517 570 518
f 518 572 573
f 518 573 522
f 518 522 519
f 518 570 574
f 518 574 572
f 522 575 576
f 522 576 577
f 522 577 578
f 522 578 579
f 522 579 523
f 522 573 575
f 523 579 580
f 523 580 581
f 523 581 582
f 523 582 583
f 523 583 584
f 523 584 524
f 524 584 586
f 524 586 585
f 524 585 525
f 525 585 527
f 527 585 529
f 529 585 530
f 530 585 586
f 530 586 532
f 532 587 534
f 532 534 533
f 532 586 587
f 534 587 586
f 534 586 588
f 534 588 589
f 534 589 590
f 534 590 535
f 535 590 591
f 535 591 592
f 535 592 593
f 535 593 594
f 535 594 536
f 536 594 595
f 536 595 596
f 536 596 597
f 539 544 598
f 539 598 599
f 539 599 600
f 539 600 540
f 540 600 601
f 540 601 602
f 540 602 603
f 540 603 545
f 542 604 543
f 543 604 605
f 543 605 544
f 544 605 598
f 545 603 606
f 545 606 546
f 546 606 607
f 546 607 547
f 547 607 548
f 548 607 608
f 548 608 549
f 549 608 609
f 549 609 610
f 549 610 550
f 550 610 611
f 550 611 612
f 551 612 613
f 551 613 552
f 552 613 614
f 552 614 553
f 553 615 555
f 553 614 616
f 553 616 558
f 553 558 615
f 555 615 556
f 556 615 557
f 557 615 558
f 558 617 656
f 558 656 618
f 558 618 562
f 558 616 614
f 558 614 617
f 559 568 571
f 560 619 620
f 560 620 567
f 561 566 621
f 561 621 657
f 561 657 619
f 562 618 563
f 563 618 622
f 563 622 564
f 564 622 623
f 564 623 624
f 564 624 565
f 565 624 625
f 565 625 626
f 565 626 566
f 566 626 621
f 567 620 627
f 567 627 571
f 567 571 568
f 569 574 570
f 569 571 574
f 571 627 572
f 571 572 574
f 572 627 628
f 572 628 573
f 573 628 575
f 575 628 576
f 576 628 629
f 576 629 630
f 576 630 631
f 576 631 632
f 576 632 577
f 577 632 578
f 578 632 579
f 579 633 580
f 579 632 634
f 579 634 633
f 581 593 635
f 581 635 636
f 581 636 637
f 581 637 582
f 582 637 638
f 582 638 639
f 582 639 588
f 582 588 583
f 583 588 586
f 583 586 584
f 588 639 640
f 588 640 589
f 589 640 590
f 590 640 641
f 590 641 591
f 591 641 592
f 592 641 642
f 592 642 593
f 593 642 635
f 593 643 594
f 594 643 596
f 594 596 595
f 598 605 644
f 598 644 599
f 599 645 646
f 599 646 600
f 599 644 645
f 600 646 601
f 601 646 609
f 601 609 608
f 601 608 602
f 602 608 607
f 602 607 603
f 603 607 606
f 605 647 648
f 605 648 649
f 605 649 644
f 609 646 650
f 609 650 610
f 610 650 611
f 611 650 651
f 611 651 652
f 611 652 653
f 611 653 613
f 611 613 612
f 613 653 654
f 613 654 655
f 613 655 614
f 614 655 617
f 617 655 656
f 618 656 622
f 619 657 658
f 619 658 620
f 620 658 659
f 620 659 627
f 621 626 660
f 621 660 657
f 622 656 652
f 622 652 645
f 622 645 644
f 622 644 623
f 623 644 661
f 623 661 662
f 623 662 663
f 623 663 624
f 624 663 625
f 625 663 664
f 625 664 626
f 626 664 665
f 626 665 660
f 627 659 628
f 628 659 629
f 629 659 630
f 630 666 667
f 630 667 668
f 630 668 631
f 630 659 669
f 630 669 670
f 630 670 666
f 631 668 632
f 632 668 671
f 632 671 672
f 632 672 634
f 634 672 671
f 634 671 673
f 634 673 674
f 635 642 640
f 635 640 675
f 635 675 636
f 636 675 637
f 637 675 638
f 638 675 640
f 638 640 639
f 640 642 641
f 644 649 648
f 644 648 661
f 645 652 651
f 645 651 650
f 645 650 646
f 647 676 648
f 648 676 677
f 648 677 661
f 652 656 654
f 652 654 653
f 654 656 655
f 657 660 678
f 657 678 670
f 657 670 658
f 658 670 659
f 659 670 669
f 660 665 679
f 660 679 678
f 661 677 680
f 661 680 681
f 661 681 662
f 662 681 682
f 662 682 663
f 663 682 683
f 663 683 664
f 664 684 665
f 664 683 684
f 665 684 679
f 666 684 667
f 666 670 684
f 667 684 685
f 667 685 668
f 668 685 686
f 668 686 671
f 670 678 679
f 670 679 684
f 671 686 687
f 671 687 673
f 673 688 689
f 673 689 674
f 673 687 690
f 673 690 691
f 673 691 688
f 680 692 681
f 681 692 693
f 681 693 694
f 681 694 695
f 681 695 682
f 682 695 696
f 682 696 683
f 683 697 684
f 683 696 697
f 684 697 685
f 685 697 696
f 685 696 686
f 686 696 695
f 686 695 687
f 687 695 698
f 687 698 690
f 690 698 699
f 692 700 693
f 693 700 699
f 693 699 694
f 694 699 698
f 694 698 695

