# https://github.com/mikedh/trimesh

o geometry_0
v 0.23393759 -0.14703986 -0.22120053
v 0.23235642 -0.15503279 -0.02805568
v 0.23152992 -0.15503279 -0.22120053
v 0.23145806 -0.15503279 -0.22923421
v 0.23382980 -0.14703986 -0.22923421
v 0.23027217 -0.13956312 -0.22923421
v 0.23034404 -0.13956312 -0.22120053
v 0.23030810 -0.13961101 0.22142108
v 0.23386573 -0.14703986 0.22142108
v 0.23235642 -0.15503279 0.02822813
v 0.22861914 -0.15977693 -0.02805568
v 0.22793636 -0.15966783 -0.22120053
v 0.22865507 -0.15978225 0.01216079
v 0.22790040 -0.15965985 -0.22923421
v 0.22732546 -0.15939910 -0.23731598
v 0.22671455 -0.15910641 -0.24140499
v 0.22984095 -0.15503279 -0.23731598
v 0.23167365 -0.14703986 -0.23731598
v 0.22915815 -0.14025225 -0.23731598
v 0.22254601 -0.13697952 -0.23731598
v 0.22254601 -0.13608816 -0.22923421
v 0.22254601 -0.13608018 -0.18098407
v 0.22254601 -0.13608018 -0.14875318
v 0.22254601 -0.13612542 0.22945476
v 0.23030810 -0.13955247 -0.18098407
v 0.23027217 -0.13959238 0.22945476
v 0.23382980 -0.14703986 0.22945476
v 0.23138616 -0.15503279 0.22945476
v 0.22782854 -0.15961462 0.22945476
v 0.22865507 -0.15977693 0.02822813
v 0.22865507 -0.15978225 0.02019446
v 0.22854724 -0.15978225 -0.03608935
v 0.22254601 -0.16072947 0.01216079
v 0.22254601 -0.16072681 0.00407901
v 0.22254601 -0.16051927 -0.22923421
v 0.22254601 -0.16024522 -0.23731598
v 0.22254601 -0.15950020 -0.24193414
v 0.22254601 -0.15503279 -0.24352163
v 0.22743325 -0.15503279 -0.24198226
v 0.22811603 -0.14703986 -0.24251141
v 0.22761294 -0.14164118 -0.24212658
v 0.21449641 -0.13647663 -0.23731598
v 0.22254601 -0.14045714 -0.24294436
v 0.21449641 -0.13995691 -0.24337731
v -0.11848327 -0.13575291 -0.24371407
v -0.11614744 -0.13575291 -0.24318487
v -0.11172737 -0.13575291 -0.24121255
v -0.10802599 -0.13575291 -0.23784514
v -0.10497146 -0.13575291 -0.22923421
v -0.10461211 -0.13575291 -0.22273992
v -0.01125130 -0.13582475 0.19727197
v 0.18222621 -0.13603761 0.22945476
v 0.19031172 -0.13604825 0.22945476
v 0.20641090 -0.13606953 0.22945476
v 0.21449641 -0.13609348 0.22945476
v 0.19836132 -0.13622120 0.23748843
v 0.20641090 -0.13625579 0.23748843
v 0.21449641 -0.13630634 0.23748843
v 0.22254601 -0.13685180 0.23748843
v 0.22915815 -0.14020436 0.23748843
v 0.23160178 -0.14703986 0.23748843
v 0.22905035 -0.15576449 0.23821002
v 0.22739732 -0.15942038 0.23594905
v 0.22254601 -0.16049533 0.22945476
v 0.22254601 -0.16051661 0.22142108
v 0.22254601 -0.16072415 0.02019446
v 0.20641090 -0.16235254 0.00407901
v 0.20641090 -0.16234722 -0.01997390
v 0.20641090 -0.16234456 -0.02805568
v 0.20641090 -0.16229400 -0.07635391
v 0.20641090 -0.16191085 -0.20508508
v 0.20641090 -0.16186030 -0.21316686
v 0.19836132 -0.16241906 -0.21316686
v 0.21449641 -0.16073213 -0.23731598
v 0.21449641 -0.15985142 -0.24236709
v 0.21449641 -0.15503279 -0.24443566
v 0.22254601 -0.14703986 -0.24457998
v 0.21449641 -0.14703986 -0.24544588
v -0.12455639 -0.13575291 -0.24376214
v -0.10454024 -0.13575291 -0.22120053
v -0.01933682 -0.13581677 0.19727197
v -0.10975090 -0.13575291 0.23739222
v -0.11625525 -0.13575291 0.24354974
v -0.12416111 -0.13575291 0.24470428
v 0.21449641 -0.13978662 0.24364599
v 0.22254601 -0.14031878 0.24316491
v 0.22757698 -0.14156933 0.24229900
v 0.22800823 -0.14703986 0.24263576
v 0.22750512 -0.15358533 0.24225088
v 0.22642706 -0.15891749 0.24133689
v 0.22326472 -0.15990730 0.23821002
v 0.21449641 -0.16070554 0.23748843
v 0.20641090 -0.16155964 0.22142108
v 0.20641090 -0.16170863 0.21333931
v 0.20641090 -0.16234190 0.01216079
v 0.19836132 -0.16280487 -0.03608935
v 0.19836132 -0.16282083 -0.06827214
v 0.19836132 -0.16282083 -0.07635391
v 0.19836132 -0.16259733 -0.16486862
v 0.19836132 -0.16255476 -0.18098407
v 0.19836132 -0.16250687 -0.19705141
v 0.19836132 -0.16248025 -0.20508508
v 0.19031172 -0.16246429 -0.21316686
v 0.19836132 -0.16197471 -0.22120053
v 0.20641090 -0.16073745 -0.23731598
v 0.19031172 -0.16200664 -0.22120053
v 0.04520360 -0.15981152 -0.24231897
v 0.03711808 -0.15980619 -0.24231897
v 0.06126683 -0.15503279 -0.24448373
v 0.07740193 -0.15503279 -0.24448373
v 0.04520360 -0.16075609 -0.23731598
v 0.06935235 -0.14703986 -0.24563827
v -0.12771873 -0.13575291 -0.24308868
v -0.09189089 -0.14703986 -0.24554208
v -0.09994048 -0.14703986 -0.24549395
v -0.10802599 -0.14703986 -0.24525344
v -0.12487981 -0.13975735 -0.24323300
v -0.10436055 -0.13575291 -0.21489867
v -0.10608547 -0.13575291 0.22974339
v -0.10418088 -0.13575291 -0.10853671
v -0.12416111 -0.13904160 0.24441564
v -0.10802599 -0.14703986 0.24475240
v 0.03711808 -0.14703986 0.24552212
v 0.05321724 -0.14703986 0.24557018
v 0.10158662 -0.14703986 0.24566643
v 0.15804152 -0.14703986 0.24576263
v 0.20641090 -0.14703986 0.24581075
v 0.21449641 -0.14703986 0.24576263
v 0.20641090 -0.13974937 0.24369405
v -0.13055765 -0.13575291 0.24273196
v 0.22254601 -0.14703986 0.24475240
v 0.22326472 -0.15576449 0.24316491
v 0.22107264 -0.15952947 0.24215469
v 0.21449641 -0.15980353 0.24249145
v 0.20641090 -0.16077205 0.23748843
v 0.19836132 -0.16191351 0.22142108
v 0.19836132 -0.16211574 0.21333931
v 0.19836132 -0.16270643 0.01216079
v 0.19836132 -0.16272771 0.00407901
v 0.19836132 -0.16274634 -0.00390656
v 0.19836132 -0.16277826 -0.01997390
v 0.19836132 -0.16279423 -0.02805568
v 0.19031172 -0.16284212 -0.02805568
v 0.19031172 -0.16285010 -0.03608935
v 0.18222621 -0.16287937 -0.03608935
v 0.17417663 -0.16289799 -0.03608935
v 0.16612704 -0.16289799 -0.04412302
v 0.19031172 -0.16282882 -0.07635391
v 0.18222621 -0.16262394 -0.17290229
v 0.19031172 -0.16261330 -0.17290229
v 0.19031172 -0.16259467 -0.18098407
v 0.19031172 -0.16252282 -0.20508508
v 0.18222621 -0.16247759 -0.21316686
v 0.18222621 -0.16200930 -0.22120053
v 0.15804152 -0.16201462 -0.22120053
v -0.05965661 -0.15976361 -0.24227090
v -0.05157109 -0.16071617 -0.23731598
v -0.07575579 -0.15975297 -0.24227090
v -0.08384131 -0.15973968 -0.24227090
v -0.08384131 -0.15503279 -0.24433941
v -0.12947956 -0.13757021 -0.24231897
v -0.12991081 -0.13575291 -0.24246328
v -0.09189089 -0.15503279 -0.24429134
v -0.09994048 -0.15503279 -0.24409890
v -0.10770257 -0.15525629 -0.24308868
v -0.11453034 -0.15274187 -0.24255953
v -0.11675835 -0.14770504 -0.24342544
v -0.12268774 -0.14548331 -0.24236709
v -0.11607558 -0.14703986 0.24422326
v -0.12947956 -0.13904160 0.24258764
v -0.12840151 -0.14331745 0.24176986
v -0.12355020 -0.14640394 0.24253951
v -0.01933682 -0.15503279 0.24470428
v -0.09994048 -0.15503279 0.24383837
v -0.09189089 -0.15503279 0.24398269
v 0.02098297 -0.15503279 0.24470428
v 0.20641090 -0.15503279 0.24460808
v 0.21449641 -0.15503279 0.24455996
v -0.13274973 -0.13575291 0.23748843
v 0.20641090 -0.15982748 0.24253951
v -0.01933682 -0.16164212 0.23748843
v 0.19031172 -0.16197738 0.22142108
v 0.19031172 -0.16219024 0.21333931
v 0.19031172 -0.16221418 0.20530564
v 0.19031172 -0.16277560 0.00407901
v 0.19031172 -0.16279689 -0.00390656
v 0.19031172 -0.16282882 -0.01997390
v 0.18222621 -0.16287672 -0.02805568
v 0.17417663 -0.16289533 -0.02805568
v 0.16612704 -0.16290863 -0.02805568
v 0.16612704 -0.16290597 -0.03608935
v 0.15804152 -0.16290065 -0.04412302
v 0.15804152 -0.16288469 -0.05220480
v 0.15804152 -0.16263458 -0.17290229
v 0.16612704 -0.16263192 -0.17290229
v 0.17417663 -0.16261063 -0.18098407
v 0.18222621 -0.16260531 -0.18098407
v 0.18222621 -0.16253614 -0.20508508
v 0.17417663 -0.16247493 -0.21316686
v 0.16612704 -0.16253348 -0.20508508
v 0.15804152 -0.16253082 -0.20508508
v 0.14999194 -0.16200930 -0.22120053
v 0.15804152 -0.16246429 -0.21316686
v -0.05965661 -0.16070820 -0.23731598
v -0.07575579 -0.16068158 -0.23731598
v -0.08384131 -0.16066296 -0.23731598
v -0.09189089 -0.16062039 -0.23731598
v -0.09189089 -0.15969976 -0.24222277
v -0.12804215 -0.14290237 -0.24053907
v -0.13080918 -0.13575291 -0.24092392
v -0.09994048 -0.15956407 -0.24203033
v -0.10479178 -0.15931395 -0.24169363
v -0.11992069 -0.15081016 -0.24053907
v -0.12045973 -0.15132103 0.24176986
v -0.11607558 -0.15248644 0.24249145
v -0.10784631 -0.15522437 0.24306872
v -0.13124042 -0.13904160 0.23748843
v -0.12872493 -0.14368198 0.23748843
v -0.12495168 -0.14768110 0.23748843
v -0.12092688 -0.15178666 0.23748843
v -0.09189089 -0.15981950 0.24239520
v -0.01933682 -0.16028247 0.24292440
v -0.10500739 -0.15944699 0.24201037
v -0.09994048 -0.15972104 0.24229900
v -0.13300126 -0.13575291 0.23291838
v 0.01293339 -0.16186828 0.22945476
v 0.14190642 -0.16204389 0.22142108
v 0.18222621 -0.16199866 0.22142108
v -0.02738640 -0.16157028 0.23748843
v -0.08384131 -0.16216097 0.21333931
v -0.07575579 -0.16219556 0.21333931
v -0.06770620 -0.16221418 0.21333931
v -0.03543599 -0.16226473 0.21333931
v 0.01293339 -0.16209976 0.22142108
v 0.18222621 -0.16222216 0.21333931
v 0.18222621 -0.16225143 0.20530564
v 0.18222621 -0.16278092 0.01216079
v 0.18222621 -0.16284478 -0.01194023
v 0.18222621 -0.16286074 -0.01997390
v 0.17417663 -0.16287937 -0.01997390
v 0.16612704 -0.16289533 -0.01997390
v 0.15804152 -0.16291129 -0.02805568
v 0.15804152 -0.16290331 -0.01997390
v 0.02906849 -0.16292461 0.00407901
v 0.15804152 -0.16290863 -0.03608935
v 0.03711808 -0.16292993 -0.01997390
v 0.14999194 -0.16266651 -0.15683494
v 0.07740193 -0.16259999 -0.17290229
v 0.15804152 -0.16261596 -0.18098407
v 0.02906849 -0.16292727 -0.01997390
v 0.16612704 -0.16261330 -0.18098407
v 0.16612704 -0.16259467 -0.18901773
v 0.17417663 -0.16258935 -0.18901773
v 0.16612704 -0.16256806 -0.19705141
v 0.15804152 -0.16256806 -0.19705141
v 0.14999194 -0.16252282 -0.20508508
v 0.14999194 -0.16256274 -0.19705141
v 0.06935235 -0.16250687 -0.19705141
v -0.01125130 -0.16182305 -0.22120053
v -0.07575579 -0.16215299 -0.21316686
v -0.01933682 -0.16181241 -0.22120053
v -0.06770620 -0.16228868 -0.20508508
v -0.08384131 -0.16169267 -0.22120053
v -0.09189089 -0.16109134 -0.22923421
v -0.09994048 -0.16039422 -0.23731598
v -0.12998268 -0.13975735 -0.23760461
v -0.13192320 -0.13575291 -0.23746029
v -0.12045973 -0.15134497 -0.23515121
v -0.12832964 -0.14322699 -0.23515121
v -0.10597767 -0.15961462 -0.23731598
v -0.11000246 -0.15811927 -0.23731598
v -0.11675835 -0.15368910 -0.23765272
v -0.11607558 -0.15475074 0.23748843
v -0.11011025 -0.15799954 0.23748843
v -0.13167164 -0.13904160 0.22945476
v -0.12894055 -0.14392943 0.22945476
v -0.12523917 -0.14792856 0.22945476
v -0.12121436 -0.15209531 0.22945476
v -0.11607558 -0.15559420 0.22945476
v -0.09189089 -0.16090774 0.23748843
v -0.10608547 -0.15983280 0.23748843
v -0.09994048 -0.16075077 0.23748843
v -0.13310908 -0.13575291 0.22945476
v 0.13385683 -0.16225409 0.21333931
v 0.17417663 -0.16223281 0.21333931
v -0.09189089 -0.16177782 0.21333931
v -0.08384131 -0.16226473 0.20530564
v -0.07575579 -0.16230198 0.20530564
v -0.09189089 -0.16128823 0.22945476
v -0.09994048 -0.16114456 0.22945476
v -0.06770620 -0.16232328 0.20530564
v -0.05965661 -0.16233658 0.20530564
v -0.01933682 -0.16228070 0.21333931
v -0.01125130 -0.16228602 0.21333931
v 0.00488380 -0.16228602 0.21333931
v 0.17417663 -0.16226473 0.20530564
v 0.17417663 -0.16279955 0.01216079
v 0.17417663 -0.16284212 -0.00390656
v 0.16612704 -0.16285542 -0.00390656
v 0.02906849 -0.16292993 -0.00390656
v 0.03711808 -0.16292993 -0.01194023
v 0.09353704 -0.16287937 0.01216079
v 0.03711808 -0.16291129 0.01216079
v 0.02906849 -0.16291397 0.01216079
v 0.02098297 -0.16291929 0.00407901
v 0.02906849 -0.16292993 -0.01194023
v -0.05965661 -0.16238181 -0.18901773
v -0.05965661 -0.16236053 -0.19705141
v 0.06935235 -0.16256806 -0.18098407
v 0.07740193 -0.16257605 -0.18098407
v 0.14999194 -0.16258935 -0.18901773
v 0.02098297 -0.16292195 -0.01194023
v 0.02098297 -0.16291663 -0.01997390
v 0.07740193 -0.16254678 -0.18901773
v 0.06935235 -0.16254146 -0.18901773
v -0.08384131 -0.16213436 -0.21316686
v -0.07575579 -0.16227539 -0.20508508
v -0.09189089 -0.16153569 -0.22120053
v -0.09994048 -0.16084123 -0.22923421
v -0.13070138 -0.13904160 -0.22923421
v -0.13224662 -0.13575291 -0.22923421
v -0.11607558 -0.15513922 -0.22923421
v -0.12056752 -0.15147800 -0.22923421
v -0.12462826 -0.14730327 -0.22923421
v -0.12840151 -0.14330415 -0.22923421
v -0.10698386 -0.15982216 -0.22923421
v -0.11100865 -0.15869665 -0.22923421
v -0.11079304 -0.15853168 0.22945476
v -0.13170757 -0.13904160 0.22142108
v -0.12933584 -0.14446424 0.07652637
v -0.12531103 -0.14800305 0.20530564
v -0.12563445 -0.14859374 0.02019446
v -0.12128626 -0.15211925 0.20530564
v -0.11636307 -0.15621949 0.07652637
v -0.11237421 -0.15923413 0.05237725
v -0.11230233 -0.15918624 0.07652637
v -0.11086491 -0.15858225 0.22142108
v -0.10676824 -0.16003236 0.22945476
v -0.13318095 -0.13575291 0.07652637
v -0.13203100 -0.13904160 0.07652637
v 0.02906849 -0.16234456 0.20530564
v 0.04520360 -0.16233924 0.20530564
v 0.06935235 -0.16233126 0.20530564
v 0.07740193 -0.16236851 0.19727197
v -0.09994048 -0.16120043 0.22142108
v -0.09189089 -0.16180708 0.20530564
v -0.08384131 -0.16229400 0.19727197
v -0.07575579 -0.16233392 0.19727197
v -0.06770620 -0.16236319 0.19727197
v -0.05965661 -0.16237915 0.19727197
v -0.05157109 -0.16234190 0.20530564
v -0.02738640 -0.16234722 0.20530564
v -0.01125130 -0.16234988 0.20530564
v 0.00488380 -0.16234988 0.20530564
v 0.02098297 -0.16292195 -0.00390656
v 0.02906849 -0.16289799 0.02019446
v 0.02098297 -0.16290863 0.01216079
v 0.02098297 -0.16289533 0.02019446
v -0.00320172 -0.16285808 0.00407901
v 0.01293339 -0.16290597 -0.00390656
v 0.01293339 -0.16289001 0.01216079
v -0.06770620 -0.16263458 0.06045903
v -0.06770620 -0.16236851 -0.18901773
v -0.06770620 -0.16234456 -0.19705141
v 0.00488380 -0.16289001 -0.01194023
v 0.00488380 -0.16288469 -0.01997390
v -0.09189089 -0.16180442 -0.21316686
v -0.08384131 -0.16225409 -0.20508508
v -0.08384131 -0.16230730 -0.19705141
v -0.09994048 -0.16103546 -0.22120053
v -0.12933584 -0.14458397 -0.01194023
v -0.13303719 -0.13575291 -0.01194023
v -0.13185133 -0.13904160 -0.01997390
v -0.13188727 -0.13904160 -0.01194023
v -0.11115239 -0.15873922 -0.22120053
v -0.11251795 -0.15934589 -0.07635391
v -0.12160968 -0.15236936 -0.01194023
v -0.12563445 -0.14858310 -0.01194023
v -0.10712761 -0.15986473 -0.22120053
v -0.12937177 -0.14448819 0.06045903
v -0.12160968 -0.15238799 0.00407901
v -0.12160968 -0.15238267 0.01216079
v -0.12160968 -0.15236404 0.02019446
v -0.12937177 -0.14458663 0.02822813
v -0.12563445 -0.14858842 -0.00390656
v -0.11643493 -0.15623279 0.05237725
v -0.11258982 -0.15937514 -0.05220480
v -0.10802599 -0.16020531 0.05237725
v -0.10802599 -0.16015476 0.07652637
v -0.13314501 -0.13575291 0.03958110
v -0.13203100 -0.13904160 0.06849270
v 0.06935235 -0.16237117 0.19727197
v -0.09994048 -0.16131750 0.10870916
v -0.09189089 -0.16217693 0.02019446
v -0.09189089 -0.16216363 0.02822813
v -0.09189089 -0.16206784 0.07652637
v -0.08384131 -0.16254146 0.07652637
v -0.07575579 -0.16235254 0.18919018
v -0.07575579 -0.16258669 0.07652637
v -0.06770620 -0.16238181 0.18919018
v 0.01293339 -0.16287937 0.02019446
v -0.05965661 -0.16263192 0.07652637
v -0.06770620 -0.16265054 0.04434358
v -0.00320172 -0.16287140 -0.01194023
v -0.07575579 -0.16260797 0.06045903
v -0.06770620 -0.16262394 0.06849270
v -0.07575579 -0.16234988 -0.18901773
v -0.00320172 -0.16286606 -0.01997390
v -0.09189089 -0.16187892 -0.20508508
v -0.09189089 -0.16191085 -0.19705141
v -0.08384131 -0.16232594 -0.18901773
v -0.09994048 -0.16107537 -0.21316686
v -0.13199506 -0.13904160 0.03630991
v -0.10802599 -0.16020531 -0.05220480
v -0.11255389 -0.15935121 -0.06827214
v -0.12160968 -0.15238267 -0.00390656
v -0.11636307 -0.15638179 0.01216079
v -0.09994048 -0.16133080 0.04434358
v -0.09994048 -0.16132548 0.10067549
v -0.08384131 -0.16259733 0.02019446
v -0.08384131 -0.16254944 0.06849270
v -0.09189089 -0.16220354 -0.01194023
v -0.06770620 -0.16261063 0.07652637
v -0.07575579 -0.16261596 0.05237725
v -0.07575579 -0.16262926 0.03630991
v -0.06770620 -0.16265586 0.03630991
v -0.07575579 -0.16264788 -0.00390656
v -0.06770620 -0.16267449 -0.01194023
v -0.06770620 -0.16267183 -0.01997390
v -0.01125130 -0.16284212 -0.01997390
v -0.06770620 -0.16266119 0.02822813
v -0.07575579 -0.16263990 0.02019446
v -0.06770620 -0.16266119 -0.02805568
v -0.09189089 -0.16220886 -0.01997390
v -0.07575579 -0.16262926 -0.02805568
v -0.07575579 -0.16264256 -0.01997390
v -0.08384131 -0.16259467 -0.01997390
v -0.09994048 -0.16113126 -0.17290229
v -0.09994048 -0.16114988 -0.15683494
v -0.09994048 -0.16129621 -0.01997390
v -0.09994048 -0.16131750 0.01216079
v -0.09994048 -0.16133080 0.03630991
v -0.08384131 -0.16259999 0.01216079
v -0.08384131 -0.16260265 -0.00390656
v -0.07575579 -0.16264788 -0.01194023
v -0.08384131 -0.16259999 -0.01194023
f 1 2 3
f 1 3 4
f 1 4 5
f 1 5 6
f 1 6 7
f 1 7 8
f 1 8 9
f 1 9 10
f 1 10 2
f 2 11 12
f 2 12 3
f 2 10 31
f 2 31 13
f 2 13 11
f 3 12 14
f 3 14 4
f 4 14 15
f 4 15 16
f 4 16 17
f 4 17 5
f 5 17 18
f 5 18 19
f 5 19 6
f 6 19 20
f 6 20 21
f 6 21 7
f 7 21 22
f 7 22 23
f 7 23 24
f 7 24 25
f 7 25 26
f 7 26 8
f 8 26 9
f 9 26 27
f 9 27 10
f 10 27 28
f 10 28 29
f 10 29 30
f 10 30 31
f 11 32 12
f 11 13 33
f 11 33 34
f 11 34 32
f 12 35 14
f 12 32 35
f 13 31 33
f 14 35 36
f 14 36 15
f 15 36 16
f 16 37 38
f 16 38 39
f 16 39 17
f 16 36 37
f 17 39 18
f 18 39 40
f 18 40 41
f 18 41 19
f 19 41 20
f 20 42 21
f 20 41 43
f 20 43 44
f 20 44 42
f 21 42 45
f 21 45 46
f 21 46 47
f 21 47 48
f 21 48 49
f 21 49 22
f 22 49 50
f 22 50 51
f 22 51 23
f 23 51 52
f 23 52 53
f 23 53 54
f 23 54 55
f 23 55 24
f 24 55 56
f 24 56 57
f 24 57 58
f 24 58 59
f 24 59 26
f 24 26 25
f 26 59 60
f 26 60 27
f 27 60 61
f 27 61 62
f 27 62 28
f 28 62 63
f 28 63 29
f 29 63 64
f 29 64 65
f 29 65 30
f 30 66 33
f 30 33 31
f 30 65 66
f 32 34 35
f 33 67 68
f 33 68 69
f 33 69 34
f 33 66 67
f 34 69 35
f 35 69 70
f 35 70 71
f 35 71 72
f 35 72 73
f 35 73 74
f 35 74 36
f 36 74 37
f 37 74 75
f 37 75 76
f 37 76 38
f 38 76 77
f 38 77 39
f 39 77 40
f 40 77 41
f 41 77 43
f 42 44 45
f 43 77 78
f 43 78 44
f 44 78 79
f 44 79 45
f 45 79 113
f 45 113 162
f 45 162 210
f 45 210 267
f 45 267 321
f 45 321 372
f 45 372 390
f 45 390 339
f 45 339 283
f 45 283 225
f 45 225 179
f 45 179 130
f 45 130 84
f 45 84 83
f 45 83 82
f 45 82 119
f 45 119 120
f 45 120 118
f 45 118 80
f 45 80 50
f 45 50 49
f 45 49 48
f 45 48 47
f 45 47 46
f 50 80 81
f 50 81 51
f 51 81 82
f 51 82 52
f 52 82 83
f 52 83 53
f 53 83 54
f 54 83 84
f 54 84 56
f 54 56 55
f 56 84 57
f 57 84 58
f 58 84 85
f 58 85 59
f 59 85 86
f 59 86 87
f 59 87 60
f 60 87 61
f 61 87 88
f 61 88 89
f 61 89 62
f 62 89 90
f 62 90 63
f 63 90 91
f 63 91 64
f 64 91 92
f 64 92 93
f 64 93 94
f 64 94 95
f 64 95 65
f 65 95 67
f 65 67 66
f 67 95 96
f 67 96 97
f 67 97 98
f 67 98 68
f 68 98 69
f 69 98 70
f 70 98 99
f 70 99 100
f 70 100 71
f 71 100 101
f 71 101 102
f 71 102 72
f 72 102 73
f 73 102 103
f 73 103 104
f 73 104 74
f 74 105 75
f 74 104 106
f 74 106 105
f 75 107 108
f 75 108 109
f 75 109 110
f 75 110 76
f 75 105 111
f 75 111 107
f 76 110 112
f 76 112 78
f 76 78 77
f 78 112 79
f 79 112 114
f 79 114 115
f 79 115 116
f 79 116 117
f 79 117 113
f 80 118 81
f 81 119 82
f 81 118 120
f 81 120 119
f 84 121 122
f 84 122 123
f 84 123 124
f 84 124 125
f 84 125 126
f 84 126 127
f 84 127 128
f 84 128 129
f 84 129 85
f 84 130 121
f 85 129 128
f 85 128 86
f 86 128 131
f 86 131 87
f 87 131 88
f 88 131 89
f 89 131 132
f 89 132 90
f 90 132 133
f 90 133 91
f 91 133 92
f 92 133 134
f 92 134 135
f 92 135 136
f 92 136 93
f 93 136 137
f 93 137 94
f 94 137 95
f 95 138 139
f 95 139 140
f 95 140 141
f 95 141 142
f 95 142 96
f 95 137 138
f 96 142 143
f 96 143 144
f 96 144 97
f 97 144 98
f 98 144 145
f 98 145 146
f 98 146 147
f 98 147 148
f 98 148 149
f 98 149 150
f 98 150 151
f 98 151 99
f 99 151 100
f 100 151 152
f 100 152 101
f 101 152 102
f 102 152 103
f 103 153 106
f 103 106 104
f 103 152 198
f 103 198 153
f 105 106 154
f 105 154 155
f 105 155 111
f 106 153 154
f 107 156 108
f 107 111 157
f 107 157 156
f 108 156 158
f 108 158 109
f 109 114 112
f 109 112 110
f 109 158 159
f 109 159 160
f 109 160 114
f 111 155 157
f 113 117 161
f 113 161 162
f 114 160 163
f 114 163 115
f 115 163 164
f 115 164 116
f 116 164 165
f 116 165 166
f 116 166 167
f 116 167 117
f 117 167 168
f 117 168 161
f 121 169 122
f 121 130 170
f 121 170 171
f 121 171 172
f 121 172 169
f 122 173 123
f 122 169 174
f 122 174 175
f 122 175 173
f 123 173 124
f 124 173 125
f 125 173 126
f 126 173 127
f 127 173 176
f 127 176 177
f 127 177 178
f 127 178 128
f 128 178 131
f 130 171 170
f 130 179 171
f 131 178 132
f 132 178 133
f 133 178 134
f 134 178 180
f 134 180 135
f 135 180 181
f 135 181 182
f 135 182 136
f 136 182 183
f 136 183 137
f 137 183 184
f 137 184 138
f 138 185 186
f 138 186 139
f 138 184 185
f 139 186 140
f 140 186 187
f 140 187 141
f 141 187 142
f 142 187 143
f 143 188 144
f 143 187 188
f 144 188 145
f 145 188 189
f 145 189 146
f 146 189 190
f 146 190 191
f 146 191 147
f 147 191 245
f 147 245 192
f 147 192 148
f 148 192 193
f 148 193 194
f 148 194 195
f 148 195 196
f 148 196 149
f 149 196 197
f 149 197 151
f 149 151 150
f 151 197 198
f 151 198 152
f 153 199 155
f 153 155 154
f 153 198 200
f 153 200 201
f 153 201 199
f 155 202 157
f 155 199 203
f 155 203 202
f 156 157 158
f 157 204 158
f 157 202 204
f 158 204 159
f 159 204 205
f 159 205 206
f 159 206 207
f 159 207 208
f 159 208 163
f 159 163 160
f 161 168 209
f 161 209 210
f 161 210 162
f 163 208 164
f 164 208 211
f 164 211 212
f 164 212 165
f 165 212 166
f 166 168 167
f 166 212 213
f 166 213 168
f 168 213 209
f 169 172 214
f 169 214 215
f 169 215 216
f 169 216 174
f 171 214 172
f 171 179 217
f 171 217 218
f 171 218 219
f 171 219 220
f 171 220 214
f 173 175 221
f 173 221 222
f 173 222 176
f 174 216 223
f 174 223 224
f 174 224 175
f 175 224 221
f 176 222 177
f 177 222 180
f 177 180 178
f 179 225 217
f 180 222 181
f 181 226 227
f 181 227 228
f 181 228 182
f 181 222 221
f 181 221 229
f 181 229 230
f 181 230 231
f 181 231 232
f 181 232 233
f 181 233 234
f 181 234 226
f 182 228 235
f 182 235 183
f 183 235 236
f 183 236 184
f 184 236 185
f 185 236 237
f 185 237 186
f 186 238 239
f 186 239 187
f 186 237 238
f 187 239 188
f 188 239 240
f 188 240 189
f 189 240 241
f 189 241 190
f 190 242 245
f 190 245 191
f 190 241 243
f 190 243 244
f 190 244 242
f 192 245 246
f 192 246 193
f 193 246 247
f 193 247 194
f 194 248 249
f 194 249 251
f 194 251 195
f 194 247 246
f 194 246 250
f 194 250 248
f 195 251 196
f 196 251 252
f 196 252 253
f 196 253 197
f 197 253 198
f 198 254 255
f 198 255 200
f 198 253 252
f 198 252 254
f 199 201 203
f 200 255 201
f 201 256 203
f 201 255 257
f 201 257 258
f 201 258 256
f 202 259 204
f 202 203 259
f 203 260 261
f 203 261 259
f 203 256 258
f 203 258 262
f 203 262 260
f 204 259 261
f 204 261 205
f 205 261 263
f 205 263 206
f 206 263 207
f 207 263 264
f 207 264 265
f 207 265 211
f 207 211 208
f 209 266 267
f 209 267 210
f 209 213 268
f 209 268 269
f 209 269 266
f 211 265 212
f 212 265 270
f 212 270 271
f 212 271 213
f 213 271 272
f 213 272 268
f 214 223 215
f 214 220 273
f 214 273 274
f 214 274 223
f 215 223 216
f 217 225 275
f 217 275 218
f 218 275 276
f 218 276 277
f 218 277 219
f 219 277 278
f 219 278 220
f 220 278 279
f 220 279 273
f 221 224 280
f 221 280 229
f 223 274 281
f 223 281 282
f 223 282 224
f 224 282 280
f 225 283 275
f 226 234 227
f 227 234 284
f 227 284 285
f 227 285 228
f 228 285 235
f 229 280 230
f 230 286 287
f 230 287 288
f 230 288 231
f 230 280 289
f 230 289 290
f 230 290 286
f 231 288 291
f 231 291 232
f 232 291 292
f 232 292 233
f 233 293 234
f 233 292 293
f 234 293 294
f 234 294 295
f 234 295 284
f 235 285 296
f 235 296 236
f 236 296 297
f 236 297 237
f 237 297 298
f 237 298 238
f 238 298 241
f 238 241 240
f 238 240 239
f 241 298 299
f 241 299 243
f 242 244 300
f 242 300 301
f 242 301 246
f 242 246 245
f 243 299 302
f 243 302 303
f 243 303 244
f 244 303 304
f 244 304 357
f 244 357 305
f 244 305 300
f 246 301 300
f 246 300 306
f 246 306 250
f 248 307 308
f 248 308 309
f 248 309 310
f 248 310 311
f 248 311 249
f 248 250 307
f 249 252 251
f 249 311 255
f 249 255 252
f 250 306 312
f 250 312 313
f 250 313 307
f 252 255 254
f 255 311 310
f 255 310 314
f 255 314 315
f 255 315 257
f 257 315 258
f 258 308 262
f 258 315 308
f 260 316 263
f 260 263 261
f 260 262 317
f 260 317 316
f 262 308 317
f 263 318 264
f 263 316 318
f 264 318 319
f 264 319 265
f 265 319 270
f 266 269 320
f 266 320 267
f 267 320 321
f 268 322 323
f 268 323 324
f 268 324 269
f 268 272 322
f 269 324 325
f 269 325 320
f 270 319 326
f 270 326 327
f 270 327 271
f 271 327 272
f 272 327 322
f 273 279 328
f 273 328 274
f 274 328 281
f 275 283 329
f 275 329 330
f 275 330 276
f 276 331 277
f 276 330 331
f 277 331 278
f 278 331 332
f 278 332 333
f 278 333 334
f 278 334 335
f 278 335 336
f 278 336 279
f 279 337 328
f 279 336 337
f 280 282 290
f 280 290 289
f 281 328 338
f 281 338 290
f 281 290 282
f 283 339 340
f 283 340 329
f 284 295 341
f 284 341 342
f 284 342 343
f 284 343 285
f 285 343 344
f 285 344 296
f 286 290 345
f 286 345 346
f 286 346 347
f 286 347 287
f 287 347 348
f 287 348 288
f 288 348 349
f 288 349 291
f 290 338 345
f 291 349 350
f 291 350 292
f 292 351 294
f 292 294 293
f 292 350 351
f 294 351 352
f 294 352 353
f 294 353 354
f 294 354 295
f 295 354 341
f 296 344 302
f 296 302 299
f 296 299 297
f 297 299 298
f 300 355 312
f 300 312 306
f 300 305 355
f 302 344 356
f 302 356 303
f 303 356 304
f 304 356 358
f 304 358 357
f 305 359 360
f 305 360 355
f 305 357 361
f 305 361 362
f 305 362 359
f 307 363 308
f 307 313 363
f 308 364 317
f 308 315 309
f 308 363 364
f 309 315 310
f 310 315 314
f 312 365 366
f 312 366 313
f 312 355 360
f 312 360 365
f 313 366 363
f 316 367 318
f 316 317 368
f 316 368 367
f 317 364 369
f 317 369 368
f 318 367 319
f 319 367 370
f 319 370 326
f 320 325 371
f 320 371 321
f 321 371 373
f 321 373 374
f 321 374 372
f 322 327 375
f 322 375 376
f 322 376 323
f 323 376 377
f 323 377 378
f 323 378 324
f 324 378 325
f 325 378 371
f 326 370 379
f 326 379 375
f 326 375 327
f 328 337 338
f 329 340 380
f 329 380 330
f 330 380 332
f 330 332 331
f 332 381 382
f 332 382 383
f 332 383 333
f 332 380 384
f 332 384 385
f 332 385 381
f 333 383 386
f 333 386 334
f 334 386 387
f 334 387 335
f 335 388 389
f 335 389 336
f 335 387 388
f 336 389 338
f 336 338 337
f 338 389 345
f 339 390 391
f 339 391 340
f 340 391 384
f 340 384 380
f 341 354 392
f 341 392 342
f 342 392 344
f 342 344 343
f 344 392 356
f 345 389 388
f 345 388 393
f 345 393 394
f 345 394 395
f 345 395 396
f 345 396 346
f 346 396 397
f 346 397 347
f 347 398 348
f 347 397 399
f 347 399 398
f 348 398 400
f 348 400 349
f 349 400 350
f 350 392 354
f 350 354 353
f 350 353 352
f 350 352 351
f 350 400 358
f 350 358 356
f 350 356 392
f 357 358 401
f 357 401 361
f 358 402 401
f 358 400 402
f 359 362 403
f 359 403 404
f 359 404 360
f 360 404 365
f 361 401 406
f 361 406 362
f 362 405 403
f 362 406 399
f 362 399 405
f 363 407 369
f 363 369 364
f 363 366 408
f 363 408 407
f 365 404 408
f 365 408 366
f 367 368 409
f 367 409 370
f 368 369 409
f 369 410 409
f 369 407 411
f 369 411 410
f 370 409 412
f 370 412 379
f 371 374 373
f 371 378 384
f 371 384 391
f 371 391 413
f 371 413 374
f 372 374 413
f 372 413 390
f 375 379 376
f 376 414 387
f 376 387 415
f 376 415 377
f 376 379 414
f 377 415 387
f 377 387 416
f 377 416 378
f 378 416 381
f 378 381 385
f 378 385 384
f 379 412 414
f 381 416 387
f 381 387 382
f 382 387 417
f 382 417 383
f 383 417 386
f 386 417 387
f 387 414 388
f 388 418 419
f 388 419 393
f 388 414 442
f 388 442 418
f 390 413 391
f 393 419 394
f 394 420 421
f 394 421 397
f 394 397 395
f 394 419 422
f 394 422 420
f 395 397 396
f 397 421 405
f 397 405 399
f 398 399 400
f 399 406 423
f 399 423 400
f 400 423 402
f 401 402 406
f 402 423 406
f 403 405 424
f 403 424 425
f 403 425 426
f 403 426 404
f 404 427 428
f 404 428 429
f 404 429 430
f 404 430 408
f 404 426 431
f 404 431 432
f 404 432 427
f 405 420 424
f 405 421 420
f 407 408 433
f 407 433 411
f 408 430 433
f 409 410 412
f 410 411 434
f 410 434 412
f 411 433 435
f 411 435 436
f 411 436 437
f 411 437 434
f 412 438 414
f 412 434 438
f 414 438 439
f 414 439 440
f 414 440 441
f 414 441 442
f 418 442 434
f 418 434 419
f 419 434 422
f 420 443 427
f 420 427 432
f 420 432 425
f 420 425 424
f 420 422 434
f 420 434 443
f 425 432 426
f 426 432 431
f 427 444 445
f 427 445 428
f 427 443 444
f 428 445 429
f 429 436 433
f 429 433 430
f 429 445 436
f 433 436 435
f 434 440 439
f 434 439 438
f 434 437 446
f 434 446 444
f 434 444 443
f 434 442 441
f 434 441 440
f 436 445 446
f 436 446 437
f 444 446 445

o geometry_1
v -0.10420312 -0.13574604 -0.10851049
v -0.10438150 -0.13574604 -0.21489267
v -0.12942926 -0.09272392 -0.22926865
v -0.12926828 -0.09272392 0.23751911
v -0.10610443 -0.13574604 0.22975608
v -0.10457294 -0.13574604 -0.22121811
v -0.12960765 -0.09272392 -0.23731919
v -0.13271848 -0.09272392 0.24341325
v -0.12739742 -0.10045652 0.24235905
v -0.10978524 -0.13574604 0.23737535
v -0.10464690 -0.13574604 -0.22270362
v -0.10497757 -0.13574604 -0.22926865
v -0.10804491 -0.13574604 -0.23784630
v -0.12752794 -0.10089454 -0.24201536
v -0.13162642 -0.09272392 -0.24091318
v -0.14029330 -0.09272392 0.24480295
v -0.13222685 -0.10705198 0.24499464
v -0.11626798 -0.13574604 0.24355699
v -0.12635757 -0.10705198 0.24312576
v -0.11928746 -0.12304367 0.24240694
v -0.11998795 -0.11863826 0.24173607
v -0.10814497 -0.13574604 -0.23794215
v -0.11173876 -0.13574604 -0.24120071
v -0.13301870 -0.09272392 -0.24302167
v -0.14029330 -0.09905404 0.24417997
v -0.13222685 -0.11504572 0.24504253
v -0.14599289 -0.09272392 0.24293407
v -0.12416910 -0.13104161 0.24513838
v -0.12416910 -0.13574604 0.24470710
v -0.11617661 -0.13574604 -0.24316541
v -0.13222685 -0.10705198 -0.24426757
v -0.13836153 -0.09272392 -0.24417172
v -0.13820489 -0.11504572 0.24312576
v -0.13222685 -0.12304367 0.24417997
v -0.14510967 -0.09905404 0.24231109
v -0.14803343 -0.09272392 0.23751911
v -0.13057353 -0.13574604 0.24274238
v -0.11851737 -0.13574604 -0.24374044
v -0.12416910 -0.13104161 -0.24441131
v -0.14029330 -0.09272392 -0.24436342
v -0.13233997 -0.13029193 0.24302992
v -0.13694750 -0.12304367 0.24221525
v -0.14447445 -0.10349734 0.24168814
v -0.14836844 -0.09272392 0.22946857
v -0.14611906 -0.09905404 0.23751911
v -0.13629053 -0.12712476 0.24154439
v -0.13274895 -0.13574604 0.23751911
v -0.12456503 -0.13574604 -0.24374044
v -0.13222685 -0.11504572 -0.24436342
v -0.12773243 -0.13574604 -0.24306957
v -0.13106953 -0.13104161 -0.24292582
v -0.14029330 -0.09905404 -0.24383629
v -0.14514447 -0.09272392 -0.24306957
v -0.14462673 -0.10391430 0.23751911
v -0.14465282 -0.10398168 0.22946857
v -0.14864690 -0.09272392 -0.22926865
v -0.13636884 -0.12734799 0.23751911
v -0.13475468 -0.13134907 0.23751911
v -0.13300130 -0.13574604 0.23291879
v -0.13814399 -0.11504572 -0.24273413
v -0.12992526 -0.13574604 -0.24249454
v -0.13713024 -0.12151063 -0.24215911
v -0.14617127 -0.09272392 -0.24268624
v -0.14522280 -0.09905404 -0.24220700
v -0.13639060 -0.12741115 0.22946857
v -0.14467458 -0.10402380 -0.22926865
v -0.14862079 -0.09272392 -0.23094584
v -0.14467023 -0.10401959 -0.23731919
v -0.13497657 -0.13141223 0.22946857
v -0.13311006 -0.13574604 0.22946857
v -0.13080847 -0.13574604 -0.24091318
v -0.14452666 -0.10363212 -0.24158408
v -0.13424998 -0.13104161 -0.23731919
v -0.13614260 -0.12685943 -0.23731919
v -0.14814656 -0.09272392 -0.23832551
v -0.14322141 -0.10802488 -0.22926865
v -0.14836844 -0.09272392 -0.23731919
v -0.14630179 -0.09905404 -0.23731919
v -0.13766539 -0.12286257 -0.23731919
v -0.14064571 -0.11504572 -0.22926865
v -0.13314487 -0.13574604 0.03960992
v -0.13317532 -0.13574604 0.07181209
v -0.13317968 -0.13574604 0.07655616
v -0.13311877 -0.13574604 0.22486825
v -0.13771760 -0.12284150 -0.22926865
v -0.13195710 -0.13574604 -0.23746294
v -0.13227035 -0.13574604 -0.22926865
v -0.13447187 -0.13104161 -0.22926865
v -0.13618175 -0.12684258 -0.22926865
v -0.13314052 -0.13574604 0.03630345
v -0.13305785 -0.13574604 -0.01195189
f 447 448 449
f 447 449 450
f 447 450 451
f 447 451 456
f 447 456 464
f 447 464 475
f 447 475 483
f 447 483 493
f 447 493 505
f 447 505 516
f 447 516 530
f 447 530 529
f 447 529 528
f 447 528 527
f 447 527 536
f 447 536 537
f 447 537 533
f 447 533 532
f 447 532 517
f 447 517 507
f 447 507 496
f 447 496 494
f 447 494 484
f 447 484 476
f 447 476 469
f 447 469 468
f 447 468 459
f 447 459 458
f 447 458 457
f 447 457 452
f 447 452 448
f 448 452 453
f 448 453 449
f 449 453 461
f 449 461 470
f 449 470 478
f 449 478 486
f 449 486 499
f 449 499 509
f 449 509 521
f 449 521 523
f 449 523 513
f 449 513 502
f 449 502 490
f 449 490 482
f 449 482 473
f 449 473 462
f 449 462 454
f 449 454 450
f 450 454 455
f 450 455 451
f 451 455 456
f 452 457 453
f 453 457 458
f 453 458 459
f 453 459 460
f 453 460 461
f 454 462 463
f 454 463 464
f 454 464 465
f 454 465 455
f 455 465 464
f 455 464 466
f 455 466 467
f 455 467 456
f 456 467 464
f 459 468 460
f 460 468 469
f 460 469 470
f 460 470 461
f 462 471 472
f 462 472 463
f 462 473 471
f 463 472 474
f 463 474 464
f 464 467 466
f 464 474 475
f 469 476 470
f 470 476 477
f 470 477 478
f 471 473 479
f 471 479 472
f 472 479 480
f 472 480 475
f 472 475 474
f 473 481 479
f 473 482 481
f 475 480 483
f 476 484 477
f 477 485 486
f 477 486 478
f 477 484 485
f 479 487 480
f 479 481 488
f 479 488 487
f 480 487 483
f 481 489 488
f 481 482 489
f 482 490 491
f 482 491 489
f 483 487 488
f 483 488 492
f 483 492 493
f 484 494 485
f 485 495 486
f 485 494 496
f 485 496 497
f 485 497 495
f 486 495 498
f 486 498 499
f 488 489 492
f 489 491 500
f 489 500 492
f 490 501 500
f 490 500 491
f 490 502 501
f 492 500 503
f 492 503 504
f 492 504 493
f 493 504 505
f 495 497 506
f 495 506 498
f 496 507 497
f 497 507 508
f 497 508 506
f 498 506 499
f 499 506 510
f 499 510 509
f 500 501 503
f 501 511 503
f 501 502 512
f 501 512 511
f 502 513 514
f 502 514 512
f 503 511 515
f 503 515 504
f 504 515 516
f 504 516 505
f 506 508 510
f 507 517 508
f 508 518 510
f 508 517 519
f 508 519 520
f 508 520 518
f 509 510 521
f 510 518 521
f 511 512 515
f 512 514 522
f 512 522 515
f 513 523 524
f 513 524 514
f 514 524 518
f 514 518 525
f 514 525 526
f 514 526 522
f 515 527 528
f 515 528 529
f 515 529 530
f 515 530 516
f 515 522 526
f 515 526 531
f 515 531 527
f 517 532 519
f 518 524 523
f 518 523 521
f 518 520 525
f 519 533 534
f 519 534 520
f 519 532 533
f 520 534 535
f 520 535 531
f 520 531 525
f 525 531 526
f 527 531 536
f 531 535 536
f 533 537 534
f 534 537 535
f 535 537 536

o geometry_2
v -0.19674105 0.08420809 -0.24484231
v -0.19674105 0.08489285 -0.24484231
v -0.19615817 0.08420809 -0.24469828
v -0.20380281 0.08420809 -0.24320985
v -0.20480503 0.09288438 -0.24417014
v -0.20480503 0.10088369 -0.24503438
v -0.21286480 0.13286536 -0.24517840
v -0.19101282 0.08489285 -0.24296981
v -0.19091219 0.08420809 -0.24296981
v -0.20470019 0.08420809 -0.24292177
v -0.22092879 0.14086466 -0.24455425
v -0.21086454 0.10088369 -0.24296981
v -0.21286480 0.12486605 -0.24513040
v -0.22092879 0.14885620 -0.24469828
v -0.21382091 0.14885620 -0.24325786
v -0.20696465 0.13286536 -0.24311383
v -0.19892164 0.10888299 -0.24306582
v -0.19194376 0.09134365 -0.24220159
v -0.19064381 0.08420809 -0.24248965
v -0.20771946 0.08420809 -0.23749627
v -0.20895234 0.08854234 -0.24148138
v -0.20967361 0.09288438 -0.24215358
v -0.22645573 0.14885620 -0.24272973
v -0.21913819 0.12486605 -0.24306582
v -0.22601543 0.14086466 -0.24244164
v -0.22592316 0.15446660 -0.24215358
v -0.22092879 0.15556378 -0.24282575
v -0.21534733 0.15485568 -0.24248965
v -0.20799624 0.13930060 -0.24229761
v -0.19994065 0.11552055 -0.24224960
v -0.19152442 0.09252644 -0.23730422
v -0.18913837 0.08489285 -0.23730422
v -0.18892868 0.08420809 -0.23730422
v -0.20773623 0.08420809 -0.23730422
v -0.20912846 0.08799764 -0.23730422
v -0.22565059 0.13492744 -0.23730422
v -0.22533189 0.13580674 -0.24176947
v -0.22922760 0.14885620 -0.23730422
v -0.22732797 0.15702669 -0.23735223
v -0.22579317 0.16146210 -0.23471150
v -0.22092879 0.15956345 -0.23941681
v -0.21641245 0.16132982 -0.23466349
v -0.21464702 0.15725235 -0.23735223
v -0.21058359 0.14885620 -0.23730422
v -0.20083804 0.12071077 -0.23730422
v -0.20900266 0.14449859 -0.23730422
v -0.20759785 0.14049894 -0.23730422
v -0.18903772 0.08489285 -0.22923798
v -0.18881547 0.08420809 -0.22923798
v -0.18891191 0.08420809 -0.23663204
v -0.19268182 0.09696963 0.23749955
v -0.19134411 0.09288438 0.23749955
v -0.20806753 0.08420809 -0.23024626
v -0.22825052 0.14086466 -0.22923798
v -0.22757957 0.14086466 -0.23730422
v -0.23080851 0.14885620 -0.22923798
v -0.22989855 0.15685550 -0.22923798
v -0.22645992 0.16196013 -0.22923798
v -0.22092879 0.16277716 -0.22923798
v -0.22092879 0.16167220 -0.23538369
v -0.21609376 0.16167220 -0.22923798
v -0.21355254 0.15685550 -0.22923798
v -0.21045778 0.14885620 -0.22923798
v -0.21294868 0.15685550 -0.07631554
v -0.21022713 0.14885620 -0.07631554
v -0.20073321 0.12100646 0.23951611
v -0.18862676 0.08420809 0.23749955
v -0.20073321 0.12100646 0.24158070
v -0.19268601 0.09696185 0.24158070
v -0.20809687 0.08420809 -0.22923798
v -0.22844761 0.14086466 -0.22121976
v -0.23113141 0.14885620 -0.22121976
v -0.23037660 0.15685550 -0.22121976
v -0.22672411 0.16216243 -0.22121976
v -0.22092879 0.16311176 -0.22121976
v -0.21598892 0.16181228 -0.22121976
v -0.21346028 0.15685550 -0.22121976
v -0.21341414 0.15685550 -0.21315352
v -0.21571634 0.16199902 -0.07631554
v -0.21566602 0.16206127 -0.02806215
v -0.21556539 0.16218579 0.10066158
v -0.21554442 0.16224024 0.14896299
v -0.21291932 0.15685550 -0.03608037
v -0.21595537 0.16185119 -0.21315352
v -0.21582957 0.16193677 -0.14070141
v -0.21291513 0.15685550 0.09264335
v -0.19201087 0.09288438 0.24230090
v -0.19080735 0.08489285 0.24321315
v -0.19070251 0.08420809 0.24326116
v -0.21318771 0.15685550 0.20533062
v -0.21322544 0.15685550 0.21334885
v -0.21331769 0.15685550 0.22141510
v -0.21351059 0.15685550 0.22943333
v -0.21094422 0.14885620 0.23749955
v -0.20804237 0.13903603 0.24244493
v -0.20006226 0.11688230 0.24230090
v -0.21294029 0.15685550 0.14094476
v -0.21294448 0.15685550 0.14896299
v -0.21296545 0.15685550 0.15702923
v -0.21299900 0.15685550 0.16504744
v -0.21303674 0.15685550 0.17311369
v -0.22848954 0.14086466 -0.21315352
v -0.20845332 0.08420809 0.17311369
v -0.23114818 0.14885620 -0.21315352
v -0.23046885 0.15685550 -0.17291835
v -0.22679959 0.16220135 -0.17291835
v -0.22092879 0.16313512 -0.21315352
v -0.22092879 0.16369537 0.15702923
v -0.22092879 0.16322850 -0.17291835
v -0.21555280 0.16225582 0.15702923
v -0.19882101 0.10888299 0.24330917
v -0.20480503 0.10888299 0.24527772
v -0.19674105 0.08489285 0.24513369
v -0.19674105 0.08420809 0.24513369
v -0.21569537 0.16213910 0.21334885
v -0.21572893 0.16210796 0.22141510
v -0.21591763 0.16185897 0.22943333
v -0.21634955 0.16138429 0.23476280
v -0.21472670 0.15715898 0.23745154
v -0.21544378 0.15470004 0.24268501
v -0.21400962 0.14885620 0.24345320
v -0.20696884 0.13286536 0.24321315
v -0.23133270 0.14885620 -0.06829732
v -0.23132431 0.14885620 -0.07631554
v -0.23124882 0.14885620 -0.14070141
v -0.22869503 0.14086466 0.04434195
v -0.20845751 0.08420809 0.17892330
v -0.22874535 0.14086466 0.10872782
v -0.23141236 0.14885620 0.04434195
v -0.23067013 0.15685550 0.15702923
v -0.22684992 0.16229473 0.15702923
v -0.22684572 0.16230251 0.16504744
v -0.22092879 0.16369537 0.16504744
v -0.21557796 0.16224804 0.16504744
v -0.21286480 0.13286536 0.24522971
v -0.21286480 0.12486605 0.24532573
v -0.20480503 0.10088369 0.24518170
v -0.20480503 0.09288438 0.24426942
v -0.20462890 0.08420809 0.24311713
v -0.22092879 0.16353974 0.21334885
v -0.21560312 0.16223246 0.17311369
v -0.22092879 0.16367204 0.17311369
v -0.22092879 0.16343858 0.22141510
v -0.22092879 0.16280052 0.22943333
v -0.22092879 0.16157104 0.23519492
v -0.22092879 0.15932221 0.23918003
v -0.22092879 0.15532256 0.24306909
v -0.22092879 0.14885620 0.24484560
v -0.20845751 0.08420809 0.18117993
v -0.22874953 0.14086466 0.17311369
v -0.23144592 0.14885620 0.11679406
v -0.23146688 0.14885620 0.16504744
v -0.23067013 0.15685550 0.16504744
v -0.23065755 0.15685550 0.17311369
v -0.22682895 0.16228695 0.18117993
v -0.22677863 0.16225582 0.21334885
v -0.22092879 0.14086466 0.24455751
v -0.21903335 0.12486605 0.24326116
v -0.21076809 0.10088369 0.24316514
v -0.20956038 0.09288438 0.24225286
v -0.20888105 0.08876022 0.24158070
v -0.20764398 0.08420809 0.23749955
v -0.22669475 0.16218579 0.22141510
v -0.22619574 0.16179670 0.22943333
v -0.22550802 0.16127535 0.23447473
v -0.22589800 0.15430319 0.24239692
v -0.22638024 0.14885620 0.24292506
v -0.20844913 0.08420809 0.18703755
v -0.22873696 0.14086466 0.21334885
v -0.22874115 0.14086466 0.20533062
v -0.23145849 0.14885620 0.17311369
v -0.23144592 0.14885620 0.18117993
v -0.23140817 0.14885620 0.20533062
v -0.23139559 0.14885620 0.21334885
v -0.23064078 0.15685550 0.18117993
v -0.23062400 0.15685550 0.18919816
v -0.23056530 0.15685550 0.21334885
v -0.23046046 0.15685550 0.22141510
v -0.22586026 0.14086466 0.24249294
v -0.22520608 0.13614134 0.24182075
v -0.22557511 0.13514532 0.23749955
v -0.20909072 0.08813771 0.23749955
v -0.20821848 0.08420809 0.22943333
v -0.22957145 0.15685550 0.22943333
v -0.22705539 0.15692553 0.23725949
v -0.22901791 0.14885620 0.23749955
v -0.20842816 0.08420809 0.19726440
v -0.20839881 0.08420809 0.20533062
v -0.20830655 0.08420809 0.21963860
v -0.22868244 0.14086466 0.22141510
v -0.23134108 0.14885620 0.22141510
v -0.23076658 0.14885620 0.22943333
v -0.22742442 0.14086466 0.23749955
v -0.22835955 0.14086466 0.22943333
v -0.20823526 0.08420809 0.22794490
f 538 539 540
f 538 540 546
f 538 546 556
f 538 556 570
f 538 570 587
f 538 587 586
f 538 586 604
f 538 604 626
f 538 626 651
f 538 651 676
f 538 676 699
f 538 699 720
f 538 720 732
f 538 732 726
f 538 726 725
f 538 725 724
f 538 724 705
f 538 705 686
f 538 686 664
f 538 664 640
f 538 640 607
f 538 607 590
f 538 590 571
f 538 571 557
f 538 557 547
f 538 547 541
f 538 541 542
f 538 542 543
f 538 543 539
f 539 543 544
f 539 544 545
f 539 545 540
f 540 545 546
f 541 547 542
f 542 548 543
f 542 547 549
f 542 549 548
f 543 550 544
f 543 548 550
f 544 550 551
f 544 551 552
f 544 552 553
f 544 553 554
f 544 554 545
f 545 554 555
f 545 555 556
f 545 556 546
f 547 557 558
f 547 558 559
f 547 559 549
f 548 560 551
f 548 551 550
f 548 549 561
f 548 561 562
f 548 562 560
f 549 559 561
f 551 560 563
f 551 563 564
f 551 564 565
f 551 565 552
f 552 565 566
f 552 566 553
f 553 566 567
f 553 567 554
f 554 567 555
f 555 567 568
f 555 568 569
f 555 569 570
f 555 570 556
f 557 571 572
f 557 572 558
f 558 572 573
f 558 573 574
f 558 574 559
f 559 574 562
f 559 562 561
f 560 562 575
f 560 575 563
f 562 574 575
f 563 576 577
f 563 577 578
f 563 578 564
f 563 575 576
f 564 578 565
f 565 578 579
f 565 579 580
f 565 580 581
f 565 581 566
f 566 582 567
f 566 581 583
f 566 583 584
f 566 584 582
f 567 582 568
f 568 585 586
f 568 586 587
f 568 587 569
f 568 582 588
f 568 588 589
f 568 589 585
f 569 587 570
f 571 590 572
f 572 590 591
f 572 591 573
f 573 591 592
f 573 592 574
f 574 592 575
f 575 592 593
f 575 593 594
f 575 594 576
f 576 594 577
f 577 594 595
f 577 595 596
f 577 596 597
f 577 597 578
f 578 597 579
f 579 597 596
f 579 596 598
f 579 598 599
f 579 599 580
f 580 599 581
f 581 599 600
f 581 600 583
f 582 584 601
f 582 601 602
f 582 602 603
f 582 603 588
f 583 600 584
f 584 600 601
f 585 589 586
f 586 589 604
f 588 603 605
f 588 605 606
f 588 606 589
f 589 606 604
f 590 607 591
f 591 593 592
f 591 607 608
f 591 608 609
f 591 609 593
f 593 609 610
f 593 610 594
f 594 610 595
f 595 610 611
f 595 611 612
f 595 612 596
f 596 612 598
f 598 612 613
f 598 613 599
f 599 613 614
f 599 614 600
f 600 614 615
f 600 615 601
f 601 616 617
f 601 617 618
f 601 618 619
f 601 619 620
f 601 620 602
f 601 615 621
f 601 621 622
f 601 622 616
f 602 620 603
f 603 623 605
f 603 620 623
f 604 606 624
f 604 624 625
f 604 625 626
f 605 627 628
f 605 628 629
f 605 629 630
f 605 630 631
f 605 631 632
f 605 632 633
f 605 633 624
f 605 624 606
f 605 623 634
f 605 634 635
f 605 635 636
f 605 636 637
f 605 637 638
f 605 638 627
f 607 639 608
f 607 640 639
f 608 639 609
f 609 639 641
f 609 641 610
f 610 641 642
f 610 642 643
f 610 643 611
f 611 644 612
f 611 643 645
f 611 645 646
f 611 646 644
f 612 644 621
f 612 621 613
f 613 621 614
f 614 621 615
f 616 622 617
f 617 622 646
f 617 646 645
f 617 645 647
f 617 647 618
f 618 647 619
f 619 647 623
f 619 623 620
f 621 644 646
f 621 646 622
f 623 647 634
f 624 633 648
f 624 648 625
f 625 648 626
f 626 648 649
f 626 649 650
f 626 650 651
f 627 652 628
f 627 638 652
f 628 652 653
f 628 653 629
f 629 653 630
f 630 653 654
f 630 654 655
f 630 655 656
f 630 656 631
f 631 656 632
f 632 656 657
f 632 657 658
f 632 658 659
f 632 659 633
f 633 659 648
f 634 647 635
f 635 647 636
f 636 647 652
f 636 652 637
f 637 652 638
f 639 660 661
f 639 661 662
f 639 662 641
f 639 640 663
f 639 663 660
f 640 664 665
f 640 665 663
f 641 662 642
f 642 662 661
f 642 661 660
f 642 660 666
f 642 666 667
f 642 667 643
f 643 667 668
f 643 668 669
f 643 669 645
f 645 669 670
f 645 670 647
f 647 670 671
f 647 671 652
f 648 659 672
f 648 672 649
f 649 672 673
f 649 673 651
f 649 651 650
f 651 673 674
f 651 674 675
f 651 675 676
f 652 677 653
f 652 671 678
f 652 678 679
f 652 679 677
f 653 677 680
f 653 680 654
f 654 680 681
f 654 681 655
f 655 682 683
f 655 683 657
f 655 657 656
f 655 681 682
f 657 683 684
f 657 684 685
f 657 685 658
f 658 685 672
f 658 672 659
f 660 663 665
f 660 665 666
f 664 686 687
f 664 687 665
f 665 688 666
f 665 687 689
f 665 689 688
f 666 688 667
f 667 688 689
f 667 689 690
f 667 690 669
f 667 669 668
f 669 690 691
f 669 691 692
f 669 692 670
f 670 692 693
f 670 693 679
f 670 679 678
f 670 678 671
f 672 685 673
f 673 685 694
f 673 694 675
f 673 675 674
f 675 694 695
f 675 695 696
f 675 696 676
f 676 696 697
f 676 697 698
f 676 698 699
f 677 679 693
f 677 693 700
f 677 700 680
f 680 700 701
f 680 701 681
f 681 701 702
f 681 702 682
f 682 702 683
f 683 702 703
f 683 703 684
f 684 703 685
f 685 703 704
f 685 704 694
f 686 705 706
f 686 706 707
f 686 707 687
f 687 707 689
f 689 707 706
f 689 706 708
f 689 708 690
f 690 708 709
f 690 709 691
f 691 709 710
f 691 710 711
f 691 711 712
f 691 712 692
f 692 712 713
f 692 713 693
f 693 713 714
f 693 714 715
f 693 715 700
f 694 704 716
f 694 716 695
f 695 716 697
f 695 697 696
f 697 717 698
f 697 716 717
f 698 717 718
f 698 718 719
f 698 719 699
f 699 719 720
f 700 715 701
f 701 715 721
f 701 721 702
f 702 722 703
f 702 721 722
f 703 722 723
f 703 723 704
f 704 723 716
f 705 724 706
f 706 724 725
f 706 725 726
f 706 726 727
f 706 727 728
f 706 728 711
f 706 711 710
f 706 710 709
f 706 709 708
f 711 714 713
f 711 713 712
f 711 728 714
f 714 728 715
f 715 728 729
f 715 729 721
f 716 723 717
f 717 723 730
f 717 730 718
f 718 730 731
f 718 731 719
f 719 731 720
f 720 727 732
f 720 731 727
f 721 729 723
f 721 723 722
f 723 729 730
f 726 732 727
f 727 731 728
f 728 731 729
f 729 731 730

o geometry_3
v -0.14029966 -0.09272390 -0.24437994
v -0.14836100 -0.07505842 -0.24409208
v -0.14029966 -0.09104395 -0.24452385
v -0.13836959 -0.09272390 -0.24418804
v -0.14515196 -0.09272390 -0.24303664
v -0.19673676 0.06888066 -0.24418804
v -0.19673676 0.07688209 -0.24495563
v -0.14836100 -0.06705698 -0.24461981
v -0.14643092 -0.09104395 -0.24284474
v -0.15346134 -0.07505842 -0.24236499
v -0.15462403 -0.06705698 -0.24289272
v -0.14029966 -0.08304252 -0.24437994
v -0.13302120 -0.09272390 -0.24298866
v -0.14617514 -0.09272390 -0.24270083
v -0.18689262 0.02889085 -0.24294071
v -0.19481444 0.05289513 -0.24298866
v -0.20282151 0.07688209 -0.24298866
v -0.19673676 0.08420808 -0.24485966
v -0.20469732 0.08420808 -0.24294071
v -0.20379818 0.08420808 -0.24322853
v -0.15270171 -0.07997704 -0.24169337
v -0.18500131 0.01576297 -0.24174132
v -0.18577644 0.02088943 -0.24236499
v -0.19614766 0.08420808 -0.24471575
v -0.13473423 -0.08304252 -0.24270083
v -0.13343201 -0.09104395 -0.24298866
v -0.13163372 -0.09272390 -0.24092577
v -0.14815171 -0.09272390 -0.23833515
v -0.20168983 0.06888066 -0.24226906
v -0.20771257 0.08420808 -0.23747161
v -0.14837650 -0.09272390 -0.23727971
v -0.15292650 -0.08060053 -0.23727971
v -0.18526486 0.01501825 -0.23727971
v -0.20096896 0.06429110 -0.24159741
v -0.19090779 0.08420808 -0.24298866
v -0.13561788 -0.07713672 -0.24202918
v -0.12961063 -0.09272390 -0.23727971
v -0.20286027 0.06888066 -0.23727971
v -0.20772809 0.08420808 -0.23727971
v -0.14862454 -0.09272390 -0.23094708
v -0.14864779 -0.09272390 -0.22926797
v -0.15153127 -0.08461856 -0.22926797
v -0.15294975 -0.08061785 -0.22926797
v -0.15486431 -0.07505842 -0.22926797
v -0.15756952 -0.06705698 -0.22926797
v -0.18528036 0.01505289 -0.22926797
v -0.18723368 0.02088943 -0.22926797
v -0.20570500 0.07688209 -0.22926797
v -0.20117048 0.06370226 -0.23727971
v -0.19063650 0.08420808 -0.24246095
v -0.18396265 0.06695825 -0.24212514
v -0.16782447 0.01914020 -0.24202918
v -0.16740590 0.02033521 -0.23727971
v -0.12943236 -0.09272390 -0.22926797
v -0.20809239 0.08420808 -0.22926797
v -0.20806138 0.08420808 -0.23022746
v -0.14837650 -0.09272390 0.22946376
v -0.15273271 -0.08002901 0.22946376
v -0.16087157 -0.05628451 0.20528464
v -0.18383087 0.01131196 0.19727292
v -0.19521750 0.04489370 0.18115349
v -0.20332535 0.06888066 0.18921320
v -0.20845670 0.08420808 0.18115349
v -0.18892346 0.08420808 -0.23727971
v -0.18890796 0.08420808 -0.23660806
v -0.18881495 0.08420808 -0.22926797
v -0.14430707 -0.04700147 0.24112157
v -0.12926958 -0.09272390 0.23752349
v -0.14804319 -0.09272390 0.23752349
v -0.15265521 -0.07978653 0.23752349
v -0.16084831 -0.05621523 0.22946376
v -0.18702440 0.02088943 0.22946376
v -0.18382311 0.01132928 0.20528464
v -0.19520976 0.04489370 0.18921320
v -0.18972185 0.02889085 0.22946376
v -0.20329434 0.06888066 0.19727292
v -0.20842570 0.08420808 0.19727292
v -0.18862117 0.08420808 0.23752349
v -0.14430707 -0.04700147 0.24155332
v -0.13541634 -0.07646127 0.24241687
v -0.13445519 -0.08304252 0.24313650
v -0.13272666 -0.09272390 0.24342433
v -0.14599684 -0.09272390 0.24294460
v -0.15250793 -0.07937087 0.24164929
v -0.16074755 -0.05592081 0.23752349
v -0.18500131 0.01583225 0.23752349
v -0.20313932 0.06888066 0.22946376
v -0.20319357 0.06888066 0.22140406
v -0.20326334 0.06888066 0.20528464
v -0.20839468 0.08420808 0.20528464
v -0.19069851 0.08420808 0.24323243
v -0.18376885 0.06739122 0.24246485
v -0.14360170 -0.05105414 0.24227296
v -0.14245452 -0.05905556 0.24318445
v -0.14029966 -0.08304252 0.24495952
v -0.14029966 -0.09104395 0.24495952
v -0.14029966 -0.09272390 0.24476763
v -0.14622939 -0.09104395 0.24308852
v -0.15436824 -0.06705698 0.24308852
v -0.15318228 -0.07505842 0.24232094
v -0.16058476 -0.05543587 0.24164929
v -0.18478427 0.01647305 0.24169727
v -0.20089145 0.06451625 0.24169727
v -0.20274401 0.06888066 0.23752349
v -0.20581352 0.07688209 0.22946376
v -0.20830168 0.08420808 0.21967698
v -0.19673676 0.08420808 0.24515142
v -0.19673676 0.07688209 0.24510344
v -0.14836100 -0.07505842 0.24419194
v -0.19673676 0.06888066 0.24428787
v -0.20272850 0.07688209 0.24313650
v -0.20158907 0.06888066 0.24236889
v -0.20764281 0.08420808 0.23752349
v -0.20821640 0.08420808 0.22946376
v -0.20823192 0.08420808 0.22792858
v -0.20461982 0.08420808 0.24308852
f 733 734 735
f 733 735 736
f 733 736 745
f 733 745 759
f 733 759 769
f 733 769 786
f 733 786 800
f 733 800 814
f 733 814 829
f 733 829 815
f 733 815 801
f 733 801 789
f 733 789 773
f 733 773 772
f 733 772 763
f 733 763 760
f 733 760 746
f 733 746 737
f 733 737 734
f 734 738 739
f 734 739 740
f 734 740 735
f 734 737 741
f 734 741 742
f 734 742 743
f 734 743 738
f 735 740 744
f 735 744 736
f 736 744 745
f 737 746 741
f 738 743 747
f 738 747 748
f 738 748 749
f 738 749 739
f 739 750 740
f 739 749 751
f 739 751 752
f 739 752 750
f 740 750 744
f 741 746 742
f 742 753 754
f 742 754 755
f 742 755 747
f 742 747 743
f 742 746 753
f 744 750 756
f 744 756 757
f 744 757 758
f 744 758 745
f 745 758 757
f 745 757 759
f 746 760 753
f 747 755 748
f 748 755 749
f 749 755 761
f 749 761 751
f 750 752 751
f 750 751 762
f 750 762 771
f 750 771 788
f 750 788 787
f 750 787 795
f 750 795 809
f 750 809 822
f 750 822 838
f 750 838 847
f 750 847 846
f 750 846 845
f 750 845 848
f 750 848 839
f 750 839 823
f 750 823 810
f 750 810 798
f 750 798 797
f 750 797 796
f 750 796 782
f 750 782 767
f 750 767 756
f 751 761 762
f 753 760 763
f 753 763 764
f 753 764 765
f 753 765 754
f 754 766 761
f 754 761 755
f 754 765 766
f 756 767 757
f 757 767 768
f 757 768 759
f 759 768 769
f 761 766 762
f 762 766 770
f 762 770 771
f 763 772 764
f 764 772 773
f 764 773 774
f 764 774 775
f 764 775 776
f 764 776 765
f 765 776 777
f 765 777 778
f 765 778 779
f 765 779 780
f 765 780 781
f 765 781 766
f 766 781 770
f 767 782 783
f 767 783 784
f 767 784 768
f 768 784 785
f 768 785 769
f 769 785 786
f 770 781 780
f 770 780 787
f 770 787 788
f 770 788 771
f 773 789 774
f 774 789 775
f 775 789 776
f 776 789 790
f 776 790 791
f 776 791 792
f 776 792 793
f 776 793 794
f 776 794 777
f 777 794 778
f 778 794 795
f 778 795 779
f 779 795 780
f 780 795 787
f 782 796 783
f 783 796 784
f 784 796 785
f 785 796 797
f 785 797 798
f 785 798 786
f 786 798 799
f 786 799 800
f 789 801 802
f 789 802 790
f 790 802 803
f 790 803 791
f 791 803 804
f 791 804 805
f 791 805 792
f 792 805 804
f 792 804 806
f 792 806 793
f 793 806 794
f 794 806 804
f 794 804 807
f 794 807 808
f 794 808 809
f 794 809 795
f 798 810 799
f 799 810 811
f 799 811 800
f 800 811 812
f 800 812 813
f 800 813 814
f 801 815 816
f 801 816 802
f 802 816 817
f 802 817 804
f 802 804 803
f 804 817 818
f 804 818 807
f 807 819 820
f 807 820 821
f 807 821 808
f 807 818 819
f 808 821 822
f 808 822 809
f 810 823 824
f 810 824 811
f 811 824 825
f 811 825 812
f 812 825 826
f 812 826 813
f 813 826 827
f 813 827 814
f 814 827 828
f 814 828 829
f 815 829 830
f 815 830 831
f 815 831 832
f 815 832 816
f 816 832 833
f 816 833 818
f 816 818 817
f 818 833 834
f 818 834 835
f 818 835 836
f 818 836 819
f 819 837 820
f 819 836 837
f 820 837 822
f 820 822 821
f 822 837 838
f 823 839 826
f 823 826 825
f 823 825 824
f 826 839 827
f 827 839 828
f 828 839 840
f 828 840 841
f 828 841 830
f 828 830 829
f 830 841 831
f 831 841 842
f 831 842 843
f 831 843 844
f 831 844 832
f 832 844 834
f 832 834 833
f 834 844 835
f 835 844 845
f 835 845 836
f 836 845 846
f 836 846 837
f 837 846 847
f 837 847 838
f 839 848 840
f 840 842 841
f 840 848 843
f 840 843 842
f 843 848 844
f 844 848 845

